<?xml version="1.0"?>
<svg xmlns="http://www.w3.org/2000/svg" version="1.2" baseProfile="tiny" width="800" height="918" viewBox="0 0 800 918" stroke-linecap="round" stroke-linejoin="round">
<g id="2019_こならのみち" fill="none" stroke="black" stroke-width="1">
<path d="M 597.91 253.09 493.44 206.5 M 604.4 238.48 499.93 191.89 M 574.13 306.58 469.66 260 M 586.07 279.72 481.6 233.13 M 210.48 61.68 760.58 306.99 M 214.78 36.78 799 297.3 M 550.45 359.84 445.98 313.26 M 562.29 333.21 457.82 286.63 M 514.73 440.2 410.26 393.62 M 526.67 413.34 422.2 366.75 M 538.51 386.71 434.04 340.12 M 491.05 493.46 386.59 446.88 M 502.89 466.83 398.42 420.25 M 455.44 573.59 350.97 527 M 467.27 546.96 362.81 500.37 M 479.11 520.33 374.64 473.74 M 431.66 627.08 327.19 580.5 M 443.49 600.45 339.03 553.87 M 407.88 680.58 303.41 633.99 M 419.72 653.95 315.25 607.36 M 372.26 760.7 267.79 714.12 M 396.04 707.21 291.57 660.62 M 348.48 814.2 244.01 767.61 M 360.32 787.57 255.85 740.98 M 427.39 753.38 279.63 687.49 M 324.7 867.69 220.23 821.1 M 336.64 840.83 232.18 794.24 M 290.64 892.31 112.53 812.89 M 115.46 806.29 293.57 885.72 M 149.33 550.6 461.79 689.94 M 122.21 565.33 469.02 719.98 M 132.66 533.56 170.96 314.86 M 178.28 316.15 139.75 534.75 M 134.55 1 1 763.16 M 493.35 188.95 201.81 844.8 M 499.93 191.89 208.4 847.73 M 382.05 139.33 93.45 788.57 M 388.88 142.37 100.27 791.61 M 233.3 71.86 149.33 550.6 M 210.93 58.78 122.21 565.33 M 122.99 809.65 124.4 805.2 M 124.4 805.2 125.01 800.66 M 125.01 800.66 124.8 796.06 M 124.8 796.06 123.68 791.6 M 123.68 791.6 121.64 787.3 M 121.64 787.3 119.06 783.61 M 119.06 783.61 115.68 780.41 M 115.68 780.41 111.66 778.05 M 111.66 778.05 107.32 776.4 M 107.32 776.4 102.9 775.56 M 102.9 775.56 98.17 775.42 M 98.17 775.42 94.64 776.39 M 87.29 779.61 85.61 780.84 M 85.61 780.84 83.18 783.14 M 78.65 790.16 77.81 792.04 M 77.81 792.04 76.63 796.6 M 76.63 796.6 76.6 801.1 M 76.6 801.1 77.15 805.58 M 77.15 805.58 78.85 810.01 M 78.85 810.01 80.99 814.07 M 80.99 814.07 84.25 817.51 M 84.25 817.51 87.73 820.47 M 87.73 820.47 91.97 822.36 M 91.97 822.36 96.41 823.77 M 96.41 823.77 101.04 824.14 M 101.04 824.14 105.51 823.6 M 105.51 823.6 107.11 823.18 M 114.46 819.96 117.67 817.16 M 117.67 817.16 118.67 816.19 M 233.09 474.43 156.39 440.23 M 244.93 447.8 161.64 410.66 M 197.37 554.79 140.67 529.51 M 209.31 527.93 146.02 499.71 M 221.15 501.3 151.27 470.14 M 185.53 581.42 43.89 518.26 M 102.61 704.55 17.9 666.78 M 107.86 674.98 22.92 637.11 M 161.75 634.92 125.05 618.55 M 173.69 608.05 130.4 588.75 M 85.7 800.93 1 763.16 M 92.24 764.03 7.3 726.15 M 97.36 734.12 12.65 696.35 M 88.28 786.26 127.49 562.32 M 134.81 563.61 96.49 781.74 M 118.22 615.51 33.52 577.74 M 112.98 645.08 28.27 607.3 M 149.57 437.19 64.86 399.41 M 154.81 407.62 69.88 369.74 M 139.2 496.66 54.26 458.79 M 144.21 466.99 59.51 429.22 M 133.84 526.47 49.14 488.69 M 123.58 585.71 38.64 547.83 M 127.49 562.32 141.9 564.79 M 141.9 564.79 147.07 536.03 M 147.07 536.03 132.66 533.56 M 132.66 533.56 127.49 562.32 M 127.49 562.32 134.81 563.61 M 139.75 534.75 132.66 533.56 M 273.04 684.55 168.58 637.96 M 261.21 711.18 156.74 664.59 M 249.26 738.04 144.8 691.46 M 237.43 764.67 132.96 718.09 M 225.59 791.3 121.12 744.72 M 213.65 818.17 109.18 771.58 M 88.28 786.26 118.39 799.69 M 118.39 799.69 112.53 812.89 M 112.53 812.89 85.7 800.93 M 85.7 800.93 88.28 786.26 M 96.49 781.74 93.45 788.57 M 100.27 791.61 87.1 785.74 M 102.36 768.54 99.06 767.07 M 126.14 715.04 109.43 707.59 M 114.3 741.67 104.42 737.27 M 112.53 812.89 115.46 806.29 M 137.97 688.41 114.68 678.03 M 149.92 661.55 120.03 648.22 M 356.22 497.43 251.75 450.85 M 344.38 524.06 239.91 477.48 M 332.44 550.93 227.97 504.34 M 320.6 577.56 216.14 530.97 M 308.66 604.42 204.19 557.84 M 296.82 631.05 192.36 584.47 M 284.99 657.68 180.52 611.1 M 213.84 36.36 134.55 1 M 201.67 140.49 116.73 102.61 M 206.79 110.58 122.08 72.81 M 212.04 81.02 127.33 43.24 M 382.05 139.33 130.06 26.95 M 196.42 170.06 111.72 132.29 M 375.56 153.94 218.86 84.06 M 351.78 207.43 208.49 143.53 M 363.72 180.57 213.61 113.63 M 304.33 314.19 187.62 262.14 M 316.16 287.56 192.87 232.58 M 328.11 260.69 197.99 202.67 M 339.94 234.06 203.24 173.1 M 256.77 421.18 166.89 381.09 M 268.71 394.31 172.01 351.19 M 280.55 367.68 177.26 321.62 M 292.38 341.05 90.74 251.13 M 183.21 287.29 222.01 66.83 M 214.95 63.68 176.13 286.1 M 180.8 259.1 96.1 221.33 M 159.83 377.95 75.13 340.18 M 165.18 348.14 80.48 310.37 M 170.43 318.58 85.49 280.7 M 186.05 229.53 101.11 191.66 M 191.17 199.63 106.47 161.85 M 170.96 314.86 185.36 317.33 M 185.36 317.33 190.54 288.57 M 190.54 288.57 176.13 286.1 M 176.13 286.1 170.96 314.86 M 170.96 314.86 178.28 316.15 M 176.13 286.1 183.21 287.29 M 213.84 36.36 209.12 62.21 M 214.78 36.78 210.48 61.68 M 216 58.78 229.65 64.87 M 229.65 64.87 235.62 51.43 M 235.62 51.43 218.44 43.77 M 218.44 43.77 216 58.78 M 222.01 66.83 214.95 63.68 M 439.4 310.32 334.93 263.73 M 427.45 337.18 322.99 290.6 M 415.62 363.81 311.15 317.23 M 403.67 390.68 299.21 344.09 M 391.84 417.31 287.37 370.72 M 380 443.94 275.53 397.35 M 368.06 470.8 263.59 424.22 M 493.35 188.95 388.88 142.37 M 486.85 203.57 382.38 156.98 M 475.01 230.19 370.55 183.61 M 463.07 257.06 358.6 210.47 M 451.23 283.69 346.77 237.1 M 505.35 186.68 493.59 181.44 M 493.59 181.44 498.72 169.89 M 498.72 169.89 510.48 175.14 M 510.48 175.14 505.35 186.68 M 615.62 512.59 479.74 686.36 M 485.59 690.95 622 515.99 M 643.82 496.08 469.02 719.98 M 624.82 481.11 461.79 689.94 M 604.4 238.48 315.8 887.72 M 610.99 241.42 322.39 890.66 M 331.69 902.71 333.1 898.26 M 333.1 898.26 333.71 893.73 M 333.71 893.73 333.5 889.12 M 333.5 889.12 332.14 884.56 M 332.14 884.56 330.34 880.37 M 330.34 880.37 327.52 876.57 M 327.52 876.57 324.15 873.37 M 324.15 873.37 320.36 871.12 M 320.36 871.12 316.02 869.47 M 316.02 869.47 311.36 868.52 M 311.36 868.52 306.87 868.49 M 306.87 868.49 303.1 869.35 M 295.75 872.57 294.07 873.8 M 294.07 873.8 291.64 876.1 M 287.11 883.12 286.27 885 M 286.27 885 285.09 889.56 M 285.09 889.56 285.07 894.07 M 285.07 894.07 285.85 898.65 M 285.85 898.65 287.31 902.97 M 287.31 902.97 289.69 907.14 M 289.69 907.14 292.72 910.47 M 292.72 910.47 296.43 913.53 M 296.43 913.53 300.66 915.42 M 300.66 915.42 304.87 916.74 M 304.87 916.74 309.5 917.11 M 309.5 917.11 314.21 916.66 M 314.21 916.66 315.57 916.14 M 322.92 912.92 326.37 910.23 M 326.37 910.23 327.13 909.15 M 327.8 893.07 467.48 713.93 M 461.86 709.45 334.82 872.2 M 408.96 777.07 378.85 763.64 M 390.43 801 366.91 790.5 M 297.68 879.64 327.8 893.07 M 327.8 893.07 318.4 904.7 M 318.4 904.7 291.81 892.84 M 291.81 892.84 297.68 879.64 M 297.03 877.94 290.64 892.31 M 334.82 872.2 325.42 883.83 M 322.39 890.66 327.8 893.07 M 334.82 872.2 331.29 870.63 M 353.35 848.27 343.23 843.76 M 371.77 824.58 355.07 817.13 M 557.39 587.14 473.86 549.89 M 538.73 610.73 462.02 576.52 M 520.2 634.66 450.08 603.39 M 501.77 658.35 438.25 630.02 M 483.01 682.17 426.3 656.88 M 464.58 705.86 414.47 683.51 M 446.16 729.55 402.63 710.14 M 456 704.86 467.48 713.93 M 467.48 713.93 485.59 690.95 M 485.59 690.95 474.12 681.88 M 474.12 681.88 456 704.86 M 467.48 713.93 461.86 709.45 M 485.59 690.95 479.74 686.36 M 748.72 320.34 604.49 256.03 M 730.3 344.04 592.66 282.66 M 711.53 367.86 580.71 309.52 M 760.16 307.94 610.99 241.42 M 624.82 481.11 643.82 496.08 M 693.11 391.55 568.88 336.15 M 674.68 415.24 557.04 362.78 M 610.53 506.92 622 515.99 M 622 515.99 640.11 493.01 M 640.11 493.01 628.64 483.94 M 628.64 483.94 610.53 506.92 M 758.75 307.31 604.98 504.17 M 760.58 306.99 624.82 481.11 M 637.49 462.76 533.26 416.28 M 655.92 439.06 545.1 389.65 M 618.96 486.68 521.32 443.14 M 613.01 515.94 509.48 469.77 M 594.34 539.52 497.64 496.4 M 575.81 563.45 485.7 523.27 M 622 515.99 616.38 511.51 M 615.62 512.59 604.98 504.17 M 799 297.3 643.82 496.08 M 768.45 305.14 782.1 311.22 M 782.1 311.22 791.36 299.26 M 791.36 299.26 774.42 291.71 M 774.42 291.71 768.45 305.14 M 87.1 785.74 84.76 800.51 M 297.03 877.94 316.32 886.54 M 323.1 898.88 2.29 755.82"/>
</g>
</svg>