<?xml version="1.0"?>
<svg xmlns="http://www.w3.org/2000/svg" version="1.2" baseProfile="tiny" width="800" height="792" viewBox="0 0 800 792" stroke-linecap="round" stroke-linejoin="round">
<g id="11" fill="none" stroke="black" stroke-width="1">
<path d="M 504.24 161.61 478.68 206.07 M 478.68 206.07 504.44 220.56 M 504.44 220.56 529.99 176.11 M 529.99 176.11 504.24 161.61 M 529.99 176.11 478.68 206.07 M 531.34 615.01 505.7 570.56 M 505.7 570.56 479.9 585.36 M 479.9 585.36 505.54 629.81 M 505.54 629.81 531.34 615.01 M 505.54 629.81 505.7 570.56 M 125.35 411.72 176.24 411.35 M 176.24 411.35 175.99 381.69 M 175.99 381.69 125.1 382.06 M 125.1 382.06 125.35 411.72 M 125.1 382.06 176.24 411.35 M 504.24 161.61 478.68 206.07 M 478.68 206.07 504.44 220.56 M 504.44 220.56 529.99 176.11 M 529.99 176.11 504.24 161.61 M 529.99 176.11 478.68 206.07 M 531.34 615.01 505.7 570.56 M 505.7 570.56 479.9 585.36 M 479.9 585.36 505.54 629.81 M 505.54 629.81 531.34 615.01 M 505.54 629.81 505.7 570.56 M 125.35 411.72 176.24 411.35 M 176.24 411.35 175.99 381.69 M 175.99 381.69 125.1 382.06 M 125.1 382.06 125.35 411.72 M 125.1 382.06 176.24 411.35 M 504.32 224.93 474.77 208.02 M 500.15 21.1 480.09 32.46 M 480.09 32.46 502.59 71.53 M 502.59 71.53 522.72 59.5 M 522.72 59.5 500.15 21.1 M 500.15 21.1 502.59 71.53 M 24.88 297.45 4.83 308.81 M 4.83 308.81 27.33 347.88 M 27.33 347.88 47.45 335.85 M 47.45 335.85 24.88 297.45 M 5.43 485.66 25.47 496.86 M 25.47 496.86 47.73 458.12 M 47.73 458.12 28.06 446.62 M 28.06 446.62 5.43 485.66 M 5.43 485.66 47.73 458.12 M 482.56 758.72 502.23 770.22 M 502.23 770.22 524.85 731.18 M 524.85 731.18 504.82 719.98 M 504.82 719.98 482.56 758.72 M 482.56 758.72 524.85 731.18 M 610.24 659 655.05 681.22 M 610.22 681.56 610.24 659 M 610.24 659 655.06 658.66 M 655.06 658.66 655.05 681.22 M 655.05 681.22 610.22 681.56 M 608.45 108.92 653.19 131.81 M 608.73 131.85 608.45 108.92 M 608.45 108.92 652.91 108.88 M 652.91 108.88 653.19 131.81 M 653.19 131.81 608.73 131.85 M 476.61 30.41 496.36 18.68 M 498.22 20.23 655.13 110.12 M 504.32 224.93 657.05 133.56 M 657.05 133.56 657.06 111 M 474.77 208.02 476.61 30.41 M 179.9 379.74 25 293.09 M 25.35 501.23 180.03 413.77 M 25 293.09 4.58 304.75 M 180.03 413.77 179.9 379.74 M 25.35 501.23 5.68 489.73 M 505.83 566.2 658.67 656.35 M 505.83 566.2 476.04 583.61 M 476.04 583.61 478.95 761.04 M 478.95 761.04 498.62 772.53 M 658.96 679.27 658.67 656.35 M 657.06 111 496.36 18.68 M 4.58 304.75 5.68 489.73 M 658.96 679.27 498.62 772.53 M 4.83 308.81 47.45 335.85 M 244.28 645.12 474.83 790.58 M 686.48 667.35 676.91 463.63 M 676.68 324.87 684.8 122.67 M 472.29 1 242.66 147.93 M 1.86 519.63 244.28 645.12 M 1 274.74 242.66 147.93 M 799 394.63 676.68 324.87 M 686.48 667.35 474.83 790.58 M 1 274.74 1.86 519.63 M 684.8 122.67 472.29 1 M 676.91 463.63 799 394.63 M 252.06 186.63 271.75 175.57 M 271.75 175.57 260.31 156.18 M 260.31 156.18 240.93 167.61 M 240.93 167.61 252.06 186.63 M 25 293.09 476.61 30.41 M 25.35 501.23 478.95 761.04 M 657.05 133.56 658.67 656.35 M 242.31 625.38 261.69 636.51 M 261.69 636.51 272.82 617.14 M 272.82 617.14 253.44 606.01 M 253.44 606.01 242.31 625.38 M 635.44 406.4 658 406.42 M 658 406.42 658.02 383.86 M 658.02 383.86 635.45 383.84 M 635.45 383.84 635.44 406.4 M 232.67 198.06 252.06 186.63 M 252.06 186.63 240.93 167.61 M 240.93 167.61 221.91 178.75 M 221.91 178.75 232.67 198.06 M 213.65 209.2 232.67 198.06 M 232.67 198.06 221.91 178.75 M 221.91 178.75 202.22 189.81 M 202.22 189.81 213.65 209.2 M 194.27 220.63 213.65 209.2 M 213.65 209.2 202.22 189.81 M 202.22 189.81 182.83 201.24 M 182.83 201.24 194.27 220.63 M 174.58 231.69 194.27 220.63 M 194.27 220.63 182.83 201.24 M 182.83 201.24 163.82 212.38 M 163.82 212.38 174.58 231.69 M 155.56 242.83 174.58 231.69 M 174.58 231.69 163.82 212.38 M 163.82 212.38 144.43 223.81 M 144.43 223.81 155.56 242.83 M 136.18 254.26 155.56 242.83 M 155.56 242.83 144.43 223.81 M 144.43 223.81 124.74 234.87 M 124.74 234.87 136.18 254.26 M 116.79 265.69 136.18 254.26 M 136.18 254.26 124.74 234.87 M 124.74 234.87 105.36 246.31 M 105.36 246.31 116.79 265.69 M 97.77 276.83 116.79 265.69 M 116.79 265.69 105.36 246.31 M 105.36 246.31 86.34 257.44 M 86.34 257.44 97.77 276.83 M 78.08 287.89 97.77 276.83 M 97.77 276.83 86.34 257.44 M 86.34 257.44 66.95 268.87 M 66.95 268.87 78.08 287.89 M 58.7 299.32 78.08 287.89 M 78.08 287.89 66.95 268.87 M 66.95 268.87 47.26 279.94 M 47.26 279.94 58.7 299.32 M 271.75 175.57 290.77 164.43 M 290.77 164.43 279.7 144.75 M 279.7 144.75 260.31 156.18 M 260.31 156.18 271.75 175.57 M 290.77 164.43 310.15 153 M 310.15 153 298.72 133.62 M 298.72 133.62 279.7 144.75 M 279.7 144.75 290.77 164.43 M 310.15 153 329.54 141.57 M 329.54 141.57 318.4 122.55 M 318.4 122.55 298.72 133.62 M 298.72 133.62 310.15 153 M 329.54 141.57 348.86 130.8 M 348.86 130.8 337.79 111.12 M 337.79 111.12 318.4 122.55 M 318.4 122.55 329.54 141.57 M 348.86 130.8 368.24 119.37 M 368.24 119.37 356.81 99.99 M 356.81 99.99 337.79 111.12 M 337.79 111.12 348.86 130.8 M 368.24 119.37 387.63 107.94 M 387.63 107.94 376.2 88.55 M 376.2 88.55 356.81 99.99 M 356.81 99.99 368.24 119.37 M 387.63 107.94 407.02 96.51 M 407.02 96.51 395.88 77.49 M 395.88 77.49 376.2 88.55 M 376.2 88.55 387.63 107.94 M 407.02 96.51 426.34 85.74 M 426.34 85.74 414.9 66.36 M 414.9 66.36 395.88 77.49 M 395.88 77.49 407.02 96.51 M 426.34 85.74 445.72 74.31 M 445.72 74.31 434.29 54.93 M 434.29 54.93 414.9 66.36 M 414.9 66.36 426.34 85.74 M 445.72 74.31 465.11 62.88 M 465.11 62.88 453.68 43.49 M 453.68 43.49 434.29 54.93 M 434.29 54.93 445.72 74.31 M 222.94 614.26 242.31 625.38 M 242.31 625.38 253.44 606.01 M 253.44 606.01 234.07 594.88 M 234.07 594.88 222.94 614.26 M 203.57 603.13 222.94 614.26 M 222.94 614.26 234.07 594.88 M 234.07 594.88 214.7 583.76 M 214.7 583.76 203.57 603.13 M 184.19 592 203.57 603.13 M 203.57 603.13 214.7 583.76 M 214.7 583.76 195.32 572.63 M 195.32 572.63 184.19 592 M 164.82 580.87 184.19 592 M 184.19 592 195.32 572.63 M 195.32 572.63 175.95 561.5 M 175.95 561.5 164.82 580.87 M 145.45 569.74 164.82 580.87 M 164.82 580.87 175.95 561.5 M 175.95 561.5 156.58 550.37 M 156.58 550.37 145.45 569.74 M 126.07 558.62 145.45 569.74 M 145.45 569.74 156.58 550.37 M 156.58 550.37 137.2 539.25 M 137.2 539.25 126.07 558.62 M 106.7 547.49 126.07 558.62 M 126.07 558.62 137.2 539.25 M 137.2 539.25 117.83 528.12 M 117.83 528.12 106.7 547.49 M 86.96 536.66 106.7 547.49 M 106.7 547.49 117.83 528.12 M 117.83 528.12 98.09 517.29 M 98.09 517.29 86.96 536.66 M 67.59 525.53 86.96 536.66 M 86.96 536.66 98.46 516.99 M 98.46 516.99 78.72 506.16 M 78.72 506.16 67.59 525.53 M 48.21 514.4 67.59 525.53 M 67.59 525.53 78.72 506.16 M 78.72 506.16 59.34 495.03 M 59.34 495.03 48.21 514.4 M 261.69 636.51 281.36 648.01 M 281.36 648.01 292.19 628.27 M 292.19 628.27 272.82 617.14 M 272.82 617.14 261.69 636.51 M 281.36 648.01 300.73 659.14 M 300.73 659.14 311.86 639.76 M 311.86 639.76 292.19 628.27 M 292.19 628.27 281.36 648.01 M 300.73 659.14 320.1 670.26 M 320.1 670.26 331.23 650.89 M 331.23 650.89 311.86 639.76 M 311.86 639.76 300.73 659.14 M 320.1 670.26 339.48 681.39 M 339.48 681.39 350.61 662.02 M 350.61 662.02 331.23 650.89 M 331.23 650.89 320.1 670.26 M 339.48 681.39 358.85 692.52 M 358.85 692.52 370.35 672.85 M 370.35 672.85 350.61 662.02 M 350.61 662.02 339.48 681.39 M 358.85 692.52 378.59 703.35 M 378.59 703.35 389.72 683.98 M 389.72 683.98 370.35 672.85 M 370.35 672.85 358.85 692.52 M 378.59 703.35 397.96 714.48 M 397.96 714.48 409.09 695.11 M 409.09 695.11 389.72 683.98 M 389.72 683.98 378.59 703.35 M 397.96 714.48 417.34 725.6 M 417.34 725.6 428.47 706.23 M 428.47 706.23 409.09 695.11 M 409.09 695.11 397.96 714.48 M 417.34 725.6 436.71 736.73 M 436.71 736.73 447.84 717.36 M 447.84 717.36 428.47 706.23 M 428.47 706.23 417.34 725.6 M 436.71 736.73 456.08 747.86 M 456.08 747.86 467.21 728.49 M 467.21 728.49 447.84 717.36 M 447.84 717.36 436.71 736.73 M 635.43 428.96 657.99 428.98 M 657.99 428.98 658 406.42 M 658 406.42 635.44 406.4 M 635.44 406.4 635.43 428.96 M 635.78 451.22 658.04 450.87 M 658.04 450.87 657.99 428.98 M 657.99 428.98 635.43 428.96 M 635.43 428.96 635.78 451.22 M 635.77 473.78 658.03 473.43 M 658.03 473.43 658.04 450.87 M 658.04 450.87 635.78 451.22 M 635.78 451.22 635.77 473.78 M 635.82 495.68 658.02 495.99 M 658.02 495.99 658.03 473.43 M 658.03 473.43 635.77 473.78 M 635.77 473.78 635.82 495.68 M 635.81 518.24 658.37 518.25 M 658.37 518.25 658.02 495.99 M 658.02 495.99 635.82 495.68 M 635.82 495.68 635.81 518.24 M 635.79 540.8 658.36 540.81 M 658.36 540.81 658.37 518.25 M 658.37 518.25 635.81 518.24 M 635.81 518.24 635.79 540.8 M 636.15 563.06 658.41 562.71 M 658.41 562.71 658.36 540.81 M 658.36 540.81 635.79 540.8 M 635.79 540.8 636.15 563.06 M 636.13 585.62 658.4 585.26 M 658.4 585.26 658.41 562.71 M 658.41 562.71 636.15 563.06 M 636.15 563.06 636.13 585.62 M 636.19 607.51 658.38 607.82 M 658.38 607.82 658.4 585.26 M 658.4 585.26 636.13 585.62 M 636.13 585.62 636.19 607.51 M 636.18 630.07 658.74 630.09 M 658.74 630.09 658.38 607.82 M 658.38 607.82 636.19 607.51 M 636.19 607.51 636.18 630.07 M 635.45 383.84 658.02 383.86 M 658.02 383.86 657.66 361.59 M 657.66 361.59 635.1 361.58 M 635.1 361.58 635.45 383.84 M 635.1 361.58 657.66 361.59 M 657.66 361.59 657.68 339.04 M 657.68 339.04 635.41 339.39 M 635.41 339.39 635.1 361.58 M 635.41 339.39 657.68 339.04 M 657.68 339.04 657.32 316.77 M 657.32 316.77 635.43 316.83 M 635.43 316.83 635.41 339.39 M 635.43 316.83 657.32 316.77 M 657.32 316.77 657.63 294.58 M 657.63 294.58 635.07 294.57 M 635.07 294.57 635.43 316.83 M 635.07 294.57 657.63 294.58 M 657.63 294.58 657.65 272.02 M 657.65 272.02 635.09 272.01 M 635.09 272.01 635.07 294.57 M 635.09 272.01 657.65 272.02 M 657.65 272.02 657.29 249.76 M 657.29 249.76 634.73 249.75 M 634.73 249.75 635.09 272.01 M 634.73 249.75 657.29 249.76 M 657.29 249.76 657.31 227.2 M 657.31 227.2 635.04 227.55 M 635.04 227.55 634.73 249.75 M 635.04 227.55 657.31 227.2 M 657.31 227.2 656.95 204.94 M 656.95 204.94 635.06 204.99 M 635.06 204.99 635.04 227.55 M 635.06 204.99 656.95 204.94 M 656.95 204.94 657.27 182.75 M 657.27 182.75 634.7 182.73 M 634.7 182.73 635.06 204.99 M 634.7 182.73 657.27 182.75 M 657.27 182.75 657.28 160.19 M 657.28 160.19 634.72 160.17 M 634.72 160.17 634.7 182.73"/>
</g>
</svg>