<?xml version="1.0"?>
<svg xmlns="http://www.w3.org/2000/svg" version="1.2" baseProfile="tiny" width="800" height="1612" viewBox="0 0 800 1612" stroke-linecap="round" stroke-linejoin="round">
<g id="10" fill="none" stroke="black" stroke-width="1">
<path d="M 152.82 1350.35 71.23 1317.16 M 73.85 1318.22 45.49 1306.68 M 178.14 314.55 180.06 314.82 M 177 316.13 181.46 316.41 M 175.42 317.53 183.02 317.56 M 173.84 318.93 184.42 319.15 M 172.27 320.34 185.81 320.73 M 170.69 321.74 187.2 322.32 M 169.11 323.14 188.6 323.91 M 170.5 324.73 187.63 325.05 M 171.9 326.32 186.05 326.45 M 173.29 327.91 184.47 327.86 M 174.42 328.88 182.9 329.26 M 175.81 330.47 181.76 330.84 M 177.21 332.06 180.18 332.24 M 169.11 323.14 178.6 333.64 M 178.6 333.64 188.6 323.91 M 188.6 323.91 179.37 314.03 M 179.37 314.03 169.11 323.14 M 49.8 434.56 51.46 434.21 M 48.92 436.75 53.21 434.92 M 48.21 438.51 54.95 435.63 M 47.51 440.27 57.13 436.52 M 46.63 442.47 58.88 437.23 M 45.92 444.22 60.62 437.94 M 45.22 445.98 62.81 438.83 M 46.35 446.95 62.28 440.14 M 48.53 447.84 61.4 442.34 M 50.28 448.55 60.69 444.1 M 52.02 449.26 59.98 445.86 M 54.2 450.15 59.1 448.05 M 55.95 450.86 58.4 449.81 M 61.5 438.29 56.26 436.16 M 45.04 446.42 50.15 433.68 M 50.15 433.68 62.81 438.83 M 62.81 438.83 57.69 451.57 M 57.69 451.57 45.04 446.42 M 59.63 446.73 60.87 443.66 M 60.34 444.98 61.92 441.02 M 56.26 436.16 60.19 437.76 M 324.92 600.14 299.62 589.85 M 357.53 518.87 332.23 508.57 M 309.98 499.52 332.23 508.57 M 299.62 589.85 270.39 577.96 M 303 496.68 309.98 499.52 M 662.11 124.07 417.78 24.67 M 417.78 24.67 1 420.84 M 174.84 334.16 178.07 334.96 M 178.07 334.96 181.22 334.71 M 181.22 334.71 184.1 333.84 M 184.1 333.84 186.91 331.91 M 186.91 331.91 189.01 329.19 M 189.01 329.19 190.07 326.56 M 190.07 326.56 190.43 323.13 M 190.43 323.13 189.75 319.78 M 189.75 319.78 188.27 317.14 M 188.27 317.14 186.18 314.75 M 186.18 314.75 183.3 313.07 M 183.3 313.07 180.07 312.27 M 180.07 312.27 176.93 312.52 M 176.93 312.52 174.04 313.39 M 174.04 313.39 171.24 315.32 M 171.24 315.32 169.13 318.04 M 169.13 318.04 168.07 320.67 M 168.07 320.67 167.71 324.1 M 167.71 324.1 168.4 327.45 M 168.4 327.45 169.87 330.09 M 169.87 330.09 171.96 332.48 M 171.96 332.48 174.84 334.16 M 299.68 215.28 302.91 216.09 M 302.91 216.09 306.06 215.83 M 306.06 215.83 308.95 214.96 M 308.95 214.96 311.75 213.04 M 311.75 213.04 313.86 210.32 M 313.86 210.32 314.91 207.68 M 314.91 207.68 315.28 204.25 M 315.28 204.25 314.59 200.9 M 314.59 200.9 313.11 198.26 M 313.11 198.26 311.02 195.88 M 311.02 195.88 308.14 194.19 M 308.14 194.19 304.91 193.39 M 304.91 193.39 301.77 193.64 M 301.77 193.64 298.88 194.51 M 298.88 194.51 296.08 196.44 M 296.08 196.44 293.97 199.16 M 293.97 199.16 292.91 201.8 M 292.91 201.8 292.55 205.23 M 292.55 205.23 293.24 208.57 M 293.24 208.57 294.72 211.22 M 294.72 211.22 296.81 213.6 M 296.81 213.6 299.68 215.28 M 424.96 96.58 428.19 97.39 M 428.19 97.39 431.34 97.13 M 431.34 97.13 434.23 96.26 M 434.23 96.26 437.03 94.34 M 437.03 94.34 439.14 91.62 M 439.14 91.62 440.19 88.98 M 440.19 88.98 440.55 85.55 M 440.55 85.55 439.87 82.2 M 439.87 82.2 438.39 79.56 M 438.39 79.56 436.3 77.18 M 436.3 77.18 433.42 75.5 M 433.42 75.5 430.19 74.69 M 430.19 74.69 427.05 74.94 M 427.05 74.94 424.16 75.81 M 424.16 75.81 421.36 77.74 M 421.36 77.74 419.25 80.46 M 419.25 80.46 418.19 83.1 M 418.19 83.1 417.83 86.53 M 417.83 86.53 418.52 89.87 M 418.52 89.87 420 92.52 M 420 92.52 422.08 94.9 M 422.08 94.9 424.96 96.58 M 49.56 452.86 52.79 453.66 M 52.79 453.66 55.94 453.41 M 55.94 453.41 58.83 452.54 M 58.83 452.54 61.63 450.61 M 61.63 450.61 63.74 447.89 M 63.74 447.89 64.79 445.26 M 64.79 445.26 65.15 441.83 M 65.15 441.83 64.47 438.48 M 64.47 438.48 62.99 435.84 M 62.99 435.84 60.9 433.45 M 60.9 433.45 58.02 431.77 M 58.02 431.77 54.79 430.97 M 54.79 430.97 51.65 431.22 M 51.65 431.22 48.76 432.09 M 48.76 432.09 45.96 434.02 M 45.96 434.02 43.85 436.74 M 43.85 436.74 42.79 439.37 M 42.79 439.37 42.43 442.8 M 42.43 442.8 43.12 446.15 M 43.12 446.15 44.6 448.79 M 44.6 448.79 46.68 451.18 M 46.68 451.18 49.56 452.86 M 303.42 195.85 304.91 195.94 M 301.84 197.25 306.47 197.09 M 300.27 198.65 307.87 198.68 M 298.69 200.06 309.26 200.27 M 297.11 201.46 310.65 201.86 M 295.97 203.04 312.05 203.45 M 294.39 204.44 313.61 204.6 M 295.35 205.85 312.47 206.18 M 296.74 207.44 310.9 207.58 M 298.31 208.59 309.75 209.16 M 299.7 210.18 308.18 210.56 M 301.09 211.77 306.6 211.96 M 302.49 213.36 305.02 213.36 M 294.39 204.44 303.44 214.77 M 303.44 214.77 313.87 205.21 M 313.87 205.21 304.39 194.71 M 304.39 194.71 294.39 204.44 M 428.26 76.97 430.36 76.8 M 426.69 78.38 431.75 78.39 M 425.11 79.78 433.15 79.98 M 423.97 81.36 434.54 81.57 M 422.39 82.76 435.93 83.16 M 420.81 84.16 437.32 84.75 M 419.23 85.56 438.89 85.9 M 420.19 86.98 437.75 87.48 M 421.76 88.12 436.17 88.88 M 423.15 89.71 434.6 90.28 M 424.54 91.3 433.02 91.68 M 425.94 92.89 431.44 93.09 M 427.33 94.48 429.86 94.49 M 419.23 85.56 428.9 95.63 M 428.9 95.63 438.72 86.34 M 438.72 86.34 429.23 75.83 M 429.23 75.83 419.23 85.56 M 56.48 625.34 59.71 626.14 M 59.71 626.14 62.86 625.89 M 62.86 625.89 65.75 625.02 M 65.75 625.02 68.55 623.09 M 68.55 623.09 70.66 620.37 M 70.66 620.37 71.71 617.74 M 71.71 617.74 72.08 614.31 M 72.08 614.31 71.39 610.96 M 71.39 610.96 69.91 608.32 M 69.91 608.32 67.82 605.93 M 67.82 605.93 64.94 604.25 M 64.94 604.25 61.71 603.45 M 61.71 603.45 58.57 603.7 M 58.57 603.7 55.68 604.57 M 55.68 604.57 52.88 606.5 M 52.88 606.5 50.77 609.22 M 50.77 609.22 49.71 611.85 M 49.71 611.85 49.35 615.28 M 49.35 615.28 50.04 618.63 M 50.04 618.63 51.52 621.27 M 51.52 621.27 53.61 623.66 M 53.61 623.66 56.48 625.34 M 53.57 609.84 54.71 608.26 M 53.3 611.78 56.8 608.09 M 53.46 613.89 58.9 607.93 M 53.63 616 60.82 608.2 M 53.8 618.12 62.92 608.03 M 53.97 620.23 65.02 607.86 M 53.87 621.72 67.12 607.69 M 55.8 621.99 67.46 609.36 M 57.72 622.26 67.63 611.48 M 59.82 622.1 67.8 613.59 M 61.91 621.93 67.53 615.52 M 64.01 621.76 67.69 617.64 M 65.93 622.03 67.86 619.75 M 54.13 622.34 68.03 621.86 M 68.03 621.86 67.12 607.69 M 67.12 607.69 53.66 608.35 M 53.66 608.35 54.13 622.34 M 63.23 798.26 66.46 799.06 M 66.46 799.06 69.61 798.81 M 69.61 798.81 72.49 797.94 M 72.49 797.94 75.29 796.02 M 75.29 796.02 77.4 793.29 M 77.4 793.29 78.46 790.66 M 78.46 790.66 78.82 787.23 M 78.82 787.23 78.13 783.88 M 78.13 783.88 76.66 781.24 M 76.66 781.24 74.57 778.85 M 74.57 778.85 71.69 777.17 M 71.69 777.17 68.46 776.37 M 68.46 776.37 65.31 776.62 M 65.31 776.62 62.43 777.49 M 62.43 777.49 59.62 779.42 M 59.62 779.42 57.52 782.14 M 57.52 782.14 56.46 784.77 M 56.46 784.77 56.1 788.21 M 56.1 788.21 56.78 791.55 M 56.78 791.55 58.26 794.2 M 58.26 794.2 60.35 796.58 M 60.35 796.58 63.23 798.26 M 70.15 970.74 73.38 971.55 M 73.38 971.55 76.53 971.29 M 76.53 971.29 79.41 970.42 M 79.41 970.42 82.22 968.5 M 82.22 968.5 84.32 965.78 M 84.32 965.78 85.38 963.14 M 85.38 963.14 85.74 959.71 M 85.74 959.71 85.05 956.36 M 85.05 956.36 83.58 953.72 M 83.58 953.72 81.49 951.34 M 81.49 951.34 78.61 949.65 M 78.61 949.65 75.38 948.85 M 75.38 948.85 72.23 949.1 M 72.23 949.1 69.35 949.97 M 69.35 949.97 66.54 951.9 M 66.54 951.9 64.44 954.62 M 64.44 954.62 63.38 957.26 M 63.38 957.26 63.02 960.69 M 63.02 960.69 63.71 964.03 M 63.71 964.03 65.18 966.68 M 65.18 966.68 67.27 969.06 M 67.27 969.06 70.15 970.74 M 77.07 1143.22 80.3 1144.03 M 80.3 1144.03 83.45 1143.77 M 83.45 1143.77 86.33 1142.9 M 86.33 1142.9 89.14 1140.98 M 89.14 1140.98 91.24 1138.26 M 91.24 1138.26 92.3 1135.62 M 92.3 1135.62 92.66 1132.19 M 92.66 1132.19 91.98 1128.85 M 91.98 1128.85 90.5 1126.2 M 90.5 1126.2 88.41 1123.82 M 88.41 1123.82 85.53 1122.14 M 85.53 1122.14 82.3 1121.33 M 82.3 1121.33 79.15 1121.59 M 79.15 1121.59 76.27 1122.46 M 76.27 1122.46 73.47 1124.38 M 73.47 1124.38 71.36 1127.1 M 71.36 1127.1 70.3 1129.74 M 70.3 1129.74 69.94 1133.17 M 69.94 1133.17 70.63 1136.51 M 70.63 1136.51 72.1 1139.16 M 72.1 1139.16 74.19 1141.54 M 74.19 1141.54 77.07 1143.22 M 83.99 1315.71 87.22 1316.51 M 87.22 1316.51 90.37 1316.26 M 90.37 1316.26 93.26 1315.39 M 93.26 1315.39 96.06 1313.46 M 96.06 1313.46 98.17 1310.74 M 98.17 1310.74 99.22 1308.1 M 99.22 1308.1 99.58 1304.67 M 99.58 1304.67 98.9 1301.33 M 98.9 1301.33 97.42 1298.68 M 97.42 1298.68 95.33 1296.3 M 95.33 1296.3 92.45 1294.62 M 92.45 1294.62 89.22 1293.81 M 89.22 1293.81 86.08 1294.07 M 86.08 1294.07 83.19 1294.94 M 83.19 1294.94 80.39 1296.86 M 80.39 1296.86 78.28 1299.58 M 78.28 1299.58 77.22 1302.22 M 77.22 1302.22 76.86 1305.65 M 76.86 1305.65 77.55 1309 M 77.55 1309 79.03 1311.64 M 79.03 1311.64 81.11 1314.02 M 81.11 1314.02 83.99 1315.71 M 48.2 1609.81 1 420.84 M 492.75 1 35.9 435.04 M 35.9 435.04 71.23 1317.16 M 324.92 600.14 357.53 518.87 M 470.29 636.29 474.83 637.62 M 474.83 637.62 479.72 638.08 M 479.72 638.08 484.09 637.3 M 484.09 637.3 488.82 635.65 M 488.82 635.65 492.85 633.2 M 492.85 633.2 496.18 629.95 M 496.18 629.95 498.81 625.92 M 498.81 625.92 500.58 621.52 M 500.58 621.52 501.47 616.77 M 501.47 616.77 501.31 612.11 M 501.31 612.11 500.1 607.53 M 500.1 607.53 497.84 603.04 M 497.84 603.04 495.24 599.42 M 495.24 599.42 491.4 596.33 M 491.4 596.33 487.21 594.11 M 487.21 594.11 482.67 592.78 M 482.67 592.78 477.78 592.32 M 477.78 592.32 473.41 593.1 M 473.41 593.1 468.69 594.75 M 468.69 594.75 464.66 597.2 M 464.66 597.2 461.33 600.44 M 461.33 600.44 458.69 604.48 M 458.69 604.48 456.93 608.88 M 456.93 608.88 456.04 613.62 M 456.04 613.62 456.2 618.29 M 456.2 618.29 457.41 622.87 M 457.41 622.87 459.66 627.36 M 459.66 627.36 462.27 630.98 M 462.27 630.98 466.1 634.07 M 466.1 634.07 470.29 636.29 M 463.23 632.39 458.53 626.39 M 467.5 635.66 456.45 621.46 M 470.55 636.9 456.2 618.29 M 472.73 637.79 455.77 615.56 M 475.09 638.24 456.04 613.62 M 477.01 638.51 455.87 611.51 M 479.11 638.34 456.58 609.75 M 480.6 638.43 456.85 607.82 M 482.26 638.09 457.55 606.06 M 483.92 637.74 458.52 604.92 M 485.58 637.4 459.22 603.16 M 486.8 636.87 460.19 602.02 M 488.47 636.53 460.71 600.71 M 489.87 635.56 461.68 599.57 M 491.09 635.04 463.08 598.6 M 492.06 633.9 463.87 597.9 M 493.28 633.38 465.27 596.94 M 494.25 632.23 466.24 595.8 M 495.21 631.09 467.46 595.27 M 496.18 629.95 468.86 594.31 M 497.14 628.81 470.09 593.79 M 498.11 627.67 471.75 593.44 M 499.07 626.53 472.97 592.92 M 499.78 624.78 474.64 592.57 M 500.31 623.46 476.3 592.23 M 501.01 621.7 478.22 592.5 M 501.28 619.76 479.88 592.15 M 501.55 617.83 481.8 592.42 M 501.82 615.9 484.16 592.87 M 501.39 613.17 486.34 593.76 M 501.14 610 489.4 595 M 499.76 605.86 493.15 597.04 M 228.06 560.74 260.68 479.46 M 261.11 479.64 357.53 518.87 M 324.92 600.14 228.5 560.92 M 638.46 446.11 361.43 426.93 M 368.31 409.8 330.94 502.94 M 294.82 587.9 282.17 582.75 M 275.18 579.91 282.17 582.75 M 553.87 470.98 423.53 461.91 M 365.82 498.22 357.53 518.87 M 637.61 643.03 606.15 515.25 M 501.44 776.21 612.05 706.73 M 333.28 686.84 433.3 771.48 M 324.92 600.14 316.81 620.35 M 423.35 462.35 416.19 462.5 M 416.19 462.5 408.85 463.09 M 408.85 463.09 402.02 464.91 M 402.02 464.91 395.03 467.17 M 395.03 467.17 388.55 470.67 M 388.55 470.67 382.76 474.96 M 382.76 474.96 377.68 480.05 M 377.68 480.05 372.85 485.75 M 372.85 485.75 368.9 491.81 M 368.9 491.81 365.82 498.22 M 605.98 515.69 603.73 508.64 M 603.73 508.64 600.25 502.12 M 600.25 502.12 596.61 496.03 M 596.61 496.03 591.73 490.47 M 591.73 490.47 586.68 485.35 M 586.68 485.35 580.84 480.93 M 580.84 480.93 574.65 477.39 M 574.65 477.39 567.67 474.55 M 567.67 474.55 560.77 472.77 M 560.77 472.77 553.52 471.86 M 612.66 706.47 618.44 702.18 M 618.44 702.18 623.53 697.09 M 623.53 697.09 628.35 691.39 M 628.35 691.39 632.31 685.33 M 632.31 685.33 635.39 678.92 M 635.39 678.92 637.59 672.15 M 637.59 672.15 638.93 665.03 M 638.93 665.03 639.39 657.55 M 639.39 657.55 639.24 650.34 M 639.24 650.34 638.04 643.21 M 433.48 771.04 439.32 775.46 M 439.32 775.46 445.51 779.01 M 445.51 779.01 452.49 781.85 M 452.49 781.85 459.39 783.63 M 459.39 783.63 466.64 784.53 M 466.64 784.53 473.8 784.38 M 473.8 784.38 481.14 783.79 M 481.14 783.79 487.97 781.97 M 487.97 781.97 494.96 779.71 M 494.96 779.71 501.44 776.21 M 316.81 620.35 314.61 627.12 M 314.61 627.12 313.27 634.24 M 313.27 634.24 312.81 641.72 M 312.81 641.72 312.96 648.94 M 312.96 648.94 314.16 656.07 M 314.16 656.07 316.41 663.11 M 316.41 663.11 319.88 669.64 M 319.88 669.64 323.53 675.72 M 323.53 675.72 328.4 681.28 M 328.4 681.28 333.45 686.4 M 357.53 518.87 327.43 506.62 M 324.92 600.14 270.82 578.13 M 327.43 506.62 303.43 496.86 M 559.03 647.86 634.16 628.85 M 577.36 655.31 637.18 640.3 M 540.71 640.4 631.58 617.58 M 559.03 647.86 634.16 628.85 M 522.38 632.95 628.38 606.57 M 540.71 640.4 631.58 617.58 M 504.06 625.49 625.8 595.3 M 501.48 614.22 622.78 583.85 M 498.28 603.21 620.2 572.58 M 487.39 593.67 617.18 561.13 M 492.68 580.49 614.6 549.86 M 497.97 567.31 612.01 538.59 M 503.43 553.69 608.99 527.14 M 508.72 540.51 606.41 515.87 M 514.18 526.89 603.39 504.42 M 519.47 513.71 596.26 494.36 M 524.94 500.1 587.03 484.47 M 530.23 486.92 573.08 476.24 M 546.88 470.7 535.51 473.74 M 535.51 473.74 536.05 469.87 M 521.59 508.44 524.17 469.12 M 507.49 543.59 512.73 468.55 M 493.56 578.3 501.46 467.55 M 480.75 592.5 489.57 466.8 M 469.3 594.49 478.31 465.79 M 456.94 606.32 466.42 465.05 M 445.59 601.71 454.98 464.48 M 434.25 597.09 443.71 463.47 M 422.91 592.48 431.83 462.73 M 411.56 587.86 420.38 462.16 M 400.22 583.25 408.85 463.09 M 389.31 578.81 396.86 466.39 M 377.97 574.2 384.78 473.74 M 366.62 569.58 372.06 486.45 M 355.28 564.97 358.59 516.23 M 343.93 560.35 344.49 551.38 M 559.03 647.86 599.96 714.08 M 577.36 655.31 610.03 707.96 M 540.71 640.4 590.33 720.38 M 559.03 647.86 599.96 714.08 M 522.38 632.95 580.26 726.51 M 540.71 640.4 590.33 720.38 M 504.06 625.49 570.62 732.81 M 494.25 632.23 560.55 738.93 M 484.35 637.92 550.92 745.23 M 470.12 636.73 540.85 751.36 M 464.65 650.35 531.22 757.66 M 459.36 663.52 521.58 763.96 M 453.9 677.14 511.69 769.65 M 448.61 690.32 502.06 775.95 M 443.32 703.5 491.98 782.07 M 437.86 717.12 479.92 784.32 M 432.57 730.3 466.46 784.97 M 427.1 743.92 450.57 781.57 M 428.07 766.8 421.81 757.1 M 421.81 757.1 419.71 759.82 M 435.92 721.96 410.47 752.49 M 449.84 687.25 401.85 744.89 M 463.95 652.1 393.22 737.29 M 464.36 633.36 383.98 729.96 M 457.49 623.92 375.36 722.36 M 456.94 606.32 366.12 715.02 M 445.59 601.71 357.5 707.43 M 434.25 597.09 348.87 699.83 M 422.91 592.48 339.64 692.5 M 411.56 587.86 331.01 684.9 M 400.22 583.25 323.35 676.16 M 389.31 578.81 317.19 664.96 M 377.97 574.2 313.39 651.66 M 366.62 569.58 313.01 633.63 M 355.28 564.97 324.04 602.34 M 343.93 560.35 337.97 567.63 M 587.8 667.23 592.91 654.49 M 592.91 654.49 637.61 643.03 M 587.8 667.23 612.05 706.73 M 234.06 545.8 237.23 537.89 M 331.8 583.01 333.91 577.74 M 60.49 782.33 61.63 780.75 M 60.65 784.44 63.73 780.58 M 60.39 786.37 65.65 780.85 M 60.55 788.48 67.75 780.68 M 60.72 790.6 69.84 780.51 M 60.89 792.71 71.94 780.34 M 60.62 794.64 74.04 780.17 M 62.54 794.91 74.21 782.28 M 64.64 794.75 74.55 783.96 M 66.74 794.58 74.72 786.07 M 68.83 794.41 74.45 788.01 M 70.93 794.24 74.62 790.12 M 72.85 794.51 74.78 792.23 M 61.06 794.82 74.95 794.34 M 74.95 794.34 74.04 780.17 M 74.04 780.17 60.58 780.83 M 60.58 780.83 61.06 794.82 M 67.41 954.81 68.55 953.23 M 67.58 956.92 70.65 953.06 M 67.31 958.85 72.57 953.33 M 67.47 960.97 74.67 953.16 M 67.64 963.08 76.76 952.99 M 67.81 965.19 78.86 952.82 M 67.98 967.3 80.78 953.09 M 69.46 967.4 81.13 954.77 M 71.56 967.23 81.29 956.88 M 73.66 967.06 81.46 958.99 M 75.76 966.89 81.19 960.93 M 77.68 967.16 81.36 963.04 M 79.77 966.99 81.53 965.15 M 67.98 967.3 81.87 966.82 M 81.87 966.82 81.4 952.83 M 81.4 952.83 67.5 953.31 M 67.5 953.31 67.98 967.3 M 74.33 1127.29 75.47 1125.71 M 74.5 1129.4 77.39 1125.98 M 74.23 1131.34 79.49 1125.81 M 74.4 1133.45 81.59 1125.64 M 74.56 1135.56 83.69 1125.47 M 74.73 1137.67 85.78 1125.3 M 74.9 1139.78 87.7 1125.58 M 76.38 1139.88 88.05 1127.25 M 78.48 1139.71 88.22 1129.36 M 80.58 1139.54 88.38 1131.47 M 82.5 1139.81 88.11 1133.41 M 84.6 1139.64 88.28 1135.52 M 86.7 1139.47 88.45 1137.63 M 74.72 1140.22 88.79 1139.31 M 88.79 1139.31 88.32 1125.31 M 88.32 1125.31 74.25 1126.23 M 74.25 1126.23 74.72 1140.22 M 81.25 1299.77 82.22 1298.63 M 81.42 1301.88 84.31 1298.46 M 81.15 1303.82 86.41 1298.29 M 81.32 1305.93 88.51 1298.12 M 81.48 1308.04 90.61 1297.96 M 81.65 1310.15 92.53 1298.23 M 81.82 1312.27 94.63 1298.06 M 83.3 1312.36 94.97 1299.73 M 85.4 1312.19 95.14 1301.84 M 87.32 1312.46 95.3 1303.95 M 89.42 1312.29 95.47 1306.07 M 91.52 1312.12 95.2 1308 M 93.62 1311.96 95.37 1310.11 M 81.64 1312.71 95.54 1312.23 M 95.54 1312.23 95.06 1298.23 M 95.06 1298.23 81.17 1298.71 M 81.17 1298.71 81.64 1312.71 M 617.81 175.04 621.04 175.84 M 621.04 175.84 624.19 175.59 M 624.19 175.59 627.07 174.72 M 627.07 174.72 629.88 172.79 M 629.88 172.79 631.98 170.07 M 631.98 170.07 633.04 167.44 M 633.04 167.44 633.4 164.01 M 633.4 164.01 632.71 160.66 M 632.71 160.66 631.24 158.01 M 631.24 158.01 629.15 155.63 M 629.15 155.63 626.27 153.95 M 626.27 153.95 623.04 153.15 M 623.04 153.15 619.89 153.4 M 619.89 153.4 617.01 154.27 M 617.01 154.27 614.2 156.2 M 614.2 156.2 612.1 158.92 M 612.1 158.92 611.04 161.55 M 611.04 161.55 610.68 164.98 M 610.68 164.98 611.37 168.33 M 611.37 168.33 612.84 170.97 M 612.84 170.97 614.93 173.36 M 614.93 173.36 617.81 175.04 M 435.4 949.67 438.63 950.47 M 438.63 950.47 441.77 950.22 M 441.77 950.22 444.66 949.35 M 444.66 949.35 447.46 947.42 M 447.46 947.42 449.57 944.7 M 449.57 944.7 450.63 942.07 M 450.63 942.07 450.99 938.64 M 450.99 938.64 450.3 935.29 M 450.3 935.29 448.82 932.65 M 448.82 932.65 446.73 930.26 M 446.73 930.26 443.86 928.58 M 443.86 928.58 440.63 927.78 M 440.63 927.78 437.48 928.03 M 437.48 928.03 434.59 928.9 M 434.59 928.9 431.79 930.83 M 431.79 930.83 429.68 933.55 M 429.68 933.55 428.63 936.18 M 428.63 936.18 428.26 939.61 M 428.26 939.61 428.95 942.96 M 428.95 942.96 430.43 945.6 M 430.43 945.6 432.52 947.99 M 432.52 947.99 435.4 949.67 M 91.35 1488.36 94.58 1489.17 M 94.58 1489.17 97.73 1488.92 M 97.73 1488.92 100.61 1488.05 M 100.61 1488.05 103.42 1486.12 M 103.42 1486.12 105.52 1483.4 M 105.52 1483.4 106.58 1480.76 M 106.58 1480.76 106.94 1477.33 M 106.94 1477.33 106.25 1473.99 M 106.25 1473.99 104.78 1471.34 M 104.78 1471.34 102.69 1468.96 M 102.69 1468.96 99.81 1467.28 M 99.81 1467.28 96.58 1466.47 M 96.58 1466.47 93.43 1466.73 M 93.43 1466.73 90.55 1467.6 M 90.55 1467.6 87.74 1469.52 M 87.74 1469.52 85.64 1472.24 M 85.64 1472.24 84.58 1474.88 M 84.58 1474.88 84.22 1478.31 M 84.22 1478.31 84.91 1481.66 M 84.91 1481.66 86.38 1484.3 M 86.38 1484.3 88.47 1486.68 M 88.47 1486.68 91.35 1488.36 M 617.12 171.69 615.55 170.54 M 619.22 171.52 615.82 168.61 M 621.32 171.35 615.65 166.5 M 623.24 171.63 615.49 164.38 M 625.34 171.46 615.14 162.71 M 627.43 171.29 614.97 160.6 M 629.53 171.12 614.81 158.49 M 629.36 169.01 616.47 158.14 M 629.2 166.89 618.57 157.97 M 629.47 164.96 620.66 157.8 M 629.3 162.85 622.76 157.63 M 628.95 161.17 624.42 157.29 M 628.79 159.06 626.52 157.12 M 629.71 170.68 628.62 156.95 M 628.62 156.95 614.98 158.05 M 614.98 158.05 615.9 172.22 M 615.9 172.22 629.71 170.68 M 88 1472.69 89.14 1471.11 M 88.34 1474.36 91.23 1470.94 M 88.51 1476.48 93.33 1470.77 M 88.24 1478.41 95.43 1470.61 M 88.41 1480.52 97.35 1470.88 M 88.57 1482.64 99.45 1470.71 M 88.74 1484.75 101.55 1470.54 M 90.23 1484.84 101.89 1472.21 M 92.32 1484.67 102.06 1474.32 M 94.24 1484.94 102.23 1476.44 M 96.34 1484.77 102.39 1478.55 M 98.44 1484.61 102.12 1480.48 M 100.54 1484.44 102.29 1482.6 M 88.56 1485.19 102.46 1484.71 M 102.46 1484.71 101.98 1470.72 M 101.98 1470.72 88.09 1471.2 M 88.09 1471.2 88.56 1485.19 M 430.97 941.73 430.8 939.62 M 432.97 943.06 431.94 938.04 M 434.72 943.77 433.08 936.46 M 436.29 944.92 434.22 934.88 M 437.85 946.07 435.54 932.86 M 439.86 947.4 436.25 931.11 M 441.43 948.55 437.39 929.53 M 442.57 946.97 439.13 930.24 M 443.71 945.39 440.7 931.38 M 444.85 943.81 442.71 932.71 M 445.99 942.23 444.28 933.86 M 447.31 940.21 446.02 934.57 M 448.45 938.63 447.59 935.72 M 441.43 948.55 449.16 936.87 M 449.16 936.87 438 929.26 M 438 929.26 429.83 940.76 M 429.83 940.76 441.43 948.55 M 626.04 348.05 629.27 348.86 M 629.27 348.86 632.42 348.6 M 632.42 348.6 635.3 347.73 M 635.3 347.73 638.11 345.81 M 638.11 345.81 640.21 343.09 M 640.21 343.09 641.27 340.45 M 641.27 340.45 641.63 337.02 M 641.63 337.02 640.94 333.67 M 640.94 333.67 639.47 331.03 M 639.47 331.03 637.38 328.65 M 637.38 328.65 634.5 326.96 M 634.5 326.96 631.27 326.16 M 631.27 326.16 628.12 326.41 M 628.12 326.41 625.24 327.28 M 625.24 327.28 622.43 329.21 M 622.43 329.21 620.33 331.93 M 620.33 331.93 619.27 334.57 M 619.27 334.57 618.91 338 M 618.91 338 619.6 341.34 M 619.6 341.34 621.07 343.99 M 621.07 343.99 623.16 346.37 M 623.16 346.37 626.04 348.05 M 625.35 344.71 624.22 343.73 M 627.45 344.54 624.05 341.62 M 629.55 344.37 623.88 339.51 M 631.64 344.2 623.72 337.4 M 633.74 344.03 623.55 335.28 M 635.84 343.86 623.38 333.17 M 637.94 343.69 623.04 331.5 M 638.03 342.2 624.88 330.71 M 637.86 340.09 626.97 330.55 M 637.7 337.97 629.07 330.38 M 637.53 335.86 631.17 330.21 M 637.36 333.75 633.09 330.48 M 637.19 331.64 634.75 330.13 M 637.94 343.69 636.85 329.96 M 636.85 329.96 623.21 331.06 M 623.21 331.06 624.3 344.79 M 624.3 344.79 637.94 343.69 M 349.38 1084.34 352.61 1085.15 M 352.61 1085.15 355.76 1084.89 M 355.76 1084.89 358.65 1084.02 M 358.65 1084.02 361.45 1082.1 M 361.45 1082.1 363.56 1079.38 M 363.56 1079.38 364.61 1076.74 M 364.61 1076.74 364.98 1073.31 M 364.98 1073.31 364.29 1069.96 M 364.29 1069.96 362.81 1067.32 M 362.81 1067.32 360.72 1064.94 M 360.72 1064.94 357.85 1063.25 M 357.85 1063.25 354.62 1062.45 M 354.62 1062.45 351.47 1062.7 M 351.47 1062.7 348.58 1063.57 M 348.58 1063.57 345.78 1065.5 M 345.78 1065.5 343.67 1068.22 M 343.67 1068.22 342.61 1070.86 M 342.61 1070.86 342.25 1074.29 M 342.25 1074.29 342.94 1077.63 M 342.94 1077.63 344.42 1080.28 M 344.42 1080.28 346.51 1082.66 M 346.51 1082.66 349.38 1084.34 M 344.95 1076.41 344.79 1074.3 M 346.52 1077.56 345.93 1072.72 M 348.53 1078.88 347.07 1071.14 M 350.27 1079.59 348.21 1069.56 M 351.84 1080.74 349.09 1067.36 M 353.41 1081.89 350.23 1065.78 M 355.42 1083.22 351.38 1064.2 M 356.38 1082.08 353.12 1064.91 M 357.7 1080.06 354.69 1066.06 M 358.84 1078.48 356.7 1067.39 M 359.98 1076.9 358.26 1068.54 M 361.12 1075.32 359.83 1069.68 M 362.01 1073.12 361.4 1070.83 M 355.42 1083.22 363.15 1071.54 M 363.15 1071.54 351.55 1063.76 M 351.55 1063.76 343.82 1075.44 M 343.82 1075.44 355.42 1083.22 M 263.37 1219.02 266.6 1219.82 M 266.6 1219.82 269.75 1219.57 M 269.75 1219.57 272.64 1218.7 M 272.64 1218.7 275.44 1216.77 M 275.44 1216.77 277.55 1214.05 M 277.55 1214.05 278.6 1211.41 M 278.6 1211.41 278.96 1207.98 M 278.96 1207.98 278.28 1204.64 M 278.28 1204.64 276.8 1201.99 M 276.8 1201.99 274.71 1199.61 M 274.71 1199.61 271.83 1197.93 M 271.83 1197.93 268.6 1197.13 M 268.6 1197.13 265.46 1197.38 M 265.46 1197.38 262.57 1198.25 M 262.57 1198.25 259.77 1200.17 M 259.77 1200.17 257.66 1202.89 M 257.66 1202.89 256.6 1205.53 M 256.6 1205.53 256.24 1208.96 M 256.24 1208.96 256.93 1212.31 M 256.93 1212.31 258.41 1214.95 M 258.41 1214.95 260.49 1217.33 M 260.49 1217.33 263.37 1219.02 M 258.94 1211.08 258.6 1209.41 M 260.51 1212.23 259.92 1207.39 M 262.08 1213.38 261.06 1205.81 M 264.09 1214.71 261.76 1204.05 M 265.66 1215.86 262.9 1202.47 M 267.4 1216.57 264.22 1200.45 M 268.97 1217.72 265.36 1198.87 M 270.37 1216.75 267.11 1199.58 M 271.51 1215.17 268.68 1200.73 M 272.83 1213.15 270.25 1201.88 M 273.54 1211.4 272.25 1203.21 M 274.68 1209.82 273.82 1204.36 M 275.99 1207.8 275.39 1205.51 M 269.41 1217.89 276.96 1206.66 M 276.96 1206.66 265.36 1198.87 M 265.36 1198.87 257.81 1210.11 M 257.81 1210.11 269.41 1217.89 M 176.92 1353.51 180.16 1354.32 M 180.16 1354.32 183.3 1354.06 M 183.3 1354.06 186.19 1353.19 M 186.19 1353.19 188.99 1351.27 M 188.99 1351.27 191.1 1348.55 M 191.1 1348.55 192.16 1345.91 M 192.16 1345.91 192.52 1342.48 M 192.52 1342.48 191.83 1339.13 M 191.83 1339.13 190.35 1336.49 M 190.35 1336.49 188.26 1334.11 M 188.26 1334.11 185.39 1332.43 M 185.39 1332.43 182.16 1331.62 M 182.16 1331.62 179.01 1331.88 M 179.01 1331.88 176.12 1332.75 M 176.12 1332.75 173.32 1334.67 M 173.32 1334.67 171.21 1337.39 M 171.21 1337.39 170.16 1340.03 M 170.16 1340.03 169.79 1343.46 M 169.79 1343.46 170.48 1346.8 M 170.48 1346.8 171.96 1349.45 M 171.96 1349.45 174.05 1351.83 M 174.05 1351.83 176.92 1353.51 M 172.93 1345.76 172.59 1344.08 M 174.5 1346.91 173.29 1342.33 M 176.07 1348.05 174.61 1340.31 M 178.07 1349.38 175.75 1338.73 M 179.64 1350.53 176.89 1337.15 M 181.21 1351.68 178.03 1335.57 M 182.96 1352.39 179.35 1333.55 M 184.36 1351.43 181.1 1334.26 M 185.5 1349.85 182.67 1335.41 M 186.38 1347.65 184.24 1336.56 M 187.52 1346.07 185.8 1337.71 M 188.67 1344.49 187.81 1339.03 M 189.81 1342.91 189.38 1340.18 M 183.22 1353.01 190.95 1341.33 M 190.95 1341.33 179.35 1333.55 M 179.35 1333.55 171.62 1345.22 M 171.62 1345.22 183.22 1353.01 M 615.67 440.93 362.84 423.42 M 355.74 432.28 327.88 501.7 M 633.89 428.41 703.01 706.43 M 636.78 424.99 706.94 708.03 M 633.89 428.41 350.05 408.5 M 636.78 424.99 348.05 404.63 M 350.05 408.5 314.79 496.37 M 348.05 404.63 311.74 495.13 M 311.74 495.13 314.79 496.37 M 461.31 858.51 703.01 706.43 M 461.21 862.56 706.94 708.03 M 461.31 858.51 243.4 674.3 M 461.21 862.56 239.47 675.25 M 243.4 674.3 278.83 585.99 M 239.47 675.25 275.78 584.75 M 303.43 496.86 343.27 397.57 M 343.27 397.57 642.4 418.59 M 642.4 418.59 714.79 711.23 M 714.79 711.23 460.66 871.53 M 460.66 871.53 230.98 677.42 M 230.98 677.42 270.82 578.13 M 644.7 154.81 425.24 65.52 M 655.24 165.23 594.61 414.99 M 425.11 841.23 152.82 1350.35 M 79.05 1508.91 97.81 1516.54 M 109.19 1332.6 114.42 1334.73 M 71.23 1317.16 79.05 1508.91 M 489.31 418.14 488.73 432.22 M 488.73 432.22 493.62 432.67 M 493.62 432.67 494.63 418.78 M 494.63 418.78 489.31 418.14 M 667.94 564.91 654.47 568.12 M 654.47 568.12 655.5 573.14 M 655.5 573.14 668.97 569.93 M 668.97 569.93 667.94 564.91 M 350.22 764.77 358.12 755.21 M 358.12 755.21 362.39 758.48 M 362.39 758.48 354.49 768.04 M 354.49 768.04 350.22 764.77 M 579.97 784.14 572.67 771.97 M 572.67 771.97 576.88 769.08 M 576.88 769.08 584.18 781.25 M 584.18 781.25 579.97 784.14 M 278.83 585.99 275.78 584.75 M 327.88 501.7 330.94 502.94 M 351.09 765.13 351.01 764.07 M 352.92 766.89 351.98 762.93 M 354.67 767.6 352.94 761.79 M 355.63 766.46 353.91 760.65 M 356.6 765.32 354.87 759.51 M 357.56 764.18 355.84 758.37 M 358.53 763.04 356.8 757.23 M 359.49 761.9 357.77 756.09 M 360.46 760.76 358.99 755.56 M 361.42 759.62 360.38 757.15 M 489.17 432.4 488.83 430.72 M 490.22 432.31 488.75 427.11 M 491.7 432.4 489.11 423.68 M 493.19 432.5 489.47 420.25 M 493.89 430.74 489.74 418.32 M 494.25 427.31 491.23 418.41 M 494.18 423.7 492.71 418.51 M 494.54 420.27 494.2 418.6 M 655.93 573.32 655.33 571.03 M 656.98 573.23 655.52 568.04 M 658.21 572.71 656.57 567.95 M 659.26 572.63 657.79 567.43 M 660.48 572.1 659.02 566.91 M 662.14 571.76 660.06 566.82 M 663.19 571.67 661.73 566.48 M 664.42 571.15 662.77 566.39 M 665.47 571.06 664 565.87 M 666.69 570.54 665.23 565.34 M 667.92 570.02 666.27 565.26 M 668.8 567.82 667.94 564.91 M 574.67 775.85 573.46 771.27 M 577.54 780.08 574.69 770.75 M 580.15 783.7 575.91 770.22 M 581.37 783.18 576.7 769.52 M 582.16 782.47 579.31 773.14 M 583.39 781.95 581.74 777.19 M 450.72 964.59 97.81 1516.54 M 655.24 165.23 492.75 1 M 48.2 1609.81 51.26 1611.06 M 51.26 1611.06 569.61 799.85 M 763.2 738.58 768.31 725.84 M 768.31 725.84 781.4 731.17 M 781.4 731.17 776.29 743.91 M 776.29 743.91 763.2 738.58 M 712.32 541.58 720.08 522.25 M 720.08 522.25 733.16 527.57 M 733.16 527.57 725.41 546.9 M 725.41 546.9 712.32 541.58 M 588.04 851.3 595.8 831.97 M 595.8 831.97 608.89 837.3 M 608.89 837.3 601.13 856.63 M 601.13 856.63 588.04 851.3 M 716.4 550.39 720.5 551.55 M 720.5 551.55 724.52 551.65 M 724.52 551.65 728.45 550.69 M 728.45 550.69 732.31 548.68 M 732.31 548.68 735.28 546.32 M 735.28 546.32 737.74 542.72 M 737.74 542.72 739.15 539.21 M 739.15 539.21 739.87 534.9 M 739.87 534.9 739.36 531.11 M 739.36 531.11 737.97 526.97 M 737.97 526.97 735.8 523.53 M 735.8 523.53 732.84 520.79 M 732.84 520.79 729.09 518.76 M 729.09 518.76 724.98 517.6 M 724.98 517.6 720.97 517.5 M 720.97 517.5 717.03 518.45 M 717.03 518.45 713.18 520.46 M 713.18 520.46 710.2 522.83 M 710.2 522.83 707.74 526.43 M 707.74 526.43 706.33 529.94 M 706.33 529.94 705.62 534.25 M 705.62 534.25 706.13 538.03 M 706.13 538.03 707.51 542.17 M 707.51 542.17 709.68 545.61 M 709.68 545.61 712.65 548.35 M 712.65 548.35 716.4 550.39 M 592.12 860.11 596.22 861.27 M 596.22 861.27 600.24 861.37 M 600.24 861.37 604.18 860.42 M 604.18 860.42 608.03 858.41 M 608.03 858.41 611.01 856.05 M 611.01 856.05 613.47 852.45 M 613.47 852.45 614.88 848.93 M 614.88 848.93 615.59 844.62 M 615.59 844.62 615.08 840.84 M 615.08 840.84 613.7 836.7 M 613.7 836.7 611.52 833.26 M 611.52 833.26 608.56 830.52 M 608.56 830.52 604.81 828.48 M 604.81 828.48 600.71 827.32 M 600.71 827.32 596.69 827.22 M 596.69 827.22 592.75 828.18 M 592.75 828.18 588.9 830.19 M 588.9 830.19 585.92 832.55 M 585.92 832.55 583.46 836.15 M 583.46 836.15 582.05 839.67 M 582.05 839.67 581.34 843.98 M 581.34 843.98 581.85 847.76 M 581.85 847.76 583.23 851.9 M 583.23 851.9 585.41 855.34 M 585.41 855.34 588.37 858.08 M 588.37 858.08 592.12 860.11 M 766.04 750.47 770.14 751.63 M 770.14 751.63 774.16 751.73 M 774.16 751.73 778.1 750.78 M 778.1 750.78 781.95 748.77 M 781.95 748.77 784.93 746.4 M 784.93 746.4 787.39 742.8 M 787.39 742.8 788.8 739.29 M 788.8 739.29 789.51 734.98 M 789.51 734.98 789 731.19 M 789 731.19 787.62 727.05 M 787.62 727.05 785.44 723.62 M 785.44 723.62 782.48 720.88 M 782.48 720.88 778.73 718.84 M 778.73 718.84 774.63 717.68 M 774.63 717.68 770.61 717.58 M 770.61 717.58 766.67 718.53 M 766.67 718.53 762.82 720.54 M 762.82 720.54 759.84 722.91 M 759.84 722.91 757.38 726.51 M 757.38 726.51 755.97 730.02 M 755.97 730.02 755.26 734.33 M 755.26 734.33 755.77 738.12 M 755.77 738.12 757.15 742.26 M 757.15 742.26 759.33 745.7 M 759.33 745.7 762.29 748.44 M 762.29 748.44 766.04 750.47 M 655.24 165.23 799 745.48 M 799 745.48 450.72 964.59 M 589.35 851.83 588.75 849.54 M 590.66 852.37 589.45 847.79 M 592.41 853.08 590.16 846.03 M 593.71 853.61 590.86 844.27 M 595.46 854.32 591.74 842.08 M 596.77 854.85 592.45 840.32 M 598.51 855.56 593.15 838.56 M 599.82 856.09 593.86 836.8 M 601.31 856.19 594.57 835.05 M 602.19 853.99 595.45 832.85 M 602.89 852.23 596.24 832.15 M 603.6 850.48 597.98 832.86 M 604.3 848.72 599.29 833.39 M 605.19 846.52 601.03 834.1 M 605.89 844.76 602.34 834.63 M 606.6 843.01 604.09 835.34 M 607.3 841.25 605.4 835.88 M 608.01 839.49 607.14 836.59 M 608.89 837.3 608.45 837.12 M 764.07 738.94 763.55 737.7 M 765.81 739.65 764.43 735.51 M 767.12 740.18 765.14 733.75 M 768.87 740.89 765.84 731.99 M 770.18 741.42 766.55 730.24 M 771.49 741.96 767.25 728.48 M 773.23 742.67 768.13 726.28 M 774.54 743.2 769.18 726.2 M 776.29 743.91 770.93 726.91 M 776.99 742.15 772.24 727.44 M 777.87 739.95 773.98 728.15 M 778.58 738.2 775.29 728.68 M 779.28 736.44 776.6 729.22 M 779.99 734.68 778.34 729.93 M 780.69 732.93 779.65 730.46 M 713.19 541.93 712.85 540.26 M 714.94 542.64 713.55 538.5 M 716.25 543.17 714.26 536.74 M 717.99 543.88 714.96 534.99 M 719.3 544.42 715.67 533.23 M 721.05 545.13 716.55 531.03 M 722.35 545.66 717.25 529.27 M 723.66 546.19 717.96 527.52 M 725.41 546.9 718.66 525.76 M 726.29 544.7 719.55 523.56 M 726.99 542.95 720.08 522.25 M 727.7 541.19 721.82 522.96 M 728.4 539.43 723.13 523.49 M 729.29 537.24 724.87 524.2 M 729.99 535.48 726.18 524.73 M 730.7 533.72 727.93 525.44 M 731.4 531.96 729.24 525.97 M 732.11 530.21 730.98 526.68 M 732.99 528.01 732.29 527.22 M 350.05 408.5 342.65 426.96 M 342.65 426.96 355.74 432.28 M 355.74 432.28 364.9 409.44 M 364.9 409.44 350.05 408.5 M 343.96 427.49 343.18 425.64 M 345.26 428.02 344.06 423.44 M 347.01 428.73 344.76 421.68 M 348.32 429.26 345.47 419.93 M 350.06 429.97 346.17 418.17 M 351.37 430.51 346.88 416.41 M 352.68 431.04 347.76 414.22 M 354.43 431.75 348.46 412.46 M 355.91 431.84 349.17 410.7 M 356.62 430.08 349.87 408.94 M 357.5 427.89 351.1 408.42 M 358.2 426.13 352.58 408.51 M 358.91 424.37 354.07 408.61 M 359.61 422.62 355.12 408.52 M 360.32 420.86 356.43 409.05 M 361.2 418.66 357.91 409.15 M 361.91 416.9 359.4 409.24 M 362.61 415.15 360.45 409.16 M 363.32 413.39 361.93 409.25 M 364.2 411.19 363.42 409.34 M 364.9 409.44 364.47 409.26 M 314.79 496.37 319.91 483.63 M 319.91 483.63 333 488.95 M 333 488.95 327.88 501.7 M 327.88 501.7 314.79 496.37 M 316.1 496.9 315.32 495.05 M 317.41 497.44 316.03 493.29 M 319.16 498.15 316.91 491.1 M 320.47 498.68 317.61 489.34 M 322.21 499.39 318.32 487.58 M 323.52 499.92 319.03 485.83 M 325.27 500.63 319.73 484.07 M 326.57 501.16 321.22 484.16 M 328.06 501.26 322.52 484.69 M 328.76 499.5 324.27 485.4 M 329.47 497.74 325.58 485.94 M 330.35 495.54 327.32 486.65 M 331.06 493.79 328.63 487.18 M 331.76 492.03 330.38 487.89 M 332.47 490.27 331.69 488.42 M 257.43 686.14 294.98 592.56 M 263.89 661.17 291.92 591.32 M 291.92 591.32 294.98 592.56 M 243.4 674.3 250.81 655.85 M 250.81 655.85 263.89 661.17 M 263.89 661.17 254.9 683.58 M 254.9 683.58 243.4 674.3 M 254.9 683.58 254.47 683.4 M 255.61 681.82 253.6 683.04 M 256.31 680.06 252.46 682.07 M 257.02 678.3 251.33 681.1 M 257.72 676.55 250.63 680.31 M 258.61 674.35 249.5 679.33 M 259.31 672.59 248.37 678.36 M 260.02 670.84 247.24 677.39 M 260.72 669.08 246.54 676.6 M 261.6 666.88 245.41 675.62 M 262.31 665.12 244.1 675.09 M 263.01 663.37 243.58 673.86 M 263.72 661.61 244.28 672.1 M 262.59 660.64 245.16 669.9 M 260.84 659.93 245.87 668.15 M 259.53 659.4 246.57 666.39 M 258.22 658.86 247.28 664.63 M 256.48 658.15 247.98 662.88 M 255.17 657.62 248.87 660.68 M 253.42 656.91 249.57 658.92 M 252.11 656.38 250.28 657.16 M 273.55 599.17 278.83 585.99 M 278.83 585.99 291.92 591.32 M 291.92 591.32 286.63 604.5 M 286.63 604.5 273.55 599.17 M 287.16 603.18 285.33 603.97 M 287.87 601.42 284.02 603.43 M 288.75 599.23 282.27 602.72 M 289.45 597.47 280.96 602.19 M 290.16 595.71 279.22 601.48 M 290.87 593.95 277.91 600.95 M 291.57 592.2 276.16 600.24 M 290.61 590.79 274.85 599.71 M 289.3 590.25 273.72 598.73 M 287.56 589.54 274.43 596.98 M 286.25 589.01 275.13 595.22 M 284.51 588.3 276.01 593.02 M 283.2 587.77 276.72 591.26 M 281.45 587.06 277.42 589.51 M 280.14 586.53 278.13 587.75 M 690.75 714.22 624.04 445.36 M 633.89 428.41 614.15 427.02 M 614.15 427.02 613.14 440.92 M 613.14 440.92 637.77 442.77 M 637.77 442.77 633.89 428.41 M 614.23 428.08 615.63 427.12 M 613.96 430.01 617.55 427.39 M 613.87 431.51 619.65 427.22 M 613.77 433.01 621.57 427.49 M 613.51 434.94 623.49 427.76 M 613.41 436.44 625.59 427.59 M 613.76 438.11 627.51 427.86 M 613.67 439.6 629.43 428.13 M 613.57 441.1 631.53 427.96 M 615.67 440.93 633.45 428.24 M 617.59 441.2 634.41 429.65 M 619.51 441.47 634.49 430.7 M 621.61 441.3 635.01 431.94 M 623.53 441.57 635.36 433.61 M 625.45 441.85 635.44 434.67 M 627.55 441.68 635.96 435.9 M 629.47 441.95 636.3 437.57 M 631.39 442.22 636.39 438.63 M 633.32 442.49 636.91 439.86 M 635.41 442.32 637.25 441.53 M 637.34 442.59 637.77 442.77 M 459.27 843.37 683.89 702.23 M 703.01 706.43 698.1 687.06 M 698.1 687.06 684.45 690.71 M 684.45 690.71 690.75 714.22 M 690.75 714.22 703.01 706.43 M 696.87 687.58 698.44 688.73 M 695.21 687.93 698.79 690.41 M 693.55 688.28 699.39 692.69 M 692.33 688.8 699.73 694.37 M 690.66 689.14 700.34 696.66 M 689 689.49 700.68 698.33 M 687.34 689.84 701.46 700.18 M 685.68 690.18 701.63 702.29 M 684.89 690.88 702.41 704.14 M 685.06 693 702.58 706.26 M 685.84 694.85 702.22 707.13 M 686.01 696.96 701 707.66 M 686.79 698.81 699.6 708.62 M 686.95 700.92 698.37 709.15 M 687.73 702.77 697.58 709.85 M 688.08 704.45 696.18 710.81 M 688.68 706.74 694.96 711.33 M 689.02 708.41 694.17 712.03 M 689.63 710.7 692.77 713 M 689.97 712.37 691.54 713.52 M 690.75 714.22 691.19 714.4 M 262.89 672.52 459.98 839.06 M 461.31 858.51 478.21 848.01 M 478.21 848.01 470.92 835.85 M 470.92 835.85 450.42 848.97 M 450.42 848.97 461.31 858.51 M 477.69 846.78 476.99 848.54 M 476.74 845.37 475.41 849.94 M 475.78 843.96 473.57 850.73 M 474.82 842.55 472 852.13 M 474.3 841.31 470.16 852.91 M 473.35 839.9 468.76 853.88 M 472.39 838.49 466.74 855.1 M 471.44 837.08 465.34 856.06 M 470.74 836.29 463.33 857.29 M 468.72 837.51 461.93 858.25 M 467.32 838.47 460.62 857.72 M 465.49 839.26 459.48 856.75 M 463.91 840.66 458.79 855.95 M 462.07 841.45 457.65 854.98 M 460.49 842.85 456.35 854.45 M 458.65 843.63 455.21 853.48 M 457.08 845.04 454.52 852.68 M 455.24 845.82 453.38 851.71 M 453.84 846.79 452.25 850.74 M 451.82 848.01 451.56 849.95 M 450.42 848.97 450.86 849.15 M 687.34 716.41 620.2 444.82 M 447.28 846.67 682.94 698.27 M 264.3 669 462.96 836.7 M 662.11 124.07 674.2 548.04 M 728.51 508.81 783.29 739.09 M 730.89 504.16 787.22 740.69 M 732.01 507.68 705.51 514.28 M 730.89 504.16 704.82 510.93 M 584.84 866.86 783.29 739.09 M 787.22 740.69 586.76 869.69 M 586.76 869.69 572.07 846.85 M 583.52 871.44 569.26 848.77 M 569.26 848.77 572.07 846.85 M 704.82 510.93 705.51 514.28 M 583.52 871.44 586.76 869.69 M 793.33 743.18 582.01 879 M 582.01 879 563.84 849.63 M 563.84 849.63 568.48 846.92 M 793.33 743.18 734.84 498.1 M 734.84 498.1 701.69 506.08 M 701.69 506.08 703.16 511.28 M 79.05 1508.91 36.11 434.84"/>
</g>
</svg>