<svg width="577" height="757" viewBox="0 0 577 757" fill="none" xmlns="http://www.w3.org/2000/svg">
<path d="M295.397 66.9682L294.227 76.2892L293.058 76.0668L274.064 72.4718L272.679 72.2063L272.5 70.721L268.144 34.2333L268.015 33.1784L272.679 17.4568L289.57 26.1894L293.646 33.7668L294.809 43.0807L301.805 54.1526L302.386 63.4737L295.397 66.9682Z" fill="#0C221D" stroke="white" stroke-width="4.0201" stroke-linecap="round" stroke-linejoin="round"/>
<path d="M272.5 70.7209L267.434 69.8814L258.263 67.1833L257.532 66.9681L258.113 58.8095L258.464 58.5798L263.358 55.315L266.853 38.4237L268.144 34.2332L272.5 70.7209Z" fill="#0C221D" stroke="white" stroke-width="4.0201" stroke-linecap="round" stroke-linejoin="round"/>
<path d="M290.675 83.2136L277.049 82.7041L276.755 82.6969L276.719 82.5749L255.199 80.3649L249.976 76.1815L249.373 75.7079L254.037 69.3001L258.263 67.1833L267.434 69.8814L272.5 70.7209L272.679 72.2062L274.064 72.4717L293.058 76.0667L291.314 79.2024L292.484 83.2781L290.675 83.2136Z" fill="#0C221D" stroke="white" stroke-width="4.0201" stroke-linecap="round" stroke-linejoin="round"/>
<path d="M290.675 83.2135L288.989 130.457L288.143 127.085L287.82 135.122L283.744 150.269L285.495 188.709H279.668L279.317 187.977L278.649 186.563L274.423 177.644L266.853 159.002L259.864 145.024L258.113 136.865V132.208L260.129 131.491L274.423 126.382V121.725L256.369 112.404L249.373 117.061L237.325 109.031L237.146 108.909L234.814 103.083L233.644 94.3428L237.146 88.5163L244.716 75.7079L249.976 76.1815L255.2 80.3648L276.719 82.5749L276.755 82.6969L277.049 82.7041L290.675 83.2135Z" fill="#0C221D" stroke="white" stroke-width="4.0201" stroke-linecap="round" stroke-linejoin="round"/>
<path d="M503.008 273.653L497.525 281.331L475.389 277.836L472.476 297.06L473.645 301.135L472.978 307.285L470.732 327.929L461.411 340.744L460.399 339.058L458.01 335.083L457.335 335.506L445.101 331.431L422.964 312.788L406.073 300.554L397.333 297.06L391.507 290.071L383.355 278.999L367.877 267.518L365.739 265.932L370.539 268.515L372.254 264.511L370.539 263.27L370.848 262.803L375.196 256.281L376.366 231.819L365.294 221.336L352.479 200.943L333.836 185.803L328.598 181.138L322.191 159.002L321.251 147.306L321.028 144.443L318.696 131.627L319.277 121.144L313.451 115.898L307.043 115.317L299.178 116.365L298.303 116.479V100.751L300.054 91.4295L301.805 74.5382L306.462 66.968L321.028 79.7836L331.512 90.2671L338.501 97.8373L337.919 105.415L350.735 118.811L351.897 128.133L367.045 144.443L373.453 148.518L381.604 163.085V182.889L379.861 207.351L406.654 227.744L433.448 241.722L459.079 246.96L475.389 260.945L503.352 273.179L503.008 273.653Z" fill="#0C221D" stroke="white" stroke-width="4.0201" stroke-linecap="round" stroke-linejoin="round"/>
<path d="M297.205 152.07L295.397 152.013V142.111V129.876L299.178 116.365L307.043 115.317L313.451 115.898L319.277 121.144L318.696 131.627L321.028 144.443L321.251 147.306L314.032 152.594L297.205 152.07Z" fill="#0C221D" stroke="white" stroke-width="4.0201" stroke-linecap="round" stroke-linejoin="round"/>
<path d="M321.251 147.306L322.191 159.002L328.598 181.138L333.836 185.803L352.479 200.943L365.294 221.336L376.366 231.819L375.196 256.281L370.848 262.804L370.539 263.27L372.254 264.511L370.539 268.515L365.739 265.932L355.392 260.364L344.327 252.786L336.348 246.407L329.761 241.141L316.945 230.65L316.307 228.454L318.115 230.069L317.684 218.502L318.201 218.954L318.502 214.727L319.277 203.856V193.954L315.783 178.225V166.579L312.869 163.085L298.009 162.511L297.722 162.496L297.205 152.07L314.032 152.594L321.251 147.306Z" fill="#0C221D" stroke="white" stroke-width="4.0201" stroke-linecap="round" stroke-linejoin="round"/>
<path d="M295.993 191.6L296.559 164.247L298.009 162.511L312.869 163.085L315.783 166.579V178.225L319.277 193.954V203.856L318.502 214.727L318.115 217.834L307.624 206.77L295.978 192.21L295.993 191.6Z" fill="#0C221D" stroke="white" stroke-width="4.0201" stroke-linecap="round" stroke-linejoin="round"/>
<path d="M318.502 214.727L318.201 218.954L317.684 218.502L318.115 230.069L316.307 228.454L307.043 220.166L296.272 209.023L292.376 204.99L290.152 202.694L291.128 201.553L295.713 196.207L294.227 194.535L295.993 191.6L295.978 192.21L307.624 206.77L318.115 217.834L318.502 214.727Z" fill="#0C221D" stroke="white" stroke-width="4.0201" stroke-linecap="round" stroke-linejoin="round"/>
<path d="M440.681 362.056L435.78 360.556L453.252 343.077L460.399 339.058L461.411 340.744L470.732 327.929L472.978 307.285L473.645 301.135L472.476 297.06L475.389 277.836L497.525 281.331L503.008 273.653L513.254 278.999L522.575 281.912L552.196 291.599L552.863 291.814L545.874 300.554L542.38 320.94L564.481 332.844L565.098 333.174V339.001L563.203 338.14L562.766 349.484L556.939 365.794L554.829 365.091L546.456 362.3L515.586 371.621L487.623 374.534L464.324 369.289L440.681 362.056Z" fill="#0C221D" stroke="white" stroke-width="4.0201" stroke-linecap="round" stroke-linejoin="round"/>
<path d="M552.196 291.599L554.614 291.233L568.592 297.06L575 304.049L570.343 316.864L564.481 332.844L542.38 320.94L545.874 300.554L552.863 291.814L552.196 291.599Z" fill="#0C221D" stroke="white" stroke-width="4.0201" stroke-linecap="round" stroke-linejoin="round"/>
<path d="M365.739 265.932L367.877 267.518L383.355 278.999L391.506 290.071L397.333 297.06L406.073 300.554L422.964 312.789L445.101 331.431L457.335 335.506L458.01 335.083L460.399 339.058L453.252 343.077L435.78 360.556L440.681 362.056L405.492 359.387L393.544 355.404L393.257 355.311L376.782 350.317L371.121 348.903L359.468 345.99L355.887 344.497L352.479 343.077L342.576 329.099L328.598 308.125L314.62 296.479L299.473 292.396L290.245 290.774L279.668 288.901L261.026 289.49L253.642 286.203L250.543 284.825L255.199 273.761L264.521 255.7L278.499 248.13L291.314 256.281L307.624 259.776L325.685 261.526L333.836 257.451L336.348 246.407L344.327 252.787L355.392 260.364L365.739 265.932Z" fill="#0C221D" stroke="white" stroke-width="4.0201" stroke-linecap="round" stroke-linejoin="round"/>
<path d="M291.128 201.553L290.152 202.694L292.376 204.99L296.272 209.023L307.043 220.166L316.307 228.454L316.945 230.65L329.761 241.141L336.348 246.407L333.837 257.451L325.685 261.526L307.624 259.776L291.314 256.281L278.499 248.13L264.521 255.7L255.2 273.761L250.543 284.825L253.642 286.203L249.373 285.995L235.395 274.342L226.612 266.047L224.911 264.44L213.258 249.292L207.425 242.992L198.699 233.563L191.172 227.658L190.54 227.155L191.502 226.775L182.97 220.748L170.736 205.607L165.491 200.362L160.834 186.384V170.11V157.258L175.127 124.825L175.981 122.887L180.638 127.551L181.219 143.273L180.057 159.583V171.817L182.389 179.395L189.959 185.214L202.194 188.709L210.926 185.214L219.666 180.557L223.161 171.817L226.074 163.085L230.738 156.677L241.803 164.828L250.543 174.15L259.275 183.471L265.683 190.46L275.004 197.449L276.353 200.362H286.076L291.128 201.553Z" fill="#0C221D" stroke="white" stroke-width="4.0201" stroke-linecap="round" stroke-linejoin="round"/>
<path d="M260.129 131.491L235.976 130.457L235.739 129.962L235.589 129.647L230.738 119.393L237.325 109.031L249.373 117.061L256.369 112.404L274.423 121.725V126.382L260.129 131.491Z" fill="#0C221D" stroke="white" stroke-width="4.0201" stroke-linecap="round" stroke-linejoin="round"/>
<path d="M278.649 186.563L276.174 185.803L264.521 175.312L247.629 154.926L234.232 144.443L224.911 149.681L217.922 159.002L217.499 158.535L212.677 153.175L213.84 142.692L235.589 129.647L235.739 129.962L235.976 130.457L260.129 131.491L258.113 132.208V136.865L259.864 145.024L266.853 159.002L274.423 177.644L278.649 186.563Z" fill="#0C221D" stroke="white" stroke-width="4.0201" stroke-linecap="round" stroke-linejoin="round"/>
<path d="M217.499 158.535L205.107 171.817L193.454 170.655V140.948L191.122 121.144L178.895 114.147L179.476 110.337L180.057 106.577L180.975 106.391L191.71 104.245L196.367 85.0218L197.529 66.3868L188.007 59.1036L187.627 58.8094L189.378 44.8314L190.332 45.1328L219.085 54.1525L245.878 47.1635L246.969 48.6201L252.867 56.4845L258.464 58.5798L258.113 58.8094L257.532 66.968L258.263 67.1833L254.037 69.3001L249.373 75.7079L249.976 76.1815L244.716 75.7079L237.146 88.5163L233.644 94.3428L234.814 103.083L237.146 108.909L237.325 109.031L230.738 119.393L235.589 129.647L213.84 142.692L212.677 153.175L217.499 158.535Z" fill="#0C221D" stroke="white" stroke-width="4.0201" stroke-linecap="round" stroke-linejoin="round"/>
<path d="M180.975 106.391L182.97 91.4296L180.057 80.9461L180.638 66.9681L183.774 63.6242L188.008 59.1036L197.53 66.3868L196.367 85.0218L191.71 104.245L180.975 106.391Z" fill="#0C221D" stroke="white" stroke-width="4.0201" stroke-linecap="round" stroke-linejoin="round"/>
<path d="M231.9 18.6191L242.614 34.922L242.965 34.9292L248.792 41.3369L246.969 48.6201L245.878 47.1635L219.085 54.1525L190.332 45.1328L188.904 35.0942L188.797 34.3479L197.171 34.434L224.911 2.89026L231.9 18.6191Z" fill="#0C221D" stroke="white" stroke-width="4.0201" stroke-linecap="round" stroke-linejoin="round"/>
<path d="M178.895 114.111V114.147L191.122 121.144L193.454 140.948V170.655L205.107 171.817L217.499 158.535L217.922 159.002L224.911 149.681L234.232 144.443L247.629 154.926L264.521 175.312L276.174 185.803L278.649 186.563L279.317 187.977L279.668 188.709H285.495L283.744 150.269L287.82 135.122L288.142 127.085L288.989 130.457L290.675 83.2135L292.484 83.2781L291.314 79.2024L293.058 76.0667L294.227 76.2891L295.397 66.968L302.364 63.4807L306.462 66.968L301.805 74.5383L300.054 91.4295L298.303 100.751V116.479L299.178 116.365L295.397 129.876V142.111V152.013L297.205 152.07L297.722 162.496L298.009 162.511L296.559 164.247L295.993 191.6L294.227 194.535L295.713 196.207L291.128 201.553L286.076 200.362H276.353L275.004 197.448L265.683 190.459L259.275 183.47L250.543 174.149L241.803 164.828L230.738 156.677L226.074 163.085L223.161 171.817L219.666 180.557L210.926 185.214L202.194 188.709L189.959 185.214L182.389 179.395L180.057 171.817V159.583L181.219 143.273L180.638 127.551L175.981 122.887L175.565 123.834L178.895 114.111Z" fill="#0C221D" stroke="white" stroke-width="4.0201" stroke-linecap="round" stroke-linejoin="round"/>
<path d="M183.774 63.6243L171.898 61.7228L164.328 58.2283L155.007 52.4017L155.072 52.0788L156.177 46.5823L175.393 36.0916L188.904 35.0942L190.332 45.1329L189.378 44.8315L187.627 58.8095L188.007 59.1037L183.774 63.6243Z" fill="#0C221D" stroke="white" stroke-width="4.0201" stroke-linecap="round" stroke-linejoin="round"/>
<path d="M179.476 110.337L172.487 110.653L144.524 132.208L140.448 135.122L136.953 156.677L126.463 167.742L121.806 175.893L118.311 187.546L118.892 200.362L111.322 206.77L95.0122 211.427L78.7021 222.498L69.381 235.895L57.1467 271.429L61.8036 285.995L75.7888 313.951L94.4238 330.261L100.659 339.611L104.914 345.99L96.1746 354.184L95.5934 354.73L90.7355 350.848L89.7668 350.066L93.8425 345.99L76.37 326.185L60.06 305.8L47.8256 286.576L45.4936 266.183L50.7389 246.96L62.392 231.238L71.1247 221.336L79.8645 208.52L91.5177 204.438L101.42 188.709L111.322 177.063L110.153 146.768L115.398 146.186L117.45 147.729L120.055 149.681L131.708 139.197L132.289 130.458L136.953 121.144L143.942 104.834L145.105 72.2063L154.426 52.4018L155.072 52.0789L155.007 52.4018L164.328 58.2283L171.898 61.7228L183.774 63.6243L180.638 66.9682L180.057 80.9461L182.97 91.4296L180.975 106.391L180.057 106.577L179.476 110.337Z" fill="#0C221D" stroke="white" stroke-width="4.0201" stroke-linecap="round" stroke-linejoin="round"/>
<path d="M90.7356 350.848L84.5215 350.066L61.2225 329.68L37.9234 283.663L28.6024 268.515V256.281L36.761 246.96L59.4788 223.661L75.2076 203.275L91.5177 182.301L102.582 166.579L99.6691 140.36L110.153 138.616L117.142 146.186L117.45 147.729L115.398 146.186L110.153 146.768L111.322 177.063L101.42 188.709L91.5177 204.438L79.8646 208.52L71.1247 221.336L62.3921 231.238L50.739 246.96L45.4936 266.183L47.8257 286.576L60.06 305.8L76.3701 326.185L93.8426 345.99L89.7669 350.066L90.7356 350.848Z" fill="#0C221D" stroke="white" stroke-width="4.0201" stroke-linecap="round" stroke-linejoin="round"/>
<path d="M131.127 180.557L131.593 180.206L138.116 175.312L146.267 167.161L148.599 159.583L151.513 140.36L161.415 132.208L175.127 124.825L160.834 157.258V170.11L146.267 176.482L140.448 179.976L131.127 180.557Z" fill="#0C221D" stroke="white" stroke-width="4.0201" stroke-linecap="round" stroke-linejoin="round"/>
<path d="M160.834 170.11V186.384L165.491 200.362L170.736 205.607L182.97 220.748L191.502 226.775L190.54 227.155L191.172 227.658L198.699 233.563L207.425 242.992L195.786 255.119L183.551 255.7L174.288 249.385L174.23 249.873L173.011 249.12L157.339 239.39L151.513 227.744L135.203 214.928L129.132 204.983L128.795 204.438L129.957 180.557L131.593 180.206L131.127 180.557L140.448 179.976L146.267 176.482L160.834 170.11Z" fill="#0C221D" stroke="white" stroke-width="4.0201" stroke-linecap="round" stroke-linejoin="round"/>
<path d="M207.425 242.992L213.258 249.292L224.911 264.44L226.612 266.047L194.035 269.097L187.627 291.233L182.389 295.897L179.103 304.759L178.923 305.24L180.057 305.8L176.562 310.457L173.068 324.434L157.339 336.669L142.773 341.914L127.632 342.495L127.187 342.338L115.979 338.42L106.077 336.088L100.25 325.023L90.3481 310.457L82.7778 303.468L79.2833 291.814L71.1247 282.493L67.6302 273.761L67.049 263.27L73.4568 252.205L82.7778 237.058L89.1856 229.487L96.1746 223.08L109.571 219.004L121.806 214.34L129.132 204.983L135.203 214.928L151.513 227.744L157.339 239.39L173.011 249.12L174.23 249.873L174.288 249.385L183.551 255.7L195.786 255.119L207.425 242.992Z" fill="#0C221D" stroke="white" stroke-width="4.0201" stroke-linecap="round" stroke-linejoin="round"/>
<path d="M335.142 406.573L336.169 419.389L326.266 418.808L308.213 423.464L307.043 414.725L283.744 392.588L272.091 378.61L265.683 365.213L257.13 355.885L259.77 347.36L259.72 347.332L269.766 325.023L280.249 318.027L290.245 290.774L299.473 292.396L314.62 296.478L328.598 308.124L342.576 329.099L352.479 343.077L355.887 344.497L346.071 357.055L348.984 364.632L344.327 373.953L336.75 376.278L334.037 382.786L333.836 383.274L333.133 382.93L330.342 388.512L335.006 404.822L335.142 406.573Z" fill="#0C221D" stroke="white" stroke-width="4.0201" stroke-linecap="round" stroke-linejoin="round"/>
<path d="M370.468 407.133L350.154 406.573H335.142L335.006 404.823L330.342 388.512L333.133 382.93L333.836 383.274L334.037 382.786L336.75 376.278L344.327 373.953L348.984 364.632L346.071 357.055L355.887 344.498L359.468 345.99L371.121 348.903L376.782 350.317L393.257 355.311L393.544 355.404L388.593 368.127L380.607 384.099L380.442 384.437L370.539 396.671L371.063 406.093L371.121 407.155L370.468 407.133Z" fill="#0C221D" stroke="white" stroke-width="4.0201" stroke-linecap="round" stroke-linejoin="round"/>
<path d="M253.642 286.203L261.026 289.49L279.668 288.901L290.245 290.774L280.249 318.027L269.766 325.023L259.72 347.332L259.77 347.36L257.13 355.885L256.95 356.473L255.573 355.813L243.554 350.066L225.493 351.817L216.172 344.828L207.432 340.163L195.205 335.506L192.873 326.185L188.208 313.37L184.585 307.766L179.103 304.759L182.389 295.897L187.627 291.233L194.035 269.097L226.612 266.047L235.395 274.342L249.373 285.995L253.642 286.203Z" fill="#0C221D" stroke="white" stroke-width="4.0201" stroke-linecap="round" stroke-linejoin="round"/>
<path d="M380.607 384.099L393.839 383.274L408.405 388.512L436.942 387.931L453.841 392.007L466.656 411.811L461.411 427.54L445.682 447.933L444.842 447.883L423.545 446.763L396.752 441.525L368.789 436.28L356.554 435.117L350.735 432.785V425.409V425.215L354.229 418.219L366.464 414.143L370.468 407.133L371.121 407.154L371.063 406.092L370.539 396.671L380.442 384.436L380.607 384.099Z" fill="#0C221D" stroke="white" stroke-width="4.0201" stroke-linecap="round" stroke-linejoin="round"/>
<path d="M255.573 355.813L250.564 366.333L250.542 366.376L250.27 366.247L242.384 381.523L231.319 394.92H228.987L228.004 395.415L212.677 403.079L211.515 408.905L200.443 417.057L189.658 417.545L187.627 417.638H179.332H178.894L181.219 408.317L178.306 397.252L160.252 390.263L150.931 383.274L145.686 374.534L139.867 363.462L127.187 342.338L127.632 342.495L142.773 341.914L157.339 336.669L173.068 324.435L176.562 310.457L180.057 305.8L178.923 305.24L179.103 304.759L184.585 307.766L188.208 313.37L192.872 326.185L195.205 335.506L207.432 340.163L216.172 344.827L225.493 351.816L243.553 350.066L255.573 355.813Z" fill="#0C221D" stroke="white" stroke-width="4.0201" stroke-linecap="round" stroke-linejoin="round"/>
<path d="M245.878 408.905L272.091 378.61L283.744 392.588L307.043 414.724L308.213 423.464L326.266 418.807L336.169 419.389L335.142 406.573H350.154L370.468 407.133L366.464 414.143L354.229 418.219L350.735 425.215V425.409L343.746 424.627L334.425 428.121L333.255 436.28L332.251 436.395L328.017 436.861L321.021 432.785L307.043 431.623L293.065 422.883L265.683 408.905H245.878Z" fill="#0C221D" stroke="white" stroke-width="4.0201" stroke-linecap="round" stroke-linejoin="round"/>
<path d="M444.842 447.883L448.014 453.171L453.252 461.33L475.97 469.481L485.872 481.134L484.753 481.493L456.747 490.455L424.715 491.037L415.164 486.645L395.589 477.64L375.778 460.749L355.973 445.02L341.995 441.525L332.251 436.395L333.255 436.28L334.425 428.121L343.746 424.627L350.735 425.409V432.785L356.554 435.117L368.789 436.28L396.752 441.525L423.545 446.763L444.842 447.883Z" fill="#0C221D" stroke="white" stroke-width="4.0201" stroke-linecap="round" stroke-linejoin="round"/>
<path d="M558.152 447.596L549.95 451.428L526.07 466.568L513.254 471.813L485.872 481.716L485.808 481.701L484.753 481.493L485.872 481.135L475.97 469.481L453.252 461.33L448.014 453.171L444.842 447.883L445.682 447.933L461.411 427.54L466.656 411.811L453.841 392.007L436.942 387.931L408.405 388.512L393.839 383.274L380.607 384.099L388.593 368.127L393.544 355.404L405.492 359.387L440.681 362.056L464.324 369.289L487.623 374.534L515.586 371.621L546.456 362.3L554.829 365.091L556.939 386.18L563.935 401.328L564.516 421.714L561.022 429.872L556.358 440.356L558.69 447.345L558.152 447.596Z" fill="#0C221D" stroke="white" stroke-width="4.0201" stroke-linecap="round" stroke-linejoin="round"/>
<path d="M558.152 447.596L566.841 461.33L572.087 479.965L562.184 498.607L548.206 505.596L521.994 524.238L506.846 542.88L484.71 573.168L483.834 571.934L474.808 559.19L468.981 554.533L453.252 541.129L453.855 540.34L462.573 528.902L477.721 505.015L485.808 481.701L485.872 481.716L513.254 471.813L526.07 466.568L549.95 451.428L558.152 447.596Z" fill="#0C221D" stroke="white" stroke-width="4.0201" stroke-linecap="round" stroke-linejoin="round"/>
<path d="M453.855 540.34L448.014 537.053L428.209 528.902L412.481 523.657L401.997 519.581L361.218 495.112L347.24 490.455L346.013 489.551L336.169 482.297L324.523 475.889L304.761 460.289L302.386 458.416L305.88 453.752H314.032L324.523 447.345L340.244 443.85L345.49 447.933L355.973 451.427L359.468 461.911L346.652 470.651L351.897 475.308L354.229 480.553L369.37 482.878L386.85 491.618L403.741 490.455L415.164 486.645L424.715 491.037L456.747 490.455L484.753 481.493L485.808 481.701L477.721 505.015L462.573 528.902L453.855 540.34Z" fill="#0C221D" stroke="white" stroke-width="4.0201" stroke-linecap="round" stroke-linejoin="round"/>
<path d="M100.659 339.611L107.239 343.658L115.398 346.571L129.376 360.556L139.278 385.018L148.599 392.007L157.339 398.415L174.812 408.317L171.317 426.378L158.502 404.822L142.192 394.92L122.387 383.274L107.239 369.87L96.1747 356.473V354.184L104.914 345.99L100.659 339.611Z" fill="#0C221D" stroke="white" stroke-width="4.0201" stroke-linecap="round" stroke-linejoin="round"/>
<path d="M304.761 460.289L300.054 460.749H291.895L278.499 448.514L276.174 436.861L261.607 423.464L265.066 412.959L265.683 408.905L293.065 422.883L307.043 431.623L321.021 432.786L328.017 436.861L332.251 436.395L341.995 441.525L355.973 445.02L375.778 460.749L395.589 477.64L415.164 486.645L403.741 490.456L386.85 491.618L369.37 482.878L354.229 480.553L351.897 475.308L346.652 470.651L359.468 461.911L355.973 451.428L345.49 447.933L340.244 443.85L324.523 447.345L314.032 453.753H305.881L302.386 458.417L304.761 460.289Z" fill="#0C221D" stroke="white" stroke-width="4.0201" stroke-linecap="round" stroke-linejoin="round"/>
<path d="M179.476 110.337L178.895 114.112L175.565 123.834L175.127 124.825L161.415 132.208L151.513 140.36L148.599 159.583L146.267 167.16L138.116 175.312L131.593 180.206L131.127 180.557L129.563 188.694L128.795 204.437L129.132 204.983L121.806 214.34L109.571 219.004L96.1746 223.08L89.1856 229.487L82.7778 237.058L73.4568 252.205L67.049 263.27L67.6302 273.761L71.1247 282.493L79.2833 291.814L82.7778 303.467L90.3481 310.456L100.25 325.023L106.077 336.088L115.979 338.42L127.187 342.337L139.867 363.462L145.686 374.534L150.931 383.274L160.252 390.263L178.306 397.252L181.219 408.317L178.895 417.638H179.332L176.01 428.021L171.41 425.918L174.812 408.317L157.339 398.415L148.599 392.007L139.278 385.018L129.376 360.556L115.398 346.571L107.239 343.658L100.659 339.611L94.4238 330.261L75.7888 313.951L61.8037 285.995L57.1467 271.429L69.3811 235.895L78.7021 222.498L95.0122 211.426L111.322 206.77L118.892 200.362L118.311 187.546L121.806 175.893L126.463 167.742L136.953 156.677L140.448 135.122L144.524 132.208L172.487 110.653L173.455 110.61L174.431 110.567L179.476 110.337Z" fill="#0C221D" stroke="white" stroke-width="4.0201" stroke-linecap="round" stroke-linejoin="round"/>
<path d="M483.834 571.934L468.981 595.886L441.025 630.838L446.263 664.628L442.769 676.274L433.448 692.584L428.209 709.475L406.073 727.536L398.495 737.438L385.099 754.33L374.034 739.77L369.37 724.623L360.637 716.471L337.338 698.41L323.934 682.682L309.956 673.361L310.136 671.696L311.119 662.296L313.451 620.355L319.858 584.24L318.115 567.342L311.119 551.62L317.526 544.043L320.44 528.314L322.772 510.26L334.425 498.026L346.013 489.551L347.24 490.455L361.218 495.112L401.997 519.581L412.481 523.657L428.209 528.902L448.014 537.054L453.855 540.34L453.252 541.129L468.981 554.533L474.808 559.19L483.834 571.934Z" fill="#0C221D" stroke="white" stroke-width="4.0201" stroke-linecap="round" stroke-linejoin="round"/>
<path d="M166.165 451.801L163.747 447.933L163.969 447.696L174.812 436.28L178.938 428.028L194.035 427.54L200.443 429.291L215.892 428.573L216.753 439.774L229.568 463.073L253.456 477.059L251.124 484.048L252.867 492.78L242.965 500.358L224.911 491.037L209.183 463.073L200.443 465.406L187.627 464.824L179.476 460.749V451.428L174.812 449.095L166.165 451.801Z" fill="#0C221D" stroke="white" stroke-width="4.0201" stroke-linecap="round" stroke-linejoin="round"/>
<path d="M232.862 606.111L217.922 610.453L202.775 615.109L202.739 614.392L201.612 590.06L198.699 577.251L196.948 563.847L217.334 562.685L227.243 569.702V583.071L232.862 606.111Z" fill="#0C221D" stroke="white" stroke-width="4.0201" stroke-linecap="round" stroke-linejoin="round"/>
<path d="M93.6632 445.745L112.485 446.182L134.04 450.258H142.192L153.263 449.677L163.969 447.696L163.747 447.933L166.165 451.801L165.491 452.009L166.373 453.358L150.931 467.738L148.018 479.384L152.675 502.102L146.267 504.434L138.116 491.037L126.463 471.813L117.73 464.243L103.164 457.247L95.0122 446.182L93.6632 445.745Z" fill="#0C221D" stroke="white" stroke-width="4.0201" stroke-linecap="round" stroke-linejoin="round"/>
<path d="M261.607 423.464L272.062 433.08L276.174 436.861L268.087 445.013L257.517 436.151L241.917 426.134L248.792 423.464H254.31H257.941H261.607Z" fill="#0C221D" stroke="white" stroke-width="4.0201" stroke-linecap="round" stroke-linejoin="round"/>
<path d="M310.136 671.696L299.473 665.209L287.238 654.137L273.842 630.838L262.188 619.192L233.063 606.958L232.862 606.111L227.243 583.07V569.702V567.93L223.161 549.869L209.764 527.151L208.601 518.411L166.373 453.358L165.491 452.009L166.165 451.801L174.812 449.095L179.476 451.427V460.749L187.627 464.824L200.443 465.405L209.183 463.073L224.911 491.037L242.965 500.358L252.867 492.78L251.124 484.048L253.456 477.059L229.568 463.073L216.753 439.774L215.892 428.573L233.515 427.762L233.529 427.791L233.113 434.235L250.047 453.458L259.433 466.482L257.517 436.151L268.087 445.013L276.174 436.861L278.499 448.514L291.895 460.749H300.054L304.761 460.289L324.523 475.889L336.169 482.297L346.013 489.551L334.425 498.026L322.772 510.26L320.44 528.314L317.526 544.042L311.119 551.62L318.115 567.342L319.858 584.24L313.451 620.355L311.119 662.296L310.136 671.696Z" fill="#0C221D"/>
<path d="M276.174 436.861L268.087 445.013L257.517 436.151L259.433 466.482L250.047 453.458L233.113 434.235L233.529 427.791L233.515 427.762L215.892 428.573L216.753 439.774L229.568 463.073L253.456 477.059L251.124 484.048L252.867 492.78L242.965 500.358L224.911 491.037L209.183 463.073L200.443 465.405L187.627 464.824L179.476 460.749V451.427L174.812 449.095L166.165 451.801L165.491 452.009L166.373 453.358L208.601 518.411L209.764 527.151L223.161 549.869L227.243 567.93V569.702V583.07L232.862 606.111L233.063 606.958L262.188 619.192L273.842 630.838L287.238 654.137L299.473 665.209L310.136 671.696L311.119 662.296L313.451 620.355L319.858 584.24L318.115 567.342L311.119 551.62L317.526 544.042L320.44 528.314L322.772 510.26L334.425 498.026L346.013 489.551L336.169 482.297L324.523 475.889L304.761 460.289L300.054 460.749H291.895L278.499 448.514L276.174 436.861ZM276.174 436.861L272.062 433.08" stroke="white" stroke-width="4.0201" stroke-linecap="round" stroke-linejoin="round"/>
<path d="M233.529 427.791L238.308 427.54L241.918 426.134L257.517 436.151L259.433 466.482L250.047 453.458L233.113 434.235L233.529 427.791Z" fill="#0C221D" stroke="white" stroke-width="4.0201" stroke-linecap="round" stroke-linejoin="round"/>
<path d="M85.4472 498.327L91.611 501.908L89.8601 507.282L88.4609 512.972L86.624 519.969L84.134 532.669L72.8756 532.978L55.9843 519.581L44.2379 502.862L59.3496 504.376L70.931 500.343L80.6898 500.487L85.4472 498.327Z" fill="#0C221D" stroke="white" stroke-width="4.0201" stroke-linecap="round" stroke-linejoin="round"/>
<path d="M85.4471 498.327L80.6897 500.487L70.931 500.343L59.3496 504.376L44.2379 502.862L34.8881 489.35L53.6163 489.027L66.7261 480.984L72.0288 474.82L77.7406 460.993L83.4165 460.949L88.9703 470.593L85.4471 498.327Z" fill="#0C221D" stroke="white" stroke-width="4.0201" stroke-linecap="round" stroke-linejoin="round"/>
<path d="M164.615 562.505L132.698 591.932L126.463 581.908L117.73 572.006L109.571 563.266L100.25 556.858L86.2723 538.805L72.8756 532.978L84.134 532.669L86.6239 519.969L88.4609 512.973L89.8601 507.282L91.611 501.908L85.4472 498.327L88.9704 470.594L83.4165 460.95L77.7406 460.993L72.0289 474.82L66.7261 480.984L53.6164 489.028L34.8881 489.351L21.0321 469.481L16.9564 458.417L2.39001 429.872L20.4509 446.764L33.2665 463.655L39.0858 466.568L47.8257 467.738L61.2225 456.085L58.8904 439.775L61.8037 435.118L71.706 438.612L93.6632 445.745L95.0122 446.182L103.164 457.247L117.73 464.243L126.463 471.813L138.116 491.037L146.267 504.434L151.082 502.683L164.615 562.505Z" fill="#0C221D"/>
<path d="M85.4472 498.327L91.611 501.908L89.8601 507.282L88.4609 512.973L86.6239 519.969L84.134 532.669L72.8756 532.978L86.2723 538.805L100.25 556.858L109.571 563.266L117.73 572.006L126.463 581.908L132.698 591.932L164.615 562.505L151.082 502.683L146.267 504.434L138.116 491.037L126.463 471.813L117.73 464.243L103.164 457.247L95.0122 446.182L93.6632 445.745L71.706 438.612L61.8037 435.118L58.8904 439.775L61.2225 456.085L47.8257 467.738L39.0858 466.568L33.2665 463.655L20.4509 446.764L2.39001 429.872L16.9564 458.417L21.0321 469.481L34.8881 489.351L53.6164 489.028L66.7261 480.984L72.0289 474.82L77.7406 460.993L83.4165 460.95L88.9704 470.594L85.4472 498.327ZM85.4472 498.327L83.1079 499.389" stroke="white" stroke-width="4.0201" stroke-linecap="round" stroke-linejoin="round"/>
<path d="M219.085 418.808L225.493 410.649L245.878 408.905H265.683L265.066 412.959L261.607 423.464H257.941H254.31H248.792L241.917 426.134L238.308 427.54L233.515 427.763L215.892 428.573L219.085 418.808Z" fill="#0C221D" stroke="white" stroke-width="4.0201" stroke-linecap="round" stroke-linejoin="round"/>
<path d="M219.085 418.808L215.892 428.574L200.443 429.291L194.035 427.54L178.938 428.028L176.01 428.021L178.895 417.638H187.627L189.658 417.545L201.024 421.714L209.183 422.883L219.085 418.808Z" fill="#0C221D" stroke="white" stroke-width="4.0201" stroke-linecap="round" stroke-linejoin="round"/>
<path d="M265.683 365.213L225.493 410.649L219.085 418.808L209.183 422.883L201.024 421.714L189.658 417.545L200.443 417.057L211.515 408.905L212.677 403.079L228.004 395.415L228.987 394.92H231.319L242.384 381.523L250.27 366.247L250.543 366.376L250.564 366.333L255.573 355.813L256.95 356.473L257.13 355.885L265.683 365.213Z" fill="#0C221D" stroke="white" stroke-width="4.0201" stroke-linecap="round" stroke-linejoin="round"/>
<path d="M272.091 378.61L245.878 408.905L225.493 410.649L265.683 365.213L272.091 378.61Z" fill="#0C221D" stroke="white" stroke-width="4.0201" stroke-linecap="round" stroke-linejoin="round"/>
<path d="M177.725 620.405L151.082 502.683L152.675 502.102L148.018 479.384L150.931 467.738L166.373 453.358L208.601 518.412L209.764 527.151L223.161 549.869L227.243 567.93V569.702L217.334 562.685L196.948 563.847L198.699 577.251L201.612 590.06L202.739 614.392L178.895 620.355L177.725 620.405Z" fill="#0C221D" stroke="white" stroke-width="4.0201" stroke-linecap="round" stroke-linejoin="round"/>
<path d="M145.944 609.907L165.648 567.069L177.725 620.405L165.491 620.936L145.944 609.907Z" fill="#0C221D" stroke="white" stroke-width="4.0201" stroke-linecap="round" stroke-linejoin="round"/>
<path d="M132.698 591.932L164.615 562.505L165.648 567.069L145.944 609.907L142.773 608.12L132.698 591.932Z" fill="#0C221D" stroke="white" stroke-width="4.0201" stroke-linecap="round" stroke-linejoin="round"/>
</svg>
