<?xml version="1.0"?>
<svg xmlns="http://www.w3.org/2000/svg" version="1.2" baseProfile="tiny" width="800" height="1212" viewBox="0 0 800 1212" stroke-linecap="round" stroke-linejoin="round">
<g id="hyougo">
<path d="M 73.84 60.52 81.15 51.28 106.15 43.08 141.23 29.56 162.58 16.1 188.62 1 224.26 11.53 262.59 7.54 292.07 8.22 342.58 5.65 363.6 6.41 373.73 9.1 387.6 13.41 393.1 23.12 407.1 12.48 409.88 42.06 409.46 51.13 408.53 59.35 408.63 73.79 410.09 84.62 413.82 94.43 420.99 106.74 438.98 132.25 454.14 142.31 467.56 145.37 479.26 142.18 500.16 130.53 507.01 127.71 514.63 127.28 522.2 131.81 528.02 140.59 530.4 157.76 532.48 211.54 531.75 220.48 528.64 229.12 524.28 237.07 519.47 243.99 514.83 249.74 508.6 252.84 500.92 253.18 495.25 252.21 488.85 249.6 473.9 240.07 464.87 236.08 457.77 236.82 451.96 241.77 449.15 251.27 447.6 260.23 445.73 292.17 446.46 298 449.64 305.17 456.28 312.21 468.6 318.76 492.17 325.41 499.95 330.03 508.26 336.69 517.12 346.35 541.96 355.8 550.75 361.6 561.79 360.54 576.77 351.48 583.69 349.78 597.12 350.42 600.93 352.41 605.32 356.69 613.73 381.98 624.87 402.05 633.46 413.63 649.23 424.23 661.86 423.47 672.42 424.68 682.42 428.3 690.21 435.24 695.53 444.55 702.59 447.55 720.45 444.13 728.96 447.13 752.56 464.56 759.21 470.86 764.12 480.93 767.1 489.98 764.53 500.25 752.15 513.02 739.69 521.11 730.83 524.77 725.43 528.13 725.43 534.85 727.65 540.7 741.97 554.9 744.26 590.88 765.78 614.84 788 625.24 793.19 631.49 792.46 642.88 793.39 662.75 792.56 675.65 789.86 688.43 788.31 702.93 788.72 721.13 795.78 748.23 799 773.83 797.55 779.22 796.61 781.96 794.95 784.48 788.52 792.65 775.18 804.07 764.89 808.85 753.94 812.88 741.91 806.52 727.19 790.69 711.26 791.95 690.76 793.19 691.05 813.93 668.49 816.35 669.35 796.88 646.03 805.13 660.95 837.72 639.89 834.12 635.54 816.14 623.24 818.05 621.86 837.39 573.21 846.16 551.93 856.42 529.32 858.71 509.95 844.72 484.78 845.64 472.08 843.52 456.5 824.19 436.81 815.86 423.91 804.56 387.07 780.2 365.05 772.44 339.55 751.19 327.51 743.39 295.3 735.53 208.66 743.39 203.97 741.97 200.32 739.25 196.72 737.92 192.42 740.61 189.2 743.39 184.95 746.18 180.54 748.2 176.61 748.96 167.79 747.94 161.08 745.02 157.49 738.45 157.98 726.67 153.51 728.1 149.26 730.85 145.88 735 144.68 740.61 143.81 747.27 141.79 747.94 138.79 747.07 135.09 748.96 117.92 772.81 112.2 776.79 102.72 776.22 95.69 771.95 89.97 767.17 84.41 765.18 75.74 768.3 68.61 775.33 64.9 784.38 66.1 793.43 47.79 794.09 33.04 790.2 33.08 790.08 39.55 771.75 40.9 761.7 39.31 747.72 37.06 740.31 34.05 733.94 22.32 716.5 2.97 698.71 1 686.87 1.62 674.53 5.78 656.67 5.57 636.8 2.25 604.66 6.19 579.44 6.92 567.61 6.5 558.11 5.57 552.66 5.57 552.02 6.71 550.61 38.82 519.28 71.87 461.98 79.45 452.29 87.23 445.01 92.94 437.69 94.95 428.38 92.87 412.59 89 399.34 93.98 375.35 93.98 365.16 107.51 367.66 112.49 372.02 121.32 374.78 129.35 373.8 138.9 368.36 158.62 352.77 167.06 341.39 170.59 330.18 171.01 316.3 169.14 302.18 168.93 295.69 167.96 288.84 165.26 280.53 149.49 256.32 146.47 238.84 142.43 224.91 126.65 193.19 108.13 106.44 95.85 78.11 76.02 62.49 73.84 60.52 Z M 500.46 872.17 517.53 886.34 518.84 896.23 511 906.64 500.86 918.41 495.59 935.76 488.05 955.64 469.41 972.62 453.5 998.12 433.7 1026.11 429.85 1056.55 428.87 1063.65 430.99 1073.32 431.49 1082.89 442.6 1091.61 444.17 1106.11 449.24 1115.76 465.49 1132.91 470.71 1146.68 457.14 1152.83 438.05 1157.35 421.6 1167.64 402.32 1174.5 387.41 1182.12 364.78 1203.05 332.52 1210.18 316.98 1211 315.77 1195.59 301.38 1189.11 299.23 1186.5 306.88 1171.29 313.78 1161.04 289.82 1168.37 275.36 1150.59 269.1 1132.21 277.45 1120.97 286.57 1099.76 301.23 1103.87 311.72 1098.5 364.04 1003.55 380.97 992.14 393.23 984.47 398.51 980.04 402.55 973.89 408.27 959.78 412.52 952.54 420.88 936.36 446.75 922.87 457.22 918.95 473.93 894.63 486.17 877.07 500.46 872.17 Z" fill-rule="evenodd"/>
</g>
</svg>