<?xml version="1.0"?>
<svg xmlns="http://www.w3.org/2000/svg" version="1.2" baseProfile="tiny" width="800" height="978" viewBox="0 0 800 978" stroke-linecap="round" stroke-linejoin="round">
<g id="tochigi">
<path d="M 112.76 907.41 98.68 896.48 79.76 874.57 71.9 863.63 65.46 850.76 40.7 825.41 32.2 814.59 27.95 804.28 26.41 793.38 27.44 783.36 30.01 776.27 33.49 769.77 42.63 756.22 48.55 748.86 61.17 726.6 65.46 710.88 71.47 694.34 73.32 681.53 76.67 670.22 81.69 660.24 88.9 649.88 92.76 641.87 94.82 634.82 101.65 623.58 111.22 615.38 116.11 605.04 118.68 593.47 117.23 579.79 108.9 570.31 98.56 564.77 48.94 558.39 40.7 555.21 30.4 549.35 6.06 531.97 1 518.95 2.03 504.27 6.67 486.24 17.4 456.92 21.34 441.74 20.06 403.13 23.15 390.17 31.04 378.28 39.28 368.2 45.34 357.73 51.39 349.53 53.32 343.28 52.76 334.2 46.49 327.47 38.13 320.18 28.6 307.58 26.28 295.78 29.5 283.66 45.55 252.22 85.68 228.23 117.23 196.01 131.43 189.19 170.1 176.52 310.45 95.07 367.66 70.31 381.78 67.24 404.01 65.92 429.89 40.61 462.25 14.67 482.64 5.58 508.39 1 542.69 5.36 658.91 40.32 671.66 48.44 713.29 82.27 723.85 89.13 731.1 95.37 735.99 105.26 738.7 118.22 742.56 129.42 749.51 137.81 764.71 146.11 767.8 148.31 768.83 149.33 769.51 150.43 772.22 160.56 777.63 209.6 774.54 228.55 776.72 258.23 781.23 278.88 782.39 295.99 782.13 314.63 786.17 348.32 785.61 398.23 789.09 416.31 799 442.44 792.82 452.42 778.66 461.41 766.77 472.7 761.02 485.36 761.53 502.67 768.31 540.88 774.79 625.9 772.95 651.19 768.48 668.99 752.22 693.17 743.85 710.67 727.88 756.49 718.87 770.19 708.01 779.55 697.2 781.17 672.34 775.95 649.25 780.51 622.99 789.04 610.07 799.3 589.21 808.09 579.81 808.6 572.77 808.09 557.58 804.63 548.61 806.36 538.82 810.91 500.5 847.57 490.11 865.36 480.58 869.67 473.2 870.41 460.07 869.59 444.87 874.99 425.64 895.54 416.63 910.02 404.53 935.11 396.37 942.59 366.63 959.18 331.31 973.09 308.9 977 301.52 976.73 289.85 974.69 277.19 951.42 249.76 923.96 235.81 916.04 164.52 901.35 147.53 900.55 135.81 902.76 124.69 907.04 112.76 907.41 Z"/>
</g>
</svg>