<?xml version="1.0"?>
<svg xmlns="http://www.w3.org/2000/svg" version="1.2" baseProfile="tiny" width="800" height="490" viewBox="0 0 800 490" stroke-linecap="round" stroke-linejoin="round">
<g id="17" fill="none" stroke="black" stroke-width="1">
<path d="M 281.76 251.73 224.29 235.28 M 224.29 235.28 224.92 233.08 M 224.92 233.08 282.39 249.52 M 282.39 249.52 281.76 251.73 M 238.38 402.72 180.91 386.27 M 180.91 386.27 181.52 384.16 M 181.52 384.16 238.99 400.61 M 238.99 400.61 238.38 402.72 M 314.33 138.35 256.86 121.9 M 256.86 121.9 257.46 119.79 M 257.46 119.79 314.93 136.24 M 314.93 136.24 314.33 138.35 M 411.65 84.5 354.18 68.05 M 354.18 68.05 354.79 65.94 M 354.79 65.94 412.26 82.39 M 412.26 82.39 411.65 84.5 M 487.28 106.15 429.81 89.7 M 429.81 89.7 430.42 87.59 M 430.42 87.59 487.89 104.04 M 487.89 104.04 487.28 106.15 M 563.01 127.82 505.45 111.35 M 505.45 111.35 506.05 109.24 M 506.05 109.24 563.62 125.71 M 563.62 125.71 563.01 127.82 M 638.65 149.47 581.18 133.02 M 581.18 133.02 581.78 130.91 M 581.78 130.91 639.26 147.36 M 639.26 147.36 638.65 149.47 M 584.42 338.25 526.95 321.8 M 526.95 321.8 527.55 319.69 M 527.55 319.69 585.02 336.14 M 585.02 336.14 584.42 338.25 M 508.78 316.6 451.22 300.13 M 451.22 300.13 451.82 298.02 M 451.82 298.02 509.39 314.49 M 509.39 314.49 508.78 316.6 M 433.05 294.93 375.58 278.48 M 375.58 278.48 376.19 276.37 M 376.19 276.37 433.66 292.82 M 433.66 292.82 433.05 294.93 M 196.15 302.8 194.04 302.2 M 194.04 302.2 213.11 235.82 M 213.11 235.82 215.22 236.42 M 215.22 236.42 196.15 302.8 M 271.78 324.45 269.67 323.85 M 269.67 323.85 288.74 257.47 M 288.74 257.47 290.85 258.07 M 290.85 258.07 271.78 324.45 M 347.51 346.13 345.4 345.52 M 345.4 345.52 364.47 279.14 M 364.47 279.14 366.58 279.75 M 366.58 279.75 347.51 346.13 M 325.8 421.72 323.69 421.11 M 323.69 421.11 342.78 354.64 M 342.78 354.64 344.9 355.24 M 344.9 355.24 325.8 421.72 M 255.55 411.37 313.02 427.82 M 353.19 71.5 335.02 66.31 M 335.02 66.31 337.61 57.29 M 337.61 57.29 355.78 62.49 M 355.78 62.49 353.19 71.5 M 428.82 93.15 410.66 87.95 M 410.66 87.95 413.25 78.94 M 413.25 78.94 431.41 84.14 M 431.41 84.14 428.82 93.15 M 413.17 79.22 413.63 79.05 M 412.67 80.95 415.27 79.51 M 412.17 82.68 417 80.01 M 411.71 84.31 418.73 80.5 M 411.21 86.04 420.36 80.97 M 410.71 87.76 422.09 81.47 M 412.1 88.37 423.82 81.96 M 413.83 88.86 425.55 82.46 M 415.56 89.36 427.18 82.93 M 417.19 89.82 428.91 83.42 M 418.92 90.32 430.64 83.92 M 420.65 90.81 431.16 85 M 422.29 91.28 430.7 86.63 M 424.02 91.78 430.2 88.36 M 425.75 92.27 429.7 90.08 M 427.38 92.74 429.21 91.81 M 504.46 114.8 486.29 109.6 M 486.29 109.6 488.88 100.58 M 488.88 100.58 507.05 105.78 M 507.05 105.78 504.46 114.8 M 488.8 100.87 489.27 100.69 M 488.3 102.6 491 101.19 M 487.81 104.33 492.63 101.66 M 487.34 105.96 494.36 102.15 M 486.84 107.68 496.09 102.65 M 486.35 109.41 497.72 103.11 M 487.83 110.04 499.45 103.61 M 489.46 110.51 501.18 104.1 M 491.19 111 502.82 104.57 M 492.92 111.5 504.55 105.07 M 494.56 111.97 506.28 105.56 M 496.29 112.46 506.8 106.65 M 498.02 112.96 506.33 108.28 M 499.65 113.42 505.83 110 M 501.38 113.92 505.34 111.73 M 503.11 114.41 504.84 113.46 M 580.19 136.47 562.02 131.28 M 562.02 131.28 564.61 122.26 M 564.61 122.26 582.78 127.46 M 582.78 127.46 580.19 136.47 M 564.53 122.55 564.9 122.34 M 564.03 124.27 566.63 122.84 M 563.54 126 568.36 123.33 M 563.07 127.63 569.99 123.8 M 562.57 129.36 571.72 124.29 M 562.08 131.08 573.45 124.79 M 563.46 131.69 575.09 125.26 M 565.19 132.18 576.82 125.75 M 566.83 132.65 578.55 126.25 M 568.56 133.15 580.18 126.71 M 570.29 133.64 581.91 127.21 M 571.92 134.11 582.53 128.32 M 573.65 134.6 582.06 129.95 M 575.38 135.1 581.56 131.68 M 577.01 135.57 581.07 133.41 M 578.74 136.06 580.57 135.13 M 331.47 147.09 313.31 141.9 M 313.31 141.9 315.93 132.78 M 315.93 132.78 334.09 137.98 M 334.09 137.98 331.47 147.09 M 315.82 133.17 316.31 132.89 M 315.35 134.8 317.95 133.36 M 314.85 136.52 319.67 133.86 M 314.36 138.25 321.4 134.35 M 313.89 139.88 323.04 134.82 M 313.39 141.61 324.77 135.31 M 314.75 142.31 326.5 135.81 M 316.48 142.8 328.13 136.28 M 318.11 143.27 329.86 136.77 M 319.84 143.77 331.59 137.27 M 321.57 144.26 333.23 137.73 M 323.21 144.73 333.84 138.84 M 324.94 145.22 333.35 140.57 M 326.67 145.72 332.85 142.3 M 328.3 146.19 332.38 143.93 M 330.03 146.68 331.89 145.66 M 255.84 125.45 237.67 120.25 M 237.67 120.25 240.29 111.14 M 240.29 111.14 258.46 116.33 M 258.46 116.33 255.84 125.45 M 240.18 111.52 240.58 111.22 M 239.71 113.15 242.31 111.71 M 239.22 114.88 244.04 112.21 M 238.72 116.6 245.67 112.68 M 238.25 118.23 247.4 113.17 M 237.76 119.96 249.13 113.67 M 239.12 120.66 250.77 114.13 M 240.75 121.13 252.5 114.63 M 242.48 121.62 254.23 115.12 M 244.21 122.12 255.86 115.59 M 245.94 122.61 257.59 116.09 M 247.57 123.08 258.21 117.2 M 249.3 123.58 257.71 118.92 M 251.03 124.07 257.22 120.65 M 252.67 124.54 256.75 122.28 M 254.4 125.03 256.25 124.01 M 298.93 260.38 280.76 255.18 M 280.76 255.18 283.38 246.07 M 283.38 246.07 301.55 251.27 M 301.55 251.27 298.93 260.38 M 282.91 247.7 284.92 246.51 M 282.44 249.33 286.65 247.01 M 281.95 251.06 288.38 247.5 M 281.45 252.79 290.01 247.97 M 280.98 254.42 291.74 248.46 M 281.72 255.46 293.47 248.96 M 283.45 255.95 295.11 249.43 M 285.18 256.45 296.84 249.92 M 286.82 256.92 298.57 250.42 M 288.55 257.41 300.2 250.88 M 290.28 257.91 301.43 251.65 M 291.91 258.37 300.94 253.38 M 293.64 258.87 300.44 255.11 M 295.37 259.36 299.97 256.74 M 297.01 259.83 299.48 258.46 M 298.74 260.33 298.98 260.19 M 223.29 238.73 205.13 233.54 M 205.13 233.54 207.75 224.42 M 207.75 224.42 225.91 229.62 M 225.91 229.62 223.29 238.73 M 207.28 226.05 209.29 224.86 M 206.81 227.68 211.01 225.36 M 206.31 229.41 212.65 225.83 M 205.82 231.14 214.38 226.32 M 205.35 232.77 216.11 226.82 M 206.09 233.81 217.74 227.28 M 207.82 234.31 219.47 227.78 M 209.45 234.77 221.2 228.27 M 211.18 235.27 222.93 228.77 M 212.91 235.76 224.57 229.24 M 214.55 236.23 225.8 230.01 M 216.28 236.73 225.3 231.73 M 218.01 237.22 224.81 233.46 M 219.64 237.69 224.34 235.09 M 221.37 238.18 223.84 236.82 M 223.1 238.68 223.35 238.54 M 277.24 335.88 259.08 330.68 M 259.08 330.68 261.69 321.56 M 261.69 321.56 279.86 326.76 M 279.86 326.76 277.24 335.88 M 261.23 323.19 263.23 322 M 260.73 324.92 264.96 322.5 M 260.26 326.55 266.69 322.99 M 259.76 328.28 268.32 323.46 M 259.27 330.01 270.05 323.96 M 260.04 330.95 271.78 324.45 M 261.77 331.45 273.42 324.92 M 263.5 331.94 275.15 325.42 M 265.13 332.41 276.88 325.91 M 266.86 332.91 278.51 326.38 M 268.59 333.4 279.72 327.24 M 270.22 333.87 279.25 328.87 M 271.95 334.36 278.76 330.6 M 273.68 334.86 278.26 332.33 M 275.32 335.33 277.76 334.05 M 277.05 335.82 277.29 335.68 M 201.61 314.23 183.44 309.03 M 183.44 309.03 186.06 299.92 M 186.06 299.92 204.22 305.12 M 204.22 305.12 201.61 314.23 M 185.59 301.55 187.6 300.36 M 185.1 303.27 189.33 300.85 M 184.63 304.9 190.96 301.32 M 184.13 306.63 192.69 301.81 M 183.63 308.36 194.42 302.31 M 184.4 309.3 196.05 302.78 M 186.13 309.8 197.78 303.27 M 187.77 310.27 199.51 303.77 M 189.5 310.76 201.24 304.26 M 191.23 311.26 202.88 304.73 M 192.86 311.73 204.09 305.6 M 194.59 312.22 203.62 307.23 M 196.32 312.72 203.12 308.95 M 197.95 313.18 202.63 310.68 M 199.68 313.68 202.13 312.41 M 201.41 314.17 201.66 314.04 M 255.55 411.37 237.39 406.17 M 237.39 406.17 239.98 397.15 M 239.98 397.15 258.14 402.35 M 258.14 402.35 255.55 411.37 M 239.54 398.69 241.52 397.59 M 239.04 400.42 243.25 398.09 M 238.55 402.14 244.98 398.58 M 238.08 403.77 246.61 399.05 M 237.58 405.5 248.34 399.55 M 238.35 406.45 250.07 400.04 M 240.08 406.94 251.7 400.51 M 241.81 407.44 253.43 401 M 243.44 407.9 255.16 401.5 M 245.17 408.4 256.8 401.97 M 246.9 408.89 258.03 402.74 M 248.54 409.36 257.54 404.46 M 250.27 409.86 257.04 406.19 M 252 410.35 256.57 407.82 M 253.63 410.82 256.08 409.55 M 255.36 411.31 255.58 411.27 M 179.92 389.72 161.75 384.52 M 161.75 384.52 164.34 375.51 M 164.34 375.51 182.51 380.7 M 182.51 380.7 179.92 389.72 M 163.9 377.04 165.88 375.95 M 163.41 378.77 167.61 376.44 M 162.91 380.49 169.25 376.91 M 162.44 382.13 170.98 377.4 M 161.95 383.85 172.71 377.9 M 162.71 384.8 174.34 378.37 M 164.44 385.29 176.07 378.86 M 166.08 385.76 177.8 379.36 M 167.81 386.26 179.53 379.85 M 169.54 386.75 181.16 380.32 M 171.17 387.22 182.4 381.09 M 172.9 387.71 181.9 382.82 M 174.63 388.21 181.41 384.54 M 176.27 388.68 180.94 386.17 M 178 389.17 180.44 387.9 M 179.73 389.67 179.95 389.63 M 525.93 325.35 507.76 320.15 M 507.76 320.15 510.38 311.04 M 510.38 311.04 528.54 316.24 M 528.54 316.24 525.93 325.35 M 509.91 312.67 511.92 311.48 M 509.44 314.3 513.65 311.98 M 508.95 316.03 515.38 312.47 M 508.45 317.76 517.01 312.94 M 507.98 319.39 518.74 313.43 M 508.72 320.43 520.47 313.93 M 510.45 320.92 522.1 314.4 M 512.09 321.39 523.83 314.89 M 513.82 321.89 525.56 315.39 M 515.55 322.38 527.2 315.85 M 517.18 322.85 528.43 316.62 M 518.91 323.34 527.94 318.35 M 520.64 323.84 527.44 320.08 M 522.37 324.33 526.97 321.71 M 524 324.8 526.48 323.43 M 525.73 325.3 525.98 325.16 M 450.2 303.68 432.03 298.48 M 432.03 298.48 434.65 289.37 M 434.65 289.37 452.81 294.56 M 452.81 294.56 450.2 303.68 M 434.18 291 436.28 289.83 M 433.71 292.63 438.01 290.33 M 433.22 294.35 439.65 290.8 M 432.72 296.08 441.38 291.29 M 432.25 297.71 443.11 291.79 M 433.09 298.78 444.74 292.25 M 434.82 299.28 446.47 292.75 M 436.45 299.74 448.2 293.24 M 438.18 300.24 449.83 293.71 M 439.91 300.73 451.56 294.21 M 441.55 301.2 452.7 294.95 M 443.28 301.7 452.21 296.67 M 445.01 302.19 451.71 298.4 M 446.64 302.66 451.24 300.03 M 448.37 303.15 450.75 301.76 M 450.1 303.65 450.25 303.49 M 374.56 282.03 356.4 276.83 M 356.4 276.83 359.02 267.72 M 359.02 267.72 377.18 272.92 M 377.18 272.92 374.56 282.03 M 358.55 269.35 360.65 268.19 M 358.08 270.98 362.28 268.65 M 357.58 272.71 364.01 269.15 M 357.09 274.43 365.74 269.64 M 356.62 276.06 367.38 270.11 M 357.45 277.13 369.11 270.61 M 359.09 277.6 370.84 271.1 M 360.82 278.1 372.47 271.57 M 362.55 278.59 374.2 272.06 M 364.18 279.06 375.93 272.56 M 365.91 279.55 377.07 273.3 M 367.64 280.05 376.57 275.03 M 369.28 280.52 376.08 276.75 M 371.01 281.01 375.61 278.38 M 372.74 281.51 375.11 280.11 M 374.37 281.97 374.62 281.84 M 352.87 357.52 334.71 352.32 M 334.71 352.32 337.33 343.21 M 337.33 343.21 355.49 348.41 M 355.49 348.41 352.87 357.52 M 336.86 344.84 338.96 343.68 M 336.36 346.57 340.6 344.15 M 335.89 348.2 342.33 344.64 M 335.4 349.93 344.06 345.14 M 334.9 351.65 345.69 345.6 M 335.77 352.63 347.42 346.1 M 337.4 353.09 349.15 346.59 M 339.13 353.59 350.78 347.06 M 340.86 354.08 352.51 347.56 M 342.49 354.55 354.24 348.05 M 344.22 355.05 355.35 348.89 M 345.95 355.54 354.89 350.52 M 347.59 356.01 354.39 352.25 M 349.32 356.51 353.89 353.97 M 351.05 357 353.4 355.7 M 352.68 357.47 352.93 357.33 M 331.19 433.02 313.02 427.82 M 313.02 427.82 315.61 418.8 M 315.61 418.8 333.78 424 M 333.78 424 331.19 433.02 M 315.17 420.34 317.25 419.27 M 314.68 422.06 318.88 419.74 M 314.18 423.79 320.61 420.23 M 313.71 425.42 322.34 420.73 M 313.21 427.15 323.97 421.19 M 314.08 428.12 325.7 421.69 M 315.71 428.59 327.43 422.18 M 317.44 429.08 329.07 422.65 M 319.17 429.58 330.8 423.15 M 320.81 430.05 332.53 423.64 M 322.54 430.54 333.67 424.38 M 324.27 431.04 333.17 426.11 M 325.9 431.5 332.67 427.84 M 327.63 432 332.21 429.47 M 329.36 432.49 331.71 431.19 M 330.99 432.96 331.21 432.92 M 238.69 116.7 175.46 98.6 M 175.46 98.6 176.06 96.49 M 176.06 96.49 239.3 114.59 M 239.3 114.59 238.69 116.7 M 174.77 101 167.95 99.05 M 167.95 99.05 169.9 92.23 M 169.9 92.23 176.73 94.19 M 176.73 94.19 174.77 101 M 206.15 229.99 142.91 211.89 M 142.91 211.89 143.52 209.78 M 143.52 209.78 206.76 227.88 M 206.76 227.88 206.15 229.99 M 142.22 214.29 135.4 212.33 M 135.4 212.33 137.36 205.52 M 137.36 205.52 144.18 207.48 M 144.18 207.48 142.22 214.29 M 168.63 96.65 161.81 94.69 M 161.81 94.69 162.42 92.58 M 162.42 92.58 169.24 94.54 M 169.24 94.54 168.63 96.65 M 136.09 209.94 129.27 207.98 M 129.27 207.98 129.87 205.87 M 129.87 205.87 136.7 207.82 M 136.7 207.82 136.09 209.94 M 141.87 206.82 139.76 206.21 M 139.76 206.21 170.35 99.73 M 170.35 99.73 172.46 100.34 M 172.46 100.34 141.87 206.82 M 174.42 93.53 172.3 92.92 M 172.3 92.92 174.26 86.11 M 174.26 86.11 176.38 86.72 M 176.38 86.72 174.42 93.53 M 137.96 220.44 135.85 219.83 M 135.85 219.83 137.8 213.02 M 137.8 213.02 139.92 213.63 M 139.92 213.63 137.96 220.44 M 140.09 205.06 140.12 204.96 M 142.2 205.66 142.23 205.57 M 348.36 356.23 329.26 422.71 M 321.25 437.54 319.14 436.94 M 319.14 436.94 321.09 430.13 M 321.09 430.13 323.21 430.73 M 323.21 430.73 321.25 437.54 M 169.89 394.22 167.77 393.62 M 167.77 393.62 169.73 386.81 M 169.73 386.81 171.84 387.41 M 171.84 387.41 169.89 394.22 M 369.2 270.63 367.09 270.03 M 367.09 270.03 369.04 263.22 M 369.04 263.22 371.16 263.82 M 371.16 263.82 369.2 270.63 M 600.27 342.79 593.45 340.84 M 593.45 340.84 594.06 338.73 M 594.06 338.73 600.88 340.68 M 600.88 340.68 600.27 342.79 M 654.51 154.01 647.68 152.06 M 647.68 152.06 648.29 149.95 M 648.29 149.95 655.11 151.9 M 655.11 151.9 654.51 154.01 M 336.02 62.85 329.19 60.9 M 329.19 60.9 329.8 58.79 M 329.8 58.79 336.62 60.74 M 336.62 60.74 336.02 62.85 M 347.71 60.18 345.59 59.57 M 345.59 59.57 347.55 52.76 M 347.55 52.76 349.66 53.37 M 349.66 53.37 347.71 60.18 M 293.47 248.96 291.36 248.35 M 291.36 248.35 293.31 241.54 M 293.31 241.54 295.43 242.15 M 295.43 242.15 293.47 248.96 M 217.84 227.31 215.72 226.71 M 215.72 226.71 217.68 219.9 M 217.68 219.9 219.79 220.5 M 219.79 220.5 217.84 227.31 M 339.32 145.5 332.49 143.54 M 332.49 143.54 333.1 141.43 M 333.1 141.43 339.92 143.39 M 339.92 143.39 339.32 145.5 M 162.75 381.07 155.92 379.12 M 155.92 379.12 156.53 377.01 M 156.53 377.01 163.35 378.96 M 163.35 378.96 162.75 381.07 M 184.43 305.58 177.61 303.62 M 177.61 303.62 178.22 301.51 M 178.22 301.51 185.04 303.47 M 185.04 303.47 184.43 305.58 M 339 431.52 332.18 429.56 M 332.18 429.56 332.78 427.45 M 332.78 427.45 339.61 429.41 M 339.61 429.41 339 431.52 M 204.22 305.12 261.69 321.56 M 179.92 389.72 237.39 406.17 M 271.92 337.36 272.72 334.58 M 360.91 278.12 341.84 344.5 M 592.43 344.39 583.4 341.8 M 583.4 341.8 588.6 323.67 M 588.6 323.67 597.64 326.26 M 597.64 326.26 592.43 344.39 M 644.07 164.62 635.04 162.04 M 635.04 162.04 640.25 143.91 M 640.25 143.91 649.28 146.49 M 649.28 146.49 644.07 164.62 M 644.07 164.62 597.64 326.26 M 740.85 389.25 731.82 386.67 M 731.82 386.67 789.97 184.27 M 789.97 184.27 799 186.85 M 799 186.85 740.85 389.25 M 731.44 386.56 722.31 383.95 M 722.31 383.95 780.45 181.54 M 780.45 181.54 789.58 184.16 M 789.58 184.16 731.44 386.56 M 722.02 383.86 712.89 381.25 M 712.89 381.25 771.03 178.85 M 771.03 178.85 780.16 181.46 M 780.16 181.46 722.02 383.86 M 712.5 381.14 703.47 378.55 M 703.47 378.55 761.62 176.15 M 761.62 176.15 770.65 178.74 M 770.65 178.74 712.5 381.14 M 703.08 378.44 693.95 375.83 M 693.95 375.83 752.1 173.43 M 752.1 173.43 761.23 176.04 M 761.23 176.04 703.08 378.44 M 693.57 375.72 684.54 373.14 M 684.54 373.14 742.68 170.73 M 742.68 170.73 751.72 173.32 M 751.72 173.32 693.57 375.72 M 684.15 373.03 675.02 370.41 M 675.02 370.41 733.17 168.01 M 733.17 168.01 742.3 170.62 M 742.3 170.62 684.15 373.03 M 674.64 370.3 665.6 367.72 M 665.6 367.72 723.75 165.31 M 723.75 165.31 732.78 167.9 M 732.78 167.9 674.64 370.3 M 665.22 367.61 656.19 365.02 M 656.19 365.02 714.33 162.62 M 714.33 162.62 723.37 165.2 M 723.37 165.2 665.22 367.61 M 655.8 364.91 646.67 362.3 M 646.67 362.3 704.82 159.9 M 704.82 159.9 713.95 162.51 M 713.95 162.51 655.8 364.91 M 646.29 362.19 637.25 359.6 M 637.25 359.6 695.4 157.2 M 695.4 157.2 704.43 159.79 M 704.43 159.79 646.29 362.19 M 636.87 359.49 627.74 356.88 M 627.74 356.88 685.89 154.48 M 685.89 154.48 695.02 157.09 M 695.02 157.09 636.87 359.49 M 627.35 356.77 618.32 354.18 M 618.32 354.18 676.47 151.78 M 676.47 151.78 685.5 154.37 M 685.5 154.37 627.35 356.77 M 595.43 335.38 595.05 335.27 M 595.05 335.27 592.43 344.39 M 592.43 344.39 592.81 344.5 M 634.49 233.82 634.87 233.93 M 597.64 326.26 588.6 323.67 M 588.6 323.67 635.04 162.04 M 635.04 162.04 644.07 164.62 M 644.07 164.62 597.64 326.26 M 593.83 340.95 592.18 346.7 M 592.18 346.7 601.31 349.32 M 601.31 349.32 659.46 146.91 M 659.46 146.91 650.33 144.3 M 650.33 144.3 648.67 150.06 M 610.73 352.01 601.69 349.43 M 601.69 349.43 659.84 147.02 M 659.84 147.02 668.87 149.61 M 668.87 149.61 610.73 352.01 M 627.98 222.1 627.59 221.99 M 624.98 231.1 625.36 231.21 M 637.49 224.82 637.11 224.71 M 601.94 347.11 602.33 347.22 M 604.95 338.11 604.56 338 M 648.07 152.17 594.44 338.84 M 610.73 352.01 617.94 354.07 M 617.94 354.07 676.08 151.67 M 676.08 151.67 668.87 149.61 M 575 335.56 573.34 341.31 M 573.34 341.31 582.38 343.9 M 582.38 343.9 584.03 338.14 M 629.23 146.77 575.6 333.45 M 575 335.56 573.34 341.31 M 584.64 336.03 638.26 149.36 M 638.87 147.25 640.52 141.49 M 640.52 141.49 631.49 138.91 M 631.49 138.91 629.84 144.66 M 565.48 332.83 563.83 338.59 M 563.83 338.59 572.96 341.2 M 572.96 341.2 574.61 335.45 M 619.72 144.05 566.09 330.72 M 565.48 332.83 563.83 338.59 M 575.22 333.34 628.85 146.66 M 629.45 144.55 631.11 138.8 M 631.11 138.8 621.98 136.19 M 621.98 136.19 620.32 141.94 M 556.06 330.14 554.41 335.89 M 554.41 335.89 563.45 338.48 M 563.45 338.48 565.1 332.72 M 610.3 141.36 556.67 328.03 M 556.06 330.14 554.41 335.89 M 565.7 330.61 619.33 143.94 M 619.94 141.83 621.59 136.08 M 621.59 136.08 612.56 133.49 M 612.56 133.49 610.9 139.25 M 546.55 327.41 544.9 333.17 M 544.9 333.17 554.03 335.78 M 554.03 335.78 555.68 330.03 M 600.78 138.63 547.16 325.3 M 546.55 327.41 544.9 333.17 M 556.29 327.92 609.91 141.25 M 610.52 139.14 612.17 133.38 M 612.17 133.38 603.04 130.77 M 603.04 130.77 601.39 136.52 M 537.13 324.72 535.48 330.47 M 535.48 330.47 544.51 333.06 M 544.51 333.06 546.17 327.3 M 591.37 135.94 537.74 322.61 M 537.13 324.72 535.48 330.47 M 546.77 325.19 600.4 138.52 M 601.01 136.41 602.66 130.66 M 602.66 130.66 593.63 128.07 M 593.63 128.07 591.97 133.83 M 527.62 322 525.96 327.75 M 525.96 327.75 535.09 330.36 M 535.09 330.36 536.75 324.61 M 581.85 133.21 528.22 319.88 M 527.62 322 525.96 327.75 M 537.35 322.5 590.98 135.83 M 591.59 133.72 593.24 127.96 M 593.24 127.96 584.11 125.35 M 584.11 125.35 582.46 131.1 M 528.93 316.35 519.8 313.74 M 519.8 313.74 571.44 133.97 M 571.44 133.97 580.57 136.58 M 580.57 136.58 528.93 316.35 M 519.41 313.63 510.38 311.04 M 510.38 311.04 562.02 131.28 M 562.02 131.28 571.06 133.86 M 571.06 133.86 519.41 313.63 M 499.27 313.88 497.61 319.64 M 497.61 319.64 506.74 322.25 M 506.74 322.25 508.4 316.49 M 553.5 125.1 499.87 311.77 M 499.27 313.88 497.61 319.64 M 509 314.38 562.63 127.71 M 563.24 125.6 564.89 119.85 M 564.89 119.85 555.76 117.23 M 555.76 117.23 554.11 122.99 M 489.85 311.19 488.2 316.94 M 488.2 316.94 497.23 319.53 M 497.23 319.53 498.88 313.77 M 544.08 122.4 490.46 309.08 M 489.85 311.19 488.2 316.94 M 499.49 311.66 553.12 124.99 M 553.72 122.88 555.38 117.12 M 555.38 117.12 546.34 114.54 M 546.34 114.54 544.69 120.29 M 480.33 308.46 478.68 314.22 M 478.68 314.22 487.81 316.83 M 487.81 316.83 489.46 311.08 M 534.57 119.68 480.94 306.35 M 480.33 308.46 478.68 314.22 M 490.07 308.96 543.7 122.29 M 544.3 120.18 545.96 114.43 M 545.96 114.43 536.83 111.81 M 536.83 111.81 535.17 117.57 M 470.92 305.77 469.26 311.52 M 469.26 311.52 478.39 314.14 M 478.39 314.14 480.05 308.38 M 525.15 116.99 471.52 303.66 M 470.92 305.77 469.26 311.52 M 480.65 306.27 534.28 119.6 M 534.89 117.49 536.54 111.73 M 536.54 111.73 527.41 109.12 M 527.41 109.12 525.76 114.87 M 461.5 303.07 459.84 308.83 M 459.84 308.83 468.88 311.41 M 468.88 311.41 470.53 305.66 M 515.73 114.29 462.1 300.96 M 461.5 303.07 459.84 308.83 M 471.14 303.55 524.77 116.88 M 525.37 114.76 527.02 109.01 M 527.02 109.01 517.99 106.42 M 517.99 106.42 516.34 112.18 M 451.98 300.35 450.33 306.1 M 450.33 306.1 459.46 308.72 M 459.46 308.72 461.11 302.96 M 506.22 111.57 452.59 298.24 M 451.98 300.35 450.33 306.1 M 461.72 300.85 515.35 114.18 M 515.95 112.07 517.61 106.31 M 517.61 106.31 508.48 103.7 M 508.48 103.7 506.82 109.46 M 453.2 294.67 444.16 292.09 M 444.16 292.09 495.81 112.32 M 495.81 112.32 504.84 114.91 M 504.84 114.91 453.2 294.67 M 443.78 291.98 434.65 289.37 M 434.65 289.37 486.29 109.6 M 486.29 109.6 495.42 112.21 M 495.42 112.21 443.78 291.98 M 423.63 292.23 421.98 297.99 M 421.98 297.99 431.01 300.57 M 431.01 300.57 432.67 294.82 M 477.87 103.45 424.24 290.12 M 423.63 292.23 421.98 297.99 M 433.27 292.71 486.9 106.04 M 487.51 103.93 489.16 98.17 M 489.16 98.17 480.13 95.59 M 480.13 95.59 478.47 101.34 M 414.21 289.54 412.56 295.29 M 412.56 295.29 421.6 297.88 M 421.6 297.88 423.25 292.12 M 468.45 100.76 414.82 287.43 M 414.21 289.54 412.56 295.29 M 423.85 290.01 477.48 103.34 M 478.09 101.23 479.74 95.48 M 479.74 95.48 470.71 92.89 M 470.71 92.89 469.05 98.65 M 404.7 286.81 403.05 292.57 M 403.05 292.57 412.18 295.18 M 412.18 295.18 413.83 289.43 M 458.93 98.03 405.31 284.7 M 404.7 286.81 403.05 292.57 M 414.44 287.32 468.06 100.65 M 468.67 98.54 470.32 92.78 M 470.32 92.78 461.19 90.17 M 461.19 90.17 459.54 95.92 M 395.28 284.12 393.63 289.87 M 393.63 289.87 402.66 292.46 M 402.66 292.46 404.32 286.7 M 449.52 95.34 395.89 282.01 M 395.28 284.12 393.63 289.87 M 404.92 284.59 458.55 97.92 M 459.16 95.81 460.81 90.06 M 460.81 90.06 451.78 87.47 M 451.78 87.47 450.12 93.23 M 385.77 281.4 384.11 287.15 M 384.11 287.15 393.24 289.76 M 393.24 289.76 394.9 284.01 M 440 92.61 386.37 279.29 M 385.77 281.4 384.11 287.15 M 395.5 281.9 449.13 95.23 M 449.74 93.12 451.39 87.36 M 451.39 87.36 442.26 84.75 M 442.26 84.75 440.61 90.5 M 376.35 278.7 374.7 284.46 M 374.7 284.46 383.73 287.04 M 383.73 287.04 385.38 281.29 M 430.58 89.92 376.96 276.59 M 376.35 278.7 374.7 284.46 M 385.99 279.18 439.62 92.5 M 440.22 90.39 441.88 84.64 M 441.88 84.64 432.84 82.05 M 432.84 82.05 431.19 87.81 M 370.1 263.52 419.79 90.57 M 419.79 90.57 410.66 87.95 M 410.66 87.95 359.02 267.72 M 359.02 267.72 368.15 270.33 M 347.97 270.68 346.35 276.34 M 346.35 276.34 355.38 278.93 M 355.38 278.93 357.34 272.12 M 402.23 81.8 348.61 268.48 M 404.49 73.94 402.84 79.69 M 357.34 272.12 411.27 84.39 M 411.87 82.28 413.53 76.52 M 413.53 76.52 404.49 73.94 M 404.49 73.94 402.84 79.69 M 338.46 267.96 336.83 273.62 M 336.83 273.62 345.96 276.23 M 345.96 276.23 401.85 81.69 M 392.72 79.08 339.09 265.75 M 394.98 71.22 393.32 76.97 M 348.22 268.37 401.85 81.69 M 402.45 79.58 404.11 73.83 M 404.11 73.83 394.98 71.22 M 394.98 71.22 393.32 76.97 M 329.04 265.26 327.41 270.92 M 327.41 270.92 336.45 273.51 M 336.45 273.51 392.33 78.97 M 383.3 76.39 329.67 263.06 M 385.56 68.52 383.91 74.28 M 338.71 265.64 392.33 78.97 M 392.94 76.86 394.59 71.11 M 394.59 71.11 385.56 68.52 M 385.56 68.52 383.91 74.28 M 319.52 262.54 317.9 268.2 M 317.9 268.2 327.03 270.81 M 327.03 270.81 382.92 76.28 M 373.79 73.66 320.16 260.33 M 376.04 65.8 374.39 71.55 M 329.29 262.95 382.92 76.28 M 383.52 74.17 385.17 68.41 M 385.17 68.41 376.04 65.8 M 376.04 65.8 374.39 71.55 M 310.11 259.84 308.48 265.5 M 308.48 265.5 317.61 268.12 M 317.61 268.12 373.5 73.58 M 364.37 70.97 310.74 257.64 M 366.63 63.1 364.97 68.86 M 319.87 260.25 373.5 73.58 M 374.1 71.47 375.76 65.71 M 375.76 65.71 366.63 63.1 M 366.63 63.1 364.97 68.86 M 300.69 257.15 299.06 262.81 M 299.06 262.81 308.1 265.39 M 308.1 265.39 363.98 70.86 M 354.95 68.27 333.87 141.65 M 301.02 256 299.06 262.81 M 310.36 257.53 363.98 70.86 M 364.59 68.75 366.24 62.99 M 366.24 62.99 357.21 60.41 M 357.21 60.41 355.56 66.16 M 283.38 246.07 292.42 248.66 M 294.37 241.85 320.41 151.2 M 322.34 144.48 313.31 141.9 M 313.31 141.9 283.38 246.07 M 292.8 248.77 301.93 251.38 M 301.93 251.38 331.86 147.2 M 331.86 147.2 322.73 144.59 M 320.8 151.31 294.76 241.96 M 272.24 249.01 270.62 254.67 M 270.62 254.67 279.75 257.28 M 279.75 257.28 281.37 251.62 M 282 249.41 313.94 138.24 M 304.81 135.62 272.88 246.8 M 314.55 136.13 316.2 130.37 M 316.2 130.37 307.07 127.76 M 307.07 127.76 305.42 133.51 M 262.82 246.31 261.2 251.97 M 261.2 251.97 270.23 254.56 M 270.23 254.56 271.86 248.9 M 272.49 246.69 304.43 135.51 M 295.4 132.93 263.46 244.11 M 305.04 133.4 306.69 127.65 M 306.69 127.65 297.66 125.06 M 297.66 125.06 296 130.82 M 253.4 243.62 251.78 249.28 M 251.78 249.28 260.81 251.86 M 260.81 251.86 262.44 246.2 M 263.07 244 295.01 132.82 M 285.98 130.23 254.04 241.41 M 295.62 130.71 297.27 124.95 M 297.27 124.95 288.24 122.37 M 288.24 122.37 286.58 128.12 M 243.89 240.89 242.26 246.55 M 242.26 246.55 251.39 249.17 M 251.39 249.17 253.02 243.51 M 253.65 241.3 285.59 130.12 M 276.46 127.51 244.52 238.69 M 286.2 128.01 287.85 122.26 M 287.85 122.26 278.72 119.64 M 278.72 119.64 277.07 125.4 M 234.47 238.2 232.85 243.86 M 232.85 243.86 241.88 246.44 M 241.88 246.44 243.51 240.78 M 244.14 238.58 276.08 127.4 M 267.05 124.81 235.11 235.99 M 276.69 125.29 278.34 119.53 M 278.34 119.53 269.3 116.95 M 269.3 116.95 267.65 122.7 M 224.96 235.47 223.33 241.13 M 223.33 241.13 232.46 243.75 M 232.46 243.75 234.09 238.09 M 234.72 235.88 266.66 124.7 M 257.53 122.09 225.59 233.27 M 267.27 122.59 268.92 116.84 M 268.92 116.84 259.79 114.22 M 259.79 114.22 258.14 119.98 M 207.75 224.42 216.78 227.01 M 218.74 220.2 246.71 122.83 M 237.67 120.25 207.75 224.42 M 217.17 227.12 226.2 229.7 M 226.2 229.7 256.13 125.53 M 247.09 122.94 219.12 220.31 M 256.13 125.53 255.84 125.45 M 196.63 227.26 194.98 233.02 M 194.98 233.02 204.11 235.63 M 204.11 235.63 205.76 229.88 M 206.37 227.77 238.31 116.59 M 229.18 113.98 197.24 225.15 M 238.92 114.48 240.57 108.72 M 240.57 108.72 231.44 106.11 M 231.44 106.11 229.79 111.87 M 187.22 224.57 185.56 230.32 M 185.56 230.32 194.6 232.91 M 194.6 232.91 196.25 227.15 M 196.86 225.04 228.8 113.87 M 219.76 111.28 187.82 222.46 M 229.4 111.76 231.06 106 M 231.06 106 222.02 103.41 M 222.02 103.41 220.37 109.17 M 177.7 221.85 176.05 227.6 M 176.05 227.6 185.18 230.21 M 185.18 230.21 186.83 224.46 M 187.44 222.35 219.38 111.17 M 210.25 108.56 178.31 219.73 M 219.98 109.06 221.64 103.3 M 221.64 103.3 212.51 100.69 M 212.51 100.69 210.85 106.45 M 168.28 219.15 166.63 224.91 M 166.63 224.91 175.66 227.49 M 175.66 227.49 177.32 221.74 M 177.92 219.62 209.86 108.45 M 200.83 105.86 168.89 217.04 M 210.47 106.34 212.12 100.58 M 212.12 100.58 203.09 98 M 203.09 98 201.44 103.75 M 158.87 216.45 157.21 222.21 M 157.21 222.21 166.25 224.8 M 166.25 224.8 167.9 219.04 M 168.51 216.93 200.44 105.75 M 191.41 103.17 159.47 214.34 M 201.05 103.64 202.7 97.89 M 202.7 97.89 193.67 95.3 M 193.67 95.3 192.02 101.06 M 149.35 213.73 147.7 219.49 M 147.7 219.49 156.83 222.1 M 156.83 222.1 158.48 216.34 M 159.09 214.23 191.03 103.06 M 181.9 100.44 149.96 211.62 M 191.63 100.95 193.29 95.19 M 193.29 95.19 184.16 92.58 M 184.16 92.58 182.5 98.33 M 138.95 216.98 147.31 219.38 M 147.31 219.38 148.97 213.62 M 182.12 98.22 183.77 92.47 M 138.09 216.74 138.12 216.64 M 183.77 92.47 175.41 90.07 M 173.3 89.47 165.22 87.16 M 165.22 87.16 163.57 92.91 M 162.96 95.02 131.02 206.2 M 130.42 208.31 128.77 214.07 M 128.77 214.07 136.84 216.38 M 181.51 100.33 149.57 211.51 M 326.11 135.7 334.47 138.09 M 334.47 138.09 353.57 71.61 M 353.57 71.61 345.21 69.22 M 333.26 143.77 301.02 256 M 368.53 270.44 377.56 273.03 M 377.56 273.03 429.21 93.26 M 429.21 93.26 420.17 90.68 M 420.17 90.68 370.49 263.63 M 352.67 489.31 66.66 407.45 M 352.67 489.31 396.07 338.22 M 396.07 338.22 660.93 414.03 M 744.38 123.57 660.93 414.03 M 171.82 41.4 66.66 407.45 M 294.45 76.49 171.82 41.4 M 294.45 76.49 316.14 1 M 316.14 1 744.38 123.57 M 237.22 318.4 238.24 314.85 M 238.24 314.85 212.97 307.62 M 212.97 307.62 211.95 311.17 M 266.21 322.86 238.24 314.85 M 238.24 314.85 237.25 318.31 M 213.94 399.46 241.9 407.46 M 236.62 320.51 215.54 393.9 M 211.34 313.28 190.26 386.66 M 215.54 393.9 236.62 320.51 M 214.93 396.01 213.94 399.46 M 189.66 388.77 188.66 392.22 M 188.66 392.22 213.94 399.46 M 213.94 399.46 214.93 396.01 M 212.97 307.62 140.51 286.88 M 140.51 286.88 116.2 371.49 M 116.2 371.49 188.66 392.22 M 286.39 287 352.9 306.04 M 279.17 312.14 345.68 331.17 M 271.92 337.36 338.43 356.4 M 275.34 325.47 294.41 259.09 M 339.23 353.62 338.43 356.4 M 337.48 57.77 338.09 57.43 M 337.01 59.4 339.73 57.89 M 336.51 61.13 341.46 58.39 M 336.02 62.85 337.28 62.07 M 337.28 62.07 343.19 58.88 M 335.55 64.48 339.01 62.57 M 339.01 62.57 344.82 59.35 M 335.05 66.21 340.74 63.06 M 340.74 63.06 346.55 59.85 M 336.56 66.75 342.47 63.56 M 348.28 60.34 346.21 61.41 M 346.21 61.41 342.47 63.56 M 338.29 67.24 344.1 64.03 M 349.92 60.81 345.71 63.14 M 345.71 63.14 344.1 64.03 M 340.02 67.74 345.24 64.77 M 351.65 61.31 345.83 64.52 M 345.83 64.52 345.24 64.77 M 341.66 68.2 344.75 66.49 M 353.38 61.8 347.56 65.02 M 347.56 65.02 344.75 66.49 M 343.39 68.7 344.25 68.22 M 355.01 62.27 349.2 65.48 M 349.2 65.48 344.25 68.22 M 345.12 69.19 350.93 65.98 M 350.93 65.98 355.5 63.45 M 346.75 69.66 352.66 66.47 M 352.66 66.47 355.01 65.17 M 348.48 70.16 354.29 66.94 M 354.29 66.94 354.54 66.8 M 350.21 70.65 354.04 68.53 M 351.84 71.12 353.55 70.26 M 640.19 144.1 640.44 143.96 M 639.72 145.73 642.07 144.43 M 639.23 147.46 643.8 144.92 M 638.73 149.18 639.72 148.63 M 645.53 145.42 644.57 145.87 M 644.57 145.87 639.72 148.63 M 638.26 150.81 641.35 149.1 M 647.26 145.91 644.08 147.6 M 644.08 147.6 641.35 149.1 M 637.77 152.54 643.08 149.6 M 648.9 146.38 643.58 149.32 M 643.58 149.32 643.08 149.6 M 637.27 154.27 643.11 150.95 M 648.92 147.74 644.81 150.09 M 644.81 150.09 643.11 150.95 M 636.8 155.9 642.61 152.68 M 648.43 149.47 646.45 150.56 M 646.45 150.56 642.61 152.68 M 636.31 157.62 642.12 154.41 M 642.12 154.41 647.96 151.1 M 635.81 159.35 641.65 156.04 M 641.65 156.04 647.46 152.82 M 635.34 160.98 641.15 157.77 M 641.15 157.77 646.97 154.55 M 635.71 162.23 640.66 159.49 M 640.66 159.49 646.5 156.18 M 637.44 162.72 640.19 161.12 M 640.19 161.12 646 157.91 M 639.17 163.22 639.69 162.85 M 639.69 162.85 645.51 159.63 M 640.8 163.69 645.01 161.36 M 642.53 164.18 644.54 162.99 M 588.58 323.77 588.8 323.73 M 588.08 325.49 590.43 324.19 M 587.58 327.22 592.16 324.69 M 587.12 328.85 592.93 325.64 M 592.93 325.64 593.89 325.18 M 586.62 330.58 592.43 327.36 M 592.43 327.36 595.52 325.65 M 586.12 332.3 591.96 328.99 M 591.96 328.99 597.25 326.15 M 585.66 333.93 591.47 330.72 M 591.47 330.72 597.28 327.5 M 585.16 335.66 590.97 332.45 M 590.97 332.45 596.78 329.23 M 584.66 337.39 584.81 337.22 M 596.32 330.86 590.5 334.08 M 590.5 334.08 584.81 337.22 M 584.2 339.02 586.54 337.72 M 595.82 332.59 590.01 335.8 M 590.01 335.8 586.54 337.72 M 583.7 340.75 588.27 338.21 M 595.32 334.31 589.51 337.53 M 589.51 337.53 588.27 338.21 M 584.07 341.99 589.04 339.16 M 594.85 335.94 589.91 338.68 M 589.91 338.68 589.04 339.16 M 585.8 342.49 588.55 340.89 M 594.36 337.67 591.64 339.18 M 591.64 339.18 588.55 340.89 M 587.43 342.96 588.05 342.61 M 593.86 339.4 593.37 339.67 M 593.37 339.67 588.05 342.61 M 589.16 343.45 593.39 341.03 M 590.89 343.95 592.9 342.76 M 169.52 93.58 171.34 92.65 M 169.02 95.3 172.98 93.11 M 168.55 96.93 170.38 96 M 174.71 93.61 172.98 94.57 M 172.98 94.57 170.38 96 M 168.06 98.66 172.01 96.47 M 176.44 94.1 172.48 96.29 M 172.48 96.29 172.01 96.47 M 169.29 99.43 172.01 97.92 M 176.34 95.53 173.74 96.97 M 173.74 96.97 172.01 97.92 M 171.02 99.93 171.52 99.65 M 175.84 97.26 175.47 97.46 M 175.47 97.46 171.52 99.65 M 172.75 100.42 175.38 98.89 M 174.38 100.89 174.88 100.61 M 136.89 207.15 139.09 206.02 M 136.39 208.88 140.82 206.51 M 135.9 210.61 138.12 209.37 M 142.45 206.98 140.35 208.14 M 140.35 208.14 138.12 209.37 M 135.43 212.24 139.76 209.84 M 144.18 207.48 139.85 209.87 M 139.85 209.87 139.76 209.84 M 137.13 212.83 139.36 211.6 M 143.71 209.11 141.49 210.34 M 141.49 210.34 139.36 211.6 M 138.76 213.3 138.89 213.23 M 143.22 210.83 138.89 213.23 M 140.49 213.79 142.72 212.56 M 142.22 214.29 142.25 214.19 M 244.5 398.45 263.59 331.97 M 98.93 375.47 115.16 366.41 M 55.71 296.04 114.9 263.04 M 4.15 213.39 94.13 374.1 M 94.13 374.1 98.93 375.47 M 4.15 213.39 5.45 205.25 M 65.39 171.84 72.69 174.66 M 55.71 296.04 53.95 302.18 M 114.9 263.04 123.21 264.9 M 42.48 273.67 41.44 279.81 M 102.76 240.16 110.71 242.53 M 30.58 250.64 29.39 258.4 M 89.03 218.06 97.35 218.78 M 20.04 226.86 17.51 237.14 M 77.04 195.01 86.91 200.11 M 498.01 103.2 492.82 101.71 M 435.97 299.61 435.34 301.81 M 322.15 430.43 317.8 445.59 M 345.35 64.38 349.71 49.23 M 419.79 90.57 370.1 263.52 M 321.47 151.5 319.36 150.89 M 319.36 150.89 321.29 144.18 M 321.29 144.18 323.4 144.78 M 323.4 144.78 321.47 151.5 M 65.39 171.84 66.84 171.12 M 68.35 170.2 69.72 169.45 M 69.72 169.45 70.84 171.33 M 71.66 172.81 72.69 174.66 M 5.45 205.25 3.97 206.07 M 2.48 206.89 1 207.71 M 1 207.71 2.17 209.81 M 3.08 211.32 4.15 213.39 M 94.13 374.1 95.84 377.18 M 95.84 377.18 98.93 375.47 M 162.11 340.19 164.59 338.83 M 164.59 338.83 163.05 336.21 M 162.11 340.19 162.44 339.04 M 162.84 337.29 163.05 336.21 M 72.69 174.66 137.15 289.86 M 42.48 273.67 102.76 240.16 M 30.58 250.64 89.03 218.06 M 20.04 226.86 77.04 195.01 M 5.45 205.25 65.39 171.84 M 215.32 236.45 269.67 323.85 M 288.74 257.47 196.25 302.83 M 115.16 366.41 162.11 340.19 M 137.15 289.86 163.05 336.21 M 311.77 427.46 312.06 429 M 312.06 429 312.57 430.49 M 312.57 430.49 313.29 431.94 M 313.29 431.94 314.17 433.23 M 314.17 433.23 315.2 434.36 M 315.2 434.36 316.38 435.32 M 316.38 435.32 317.68 436.21 M 317.68 436.21 319.17 436.84 M 236.04 405.79 236.33 407.32 M 236.33 407.32 236.77 408.69 M 236.77 408.69 237.52 410.05 M 237.52 410.05 238.3 411.31 M 238.3 411.31 239.3 412.53 M 239.3 412.53 240.48 413.49 M 240.48 413.49 241.69 414.36 M 241.69 414.36 243.05 415.06 M 243.05 415.06 244.47 415.57 M 244.47 415.57 245.93 415.88 M 245.93 415.88 247.46 416.01 M 247.46 416.01 248.94 415.91 M 248.94 415.91 250.45 415.72 M 250.45 415.72 251.95 415.22 M 251.95 415.22 253.28 414.56 M 253.28 414.56 254.64 413.81 M 254.64 413.81 255.74 412.88 M 255.74 412.88 256.8 411.73 M 160.41 384.14 160.7 385.67 M 160.7 385.67 161.2 387.17 M 161.2 387.17 161.93 388.62 M 161.93 388.62 162.81 389.91 M 162.81 389.91 163.84 391.04 M 163.84 391.04 165.02 392 M 165.02 392 166.32 392.89 M 166.32 392.89 167.8 393.52 M 205.45 305.57 205.16 304.03 M 205.16 304.03 204.65 302.54 M 204.65 302.54 203.92 301.09 M 203.92 301.09 203.05 299.8 M 203.05 299.8 202.02 298.67 M 202.02 298.67 200.84 297.71 M 200.84 297.71 199.53 296.82 M 199.53 296.82 198.05 296.19 M 271.57 317.23 269.98 316.98 M 269.98 316.98 268.4 317.05 M 268.4 317.05 266.89 317.24 M 266.89 317.24 265.42 317.65 M 265.42 317.65 263.99 318.28 M 263.99 318.28 262.6 319.13 M 262.6 319.13 261.38 320.12 M 261.38 320.12 260.32 321.27 M 506.91 321.67 507.44 323.07 M 507.44 323.07 508.1 324.4 M 508.1 324.4 509.01 325.6 M 509.01 325.6 510.04 326.72 M 510.04 326.72 511.22 327.68 M 511.22 327.68 512.45 328.45 M 512.45 328.45 513.84 329.06 M 513.84 329.06 515.25 329.56 M 515.25 329.56 516.72 329.88 M 516.72 329.88 518.18 329.88 M 518.18 329.88 519.66 329.79 M 519.66 329.79 521.2 329.5 M 521.2 329.5 522.57 329.06 M 522.57 329.06 523.9 328.41 M 523.9 328.41 525.2 327.53 M 525.2 327.53 526.3 326.6 M 259.46 115.38 259.02 114 M 259.02 114 258.39 112.58 M 258.39 112.58 257.61 111.32 M 257.61 111.32 256.68 110.22 M 256.68 110.22 255.52 109.16 M 255.52 109.16 254.32 108.3 M 254.32 108.3 253.08 107.53 M 253.08 107.53 251.67 107.02 M 251.67 107.02 250.2 106.7 M 250.2 106.7 248.7 106.48 M 248.7 106.48 247.25 106.48 M 247.25 106.48 245.74 106.67 M 245.74 106.67 244.27 107.08 M 244.27 107.08 242.86 107.61 M 242.86 107.61 241.6 108.4 M 241.6 108.4 240.4 109.3 M 325.83 128.35 324.56 128.09 M 324.56 128.09 323.2 128.12 M 323.2 128.12 321.9 128.26 M 321.9 128.26 320.59 128.51 M 320.59 128.51 319.43 128.91 M 319.43 128.91 318.22 129.5 M 318.22 129.5 317.11 130.11 M 317.11 130.11 316.04 130.95 M 356.78 61.53 356.44 60.19 M 356.44 60.19 355.75 58.95 M 355.75 58.95 355.07 57.72 M 355.07 57.72 354.23 56.65 M 354.23 56.65 353.18 55.62 M 353.18 55.62 352.09 54.68 M 352.09 54.68 350.92 54.04 M 350.92 54.04 349.63 53.46 M 508.15 104.85 507.71 103.48 M 507.71 103.48 507.08 102.05 M 507.08 102.05 506.3 100.79 M 506.3 100.79 505.36 99.7 M 505.36 99.7 504.21 98.64 M 504.21 98.64 503 97.77 M 503 97.77 501.77 97.01 M 501.77 97.01 500.35 96.5 M 500.35 96.5 498.88 96.18 M 498.88 96.18 497.39 95.96 M 497.39 95.96 495.93 95.96 M 495.93 95.96 494.42 96.15 M 494.42 96.15 492.95 96.56 M 492.95 96.56 491.55 97.09 M 491.55 97.09 490.29 97.87 M 490.29 97.87 489.09 98.77 M 583.78 126.5 583.34 125.13 M 583.34 125.13 582.71 123.7 M 582.71 123.7 581.93 122.44 M 581.93 122.44 581 121.34 M 581 121.34 579.84 120.29 M 579.84 120.29 578.64 119.42 M 578.64 119.42 577.4 118.65 M 577.4 118.65 575.99 118.14 M 575.99 118.14 574.52 117.83 M 574.52 117.83 573.02 117.61 M 573.02 117.61 571.57 117.61 M 571.57 117.61 570.06 117.8 M 570.06 117.8 568.59 118.21 M 568.59 118.21 567.18 118.74 M 567.18 118.74 565.92 119.52 M 565.92 119.52 564.72 120.42 M 432.51 83.2 432.07 81.83 M 432.07 81.83 431.44 80.41 M 431.44 80.41 430.66 79.15 M 430.66 79.15 429.73 78.05 M 429.73 78.05 428.58 76.99 M 428.58 76.99 427.37 76.13 M 427.37 76.13 426.13 75.36 M 426.13 75.36 424.72 74.85 M 424.72 74.85 423.25 74.53 M 423.25 74.53 421.75 74.31 M 421.75 74.31 420.3 74.31 M 420.3 74.31 418.79 74.5 M 418.79 74.5 417.32 74.91 M 417.32 74.91 415.92 75.44 M 415.92 75.44 414.65 76.22 M 414.65 76.22 413.46 77.13 M 431.27 300.03 431.81 301.43 M 431.81 301.43 432.47 302.76 M 432.47 302.76 433.37 303.95 M 433.37 303.95 434.4 305.07 M 434.4 305.07 435.58 306.03 M 435.58 306.03 436.82 306.8 M 436.82 306.8 438.2 307.41 M 438.2 307.41 439.62 307.92 M 439.62 307.92 441.09 308.23 M 441.09 308.23 442.54 308.23 M 442.54 308.23 444.03 308.14 M 444.03 308.14 445.56 307.85 M 445.56 307.85 446.94 307.42 M 446.94 307.42 448.27 306.76 M 448.27 306.76 449.56 305.88 M 449.56 305.88 450.66 304.95 M 359.36 283.91 360.11 284.54 M 360.11 284.54 360.92 284.98 M 360.92 284.98 361.73 285.42 M 361.73 285.42 362.57 285.76 M 364.68 286.37 366.08 286.56 M 366.08 286.56 367.51 286.66 M 367.51 286.66 368.93 286.44 M 368.93 286.44 370.27 286.1 M 370.27 286.1 371.55 285.63 M 371.55 285.63 372.79 284.95 M 372.79 284.95 374.02 284.26 M 374.02 284.26 375.03 283.31 M 333.81 62.22 333.64 63.52 M 333.64 63.52 333.54 64.95 M 333.54 64.95 333.69 66.24 M 333.69 66.24 334.03 67.58 M 334.03 67.58 334.5 68.86 M 334.5 68.86 335.09 70.06 M 335.09 70.06 335.8 71.2 M 335.8 71.2 336.64 72.27 M 336.64 72.27 337.6 73.27 M 337.6 73.27 338.61 74.08 M 338.61 74.08 339.88 74.75 M 339.88 74.75 341.07 75.3 M 347.52 52.86 346.22 52.69 M 346.22 52.69 344.79 52.59 M 344.79 52.59 343.5 52.74 M 343.5 52.74 342.15 53.09 M 342.15 53.09 340.87 53.55 M 340.87 53.55 339.66 54.14 M 339.66 54.14 338.52 54.85 M 338.52 54.85 337.45 55.69 M 337.45 55.69 336.45 56.64 M 336.45 56.64 335.64 57.66 M 335.64 57.66 334.96 58.92 M 334.96 58.92 334.41 60.11 M 169.92 394.13 171.51 394.37 M 171.51 394.37 173.09 394.31 M 173.09 394.31 174.6 394.12 M 174.6 394.12 176.07 393.71 M 176.07 393.71 177.5 393.08 M 177.5 393.08 178.89 392.23 M 178.89 392.23 180.11 391.23 M 180.11 391.23 181.17 390.08 M 347.3 338.9 346.41 338.75 M 346.41 338.75 345.49 338.7 M 345.49 338.7 344.57 338.64 M 344.57 338.64 343.59 338.78 M 346.68 362.08 348.21 361.8 M 348.21 361.8 349.71 361.29 M 349.71 361.29 351.04 360.63 M 351.04 360.63 352.34 359.76 M 352.34 359.76 353.56 358.76 M 353.56 358.76 354.55 357.48 M 354.55 357.48 355.42 356.28 M 355.42 356.28 356.05 354.8 M 356.05 354.8 356.56 353.39 M 356.56 353.39 356.9 351.82 M 356.9 351.82 356.93 350.28 M 356.93 350.28 356.84 348.8 M 356.84 348.8 356.45 347.23 M 356.45 347.23 355.95 345.74 M 355.95 345.74 355.29 344.41 M 355.29 344.41 354.41 343.12 M 354.41 343.12 353.29 341.97 M 353.29 341.97 352.13 340.91 M 352.13 340.91 350.8 340.11 M 350.8 340.11 349.42 339.51 M 276.9 319.69 276.14 319.06 M 276.14 319.06 275.33 318.62 M 275.33 318.62 274.52 318.18 M 274.52 318.18 273.69 317.83 M 195.94 295.58 194.34 295.33 M 194.34 295.33 192.77 295.4 M 192.77 295.4 191.25 295.59 M 191.25 295.59 189.78 296 M 189.78 296 188.36 296.63 M 188.36 296.63 186.97 297.48 M 186.97 297.48 185.75 298.48 M 185.75 298.48 184.69 299.63 M 334.99 428.09 335.24 426.5 M 335.24 426.5 335.18 424.92 M 335.18 424.92 334.99 423.41 M 334.99 423.41 334.57 421.94 M 334.57 421.94 333.94 420.52 M 333.94 420.52 333.09 419.13 M 333.09 419.13 332.09 417.91 M 332.09 417.91 330.94 416.86 M 321.28 437.45 322.58 437.61 M 322.58 437.61 324.01 437.71 M 324.01 437.71 325.3 437.56 M 325.3 437.56 326.65 437.22 M 326.65 437.22 327.93 436.76 M 327.93 436.76 329.14 436.17 M 329.14 436.17 330.28 435.46 M 330.28 435.46 331.35 434.62 M 331.35 434.62 332.35 433.66 M 332.35 433.66 333.16 432.65 M 333.16 432.65 333.84 431.39 M 333.84 431.39 334.39 430.2 M 204.28 235.06 204.74 236.33 M 204.74 236.33 205.36 237.44 M 205.36 237.44 206.07 238.58 M 206.07 238.58 206.84 239.53 M 206.84 239.53 207.83 240.43 M 207.83 240.43 208.84 241.24 M 208.84 241.24 209.98 241.98 M 209.98 241.98 211.2 242.44 M 279.91 256.7 280.38 257.98 M 280.38 257.98 280.99 259.09 M 280.99 259.09 281.71 260.23 M 281.71 260.23 282.47 261.18 M 282.47 261.18 283.46 262.08 M 283.46 262.08 284.48 262.89 M 284.48 262.89 285.62 263.63 M 285.62 263.63 286.84 264.09 M 213.32 243.04 214.72 243.24 M 214.72 243.24 216.15 243.33 M 216.15 243.33 217.56 243.12 M 217.56 243.12 218.91 242.77 M 218.91 242.77 220.19 242.31 M 220.19 242.31 221.42 241.63 M 221.42 241.63 222.66 240.94 M 222.66 240.94 223.66 239.98 M 288.95 264.69 289.85 264.84 M 289.85 264.84 290.77 264.9 M 290.77 264.9 291.69 264.95 M 291.69 264.95 292.66 264.82 M 657.54 143.46 634.86 136.97 M 657.54 143.46 656.77 146.14 M 634.86 136.97 634.09 139.65 M 597.88 351.14 575.19 344.64 M 597.88 351.14 598.62 348.55 M 575.19 344.64 575.94 342.05 M 263.04 333.89 260.31 343.39 M 267.56 335.18 264.83 344.68 M 260.07 327.22 202.6 310.77 M 202.6 310.77 203.2 308.66 M 203.2 308.66 260.67 325.11 M 260.67 325.11 260.07 327.22 M 326.02 135.67 323.9 135.07 M 323.9 135.07 343 68.59 M 343 68.59 345.12 69.19 M 345.12 69.19 326.02 135.67 M 364.59 68.75 366.24 62.99 M 364.37 70.97 308.48 265.5 M 374.1 71.47 375.76 65.71 M 373.79 73.66 317.9 268.2 M 383.3 76.39 327.41 270.92 M 383.52 74.17 385.17 68.41 M 392.72 79.08 336.83 273.62 M 392.94 76.86 394.59 71.11 M 402.45 79.58 404.11 73.83 M 402.23 81.8 346.35 276.34"/>
</g>
</svg>