<?xml version="1.0"?>
<svg xmlns="http://www.w3.org/2000/svg" version="1.2" baseProfile="tiny" width="800" height="506" viewBox="0 0 800 506" stroke-linecap="round" stroke-linejoin="round">
<g id="13" fill="none" stroke="black" stroke-width="1">
<path d="M 65.94 439.91 65.49 436.7 M 65.49 436.7 62.19 437.17 M 48.17 337.56 51.47 337.1 M 51.47 337.1 50.25 328.39 M 50.25 328.39 41.53 329.62 M 41.53 329.62 42.75 338.32 M 42.75 338.32 46.06 337.86 M 144.26 431.16 144.72 434.37 M 144.72 434.37 153.43 433.15 M 153.43 433.15 152.22 424.53 M 152.22 424.53 143.5 425.76 M 143.5 425.76 143.95 428.96 M 240.07 420.99 231.44 422.2 M 231.44 422.2 230.23 413.59 M 230.23 413.59 238.86 412.37 M 238.86 412.37 240.07 420.99 M 326.8 408.82 318.17 410.03 M 318.17 410.03 316.96 401.42 M 316.96 401.42 325.59 400.21 M 325.59 400.21 326.8 408.82 M 412.77 391.24 412.32 388.04 M 412.32 388.04 403.6 389.26 M 403.6 389.26 404.81 397.87 M 404.81 397.87 413.53 396.65 M 413.53 396.65 413.08 393.44 M 493.63 376.63 490.33 377.09 M 490.33 377.09 490.78 380.3 M 122.21 211.3 121.74 208.01 M 121.74 208.01 113.02 209.23 M 113.02 209.23 114.25 217.93 M 114.25 217.93 122.97 216.71 M 122.97 216.71 122.5 213.41 M 200.51 202.47 200.98 205.76 M 200.98 205.76 209.61 204.55 M 209.61 204.55 208.38 195.85 M 208.38 195.85 199.75 197.06 M 199.75 197.06 200.22 200.36 M 469.79 168.04 461.07 169.27 M 461.07 169.27 459.85 160.56 M 459.85 160.56 468.57 159.34 M 468.57 159.34 469.79 168.04 M 121.29 211.43 201.04 200.24 M 121.59 213.54 201.34 202.35 M 48.04 336.64 62.3 437.99 M 45.93 336.94 60.19 438.29 M 411.85 391.37 491.7 380.17 M 412.16 393.57 492.01 382.37 M 485.53 303.76 488.83 303.29 M 488.83 303.29 487.62 294.68 M 487.62 294.68 478.9 295.9 M 478.9 295.9 480.11 304.52 M 480.11 304.52 483.42 304.05 M 485.03 276.26 476.31 277.49 M 476.31 277.49 475.08 268.78 M 475.08 268.78 483.8 267.56 M 483.8 267.56 485.03 276.26 M 481.22 249.23 472.5 250.45 M 472.5 250.45 471.28 241.75 M 471.28 241.75 480 240.53 M 480 240.53 481.22 249.23 M 465.98 140.92 457.26 142.15 M 457.26 142.15 456.04 133.53 M 456.04 133.53 464.76 132.31 M 464.76 132.31 465.98 140.92 M 462.17 113.89 453.45 115.11 M 453.45 115.11 452.24 106.5 M 452.24 106.5 460.96 105.28 M 460.96 105.28 462.17 113.89 M 458.37 86.86 449.65 88.08 M 449.65 88.08 448.42 79.38 M 448.42 79.38 457.14 78.15 M 457.14 78.15 458.37 86.86 M 485.41 302.93 495.86 377.15 M 493.75 377.45 483.3 303.23 M 483.3 303.23 485.41 302.93 M 493.75 377.45 495.86 377.15 M 491.7 380.17 492.01 382.37 M 491.09 382.5 491.54 385.7 M 491.54 385.7 500.26 384.48 M 500.26 384.48 499.05 375.87 M 499.05 375.87 495.74 376.33 M 411.85 391.37 412.16 393.57 M 65.03 440.04 144.78 428.85 M 65.34 442.24 145.09 431.05 M 145.09 431.05 144.78 428.85 M 65.03 440.04 65.34 442.24 M 60.19 438.29 62.3 437.99 M 60.08 437.46 56.77 437.92 M 56.77 437.92 57.99 446.54 M 57.99 446.54 66.7 445.31 M 66.7 445.31 66.25 442.11 M 45.93 336.94 48.04 336.64 M 121.29 211.43 121.59 213.54 M 201.04 200.24 201.34 202.35 M 50.25 328.39 52.81 324.01 M 41.1 326.59 45.26 319.56 M 52.81 324.01 45.26 319.56 M 54.86 320.64 47.3 316.1 M 110.69 226.56 103.14 222.11 M 105.18 218.65 112.73 223.1 M 112.73 223.1 110.69 226.56 M 105.18 218.65 103.14 222.11 M 47.3 316.1 45.26 319.56 M 105.18 218.65 110.64 209.56 M 112.73 223.1 115.99 217.69 M 52.81 324.01 54.86 320.64 M 111.45 225.33 112.68 226.1 M 112.68 226.1 56.13 322.99 M 56.13 322.99 54.1 321.87 M 47.3 316.1 103.14 222.11 M 46.54 316.67 103.19 221.17 M 103.19 221.17 103.6 221.39 M 105.18 218.65 100.79 216.08 M 100.79 216.08 98.75 219.55 M 98.75 219.55 102.63 221.81 M 102.63 221.81 103.15 220.89 M 103.15 220.89 103.76 221.18 M 46.54 316.67 46.94 316.9 M 45.26 319.56 40.87 317 M 40.87 317 42.91 313.54 M 42.91 313.54 46.79 315.8 M 46.79 315.8 46.26 316.71 M 46.26 316.71 46.79 317.1 M 49.96 322.36 46.02 328.98 M 48.11 321.22 43.27 329.37 M 50.98 322.96 47.4 328.79 M 50.77 322.81 47.22 328.82 M 109.88 221.44 113.82 214.91 M 108.04 220.39 113.33 211.43 M 110.9 222.05 114.07 216.65 M 110.69 221.89 114.02 216.28 M 41.53 329.62 41.1 326.59 M 113.02 209.23 110.64 209.56 M 42.75 338.32 56.77 437.92 M 66.7 445.31 144.72 434.37 M 413.53 396.65 491.54 385.7 M 499.05 375.87 488.83 303.29 M 121.74 208.01 199.75 197.06 M 472.5 250.45 475.08 268.78 M 476.31 277.49 478.9 295.9 M 412.64 390.33 490.65 379.38 M 482.5 304.18 492.71 376.75 M 65.81 438.99 143.83 428.05 M 50.37 337.25 64.39 436.86 M 50.83 337.19 64.85 436.79 M 65.79 438.81 143.8 427.86 M 412.61 390.14 490.63 379.2 M 482.32 304.21 492.53 376.78 M 122.63 214.33 200.64 203.38 M 122.66 214.51 200.67 203.57 M 459.85 160.56 457.26 142.15 M 454.69 139.23 458.5 166.27 M 458.5 166.27 460.61 165.97 M 454.69 139.23 115.76 186.79 M 207.75 191.36 284.38 180.61 M 284.01 177.95 207.37 188.7 M 290.5 176.85 367.04 166.11 M 366.68 163.54 290.14 174.29 M 373.16 162.36 449.79 151.6 M 449.43 149.04 372.8 159.79 M 123.17 192.2 199.71 181.46 M 200.05 183.84 123.5 194.58 M 122.79 189.54 199.34 178.8 M 123.13 191.93 199.67 181.19 M 122.43 186.98 198.97 176.24 M 122.77 189.36 199.31 178.62 M 207.53 189.8 284.16 179.05 M 207.59 190.26 284.23 179.51 M 290.28 175.29 366.82 164.55 M 290.34 175.75 366.89 165.01 M 372.95 160.89 449.58 150.14 M 373 161.26 449.64 150.5 M 199.88 182.65 123.34 193.39 M 199.5 179.99 122.96 190.73 M 199.14 177.43 122.6 188.17 M 207.75 191.36 201.23 192.27 M 201.23 192.27 200.86 189.62 M 200.86 189.62 207.37 188.7 M 207.37 188.7 207.75 191.36 M 290.5 176.85 283.98 177.77 M 283.98 177.77 283.62 175.2 M 283.62 175.2 290.14 174.29 M 290.14 174.29 290.5 176.85 M 373.16 162.36 366.64 163.27 M 366.64 163.27 366.28 160.7 M 366.28 160.7 372.8 159.79 M 372.8 159.79 373.16 162.36 M 206.56 182.93 200.05 183.84 M 200.05 183.84 199.71 181.46 M 199.71 181.46 206.23 180.55 M 206.23 180.55 206.56 182.93 M 206.19 180.27 199.67 181.19 M 199.67 181.19 199.34 178.8 M 199.34 178.8 205.85 177.89 M 205.85 177.89 206.19 180.27 M 205.83 177.71 199.31 178.62 M 199.31 178.62 198.97 176.24 M 198.97 176.24 205.49 175.32 M 205.49 175.32 205.83 177.71 M 290.9 179.69 284.38 180.61 M 284.38 180.61 284.01 177.95 M 284.01 177.95 290.52 177.03 M 290.52 177.03 290.9 179.69 M 373.56 165.2 367.04 166.11 M 367.04 166.11 366.68 163.54 M 366.68 163.54 373.2 162.63 M 373.2 162.63 373.56 165.2 M 456.31 150.69 449.79 151.6 M 449.79 151.6 449.43 149.04 M 449.43 149.04 455.95 148.12 M 455.95 148.12 456.31 150.69 M 123.5 194.58 116.99 195.5 M 116.99 195.5 116.65 193.12 M 116.65 193.12 123.17 192.2 M 123.17 192.2 123.5 194.58 M 123.13 191.93 116.61 192.84 M 116.61 192.84 116.28 190.46 M 116.28 190.46 122.79 189.54 M 122.79 189.54 123.13 191.93 M 122.77 189.36 116.25 190.27 M 116.25 190.27 115.92 187.89 M 115.92 187.89 122.43 186.98 M 122.43 186.98 122.77 189.36 M 454.69 139.23 456.81 138.94 M 118.81 208.42 115.76 186.79 M 115.76 186.79 113.56 187.1 M 113.56 187.1 116.6 208.73 M 208.38 195.85 207.77 191.54 M 207.77 191.54 201.26 192.46 M 201.26 192.46 201.86 196.76 M 118.6 206.95 201.66 195.3 M 118.44 205.85 201.5 194.2 M 103.86 217.9 109.7 208.2 M 109.7 208.2 116.4 207.26 M 116.24 206.16 108.99 207.18 M 108.99 207.18 102.94 217.37 M 43.94 318.81 39.56 326.25 M 39.56 326.25 56.74 448.3 M 56.74 448.3 147.14 435.62 M 411.55 398.52 501.95 385.83 M 501.95 385.83 489.69 298.78 M 490.8 298.63 503.19 386.68 M 503.19 386.68 411.69 399.52 M 147.28 436.63 55.78 449.46 M 55.78 449.46 38.4 326.04 M 38.4 326.04 43.02 318.29 M 207.77 191.54 290.92 179.87 M 290.92 179.87 290.52 177.03 M 290.52 177.03 373.58 165.38 M 453.1 374.56 435.12 246.82 M 435.12 246.82 471.28 241.75 M 373.58 165.38 435.12 246.82 M 63.78 429.19 226.22 406.39 M 475.08 268.78 438.92 273.85 M 475.39 270.98 439.23 276.05 M 225.66 391.71 323.95 377.92 M 224.39 393.38 226.22 406.39 M 325.62 379.18 327.45 392.19 M 327.45 392.19 491.46 369.17 M 225.67 391.8 225.31 391.94 M 225.31 391.94 224.96 392.09 M 224.96 392.09 224.71 392.31 M 224.71 392.31 224.57 392.61 M 224.57 392.61 224.53 392.99 M 224.53 392.99 224.48 393.37 M 325.53 379.19 325.39 378.84 M 325.39 378.84 325.24 378.48 M 325.24 378.48 325.02 378.23 M 325.02 378.23 324.63 378.1 M 324.63 378.1 324.34 378.05 M 324.34 378.05 323.96 378.01 M 201.04 190.9 117.98 202.55 M 207.17 187.24 117.59 199.8 M 206.77 184.39 117.19 196.96 M 156.99 427.13 152.67 427.74 M 152.67 427.74 152.36 425.54 M 152.36 425.54 156.68 424.93 M 156.68 424.93 156.99 427.13 M 230.68 416.79 226.37 417.4 M 226.37 417.4 226.06 415.2 M 226.06 415.2 230.37 414.59 M 230.37 414.59 230.68 416.79 M 156.83 426.03 226.22 416.3 M 156.68 424.93 226.06 415.2 M 226.37 417.4 156.99 427.13 M 151.84 437.76 147.52 438.37 M 147.52 438.37 146.92 434.06 M 146.92 434.06 151.23 433.45 M 151.23 433.45 151.84 437.76 M 238.57 425.59 234.16 426.21 M 234.16 426.21 233.56 421.9 M 233.56 421.9 237.96 421.28 M 237.96 421.28 238.57 425.59 M 325.2 413.43 320.89 414.04 M 320.89 414.04 320.28 409.73 M 320.28 409.73 324.6 409.13 M 324.6 409.13 325.2 413.43 M 411.93 401.26 407.62 401.87 M 407.62 401.87 407.01 397.56 M 407.01 397.56 411.33 396.96 M 411.33 396.96 411.93 401.26 M 157.32 434.84 151.54 435.65 M 151.54 435.65 151.23 433.45 M 151.23 433.45 157.01 432.64 M 157.01 432.64 157.32 434.84 M 233.86 424.1 228.08 424.91 M 228.08 424.91 227.77 422.71 M 227.77 422.71 233.56 421.9 M 233.56 421.9 233.86 424.1 M 227.88 423.45 157.12 433.38 M 227.97 424.09 157.21 434.02 M 157.01 432.64 227.77 422.71 M 228.08 424.91 157.32 434.84 M 151.84 437.76 234.16 426.21 M 152.22 424.53 230.23 413.59 M 243.72 414.96 239.31 415.58 M 239.31 415.58 239 413.38 M 239 413.38 243.41 412.76 M 243.41 412.76 243.72 414.96 M 317.41 404.62 313.01 405.24 M 313.01 405.24 312.7 403.04 M 312.7 403.04 317.1 402.42 M 317.1 402.42 317.41 404.62 M 243.56 413.86 312.85 404.14 M 243.41 412.76 312.7 403.04 M 313.01 405.24 243.72 414.96 M 244.05 422.67 238.27 423.48 M 238.27 423.48 237.96 421.28 M 237.96 421.28 243.74 420.47 M 243.74 420.47 244.05 422.67 M 320.59 411.93 314.81 412.74 M 314.81 412.74 314.5 410.54 M 314.5 410.54 320.28 409.73 M 320.28 409.73 320.59 411.93 M 314.61 411.28 243.85 421.21 M 314.7 411.92 243.94 421.85 M 243.74 420.47 314.5 410.54 M 314.81 412.74 244.05 422.67 M 238.57 425.59 320.89 414.04 M 238.86 412.37 316.96 401.42 M 330.35 402.81 326.04 403.41 M 326.04 403.41 325.73 401.21 M 325.73 401.21 330.04 400.61 M 330.04 400.61 330.35 402.81 M 404.05 392.47 399.74 393.07 M 399.74 393.07 399.43 390.87 M 399.43 390.87 403.74 390.27 M 403.74 390.27 404.05 392.47 M 330.2 401.71 399.58 391.97 M 330.04 400.61 399.43 390.87 M 399.74 393.07 330.35 402.81 M 330.69 410.52 324.91 411.33 M 324.91 411.33 324.6 409.13 M 324.6 409.13 330.38 408.32 M 330.38 408.32 330.69 410.52 M 407.32 399.76 401.54 400.57 M 401.54 400.57 401.23 398.37 M 401.23 398.37 407.01 397.56 M 407.01 397.56 407.32 399.76 M 401.34 399.11 330.48 409.05 M 401.43 399.75 330.57 409.69 M 330.38 408.32 401.23 398.37 M 401.54 400.57 330.69 410.52 M 325.2 413.43 407.62 401.87 M 325.59 400.21 403.6 389.26 M 487.62 294.68 488.23 298.99 M 488.23 298.99 492.54 298.38 M 492.54 298.38 491.93 294.07 M 491.93 294.07 488.26 294.59 M 203.23 216.47 123.76 227.63 M 123.76 227.63 123.45 225.43 M 123.45 225.43 202.93 214.27 M 202.93 214.27 203.23 216.47 M 198.92 210.44 126.14 220.66 M 126.14 220.66 125.56 225.13 M 200.72 214.58 198.92 210.44 M 133.67 219.6 132.75 213.09 M 191.49 211.49 190.57 204.98 M 137.98 219 137.22 213.59 M 187.08 212.11 186.32 206.7 M 186.32 206.7 137.22 213.59 M 50.56 330.59 56.7 329.73 M 58.29 331 71.95 428.04 M 58.29 331 58.14 330.65 M 58.14 330.65 58 330.29 M 58 330.29 57.78 330.05 M 57.78 330.05 57.39 329.91 M 57.39 329.91 57.1 329.86 M 57.1 329.86 56.72 329.82 M 481.86 249.14 485.54 248.63 M 485.54 248.63 484.31 239.92 M 484.31 239.92 480 240.53 M 480 240.53 487.62 294.68 M 481.5 248.54 488.08 295.27 M 488.08 295.27 487.71 295.32 M 488.26 294.59 488.4 295.6 M 488.4 295.6 487.76 295.69 M 481.5 248.54 481.13 248.59 M 481.86 249.14 481.71 248.04 M 481.71 248.04 481.07 248.13 M 477.5 160.33 468.88 161.54 M 477.32 166.99 474.47 167.39 M 474.47 167.39 473.56 160.88 M 473.56 160.88 476.4 160.48 M 476.4 160.48 477.32 166.99 M 488.44 245.98 485.59 246.37 M 485.59 246.37 484.68 239.87 M 484.68 239.87 487.52 239.47 M 487.52 239.47 488.44 245.98 M 486.33 239.64 476.13 167.16 M 485.87 239.7 475.67 167.22 M 477.32 166.99 487.52 239.47 M 484.68 239.87 474.47 167.39 M 497.26 318.65 487.06 246.17 M 477.5 160.33 501.57 331.31 M 501.57 331.31 495.52 332.16 M 468.57 159.34 465.98 140.92 M 464.76 132.31 462.17 113.89 M 460.96 105.28 458.37 86.86 M 449.65 88.08 452.24 106.5 M 453.45 115.11 456.04 133.53 M 456.44 138.99 437.95 7.68 M 222.28 37.94 223.47 37.78 M 225.12 37.55 226.68 37.33 M 228.34 37.09 229.53 36.93 M 430.7 8.7 431.9 8.53 M 433.55 8.3 435.2 8.07 M 436.76 7.85 437.95 7.68 M 114.29 187 109.31 151.63 M 109.31 151.63 110.51 151.46 M 112.16 151.23 113.72 151.01 M 115.37 150.78 116.56 150.61 M 121.54 185.98 116.56 150.61 M 240.76 169.25 222.28 37.94 M 248.01 168.24 229.53 36.93 M 449.19 140.01 430.7 8.7 M 457.14 78.15 448.77 18.68 M 446.28 1 177.46 38.72 M 209 200.25 381.63 176.02 M 113.73 221.56 133.55 218.78 M 110.42 229.96 392.45 190.39 M 105.37 238.62 397.86 197.57 M 100.32 247.27 403.36 204.74 M 95.26 255.92 408.77 211.93 M 90.21 264.57 414.18 219.11 M 85.16 273.22 419.59 226.29 M 80.1 281.87 425.09 233.47 M 75.05 290.53 430.5 240.65 M 70 299.18 435.27 247.92 M 64.95 307.83 436.37 255.71 M 59.89 316.48 437.46 263.5 M 51.9 325.54 438.56 271.29 M 58.51 332.56 439.66 279.08 M 59.6 340.35 440.75 286.87 M 60.7 348.14 441.85 294.65 M 61.8 355.93 442.95 302.44 M 62.89 363.71 444.04 310.23 M 63.99 371.5 445.14 318.02 M 65.09 379.29 446.24 325.81 M 66.18 387.08 447.33 333.6 M 67.28 394.87 448.43 341.39 M 68.37 402.66 449.52 349.18 M 69.47 410.45 450.62 356.96 M 70.58 418.33 224.86 396.68 M 71.68 426.12 225.95 404.47 M 327.18 390.26 452.83 372.63 M 326.09 382.47 451.73 364.84 M 137.87 218.17 186.97 211.28 M 191.37 210.66 387.04 183.21 M 447.49 9.61 178.68 47.33 M 456.17 8.77 170.01 48.92 M 457.4 17.47 171.24 57.63 M 448.82 19.05 180.01 56.77 M 451.31 36.74 182.49 74.46 M 451.36 37.1 182.55 74.82 M 452.57 45.72 183.76 83.44 M 452.63 46.08 183.81 83.8 M 453.85 54.79 185.04 92.51 M 453.89 55.06 185.07 92.78 M 455.12 63.77 186.3 101.49 M 455.17 64.13 186.35 101.85 M 456.38 72.75 187.56 110.47 M 456.43 73.11 187.62 110.83 M 448.94 83.04 188.84 119.54 M 448.99 83.41 188.89 119.91 M 450.2 92.02 190.11 128.52 M 450.25 92.39 190.16 128.89 M 451.48 101.09 191.38 137.59 M 451.53 101.46 191.43 137.96 M 452.74 110.07 109.5 158.24 M 452.79 110.44 109.55 158.6 M 454.01 119.05 110.76 167.22 M 454.06 119.42 110.81 167.58 M 455.28 128.13 112.04 176.29 M 455.34 128.49 112.09 176.66 M 456.55 137.11 113.3 185.27 M 113.56 187.1 108.28 149.62 M 108.28 149.62 191.43 137.96 M 191.43 137.96 179.95 56.4 M 170.01 48.92 171.24 57.63 M 178.73 47.7 177.46 38.72 M 456.17 8.77 457.4 17.47 M 447.54 9.98 446.28 1 M 26.5 505.43 546.78 432.43 M 119.63 124.49 496 71.67 M 1 324.28 26.5 505.43 M 496 71.67 546.78 432.43 M 1 324.28 119.63 124.49 M 597.49 122.47 588.77 123.69 M 588.77 123.69 587.56 115.08 M 587.56 115.08 596.28 113.85 M 596.28 113.85 597.49 122.47 M 728.92 104.03 720.29 105.24 M 720.29 105.24 719.08 96.62 M 719.08 96.62 727.7 95.41 M 727.7 95.41 728.92 104.03 M 741.11 190.62 732.48 191.83 M 732.48 191.83 731.27 183.22 M 731.27 183.22 739.89 182 M 739.89 182 741.11 190.62 M 607.66 194.67 598.94 195.9 M 598.94 195.9 597.71 187.19 M 597.71 187.19 606.43 185.97 M 606.43 185.97 607.66 194.67 M 753.3 277.21 744.67 278.42 M 744.67 278.42 743.46 269.81 M 743.46 269.81 752.08 268.6 M 752.08 268.6 753.3 277.21 M 621.87 295.65 613.15 296.88 M 613.15 296.88 611.94 288.26 M 611.94 288.26 620.66 287.04 M 620.66 287.04 621.87 295.65 M 627.97 338.99 619.25 340.22 M 619.25 340.22 618.03 331.51 M 618.03 331.51 626.75 330.29 M 626.75 330.29 627.97 338.99 M 613.15 296.88 618.03 331.51 M 626.75 330.29 621.87 295.65 M 611.11 288.38 618.43 340.33 M 628.8 338.88 621.48 286.92 M 609.33 287.04 617.07 342.02 M 630.56 340.12 622.82 285.15 M 608.08 286.09 616.13 343.27 M 631.73 341.08 623.68 283.9 M 618.43 340.33 628.8 338.88 M 617.07 342.02 630.56 340.12 M 616.13 343.27 631.73 341.08 M 611.11 288.38 621.48 286.92 M 609.33 287.04 622.82 285.15 M 608.08 286.09 623.68 283.9 M 623.35 110.06 719.08 96.62 M 728.92 104.03 741.34 192.27 M 742.39 193.06 728.51 94.46 M 744.1 194.59 729.51 90.95 M 745.37 195.63 730.46 89.7 M 728.51 94.46 623.24 109.23 M 729.51 90.95 622.77 105.93 M 730.46 89.7 622.62 104.83 M 588.77 123.69 589.59 129.46 M 598.3 197.39 596.98 187.95 M 596.94 198.98 595.42 188.17 M 595.98 200.14 594.22 187.68 M 722.49 104.93 733.47 182.91 M 721.58 105.06 732.55 183.04 M 721.39 105.08 732.37 183.06 M 583.36 110.53 464.05 127.27 M 584.58 119.14 465.27 135.88 M 584.63 119.51 465.32 136.25 M 585.85 128.21 466.54 144.95 M 585.91 128.58 466.59 145.32 M 587.12 137.19 467.81 153.93 M 587.17 137.56 467.86 154.3 M 588.39 146.26 477.71 161.79 M 588.45 146.63 477.76 162.16 M 589.66 155.24 478.98 170.77 M 589.71 155.61 479.03 171.14 M 590.92 164.22 480.24 179.75 M 590.97 164.59 480.29 180.12 M 592.2 173.29 481.52 188.83 M 592.25 173.66 481.57 189.19 M 593.46 182.27 482.78 197.81 M 593.52 182.64 482.83 198.17 M 594.74 191.35 484.06 206.88 M 594.79 191.71 484.11 207.24 M 594.74 191.35 484.06 206.88 M 594.79 191.71 484.11 207.24 M 745.48 197.76 487.86 233.91 M 745.53 198.13 487.91 234.28 M 746.74 206.74 489.13 242.89 M 746.8 207.11 489.18 243.26 M 746.74 206.74 489.13 242.89 M 746.8 207.11 489.18 243.26 M 748.02 215.81 490.4 251.96 M 748.07 216.18 490.45 252.33 M 749.29 224.79 491.67 260.94 M 749.34 225.16 491.72 261.31 M 750.56 233.86 492.94 270.01 M 750.61 234.23 493 270.38 M 751.83 242.84 494.21 278.99 M 751.88 243.21 494.26 279.36 M 751.83 242.84 494.21 278.99 M 751.88 243.21 494.26 279.36 M 753.1 251.91 495.49 288.06 M 753.16 252.28 495.54 288.43 M 754.37 260.89 496.75 297.04 M 754.42 261.26 496.8 297.41 M 755.63 269.87 752.33 270.34 M 755.68 270.24 752.38 270.7 M 625.58 297.37 756.91 278.95 M 756.91 278.95 745.18 195.65 M 743.75 271.92 624.35 288.67 M 743.7 271.55 624.3 288.3 M 609.97 299.56 499.29 315.09 M 608.7 290.49 498.01 306.02 M 608.75 290.86 498.07 306.39 M 757.05 41.96 799 339.94 M 502.47 381.55 799 339.94 M 457.95 83.93 757.05 41.96 M 471.45 242.94 472.56 241.57 M 471.63 244.22 473.76 241.4 M 471.81 245.51 475.04 241.22 M 471.99 246.79 476.33 241.04 M 472.17 248.07 477.61 240.86 M 472.35 249.35 478.89 240.68 M 472.78 250.42 480.02 240.71 M 480.02 240.71 480.18 240.5 M 473.97 250.25 480.2 241.99 M 480.2 241.99 481.46 240.32 M 475.26 250.07 480.38 243.27 M 480.38 243.27 482.75 240.14 M 476.54 249.89 480.56 244.56 M 480.56 244.56 484.03 239.96 M 477.83 249.71 480.74 245.84 M 480.74 245.84 484.45 240.93 M 479.11 249.53 480.92 247.12 M 480.92 247.12 484.63 242.21 M 480.4 249.35 481.11 248.41 M 481.34 248.09 484.81 243.49 M 481.84 248.96 484.99 244.78 M 482.97 248.99 485.17 246.06 M 484.25 248.81 485.35 247.34 M 485.54 248.63 485.52 248.53 M 475.22 269.79 476.09 268.64 M 475.4 271.07 477.29 268.47 M 475.59 272.35 478.57 268.29 M 475.77 273.64 479.85 268.11 M 475.93 274.83 481.14 267.93 M 476.11 276.11 482.42 267.75 M 476.29 277.39 483.71 267.57 M 477.5 277.32 483.98 268.84 M 478.79 277.14 484.16 270.12 M 480.07 276.96 484.34 271.41 M 481.36 276.78 484.51 272.6 M 482.64 276.6 484.69 273.88 M 483.93 276.42 484.87 275.16 M 478.99 296.54 479.63 295.8 M 479.17 297.83 480.83 295.63 M 479.35 299.11 482.11 295.45 M 479.53 300.39 483.4 295.27 M 479.71 301.68 484.68 295.09 M 479.89 302.96 485.97 294.91 M 480.07 304.24 487.25 294.73 M 481.12 304.38 487.75 295.6 M 488.3 294.86 488.54 294.55 M 482.32 304.21 487.93 296.88 M 487.93 296.88 489.82 294.37 M 484.4 303.07 488.11 298.16 M 488.11 298.16 491.11 294.19 M 485.44 303.12 488.29 299.44 M 488.68 298.92 492 294.53 M 486.17 303.67 488.47 300.73 M 489.88 298.75 492.16 295.72 M 487.46 303.49 488.65 302.01 M 491.16 298.57 492.35 297.01 M 488.74 303.31 488.83 303.29 M 492.45 298.39 492.53 298.29 M 490.48 378.19 491.52 376.92 M 490.66 379.47 492.81 376.74 M 491.24 380.23 493.68 376.99 M 491.81 380.99 494.57 377.33 M 491.21 383.32 491.92 382.38 M 496.57 376.21 495.86 377.15 M 495.86 377.15 491.99 382.27 M 491.39 384.6 497.85 376.03 M 491.72 385.68 499.06 375.96 M 493.01 385.5 499.24 377.24 M 494.2 385.33 499.42 378.52 M 495.49 385.15 499.6 379.81 M 496.77 384.97 499.78 381.09 M 498.06 384.79 499.96 382.37 M 499.34 384.61 500.13 383.56 M 454.75 139.6 454.97 139.2 M 454.93 140.88 456.25 139.02 M 455.11 142.17 456.91 139.67 M 455.29 143.45 457.09 140.95 M 455.46 144.64 457.27 142.24 M 455.64 145.92 457.45 143.52 M 455.82 147.21 457.63 144.8 M 456 148.49 457.81 146.09 M 456.18 149.77 457.98 147.28 M 456.36 151.05 458.16 148.56 M 456.54 152.34 458.34 149.84 M 456.72 153.62 458.52 151.13 M 456.9 154.9 458.7 152.41 M 457.08 156.19 458.88 153.69 M 457.26 157.47 459.06 154.97 M 457.44 158.75 459.24 156.26 M 457.61 159.94 459.42 157.54 M 457.79 161.23 459.6 158.82 M 457.97 162.51 459.78 160.1 M 458.15 163.79 459.97 161.39 M 458.33 165.07 460.15 162.67 M 458.5 166.27 460.31 163.86 M 459.78 166.09 460.49 165.14 M 113.61 187.47 113.93 187.05 M 113.79 188.75 115.21 186.87 M 113.97 190.03 115.86 187.53 M 114.15 191.32 116.05 188.81 M 114.32 192.51 116.23 190.09 M 114.5 193.79 116.41 191.37 M 114.68 195.07 116.59 192.66 M 114.86 196.36 116.77 193.94 M 115.04 197.64 116.95 195.22 M 115.22 198.92 117.12 196.41 M 115.4 200.21 117.3 197.7 M 115.58 201.49 117.48 198.98 M 115.76 202.77 117.66 200.26 M 115.95 204.05 117.84 201.55 M 113.05 209.41 113.21 209.2 M 116.13 205.34 118.02 202.83 M 113.23 210.7 114.49 209.02 M 116.31 206.62 118.2 204.11 M 113.41 211.98 115.78 208.84 M 116.49 207.9 118.38 205.39 M 113.59 213.26 117.06 208.66 M 117.06 208.66 118.56 206.68 M 113.77 214.54 118.35 208.48 M 118.35 208.48 118.74 207.96 M 113.95 215.83 119.54 208.31 M 114.13 217.11 120.82 208.13 M 114.71 217.87 121.81 208.46 M 115.99 217.69 121.99 209.75 M 117.28 217.51 121.37 211.98 M 122.17 211.03 121.93 211.34 M 121.93 211.34 121.37 211.98 M 118.56 217.33 121.55 213.27 M 121.55 213.27 123.22 211.16 M 119.76 217.16 122.53 213.6 M 122.6 213.4 124.41 211 M 121.04 216.98 122.71 214.88 M 123.88 213.22 125.69 210.82 M 122.33 216.8 122.89 216.16 M 125.17 213.04 126.98 210.63 M 126.45 212.86 128.26 210.45 M 127.73 212.68 129.55 210.27 M 128.93 212.51 130.83 210.09 M 130.21 212.33 132.12 209.91 M 131.5 212.15 133.4 209.73 M 132.78 211.97 134.69 209.55 M 134.07 211.79 135.97 209.37 M 135.35 211.61 137.26 209.19 M 136.64 211.43 138.54 209.01 M 137.92 211.25 139.83 208.83 M 139.21 211.07 141.02 208.66 M 140.49 210.89 142.31 208.48 M 141.78 210.71 143.59 208.3 M 143.06 210.53 144.88 208.12 M 144.25 210.36 146.16 207.94 M 145.54 210.18 147.45 207.76 M 146.82 210 148.73 207.58 M 148.11 209.82 150.02 207.4 M 149.39 209.64 151.3 207.22 M 150.68 209.46 152.59 207.04 M 151.96 209.28 153.87 206.86 M 153.25 209.1 155.15 206.68 M 154.53 208.92 156.35 206.51 M 155.82 208.74 157.63 206.33 M 157.1 208.56 158.92 206.15 M 158.39 208.38 160.2 205.97 M 159.58 208.21 161.49 205.79 M 160.87 208.03 162.77 205.61 M 162.15 207.85 164.06 205.43 M 163.44 207.67 165.34 205.25 M 164.72 207.49 166.63 205.07 M 166.01 207.31 167.91 204.89 M 167.29 207.13 169.2 204.71 M 168.58 206.95 170.48 204.53 M 169.86 206.77 171.67 204.36 M 171.15 206.59 172.96 204.18 M 172.43 206.41 174.24 204 M 173.72 206.23 175.53 203.82 M 175 206.05 176.81 203.64 M 176.19 205.88 178.1 203.46 M 177.48 205.7 179.38 203.28 M 178.76 205.52 180.67 203.1 M 180.05 205.34 181.95 202.92 M 181.33 205.16 183.24 202.74 M 182.62 204.98 184.52 202.56 M 183.9 204.8 185.81 202.38 M 185.19 204.62 187 202.21 M 186.47 204.44 188.29 202.03 M 187.76 204.26 189.57 201.85 M 189.04 204.08 190.86 201.67 M 190.33 203.9 192.14 201.49 M 191.52 203.73 193.43 201.31 M 192.8 203.55 194.71 201.13 M 194.09 203.37 196 200.95 M 201.43 193.65 202.54 192.28 M 195.37 203.19 197.28 200.77 M 201.61 194.93 203.74 192.11 M 199.8 197.43 200.03 197.02 M 196.66 203.01 198.57 200.59 M 201.79 196.21 205.02 191.93 M 199.99 198.71 201.31 196.84 M 197.94 202.83 199.85 200.41 M 206.31 191.75 202.6 196.66 M 202.6 196.66 200.17 199.99 M 199.23 202.65 201.04 200.24 M 207.59 191.57 203.88 196.48 M 203.88 196.48 201.04 200.24 M 200.51 202.47 200.5 202.37 M 205.17 196.3 207.93 192.64 M 200.51 202.47 201.22 201.53 M 201.22 201.53 205.17 196.3 M 200.69 203.75 206.45 196.12 M 206.45 196.12 208.11 193.92 M 200.88 205.03 207.74 195.94 M 207.74 195.94 208.29 195.21 M 201.53 205.69 208.47 196.49 M 202.81 205.51 208.65 197.77 M 204.1 205.33 208.82 198.96 M 205.38 205.15 209 200.25 M 206.67 204.97 209.18 201.53 M 207.95 204.79 209.36 202.81 M 209.24 204.61 209.54 204.1 M 99.42 218.33 101.09 216.23 M 99.46 219.92 101.81 216.69 M 100.18 220.38 102.63 217.14 M 100.99 220.82 103.44 217.58 M 101.8 221.27 104.26 218.12 M 102.63 221.81 102.71 221.7 M 103.25 220.88 104.98 218.58 M 103.35 222.27 105.79 219.03 M 104.16 222.71 106.6 219.47 M 104.97 223.16 107.42 219.92 M 111.52 214.49 113.41 211.98 M 105.69 223.62 108.15 220.47 M 108.15 220.47 113.59 213.26 M 106.51 224.16 108.96 220.92 M 108.96 220.92 113.77 214.54 M 107.33 224.61 109.77 221.37 M 109.77 221.37 110.8 220.01 M 108.14 225.05 110.49 221.83 M 108.86 225.51 111.3 222.27 M 109.67 225.96 112.13 222.81 M 110.49 226.5 111.82 224.63 M 40.97 316.99 43.42 313.84 M 41.79 317.52 44.24 314.29 M 42.6 317.97 44.96 314.74 M 43.32 318.43 45.77 315.19 M 44.13 318.88 46.58 315.64 M 44.95 319.33 46.68 317.03 M 47.32 316.28 47.4 316.18 M 45.68 319.88 48.12 316.64 M 46.49 320.32 48.94 317.08 M 47.3 320.77 49.75 317.53 M 41.57 329.89 41.71 329.59 M 48.11 321.22 50.47 317.99 M 41.75 331.17 43 329.41 M 51.29 318.53 48.83 321.68 M 48.83 321.68 44.11 328.04 M 41.91 332.36 44.28 329.23 M 52.1 318.97 49.66 322.21 M 49.66 322.21 44.28 329.23 M 42.09 333.65 45.57 329.05 M 50.47 322.66 52.91 319.42 M 45.57 329.05 47.63 326.42 M 42.28 334.93 46.85 328.87 M 51.28 323.11 53.63 319.88 M 42.46 336.21 48.14 328.69 M 52 323.57 54.45 320.33 M 42.64 337.5 49.42 328.51 M 52.81 324.01 52.9 324 M 43.21 338.26 50.32 328.94 M 44.5 338.08 50.49 330.13 M 45.78 337.9 46.02 337.58 M 46.57 336.85 50.67 331.42 M 47.86 336.67 50.85 332.7 M 48.35 337.54 51.03 333.98 M 49.64 337.36 51.21 335.26 M 50.92 337.17 51.39 336.55 M 46.02 337.58 46.57 336.85 M 46.2 338.87 47.86 336.67 M 46.38 340.15 48.19 337.74 M 46.56 341.43 48.37 339.03 M 46.74 342.71 48.54 340.22 M 46.92 344 48.72 341.5 M 47.1 345.28 48.9 342.78 M 47.28 346.56 49.08 344.07 M 47.46 347.85 49.26 345.35 M 47.64 349.13 49.44 346.63 M 47.82 350.41 49.63 347.92 M 48 351.69 49.81 349.2 M 48.17 352.89 49.99 350.48 M 48.35 354.17 50.17 351.76 M 48.53 355.45 50.35 353.05 M 48.71 356.73 50.53 354.33 M 48.89 358.02 50.71 355.61 M 49.07 359.3 50.88 356.8 M 49.26 360.58 51.06 358.09 M 49.44 361.86 51.24 359.37 M 49.62 363.15 51.42 360.65 M 49.8 364.43 51.6 361.94 M 49.98 365.71 51.78 363.22 M 50.16 367 51.96 364.5 M 50.34 368.28 52.14 365.78 M 50.51 369.47 52.32 367.07 M 50.69 370.75 52.5 368.35 M 50.87 372.04 52.68 369.63 M 51.05 373.32 52.86 370.92 M 51.23 374.6 53.03 372.11 M 51.41 375.88 53.21 373.39 M 51.59 377.17 53.39 374.67 M 51.77 378.45 53.57 375.95 M 51.95 379.73 53.75 377.24 M 52.13 381.02 53.93 378.52 M 52.31 382.3 54.11 379.8 M 52.49 383.58 54.29 381.09 M 52.66 384.77 54.47 382.37 M 52.84 386.06 54.66 383.65 M 53.02 387.34 54.84 384.93 M 53.2 388.62 55.02 386.22 M 53.38 389.9 55.2 387.5 M 53.56 391.19 55.36 388.69 M 53.74 392.47 55.55 389.97 M 53.92 393.75 55.73 391.26 M 54.11 395.04 55.91 392.54 M 54.29 396.32 56.09 393.82 M 54.47 397.6 56.27 395.11 M 54.65 398.88 56.45 396.39 M 54.81 400.08 56.63 397.67 M 55 401.36 56.81 398.95 M 55.18 402.64 56.99 400.24 M 55.36 403.92 57.17 401.52 M 55.54 405.21 57.35 402.8 M 55.72 406.49 57.52 403.99 M 55.9 407.77 57.7 405.28 M 56.08 409.06 57.88 406.56 M 56.26 410.34 58.06 407.84 M 56.44 411.62 58.24 409.13 M 56.62 412.9 58.42 410.41 M 56.8 414.19 58.6 411.69 M 56.98 415.47 58.78 412.97 M 57.15 416.66 58.96 414.26 M 57.33 417.94 59.14 415.54 M 57.51 419.23 59.32 416.82 M 57.69 420.51 59.51 418.11 M 57.87 421.79 59.69 419.39 M 58.05 423.08 59.85 420.58 M 58.23 424.36 60.03 421.86 M 58.41 425.64 60.21 423.15 M 58.59 426.92 60.4 424.43 M 58.77 428.21 60.58 425.71 M 58.96 429.49 60.76 426.99 M 59.14 430.77 60.94 428.28 M 59.3 431.96 61.12 429.56 M 59.48 433.25 61.3 430.84 M 56.82 438.29 57.23 437.86 M 59.66 434.53 61.48 432.13 M 57.01 439.57 58.43 437.69 M 59.85 435.81 61.66 433.41 M 57.19 440.86 59.71 437.51 M 60.03 437.09 61.84 434.69 M 57.37 442.14 60.29 438.27 M 60.29 438.27 62.01 435.88 M 57.53 443.33 61.57 438.09 M 62.28 437.15 62.19 437.17 M 62.19 437.17 61.57 438.09 M 57.71 444.61 63.56 436.97 M 57.9 445.9 64.85 436.79 M 58.63 446.45 65.58 437.34 M 59.91 446.27 65.76 438.63 M 61.2 446.09 65.14 440.86 M 65.94 439.91 65.85 439.92 M 65.85 439.92 65.14 440.86 M 62.48 445.91 65.32 442.14 M 65.32 442.14 67.14 439.74 M 63.77 445.73 66.29 442.38 M 66.62 442.06 68.42 439.56 M 65.05 445.55 66.47 443.67 M 67.81 441.89 69.71 439.38 M 66.34 445.37 66.65 444.95 M 69.1 441.71 70.99 439.2 M 70.38 441.53 72.28 439.02 M 71.67 441.35 73.56 438.84 M 72.95 441.17 74.85 438.66 M 74.24 440.99 76.13 438.48 M 75.52 440.81 77.42 438.3 M 76.81 440.63 78.7 438.12 M 78.09 440.45 79.89 437.95 M 79.38 440.27 81.18 437.77 M 80.66 440.09 82.46 437.59 M 81.95 439.91 83.75 437.41 M 83.14 439.74 85.03 437.23 M 84.43 439.56 86.32 437.05 M 85.71 439.38 87.6 436.87 M 86.99 439.2 88.89 436.69 M 88.28 439.02 90.17 436.51 M 89.56 438.84 91.46 436.33 M 90.85 438.66 92.74 436.15 M 92.13 438.48 94.03 435.97 M 93.42 438.3 95.22 435.8 M 94.7 438.12 96.51 435.62 M 95.99 437.94 97.79 435.44 M 97.27 437.75 99.08 435.26 M 98.56 437.57 100.36 435.08 M 99.75 437.41 101.64 434.9 M 101.04 437.23 102.93 434.72 M 102.32 437.05 104.21 434.54 M 103.61 436.87 105.5 434.36 M 104.89 436.69 106.78 434.18 M 106.18 436.51 108.07 434 M 107.46 436.33 109.35 433.82 M 108.75 436.15 110.55 433.65 M 110.03 435.96 111.83 433.47 M 111.32 435.78 113.12 433.29 M 112.6 435.6 114.4 433.11 M 113.89 435.42 115.69 432.93 M 115.08 435.26 116.97 432.75 M 116.36 435.08 118.26 432.57 M 117.65 434.9 119.54 432.39 M 118.93 434.72 120.83 432.21 M 120.22 434.54 122.11 432.03 M 121.5 434.36 123.4 431.85 M 122.79 434.17 124.68 431.67 M 124.07 433.99 125.87 431.5 M 125.36 433.81 127.16 431.32 M 126.64 433.63 128.44 431.14 M 127.93 433.45 129.73 430.96 M 129.21 433.27 131.01 430.78 M 130.41 433.11 132.3 430.6 M 131.69 432.93 133.58 430.42 M 132.98 432.75 134.87 430.24 M 134.26 432.57 136.15 430.06 M 135.54 432.38 137.44 429.88 M 136.83 432.2 138.72 429.7 M 138.11 432.02 140.01 429.52 M 139.4 431.84 141.2 429.35 M 143.57 426.21 144.05 425.68 M 140.68 431.66 142.49 429.17 M 143.75 427.5 145.34 425.5 M 141.97 431.48 143.77 428.99 M 143.93 428.78 146.62 425.32 M 143.25 431.3 144.82 429.12 M 144.82 429.12 147.91 425.14 M 144.29 431.34 144.54 431.12 M 149.19 424.96 145 430.4 M 145 430.4 144.54 431.12 M 144.47 432.63 150.48 424.78 M 144.65 433.91 151.67 424.61 M 145.54 434.25 152.32 425.26 M 146.83 434.07 152.51 426.55 M 147.09 435.25 148.11 433.89 M 148.11 433.89 152.69 427.83 M 147.27 436.53 149.4 433.71 M 149.4 433.71 152.87 429.11 M 147.45 437.82 150.68 433.53 M 150.68 433.53 153.05 430.4 M 148.17 438.28 151.33 434.19 M 151.87 433.36 153.23 431.68 M 149.45 438.1 151.5 435.38 M 153.16 433.18 153.41 432.96 M 150.74 437.92 151.68 436.66 M 230.32 414.23 230.87 413.5 M 230.5 415.51 232.16 413.31 M 230.68 416.79 233.44 413.13 M 230.86 418.08 234.73 412.95 M 231.04 419.36 236.01 412.77 M 231.23 420.64 237.3 412.59 M 231.41 421.92 238.58 412.41 M 232.36 422.07 238.99 413.29 M 233.57 421.99 233.65 421.89 M 233.65 421.89 239.17 414.57 M 233.75 423.28 234.93 421.71 M 234.93 421.71 239.35 415.86 M 233.93 424.56 236.22 421.53 M 236.22 421.53 239.53 417.14 M 234.11 425.84 237.5 421.35 M 237.5 421.35 239.71 418.42 M 235.08 426.08 238.08 422.11 M 238.79 421.17 239.89 419.71 M 236.36 425.9 238.26 423.39 M 240.07 420.99 240.06 420.9 M 237.56 425.73 238.44 424.67 M 317.08 402.24 317.79 401.3 M 317.26 403.52 319.07 401.12 M 317.44 404.81 320.36 400.94 M 317.61 406 321.64 400.76 M 317.79 407.28 322.84 400.59 M 317.97 408.56 324.12 400.41 M 318.15 409.85 325.4 400.23 M 319.28 409.87 325.74 401.3 M 320.31 409.92 320.56 409.69 M 320.56 409.69 325.92 402.59 M 320.49 411.2 321.85 409.51 M 321.85 409.51 326.09 403.78 M 320.67 412.48 323.04 409.35 M 323.04 409.35 326.27 405.06 M 320.85 413.76 324.32 409.17 M 324.32 409.17 326.45 406.34 M 321.9 413.9 324.74 410.14 M 325.61 408.99 326.63 407.63 M 323.19 413.72 324.92 411.42 M 324.47 413.54 325.1 412.7 M 403.73 390.18 404.61 389.12 M 403.91 391.46 405.89 388.94 M 404.09 392.74 407.18 388.76 M 404.27 394.02 408.46 388.58 M 404.45 395.31 409.75 388.4 M 404.63 396.59 411.03 388.22 M 404.81 397.87 412.32 388.04 M 406.1 397.69 412.49 389.23 M 407.07 397.93 407.38 397.51 M 412.04 391.35 412.67 390.51 M 407.38 397.51 411.88 391.55 M 411.88 391.55 412.04 391.35 M 407.25 399.21 408.67 397.33 M 413.32 391.17 412.06 392.84 M 412.06 392.84 408.67 397.33 M 407.43 400.5 409.95 397.15 M 414.6 390.98 412.71 393.49 M 412.71 393.49 409.95 397.15 M 407.61 401.78 411.24 396.97 M 414 393.31 415.89 390.8 M 411.24 396.97 413.21 394.36 M 408.72 401.72 411.48 398.06 M 415.28 393.13 417.17 390.62 M 412.52 396.79 413.39 395.64 M 410.01 401.54 411.66 399.34 M 416.57 392.95 418.46 390.44 M 411.29 401.35 411.84 400.62 M 417.85 392.77 419.74 390.26 M 419.14 392.59 421.03 390.08 M 420.42 392.41 422.22 389.92 M 421.71 392.23 423.51 389.74 M 422.99 392.05 424.79 389.56 M 424.28 391.87 426.08 389.38 M 425.47 391.7 427.36 389.19 M 426.75 391.52 428.65 389.01 M 428.04 391.34 429.93 388.83 M 429.32 391.16 431.22 388.65 M 430.61 390.98 432.5 388.47 M 431.89 390.8 433.79 388.29 M 433.18 390.62 435.07 388.11 M 434.46 390.44 436.36 387.93 M 435.75 390.26 437.55 387.77 M 437.03 390.08 438.83 387.59 M 438.32 389.9 440.12 387.4 M 439.6 389.72 441.4 387.22 M 440.8 389.55 442.69 387.04 M 442.08 389.37 443.97 386.86 M 443.37 389.19 445.26 386.68 M 444.65 389.01 446.54 386.5 M 445.94 388.83 447.83 386.32 M 447.22 388.65 449.11 386.14 M 448.5 388.47 450.4 385.96 M 449.79 388.29 451.68 385.78 M 451.07 388.11 452.88 385.61 M 452.36 387.93 454.16 385.43 M 453.64 387.75 455.45 385.25 M 454.93 387.57 456.73 385.07 M 456.21 387.39 458.02 384.89 M 457.41 387.22 459.3 384.71 M 458.69 387.04 460.59 384.53 M 459.98 386.86 461.87 384.35 M 461.26 386.68 463.16 384.17 M 462.55 386.5 464.44 383.99 M 463.83 386.32 465.72 383.81 M 465.12 386.14 467.01 383.63 M 466.4 385.96 468.2 383.46 M 467.69 385.78 469.49 383.28 M 468.97 385.6 470.77 383.1 M 470.26 385.42 472.06 382.92 M 471.54 385.24 473.34 382.74 M 472.73 385.07 474.63 382.56 M 474.02 384.89 475.91 382.38 M 475.3 384.71 477.2 382.2 M 476.59 384.53 478.48 382.02 M 477.87 384.35 479.77 381.84 M 479.16 384.17 481.05 381.66 M 480.44 383.99 482.34 381.48 M 481.73 383.81 483.53 381.31 M 483.01 383.63 484.81 381.13 M 484.3 383.45 486.1 380.95 M 485.58 383.27 487.38 380.77 M 486.87 383.09 488.67 380.59 M 488.06 382.92 489.95 380.41 M 489.35 382.74 491.24 380.23 M 490.63 382.56 491.81 380.99 M 491.92 382.38 491.99 382.27 M 483.46 304.33 484.4 303.07 M 483.64 305.61 485.44 303.12 M 483.82 306.89 485.62 304.4 M 484 308.18 485.8 305.68 M 484.18 309.46 485.98 306.96 M 484.36 310.74 486.16 308.25 M 484.53 311.93 486.34 309.53 M 484.71 313.22 486.52 310.81 M 484.89 314.5 486.7 312.1 M 485.07 315.78 486.88 313.38 M 485.25 317.06 487.06 314.66 M 485.43 318.35 487.23 315.85 M 485.61 319.63 487.41 317.14 M 485.79 320.91 487.59 318.42 M 485.97 322.2 487.77 319.7 M 486.15 323.48 487.95 320.98 M 486.33 324.76 488.13 322.27 M 486.51 326.04 488.31 323.55 M 486.68 327.24 488.49 324.83 M 486.86 328.52 488.67 326.12 M 487.04 329.8 488.86 327.4 M 487.22 331.08 489.04 328.68 M 487.4 332.37 489.22 329.96 M 487.58 333.65 489.38 331.15 M 487.76 334.93 489.56 332.44 M 487.94 336.22 489.75 333.72 M 488.12 337.5 489.93 335 M 488.31 338.78 490.11 336.29 M 488.49 340.06 490.29 337.57 M 488.67 341.35 490.47 338.85 M 488.85 342.63 490.65 340.13 M 489.01 343.82 490.83 341.42 M 489.2 345.1 491.01 342.7 M 489.38 346.39 491.19 343.98 M 489.56 347.67 491.37 345.27 M 489.74 348.95 491.55 346.55 M 489.92 350.24 491.72 347.74 M 490.1 351.52 491.9 349.02 M 490.28 352.8 492.08 350.31 M 490.46 354.08 492.26 351.59 M 490.64 355.37 492.44 352.87 M 490.82 356.65 492.62 354.15 M 491 357.93 492.8 355.44 M 491.17 359.12 492.98 356.72 M 491.35 360.41 493.16 358 M 491.53 361.69 493.34 359.29 M 491.71 362.97 493.52 360.57 M 491.89 364.26 493.71 361.85 M 492.07 365.54 493.87 363.04 M 492.25 366.82 494.05 364.33 M 492.43 368.1 494.23 365.61 M 492.61 369.39 494.41 366.89 M 492.79 370.67 494.6 368.17 M 492.97 371.95 494.78 369.46 M 493.16 373.24 494.96 370.74 M 493.34 374.52 495.14 372.02 M 493.5 375.71 495.32 373.31 M 493.68 376.99 495.5 374.59 M 494.57 377.33 495.68 375.87 M 495.86 377.15 495.85 377.06 M 413.21 394.36 414 393.31 M 413.39 395.64 415.28 393.13 M 413.81 396.61 416.57 392.95 M 415.09 396.43 417.85 392.77 M 416.28 396.26 419.14 392.59 M 485.62 304.4 486.17 303.67 M 417.57 396.08 420.42 392.41 M 485.8 305.68 487.46 303.49 M 418.85 395.9 421.71 392.23 M 485.98 306.96 488.74 303.31 M 420.14 395.72 422.99 392.05 M 486.16 308.25 489 304.48 M 421.42 395.54 424.28 391.87 M 486.34 309.53 489.18 305.77 M 422.71 395.36 425.47 391.7 M 486.52 310.81 489.36 307.05 M 423.99 395.18 426.75 391.52 M 486.7 312.1 489.54 308.33 M 425.28 395 428.04 391.34 M 486.88 313.38 489.72 309.62 M 426.56 394.82 429.32 391.16 M 487.06 314.66 489.9 310.9 M 427.85 394.64 430.61 390.98 M 487.23 315.85 490.08 312.18 M 429.13 394.46 431.89 390.8 M 487.41 317.14 490.26 313.46 M 430.42 394.28 433.18 390.62 M 487.59 318.42 490.44 314.75 M 431.61 394.11 434.46 390.44 M 487.77 319.7 490.62 316.03 M 432.9 393.93 435.75 390.26 M 487.95 320.98 490.81 317.31 M 434.18 393.75 437.03 390.08 M 488.13 322.27 490.99 318.6 M 435.47 393.57 438.32 389.9 M 488.31 323.55 491.17 319.88 M 436.75 393.39 439.6 389.72 M 488.49 324.83 491.33 321.07 M 438.03 393.21 440.8 389.55 M 488.67 326.12 491.51 322.35 M 439.32 393.03 442.08 389.37 M 488.86 327.4 491.7 323.64 M 440.6 392.85 443.37 389.19 M 489.04 328.68 491.88 324.92 M 441.89 392.67 444.65 389.01 M 489.22 329.96 492.06 326.2 M 443.17 392.49 445.94 388.83 M 489.38 331.15 492.24 327.48 M 444.46 392.31 447.22 388.65 M 489.56 332.44 492.42 328.77 M 445.74 392.13 448.5 388.47 M 489.75 333.72 492.6 330.05 M 446.94 391.96 449.79 388.29 M 489.93 335 492.78 331.33 M 448.22 391.78 451.07 388.11 M 490.11 336.29 492.96 332.62 M 449.51 391.6 452.36 387.93 M 490.29 337.57 493.14 333.9 M 450.79 391.42 453.64 387.75 M 490.47 338.85 493.32 335.18 M 452.08 391.24 454.93 387.57 M 490.65 340.13 493.49 336.37 M 453.36 391.06 456.21 387.39 M 490.83 341.42 493.67 337.66 M 454.65 390.88 457.41 387.22 M 491.01 342.7 493.85 338.94 M 455.93 390.7 458.69 387.04 M 491.19 343.98 494.03 340.22 M 457.22 390.52 459.98 386.86 M 491.37 345.27 494.21 341.5 M 458.5 390.34 461.26 386.68 M 491.55 346.55 494.39 342.79 M 459.79 390.16 462.55 386.5 M 491.72 347.74 494.57 344.07 M 461.07 389.98 463.83 386.32 M 491.9 349.02 494.75 345.35 M 462.36 389.8 465.12 386.14 M 492.08 350.31 494.93 346.64 M 463.55 389.63 466.4 385.96 M 492.26 351.59 495.11 347.92 M 464.83 389.45 467.69 385.78 M 492.44 352.87 495.29 349.2 M 466.12 389.27 468.97 385.6 M 492.62 354.15 495.47 350.48 M 467.4 389.09 470.26 385.42 M 492.8 355.44 495.66 351.77 M 468.69 388.91 471.54 385.24 M 492.98 356.72 495.82 352.96 M 469.97 388.73 472.73 385.07 M 493.16 358 496 354.24 M 471.26 388.55 474.02 384.89 M 493.34 359.29 496.18 355.52 M 472.54 388.37 475.3 384.71 M 493.52 360.57 496.36 356.81 M 473.83 388.19 476.59 384.53 M 493.71 361.85 496.55 358.09 M 475.11 388.01 477.87 384.35 M 493.87 363.04 496.73 359.37 M 476.4 387.83 479.16 384.17 M 494.05 364.33 496.91 360.65 M 477.68 387.65 480.44 383.99 M 494.23 365.61 497.09 361.94 M 478.88 387.48 481.73 383.81 M 494.41 366.89 497.27 363.22 M 480.16 387.3 483.01 383.63 M 494.6 368.17 497.45 364.5 M 481.45 387.12 484.3 383.45 M 494.78 369.46 497.63 365.79 M 482.73 386.94 485.58 383.27 M 494.96 370.74 497.81 367.07 M 484.02 386.76 486.87 383.09 M 495.14 372.02 497.98 368.26 M 485.3 386.58 488.06 382.92 M 495.32 373.31 498.16 369.54 M 486.58 386.4 489.35 382.74 M 495.5 374.59 498.34 370.83 M 487.87 386.22 490.63 382.56 M 495.68 375.87 498.52 372.11 M 489.15 386.04 491.21 383.32 M 496.57 376.21 498.7 373.39 M 490.44 385.86 491.39 384.6 M 497.85 376.03 498.88 374.67 M 414.08 396.57 413.44 396.01 M 415.37 396.39 413.27 394.82 M 416.65 396.21 413.09 393.53 M 417.94 396.03 414.27 393.27 M 419.22 395.85 415.56 393.09 M 420.51 395.67 416.84 392.91 M 421.79 395.49 418.03 392.75 M 423.08 395.31 419.32 392.57 M 424.36 395.13 420.6 392.39 M 425.64 394.95 421.89 392.21 M 426.93 394.77 423.17 392.03 M 428.12 394.6 424.46 391.84 M 429.41 394.42 425.74 391.66 M 430.69 394.24 427.03 391.48 M 431.98 394.06 428.31 391.3 M 433.26 393.88 429.6 391.12 M 434.55 393.7 430.88 390.94 M 435.83 393.52 432.17 390.76 M 437.12 393.34 433.36 390.6 M 438.4 393.16 434.65 390.42 M 439.69 392.98 435.93 390.24 M 440.97 392.8 437.22 390.05 M 442.26 392.62 438.5 389.87 M 443.45 392.45 439.79 389.69 M 444.73 392.27 441.07 389.51 M 446.02 392.09 442.36 389.33 M 447.3 391.91 443.64 389.15 M 448.59 391.73 444.93 388.97 M 449.87 391.55 446.21 388.79 M 451.16 391.37 447.5 388.61 M 452.44 391.19 448.69 388.45 M 453.73 391.01 449.97 388.26 M 455.01 390.83 451.26 388.08 M 456.3 390.65 452.54 387.9 M 457.58 390.47 453.83 387.72 M 458.87 390.29 455.11 387.54 M 460.06 390.12 456.4 387.36 M 461.35 389.94 457.68 387.18 M 462.63 389.76 458.97 387 M 463.92 389.58 460.25 386.82 M 465.2 389.4 461.54 386.64 M 466.49 389.22 462.82 386.46 M 467.77 389.04 464.11 386.28 M 469.06 388.86 465.3 386.11 M 470.34 388.68 466.58 385.93 M 471.63 388.5 467.87 385.75 M 472.91 388.32 469.15 385.57 M 474.2 388.14 470.44 385.39 M 475.39 387.97 471.72 385.21 M 476.67 387.79 473.01 385.03 M 477.96 387.61 474.29 384.85 M 479.24 387.43 475.58 384.67 M 480.53 387.25 476.86 384.49 M 481.81 387.07 478.15 384.31 M 483.1 386.89 479.43 384.13 M 484.38 386.71 480.63 383.96 M 485.67 386.53 481.91 383.78 M 486.95 386.35 483.2 383.6 M 488.24 386.17 484.48 383.42 M 489.52 385.99 485.77 383.24 M 490.71 385.82 487.05 383.06 M 491.48 385.24 488.34 382.88 M 491.3 383.96 489.62 382.7 M 491.12 382.68 490.91 382.52 M 496.2 376.26 495.68 375.87 M 497.49 376.08 495.5 374.59 M 498.77 375.9 495.32 373.31 M 498.89 374.77 495.14 372.02 M 498.71 373.48 494.96 370.74 M 498.54 372.29 494.78 369.46 M 498.36 371.01 494.6 368.17 M 498.18 369.73 494.41 366.89 M 498 368.44 494.23 365.61 M 497.82 367.16 494.05 364.33 M 497.64 365.88 493.87 363.04 M 497.46 364.59 493.71 361.85 M 497.28 363.31 493.52 360.57 M 497.1 362.03 493.34 359.29 M 496.92 360.75 493.16 358 M 496.74 359.46 492.98 356.72 M 496.56 358.18 492.8 355.44 M 496.38 356.9 492.62 354.15 M 496.21 355.71 492.44 352.87 M 496.03 354.42 492.26 351.59 M 495.85 353.14 492.08 350.31 M 495.67 351.86 491.9 349.02 M 495.49 350.58 491.72 347.74 M 495.31 349.29 491.55 346.55 M 495.13 348.01 491.37 345.27 M 494.95 346.73 491.19 343.98 M 494.77 345.44 491.01 342.7 M 494.58 344.16 490.83 341.42 M 494.4 342.88 490.65 340.13 M 494.22 341.6 490.47 338.85 M 494.06 340.4 490.29 337.57 M 493.88 339.12 490.11 336.29 M 493.69 337.84 489.93 335 M 493.51 336.56 489.75 333.72 M 493.33 335.27 489.56 332.44 M 493.15 333.99 489.4 331.25 M 492.97 332.71 489.22 329.96 M 492.79 331.42 489.04 328.68 M 492.61 330.14 488.86 327.4 M 492.43 328.86 488.67 326.12 M 492.25 327.58 488.49 324.83 M 492.07 326.29 488.31 323.55 M 491.9 325.1 488.13 322.27 M 491.72 323.82 487.95 320.98 M 491.54 322.54 487.77 319.7 M 491.36 321.25 487.59 318.42 M 491.18 319.97 487.41 317.14 M 491 318.69 487.23 315.85 M 490.82 317.4 487.06 314.66 M 490.64 316.12 486.88 313.38 M 490.46 314.84 486.7 312.1 M 490.28 313.56 486.52 310.81 M 490.1 312.27 486.34 309.53 M 489.92 310.99 486.16 308.25 M 489.73 309.71 485.98 306.96 M 489.57 308.52 485.8 305.68 M 489.39 307.23 485.62 304.4 M 489.21 305.95 486.17 303.67 M 489.03 304.67 487.46 303.49 M 488.84 303.38 488.74 303.31 M 43.08 323.33 45.68 319.88 M 41.2 327.33 46.49 320.32 M 41.39 328.61 47.3 320.77 M 41.71 329.59 48.11 321.22 M 43 329.41 44.11 328.04 M 42.82 338.78 43.21 338.26 M 43 340.06 44.5 338.08 M 43.18 341.34 45.78 337.9 M 43.36 342.63 46.2 338.87 M 43.54 343.91 46.38 340.15 M 43.72 345.19 46.56 341.43 M 43.9 346.48 46.74 342.71 M 44.07 347.67 46.92 344 M 44.25 348.95 47.1 345.28 M 44.43 350.23 47.28 346.56 M 44.61 351.52 47.46 347.85 M 44.79 352.8 47.64 349.13 M 44.97 354.08 47.82 350.41 M 45.15 355.36 48 351.69 M 45.33 356.65 48.17 352.89 M 45.51 357.93 48.35 354.17 M 45.69 359.21 48.53 355.45 M 45.87 360.5 48.71 356.73 M 46.05 361.78 48.89 358.02 M 46.22 362.97 49.07 359.3 M 46.4 364.25 49.26 360.58 M 46.58 365.54 49.44 361.86 M 46.76 366.82 49.62 363.15 M 46.94 368.1 49.8 364.43 M 47.13 369.38 49.98 365.71 M 47.31 370.67 50.16 367 M 47.49 371.95 50.34 368.28 M 47.67 373.23 50.51 369.47 M 47.85 374.52 50.69 370.75 M 48.03 375.8 50.87 372.04 M 48.21 377.08 51.05 373.32 M 48.39 378.36 51.23 374.6 M 48.56 379.56 51.41 375.88 M 48.74 380.84 51.59 377.17 M 48.92 382.12 51.77 378.45 M 49.1 383.4 51.95 379.73 M 49.28 384.69 52.13 381.02 M 49.46 385.97 52.31 382.3 M 49.64 387.25 52.49 383.58 M 49.82 388.54 52.66 384.77 M 50 389.82 52.84 386.06 M 50.18 391.1 53.02 387.34 M 50.36 392.38 53.2 388.62 M 50.54 393.67 53.38 389.9 M 50.71 394.86 53.56 391.19 M 50.89 396.14 53.74 392.47 M 51.07 397.42 53.92 393.75 M 51.25 398.71 54.11 395.04 M 51.43 399.99 54.29 396.32 M 51.61 401.27 54.47 397.6 M 51.79 402.55 54.65 398.88 M 51.98 403.84 54.81 400.08 M 52.16 405.12 55 401.36 M 52.34 406.4 55.18 402.64 M 52.52 407.69 55.36 403.92 M 52.7 408.97 55.54 405.21 M 52.88 410.25 55.72 406.49 M 53.05 411.44 55.9 407.77 M 53.23 412.73 56.08 409.06 M 53.41 414.01 56.26 410.34 M 53.59 415.29 56.44 411.62 M 53.77 416.57 56.62 412.9 M 53.95 417.86 56.8 414.19 M 54.13 419.14 56.98 415.47 M 54.31 420.42 57.15 416.66 M 54.49 421.71 57.33 417.94 M 54.67 422.99 57.51 419.23 M 54.85 424.27 57.69 420.51 M 55.03 425.55 57.87 421.79 M 55.2 426.75 58.05 423.08 M 55.38 428.03 58.23 424.36 M 55.56 429.31 58.41 425.64 M 55.74 430.59 58.59 426.92 M 55.92 431.88 58.77 428.21 M 56.1 433.16 58.96 429.49 M 56.28 434.44 59.14 430.77 M 56.46 435.73 59.3 431.96 M 56.64 437.01 59.48 433.25 M 57.23 437.86 59.66 434.53 M 58.43 437.69 59.85 435.81 M 59.71 437.51 60.03 437.09 M 66.29 442.38 66.62 442.06 M 66.47 443.67 67.81 441.89 M 66.65 444.95 69.1 441.71 M 67.62 445.19 70.38 441.53 M 68.91 445.01 71.67 441.35 M 70.19 444.83 72.95 441.17 M 71.48 444.65 74.24 440.99 M 72.76 444.46 75.52 440.81 M 73.95 444.3 76.81 440.63 M 75.24 444.12 78.09 440.45 M 76.52 443.94 79.38 440.27 M 77.81 443.76 80.66 440.09 M 79.09 443.58 81.95 439.91 M 80.38 443.4 83.14 439.74 M 81.66 443.22 84.43 439.56 M 82.95 443.04 85.71 439.38 M 84.23 442.86 86.99 439.2 M 85.52 442.67 88.28 439.02 M 86.8 442.49 89.56 438.84 M 88.09 442.31 90.85 438.66 M 89.28 442.15 92.13 438.48 M 90.57 441.97 93.42 438.3 M 91.85 441.79 94.7 438.12 M 93.14 441.61 95.99 437.94 M 94.42 441.43 97.27 437.75 M 95.71 441.25 98.56 437.57 M 96.99 441.07 99.75 437.41 M 98.28 440.88 101.04 437.23 M 99.56 440.7 102.32 437.05 M 100.85 440.52 103.61 436.87 M 102.13 440.34 104.89 436.69 M 103.42 440.16 106.18 436.51 M 104.7 439.98 107.46 436.33 M 105.89 439.82 108.75 436.15 M 107.18 439.64 110.03 435.96 M 108.46 439.46 111.32 435.78 M 109.75 439.28 112.6 435.6 M 111.03 439.09 113.89 435.42 M 112.32 438.91 115.08 435.26 M 113.6 438.73 116.36 435.08 M 114.89 438.55 117.65 434.9 M 116.17 438.37 118.93 434.72 M 117.46 438.19 120.22 434.54 M 118.74 438.01 121.5 434.36 M 120.03 437.83 122.79 434.17 M 121.22 437.67 124.07 433.99 M 122.51 437.48 125.36 433.81 M 123.79 437.3 126.64 433.63 M 125.07 437.12 127.93 433.45 M 126.36 436.94 129.21 433.27 M 127.64 436.76 130.41 433.11 M 128.93 436.58 131.69 432.93 M 130.21 436.4 132.98 432.75 M 131.5 436.22 134.26 432.57 M 132.78 436.04 135.54 432.38 M 134.07 435.86 136.83 432.2 M 135.35 435.68 138.11 432.02 M 136.55 435.51 139.4 431.84 M 137.83 435.33 140.68 431.66 M 139.12 435.15 141.97 431.48 M 140.4 434.97 143.25 431.3 M 141.69 434.79 144.29 431.34 M 142.97 434.61 144.47 432.63 M 144.26 434.43 144.65 433.91 M 67.99 445.13 66.52 444.03 M 58.06 437.74 56.59 436.64 M 69.27 444.95 66.34 442.75 M 59.34 437.56 56.41 435.36 M 70.47 444.79 66.8 442.03 M 59.99 436.82 56.23 434.08 M 71.75 444.61 68.09 441.85 M 59.81 435.54 56.05 432.79 M 73.04 444.43 69.37 441.67 M 59.63 434.25 55.87 431.51 M 74.32 444.25 70.66 441.49 M 59.45 432.97 55.69 430.23 M 75.61 444.07 71.94 441.31 M 59.28 431.78 55.51 428.94 M 76.89 443.89 73.23 441.13 M 59.1 430.5 55.33 427.66 M 78.18 443.71 74.51 440.95 M 58.92 429.21 55.15 426.38 M 79.46 443.52 75.71 440.78 M 58.74 427.93 54.97 425.1 M 80.75 443.34 76.99 440.6 M 58.56 426.65 54.79 423.81 M 82.03 443.16 78.28 440.42 M 58.37 425.37 54.61 422.53 M 83.32 442.98 79.56 440.24 M 58.19 424.08 54.44 421.34 M 84.6 442.8 80.85 440.06 M 58.01 422.8 54.26 420.06 M 85.79 442.64 82.13 439.88 M 57.83 421.52 54.08 418.77 M 87.08 442.46 83.42 439.7 M 57.65 420.23 53.9 417.49 M 88.36 442.28 84.7 439.52 M 57.47 418.95 53.72 416.21 M 89.65 442.1 85.99 439.34 M 57.29 417.67 53.54 414.93 M 90.93 441.92 87.27 439.16 M 57.11 416.39 53.36 413.64 M 92.22 441.73 88.55 438.98 M 56.94 415.19 53.17 412.36 M 93.5 441.55 89.84 438.8 M 56.76 413.91 52.99 411.08 M 94.79 441.37 91.03 438.63 M 56.58 412.63 52.81 409.79 M 96.07 441.19 92.32 438.45 M 56.4 411.35 52.63 408.51 M 97.36 441.01 93.6 438.27 M 56.22 410.06 52.45 407.23 M 98.64 440.83 94.89 438.09 M 56.04 408.78 52.28 406.04 M 99.93 440.65 96.17 437.91 M 55.86 407.5 52.1 404.75 M 101.21 440.47 97.46 437.73 M 55.68 406.21 51.92 403.47 M 102.41 440.31 98.74 437.55 M 55.5 404.93 51.74 402.19 M 103.69 440.12 100.03 437.37 M 55.32 403.65 51.56 400.91 M 104.98 439.94 101.31 437.19 M 55.14 402.37 51.38 399.62 M 106.26 439.76 102.6 437.01 M 54.96 401.08 51.2 398.34 M 107.55 439.58 103.88 436.83 M 54.79 399.89 51.02 397.06 M 108.83 439.4 105.17 436.65 M 54.61 398.61 50.84 395.77 M 110.12 439.22 106.45 436.47 M 54.43 397.33 50.66 394.49 M 111.4 439.04 107.64 436.3 M 54.25 396.04 50.48 393.21 M 112.68 438.86 108.93 436.12 M 54.07 394.76 50.3 391.93 M 113.97 438.68 110.21 435.94 M 53.89 393.48 50.12 390.64 M 115.25 438.5 111.5 435.76 M 53.71 392.2 49.95 389.45 M 116.54 438.32 112.78 435.58 M 53.52 390.91 49.77 388.17 M 117.73 438.15 114.07 435.4 M 53.34 389.63 49.59 386.89 M 119.02 437.97 115.35 435.22 M 53.16 388.35 49.41 385.6 M 120.3 437.79 116.64 435.04 M 52.98 387.06 49.23 384.32 M 121.59 437.61 117.92 434.86 M 52.8 385.78 49.05 383.04 M 122.87 437.43 119.21 434.68 M 52.62 384.5 48.87 381.75 M 124.16 437.25 120.49 434.5 M 52.45 383.31 48.69 380.47 M 125.44 437.07 121.78 434.32 M 52.27 382.02 48.51 379.19 M 126.73 436.89 122.97 434.15 M 52.09 380.74 48.32 377.91 M 128.01 436.71 124.26 433.97 M 51.91 379.46 48.14 376.62 M 129.3 436.53 125.54 433.79 M 51.73 378.18 47.96 375.34 M 130.58 436.35 126.83 433.61 M 51.55 376.89 47.8 374.15 M 131.87 436.17 128.11 433.43 M 51.37 375.61 47.62 372.87 M 133.06 436 129.4 433.25 M 51.19 374.33 47.43 371.58 M 134.34 435.82 130.68 433.07 M 51.01 373.04 47.25 370.3 M 135.63 435.64 131.97 432.89 M 50.83 371.76 47.07 369.02 M 136.91 435.46 133.25 432.71 M 50.65 370.48 46.89 367.73 M 138.2 435.28 134.54 432.53 M 50.47 369.2 46.71 366.45 M 139.48 435.1 135.82 432.35 M 50.3 368 46.53 365.17 M 140.77 434.92 137.1 432.17 M 50.12 366.72 46.35 363.89 M 142.05 434.74 138.3 432 M 49.94 365.44 46.17 362.6 M 143.34 434.56 139.58 431.82 M 49.76 364.16 45.99 361.32 M 144.62 434.38 140.87 431.64 M 49.58 362.87 45.81 360.04 M 144.55 433.18 142.15 431.46 M 49.4 361.59 45.63 358.75 M 144.37 431.89 143.44 431.28 M 49.22 360.31 45.46 357.56 M 49.04 359.02 45.28 356.28 M 48.86 357.74 45.1 355 M 48.68 356.46 44.92 353.72 M 48.49 355.18 44.74 352.43 M 48.31 353.89 44.56 351.15 M 48.13 352.61 44.38 349.87 M 47.97 351.42 44.2 348.58 M 47.79 350.14 44.02 347.3 M 47.6 348.85 43.84 346.02 M 47.42 347.57 43.66 344.74 M 47.24 346.29 43.48 343.45 M 47.06 345 43.31 342.26 M 46.88 343.72 43.13 340.98 M 46.7 342.44 42.95 339.7 M 46.52 341.16 42.77 338.41 M 46.34 339.87 43.95 338.15 M 46.16 338.59 45.23 337.97 M 41.71 329.59 41.5 329.43 M 43 329.41 41.32 328.15 M 43.65 328.76 41.15 326.96 M 44.11 328.04 41.48 325.98 M 44.56 327.23 41.94 325.26 M 45.1 326.4 42.39 324.45 M 45.55 325.59 42.93 323.63 M 46.01 324.88 43.38 322.82 M 46.46 324.07 43.84 322.1 M 46.9 323.26 44.29 321.29 M 47.44 322.43 44.73 320.48 M 47.9 321.71 45.18 319.67 M 110.49 209.86 110.64 209.56 M 106.24 216.91 111.92 209.38 M 105.79 219.03 113.05 209.41 M 106.6 219.47 113.23 210.7 M 107.42 219.92 111.52 214.49 M 121.81 208.46 122.11 207.95 M 121.99 209.75 123.39 207.77 M 122.17 211.03 124.68 207.59 M 123.22 211.16 125.96 207.41 M 124.41 211 127.25 207.23 M 125.69 210.82 128.53 207.05 M 126.98 210.63 129.82 206.87 M 128.26 210.45 131.1 206.69 M 129.55 210.27 132.39 206.51 M 130.83 210.09 133.67 206.33 M 132.12 209.91 134.87 206.16 M 133.4 209.73 136.15 205.98 M 134.69 209.55 137.44 205.8 M 135.97 209.37 138.72 205.62 M 137.26 209.19 140.01 205.44 M 138.54 209.01 141.29 205.26 M 139.83 208.83 142.58 205.08 M 141.02 208.66 143.86 204.9 M 142.31 208.48 145.15 204.72 M 143.59 208.3 146.43 204.54 M 144.88 208.12 147.72 204.36 M 146.16 207.94 149 204.18 M 147.45 207.76 150.19 204.01 M 148.73 207.58 151.48 203.83 M 150.02 207.4 152.76 203.65 M 151.3 207.22 154.05 203.47 M 152.59 207.04 155.33 203.29 M 153.87 206.86 156.62 203.11 M 155.15 206.68 157.9 202.93 M 156.35 206.51 159.19 202.75 M 157.63 206.33 160.47 202.57 M 158.92 206.15 161.76 202.39 M 160.2 205.97 163.04 202.21 M 161.49 205.79 164.33 202.03 M 162.77 205.61 165.52 201.86 M 164.06 205.43 166.81 201.68 M 165.34 205.25 168.09 201.5 M 166.63 205.07 169.37 201.32 M 167.91 204.89 170.66 201.14 M 169.2 204.71 171.94 200.96 M 170.48 204.53 173.23 200.78 M 171.67 204.36 174.51 200.6 M 172.96 204.18 175.8 200.42 M 174.24 204 177.08 200.24 M 175.53 203.82 178.37 200.06 M 176.81 203.64 179.65 199.88 M 178.1 203.46 180.85 199.71 M 179.38 203.28 182.13 199.53 M 180.67 203.1 183.42 199.35 M 181.95 202.92 184.7 199.17 M 183.24 202.74 185.99 198.99 M 184.52 202.56 187.27 198.81 M 185.81 202.38 188.56 198.63 M 187 202.21 189.84 198.45 M 188.29 202.03 191.13 198.27 M 189.57 201.85 192.41 198.09 M 190.86 201.67 193.7 197.91 M 192.14 201.49 194.98 197.73 M 193.43 201.31 196.17 197.56 M 194.71 201.13 197.46 197.38 M 196 200.95 198.74 197.2 M 197.28 200.77 199.8 197.43 M 198.57 200.59 199.99 198.71 M 199.85 200.41 200.17 199.99 M 108.27 219.99 105.56 218.03 M 108.72 219.18 106.1 217.21 M 109.18 218.46 106.55 216.4 M 109.62 217.65 107.01 215.68 M 110.07 216.84 107.45 214.87 M 110.61 216.02 107.9 214.06 M 111.07 215.3 108.44 213.24 M 111.52 214.49 108.9 212.52 M 111.97 213.68 109.35 211.71 M 112.41 212.87 109.8 210.9 M 112.96 212.13 110.26 210.18 M 113.31 211.25 111 209.51 M 113.13 209.96 112.29 209.33 M 122.39 211.28 122.17 211.03 M 123.68 211.1 121.99 209.75 M 124.96 210.92 121.82 208.56 M 126.25 210.74 122.48 207.9 M 127.53 210.56 123.76 207.72 M 128.72 210.39 125.05 207.54 M 130.01 210.21 126.33 207.36 M 131.29 210.03 127.62 207.18 M 132.58 209.85 128.9 207 M 133.86 209.67 130.19 206.82 M 135.15 209.49 131.47 206.64 M 136.43 209.31 132.76 206.46 M 137.72 209.13 133.95 206.29 M 139 208.95 135.23 206.11 M 140.29 208.77 136.52 205.93 M 141.57 208.59 137.8 205.75 M 142.86 208.41 139.09 205.57 M 144.05 208.24 140.37 205.39 M 145.33 208.06 141.66 205.21 M 146.62 207.88 142.94 205.03 M 147.9 207.7 144.23 204.85 M 149.19 207.52 145.51 204.67 M 150.47 207.34 146.8 204.49 M 151.76 207.16 148.08 204.31 M 153.04 206.98 149.28 204.14 M 154.33 206.8 150.56 203.96 M 155.61 206.62 151.85 203.78 M 156.9 206.44 153.13 203.6 M 158.18 206.26 154.42 203.42 M 159.38 206.09 155.7 203.24 M 160.66 205.91 156.98 203.06 M 161.95 205.73 158.27 202.88 M 163.23 205.55 159.55 202.7 M 164.52 205.37 160.84 202.52 M 165.8 205.19 162.12 202.34 M 167.09 205.01 163.41 202.16 M 168.37 204.83 164.6 201.99 M 169.66 204.65 165.89 201.81 M 170.94 204.47 167.17 201.63 M 172.23 204.29 168.46 201.45 M 173.51 204.11 169.74 201.27 M 174.7 203.94 171.03 201.09 M 175.99 203.76 172.31 200.91 M 177.27 203.58 173.6 200.73 M 178.56 203.4 174.88 200.55 M 179.84 203.22 176.17 200.37 M 181.13 203.04 177.45 200.19 M 182.41 202.86 178.74 200.01 M 183.7 202.68 179.93 199.84 M 184.98 202.5 181.21 199.66 M 186.27 202.32 182.5 199.48 M 187.55 202.14 183.78 199.3 M 188.84 201.96 185.07 199.12 M 190.12 201.77 186.35 198.94 M 191.32 201.61 187.64 198.76 M 192.6 201.43 188.92 198.58 M 193.88 201.25 190.21 198.4 M 195.17 201.07 191.49 198.22 M 196.45 200.89 192.78 198.04 M 197.74 200.71 194.06 197.86 M 199.02 200.53 195.35 197.68 M 200.2 200.27 196.54 197.51 M 200.02 198.98 197.83 197.33 M 199.84 197.7 199.11 197.15 M 743.55 270.45 744.19 269.7 M 743.73 271.73 745.47 269.52 M 743.91 273.01 746.67 269.36 M 744.09 274.3 747.95 269.18 M 744.27 275.58 749.24 269 M 744.45 276.86 750.52 268.82 M 744.63 278.15 751.81 268.64 M 745.68 278.28 752.21 269.51 M 746.96 278.1 752.39 270.8 M 748.16 277.93 752.57 272.08 M 749.44 277.75 752.75 273.36 M 750.73 277.57 752.93 274.64 M 752.01 277.39 753.11 275.93 M 753.3 277.21 753.28 277.12 M 613.15 296.88 620.66 287.04 M 611.94 288.26 621.87 295.65 M 619.25 340.22 626.75 330.29 M 627.97 338.99 618.03 331.51 M 624.83 124.52 622.58 108.57 M 622.58 108.57 596.52 112.23 M 596.52 112.23 598.76 128.18 M 598.76 128.18 624.83 124.52 M 623.35 110.06 625.38 124.44 M 625.38 124.44 627.49 124.15 M 627.49 124.15 625.47 109.76 M 626.54 117.36 720.15 104.23 M 626.51 117.18 720.12 104.05 M 626.38 116.26 719.99 103.13 M 597.49 122.47 598.3 128.24 M 598.3 128.24 586.1 129.95 M 597.71 187.19 594.22 187.68 M 587.11 129.16 584.59 111.29 M 588.67 128.94 586.62 114.37 M 597.71 187.19 599.03 196.54 M 586.1 129.95 583.34 110.34 M 606.96 189.73 731.65 185.96 M 606.83 188.81 731.52 185.05 M 606.8 188.63 731.5 184.86 M 599.03 196.54 741.34 192.27 M 598.3 197.39 742.39 193.06 M 596.94 198.98 744.1 194.59 M 595.98 200.14 745.37 195.63 M 586.1 129.95 594.22 187.68 M 589.59 129.46 597.71 187.19 M 597.8 187.83 594.31 188.32 M 589.5 128.82 586.01 129.31 M 596.28 113.85 595.54 108.63 M 625.47 109.76 623.35 110.06 M 623.35 110.06 622.62 104.83 M 595.54 108.63 583.34 110.34 M 595.7 109.73 584.59 111.29 M 596.16 113.03 586.62 114.37 M 595.91 108.58 622.16 104.9 M 622.38 106.45 596.13 110.14 M 596.13 110.14 595.91 108.58 M 622.38 106.45 622.16 104.9 M 592.86 113.49 592.4 110.19 M 626.45 108.78 625.99 105.48 M 685.09 109.15 695.9 185.94 M 528.28 138.07 528.71 140.44 M 529.02 141.98 529.11 142.62 M 529.11 142.62 529.43 143.6 M 529.85 145.23 530.25 146.76 M 530.76 148.37 531.35 149.88 M 531.84 151.4 532.52 152.89 M 533.2 154.38 533.64 155.54 M 533.64 155.54 533.87 155.88 M 534.64 157.36 535.41 158.84 M 536.26 160.21 537.11 161.59 M 538.05 162.95 538.3 163.38 M 538.3 163.38 538.99 164.32 M 540.01 165.57 540.95 166.94 M 542.06 168.18 543.16 169.34 M 544.27 170.58 545.46 171.72 M 546.65 172.86 547.43 173.69 M 547.43 173.69 547.83 173.91 M 549.1 174.95 550.37 175.99 M 551.64 177.02 552.99 177.96 M 554.43 178.88 554.74 179.11 M 554.74 179.11 555.76 179.72 M 557.19 180.54 558.61 181.37 M 560.12 182.09 561.53 182.83 M 563.04 183.55 564.61 184.08 M 566.1 184.71 567.1 185.13 M 567.1 185.13 567.68 185.24 M 569.25 185.77 570.81 186.2 M 572.36 186.64 574 186.97 M 575.64 187.3 576.03 187.43 M 576.03 187.43 577.26 187.54 M 578.89 187.78 580.51 188.02 M 582.11 188.07 583.72 188.22 M 585.42 188.26 587 188.23 M 588.68 188.18 589.7 188.13 M 589.7 188.13 590.36 188.13 M 591.92 187.91 594.22 187.68 M 598.01 126.13 589.29 127.36 M 595.29 122.78 595.81 126.44 M 587.61 115.44 587.93 115.03 M 587.79 116.73 589.21 114.85 M 587.97 118.01 590.5 114.67 M 588.15 119.29 591.78 114.49 M 588.32 120.48 593.07 114.3 M 588.5 121.77 594.26 114.14 M 588.68 123.05 595.55 113.96 M 589.42 123.6 596.37 114.5 M 590.7 123.42 596.55 115.78 M 591.99 123.24 596.73 117.06 M 593.27 123.06 596.9 118.25 M 594.46 122.89 597.08 119.54 M 595.75 122.71 597.26 120.82 M 597.03 122.53 597.44 122.1 M 597.84 188.11 598.63 187.06 M 598.02 189.39 599.91 186.88 M 598.2 190.67 601.2 186.7 M 598.38 191.96 602.48 186.52 M 598.56 193.24 603.77 186.34 M 598.74 194.52 604.96 186.17 M 598.92 195.81 606.25 185.99 M 600.13 195.73 606.6 187.16 M 601.42 195.55 606.78 188.44 M 602.7 195.37 606.96 189.73 M 603.99 195.19 607.14 191.01 M 605.18 195.02 607.32 192.29 M 606.46 194.84 607.5 193.57 M 719.13 96.99 719.44 96.57 M 719.31 98.27 720.73 96.39 M 719.49 99.56 722.01 96.21 M 719.67 100.84 723.3 96.03 M 719.85 102.12 724.58 95.85 M 720.03 103.4 725.87 95.67 M 720.21 104.69 727.15 95.49 M 720.93 105.15 727.79 96.05 M 722.22 104.97 727.98 97.34 M 723.5 104.79 728.16 98.62 M 724.79 104.61 728.34 99.9 M 726.07 104.43 728.52 101.19 M 727.36 104.25 728.7 102.47 M 728.64 104.06 728.88 103.75 M 731.34 183.77 731.82 183.14 M 731.52 185.05 733.1 182.96 M 731.71 186.33 734.39 182.78 M 731.89 187.61 735.67 182.6 M 732.07 188.9 736.96 182.42 M 732.25 190.18 738.24 182.24 M 732.41 191.37 739.53 182.06 M 733.31 191.71 740.01 182.83 M 734.59 191.53 740.19 184.11 M 735.87 191.35 740.37 185.4 M 737.16 191.17 740.55 186.68 M 738.44 190.99 740.73 187.96 M 739.73 190.81 740.9 189.15 M 740.92 190.64 741.08 190.44 M 589.41 128.18 590.12 127.24 M 589.59 129.46 591.4 127.06 M 590.78 129.3 592.69 126.88 M 595.37 123.33 595.75 122.71 M 592.06 129.12 593.97 126.7 M 595.55 124.61 597.03 122.53 M 593.35 128.94 595.25 126.52 M 595.73 125.89 597.62 123.38 M 594.63 128.76 596.54 126.34 M 596.54 126.34 597.8 124.67 M 595.92 128.58 597.82 126.16 M 597.82 126.16 597.98 125.95 M 597.2 128.39 598.16 127.23 M 623.41 110.42 623.72 110 M 623.59 111.7 624.91 109.84 M 623.77 112.99 625.57 110.49 M 623.95 114.27 625.75 111.77 M 624.12 115.46 625.93 113.06 M 624.3 116.74 626.11 114.34 M 624.48 118.03 626.29 115.62 M 624.66 119.31 626.47 116.91 M 624.84 120.59 626.64 118.1 M 625.02 121.88 626.82 119.38 M 625.2 123.16 627 120.66 M 625.38 124.44 627.18 121.95 M 626.57 124.27 627.36 123.23 M 597.9 111.38 596.34 111.6 M 596.34 111.6 596.13 110.14 M 596.13 110.14 597.69 109.92 M 597.69 109.92 597.9 111.38 M 622.59 107.92 621.12 108.13 M 621.12 108.13 620.91 106.66 M 620.91 106.66 622.38 106.45 M 622.38 106.45 622.59 107.92 M 598.06 126.5 606.43 185.97 M 602.12 155.36 689.86 143.05 M 601.03 147.57 688.77 135.26 M 599.93 139.79 687.67 127.47 M 598.83 132 686.57 119.69 M 597.74 124.21 624.81 120.41 M 603.22 163.15 690.96 150.84 M 604.32 170.94 692.05 158.63 M 605.41 178.73 693.15 166.42 M 606.51 186.52 694.25 174.21 M 659.28 187.06 695.34 182 M 626.92 120.11 685.48 111.9 M 468.57 159.34 477.2 158.13 M 477.2 158.13 477.5 160.33 M 448.47 79.74 448.7 79.34 M 448.65 81.03 449.98 79.16 M 448.83 82.31 451.27 78.98 M 449.01 83.59 452.55 78.8 M 449.18 84.78 453.84 78.62 M 449.36 86.07 455.12 78.44 M 449.54 87.35 456.41 78.26 M 450.2 88.01 457.23 78.8 M 451.48 87.82 457.41 80.08 M 452.77 87.64 457.59 81.36 M 454.05 87.46 457.76 82.55 M 455.34 87.28 457.94 83.84 M 456.62 87.1 458.12 85.12 M 457.91 86.92 458.3 86.4 M 452.24 106.5 452.33 106.49 M 452.42 107.78 453.52 106.32 M 452.6 109.07 454.81 106.14 M 452.78 110.35 456.09 105.96 M 452.96 111.63 457.38 105.78 M 453.14 112.91 458.66 105.6 M 453.32 114.2 459.95 105.42 M 453.73 115.08 461 105.55 M 455.01 114.89 461.18 106.83 M 456.3 114.71 461.36 108.12 M 457.58 114.53 461.54 109.4 M 458.87 114.35 461.72 110.68 M 460.15 114.17 461.9 111.97 M 461.44 113.99 462.08 113.25 M 456.19 134.54 457.05 133.39 M 456.37 135.82 458.34 133.21 M 456.55 137.11 459.62 133.03 M 456.73 138.39 460.91 132.85 M 456.91 139.67 462.19 132.67 M 457.09 140.95 463.48 132.49 M 457.26 142.15 464.76 132.31 M 458.54 141.96 464.94 133.59 M 459.83 141.78 465.12 134.87 M 461.11 141.6 465.3 136.16 M 462.4 141.42 465.49 137.44 M 463.68 141.24 465.67 138.72 M 464.97 141.06 465.85 140.01 M 459.97 161.39 460.58 160.46 M 460.15 162.67 461.87 160.28 M 460.31 163.86 463.15 160.1 M 460.49 165.14 464.44 159.92 M 460.67 166.43 465.72 159.74 M 460.86 167.71 467.01 159.56 M 461.04 168.99 468.29 159.38 M 462.08 169.13 468.72 160.44 M 468.72 160.44 469.58 159.2 M 463.37 168.95 468.89 161.63 M 468.97 161.53 470.86 159.02 M 464.65 168.77 469.07 162.91 M 470.25 161.35 472.15 158.84 M 465.94 168.59 469.25 164.2 M 471.54 161.17 473.43 158.66 M 467.22 168.41 469.43 165.48 M 472.82 160.99 474.72 158.48 M 468.51 168.23 469.61 166.76 M 474.11 160.8 476 158.3 M 475.39 160.62 477.21 158.22 M 476.68 160.44 477.39 159.5 M 42.91 313.54 98.75 219.55 M 598.12 200.03 485.32 215.86 M 601.38 199.95 485.37 216.22 M 684.89 197.48 486.65 225.3 M 681.53 197.58 486.6 224.93 M 450.03 27.66 181.22 65.38 M 450.08 28.03 181.27 65.75 M 132.97 429.38 130.53 412.06 M 130.53 412.06 74.18 419.97 M 74.18 419.97 76.62 437.29 M 76.62 437.29 132.97 429.38 M 76.62 437.29 130.53 412.06 M 133.66 460.21 131.22 442.9 M 131.22 442.9 82.03 449.8 M 82.03 449.8 84.47 467.12 M 84.47 467.12 133.66 460.21 M 131.22 442.9 84.47 467.12 M 94.03 467.92 88.62 468.68 M 88.62 468.68 85.57 447.06 M 85.57 447.06 90.99 446.3 M 90.99 446.3 94.03 467.92 M 130.1 462.86 124.69 463.62 M 124.69 463.62 121.64 442 M 121.64 442 127.06 441.24 M 127.06 441.24 130.1 462.86 M 625.49 109.94 625.74 109.72 M 625.67 111.23 627.03 109.54 M 625.85 112.51 628.22 109.37 M 626.03 113.79 629.5 109.19 M 626.21 115.07 630.79 109.01 M 626.47 116.25 632.07 108.83 M 627.76 116.07 633.36 108.65 M 629.04 115.89 634.64 108.47 M 630.33 115.71 635.93 108.29 M 631.61 115.53 637.21 108.11 M 632.9 115.35 638.5 107.93 M 634.18 115.17 639.78 107.75 M 635.47 114.99 641.07 107.57 M 636.75 114.81 642.35 107.39 M 638.04 114.63 643.55 107.22 M 639.32 114.45 644.83 107.04 M 640.51 114.28 646.11 106.86 M 641.8 114.1 647.4 106.68 M 643.08 113.92 648.68 106.5 M 644.37 113.74 649.97 106.32 M 645.65 113.56 651.25 106.14 M 646.94 113.38 652.54 105.96 M 648.22 113.2 653.82 105.78 M 649.51 113.02 655.11 105.6 M 650.79 112.84 656.39 105.42 M 652.08 112.66 657.68 105.24 M 653.36 112.48 658.87 105.07 M 654.65 112.3 660.16 104.89 M 655.84 112.13 661.44 104.71 M 657.13 111.95 662.73 104.53 M 658.41 111.77 664.01 104.35 M 659.7 111.59 665.3 104.17 M 660.98 111.41 666.58 103.99 M 662.27 111.23 667.87 103.81 M 599.03 196.54 599.58 195.81 M 663.55 111.05 669.15 103.63 M 600.23 196.46 600.86 195.63 M 664.84 110.87 670.44 103.45 M 601.36 196.49 602.15 195.45 M 666.12 110.69 671.72 103.27 M 602.57 196.42 603.43 195.27 M 667.41 110.51 673.01 103.09 M 607.06 190.46 607.62 189.73 M 603.68 196.35 604.72 195.09 M 668.69 110.33 674.2 102.92 M 607.24 191.74 608.73 189.66 M 604.9 196.37 606 194.91 M 669.97 110.15 675.48 102.74 M 607.42 193.02 609.95 189.68 M 606.01 196.31 607.29 194.72 M 671.17 109.98 676.77 102.56 M 607.6 194.31 611.15 189.6 M 607.23 196.32 612.27 189.54 M 672.45 109.8 678.05 102.38 M 608.35 196.26 613.49 189.56 M 673.74 109.62 679.34 102.2 M 609.55 196.18 614.6 189.49 M 675.02 109.44 680.62 102.02 M 610.68 196.21 615.81 189.42 M 676.31 109.26 681.91 101.84 M 611.89 196.14 616.93 189.45 M 677.59 109.08 683.19 101.66 M 613.09 196.06 618.14 189.37 M 678.88 108.9 684.48 101.48 M 614.22 196.09 619.27 189.4 M 680.16 108.72 685.76 101.3 M 615.43 196.01 620.47 189.32 M 681.45 108.54 687.05 101.12 M 616.55 196.04 621.59 189.26 M 682.73 108.36 688.33 100.94 M 617.76 195.97 622.81 189.28 M 684.02 108.18 689.62 100.76 M 618.87 195.9 623.92 189.21 M 685.3 108 690.81 100.59 M 620.09 195.92 625.13 189.14 M 686.49 107.83 692.1 100.41 M 621.21 195.86 626.35 189.15 M 687.78 107.65 693.38 100.23 M 622.41 195.78 627.46 189.09 M 689.06 107.47 694.66 100.05 M 623.54 195.81 628.68 189.11 M 690.35 107.29 695.95 99.87 M 624.75 195.73 629.79 189.04 M 691.63 107.11 697.23 99.69 M 625.87 195.76 631 188.97 M 692.92 106.93 698.52 99.51 M 627.08 195.69 632.13 189 M 694.2 106.75 699.8 99.33 M 628.28 195.61 633.33 188.92 M 695.49 106.57 701.09 99.15 M 629.41 195.64 634.45 188.86 M 696.77 106.39 702.37 98.97 M 630.62 195.56 635.67 188.87 M 698.06 106.21 703.66 98.79 M 631.73 195.5 636.78 188.81 M 699.34 106.03 704.94 98.61 M 632.95 195.52 638 188.83 M 700.63 105.85 706.14 98.44 M 634.06 195.45 639.11 188.76 M 701.91 105.67 707.42 98.26 M 635.28 195.47 640.32 188.69 M 703.11 105.5 708.71 98.08 M 636.4 195.41 641.54 188.7 M 704.39 105.32 709.99 97.9 M 637.6 195.33 642.65 188.64 M 705.68 105.14 711.28 97.72 M 638.73 195.36 643.86 188.57 M 706.96 104.96 712.56 97.54 M 639.94 195.28 644.99 188.59 M 708.25 104.78 713.85 97.36 M 641.05 195.22 646.19 188.52 M 709.53 104.6 715.13 97.18 M 642.27 195.24 647.32 188.55 M 710.82 104.42 716.42 97 M 643.48 195.16 648.52 188.47 M 712.1 104.24 717.7 96.82 M 644.6 195.19 649.64 188.41 M 713.39 104.06 718.99 96.64 M 645.81 195.11 650.86 188.42 M 714.67 103.88 719.25 97.81 M 646.92 195.05 651.97 188.36 M 715.96 103.7 719.41 99.01 M 648.14 195.07 653.19 188.38 M 717.24 103.52 719.59 100.29 M 649.26 195 654.3 188.31 M 718.43 103.35 719.77 101.57 M 650.46 194.93 655.51 188.24 M 719.72 103.17 719.95 102.85 M 651.59 194.96 656.73 188.25 M 652.8 194.88 657.84 188.19 M 653.92 194.91 659.05 188.12 M 655.13 194.83 660.18 188.14 M 722.57 105.48 722.95 104.86 M 656.33 194.76 661.38 188.07 M 722.75 106.76 724.24 104.68 M 657.46 194.79 662.51 188.1 M 722.93 108.04 725.52 104.5 M 658.67 194.71 663.72 188.02 M 723.11 109.33 726.81 104.32 M 659.8 194.74 664.83 187.96 M 723.29 110.61 728.09 104.14 M 661 194.66 666.05 187.97 M 723.47 111.89 728.98 104.48 M 662.12 194.6 667.16 187.91 M 723.65 113.17 729.16 105.77 M 663.33 194.62 668.37 187.84 M 723.83 114.46 729.34 107.05 M 664.45 194.55 669.59 187.85 M 724.01 115.74 729.52 108.33 M 665.65 194.48 670.7 187.79 M 724.2 117.02 729.7 109.62 M 666.78 194.51 671.92 187.8 M 724.36 118.21 729.88 110.9 M 667.99 194.43 673.04 187.74 M 724.54 119.5 730.07 112.18 M 669.11 194.46 674.24 187.67 M 724.72 120.78 730.23 113.37 M 670.32 194.38 675.37 187.7 M 724.9 122.06 730.41 114.66 M 671.53 194.31 676.57 187.62 M 725.09 123.35 730.59 115.94 M 672.65 194.34 677.69 187.56 M 725.27 124.63 730.77 117.22 M 673.86 194.26 678.91 187.57 M 725.45 125.91 730.96 118.5 M 674.97 194.2 680.02 187.51 M 725.63 127.19 731.14 119.79 M 676.19 194.21 681.24 187.53 M 725.81 128.48 731.32 121.07 M 677.31 194.15 682.36 187.46 M 725.99 129.76 731.5 122.35 M 678.53 194.17 683.56 187.39 M 726.17 131.04 731.68 123.64 M 679.64 194.1 684.78 187.4 M 726.35 132.33 731.86 124.92 M 680.85 194.03 685.89 187.34 M 726.53 133.61 732.04 126.2 M 681.97 194.06 687.1 187.26 M 726.7 134.8 732.22 127.48 M 683.18 193.98 688.23 187.29 M 726.88 136.08 732.39 128.68 M 684.29 193.92 689.43 187.22 M 727.06 137.37 732.57 129.96 M 685.51 193.93 690.56 187.25 M 727.24 138.65 732.75 131.24 M 686.72 193.86 691.77 187.17 M 727.42 139.93 732.93 132.52 M 687.85 193.89 692.88 187.11 M 727.6 141.21 733.11 133.81 M 689.05 193.81 694.1 187.12 M 727.78 142.5 733.29 135.09 M 690.17 193.75 695.21 187.06 M 727.96 143.78 733.47 136.37 M 691.38 193.76 696.42 186.98 M 728.14 145.06 733.65 137.66 M 692.5 193.7 697.55 187.01 M 728.32 146.35 733.83 138.94 M 693.71 193.63 698.75 186.94 M 728.5 147.63 734.01 140.22 M 694.83 193.65 699.97 186.95 M 728.68 148.91 734.19 141.5 M 696.04 193.58 701.09 186.89 M 728.85 150.1 734.37 142.79 M 697.17 193.61 702.29 186.81 M 729.03 151.39 734.55 144.07 M 698.37 193.53 703.42 186.84 M 729.21 152.67 734.72 145.26 M 699.49 193.47 704.63 186.77 M 729.39 153.95 734.9 146.54 M 700.7 193.48 705.75 186.8 M 729.57 155.23 735.08 147.83 M 701.91 193.41 706.96 186.72 M 729.75 156.52 735.26 149.11 M 703.04 193.44 708.07 186.66 M 729.94 157.8 735.44 150.39 M 704.24 193.36 709.29 186.67 M 730.12 159.08 735.62 151.67 M 705.36 193.3 710.41 186.61 M 730.3 160.36 735.8 152.96 M 706.58 193.31 711.61 186.53 M 730.48 161.65 735.99 154.24 M 707.69 193.25 712.74 186.56 M 730.66 162.93 736.17 155.52 M 708.9 193.18 713.95 186.49 M 730.84 164.21 736.35 156.81 M 710.02 193.2 715.16 186.5 M 731.02 165.5 736.53 158.09 M 711.23 193.13 716.28 186.44 M 731.19 166.69 736.71 159.37 M 712.36 193.16 717.48 186.36 M 731.37 167.97 736.88 160.56 M 713.56 193.08 718.61 186.39 M 731.55 169.25 737.06 161.85 M 714.77 193.01 719.82 186.32 M 731.73 170.54 737.24 163.13 M 715.9 193.03 720.93 186.25 M 731.91 171.82 737.42 164.41 M 717.1 192.96 722.15 186.27 M 732.09 173.1 737.6 165.69 M 718.22 192.9 723.26 186.21 M 732.27 174.38 737.78 166.98 M 719.44 192.91 724.48 186.22 M 732.45 175.67 737.96 168.26 M 720.55 192.85 725.6 186.16 M 732.63 176.95 738.14 169.54 M 721.77 192.86 726.8 186.08 M 732.81 178.23 738.32 170.83 M 722.88 192.8 728.02 186.1 M 732.99 179.52 738.5 172.11 M 724.09 192.73 729.14 186.04 M 733.17 180.8 738.68 173.39 M 725.22 192.75 730.34 185.96 M 733.34 181.99 738.86 174.67 M 726.42 192.68 731.47 185.99 M 733.84 182.85 739.04 175.96 M 727.54 192.62 731.81 187.06 M 735.12 182.67 739.21 177.15 M 728.75 192.63 731.99 188.35 M 736.41 182.49 739.39 178.43 M 729.96 192.56 732.17 189.63 M 737.69 182.31 739.57 179.71 M 731.09 192.58 732.35 190.91 M 738.98 182.13 739.75 181 M 732.29 192.51 732.75 191.79 M 733.41 192.45 734.04 191.61 M 734.63 192.46 735.32 191.43 M 735.74 192.4 736.61 191.25 M 736.95 192.32 737.89 191.07 M 738.07 192.35 739.18 190.89 M 739.28 192.28 740.46 190.71 M 740.41 192.3 741.2 191.26 M 599.87 196.51 599.03 195.88 M 601.36 196.49 600.31 195.7 M 602.75 196.39 601.6 195.52 M 604.24 196.37 602.88 195.34 M 605.74 196.34 604.17 195.16 M 607.13 196.24 605.45 194.98 M 608.62 196.22 606.74 194.8 M 610.03 196.21 607.6 194.31 M 611.52 196.19 607.42 193.02 M 613 196.07 607.24 191.74 M 614.4 196.06 607.06 190.46 M 615.9 196.04 607.52 189.74 M 617.38 195.93 609 189.63 M 618.78 195.92 610.41 189.62 M 620.28 195.89 611.9 189.59 M 621.77 195.87 613.3 189.58 M 623.16 195.77 614.79 189.47 M 624.65 195.75 616.28 189.45 M 626.06 195.74 617.68 189.44 M 627.54 195.62 619.16 189.32 M 629.03 195.6 620.66 189.3 M 630.43 195.59 622.06 189.29 M 631.93 195.57 623.55 189.27 M 633.41 195.45 625.04 189.15 M 634.81 195.44 626.44 189.14 M 636.31 195.42 627.93 189.12 M 637.8 195.4 629.32 189.02 M 639.19 195.29 630.82 188.99 M 640.68 195.27 632.31 188.97 M 642.09 195.26 633.71 188.96 M 643.57 195.15 635.19 188.85 M 645.06 195.12 636.69 188.82 M 646.46 195.11 638.09 188.81 M 647.96 195.09 639.57 188.7 M 649.44 194.98 641.07 188.68 M 650.84 194.97 642.47 188.67 M 652.34 194.94 643.96 188.64 M 653.82 194.83 645.35 188.54 M 655.22 194.82 646.85 188.52 M 656.71 194.8 648.34 188.5 M 658.12 194.79 649.73 188.4 M 659.6 194.67 651.22 188.37 M 661.09 194.65 652.72 188.35 M 662.5 194.64 654.12 188.34 M 663.98 194.53 655.6 188.23 M 665.47 194.5 657.1 188.2 M 666.87 194.49 658.5 188.19 M 668.37 194.47 659.99 188.17 M 669.85 194.36 661.38 188.07 M 671.25 194.35 662.88 188.05 M 672.75 194.32 664.37 188.02 M 674.14 194.22 665.76 187.92 M 675.63 194.2 667.26 187.9 M 677.12 194.18 668.75 187.88 M 678.53 194.17 670.15 187.87 M 680.01 194.05 671.63 187.75 M 681.5 194.03 673.13 187.73 M 682.9 194.02 674.53 187.72 M 684.4 194 676.01 187.6 M 685.88 193.88 677.41 187.59 M 687.28 193.87 678.91 187.57 M 688.78 193.85 680.4 187.55 M 690.17 193.75 681.79 187.45 M 691.66 193.73 683.29 187.43 M 693.15 193.7 684.78 187.4 M 694.56 193.69 686.17 187.3 M 696.04 193.58 687.66 187.28 M 697.53 193.56 689.16 187.26 M 698.93 193.55 690.56 187.25 M 700.42 193.43 692.04 187.13 M 701.91 193.41 693.44 187.12 M 703.31 193.4 694.94 187.1 M 704.81 193.38 696.42 186.98 M 706.2 193.27 697.82 186.97 M 707.69 193.25 699.32 186.95 M 709.19 193.23 700.81 186.93 M 710.57 193.13 702.2 186.83 M 712.07 193.1 703.69 186.8 M 713.56 193.08 705.19 186.78 M 714.97 193.07 706.59 186.77 M 716.45 192.96 708.07 186.66 M 717.94 192.93 709.48 186.65 M 719.34 192.92 710.97 186.62 M 720.82 192.81 712.45 186.51 M 722.23 192.8 713.85 186.5 M 723.72 192.78 715.35 186.48 M 725.22 192.75 716.84 186.45 M 726.61 192.65 718.23 186.35 M 728.1 192.63 719.73 186.33 M 626.56 116.24 626.36 116.08 M 729.59 192.61 721.22 186.31 M 627.85 116.06 626.17 114.8 M 731 192.6 722.61 186.21 M 629.13 115.88 626.01 113.61 M 732.48 192.48 724.1 186.18 M 630.42 115.7 625.83 112.32 M 733.97 192.46 733.03 191.75 M 631.7 115.52 625.65 111.04 M 732.4 191.28 725.51 186.17 M 735.37 192.45 734.31 191.57 M 632.9 115.35 625.56 109.75 M 732.22 190 727 186.15 M 736.86 192.34 735.6 191.39 M 634.18 115.17 626.84 109.57 M 732.05 188.8 728.48 186.04 M 738.26 192.33 736.88 191.21 M 635.47 114.99 628.03 109.4 M 731.87 187.52 729.88 186.03 M 739.75 192.3 738.17 191.03 M 636.75 114.81 629.32 109.22 M 731.69 186.24 731.38 186 M 741.25 192.28 739.45 190.85 M 638.04 114.63 630.6 109.04 M 741.17 191.08 740.65 190.68 M 639.32 114.45 631.89 108.86 M 640.61 114.27 633.17 108.68 M 641.89 114.09 634.46 108.5 M 734.66 182.74 733.3 181.72 M 643.18 113.91 635.74 108.32 M 735.95 182.56 733.12 180.43 M 644.46 113.73 637.03 108.14 M 737.23 182.38 732.94 179.15 M 645.75 113.55 638.31 107.96 M 738.43 182.21 732.76 177.87 M 647.03 113.37 639.6 107.78 M 739.71 182.03 732.58 176.58 M 648.22 113.2 640.88 107.6 M 739.74 180.91 732.4 175.3 M 649.51 113.02 642.17 107.42 M 739.56 179.62 732.22 174.02 M 650.79 112.84 643.36 107.25 M 739.38 178.34 732.04 172.74 M 652.08 112.66 644.65 107.07 M 739.2 177.06 731.86 171.45 M 653.36 112.48 645.93 106.89 M 739.02 175.77 731.68 170.17 M 654.65 112.3 647.22 106.71 M 738.84 174.49 731.51 168.98 M 655.93 112.12 648.5 106.53 M 738.66 173.21 731.33 167.7 M 657.22 111.94 649.79 106.35 M 738.49 172.02 731.15 166.41 M 658.5 111.76 651.07 106.17 M 738.31 170.73 730.97 165.13 M 659.79 111.58 652.36 105.99 M 738.13 169.45 730.79 163.85 M 661.07 111.4 653.64 105.81 M 737.95 168.17 730.61 162.56 M 662.36 111.22 654.93 105.63 M 737.77 166.89 730.43 161.28 M 663.64 111.04 656.21 105.44 M 737.58 165.6 730.24 160 M 664.84 110.87 657.5 105.26 M 737.4 164.32 730.06 158.72 M 666.12 110.69 658.69 105.1 M 737.22 163.04 729.88 157.43 M 667.41 110.51 659.97 104.92 M 737.04 161.75 729.7 156.15 M 668.69 110.33 661.26 104.74 M 736.86 160.47 729.52 154.87 M 669.97 110.15 662.54 104.56 M 736.68 159.19 729.34 153.58 M 671.26 109.97 663.83 104.38 M 736.5 157.91 729.17 152.39 M 672.54 109.79 665.11 104.2 M 736.33 156.71 728.99 151.11 M 673.83 109.61 666.4 104.02 M 736.15 155.43 728.81 149.83 M 675.11 109.43 667.68 103.84 M 735.97 154.15 728.63 148.54 M 676.4 109.25 668.97 103.65 M 735.79 152.87 728.45 147.26 M 677.68 109.07 670.25 103.47 M 735.61 151.58 728.27 145.98 M 678.97 108.89 671.54 103.29 M 735.43 150.3 728.09 144.7 M 680.16 108.72 672.82 103.11 M 735.25 149.02 727.91 143.41 M 681.45 108.54 674.02 102.95 M 735.07 147.73 727.73 142.13 M 682.73 108.36 675.3 102.77 M 734.89 146.45 727.55 140.85 M 684.02 108.18 676.58 102.59 M 734.71 145.17 727.37 139.56 M 685.3 108 677.87 102.41 M 734.53 143.89 727.19 138.28 M 686.59 107.82 679.15 102.23 M 734.35 142.6 727.02 137.09 M 687.87 107.64 680.44 102.05 M 734.17 141.32 726.84 135.81 M 689.16 107.46 681.72 101.86 M 734 140.13 726.66 134.52 M 690.44 107.28 683.01 101.68 M 733.82 138.85 726.48 133.24 M 691.73 107.1 684.29 101.5 M 733.64 137.56 726.3 131.96 M 693.01 106.92 685.58 101.32 M 733.46 136.28 726.12 130.68 M 694.3 106.74 686.86 101.14 M 733.28 135 725.94 129.39 M 695.49 106.57 688.15 100.96 M 733.1 133.71 725.76 128.11 M 696.77 106.39 689.43 100.78 M 732.92 132.43 725.58 126.83 M 698.06 106.21 690.63 100.62 M 732.74 131.15 725.39 125.54 M 699.34 106.03 691.91 100.44 M 732.55 129.87 725.21 124.26 M 700.63 105.85 693.2 100.25 M 732.37 128.58 725.03 122.98 M 701.91 105.67 694.48 100.07 M 732.19 127.3 724.85 121.7 M 703.2 105.49 695.77 99.89 M 732.01 126.02 724.69 120.51 M 704.48 105.31 697.05 99.71 M 731.85 124.83 724.5 119.22 M 705.77 105.13 698.34 99.53 M 731.66 123.54 724.32 117.94 M 707.05 104.95 699.62 99.35 M 731.48 122.26 724.14 116.66 M 708.34 104.76 700.91 99.17 M 731.3 120.98 723.96 115.37 M 709.62 104.58 702.19 98.99 M 731.12 119.7 723.78 114.09 M 710.82 104.42 703.48 98.81 M 730.94 118.41 723.6 112.81 M 712.1 104.24 704.76 98.63 M 730.76 117.13 723.42 111.53 M 713.39 104.06 705.95 98.46 M 730.58 115.85 723.24 110.24 M 714.67 103.88 707.24 98.28 M 730.4 114.56 723.06 108.96 M 715.96 103.7 708.52 98.1 M 730.22 113.28 722.88 107.68 M 717.24 103.52 709.81 97.92 M 730.04 112 722.7 106.39 M 718.53 103.34 711.09 97.74 M 729.86 110.72 722.53 105.2 M 719.81 103.16 712.38 97.56 M 729.68 109.43 723.5 104.79 M 719.84 102.03 713.66 97.38 M 729.51 108.24 724.79 104.61 M 719.66 100.75 714.95 97.2 M 729.33 106.96 726.07 104.43 M 719.48 99.46 716.23 97.02 M 729.15 105.68 727.36 104.25 M 719.3 98.18 717.52 96.84 M 728.97 104.39 728.64 104.06 M 719.12 96.9 718.8 96.66 M 588.79 123.78 588.87 123.68 M 588.97 125.07 590.15 123.5 M 589.15 126.35 591.43 123.32 M 589.56 127.32 592.72 123.14 M 590.85 127.14 594 122.96 M 592.13 126.96 595.29 122.78 M 593.42 126.78 595.47 124.06 M 594.7 126.6 595.65 125.34 M 589.75 127.29 589.22 126.9 M 591.03 127.11 589.04 125.62 M 592.23 126.94 588.86 124.33 M 593.51 126.76 589.42 123.6 M 594.8 126.58 590.7 123.42 M 595.75 126.08 591.99 123.24 M 595.59 124.88 593.27 123.06 M 595.41 123.6 594.56 122.88 M 172.81 314.84 172.31 311.92 M 172.31 311.92 171.52 308.95 M 171.52 308.95 170.57 306.18 M 170.57 306.18 169.42 303.35 M 169.42 303.35 168.02 300.75 M 168.02 300.75 166.44 298.17 M 166.44 298.17 164.69 295.7 M 164.69 295.7 162.78 293.45 M 162.78 293.45 160.7 291.31 M 160.7 291.31 158.36 289.3 M 158.36 289.3 156.06 287.57 M 156.06 287.57 153.48 285.87 M 153.48 285.87 150.85 284.47 M 150.85 284.47 148.06 283.27 M 148.06 283.27 145.3 282.26 M 145.3 282.26 142.38 281.45 M 142.38 281.45 139.48 280.83 M 139.48 280.83 136.44 280.51 M 136.44 280.51 133.52 280.36 M 133.52 280.36 130.44 280.42 M 130.44 280.42 127.49 280.74 M 127.49 280.74 124.56 281.24 M 124.56 281.24 121.59 282.03 M 121.59 282.03 118.82 282.98 M 118.82 282.98 115.99 284.13 M 115.99 284.13 113.37 285.52 M 113.37 285.52 110.79 287.1 M 110.79 287.1 108.32 288.85 M 108.32 288.85 106.06 290.75 M 106.06 290.75 103.92 292.83 M 103.92 292.83 101.91 295.17 M 101.91 295.17 100.17 297.47 M 100.17 297.47 98.48 300.04 M 98.48 300.04 97.07 302.67 M 97.07 302.67 95.86 305.36 M 95.86 305.36 94.86 308.21 M 94.86 308.21 94.05 311.13 M 94.05 311.13 93.43 314.02 M 93.43 314.02 93.11 317.05 M 93.11 317.05 92.95 319.97 M 92.95 319.97 93.01 323.05 M 93.01 323.05 93.33 325.99 M 93.33 325.99 93.84 328.91 M 93.84 328.91 94.63 331.88 M 94.63 331.88 95.58 334.65 M 95.58 334.65 96.73 337.48 M 96.73 337.48 98.13 340.08 M 98.13 340.08 99.71 342.66 M 99.71 342.66 101.44 345.04 M 101.44 345.04 103.36 347.38 M 103.36 347.38 105.44 349.52 M 105.44 349.52 107.79 351.53 M 107.79 351.53 110.09 353.26 M 110.09 353.26 112.67 354.95 M 112.67 354.95 115.3 356.36 M 115.3 356.36 117.99 357.57 M 117.99 357.57 120.85 358.57 M 120.85 358.57 123.77 359.38 M 123.77 359.38 126.67 360 M 126.67 360 129.71 360.32 M 129.71 360.32 132.63 360.47 M 132.63 360.47 135.71 360.41 M 135.71 360.41 138.66 360.09 M 138.66 360.09 141.58 359.59 M 141.58 359.59 144.56 358.8 M 144.56 358.8 147.33 357.85 M 147.33 357.85 150.16 356.7 M 150.16 356.7 152.77 355.31 M 152.77 355.31 155.36 353.73 M 155.36 353.73 157.73 351.99 M 157.73 351.99 160.08 350.08 M 160.08 350.08 162.23 348 M 162.23 348 164.24 345.66 M 164.24 345.66 165.97 343.36 M 165.97 343.36 167.67 340.79 M 167.67 340.79 169.08 338.16 M 169.08 338.16 170.28 335.38 M 170.28 335.38 171.29 332.62 M 171.29 332.62 172.1 329.7 M 172.1 329.7 172.72 326.81 M 172.72 326.81 173.04 323.78 M 173.04 323.78 173.19 320.86 M 173.19 320.86 173.13 317.78 M 173.13 317.78 172.81 314.84 M 173.2 322.26 175.73 322.93 M 175.73 322.93 178.34 323.5 M 178.34 323.5 181 323.78 M 181 323.78 183.64 323.97 M 183.64 323.97 186.24 323.79 M 186.24 323.79 188.91 323.51 M 188.91 323.51 191.46 322.97 M 191.46 322.97 193.98 322.24 M 193.98 322.24 196.47 321.33 M 196.47 321.33 198.83 320.16 M 198.83 320.16 201.18 318.89 M 201.18 318.89 203.31 317.38 M 203.31 317.38 205.41 315.68 M 205.41 315.68 207.3 313.83 M 207.3 313.83 208.99 311.91 M 208.99 311.91 210.66 309.81 M 210.66 309.81 212.03 307.56 M 212.03 307.56 213.3 305.23 M 213.3 305.23 214.26 302.76 M 214.26 302.76 215.13 300.3 M 215.13 300.3 215.79 297.69 M 215.79 297.69 216.18 295.11 M 216.18 295.11 216.37 292.47 M 216.37 292.47 216.37 289.85 M 216.37 289.85 216.18 287.17 M 216.18 287.17 215.73 284.62 M 215.73 284.62 215.08 282 M 215.08 282 214.26 279.5 M 214.26 279.5 213.27 277.11 M 213.27 277.11 212 274.77 M 212 274.77 210.56 272.54 M 210.56 272.54 208.96 270.43 M 208.96 270.43 207.27 268.42 M 207.27 268.42 205.34 266.64 M 205.34 266.64 203.23 264.97 M 203.23 264.97 201.06 263.5 M 201.06 263.5 198.81 262.13 M 198.81 262.13 196.4 260.98 M 196.4 260.98 193.93 260.11 M 193.93 260.11 191.39 259.34 M 191.39 259.34 188.8 258.87 M 188.8 258.87 186.13 258.49 M 186.13 258.49 183.49 258.4 M 183.49 258.4 180.9 258.57 M 180.9 258.57 178.22 258.86 M 178.22 258.86 175.68 259.4 M 175.68 259.4 173.16 260.13 M 173.16 260.13 170.67 261.04 M 170.67 261.04 168.31 262.21 M 168.31 262.21 165.97 263.56 M 165.97 263.56 163.84 265.08 M 163.84 265.08 161.74 266.77 M 161.74 266.77 159.84 268.54 M 159.84 268.54 158.16 270.55 M 158.16 270.55 156.58 272.64 M 156.58 272.64 155.12 274.9 M 155.12 274.9 153.95 277.21 M 153.95 277.21 152.89 279.7 M 152.89 279.7 152.02 282.15 M 152.02 282.15 151.45 284.76 M 152.53 255.83 152.2 254.19 M 152.2 254.19 151.62 252.68 M 151.62 252.68 150.94 251.19 M 150.94 251.19 149.98 249.74 M 149.98 249.74 148.89 248.58 M 148.89 248.58 147.6 247.45 M 147.6 247.45 146.16 246.53 M 146.16 246.53 144.66 245.81 M 144.66 245.81 143.09 245.28 M 143.09 245.28 141.46 245.04 M 141.46 245.04 139.85 244.9 M 139.85 244.9 138.19 245.04 M 138.19 245.04 136.55 245.36 M 136.55 245.36 135.04 245.95 M 135.04 245.95 133.54 246.62 M 133.54 246.62 132.09 247.58 M 132.09 247.58 130.93 248.67 M 130.93 248.67 129.8 249.95 M 129.8 249.95 128.88 251.39 M 128.88 251.39 128.14 252.8 M 128.14 252.8 127.63 254.46 M 127.63 254.46 127.39 256.08 M 127.39 256.08 127.24 257.69 M 127.24 257.69 127.38 259.36 M 127.38 259.36 127.7 260.99 M 127.7 260.99 128.29 262.5 M 128.29 262.5 128.97 263.99 M 128.97 263.99 129.91 265.35 M 129.91 265.35 131.02 266.6 M 131.02 266.6 132.3 267.73 M 132.3 267.73 133.74 268.65 M 133.74 268.65 135.16 269.38 M 135.16 269.38 136.82 269.9 M 136.82 269.9 138.44 270.14 M 138.44 270.14 140.06 270.28 M 140.06 270.28 141.72 270.14 M 141.72 270.14 143.36 269.82 M 143.36 269.82 144.87 269.24 M 144.87 269.24 146.36 268.56 M 146.36 268.56 147.73 267.62 M 147.73 267.62 148.98 266.51 M 148.98 266.51 150.11 265.23 M 150.11 265.23 151.03 263.79 M 151.03 263.79 151.75 262.29 M 151.75 262.29 152.28 260.72 M 152.28 260.72 152.52 259.1 M 152.52 259.1 152.67 257.49 M 152.67 257.49 152.53 255.83 M 93.53 343.34 93.21 341.71 M 93.21 341.71 92.62 340.2 M 92.62 340.2 91.94 338.71 M 91.94 338.71 90.99 337.25 M 90.99 337.25 89.89 336.1 M 89.89 336.1 88.61 334.97 M 88.61 334.97 87.17 334.05 M 87.17 334.05 85.66 333.33 M 85.66 333.33 84.09 332.8 M 84.09 332.8 82.47 332.56 M 82.47 332.56 80.85 332.41 M 80.85 332.41 79.19 332.55 M 79.19 332.55 77.55 332.88 M 77.55 332.88 76.04 333.46 M 76.04 333.46 74.55 334.14 M 74.55 334.14 73.09 335.09 M 73.09 335.09 71.93 336.19 M 71.93 336.19 70.8 337.47 M 70.8 337.47 69.88 338.91 M 69.88 338.91 69.15 340.32 M 69.15 340.32 68.63 341.98 M 68.63 341.98 68.39 343.6 M 68.39 343.6 68.24 345.21 M 68.24 345.21 68.38 346.87 M 68.38 346.87 68.71 348.51 M 68.71 348.51 69.29 350.01 M 69.29 350.01 69.97 351.51 M 69.97 351.51 70.91 352.87 M 70.91 352.87 72.02 354.12 M 72.02 354.12 73.31 355.25 M 73.31 355.25 74.75 356.16 M 74.75 356.16 76.16 356.9 M 76.16 356.9 77.82 357.41 M 77.82 357.41 79.45 357.65 M 79.45 357.65 81.06 357.8 M 81.06 357.8 82.72 357.66 M 82.72 357.66 84.36 357.34 M 84.36 357.34 85.87 356.75 M 85.87 356.75 87.37 356.08 M 87.37 356.08 88.73 355.14 M 88.73 355.14 89.98 354.03 M 89.98 354.03 91.11 352.75 M 91.11 352.75 92.03 351.31 M 92.03 351.31 92.76 349.81 M 92.76 349.81 93.28 348.24 M 93.28 348.24 93.52 346.61 M 93.52 346.61 93.67 345.01 M 93.67 345.01 93.53 343.34 M 164.55 391.12 164.23 389.49 M 164.23 389.49 163.64 387.98 M 163.64 387.98 162.96 386.49 M 162.96 386.49 162.01 385.03 M 162.01 385.03 160.91 383.88 M 160.91 383.88 159.63 382.75 M 159.63 382.75 158.19 381.83 M 158.19 381.83 156.68 381.11 M 156.68 381.11 155.11 380.58 M 155.11 380.58 153.49 380.34 M 153.49 380.34 151.88 380.2 M 151.88 380.2 150.21 380.34 M 150.21 380.34 148.57 380.66 M 148.57 380.66 147.06 381.24 M 147.06 381.24 145.57 381.92 M 145.57 381.92 144.11 382.87 M 144.11 382.87 142.96 383.97 M 142.96 383.97 141.83 385.25 M 141.83 385.25 140.9 386.69 M 140.9 386.69 140.17 388.1 M 140.17 388.1 139.65 389.76 M 139.65 389.76 139.41 391.38 M 139.41 391.38 139.26 392.99 M 139.26 392.99 139.41 394.65 M 139.41 394.65 139.73 396.29 M 139.73 396.29 140.32 397.8 M 140.32 397.8 140.99 399.29 M 140.99 399.29 141.93 400.65 M 141.93 400.65 143.05 401.9 M 143.05 401.9 144.33 403.03 M 144.33 403.03 145.77 403.95 M 145.77 403.95 147.18 404.68 M 147.18 404.68 148.84 405.2 M 148.84 405.2 150.47 405.44 M 150.47 405.44 152.08 405.58 M 152.08 405.58 153.75 405.44 M 153.75 405.44 155.39 405.12 M 155.39 405.12 156.89 404.53 M 156.89 404.53 158.39 403.86 M 158.39 403.86 159.75 402.92 M 159.75 402.92 161 401.81 M 161 401.81 162.13 400.53 M 162.13 400.53 163.05 399.09 M 163.05 399.09 163.78 397.59 M 163.78 397.59 164.31 396.02 M 164.31 396.02 164.54 394.4 M 164.54 394.4 164.69 392.79 M 164.69 392.79 164.55 391.12 M 245.13 317.31 244.81 315.67 M 244.81 315.67 244.22 314.16 M 244.22 314.16 243.54 312.67 M 243.54 312.67 242.59 311.21 M 242.59 311.21 241.49 310.06 M 241.49 310.06 240.21 308.93 M 240.21 308.93 238.77 308.01 M 238.77 308.01 237.26 307.29 M 237.26 307.29 235.69 306.76 M 235.69 306.76 234.07 306.52 M 234.07 306.52 232.46 306.38 M 232.46 306.38 230.79 306.52 M 230.79 306.52 229.15 306.84 M 229.15 306.84 227.64 307.43 M 227.64 307.43 226.15 308.1 M 226.15 308.1 224.69 309.05 M 224.69 309.05 223.53 310.15 M 223.53 310.15 222.4 311.43 M 222.4 311.43 221.48 312.87 M 221.48 312.87 220.75 314.28 M 220.75 314.28 220.23 315.94 M 220.23 315.94 219.99 317.56 M 219.99 317.56 219.84 319.17 M 219.84 319.17 219.98 320.83 M 219.98 320.83 220.31 322.47 M 220.31 322.47 220.89 323.98 M 220.89 323.98 221.57 325.47 M 221.57 325.47 222.51 326.83 M 222.51 326.83 223.62 328.08 M 223.62 328.08 224.91 329.21 M 224.91 329.21 226.35 330.13 M 226.35 330.13 227.76 330.86 M 227.76 330.86 229.42 331.38 M 229.42 331.38 231.05 331.62 M 231.05 331.62 232.66 331.76 M 232.66 331.76 234.32 331.62 M 234.32 331.62 235.96 331.3 M 235.96 331.3 237.47 330.71 M 237.47 330.71 238.97 330.04 M 238.97 330.04 240.33 329.1 M 240.33 329.1 241.58 327.99 M 241.58 327.99 242.71 326.71 M 242.71 326.71 243.63 325.27 M 243.63 325.27 244.36 323.77 M 244.36 323.77 244.88 322.2 M 244.88 322.2 245.12 320.58 M 245.12 320.58 245.27 318.97 M 245.27 318.97 245.13 317.31 M 368.85 268.74 260.46 283.94 M 260.46 283.94 255.59 249.31 M 255.59 249.31 363.98 234.1 M 363.98 234.1 368.85 268.74"/>
</g>
</svg>