<?xml version="1.0"?>
<svg xmlns="http://www.w3.org/2000/svg" version="1.2" baseProfile="tiny" width="800" height="993" viewBox="0 0 800 993" stroke-linecap="round" stroke-linejoin="round">
<g id="コミュニティデッキ" fill="none" stroke="black" stroke-width="1">
<path d="M 278.87 832.8 398.77 739.18 M 247.85 793.12 523.78 577.65 M 274.09 498.19 253.07 512.84 M 148.32 597.78 324.9 459.89 M 116.61 625.54 326.75 461.45 M 120.08 629.98 331.23 465.1 M 123.54 634.41 335.78 468.68 M 126.95 638.77 340.2 472.25 M 148.56 496.08 144.38 495.71 M 153.22 497.71 149.04 497.33 M 153.3 497.01 155.37 493.4 M 471.2 935.13 401.72 989.64 M 396.31 982.71 465.91 928.36 M 399.71 987.07 469.32 932.72 M 147.69 665.31 367.09 493.98 M 799 754.1 748.86 816.19 M 84.52 499.97 80.47 500.88 M 80.47 500.88 74.74 475.9 M 75.97 503.14 70.18 478.09 M 74.23 477.18 80.02 502.23 M 80.02 502.23 75.97 503.14 M 103.96 541.19 148.32 597.78 M 103.96 541.19 35.98 454.54 M 204.44 523.13 206.3 519.42 M 228.65 529.4 205.53 518.27 M 201.29 526.96 203.15 523.25 M 233.68 521.72 231.88 525.51 M 234.71 516.78 232.91 520.57 M 206.3 519.42 229.43 530.55 M 228.65 529.4 230.46 525.62 M 230.46 525.62 207.33 514.48 M 231.88 525.51 208.69 514.29 M 210.55 510.58 233.68 521.72 M 232.91 520.57 209.78 509.43 M 211.58 505.64 234.71 516.78 M 226.28 534.39 224.42 538.1 M 229.43 530.55 227.62 534.34 M 224.42 538.1 201.29 526.96 M 203.15 523.25 226.28 534.39 M 227.62 534.34 204.44 523.13 M 165.45 476.62 187.49 489.74 M 185.99 494.55 183.78 498.15 M 182.44 498.2 180.24 501.8 M 205.53 518.27 207.33 514.48 M 196.91 492.16 200.41 494.56 M 192.27 490.4 195.71 492.72 M 205.1 497.67 208.53 500.13 M 208.37 501.38 211.82 503.7 M 200.32 495.89 203.83 498.29 M 208.69 514.29 210.55 510.58 M 209.78 509.43 211.58 505.64 M 187.49 489.74 185.29 493.34 M 158.2 488.68 160.4 485.08 M 155.72 472.19 153.22 497.71 M 149.04 497.33 151.62 471.76 M 151.06 470.57 148.56 496.08 M 146.12 471.3 143.56 496.73 M 144.38 495.71 146.96 470.13 M 139.38 496.36 141.96 470.79 M 141.4 469.59 138.76 495.09 M 158.9 489.89 180.93 503.01 M 181.21 513.94 177.76 511.62 M 178.73 506.61 156.69 493.49 M 156.69 493.49 158.9 489.89 M 143.56 496.73 139.38 496.36 M 177.41 506.51 175.34 510.13 M 175.34 510.13 153.3 497.01 M 155.37 493.4 177.41 506.51 M 194.1 521.3 190.6 518.9 M 180.93 503.01 178.73 506.61 M 185.99 515.73 182.54 513.4 M 189.4 519.45 185.96 517.13 M 197.46 524.94 193.95 522.54 M 146.96 470.13 151.06 470.57 M 141.96 470.79 146.12 471.3 M 137.16 469.14 141.4 469.59 M 132.15 469.79 136.39 470.24 M 151.62 471.76 155.72 472.19 M 161.74 485.03 163.95 481.43 M 133.75 495.74 129.57 495.37 M 100.17 478.6 125.81 476.75 M 98.71 473.85 124.29 471.92 M 124.63 476.05 98.97 478.03 M 126.15 480.88 100.57 482.8 M 99.42 483.58 125.06 481.73 M 125.32 485.91 99.74 487.84 M 100.94 488.41 126.57 486.56 M 84.3 473.7 88.36 472.79 M 89.22 473.74 93.28 472.83 M 99.74 487.84 99.42 483.58 M 90.03 498.67 84.3 473.7 M 101.2 492.59 100.94 488.41 M 100.57 482.8 100.17 478.6 M 98.97 478.03 98.71 473.85 M 125.06 481.73 125.32 485.91 M 124.29 471.92 124.63 476.05 M 125.81 476.75 126.15 480.88 M 126.1 495.57 100.46 497.42 M 99.07 497.88 95.01 498.79 M 126.1 495.57 125.7 491.37 M 125.7 491.37 100.12 493.3 M 126.83 490.74 101.2 492.59 M 90.03 498.67 94.09 497.77 M 94.09 497.77 88.36 472.79 M 83.85 475.05 89.58 500.03 M 100.46 497.42 100.12 493.3 M 93.28 472.83 99.07 497.88 M 95.01 498.79 89.22 473.74 M 126.57 486.56 126.83 490.74 M 74.74 475.9 78.79 474.99 M 70.18 478.09 74.23 477.18 M 78.79 474.99 84.52 499.97 M 85.53 500.94 79.8 475.96 M 79.8 475.96 83.85 475.05 M 89.58 500.03 85.53 500.94 M 134.58 494.71 137.16 469.14 M 136.39 470.24 133.75 495.74 M 138.76 495.09 134.58 494.71 M 129.57 495.37 132.15 469.79 M 163.95 481.43 185.99 494.55 M 185.29 493.34 163.25 480.22 M 160.4 485.08 182.44 498.2 M 183.78 498.15 161.74 485.03 M 177.76 511.62 192.27 490.4 M 180.24 501.8 158.2 488.68 M 185.96 517.13 200.32 495.89 M 203.83 498.29 189.4 519.45 M 190.6 518.9 205.1 497.67 M 200.41 494.56 185.99 515.73 M 182.54 513.4 196.91 492.16 M 195.71 492.72 181.21 513.94 M 193.95 522.54 208.37 501.38 M 208.53 500.13 194.1 521.3 M 211.82 503.7 197.46 524.94 M 163.25 480.22 165.45 476.62 M 227.96 343.1 225.58 339.57 M 246.9 325.3 249.28 328.83 M 243.74 320.62 222.42 334.89 M 225.58 339.57 246.9 325.3 M 222.42 334.89 220.1 331.44 M 220.1 331.44 241.42 317.17 M 223.77 334.85 245.16 320.52 M 247.55 324.05 226.15 338.37 M 226.15 338.37 223.77 334.85 M 241.42 317.17 243.74 320.62 M 245.16 320.52 247.55 324.05 M 246.53 378.73 271.28 372.05 M 253.67 372.78 249.93 374.57 M 230.99 347.62 252.32 333.36 M 254.7 336.88 233.32 351.07 M 234.15 352.3 238.03 350.53 M 249.28 328.83 227.96 343.1 M 252.95 332.24 231.62 346.5 M 231.62 346.5 229.24 342.98 M 249.93 374.57 238.99 351.28 M 238.03 350.53 248.9 373.74 M 248.9 373.74 245.02 375.52 M 267.57 405.16 271.71 405.81 M 272.6 404.86 276.75 405.51 M 233.32 351.07 230.99 347.62 M 245.02 375.52 234.15 352.3 M 262.56 368.59 258.82 370.38 M 266.53 365.49 262.79 367.28 M 257.64 369.68 253.84 371.39 M 276.36 390.9 277.41 394.97 M 271.28 372.05 272.33 376.12 M 273.68 376.57 274.81 380.58 M 273.84 381.58 274.97 385.59 M 276.26 385.96 277.31 390.03 M 251.85 343.99 255.65 342.28 M 247.94 347.17 251.68 345.38 M 238.99 351.28 242.79 349.56 M 229.24 342.98 250.62 328.79 M 242.96 348.18 246.76 346.46 M 252.32 333.36 254.7 336.88 M 250.62 328.79 252.95 332.24 M 242.79 349.56 253.67 372.78 M 253.84 371.39 242.96 348.18 M 246.76 346.46 257.64 369.68 M 258.82 370.38 247.94 347.17 M 262.79 367.28 251.85 343.99 M 255.65 342.28 266.53 365.49 M 251.68 345.38 262.56 368.59 M 244.91 484.12 247.14 458.58 M 246.66 457.32 244.5 482.95 M 240.24 482.64 242.4 457.01 M 249.09 484.5 244.91 484.12 M 266.56 485.51 245.61 500.25 M 243.21 496.86 264.24 482.06 M 248.84 504.87 269.88 490.07 M 268.45 490.18 247.5 504.91 M 245.1 501.52 266.06 486.79 M 272.26 493.6 251.24 508.26 M 250.67 509.45 271.63 494.72 M 244.5 482.95 240.24 482.64 M 245.61 500.25 243.21 496.86 M 247.5 504.91 245.1 501.52 M 253.07 512.84 250.67 509.45 M 251.24 508.26 248.84 504.87 M 267.97 458.6 242.95 452.58 M 270.2 454.23 245.17 448.21 M 268.9 454.49 243.94 448.55 M 243.94 448.55 242.95 452.58 M 272.36 430.86 268.24 430.07 M 266.08 459.07 263.86 484.62 M 259.68 484.25 261.9 458.7 M 261.14 459.8 258.91 485.35 M 254.73 484.98 256.96 459.43 M 256.26 458.22 254.04 483.77 M 254.04 483.77 249.86 483.39 M 251.32 458.95 249.09 484.5 M 261.9 458.7 266.08 459.07 M 256.96 459.43 261.14 459.8 M 271.18 445.07 270.19 449.1 M 268.9 454.49 267.97 458.6 M 271.12 450.12 270.2 454.23 M 264.24 482.06 266.56 485.51 M 263.86 484.62 259.68 484.25 M 258.91 485.35 254.73 484.98 M 266.06 486.79 268.45 490.18 M 269.88 490.07 272.26 493.6 M 271.63 494.72 274.09 498.19 M 242.4 457.01 246.66 457.32 M 273.48 435.5 272.42 439.59 M 249.86 483.39 252.08 457.85 M 247.14 458.58 251.32 458.95 M 273.42 440.56 272.5 444.67 M 252.08 457.85 256.26 458.22 M 262.65 429.18 258.52 428.39 M 245.23 443.15 246.22 439.12 M 247.48 438.64 248.46 434.61 M 257.61 429.47 253.49 428.68 M 272.42 439.59 247.46 433.64 M 248.46 434.61 273.42 440.56 M 272.5 444.67 247.48 438.64 M 246.16 444.18 271.12 450.12 M 270.19 449.1 245.23 443.15 M 246.22 439.12 271.18 445.07 M 245.17 448.21 246.16 444.18 M 267.33 431.16 263.13 430.43 M 257.51 402.23 253.14 427.45 M 253.38 401.45 248.94 426.72 M 248.94 426.72 253.14 427.45 M 250.14 392.32 249.09 388.26 M 250.06 387.25 248.87 383.16 M 253.38 401.45 257.51 402.23 M 257.93 403.41 262.05 404.2 M 252.65 401.64 251.61 397.57 M 252.56 396.7 251.43 392.69 M 253.49 428.68 257.93 403.41 M 247.46 433.64 248.52 429.55 M 258.52 428.39 262.96 403.11 M 262.05 404.2 257.61 429.47 M 248.52 429.55 273.48 435.5 M 272.33 376.12 247.58 382.79 M 248.87 383.16 273.68 376.57 M 274.81 380.58 250.06 387.25 M 249.09 388.26 273.84 381.58 M 251.43 392.69 276.26 385.96 M 274.97 385.59 250.14 392.32 M 277.31 390.03 252.56 396.7 M 251.61 397.57 276.36 390.9 M 277.41 394.97 252.65 401.64 M 247.58 382.79 246.53 378.73 M 262.96 403.11 267.09 403.9 M 263.13 430.43 267.57 405.16 M 267.09 403.9 262.65 429.18 M 268.24 430.07 272.6 404.86 M 276.75 405.51 272.36 430.86 M 271.71 405.81 267.33 431.16 M 748.86 816.19 622.75 714.53 M 750.42 814.34 624.25 712.61 M 651.29 680.47 742.17 753.74 M 512.72 523.88 550.49 554.41 M 440.39 501.29 422.52 523.51 M 641.96 628.1 550.49 554.41 M 550.49 554.41 641.37 627.68 M 518.98 573.76 651.29 680.47 M 742.17 753.74 776.75 781.62 M 553.37 980.25 563.69 992.49 M 599.29 958.8 600.77 960.53 M 595.54 954.33 594.01 952.52 M 594.01 952.52 599.29 958.8 M 588.79 946.32 590.26 948.05 M 585.04 941.85 583.5 940.05 M 583.5 940.05 588.79 946.32 M 588.79 946.32 594.01 952.52 M 560.92 989.26 562.45 991.07 M 557.17 984.79 555.69 983.06 M 555.69 983.06 560.92 989.26 M 545.13 970.51 546.67 972.32 M 551.95 978.6 550.41 976.79 M 550.41 976.79 545.13 970.51 M 550.41 976.79 555.69 983.06 M 555.69 983.06 594.01 952.52 M 600.77 960.53 562.45 991.07 M 595.54 954.33 557.17 984.79 M 599.29 958.8 560.92 989.26 M 594.01 952.52 555.69 983.06 M 590.26 948.05 551.95 978.6 M 583.5 940.05 545.13 970.51 M 585.04 941.85 546.67 972.32 M 579.76 935.58 541.38 966.04 M 583.5 940.05 545.13 970.51 M 588.79 946.32 550.41 976.79 M 573 927.57 578.22 933.77 M 536.16 959.84 534.63 958.04 M 534.63 958.04 539.91 964.31 M 534.63 958.04 573 927.57 M 574.48 929.3 536.16 959.84 M 578.22 933.77 539.91 964.31 M 602.3 962.33 573 927.57 M 579.76 935.58 578.22 933.77 M 578.22 933.77 583.5 940.05 M 541.38 966.04 539.91 964.31 M 539.91 964.31 545.13 970.51 M 633.46 668.08 649.66 681.11 M 602.47 706.56 619.64 720.34 M 622.67 714.59 606.54 701.5 M 623.1 714.01 606.97 700.92 M 574.58 741.12 602.47 706.56 M 576.67 741.87 604.08 707.81 M 643.58 676.21 617.01 709.11 M 602.47 706.56 633.46 668.08 M 611.57 704.72 638.13 671.82 M 575 740.54 592.17 754.33 M 592.17 754.33 591.75 754.91 M 591.75 754.91 574.58 741.12 M 619.64 720.34 592.17 754.33 M 587.05 750.18 614.44 716.26 M 609.26 712.03 581.79 746.02 M 649.66 681.11 622.67 714.59 M 591.75 754.91 457.58 646.63 M 592.17 754.33 458.13 646.21 M 403.09 744.7 352.95 783.85 M 458.13 646.21 376.15 710.23 M 376.15 710.23 403.09 744.7 M 324.9 459.89 439.78 552.64 M 469.7 614.49 428.33 561.58 M 485 601.67 444.49 549.84 M 479.78 605.74 439.27 553.92 M 474.57 609.81 434.05 557.99 M 490.72 598.08 449.36 545.16 M 428.33 561.58 449.36 545.16 M 428.76 562.12 449.78 545.71 M 469.7 614.49 490.72 598.08 M 469.27 613.95 490.29 597.53 M 352.95 783.85 471.2 935.13 M 242.08 680.83 200.77 627.99 M 200.77 627.99 190.58 635.96 M 242.08 680.83 231.88 688.79 M 231.88 688.79 190.58 635.96 M 355.09 432.43 440.39 501.29 M 422.52 523.51 449.36 545.16 M 1 477.97 401.72 989.64 M 6.11 484.51 39.2 458.67 M 9.58 488.94 42.67 463.1 M 12.98 493.3 46.15 467.4 M 16.45 497.74 49.62 471.84 M 19.92 502.17 53.09 476.27 M 23.32 506.53 56.49 480.63 M 26.79 510.96 59.96 485.06 M 30.26 515.4 63.43 489.5 M 33.73 519.84 66.89 493.94 M 37.21 524.13 70.3 498.29 M 40.68 528.57 73.77 502.73 M 44.14 533 77.23 507.16 M 47.55 537.36 80.72 511.46 M 51.02 541.8 84.19 515.9 M 54.49 546.23 87.65 520.33 M 57.89 550.59 91.06 524.69 M 61.36 555.03 94.53 529.13 M 64.83 559.46 97.99 533.56 M 68.23 563.82 101.4 537.92 M 71.7 568.25 104.87 542.35 M 75.17 572.69 108.33 546.79 M 78.63 577.12 111.8 551.23 M 82.04 581.48 115.21 555.58 M 85.51 585.92 118.75 559.96 M 88.98 590.35 122.22 564.39 M 92.38 594.71 125.63 568.75 M 95.85 599.15 129.09 573.19 M 99.32 603.58 132.56 577.62 M 102.72 607.94 135.97 581.98 M 106.27 612.31 139.44 586.42 M 109.74 616.75 142.9 590.85 M 113.2 621.19 146.37 595.29 M 151.1 669.67 191.97 637.75 M 154.57 674.1 195.44 642.18 M 158.03 678.54 198.91 646.62 M 161.44 682.89 202.32 650.98 M 164.91 687.33 205.78 655.41 M 168.37 691.77 209.25 659.85 M 171.78 696.12 212.66 664.2 M 175.33 700.5 216.12 668.64 M 178.79 704.93 219.59 673.08 M 182.2 709.29 223 677.43 M 185.67 713.73 226.46 681.87 M 189.13 718.16 229.93 686.3 M 130.42 643.21 344.68 475.9 M 133.88 647.64 349.16 479.54 M 137.29 652 353.58 483.11 M 140.76 656.44 358.14 486.69 M 144.23 660.87 362.62 490.34 M 151.1 669.67 371.51 497.55 M 154.57 674.1 375.99 501.2 M 158.03 678.54 380.55 504.78 M 161.44 682.89 384.97 508.35 M 164.91 687.33 389.45 511.99 M 168.37 691.77 393.93 515.64 M 171.78 696.12 398.35 519.2 M 175.33 700.5 402.9 522.79 M 178.79 704.93 407.38 526.43 M 182.2 709.29 411.8 530 M 185.67 713.73 416.28 533.65 M 189.13 718.16 420.76 537.29 M 192.6 722.6 425.24 540.94 M 196.01 726.96 429.74 544.44 M 199.47 731.39 434.22 548.09 M 202.94 735.83 438.69 551.73 M 372.82 446.78 395.32 429.21 M 377.38 450.36 399.8 432.85 M 381.86 454.01 404.28 436.5 M 386.28 457.57 408.78 440 M 390.76 461.22 413.26 443.65 M 395.24 464.86 417.74 447.29 M 399.72 468.51 422.22 450.94 M 404.21 472.02 426.64 454.51 M 408.69 475.66 431.19 458.09 M 413.17 479.31 435.67 461.74 M 417.59 482.87 440.09 465.3 M 422.07 486.52 444.57 468.95 M 426.63 490.1 449.05 472.59 M 431.05 493.67 453.55 476.1 M 435.53 497.32 458.03 479.74 M 440 500.96 462.51 483.39 M 426.44 518.57 466.92 486.96 M 425.78 526.23 471.4 490.6 M 430.34 529.81 475.96 494.19 M 434.82 533.46 480.44 497.83 M 439.23 537.03 484.86 501.4 M 443.71 540.67 489.34 505.04 M 448.19 544.32 493.82 508.69 M 258.19 806.35 378.09 712.72 M 261.6 810.7 381.5 717.08 M 265.07 815.14 384.97 721.51 M 268.53 819.57 388.43 725.95 M 272 824.01 391.9 730.38 M 275.41 828.37 395.31 734.74 M 282.34 837.24 402.24 743.61 M 285.75 841.6 355.51 787.12 M 289.21 846.03 358.97 791.56 M 292.68 850.47 362.44 795.99 M 296.09 854.82 365.85 800.35 M 299.56 859.26 369.32 804.79 M 303.02 863.7 372.78 809.22 M 306.49 868.13 376.25 813.66 M 309.9 872.49 379.66 818.01 M 313.36 876.92 383.12 822.45 M 316.91 881.3 386.59 826.89 M 320.32 885.66 390 831.24 M 323.78 890.09 393.46 835.68 M 327.25 894.53 396.93 840.11 M 330.66 898.89 400.34 844.47 M 334.12 903.32 403.81 848.91 M 337.59 907.76 407.27 853.34 M 341.06 912.19 410.74 857.78 M 344.46 916.55 414.15 862.14 M 347.93 920.99 417.61 866.57 M 351.4 925.42 421.08 871.01 M 354.81 929.78 424.49 875.37 M 358.27 934.21 427.95 879.8 M 361.74 938.65 431.42 884.24 M 365.15 943.01 434.83 888.59 M 368.61 947.44 438.3 893.03 M 372.08 951.88 441.76 897.47 M 375.49 956.24 445.17 901.82 M 378.95 960.67 448.64 906.26 M 382.42 965.11 452.1 910.69 M 385.97 969.48 455.57 915.13 M 389.37 973.84 458.98 919.49 M 392.84 978.28 462.44 923.92 M 626.53 717.6 690.76 667.44 M 631.08 721.18 695.24 671.09 M 635.56 724.83 699.72 674.73 M 639.98 728.39 704.14 678.3 M 644.46 732.04 708.62 681.94 M 648.94 735.69 713.17 685.53 M 653.36 739.25 717.59 689.1 M 657.92 742.84 722.07 692.74 M 662.4 746.48 726.55 696.39 M 666.88 750.13 731.03 700.03 M 671.29 753.69 735.45 703.6 M 675.77 757.34 740.01 707.18 M 680.33 760.92 744.49 710.83 M 684.75 764.49 748.9 714.4 M 689.23 768.14 753.38 718.04 M 693.71 771.78 757.86 721.69 M 698.13 775.35 762.36 725.19 M 702.68 778.93 766.84 728.84 M 707.16 782.58 771.32 732.48 M 711.64 786.22 775.8 736.13 M 734 804.23 791.92 759 M 738.48 807.88 776.39 778.27 M 742.89 811.45 760.8 797.46 M 567.47 735.4 603.44 707.31 M 571.96 738.9 607.86 710.87 M 576.44 742.55 612.34 714.52 M 580.92 746.19 616.81 718.16 M 585.34 749.76 613.84 727.51 M 589.82 753.4 598.31 746.78 M 608.65 703.23 672.89 653.08 M 613.07 706.8 677.3 656.64 M 617.55 710.45 681.78 660.29 M 622.11 714.03 686.26 663.93 M 626.53 717.6 690.76 667.44 M 631.08 721.18 695.24 671.09 M 635.56 724.83 699.72 674.73 M 639.98 728.39 704.14 678.3 M 644.46 732.04 708.62 681.94 M 648.94 735.69 713.17 685.53 M 653.36 739.25 717.59 689.1 M 657.92 742.84 722.07 692.74 M 662.4 746.48 726.55 696.39 M 666.88 750.13 731.03 700.03 M 671.29 753.69 735.45 703.6 M 675.77 757.34 740.01 707.18 M 680.33 760.92 744.49 710.83 M 684.75 764.49 748.9 714.4 M 689.23 768.14 753.38 718.04 M 693.71 771.78 757.86 721.69 M 698.13 775.35 762.36 725.19 M 702.68 778.93 766.84 728.84 M 707.16 782.58 771.32 732.48 M 711.64 786.22 775.8 736.13 M 558.51 728.1 630.29 672.05 M 562.99 731.75 614.76 691.32 M 630.29 672.05 663.85 645.85 M 614.76 691.32 668.41 649.43 M 608.65 703.23 672.89 653.08 M 613.07 706.8 677.3 656.64 M 617.55 710.45 681.78 660.29 M 622.11 714.03 686.26 663.93 M 519.3 574.01 547.56 551.94 M 523.78 577.65 552.04 555.58 M 528.27 581.16 556.46 559.15 M 532.75 584.8 560.94 562.8 M 537.23 588.45 565.42 566.44 M 541.65 592.02 569.84 570.01 M 546.13 595.66 574.39 573.59 M 550.69 599.25 578.87 577.24 M 555.17 602.89 583.35 580.88 M 559.59 606.46 587.77 584.45 M 564.07 610.1 592.25 588.1 M 568.54 613.75 596.81 591.68 M 573.04 617.26 601.23 595.25 M 577.52 620.9 605.71 598.89 M 582 624.55 610.18 602.54 M 586.42 628.11 614.6 606.11 M 590.9 631.76 619.16 609.69 M 595.46 635.34 623.64 613.33 M 599.93 638.99 628.12 616.98 M 604.35 642.56 632.54 620.55 M 608.83 646.2 637.02 624.19 M 613.31 649.85 641.57 627.78 M 617.73 653.41 645.99 631.34 M 622.29 657 650.47 634.99 M 626.77 660.64 654.95 638.63 M 631.19 664.21 659.37 642.2 M 635.67 667.86 663.85 645.85 M 640.14 671.5 668.41 649.43 M 644.7 675.08 672.89 653.08 M 649.12 678.65 677.3 656.64 M 460.08 648.7 537.23 588.45 M 464.49 652.27 541.65 592.02 M 468.97 655.91 546.13 595.66 M 473.45 659.56 550.69 599.25 M 478.01 663.14 555.17 602.89 M 482.43 666.71 559.59 606.46 M 486.91 670.35 564.07 610.1 M 491.39 674 568.54 613.75 M 495.81 677.57 573.04 617.26 M 500.36 681.15 577.52 620.9 M 504.84 684.8 582 624.55 M 509.26 688.36 586.42 628.11 M 513.74 692.01 590.9 631.76 M 518.22 695.65 595.46 635.34 M 522.78 699.24 599.93 638.99 M 527.2 702.81 604.35 642.56 M 531.68 706.45 608.83 646.2 M 536.16 710.1 613.31 649.85 M 540.57 713.66 617.73 653.41 M 545.13 717.25 622.29 657 M 549.61 720.89 626.77 660.64 M 554.03 724.46 631.19 664.21 M 558.51 728.1 635.67 667.86 M 562.99 731.75 640.14 671.5 M 571.96 738.9 649.12 678.65 M 460.08 648.7 537.23 588.45 M 464.49 652.27 541.65 592.02 M 468.97 655.91 546.13 595.66 M 473.45 659.56 550.69 599.25 M 478.01 663.14 555.17 602.89 M 482.43 666.71 559.59 606.46 M 486.91 670.35 564.07 610.1 M 491.39 674 568.54 613.75 M 495.81 677.57 573.04 617.26 M 500.36 681.15 577.52 620.9 M 504.84 684.8 582 624.55 M 509.26 688.36 586.42 628.11 M 513.74 692.01 590.9 631.76 M 518.22 695.65 595.46 635.34 M 522.78 699.24 599.93 638.99 M 527.2 702.81 604.35 642.56 M 531.68 706.45 608.83 646.2 M 536.16 710.1 613.31 649.85 M 540.57 713.66 617.73 653.41 M 545.13 717.25 622.29 657 M 549.61 720.89 626.77 660.64 M 554.03 724.46 631.19 664.21 M 558.51 728.1 635.67 667.86 M 562.99 731.75 640.14 671.5 M 567.47 735.4 644.7 675.08 M 571.96 738.9 649.12 678.65 M 430.89 564.85 498.24 512.26 M 434.36 569.28 502.79 515.84 M 437.82 573.72 507.27 519.49 M 441.23 578.08 511.69 523.05 M 444.7 582.51 516.17 526.7 M 448.16 586.95 520.65 530.34 M 451.63 591.38 525.21 533.93 M 455.04 595.74 529.63 537.5 M 458.51 600.17 534.11 541.14 M 461.97 604.61 538.58 544.79 M 465.38 608.97 543 548.35 M 468.85 613.4 547.56 551.94 M 206.35 740.18 430.89 564.85 M 209.82 744.62 434.36 569.28 M 213.28 749.06 437.82 573.72 M 216.69 753.41 441.23 578.08 M 220.16 757.85 444.7 582.51 M 223.62 762.28 448.16 586.95 M 227.09 766.72 451.63 591.38 M 230.5 771.08 455.04 595.74 M 233.96 775.51 458.51 600.17 M 237.43 779.95 461.97 604.61 M 240.84 784.31 465.38 608.97 M 244.31 788.74 468.85 613.4 M 251.26 797.47 528.27 581.16 M 254.72 801.91 532.75 584.8 M 799 754.1 641.96 628.1 M 512.72 523.88 394.18 428.22 M 716.06 789.79 780.64 739.37 M 720.54 793.44 785.15 742.99 M 725.02 797.08 789.66 746.61 M 729.52 800.59 794.09 750.16 M 797.08 752.56 746.93 814.68 M 372.56 410.79 355.09 432.43 M 372.56 410.79 395.32 429.21 M 371.02 412.72 373.02 411.16 M 355.49 431.99 377.51 414.79 M 359.45 435.92 381.93 418.37 M 363.93 439.56 386.42 422 M 368.41 443.21 390.91 425.64 M 679.4 23.85 209.68 337.98 M 676.77 19.96 208.02 333.44 M 672.34 13.4 205.09 325.46 M 668.17 7.11 202.51 318.42 M 667.31 1 200.55 313.06"/>
</g>
</svg>