<svg xmlns="http://www.w3.org/2000/svg" viewBox="0 0 21 21" height="21" width="21"><rect fill="none" width="21" height="21"/><path fill="rgba(255,255,255,0.75)" transform="translate(3 3)" d="M8,7L5,5,2,7,1,9v4H3V11H7v2H9V9ZM6,9H4V7H6V9Zm8,4H11V3.5a1.5,1.5,0,0,1,3,0V13Z" style="stroke-linejoin:round;stroke-miterlimit:4" stroke="rgba(255,255,255,0.75)" stroke-width="2"/><path fill="#735139" transform="translate(3 3)" d="M8,7L5,5,2,7,1,9v4H3V11H7v2H9V9ZM6,9H4V7H6V9Zm8,4H11V3.5a1.5,1.5,0,0,1,3,0V13Z"/></svg>