<svg xmlns="http://www.w3.org/2000/svg" viewBox="0 0 17 17" height="17" width="17"><rect fill="none" width="17" height="17"/><path fill="rgba(255,255,255,0.75)" transform="translate(3 3)" d="M6.334,0L5,1v3L1,6.0547V10h3V7	h3v3h3V6.0547L6,4V2.25L6.334,2l1.332,1L9,2V0L7.666,1L6.334,0z" style="stroke-linejoin:round;stroke-miterlimit:4" stroke="rgba(255,255,255,0.75)" stroke-width="2"/><path fill="#735139" transform="translate(3 3)" d="M6.334,0L5,1v3L1,6.0547V10h3V7	h3v3h3V6.0547L6,4V2.25L6.334,2l1.332,1L9,2V0L7.666,1L6.334,0z"/></svg>