<svg version="1.1" id="_x31_0" xmlns="http://www.w3.org/2000/svg" x="0px" y="0px" viewBox="0 0 512 512" style="width:16px;height:16px;opacity:1" xml:space="preserve"><style>.st0{fill:#374149}</style><g><path class="st0" d="M455.677,236.496h-20.664v35.938l-99.798-56.535v-34.622l106.266,2.677v-80.014h-20.664v36.089l-92.392-52.075 L317.1,0H194.901l-2.617,20.526l-8.762,67.459l-92.331,52.042v-36.089H70.527v80.014l106.286-2.677l-0.027,28.125v6.501 l-99.794,56.532v-35.938H56.327v79.853l110.759-3.141L128.364,512h48.08L256,448.836L335.558,512h48.082l-38.722-198.792 l110.759,3.141V236.496z M317.237,350.47l-61.25,48.682l-61.086-48.537v-0.006l0.726-3.707l4.79-3.8l8.264-6.546l47.322-37.609 l47.528,37.75l8.267,6.542l4.773,3.821L317.237,350.47z M211.089,192.94l0.067-24.822l0.418,0.333l6.545,5.166l26.796,21.283 l-26.934,21.354l-6.889,5.512l-0.124,0.098l0.054-11.223L211.089,192.94z M211.025,239.469l6.889-5.509l38.09-30.24l37.886,30.102 l6.885,5.439v6.582l-6.885,5.438l-37.886,30.102l-38.161-30.307l-6.888-5.442l-0.078-0.061l0.007-3.108l0.01-2.896L211.025,239.469 z M300.774,221.63l-6.885-5.442l-26.796-21.287l26.796-21.283l6.545-5.166l0.34-0.276V221.63z M204.477,301.634l6.336-32.649 l0.018-5.899l6.945,5.486l27.139,21.63l-32.167,25.484v0.07l-8.267,6.542l-4.779,3.794l0.713-3.656L204.477,301.634z M307.732,322.507v-0.07l-8.263-6.545l-32.376-25.69l26.796-21.354l6.885-5.438v2.475l6.955,35.887v0.071l4.066,20.731l0.72,3.686 L307.732,322.507z M294.988,97.609l2.55,19.628l0.43,3.35l-2.942-2.314l-7.716-6.202l-20.183-15.979l16.396-13.02l6.337-5.028 l2.374-1.88L294.988,97.609z M289.86,131.774l7.716,6.128l2.936,2.345l0.262,2.065v8.214l-2.408,1.947l-6.266,4.961l-36.096,28.653 l-36.025-28.653l-6.337-4.961l-2.435-1.968l0.021-8.193l0.255-2.002l3.021-2.408l7.712-6.128l33.822-26.866L289.86,131.774z M224.765,112.071l-7.716,6.202l-3.023,2.382l0.44-3.418l2.546-19.628l2.762-21.496l2.442,1.931l6.337,5.028l16.396,13.02 L224.765,112.071z M191.942,365.831l0.003-0.007l52.986,42.113l-72.414,57.554L191.942,365.831z M267.076,407.961l53.121-42.204 v0.007l19.35,99.778L267.076,407.961z M418.983,162.714l-83.768-2.109v-19.81l-0.69-5.442l-1.86-14.052l-0.276-2.546l-0.672-5.224 L418.983,162.714z M224.247,41.4l0.894-6.959h61.718l0.894,6.959l2.069,15.979l0.36,2.795l-2.392,1.89l-6.336,4.958l-25.418,20.254 L230.62,67.022l-6.337-4.958l-2.455-1.947l0.35-2.738L224.247,41.4z M93.021,162.714l87.179-49.136l-3.347,25.841l-0.02,21.183 L93.021,162.714z M79.023,295.032l97.763-55.382v23.756l-5.65,29.012L79.023,295.032z M171.21,472.178l0.003,0.006l-0.006,0.004 L171.21,472.178z M340.862,472.188l-0.041-0.041l0.038-0.047l0.003,0.017V472.188z M340.868,292.418l-5.654-29.012V239.65 l97.77,55.382L340.868,292.418z" style="fill:rgb(78, 81, 75)"/><path class="st0" d="M128.364,511.84l38.88-198.602l-110.921,2.951l0.165-79.694l20.504,0.16l-0.16,35.778l100.034-56.392 l0.081-6.641l0.027-28.125l-106.45,2.518l0.164-79.855l20.504,0.161l-0.16,35.929l92.57-51.902l8.842-67.578l2.617-20.526 L317.1,0.161l11.166,87.812l92.471,52.194l0.239-36.229l20.504,0.161l-0.16,79.854l-106.102-2.838l-0.164,34.783l99.879,56.675 l0.239-36.078l20.504,0.16l-0.16,79.694l-110.594-3.302l38.524,198.793h-47.889L256.1,448.711l-79.757,63.164L128.364,511.84z M266.976,407.835l72.471,57.831l-19.143-100.191L266.976,407.835z M172.361,465.462l72.67-57.4l-53.193-42.526L172.361,465.462z M195.528,346.777l-0.784,3.801l61.143,48.699l61.45-48.681l-0.608-3.566l-4.83-3.915l-55.895-44.372L195.528,346.777z M293.79,268.722l-26.797,21.356l32.376,25.939l13.047,10.37l-0.464-3.843l-4.066-20.732l-6.955-35.958l0.003-2.775L293.79,268.722 z M210.653,268.986l-11.11,57.077l5.037-3.638l40.434-32.097l-27.138-21.88l-7.204-5.69L210.653,268.986z M335.055,263.406 l5.657,29.042l92.269,2.743l-97.926-55.816V263.406z M78.944,294.892l92.197-2.314l5.803-29.142l0.002-24.061L78.944,294.892z M217.814,233.835l-6.889,5.509l-0.201,3.121l-0.007,3.109l7.026,5.629l38.161,30.306l44.969-35.539l0.061-6.709l-6.946-5.564 l-37.985-30.18L217.814,233.835z M210.808,221.865l7.273-5.485l26.934-21.354l-26.797-21.533l-6.803-5.37l-0.418-0.004 L210.808,221.865z M266.993,194.776l26.796,21.537l6.886,5.442l0.259-53.916L266.993,194.776z M211.384,140.185l-0.315,2.106 l-0.022,8.214l2.494,2.092l6.338,4.963l36.025,28.651l42.561-33.614l2.41-1.948l0.059-8.338l-0.264-2.086l-2.995-2.449 l-41.637-33.074L211.384,140.185z M332.231,118.774l0.275,2.543l2.55,19.497l-0.002,19.79l83.924,2.269l-87.462-49.639 L332.231,118.774z M92.943,162.574l83.894-1.813l0.177-21.342l3.386-26.137L92.943,162.574z M267.027,95.967l27.899,22.43 l2.944,2.315l-0.173-3.496l-5.34-41.354L267.027,95.967z M213.867,120.634l3.282-2.236l7.716-6.202l20.183-15.979l-16.396-13.27 l-9.001-7.134L213.867,120.634z M221.67,60.096l2.514,2.094l6.338,4.958l25.416,20.254l25.616-20.255l8.728-6.846l-0.301-2.942 l-2.963-22.938l-62.017-0.139L221.67,60.096z" style="fill:rgb(78, 81, 75)"/></g></svg>