<?xml version="1.0"?>
<svg xmlns="http://www.w3.org/2000/svg" version="1.2" baseProfile="tiny" width="800" height="591" viewBox="0 0 800 591" stroke-linecap="round" stroke-linejoin="round">
<g id="2" fill="none" stroke="black" stroke-width="1">
<path d="M 193.58 241.76 201.06 247.95 M 201.06 247.95 194.94 255.34 M 194.94 255.34 187.46 249.15 M 187.46 249.15 193.58 241.76 M 195.33 254.87 194.39 254.88 M 196.24 253.77 193.29 253.97 M 197.15 252.67 192.18 253.06 M 198.13 251.49 191.08 252.15 M 199.04 250.39 189.98 251.24 M 199.95 249.28 188.88 250.33 M 200.86 248.18 187.7 249.35 M 200.19 247.23 188.18 248.29 M 199.09 246.32 189.09 247.19 M 197.99 245.41 190 246.09 M 196.8 244.43 190.91 244.98 M 195.7 243.52 191.82 243.88 M 194.6 242.61 192.73 242.78 M 720.61 377.29 649.95 462.71 M 341.15 63.37 270.49 148.79 M 264.31 156.26 193.58 241.76 M 231.51 195.9 129.81 318.84 M 646.26 472.77 731.37 369.89 M 588.11 323.58 547.12 373.13 M 547.12 373.13 398.37 250.08 M 398.37 250.08 439.37 200.53 M 439.37 200.53 588.11 323.58 M 561.12 359.41 581.62 334.64 M 581.62 334.64 609.49 357.7 M 609.49 357.7 588.99 382.47 M 588.99 382.47 561.12 359.41 M 644.36 458.08 715.02 372.66 M 570.57 240.58 577.97 246.7 M 577.97 246.7 571.79 254.17 M 571.79 254.17 564.39 248.05 M 564.39 248.05 570.57 240.58 M 571.85 254.09 571.79 254.17 M 572.76 252.99 570.61 253.19 M 573.67 251.89 569.5 252.28 M 574.59 250.79 568.4 251.37 M 575.5 249.69 567.3 250.46 M 576.47 248.51 566.2 249.55 M 577.38 247.41 565.09 248.63 M 577.58 246.37 564.71 247.65 M 576.47 245.46 565.62 246.55 M 575.37 244.55 566.6 245.37 M 574.27 243.64 567.51 244.27 M 573.17 242.73 568.42 243.17 M 571.98 241.75 569.33 242.07 M 570.88 240.84 570.24 240.97 M 270.49 148.79 277.97 154.98 M 277.97 154.98 271.79 162.45 M 271.79 162.45 264.31 156.26 M 264.31 156.26 270.49 148.79 M 271.85 162.37 271.71 162.39 M 272.76 161.27 270.6 161.47 M 273.67 160.17 269.5 160.56 M 274.58 159.07 268.4 159.65 M 275.49 157.97 267.3 158.74 M 276.41 156.87 266.12 157.76 M 277.38 155.69 265.01 156.85 M 277.57 154.65 264.63 155.87 M 276.39 153.68 265.54 154.77 M 275.29 152.76 266.45 153.67 M 274.19 151.85 267.43 152.49 M 273.09 150.94 268.34 151.39 M 271.98 150.03 269.25 150.28 M 270.88 149.12 270.16 149.18 M 485.11 495.39 418.1 439.95 M 489.73 489.8 422.72 434.37 M 485.99 499.29 414.72 440.34 M 354.81 62.09 496.16 179.02 M 719.31 363.63 503.56 185.14 M 714.69 369.21 647.76 313.84 M 715.47 368.27 648.54 312.9 M 508.2 345.31 533 365.83 M 533 365.83 509.97 393.67 M 509.97 393.67 485.16 373.15 M 485.16 373.15 508.2 345.31 M 475.05 317.88 499.85 338.4 M 499.85 338.4 476.82 366.25 M 476.82 366.25 452.01 345.73 M 452.01 345.73 475.05 317.88 M 441.9 290.46 466.7 310.98 M 466.7 310.98 443.67 338.82 M 443.67 338.82 418.86 318.3 M 418.86 318.3 441.9 290.46 M 408.82 263.1 433.55 283.55 M 433.55 283.55 410.51 311.4 M 410.51 311.4 385.79 290.94 M 385.79 290.94 408.82 263.1 M 380.01 209.59 400.51 184.81 M 400.51 184.81 428.46 207.94 M 428.46 207.94 407.97 232.71 M 407.97 232.71 380.01 209.59 M 578.11 555.63 578.74 556.16 M 50.06 410.92 245.65 572.73 M 408.22 436.82 413.81 441.44 M 413.81 441.44 411.99 443.64 M 411.99 443.64 406.4 439.02 M 406.4 439.02 408.22 436.82 M 174.38 264.96 181.86 271.15 M 181.86 271.15 175.75 278.54 M 175.75 278.54 168.26 272.36 M 168.26 272.36 174.38 264.96 M 175.75 278.54 175.67 278.48 M 176.66 277.44 174.56 277.57 M 177.57 276.34 173.46 276.65 M 178.54 275.16 172.36 275.74 M 179.45 274.06 171.26 274.83 M 180.36 272.96 170.08 273.85 M 181.28 271.86 168.97 272.94 M 181.47 270.82 168.59 271.96 M 180.29 269.85 169.5 270.86 M 179.18 268.94 170.41 269.76 M 178.08 268.02 171.32 268.66 M 176.98 267.11 172.23 267.56 M 175.88 266.2 173.14 266.46 M 174.77 265.29 174.12 265.28 M 155.19 288.16 162.67 294.35 M 162.67 294.35 156.48 301.83 M 156.48 301.83 149 295.64 M 149 295.64 155.19 288.16 M 156.55 301.75 156.41 301.76 M 157.46 300.65 155.3 300.85 M 158.37 299.54 154.2 299.94 M 159.28 298.44 153.1 299.02 M 160.19 297.34 152 298.11 M 161.17 296.16 150.82 297.14 M 162.08 295.06 149.71 296.22 M 162.27 294.03 149.33 295.24 M 161.09 293.05 150.31 294.06 M 159.99 292.14 151.22 292.96 M 158.89 291.23 152.13 291.86 M 157.78 290.31 153.04 290.76 M 156.68 289.4 153.95 289.66 M 155.58 288.49 154.86 288.56 M 135.93 311.45 143.41 317.64 M 143.41 317.64 137.29 325.03 M 137.29 325.03 129.81 318.84 M 129.81 318.84 135.93 311.45 M 137.35 324.95 137.21 324.96 M 138.27 323.85 136.11 324.05 M 139.18 322.75 135.01 323.14 M 140.09 321.65 133.9 322.23 M 141 320.55 132.8 321.32 M 141.91 319.44 131.62 320.34 M 142.82 318.34 130.52 319.43 M 143.01 317.31 130.13 318.45 M 141.83 316.33 131.05 317.35 M 140.73 315.42 131.96 316.24 M 139.63 314.51 132.93 315.06 M 138.52 313.6 133.84 313.96 M 137.42 312.68 134.75 312.86 M 136.32 311.77 135.67 311.76 M 251.23 172.07 258.71 178.26 M 258.71 178.26 252.59 185.65 M 252.59 185.65 245.11 179.47 M 245.11 179.47 251.23 172.07 M 252.59 185.65 252.51 185.59 M 253.5 184.55 251.41 184.68 M 254.48 183.37 250.31 183.76 M 255.39 182.27 249.2 182.85 M 256.3 181.17 248.1 181.94 M 257.21 180.07 246.92 180.96 M 258.12 178.97 245.82 180.05 M 258.31 177.93 245.44 179.07 M 257.13 176.96 246.35 177.97 M 256.03 176.05 247.26 176.87 M 254.93 175.13 248.17 175.77 M 253.83 174.22 249.08 174.67 M 252.72 173.31 250.06 173.49 M 251.62 172.4 250.97 172.39 M 232.03 195.27 239.51 201.46 M 239.51 201.46 233.33 208.94 M 233.33 208.94 225.85 202.75 M 225.85 202.75 232.03 195.27 M 233.4 208.86 233.25 208.87 M 234.31 207.76 232.15 207.96 M 235.22 206.65 231.05 207.05 M 236.13 205.55 229.94 206.13 M 237.1 204.37 228.84 205.22 M 238.02 203.27 227.66 204.24 M 238.93 202.17 226.56 203.33 M 239.12 201.14 226.24 202.27 M 237.94 200.16 227.15 201.17 M 236.83 199.25 228.06 200.07 M 235.73 198.34 228.97 198.97 M 234.63 197.42 229.88 197.87 M 233.53 196.51 230.8 196.77 M 232.43 195.6 231.71 195.67 M 212.84 218.48 220.32 224.67 M 220.32 224.67 214.14 232.14 M 214.14 232.14 206.65 225.95 M 206.65 225.95 212.84 218.48 M 214.2 232.06 214.06 232.07 M 215.11 230.96 212.95 231.16 M 216.02 229.86 211.85 230.25 M 216.93 228.76 210.75 229.34 M 217.84 227.65 209.65 228.42 M 218.76 226.55 208.47 227.45 M 219.73 225.37 207.36 226.54 M 219.92 224.34 206.98 225.56 M 218.74 223.36 207.89 224.46 M 217.64 222.45 208.87 223.28 M 216.54 221.54 209.78 222.17 M 215.43 220.63 210.69 221.07 M 214.33 219.72 211.6 219.97 M 213.23 218.8 212.51 218.87 M 403.91 154.24 695.89 395.79 M 417.12 123.04 350.19 67.67 M 417.91 122.1 350.97 66.73 M 415.56 124.93 410.49 131.07 M 410.49 131.07 349.7 80.78 M 290.9 139.18 297.12 144.33 M 297.12 144.33 349.7 80.78 M 423.04 131.12 392.33 168.24 M 392.33 168.24 384.85 162.06 M 384.85 162.06 410.49 131.07 M 646.2 315.73 627.07 338.85 M 245.65 572.73 663.72 590.03 M 663.72 590.03 799 426.5 M 799 426.5 731.28 370.48 M 49.27 410.26 1 370.33 M 1 370.33 232.64 90.32 M 232.64 90.32 283.83 132.67 M 348.63 69.56 350.97 66.73 M 350.97 66.73 350.19 66.08 M 350.19 66.08 351.68 64.27 M 351.68 64.27 352.47 64.92 M 352.47 64.92 354.81 62.09 M 348.63 69.56 345.8 67.21 M 345.8 67.21 346.45 66.43 M 346.45 66.43 344.64 64.93 M 344.64 64.93 343.99 65.72 M 343.99 65.72 341.15 63.37 M 341.15 63.37 347.33 55.9 M 347.33 55.9 354.81 62.09 M 423.04 131.12 429.22 123.65 M 423.04 131.12 415.56 124.93 M 421.74 117.46 429.22 123.65 M 415.56 124.93 417.91 122.1 M 417.91 122.1 418.61 122.69 M 418.61 122.69 420.11 120.88 M 420.11 120.88 419.4 120.29 M 419.4 120.29 421.74 117.46 M 400.34 97.63 403.1 99.91 M 403.1 99.91 402.06 101.17 M 402.06 101.17 399.3 98.89 M 399.3 98.89 400.34 97.63 M 403.1 99.91 399.3 98.89 M 375.54 77.11 378.3 79.39 M 378.3 79.39 377.25 80.65 M 377.25 80.65 374.5 78.37 M 374.5 78.37 375.54 77.11 M 378.3 79.39 374.5 78.37 M 350.74 56.6 353.49 58.88 M 353.49 58.88 352.45 60.13 M 352.45 60.13 349.69 57.85 M 349.69 57.85 350.74 56.6 M 353.49 58.88 349.69 57.85 M 423.5 130.57 422.49 130.66 M 424.41 129.47 421.39 129.75 M 425.32 128.37 420.29 128.84 M 426.23 127.26 425.94 127.29 M 419.18 127.93 419.33 127.91 M 419.33 127.91 425.94 127.29 M 427.08 126.24 424.92 126.44 M 418.08 127.01 420.24 126.81 M 420.24 126.81 424.92 126.44 M 427.99 125.14 423.82 125.53 M 416.98 126.1 421.15 125.71 M 421.15 125.71 423.82 125.53 M 428.9 124.04 422.72 124.62 M 415.88 125.19 422.06 124.61 M 422.06 124.61 422.72 124.62 M 428.44 123 422.97 123.51 M 416.21 124.14 421.61 123.71 M 421.61 123.71 422.97 123.51 M 427.33 122.08 423.88 122.41 M 417.12 123.04 420.51 122.8 M 420.51 122.8 423.88 122.41 M 426.23 121.17 424.79 121.31 M 419.33 121.82 419.41 121.88 M 419.41 121.88 424.79 121.31 M 425.13 120.26 420.03 120.81 M 424.03 119.35 419.79 119.82 M 422.93 118.44 420.7 118.72 M 421.82 117.52 421.61 117.62 M 496.16 179.02 503.56 185.14 M 503.56 185.14 497.38 192.61 M 497.38 192.61 489.97 186.49 M 489.97 186.49 496.16 179.02 M 497.44 192.53 497.38 192.61 M 498.35 191.43 496.27 191.7 M 499.26 190.33 495.09 190.72 M 500.17 189.23 493.99 189.81 M 501.09 188.13 492.89 188.9 M 502.06 186.95 491.79 187.99 M 502.97 185.85 490.68 187.08 M 503.16 184.81 490.3 186.1 M 502.06 183.9 491.21 184.99 M 500.96 182.99 492.19 183.81 M 499.86 182.08 493.1 182.71 M 498.75 181.17 494.01 181.61 M 497.65 180.25 494.92 180.51 M 496.47 179.28 495.83 179.41 M 638.8 309.61 644.98 302.13 M 638.8 309.61 646.2 315.73 M 652.38 308.26 644.98 302.13 M 646.2 315.73 648.54 312.9 M 648.54 312.9 647.83 312.31 M 647.83 312.31 649.33 310.5 M 649.33 310.5 650.04 311.09 M 650.04 311.09 652.38 308.26 M 646.33 315.57 646.04 315.6 M 647.24 314.47 645.02 314.75 M 648.15 313.37 643.92 313.84 M 647.91 312.38 642.81 312.93 M 648.61 311.37 648.47 311.38 M 641.71 312.02 643.15 311.88 M 643.15 311.88 648.47 311.38 M 650.82 310.15 647.37 310.47 M 640.61 311.1 644.06 310.78 M 644.06 310.78 647.37 310.47 M 651.73 309.04 646.27 309.56 M 639.51 310.19 644.97 309.68 M 644.97 309.68 646.27 309.56 M 651.99 307.93 645.88 308.58 M 639.12 309.21 645.16 308.65 M 645.16 308.65 645.88 308.58 M 650.96 307.08 646.79 307.48 M 640.03 308.11 644.06 307.73 M 644.06 307.73 646.79 307.48 M 649.86 306.17 647.7 306.38 M 640.94 307.01 642.96 306.82 M 642.96 306.82 647.7 306.38 M 648.76 305.26 648.62 305.27 M 641.86 305.91 648.62 305.27 M 647.66 304.35 642.77 304.81 M 646.55 303.44 643.61 303.79 M 645.45 302.52 644.52 302.68 M 713.13 371.1 715.47 368.27 M 715.47 368.27 716.26 368.92 M 716.26 368.92 717.76 367.11 M 717.76 367.11 716.97 366.46 M 716.97 366.46 719.31 363.63 M 713.13 371.1 720.61 377.29 M 720.61 377.29 726.79 369.82 M 726.79 369.82 719.31 363.63 M 716.97 366.46 650.04 311.09 M 419.4 120.29 352.47 64.92 M 649.95 462.71 642.47 456.52 M 642.47 456.52 636.28 463.99 M 636.28 463.99 643.77 470.18 M 643.77 470.18 649.95 462.71 M 716.56 361.35 719.31 363.63 M 719.31 363.63 716.97 366.46 M 716.97 366.46 714.21 364.18 M 714.21 364.18 716.56 361.35 M 719.31 363.63 714.21 364.18 M 716.97 366.46 716.56 361.35 M 652.38 308.26 655.14 310.54 M 655.14 310.54 652.79 313.37 M 652.79 313.37 650.04 311.09 M 650.04 311.09 652.38 308.26 M 655.14 310.54 650.04 311.09 M 652.79 313.37 652.38 308.26 M 672.07 324.54 674.82 326.82 M 674.82 326.82 672.48 329.65 M 672.48 329.65 669.72 327.37 M 669.72 327.37 672.07 324.54 M 674.82 326.82 669.72 327.37 M 672.48 329.65 672.07 324.54 M 418.99 115.18 421.74 117.46 M 421.74 117.46 419.4 120.29 M 419.4 120.29 416.65 118.01 M 416.65 118.01 418.99 115.18 M 421.74 117.46 416.65 118.01 M 419.4 120.29 418.99 115.18 M 354.81 62.09 357.57 64.37 M 357.57 64.37 355.23 67.2 M 355.23 67.2 352.47 64.92 M 352.47 64.92 354.81 62.09 M 357.57 64.37 352.47 64.92 M 355.23 67.2 354.81 62.09 M 426.69 115.32 430.39 118.39 M 430.39 118.39 427.33 122.08 M 427.33 122.08 423.63 119.02 M 423.63 119.02 426.69 115.32 M 430 118.06 430.07 118.78 M 428.9 117.15 429.16 119.88 M 427.79 116.24 427.92 117.53 M 427.92 117.53 428.25 120.98 M 426.69 115.32 427.01 118.63 M 427.01 118.63 427.4 122 M 425.85 116.35 426.1 119.73 M 426.1 119.73 426.31 121.24 M 424.94 117.45 425.21 120.32 M 424.02 118.55 424.11 119.41 M 501.03 176.82 504.8 179.95 M 504.8 179.95 501.75 183.64 M 501.75 183.64 497.97 180.52 M 497.97 180.52 501.03 176.82 M 504.41 179.62 504.48 180.34 M 503.31 178.71 503.57 181.44 M 502.21 177.8 502.33 179.09 M 502.33 179.09 502.66 182.54 M 501.1 176.88 501.42 180.19 M 501.42 180.19 501.81 183.56 M 500.18 177.84 500.51 181.29 M 500.51 181.29 500.72 182.8 M 499.27 178.94 499.62 181.88 M 498.36 180.04 498.52 180.97 M 575.44 238.38 579.22 241.5 M 579.22 241.5 576.16 245.2 M 576.16 245.2 572.38 242.07 M 572.38 242.07 575.44 238.38 M 578.82 241.18 578.89 241.9 M 577.72 240.27 577.98 243 M 576.62 239.35 576.74 240.65 M 576.74 240.65 577.07 244.1 M 575.52 238.44 575.83 241.75 M 575.83 241.75 576.22 245.12 M 574.59 239.4 574.92 242.85 M 574.92 242.85 575.06 244.29 M 573.68 240.5 574.03 243.44 M 572.77 241.6 572.93 242.53 M 649.85 299.94 653.55 303 M 653.55 303 650.49 306.69 M 650.49 306.69 646.79 303.63 M 646.79 303.63 649.85 299.94 M 653.23 302.74 653.22 303.39 M 652.13 301.82 652.31 304.49 M 651.03 300.91 651.15 302.21 M 651.15 302.21 651.4 305.59 M 649.93 300 650.24 303.31 M 650.24 303.31 650.56 306.62 M 649 300.96 649.33 304.41 M 649.33 304.41 649.47 305.85 M 648.09 302.06 648.37 304.94 M 647.18 303.16 647.26 304.02 M 637.54 304.72 640.68 307.33 M 640.68 307.33 639.12 309.21 M 639.12 309.21 635.97 306.61 M 635.97 306.61 637.54 304.72 M 573.67 251.89 576.82 254.5 M 576.82 254.5 575.26 256.38 M 575.26 256.38 572.11 253.78 M 572.11 253.78 573.67 251.89 M 636.75 305.66 576.04 255.44 M 643.33 297.72 648.29 301.82 M 648.29 301.82 646.79 303.63 M 646.79 303.63 641.83 299.53 M 641.83 299.53 643.33 297.72 M 577.65 243.39 582.62 247.5 M 582.62 247.5 581.12 249.3 M 581.12 249.3 576.16 245.2 M 576.16 245.2 577.65 243.39 M 642.61 298.58 581.9 248.36 M 649.85 299.94 579.22 241.5 M 563.12 243.16 566.27 245.77 M 566.27 245.77 564.71 247.65 M 564.71 247.65 561.56 245.05 M 561.56 245.05 563.12 243.16 M 499.26 190.33 502.41 192.94 M 502.41 192.94 500.85 194.82 M 500.85 194.82 497.7 192.22 M 497.7 192.22 499.26 190.33 M 562.34 244.1 501.63 193.88 M 568.91 236.16 573.88 240.26 M 573.88 240.26 572.38 242.07 M 572.38 242.07 567.42 237.97 M 567.42 237.97 568.91 236.16 M 503.24 181.83 508.2 185.94 M 508.2 185.94 506.71 187.75 M 506.71 187.75 501.75 183.64 M 501.75 183.64 503.24 181.83 M 568.2 237.03 507.49 186.8 M 575.44 238.38 504.8 179.95 M 488.79 181.67 491.86 184.21 M 491.86 184.21 490.3 186.1 M 490.3 186.1 487.23 183.56 M 487.23 183.56 488.79 181.67 M 424.93 128.84 428 131.38 M 428 131.38 426.44 133.27 M 426.44 133.27 423.37 130.73 M 423.37 130.73 424.93 128.84 M 488.01 182.61 427.22 132.32 M 494.58 174.67 499.46 178.71 M 499.46 178.71 497.97 180.52 M 497.97 180.52 493.08 176.48 M 493.08 176.48 494.58 174.67 M 428.83 120.27 433.79 124.38 M 433.79 124.38 432.3 126.19 M 432.3 126.19 427.33 122.08 M 427.33 122.08 428.83 120.27 M 493.87 175.53 433.08 125.24 M 501.03 176.82 430.39 118.39 M 421.84 115.42 424.68 117.76 M 424.68 117.76 423.63 119.02 M 423.63 119.02 420.8 116.68 M 420.8 116.68 421.84 115.42 M 424.68 117.76 420.8 116.68 M 424.68 117.76 347.11 53.6 M 425.46 116.82 346.95 51.87 M 402.06 101.17 399.72 104 M 399.72 104 396.96 101.72 M 396.96 101.72 399.3 98.89 M 399.3 98.89 402.06 101.17 M 402.06 101.17 399.72 104 M 402.06 101.17 396.96 101.72 M 399.72 104 399.3 98.89 M 377.25 80.65 374.91 83.48 M 374.91 83.48 372.16 81.2 M 372.16 81.2 374.5 78.37 M 374.5 78.37 377.25 80.65 M 377.25 80.65 374.91 83.48 M 377.25 80.65 372.16 81.2 M 374.91 83.48 374.5 78.37 M 347.11 53.6 346.95 51.87 M 344.12 57.22 345.38 58.26 M 345.38 58.26 343.1 61.01 M 343.1 61.01 341.84 59.97 M 341.84 59.97 344.12 57.22 M 344.12 57.22 343.1 61.01 M 315.3 92.06 316.56 93.1 M 316.56 93.1 314.28 95.86 M 314.28 95.86 313.02 94.81 M 313.02 94.81 315.3 92.06 M 315.3 92.06 314.28 95.86 M 313.02 94.81 316.56 93.1 M 290.7 121.79 291.96 122.83 M 291.96 122.83 289.68 125.59 M 289.68 125.59 288.42 124.54 M 288.42 124.54 290.7 121.79 M 290.7 121.79 289.68 125.59 M 288.42 124.54 291.96 122.83 M 268.91 147.49 270.09 148.46 M 270.09 148.46 263.91 155.94 M 263.91 155.94 262.73 154.96 M 262.73 154.96 268.91 147.49 M 269.31 147.81 269.38 149.33 M 268.33 148.2 268.47 150.43 M 267.42 149.3 267.56 151.53 M 266.5 150.4 266.58 151.91 M 266.58 151.91 266.64 152.63 M 265.59 151.5 265.73 153.73 M 264.68 152.6 264.82 154.84 M 263.77 153.7 263.91 155.94 M 262.86 154.8 262.89 155.09 M 249.65 170.77 250.83 171.75 M 250.83 171.75 244.72 179.14 M 244.72 179.14 243.54 178.16 M 243.54 178.16 249.65 170.77 M 250.05 171.09 250.12 172.61 M 249.07 171.48 249.27 173.63 M 248.16 172.58 248.36 174.73 M 247.24 173.68 247.38 175.12 M 247.38 175.12 247.45 175.84 M 246.33 174.78 246.54 176.94 M 245.49 175.8 245.63 178.04 M 244.58 176.9 244.72 179.14 M 243.67 178 243.69 178.29 M 230.46 193.97 231.64 194.95 M 231.64 194.95 225.46 202.42 M 225.46 202.42 224.28 201.44 M 224.28 201.44 230.46 193.97 M 230.85 194.3 230.92 195.81 M 229.87 194.68 230.01 196.92 M 228.96 195.78 229.1 198.02 M 228.05 196.88 228.19 198.32 M 228.19 198.32 228.19 199.12 M 227.14 197.98 227.28 200.22 M 226.23 199.08 226.43 201.24 M 225.32 200.19 225.52 202.34 M 224.41 201.29 224.43 201.57 M 211.26 217.17 212.44 218.15 M 212.44 218.15 206.26 225.62 M 206.26 225.62 205.08 224.65 M 205.08 224.65 211.26 217.17 M 211.66 217.5 211.73 219.02 M 210.68 217.88 210.82 220.12 M 209.76 218.98 209.9 221.22 M 208.85 220.08 208.93 221.6 M 208.93 221.6 208.99 222.32 M 207.94 221.19 208.08 223.42 M 207.03 222.29 207.17 224.52 M 206.12 223.39 206.26 225.62 M 205.21 224.49 205.24 224.78 M 187.46 249.15 185.88 247.85 M 185.88 247.85 192 240.46 M 192 240.46 193.18 241.43 M 193.18 241.43 191.17 243.87 M 191.17 243.87 191.56 244.2 M 191.56 244.2 187.46 249.15 M 192.24 240.65 192.34 242.46 M 191.29 241.32 191.49 243.48 M 191.56 244.2 191.49 244.28 M 190.37 242.42 190.65 245.3 M 189.46 243.52 189.57 244.67 M 189.57 244.67 189.74 246.4 M 188.62 244.55 188.83 247.5 M 187.71 245.65 187.92 248.6 M 186.8 246.75 186.99 248.76 M 289.68 125.59 288.11 124.28 M 288.11 124.28 281.93 131.76 M 281.93 131.76 283.11 132.73 M 283.11 132.73 285.19 130.22 M 285.19 130.22 285.58 130.54 M 285.58 130.54 289.68 125.59 M 287.2 125.39 289.21 125.2 M 286.29 126.49 289.23 126.14 M 285.37 127.59 288.32 127.24 M 284.46 128.69 285.68 128.5 M 285.68 128.5 287.4 128.34 M 283.55 129.79 286.49 129.44 M 282.64 130.89 284.86 130.61 M 285.58 130.54 285.52 130.62 M 282.16 131.95 283.95 131.71 M 210.36 220.67 210.75 220.99 M 210.75 220.99 208.74 223.43 M 208.74 223.43 208.34 223.11 M 208.34 223.11 210.36 220.67 M 208.34 223.11 210.75 220.99 M 229.56 197.47 229.95 197.79 M 229.95 197.79 227.93 200.23 M 227.93 200.23 227.54 199.9 M 227.54 199.9 229.56 197.47 M 227.54 199.9 229.95 197.79 M 248.82 174.18 249.21 174.51 M 249.21 174.51 247.13 177.03 M 247.13 177.03 246.73 176.7 M 246.73 176.7 248.82 174.18 M 246.73 176.7 249.21 174.51 M 268.01 150.98 268.4 151.31 M 268.4 151.31 266.39 153.75 M 266.39 153.75 265.99 153.42 M 265.99 153.42 268.01 150.98 M 265.99 153.42 268.4 151.31 M 192.21 242.61 192.6 242.94 M 192.6 242.94 191.56 244.2 M 191.56 244.2 191.17 243.87 M 191.17 243.87 192.21 242.61 M 208.34 223.11 208.74 223.43 M 208.74 223.43 207.7 224.69 M 207.7 224.69 207.3 224.37 M 207.3 224.37 208.34 223.11 M 192.44 242.81 207.54 224.56 M 227.54 199.9 227.93 200.23 M 227.93 200.23 226.89 201.49 M 226.89 201.49 226.5 201.16 M 226.5 201.16 227.54 199.9 M 211.64 219.61 226.73 201.36 M 246.73 176.7 247.13 177.03 M 247.13 177.03 246.15 178.21 M 246.15 178.21 245.76 177.88 M 245.76 177.88 246.73 176.7 M 230.83 196.4 245.99 178.08 M 265.99 153.42 266.39 153.75 M 266.39 153.75 265.35 155 M 265.35 155 264.95 154.68 M 264.95 154.68 265.99 153.42 M 250.09 173.12 265.19 154.87 M 285.19 130.22 285.58 130.54 M 285.58 130.54 284.54 131.8 M 284.54 131.8 284.15 131.47 M 284.15 131.47 285.19 130.22 M 269.29 149.92 284.38 131.67 M 211.4 219.41 211.8 219.74 M 211.8 219.74 210.75 220.99 M 210.75 220.99 210.36 220.67 M 210.36 220.67 211.4 219.41 M 230.6 196.21 230.99 196.53 M 230.99 196.53 229.95 197.79 M 229.95 197.79 229.56 197.47 M 229.56 197.47 230.6 196.21 M 249.86 172.93 250.25 173.25 M 250.25 173.25 249.21 174.51 M 249.21 174.51 248.82 174.18 M 248.82 174.18 249.86 172.93 M 269.05 149.72 269.45 150.05 M 269.45 150.05 268.4 151.31 M 268.4 151.31 268.01 150.98 M 268.01 150.98 269.05 149.72 M 346.45 66.43 293.68 130.22 M 283.5 133.06 290.98 139.25 M 283.5 133.06 289.68 125.59 M 297.16 131.78 290.98 139.25 M 289.68 125.59 292.52 127.93 M 292.52 127.93 291.87 128.72 M 291.87 128.72 293.68 130.22 M 293.68 130.22 294.33 129.43 M 294.33 129.43 297.16 131.78 M 284.05 133.52 283.96 132.51 M 285.15 134.43 284.87 131.41 M 286.26 135.34 285.78 130.31 M 287.28 136.19 287.27 136.04 M 286.69 129.21 286.7 129.35 M 286.7 129.35 287.27 136.04 M 288.38 137.1 288.18 134.94 M 287.6 128.1 287.8 130.26 M 287.8 130.26 288.18 134.94 M 289.48 138.01 289.09 133.84 M 288.51 127 288.91 131.17 M 288.91 131.17 289.09 133.84 M 290.59 138.92 290 132.74 M 289.36 125.98 290.01 132.08 M 290.01 132.08 290 132.74 M 291.63 138.46 291.11 133 M 290.47 126.24 290.91 131.64 M 290.91 131.64 291.11 133 M 292.54 137.36 292.21 133.91 M 291.57 127.15 291.82 130.54 M 291.82 130.54 292.21 133.91 M 293.45 136.26 293.32 134.82 M 292.73 129.44 293.32 134.82 M 294.36 135.16 293.81 130.06 M 295.28 134.06 294.8 129.82 M 296.12 133.03 295.9 130.73 M 297.03 131.93 297.01 131.65 M 285.39 134.62 283.5 133.06 M 348.63 69.56 143.41 317.64 M 344.64 64.93 292.52 127.93 M 349.15 68.93 347.92 68.97 M 350.06 67.83 346.9 68.13 M 350.9 66.66 345.86 67.14 M 350.51 65.68 346.05 66.1 M 352.8 64.53 352.08 64.59 M 344.31 65.32 343.59 65.39 M 351.42 64.58 350.35 64.76 M 344.95 65.19 345.96 65.1 M 345.96 65.1 350.35 64.76 M 353.71 63.43 349.25 63.84 M 342.49 64.48 346.87 63.99 M 346.87 63.99 349.25 63.84 M 354.62 62.32 348.15 62.93 M 341.39 63.57 347.78 62.89 M 347.78 62.89 348.15 62.93 M 353.95 61.37 348.69 61.79 M 341.87 62.51 347.04 62.02 M 347.04 62.02 348.69 61.79 M 352.84 60.46 349.6 60.69 M 342.78 61.41 345.94 61.11 M 345.94 61.11 349.6 60.69 M 351.74 59.55 350.45 59.67 M 343.69 60.3 344.84 60.2 M 344.84 60.2 350.45 59.67 M 350.64 58.64 344.6 59.2 M 349.54 57.72 345.51 58.1 M 348.43 56.81 346.42 57 M 294.33 129.43 297.16 131.78 M 291.96 122.83 294.79 125.18 M 294.79 125.18 292.52 127.93 M 292.52 127.93 289.68 125.59 M 289.68 125.59 291.96 122.83 M 294.79 125.18 289.68 125.59 M 292.52 127.93 291.96 122.83 M 338.87 66.12 341.71 68.47 M 341.71 68.47 338.87 66.12 M 338.87 66.12 341.15 63.37 M 341.15 63.37 343.99 65.72 M 343.99 65.72 341.71 68.47 M 343.99 65.72 338.87 66.12 M 341.71 68.47 341.15 63.37 M 319.31 95.38 316.56 93.1 M 317.03 98.14 314.28 95.86 M 314.28 95.86 316.56 93.1 M 316.56 93.1 319.39 95.45 M 319.39 95.45 317.11 98.2 M 317.11 98.2 314.28 95.86 M 314.28 95.86 316.56 93.1 M 319.39 95.45 314.28 95.86 M 317.11 98.2 316.56 93.1 M 346.95 51.87 287.48 123.76 M 347.11 53.6 288.42 124.54 M 288.42 124.54 287.48 123.76 M 673.11 323.28 675.86 325.56 M 675.86 325.56 674.82 326.82 M 674.82 326.82 672.07 324.54 M 672.07 324.54 673.11 323.28 M 673.11 323.28 674.82 326.82 M 697.91 343.8 700.67 346.08 M 700.67 346.08 699.63 347.34 M 699.63 347.34 696.87 345.06 M 696.87 345.06 697.91 343.8 M 697.91 343.8 699.63 347.34 M 722.72 364.32 725.47 366.6 M 725.47 366.6 724.43 367.86 M 724.43 367.86 721.67 365.58 M 721.67 365.58 722.72 364.32 M 722.72 364.32 724.43 367.86 M 651.53 305.44 729.72 370.12 M 652.31 304.49 731.37 369.89 M 729.72 370.12 731.37 369.89 M 410.69 433.83 416.29 438.45 M 416.29 438.45 413.94 441.29 M 413.94 441.29 408.35 436.66 M 408.35 436.66 410.69 433.83 M 416.05 438.26 416.09 438.69 M 414.95 437.35 415.18 439.79 M 413.84 436.43 413.94 437.44 M 413.94 437.44 414.27 440.89 M 412.74 435.52 413.03 438.54 M 413.03 438.54 413.16 440.63 M 411.64 434.61 412.12 439.64 M 412.12 439.64 412.05 439.72 M 410.56 433.99 410.95 438.81 M 409.65 435.09 409.93 437.96 M 408.74 436.19 408.82 437.05 M 336.88 377.8 342.47 382.42 M 342.47 382.42 340.65 384.63 M 340.65 384.63 335.06 380 M 335.06 380 336.88 377.8 M 334.86 380.24 340.46 384.86 M 340.46 384.86 338.63 387.06 M 338.63 387.06 333.04 382.44 M 333.04 382.44 334.86 380.24 M 263.6 321.28 269.19 325.91 M 269.19 325.91 267.37 328.11 M 267.37 328.11 261.78 323.49 M 261.78 323.49 263.6 321.28 M 261.65 323.64 267.24 328.27 M 267.24 328.27 265.42 330.47 M 265.42 330.47 259.83 325.85 M 259.83 325.85 261.65 323.64 M 190.31 264.63 195.9 269.25 M 195.9 269.25 194.08 271.45 M 194.08 271.45 188.49 266.83 M 188.49 266.83 190.31 264.63 M 407.31 437.92 341.56 383.53 M 333.95 381.34 268.28 327.01 M 260.74 324.75 194.99 270.35 M 402.24 444.05 407.83 448.68 M 407.83 448.68 406.13 450.72 M 406.13 450.72 400.54 446.1 M 400.54 446.1 402.24 444.05 M 330.9 385.04 336.49 389.66 M 336.49 389.66 334.79 391.71 M 334.79 391.71 329.2 387.08 M 329.2 387.08 330.9 385.04 M 401.39 445.08 335.64 390.68 M 329.07 387.24 334.66 391.86 M 334.66 391.86 332.97 393.91 M 332.97 393.91 327.38 389.28 M 327.38 389.28 329.07 387.24 M 257.81 328.28 263.4 332.91 M 263.4 332.91 261.71 334.95 M 261.71 334.95 256.12 330.33 M 256.12 330.33 257.81 328.28 M 328.23 388.26 262.56 333.93 M 255.92 330.57 261.51 335.19 M 261.51 335.19 259.89 337.16 M 259.89 337.16 254.3 332.53 M 254.3 332.53 255.92 330.57 M 184.58 271.55 190.17 276.17 M 190.17 276.17 188.55 278.14 M 188.55 278.14 182.96 273.51 M 182.96 273.51 184.58 271.55 M 255.08 331.59 189.33 277.2 M 489.44 498.97 474.08 517.53 M 474.08 517.53 472.19 515.97 M 472.19 515.97 487.55 497.41 M 488.33 498.06 488.42 498.92 M 488.42 498.92 488.53 500.07 M 487.29 497.72 487.51 500.02 M 487.51 500.02 487.68 501.09 M 486.38 498.82 486.59 501.12 M 486.59 501.12 486.77 502.19 M 485.47 499.92 485.75 502.15 M 485.75 502.15 485.86 503.3 M 484.55 501.02 484.84 503.25 M 484.84 503.25 484.95 504.4 M 483.64 502.13 483.93 504.35 M 483.93 504.35 484.04 505.5 M 482.8 503.15 483.02 505.45 M 483.02 505.45 483.13 506.6 M 481.89 504.25 482.11 506.55 M 482.11 506.55 482.21 507.7 M 480.98 505.35 481.19 507.65 M 481.19 507.65 481.3 508.8 M 480.06 506.45 480.28 508.75 M 480.28 508.75 480.39 509.9 M 479.15 507.55 479.37 509.85 M 479.37 509.85 479.48 511 M 478.24 508.65 478.46 510.95 M 478.46 510.95 478.57 512.11 M 477.33 509.76 477.55 512.06 M 477.55 512.06 477.66 513.21 M 476.42 510.86 476.64 513.16 M 476.64 513.16 476.75 514.31 M 475.51 511.96 475.73 514.26 M 475.73 514.26 475.9 515.33 M 474.6 513.06 474.88 515.28 M 474.88 515.28 474.99 516.43 M 473.69 514.16 473.97 516.38 M 473.97 516.38 474 517.47 M 472.78 515.26 472.9 516.56 M 182.96 273.51 181.4 275.4 M 181.4 275.4 472.19 515.97 M 202.87 249.45 181.4 275.4 M 181.4 275.4 179.58 273.9 M 179.58 273.9 194.94 255.34 M 201.06 247.95 416.81 426.44 M 201.06 247.95 202.87 249.45 M 202.08 248.79 202.22 250.23 M 201.06 247.95 201.31 251.33 M 200.15 249.05 200.4 252.43 M 199.23 250.15 199.42 252.82 M 199.42 252.82 199.48 253.54 M 198.32 251.25 198.31 251.9 M 198.31 251.9 198.57 254.64 M 197.41 252.35 197.66 255.74 M 196.5 253.45 196.75 256.84 M 195.59 254.55 195.84 257.94 M 194.68 255.66 194.99 258.96 M 193.77 256.76 194.08 260.06 M 192.86 257.86 193.17 261.17 M 191.95 258.96 192.26 262.27 M 191.1 259.98 191.35 263.37 M 190.19 261.08 190.44 264.47 M 189.28 262.18 189.53 265.57 M 188.37 263.29 188.62 266.67 M 187.46 264.39 187.71 267.77 M 186.55 265.49 186.8 268.87 M 185.64 266.59 185.88 269.97 M 184.72 267.69 184.97 271.08 M 183.81 268.79 184.13 272.1 M 182.9 269.89 183.22 273.2 M 181.99 270.99 182.31 274.3 M 181.08 272.09 181.4 275.4 M 180.17 273.2 180.29 274.49 M 721.52 376.19 719.51 376.38 M 722.43 375.09 718.41 375.46 M 723.34 373.98 717.3 374.55 M 724.26 372.88 722.96 373.01 M 716.2 373.64 717.5 373.52 M 717.5 373.52 722.96 373.01 M 725.17 371.78 721.94 372.16 M 715.1 372.73 718.41 372.42 M 718.41 372.42 721.94 372.16 M 726.08 370.68 720.83 371.25 M 714 371.82 719.32 371.32 M 719.32 371.32 720.83 371.25 M 726.56 369.62 720.16 370.29 M 713.33 370.86 719.73 370.33 M 719.73 370.33 720.16 370.29 M 725.45 368.71 721.07 369.19 M 714.24 369.76 718.63 369.42 M 718.63 369.42 721.07 369.19 M 724.35 367.8 721.99 368.09 M 715.87 368.59 715.15 368.66 M 721.99 368.09 717.53 368.51 M 717.53 368.51 716.52 368.61 M 723.25 366.88 722.9 366.99 M 722.9 366.99 717.43 367.5 M 722.15 365.97 717.05 366.52 M 721.04 365.06 717.88 365.36 M 719.94 364.15 718.79 364.26 M 729.72 370.12 648 468.91 M 725.39 372.63 726.73 373.74 M 726.73 373.74 724.45 376.49 M 724.45 376.49 723.11 375.38 M 723.11 375.38 725.39 372.63 M 726.73 373.74 723.11 375.38 M 725.33 372.71 646.27 468.28 M 644.55 469.23 642.82 469.4 M 645.46 468.13 641.72 468.49 M 646.37 467.03 640.62 467.57 M 647.28 465.93 646.35 466.09 M 639.51 466.66 640.46 466.65 M 640.46 466.65 646.35 466.09 M 648.19 464.83 645.25 465.18 M 638.41 465.75 641.37 465.54 M 641.37 465.54 645.25 465.18 M 649.1 463.73 644.15 464.27 M 637.31 464.84 642.28 464.44 M 642.28 464.44 644.15 464.27 M 649.87 462.64 643.19 463.34 M 636.35 463.91 643.04 463.36 M 643.04 463.36 643.19 463.34 M 648.77 461.73 644.1 462.24 M 637.26 462.81 641.94 462.44 M 641.94 462.44 644.1 462.24 M 647.66 460.82 645.01 461.14 M 638.17 461.71 640.84 461.53 M 640.84 461.53 645.01 461.14 M 646.56 459.91 645.92 460.04 M 639.08 460.61 639.74 460.62 M 639.74 460.62 645.92 460.04 M 645.46 458.99 639.99 459.51 M 644.36 458.08 640.9 458.41 M 643.33 457.23 641.75 457.38 M 644.32 470.63 643.77 470.18 M 725.39 372.63 724.84 372.18 M 646.66 467.8 648 468.91 M 648 468.91 645.66 471.74 M 645.66 471.74 644.32 470.63 M 644.32 470.63 646.66 467.8 M 648 468.91 644.32 470.63 M 706.2 395.83 707.54 396.94 M 707.54 396.94 705.19 399.77 M 705.19 399.77 703.85 398.67 M 703.85 398.67 706.2 395.83 M 707.54 396.94 703.85 398.67 M 687 419.04 688.34 420.15 M 688.34 420.15 686 422.98 M 686 422.98 684.66 421.87 M 684.66 421.87 687 419.04 M 688.34 420.15 684.66 421.87 M 667.74 442.32 669.08 443.43 M 669.08 443.43 666.8 446.18 M 666.8 446.18 665.46 445.07 M 665.46 445.07 667.74 442.32 M 669.08 443.43 665.46 445.07 M 720.61 377.29 649.95 462.71 M 346.45 66.43 344.64 64.93 M 293.68 130.22 291.87 128.72 M 291.87 128.72 292.52 127.93 M 668.27 412.82 671.82 415.75 M 671.82 415.75 673.41 406.6 M 673.41 406.6 668.27 412.82 M 678.49 400.47 682.03 403.4 M 682.03 403.4 673.41 406.6 M 673.41 406.6 678.49 400.47 M 696.87 345.06 699.63 347.34 M 699.63 347.34 697.28 350.17 M 697.28 350.17 694.53 347.89 M 694.53 347.89 696.87 345.06 M 699.63 347.34 694.53 347.89 M 697.28 350.17 696.87 345.06 M 645.3 458.86 715.97 373.45 M 701 391.54 705.65 395.38 M 705.65 395.38 703.3 398.21 M 703.3 398.21 698.66 394.37 M 698.66 394.37 701 391.54 M 701 391.54 703.3 398.21 M 681.8 414.74 686.45 418.58 M 686.45 418.58 684.11 421.41 M 684.11 421.41 679.46 417.57 M 679.46 417.57 681.8 414.74 M 681.8 414.74 684.11 421.41 M 662.54 438.02 667.19 441.86 M 667.19 441.86 664.91 444.62 M 664.91 444.62 660.27 440.77 M 660.27 440.77 662.54 438.02 M 662.54 438.02 664.91 444.62 M 645.66 471.74 648.18 473.83 M 410.69 433.83 196.75 256.84 M 190.29 251.5 177.22 267.31 M 177.22 267.31 190.29 251.5 M 192.11 253 179.03 268.81 M 179.03 268.81 192.11 253 M 181.37 265.97 184.2 268.32 M 184.2 268.32 181.86 271.15 M 181.86 271.15 179.03 268.81 M 179.03 268.81 181.37 265.97 M 179.03 268.81 184.2 268.32 M 192.11 253 194.94 255.34 M 194.94 255.34 192.6 258.17 M 192.6 258.17 189.76 255.83 M 189.76 255.83 192.11 253 M 189.76 255.83 194.94 255.34 M 638.8 309.61 423.04 131.12 M 498.62 494.12 492.51 501.51 M 492.51 501.51 485.11 495.39 M 485.11 495.39 487.38 492.63 M 487.38 492.63 488.09 493.22 M 488.09 493.22 489.65 491.33 M 489.65 491.33 488.95 490.75 M 488.95 490.75 491.22 487.99 M 491.22 487.99 498.62 494.12 M 493.22 500.65 491.64 500.79 M 494.13 499.54 490.54 499.88 M 495.05 498.44 489.44 498.97 M 495.96 497.34 488.33 498.06 M 496.87 496.24 487.23 497.15 M 497.78 495.14 486.13 496.23 M 498.62 494.12 485.11 495.39 M 497.52 493.21 486.02 494.29 M 496.42 492.29 488.29 492.98 M 487.93 493.09 486.93 493.19 M 495.32 491.38 489.2 491.88 M 494.22 490.47 489.1 490.88 M 493.11 489.56 489.66 489.88 M 492.01 488.65 490.57 488.78 M 410.69 433.83 416.81 426.44 M 416.81 426.44 424.21 432.56 M 424.21 432.56 421.94 435.31 M 421.94 435.31 421.23 434.73 M 421.23 434.73 419.67 436.61 M 419.67 436.61 420.37 437.2 M 420.37 437.2 418.1 439.95 M 418.1 439.95 410.69 433.83 M 416.1 427.3 417.68 427.15 M 415.18 428.4 418.78 428.06 M 414.27 429.5 419.88 428.98 M 413.36 430.6 420.98 429.89 M 412.45 431.7 422.09 430.8 M 411.54 432.81 423.19 431.71 M 410.69 433.83 424.21 432.56 M 411.8 434.74 423.3 433.66 M 412.9 435.65 421.1 434.88 M 421.38 434.86 422.39 434.76 M 414 436.56 420.19 435.98 M 415.1 437.48 420.14 437 M 416.21 438.39 419.66 438.06 M 417.31 439.3 418.75 439.17 M 421.94 435.31 488.95 490.75 M 487.38 492.63 420.37 437.2 M 640.45 458.96 621.67 462.9 M 641.8 468.55 625.93 471.85 M 642.47 456.52 713.13 371.1 M 713.13 371.1 648.09 317.29 M 491.22 487.99 424.21 432.56 M 645.66 471.74 624.38 476.13 M 646.26 472.77 626.99 476.83 M 625.93 471.85 629.49 471.09 M 629.49 471.09 628.46 466.39 M 628.46 466.39 628.27 465.18 M 628.27 465.18 624.72 465.95 M 624.72 465.95 625.93 471.85 M 625.93 471.85 628.27 465.18 M 626.35 465.58 624.72 465.95 M 624.72 465.95 636.74 463.44 M 624.47 464.81 637.98 461.95 M 624.38 476.13 626.8 475.62 M 626.8 475.62 623.95 462.39 M 623.95 462.39 621.67 462.9 M 621.67 462.9 624.38 476.13 M 621.71 463.33 622.02 462.79 M 622.06 464.67 623.45 462.51 M 622.26 466.03 624.17 463.24 M 622.54 467.46 624.45 464.67 M 622.82 468.88 624.8 466.01 M 623.17 470.23 625 467.37 M 623.45 471.65 625.28 468.8 M 623.73 473.08 625.63 470.14 M 624.07 474.42 625.91 471.57 M 624.35 475.85 626.19 472.99 M 625.52 475.88 626.47 474.42 M 510.96 495.71 507.48 496.4 M 507.48 496.4 506.45 491.71 M 506.45 491.71 506.26 490.5 M 506.26 490.5 509.75 489.81 M 509.75 489.81 510.96 495.71 M 510.96 495.71 506.26 490.5 M 514.1 498.97 511.75 499.41 M 511.75 499.41 508.98 486.25 M 508.98 486.25 511.39 485.74 M 511.39 485.74 514.1 498.97 M 513.03 499.15 511.56 498.2 M 514.08 498.69 511.22 496.85 M 513.8 497.26 510.94 495.43 M 513.45 495.92 510.66 494 M 513.17 494.49 510.31 492.66 M 512.89 493.07 510.03 491.23 M 512.69 491.71 509.75 489.81 M 512.34 490.36 509.55 488.45 M 512.06 488.94 509.2 487.1 M 511.78 487.51 509.62 486.12 M 511.44 486.17 511.04 485.84 M 633.62 470.26 637.25 469.56 M 637.25 469.56 636.29 464.79 M 636.29 464.79 635.96 463.59 M 635.96 463.59 632.4 464.36 M 632.4 464.36 633.62 470.26 M 633.62 470.26 635.96 463.59 M 641.8 468.55 639.03 469.17 M 639.03 469.17 638.25 465.62 M 638.25 465.62 641.8 468.55 M 503.14 497.32 499.58 498.09 M 499.58 498.09 498.62 493.32 M 498.62 493.32 498.37 492.18 M 498.37 492.18 501.92 491.41 M 501.92 491.41 503.14 497.32 M 503.14 497.32 498.37 492.18 M 494.53 499.07 497.37 498.51 M 497.37 498.51 496.87 496.24 M 496.87 496.24 494.53 499.07 M 509.75 489.81 496.66 492.49 M 509.56 488.59 495.47 491.51 M 624.38 476.13 626.8 475.62 M 626.8 475.62 627.12 477.47 M 627.12 477.47 624.77 477.91 M 624.77 477.91 624.38 476.13 M 625.37 475.9 627 476.98 M 624.49 476.49 626.19 477.63 M 624.77 477.91 624.85 477.98 M 511.75 499.41 514.1 498.97 M 514.1 498.97 514.57 500.82 M 514.57 500.82 512.15 501.33 M 512.15 501.33 511.75 499.41 M 512.82 499.24 514.45 500.32 M 511.87 499.91 513.64 500.98 M 512.14 501.19 512.22 501.25 M 512.02 500.69 492.52 504.7 M 639.75 472.95 639.03 469.17 M 639.03 469.17 641.8 468.55 M 639.03 469.17 639.75 472.95 M 639.75 472.95 642.66 472.31 M 642.66 472.31 641.8 468.55 M 639.75 472.95 641.72 468.49 M 626.8 475.62 625.93 471.85 M 625.93 471.85 628.78 471.3 M 625.93 471.85 626.8 475.62 M 626.8 475.62 629.57 474.99 M 629.57 474.99 628.78 471.3 M 626.8 475.62 628.7 471.23 M 508.98 500.04 508.12 496.27 M 508.12 496.27 510.96 495.71 M 508.12 496.27 508.98 500.04 M 508.98 500.04 511.75 499.41 M 511.75 499.41 510.96 495.71 M 508.98 500.04 510.89 495.65 M 497.37 498.51 494.53 499.07 M 494.53 499.07 495.25 502.85 M 495.25 502.85 498.1 502.29 M 498.1 502.29 497.37 498.51 M 495.25 502.85 497.3 498.45 M 510.96 495.71 494.53 499.07 M 624.77 477.91 514.57 500.82 M 508.98 486.25 493.11 489.56 M 623.66 472.36 621.24 472.88 M 621.24 472.88 620.99 471.74 M 620.99 471.74 621.84 471.51 M 621.84 471.51 621.72 471.02 M 621.72 471.02 620.87 471.24 M 620.87 471.24 620.68 470.03 M 620.68 470.03 622.95 469.52 M 622.95 469.52 623.66 472.36 M 513.38 495.2 515.73 494.76 M 515.73 494.76 515.4 493.56 M 515.4 493.56 514.7 493.77 M 514.7 493.77 514.58 493.27 M 514.58 493.27 515.36 493.12 M 515.36 493.12 515.17 491.91 M 515.17 491.91 512.76 492.43 M 512.76 492.43 513.38 495.2 M 622.95 469.52 623.03 469.59 M 621.61 469.87 623.31 471.01 M 620.72 470.46 621.57 471.03 M 621.65 471.1 623.58 472.29 M 621 471.88 622.23 472.64 M 514.39 492.06 515.32 492.69 M 512.96 492.33 514.59 493.41 M 514.97 493.6 515.52 494.05 M 513.01 493.56 515.02 494.83 M 513.29 494.99 513.67 495.17 M 620.99 471.74 515.4 493.56 M 515.36 493.12 620.87 471.24 M 621.67 462.9 620.79 458.99 M 620.79 458.99 510.51 481.83 M 510.51 481.83 511.39 485.74 M 511.75 499.41 492.83 503.37 M 487.55 501.25 484.3 505.18 M 416.29 438.45 419.04 440.73 M 419.04 440.73 417.94 442.07 M 417.94 442.07 415.18 439.79 M 415.18 439.79 416.29 438.45 M 416.29 438.45 417.94 442.07 M 420.37 437.2 423.21 439.54 M 423.21 439.54 420.93 442.3 M 420.93 442.3 418.1 439.95 M 418.1 439.95 420.37 437.2 M 423.21 439.54 418.1 439.95 M 420.93 442.3 420.37 437.2 M 486.44 498.74 415.18 439.79 M 440.06 453.48 442.89 455.83 M 442.89 455.83 440.62 458.58 M 440.62 458.58 437.78 456.24 M 437.78 456.24 440.06 453.48 M 442.89 455.83 437.78 456.24 M 440.62 458.58 440.06 453.48 M 437.78 456.24 440.62 458.58 M 440.62 458.58 439.51 459.92 M 439.51 459.92 436.68 457.57 M 436.68 457.57 437.78 456.24 M 437.78 456.24 439.51 459.92 M 464.86 474 467.7 476.35 M 467.7 476.35 465.42 479.1 M 465.42 479.1 462.59 476.76 M 462.59 476.76 464.86 474 M 467.7 476.35 462.59 476.76 M 465.42 479.1 464.86 474 M 462.59 476.76 465.42 479.1 M 465.42 479.1 464.31 480.44 M 464.31 480.44 461.48 478.09 M 461.48 478.09 462.59 476.76 M 462.59 476.76 464.31 480.44 M 484.55 490.29 487.38 492.63 M 487.38 492.63 485.11 495.39 M 485.11 495.39 482.27 493.04 M 482.27 493.04 484.55 490.29 M 487.38 492.63 482.27 493.04 M 485.11 495.39 484.55 490.29 M 484.79 495.13 487.55 497.41 M 487.55 497.41 486.44 498.74 M 486.44 498.74 483.69 496.46 M 483.69 496.46 484.79 495.13 M 484.79 495.13 486.44 498.74 M 310.4 128.28 371.19 178.57 M 371.19 178.57 384.85 162.06 M 349.5 81.01 350.29 81.66 M 350.76 82.05 370.13 98.08 M 370.61 98.47 389.98 114.49 M 390.45 114.89 409.82 130.91 M 410.29 131.3 410.23 131.38 M 341.3 90.92 352.01 99.78 M 352.49 100.17 371.86 116.2 M 372.33 116.59 391.7 132.61 M 392.17 133 402.09 141.21 M 333.11 100.83 333.89 101.48 M 334.37 101.88 353.74 117.9 M 354.21 118.29 373.58 134.32 M 374.05 134.71 393.42 150.73 M 393.89 151.12 393.83 151.2 M 324.91 110.74 335.62 119.6 M 336.09 119.99 355.46 136.02 M 355.93 136.41 375.3 152.43 M 375.77 152.82 385.7 161.03 M 316.71 120.65 317.5 121.31 M 317.97 121.7 337.34 137.72 M 337.81 138.11 357.18 154.14 M 357.65 154.53 377.03 170.55 M 377.5 170.94 377.43 171.02 M 341.69 90.45 342.48 91.1 M 342.95 91.49 362.33 107.52 M 362.8 107.91 382.17 123.93 M 382.64 124.32 402.01 140.35 M 402.48 140.74 402.42 140.82 M 333.5 100.36 344.21 109.22 M 344.68 109.61 364.05 125.64 M 364.52 126.03 383.89 142.05 M 384.36 142.44 394.29 150.65 M 325.3 110.27 326.08 110.92 M 326.56 111.31 345.93 127.34 M 346.4 127.73 365.77 143.75 M 366.24 144.14 385.61 160.17 M 386.09 160.56 386.02 160.64 M 317.1 120.18 327.81 129.04 M 328.28 129.43 347.65 145.46 M 348.12 145.85 367.49 161.87 M 367.97 162.26 377.89 170.47 M 311.66 129.33 317.97 121.7 M 326.56 111.31 334.37 101.88 M 342.95 91.49 350.76 82.05 M 328.28 129.43 336.09 119.99 M 344.68 109.61 352.49 100.17 M 331.5 145.74 337.81 138.11 M 346.4 127.73 354.21 118.29 M 362.8 107.91 370.61 98.47 M 348.12 145.85 355.93 136.41 M 364.52 126.03 372.33 116.59 M 351.34 162.16 357.65 154.53 M 366.24 144.14 374.05 134.71 M 382.64 124.32 390.45 114.89 M 367.97 162.26 375.77 152.82 M 384.36 142.44 392.17 133 M 371.19 178.57 377.5 170.94 M 386.09 160.56 393.89 151.12 M 402.48 140.74 410.29 131.3 M 311.18 128.93 317.5 121.31 M 326.08 110.92 333.89 101.48 M 342.48 91.1 350.29 81.66 M 327.81 129.04 335.62 119.6 M 344.21 109.22 352.01 99.78 M 331.03 145.35 337.34 137.72 M 345.93 127.34 353.74 117.9 M 362.33 107.52 370.13 98.08 M 347.65 145.46 355.46 136.02 M 364.05 125.64 371.86 116.2 M 350.87 161.77 357.18 154.14 M 365.77 143.75 373.58 134.32 M 382.17 123.93 389.98 114.49 M 367.49 161.87 375.3 152.43 M 383.89 142.05 391.7 132.61 M 370.71 178.18 377.03 170.55 M 385.61 160.17 393.42 150.73 M 402.01 140.35 409.82 130.91 M 483.45 489.38 483.64 491.39 M 482.34 488.47 482.73 492.49 M 481.24 487.55 481.8 492.65 M 480.14 486.64 480.7 491.74 M 479.12 485.79 479.59 490.83 M 478.01 484.88 478.49 489.92 M 476.91 483.97 477.39 489 M 475.81 483.06 476.29 488.09 M 474.71 482.15 475.18 487.18 M 473.6 481.23 474.08 486.27 M 472.5 480.32 473.06 485.42 M 471.4 479.41 471.96 484.51 M 470.3 478.5 470.85 483.6 M 469.19 477.59 469.75 482.68 M 468.09 476.67 468.65 481.77 M 467.18 476.98 467.55 480.86 M 466.27 478.08 466.44 479.95 M 464.86 474 464.8 474.08 M 463.76 473.09 463.95 475.11 M 462.66 472.18 463.04 476.21 M 461.56 471.27 462.03 476.3 M 460.45 470.36 460.93 475.39 M 459.35 469.44 459.83 474.48 M 458.25 468.53 458.81 473.63 M 457.15 467.62 457.7 472.72 M 456.04 466.71 456.6 471.81 M 454.94 465.8 455.5 470.89 M 453.84 464.88 454.4 469.98 M 452.74 463.97 453.29 469.07 M 451.63 463.06 452.19 468.16 M 450.61 462.21 451.09 467.25 M 449.51 461.3 449.99 466.33 M 448.41 460.39 448.88 465.42 M 447.3 459.48 447.78 464.51 M 446.2 458.57 446.68 463.6 M 445.1 457.65 445.66 462.75 M 444 456.74 444.55 461.84 M 442.89 455.83 443.45 460.93 M 442.05 456.85 442.35 460.02 M 441.14 457.95 441.25 459.1 M 442.83 455.91 442.97 455.89 M 441.92 457.01 444.08 456.81 M 441.01 458.11 445.18 457.72 M 441.17 459.04 446.28 458.63 M 442.27 459.95 447.38 459.54 M 443.37 460.86 448.48 460.45 M 444.48 461.77 449.59 461.37 M 445.58 462.69 450.61 462.21 M 446.68 463.6 451.71 463.13 M 447.78 464.51 452.82 464.04 M 448.88 465.42 453.92 464.95 M 449.99 466.33 455.02 465.86 M 451.01 467.18 456.12 466.77 M 452.11 468.09 457.23 467.69 M 453.22 469.01 458.33 468.6 M 454.32 469.92 459.43 469.51 M 455.42 470.83 460.53 470.42 M 456.52 471.74 461.63 471.33 M 457.63 472.65 462.74 472.25 M 458.73 473.56 463.76 473.09 M 459.83 474.48 464.86 474 M 460.93 475.39 463.95 475.11 M 462.03 476.3 463.04 476.21 M 467.31 476.82 468.17 476.74 M 466.4 477.92 469.27 477.65 M 465.49 479.02 470.38 478.56 M 466.37 479.88 471.48 479.48 M 467.47 480.8 472.58 480.39 M 468.57 481.71 473.68 481.3 M 469.67 482.62 474.79 482.21 M 470.78 483.53 475.89 483.12 M 471.88 484.44 476.91 483.97 M 472.98 485.36 478.01 484.88 M 474.08 486.27 479.12 485.79 M 475.18 487.18 480.22 486.71 M 476.29 488.09 481.32 487.62 M 477.39 489 482.42 488.53 M 478.41 489.85 483.53 489.44 M 479.52 490.76 484.55 490.29 M 480.62 491.67 483.64 491.39 M 481.72 492.59 482.73 492.49 M 439.59 453.09 439.67 453.96 M 438.48 452.18 438.82 454.98 M 437.38 451.27 437.91 456.08 M 436.36 450.42 436.84 455.46 M 435.26 449.51 435.73 454.54 M 434.15 448.6 434.63 453.63 M 433.05 447.69 433.53 452.72 M 431.95 446.77 432.51 451.87 M 430.85 445.86 431.4 450.96 M 429.74 444.95 430.3 450.05 M 428.64 444.04 429.2 449.14 M 427.54 443.13 428.1 448.22 M 426.44 442.21 426.99 447.31 M 425.33 441.3 425.89 446.4 M 424.23 440.39 424.79 445.49 M 423.21 439.54 423.69 444.58 M 422.3 440.65 422.58 443.66 M 421.39 441.75 421.48 442.75 M 423.14 439.62 423.29 439.61 M 422.3 440.65 424.31 440.46 M 421.39 441.75 425.41 441.37 M 421.48 442.75 426.52 442.28 M 422.58 443.66 427.62 443.19 M 423.69 444.58 428.72 444.1 M 424.71 445.42 429.82 445.02 M 425.81 446.34 430.93 445.93 M 426.92 447.25 432.03 446.84 M 428.02 448.16 433.13 447.75 M 429.12 449.07 434.23 448.66 M 430.22 449.98 435.34 449.58 M 431.33 450.9 436.44 450.49 M 432.43 451.81 437.46 451.33 M 433.53 452.72 438.56 452.25 M 434.63 453.63 439.67 453.16 M 435.73 454.54 439.47 454.19 M 436.84 455.46 438.56 455.29 M 702.99 397.95 703.04 398.52 M 701.89 397.04 702.2 399.55 M 700.78 396.13 701.29 400.65 M 699.68 395.21 700.37 401.75 M 698.66 394.37 698.82 396.09 M 698.82 396.09 699.46 402.85 M 697.75 395.47 697.91 397.19 M 697.91 397.19 698.55 403.95 M 696.84 396.57 697 398.29 M 697 398.29 697.64 405.05 M 695.92 397.67 696.09 399.4 M 696.09 399.4 696.73 406.15 M 695.01 398.77 695.18 400.5 M 695.18 400.5 695.82 407.26 M 694.1 399.87 694.27 401.6 M 694.27 401.6 694.91 408.36 M 693.19 400.97 693.36 402.7 M 693.36 402.7 694 409.46 M 692.28 402.08 692.51 403.72 M 692.51 403.72 693.09 410.56 M 691.37 403.18 691.6 404.82 M 691.6 404.82 692.18 411.66 M 690.52 404.2 690.69 405.92 M 690.69 405.92 691.27 412.76 M 689.61 405.3 689.78 407.03 M 689.78 407.03 690.42 413.78 M 688.7 406.4 688.87 408.13 M 688.87 408.13 689.51 414.89 M 687.79 407.5 687.95 409.23 M 687.95 409.23 688.6 415.99 M 686.88 408.6 687.04 410.33 M 687.04 410.33 687.69 417.09 M 685.97 409.7 686.13 411.43 M 686.13 411.43 686.78 418.19 M 685.06 410.81 685.22 412.53 M 685.22 412.53 685.74 418 M 684.15 411.91 684.31 413.63 M 684.31 413.63 684.64 417.08 M 683.24 413.01 683.4 414.73 M 684.03 421.35 684.04 421.49 M 683.4 414.73 683.54 416.17 M 682.33 414.11 682.43 415.26 M 682.93 420.44 683.13 422.59 M 681.82 419.52 682.22 423.69 M 680.72 418.61 681.31 424.8 M 679.62 417.7 679.82 419.06 M 679.82 419.06 680.4 425.9 M 678.75 418.44 678.91 420.16 M 678.91 420.16 679.55 426.92 M 677.84 419.54 678 421.26 M 678 421.26 678.64 428.02 M 676.92 420.64 677.09 422.36 M 677.09 422.36 677.73 429.12 M 676.01 421.74 676.18 423.46 M 676.18 423.46 676.82 430.22 M 675.1 422.84 675.27 424.57 M 675.27 424.57 675.91 431.32 M 674.19 423.94 674.36 425.67 M 674.36 425.67 675 432.42 M 673.28 425.04 673.44 426.77 M 673.44 426.77 674.09 433.53 M 672.37 426.14 672.53 427.87 M 672.53 427.87 673.18 434.63 M 671.46 427.24 671.62 428.97 M 671.62 428.97 672.27 435.73 M 670.55 428.35 670.71 430.07 M 670.71 430.07 671.35 436.83 M 669.64 429.45 669.87 431.09 M 669.87 431.09 670.44 437.93 M 668.73 430.55 668.95 432.19 M 668.95 432.19 669.53 439.03 M 667.88 431.57 668.04 433.3 M 668.04 433.3 668.62 440.13 M 666.97 432.67 667.13 434.4 M 667.13 434.4 667.78 441.16 M 666.06 433.77 666.22 435.5 M 666.22 435.5 666.72 441.47 M 665.15 434.87 665.31 436.6 M 665.31 436.6 665.62 440.56 M 664.24 435.98 664.4 437.7 M 664.4 437.7 664.51 439.65 M 663.33 437.08 663.41 438.74 M 663.97 443.83 664.13 445.56 M 662.87 442.92 663.22 446.66 M 661.76 442.01 662.31 447.76 M 660.66 441.1 660.76 442.11 M 660.76 442.11 661.4 448.86 M 659.68 441.48 659.85 443.21 M 659.85 443.21 660.49 449.96 M 658.77 442.58 659 444.23 M 659 444.23 659.58 451.07 M 657.86 443.68 658.09 445.33 M 658.09 445.33 658.67 452.17 M 656.95 444.78 657.18 446.43 M 657.18 446.43 657.76 453.27 M 656.1 445.81 656.27 447.53 M 656.27 447.53 656.91 454.29 M 655.19 446.91 655.36 448.63 M 655.36 448.63 656 455.39 M 654.28 448.01 654.44 449.73 M 654.44 449.73 655.09 456.49 M 653.37 449.11 653.53 450.84 M 653.53 450.84 654.18 457.59 M 652.46 450.21 652.62 451.94 M 652.62 451.94 653.27 458.7 M 651.55 451.31 651.71 453.04 M 651.71 453.04 652.35 459.8 M 650.64 452.41 650.8 454.14 M 650.8 454.14 651.44 460.9 M 649.73 453.51 649.89 455.24 M 649.89 455.24 650.53 462 M 648.81 454.62 648.98 456.34 M 648.98 456.34 649.63 462.45 M 647.9 455.72 648.07 457.44 M 648.07 457.44 648.53 461.53 M 646.99 456.82 647.22 458.47 M 647.22 458.47 647.43 460.62 M 646.08 457.92 646.31 459.57 M 646.31 459.57 646.32 459.71 M 698.53 394.52 698.81 394.5 M 697.62 395.63 699.34 395.46 M 699.34 395.46 699.92 395.41 M 696.77 396.65 698.43 396.56 M 698.43 396.56 701.02 396.32 M 695.86 397.75 697.52 397.67 M 697.52 397.67 702.12 397.23 M 694.95 398.85 696.67 398.69 M 696.67 398.69 703.22 398.15 M 694.04 399.95 695.76 399.79 M 695.76 399.79 702.52 399.15 M 693.13 401.05 694.85 400.89 M 694.85 400.89 701.61 400.26 M 692.22 402.15 693.94 401.99 M 693.94 401.99 700.7 401.36 M 691.3 403.25 693.03 403.09 M 693.03 403.09 699.79 402.46 M 690.39 404.36 692.12 404.19 M 692.12 404.19 698.88 403.56 M 689.48 405.46 691.21 405.3 M 691.21 405.3 697.97 404.66 M 688.57 406.56 690.3 406.4 M 690.3 406.4 697.06 405.76 M 687.66 407.66 689.39 407.5 M 689.39 407.5 696.15 406.86 M 686.75 408.76 688.48 408.6 M 688.48 408.6 695.23 407.96 M 685.84 409.86 687.56 409.7 M 687.56 409.7 694.39 408.99 M 684.99 410.88 686.65 410.8 M 686.65 410.8 693.48 410.09 M 684.08 411.99 685.74 411.9 M 685.74 411.9 692.57 411.19 M 683.17 413.09 684.9 412.92 M 684.9 412.92 691.66 412.29 M 682.26 414.19 683.99 414.03 M 683.99 414.03 690.74 413.39 M 682.36 415.19 683.07 415.13 M 683.07 415.13 689.83 414.49 M 683.46 416.11 688.92 415.59 M 684.48 416.95 688.01 416.69 M 678.62 418.59 680.34 418.43 M 685.58 417.87 687.1 417.8 M 680.34 418.43 680.49 418.42 M 677.71 419.69 679.43 419.53 M 679.43 419.53 681.59 419.33 M 676.79 420.79 678.52 420.63 M 678.52 420.63 682.69 420.24 M 675.88 421.9 677.61 421.73 M 677.61 421.73 683.79 421.15 M 674.97 423 676.7 422.83 M 676.7 422.83 683.52 422.12 M 674.13 424.02 675.79 423.94 M 675.79 423.94 682.61 423.22 M 673.22 425.12 674.88 425.04 M 674.88 425.04 681.7 424.32 M 672.3 426.22 674.03 426.06 M 674.03 426.06 680.79 425.42 M 671.39 427.32 673.12 427.16 M 673.12 427.16 679.88 426.53 M 670.48 428.42 672.21 428.26 M 672.21 428.26 678.97 427.63 M 669.57 429.53 671.3 429.36 M 671.3 429.36 678.06 428.73 M 668.66 430.63 670.39 430.46 M 670.39 430.46 677.15 429.83 M 667.75 431.73 669.48 431.57 M 669.48 431.57 676.23 430.93 M 666.84 432.83 668.56 432.67 M 668.56 432.67 675.32 432.03 M 665.93 433.93 667.65 433.77 M 667.65 433.77 674.41 433.13 M 665.02 435.03 666.74 434.87 M 666.74 434.87 673.5 434.23 M 664.11 436.13 665.83 435.97 M 665.83 435.97 672.59 435.34 M 663.2 437.23 664.92 437.07 M 664.92 437.07 671.74 436.36 M 662.86 438.28 664.01 438.17 M 664.01 438.17 670.83 437.46 M 663.96 439.19 669.92 438.56 M 664.99 440.04 669.01 439.66 M 659.62 441.56 661.05 441.42 M 666.09 440.95 668.1 440.76 M 658.71 442.66 660.43 442.5 M 660.43 442.5 662.16 442.34 M 657.79 443.76 659.52 443.6 M 659.52 443.6 663.26 443.25 M 656.88 444.86 658.61 444.7 M 658.61 444.7 664.36 444.16 M 655.97 445.96 657.7 445.8 M 657.7 445.8 664.46 445.17 M 655.06 447.07 656.79 446.9 M 656.79 446.9 663.55 446.27 M 654.15 448.17 655.88 448 M 655.88 448 662.64 447.37 M 653.24 449.27 654.97 449.11 M 654.97 449.11 661.72 448.47 M 652.33 450.37 654.05 450.21 M 654.05 450.21 660.88 449.49 M 651.48 451.39 653.14 451.31 M 653.14 451.31 659.97 450.59 M 650.57 452.49 652.23 452.41 M 652.23 452.41 659.06 451.7 M 649.66 453.59 651.32 453.51 M 651.32 453.51 658.15 452.8 M 648.75 454.69 650.48 454.53 M 650.48 454.53 657.23 453.9 M 647.84 455.8 649.56 455.63 M 649.56 455.63 656.32 455 M 646.93 456.9 648.65 456.73 M 648.65 456.73 655.41 456.1 M 646.02 458 647.74 457.84 M 647.74 457.84 654.5 457.2 M 645.46 458.99 646.83 458.94 M 646.83 458.94 653.59 458.3 M 646.56 459.91 652.68 459.4 M 647.66 460.82 651.77 460.5 M 648.77 461.73 650.86 461.61 M 649.87 462.64 649.95 462.71 M 720.22 376.96 720.29 377.68 M 719.12 376.05 719.37 378.78 M 718.01 375.14 718.46 379.88 M 715.61 360.57 715.78 362.29 M 716.91 374.23 717.55 380.99 M 714.51 359.65 714.86 363.39 M 716 375.33 716.64 382.09 M 713.49 358.81 713.9 363.92 M 715.15 376.35 715.73 383.19 M 712.38 357.9 712.8 363.01 M 714.24 377.45 714.82 384.29 M 711.28 356.98 711.69 362.09 M 713.33 378.55 713.91 385.39 M 710.18 356.07 710.59 361.18 M 712.42 379.65 713.06 386.41 M 709.08 355.16 709.49 360.27 M 711.51 380.76 712.15 387.51 M 707.97 354.25 708.39 359.36 M 710.6 381.86 711.24 388.61 M 706.87 353.34 707.28 358.45 M 709.69 382.96 710.33 389.72 M 705.77 352.42 706.26 357.6 M 708.78 384.06 709.42 390.82 M 704.67 351.51 705.16 356.69 M 707.87 385.16 708.51 391.92 M 703.56 350.6 704.06 355.78 M 706.95 386.26 707.6 393.02 M 702.46 349.69 702.95 354.86 M 706.04 387.36 706.69 394.12 M 701.36 348.78 701.85 353.95 M 705.13 388.46 705.78 395.22 M 700.26 347.86 700.75 353.04 M 704.29 389.49 704.7 394.6 M 699.24 347.81 699.65 352.13 M 703.38 390.59 703.6 393.69 M 698.33 348.92 698.54 351.22 M 702.47 391.69 702.5 392.77 M 697.41 350.02 697.44 350.3 M 695.93 344.28 696.09 346.01 M 694.82 343.37 695.18 347.11 M 693.72 342.46 694.13 347.57 M 692.62 341.54 693.03 346.66 M 691.52 340.63 692.01 345.81 M 690.41 339.72 690.91 344.9 M 689.31 338.81 689.8 343.99 M 688.21 337.9 688.7 343.07 M 687.11 336.98 687.6 342.16 M 686.08 336.14 686.5 341.25 M 684.98 335.23 685.39 340.34 M 683.88 334.31 684.29 339.43 M 682.78 333.4 683.19 338.51 M 681.67 332.49 682.09 337.6 M 680.57 331.58 680.98 336.69 M 679.47 330.67 679.88 335.78 M 678.37 329.75 678.86 334.93 M 677.26 328.84 677.76 334.02 M 676.16 327.93 676.65 333.11 M 675.06 327.02 675.55 332.19 M 674.11 327.69 674.45 331.28 M 673.2 328.79 673.35 330.37 M 674.63 327.06 675.06 327.02 M 673.78 328.08 676.16 327.93 M 672.87 329.18 677.26 328.84 M 673.19 330.24 678.37 329.75 M 674.29 331.15 679.39 330.6 M 675.39 332.06 680.49 331.51 M 676.5 332.98 681.59 332.43 M 677.6 333.89 682.7 333.34 M 678.7 334.8 683.8 334.25 M 679.8 335.71 684.9 335.16 M 680.91 336.62 686 336.07 M 681.93 337.47 687.11 336.98 M 683.03 338.38 688.21 337.9 M 684.13 339.3 689.31 338.81 M 685.24 340.21 690.41 339.72 M 686.34 341.12 691.52 340.63 M 687.44 342.03 692.54 341.48 M 688.54 342.94 693.64 342.39 M 689.65 343.86 694.74 343.3 M 690.75 344.77 695.85 344.22 M 691.85 345.68 696.81 345.14 M 692.95 346.59 695.89 346.24 M 694.06 347.5 694.98 347.34 M 699.11 347.97 700.26 347.86 M 698.2 349.07 701.36 348.78 M 697.28 350.17 702.46 349.69 M 698.39 351.09 703.56 350.6 M 699.49 352 704.67 351.51 M 700.59 352.91 705.77 352.42 M 701.69 353.82 706.79 353.27 M 702.8 354.73 707.89 354.18 M 703.9 355.65 709 355.09 M 705 356.56 710.1 356.01 M 706.1 357.47 711.2 356.92 M 707.21 358.38 712.3 357.83 M 708.31 359.29 713.41 358.74 M 709.33 360.14 714.51 359.65 M 710.43 361.05 715.61 360.57 M 711.54 361.96 716.43 361.51 M 712.64 362.88 715.52 362.61 M 713.74 363.79 714.6 363.71 M 716.58 374.62 717.3 374.55 M 715.67 375.72 718.41 375.46 M 714.76 376.82 719.51 376.38 M 713.85 377.92 720.61 377.29 M 712.94 379.02 719.7 378.39 M 712.03 380.13 718.79 379.49 M 711.12 381.23 717.88 380.59 M 710.21 382.33 717.03 381.61 M 709.3 383.43 716.12 382.72 M 708.39 384.53 715.21 383.82 M 707.54 385.55 714.3 384.92 M 706.63 386.65 713.39 386.02 M 705.72 387.76 712.48 387.12 M 704.81 388.86 711.57 388.22 M 703.9 389.96 710.66 389.32 M 702.99 391.06 709.74 390.42 M 702.07 392.16 708.83 391.52 M 702.81 393.03 707.92 392.63 M 703.91 393.95 707.01 393.73 M 705.02 394.86 706.17 394.75 M 716.91 374.23 715.97 373.45 M 701 391.54 701.94 392.32 M 715.84 373.6 716 375.33 M 714.92 374.7 715.15 376.35 M 714.01 375.8 714.24 377.45 M 713.17 376.83 713.33 378.55 M 712.26 377.93 712.42 379.65 M 711.35 379.03 711.51 380.76 M 710.43 380.13 710.6 381.86 M 709.52 381.23 709.69 382.96 M 708.61 382.33 708.78 384.06 M 707.7 383.43 707.87 385.16 M 706.79 384.54 706.95 386.26 M 705.88 385.64 706.04 387.36 M 704.97 386.74 705.13 388.46 M 704.06 387.84 704.29 389.49 M 703.15 388.94 703.38 390.59 M 702.3 389.96 702.47 391.69 M 701.39 391.06 701.47 391.93 M 715.77 373.68 716.2 373.64 M 714.86 374.78 716.58 374.62 M 713.95 375.88 715.67 375.72 M 713.04 376.98 714.76 376.82 M 712.13 378.09 713.85 377.92 M 711.22 379.19 712.94 379.02 M 710.3 380.29 712.03 380.13 M 709.39 381.39 711.12 381.23 M 708.55 382.41 710.21 382.33 M 707.64 383.51 709.3 383.43 M 706.73 384.61 708.39 384.53 M 705.81 385.72 707.54 385.55 M 704.9 386.82 706.63 386.65 M 703.99 387.92 705.72 387.76 M 703.08 389.02 704.81 388.86 M 702.17 390.12 703.9 389.96 M 701.26 391.22 702.99 391.06 M 701.79 392.19 702.07 392.16 M 671.83 324.35 671.81 324.86 M 670.73 323.44 670.9 325.96 M 669.63 322.52 669.98 327.06 M 668.52 321.61 668.94 326.72 M 667.42 320.7 667.83 325.81 M 666.32 319.79 666.73 324.9 M 665.22 318.88 665.71 324.05 M 664.11 317.96 664.61 323.14 M 663.01 317.05 663.5 322.23 M 661.91 316.14 662.4 321.32 M 660.81 315.23 661.3 320.4 M 659.7 314.32 660.2 319.49 M 658.68 313.47 659.09 318.58 M 657.58 312.56 657.99 317.67 M 656.48 311.64 656.89 316.76 M 655.37 310.73 655.79 315.84 M 654.36 311.48 654.68 314.93 M 653.45 312.58 653.58 314.02 M 655.01 310.69 655.29 310.67 M 654.1 311.8 656.4 311.58 M 653.18 312.9 657.5 312.49 M 653.5 313.96 658.6 313.4 M 654.53 314.8 659.7 314.32 M 655.63 315.71 660.81 315.23 M 656.73 316.63 661.91 316.14 M 657.83 317.54 663.01 317.05 M 658.94 318.45 664.11 317.96 M 660.04 319.36 665.22 318.88 M 661.14 320.27 666.24 319.72 M 662.24 321.19 667.34 320.63 M 663.35 322.1 668.44 321.55 M 664.45 323.01 669.55 322.46 M 665.55 323.92 670.65 323.37 M 666.65 324.83 671.75 324.28 M 667.76 325.75 671.42 325.33 M 668.78 326.59 670.51 326.43 M 418.59 114.85 418.66 115.57 M 417.49 113.94 417.82 116.59 M 416.39 113.03 416.91 117.7 M 415.37 112.18 415.78 117.29 M 414.26 111.27 414.68 116.38 M 413.16 110.36 413.57 115.47 M 412.06 109.45 412.47 114.56 M 410.96 108.53 411.37 113.65 M 409.85 107.62 410.27 112.73 M 408.75 106.71 409.17 111.82 M 407.65 105.8 408.14 110.97 M 406.55 104.89 407.04 110.06 M 405.44 103.97 405.94 109.15 M 404.34 103.06 404.83 108.24 M 403.24 102.15 403.73 107.33 M 402.22 101.3 402.63 106.41 M 401.21 102.2 401.53 105.5 M 400.3 103.3 400.42 104.59 M 398.91 98.57 398.98 99.29 M 397.81 97.66 398.07 100.39 M 396.7 96.74 397.16 101.49 M 395.6 95.83 396.02 100.94 M 394.5 94.92 394.99 100.1 M 393.4 94.01 393.89 99.18 M 392.29 93.1 392.79 98.27 M 391.19 92.18 391.68 97.36 M 390.09 91.27 390.58 96.45 M 388.99 90.36 389.48 95.54 M 387.96 89.51 388.38 94.62 M 386.86 88.6 387.27 93.71 M 385.76 87.69 386.17 92.8 M 384.66 86.78 385.07 91.89 M 383.55 85.86 383.97 90.98 M 382.45 84.95 382.87 90.06 M 381.35 84.04 381.76 89.15 M 380.25 83.13 380.74 88.31 M 379.14 82.22 379.64 87.39 M 378.04 81.3 378.53 86.48 M 376.99 80.97 377.43 85.57 M 376.08 82.07 376.33 84.66 M 375.17 83.17 375.23 83.75 M 373.71 77.72 373.85 79.16 M 372.61 76.81 372.94 80.26 M 371.51 75.9 371.92 81.01 M 370.4 74.99 370.82 80.1 M 369.3 74.07 369.72 79.19 M 368.2 73.16 368.61 78.27 M 367.1 72.25 367.59 77.43 M 365.99 71.34 366.49 76.51 M 364.89 70.43 365.38 75.6 M 363.79 69.51 364.28 74.69 M 362.69 68.6 363.18 73.78 M 361.66 67.76 362.08 72.87 M 360.56 66.84 360.97 71.95 M 359.46 65.93 359.87 71.04 M 358.36 65.02 358.77 70.13 M 357.31 64.68 357.67 69.22 M 356.4 65.78 356.57 68.31 M 355.49 66.88 355.46 67.39 M 356.98 65.08 358.28 64.95 M 356.07 66.18 359.38 65.87 M 355.38 67.33 360.48 66.78 M 356.49 68.24 361.58 67.69 M 357.51 69.09 362.69 68.6 M 358.61 70 363.79 69.51 M 359.71 70.91 364.89 70.43 M 360.82 71.82 365.99 71.34 M 361.92 72.74 367.1 72.25 M 363.02 73.65 368.12 73.1 M 364.12 74.56 369.22 74.01 M 365.23 75.47 370.33 74.92 M 366.33 76.38 371.43 75.83 M 367.43 77.3 372.53 76.74 M 368.53 78.21 373.63 77.66 M 369.64 79.12 374.24 78.69 M 370.66 79.97 373.33 79.79 M 371.76 80.88 372.48 80.81 M 376.6 81.44 378.04 81.3 M 375.69 82.54 379.14 82.22 M 375.07 83.62 380.25 83.13 M 376.17 84.53 381.27 83.98 M 377.27 85.44 382.37 84.89 M 378.38 86.35 383.48 85.8 M 379.48 87.26 384.58 86.71 M 380.58 88.17 385.68 87.62 M 381.68 89.09 386.78 88.54 M 382.79 90 387.88 89.45 M 383.81 90.85 388.99 90.36 M 384.91 91.76 390.09 91.27 M 386.01 92.67 391.19 92.18 M 387.12 93.58 392.29 93.1 M 388.22 94.49 393.4 94.01 M 389.32 95.41 394.5 94.92 M 390.42 96.32 395.52 95.77 M 391.53 97.23 396.63 96.68 M 392.63 98.14 397.73 97.59 M 393.73 99.05 398.83 98.5 M 394.83 99.97 398.72 99.6 M 395.94 100.88 397.81 100.7 M 401.99 101.25 402.14 101.24 M 401.08 102.35 403.24 102.15 M 400.17 103.45 404.34 103.06 M 400.27 104.46 405.44 103.97 M 401.37 105.37 406.55 104.89 M 402.47 106.28 407.65 105.8 M 403.57 107.2 408.67 106.64 M 404.68 108.11 409.78 107.56 M 405.78 109.02 410.88 108.47 M 406.88 109.93 411.98 109.38 M 407.98 110.84 413.08 110.29 M 409.09 111.76 414.18 111.2 M 410.19 112.67 415.29 112.12 M 411.21 113.52 416.39 113.03 M 412.31 114.43 417.49 113.94 M 413.42 115.34 418.59 114.85 M 414.52 116.25 418.4 115.89 M 415.62 117.16 417.49 116.99 M 341.47 68.27 341.51 68.71 M 340.37 67.36 340.6 69.81 M 339.27 66.45 339.69 70.91 M 338.29 66.83 338.78 72.01 M 337.38 67.93 337.87 73.11 M 336.47 69.03 336.96 74.21 M 335.56 70.14 336.11 75.23 M 334.64 71.24 335.2 76.33 M 333.73 72.34 334.29 77.44 M 332.82 73.44 333.38 78.54 M 331.98 74.46 332.47 79.64 M 331.07 75.56 331.56 80.74 M 330.15 76.66 330.65 81.84 M 329.24 77.77 329.74 82.94 M 328.33 78.87 328.82 84.04 M 327.42 79.97 327.91 85.14 M 326.51 81.07 327 86.25 M 325.6 82.17 326.09 87.35 M 324.69 83.27 325.25 88.37 M 323.78 84.37 324.34 89.47 M 322.87 85.47 323.42 90.57 M 321.96 86.57 322.51 91.67 M 321.04 87.68 321.6 92.77 M 320.2 88.7 320.69 93.87 M 319.29 89.8 319.78 94.98 M 318.38 90.9 318.76 94.93 M 317.47 92 317.66 94.01 M 317.03 98.14 317.05 98.28 M 315.93 97.22 316.2 99.3 M 314.83 96.31 315.29 100.4 M 313.82 96.41 314.38 101.5 M 312.91 97.51 313.47 102.61 M 312 98.61 312.56 103.71 M 311.09 99.71 311.65 104.81 M 310.18 100.81 310.74 105.91 M 309.27 101.91 309.82 107.01 M 308.42 102.93 308.91 108.11 M 307.51 104.04 308 109.21 M 306.6 105.14 307.09 110.31 M 305.69 106.24 306.18 111.41 M 304.78 107.34 305.27 112.52 M 303.87 108.44 304.42 113.54 M 302.96 109.54 303.51 114.64 M 302.05 110.64 302.6 115.74 M 301.13 111.74 301.69 116.84 M 300.22 112.85 300.78 117.94 M 299.31 113.95 299.87 119.04 M 298.4 115.05 298.96 120.15 M 297.56 116.07 298.05 121.25 M 296.64 117.17 297.14 122.35 M 295.73 118.27 296.23 123.45 M 294.82 119.37 295.31 124.55 M 293.91 120.47 294.32 124.79 M 293 121.58 293.22 123.88 M 292.09 122.68 292.12 122.96 M 338.29 66.83 339.58 66.71 M 337.38 67.93 340.68 67.62 M 336.47 69.03 341.64 68.55 M 335.56 70.14 340.73 69.65 M 334.64 71.24 339.82 70.75 M 333.73 72.34 338.91 71.85 M 332.82 73.44 338 72.95 M 331.91 74.54 337.09 74.05 M 331 75.64 336.18 75.16 M 330.09 76.74 335.27 76.26 M 329.24 77.77 334.36 77.36 M 328.33 78.87 333.44 78.46 M 327.42 79.97 332.53 79.56 M 326.51 81.07 331.62 80.66 M 325.6 82.17 330.71 81.76 M 324.69 83.27 329.8 82.86 M 323.78 84.37 328.96 83.89 M 322.87 85.47 328.04 84.99 M 321.96 86.57 327.13 86.09 M 321.04 87.68 326.22 87.19 M 320.13 88.78 325.31 88.29 M 319.22 89.88 324.4 89.39 M 318.31 90.98 323.49 90.49 M 317.47 92 322.58 91.59 M 316.63 93.17 321.67 92.7 M 317.74 94.08 320.76 93.8 M 318.84 94.99 319.85 94.9 M 313.82 96.41 314.83 96.31 M 312.91 97.51 315.93 97.22 M 312 98.61 317.03 98.14 M 311.09 99.71 316.27 99.22 M 310.18 100.81 315.36 100.32 M 309.27 101.91 314.44 101.43 M 308.36 103.01 313.53 102.53 M 307.45 104.11 312.62 103.63 M 306.53 105.22 311.71 104.73 M 305.69 106.24 310.8 105.83 M 304.78 107.34 309.89 106.93 M 303.87 108.44 308.98 108.03 M 302.96 109.54 308.07 109.13 M 302.05 110.64 307.16 110.23 M 301.13 111.74 306.25 111.34 M 300.22 112.85 305.34 112.44 M 299.31 113.95 304.49 113.46 M 298.4 115.05 303.58 114.56 M 297.49 116.15 302.67 115.66 M 296.58 117.25 301.76 116.76 M 295.67 118.35 300.85 117.86 M 294.82 119.37 299.93 118.97 M 293.91 120.47 299.02 120.07 M 293 121.58 298.11 121.17 M 292.09 122.68 297.2 122.27 M 292.98 123.68 296.29 123.37 M 294.09 124.59 295.38 124.47 M 346.74 68 295.27 130.21 M 628.27 465.18 628.46 466.39 M 628.46 466.39 629.49 471.09 M 629.49 471.09 633.62 470.26 M 633.62 470.26 632.4 464.36 M 632.4 464.36 628.27 465.18 M 637.25 469.56 638.24 469.32 M 638.24 469.32 638.89 468.53 M 638.89 468.53 638.25 465.62 M 638.25 465.62 636.28 463.99 M 636.28 463.99 636.74 463.44 M 636.74 463.44 635.96 463.59 M 635.96 463.59 636.29 464.79 M 636.29 464.79 637.25 469.56 M 638.24 469.32 639.03 469.17 M 639.03 469.17 638.89 468.53 M 638.89 468.53 638.24 469.32 M 630.91 470.81 629.14 469.74 M 632.27 470.61 628.94 468.38 M 633.62 470.26 628.66 466.96 M 633.41 468.9 628.38 465.53 M 633.13 467.48 629.34 465.01 M 637.89 469.43 637.12 468.92 M 632.79 466.13 630.77 464.73 M 638.7 468.77 636.84 467.49 M 632.51 464.71 632.11 464.38 M 638.65 467.54 636.49 466.15 M 638.37 466.12 636.21 464.72 M 636.55 463.68 636.24 463.56 M 638.77 468.04 637.89 469.43 M 638.49 466.61 637.1 468.77 M 638.02 465.42 636.82 467.35 M 637.23 464.77 636.48 466 M 633.62 470.26 633.55 470.34 M 636.44 464.12 636.2 464.58 M 633.41 468.9 632.27 470.61 M 633.13 467.48 630.91 470.81 M 632.79 466.13 629.49 471.09 M 632.51 464.71 629.14 469.74 M 631.41 464.59 628.94 468.38 M 629.98 464.87 628.66 466.96 M 628.56 465.15 628.38 465.53 M 498.65 498.25 497.11 497.23 M 499.46 497.59 497.06 496 M 499.18 496.17 497.71 495.22 M 498.84 494.82 498.36 494.43 M 504.21 497.15 502.88 496.18 M 498.56 493.4 497.09 492.45 M 505.55 496.8 502.54 494.84 M 506.98 496.52 502.26 493.41 M 507.31 495.48 501.98 491.99 M 506.97 494.13 502.71 491.27 M 506.69 492.71 504.05 490.92 M 506.41 491.28 505.41 490.72 M 507.29 495.99 506.98 496.52 M 507.09 494.63 505.55 496.8 M 506.81 493.2 504.21 497.15 M 506.53 491.78 503.04 497.11 M 506.12 490.51 502.76 495.69 M 504.69 490.79 502.48 494.26 M 503.35 491.13 502.2 492.84 M 499.42 497.16 498.65 498.25 M 501.92 491.41 501.86 491.49 M 499.08 495.82 497.3 498.45 M 498.8 494.39 497.01 497.02 M 498.52 492.97 498.07 493.66 M 497.79 492.24 497.29 493.01 M 412.9 442.54 483.53 500.98 M 410.88 444.98 481.52 503.41 M 408.93 447.34 479.56 505.77 M 406.98 449.7 477.61 508.13 M 405.16 451.9 475.79 510.34 M 403.27 454.18 473.9 512.62 M 401.45 456.39 472.08 514.82 M 733.18 354.56 740.86 345.28 M 658.77 293 666.44 283.72 M 584.35 231.45 592.03 222.16 M 509.94 169.89 517.62 160.61 M 435.53 108.33 443.21 99.05 M 361.12 46.77 368.8 37.49 M 547.19 200.7 554.87 191.42 M 485.99 499.29 492.52 504.7 M 488.66 499.91 492.83 503.37 M 492.83 503.37 492.52 504.7 M 490.93 500.21 492.51 501.51 M 492.51 501.51 491.73 502.45 M 491.73 502.45 490.15 501.15 M 490.15 501.15 490.93 500.21 M 492.51 501.51 490.15 501.15 M 265.54 573.54 8.68 361.05 M 266.84 573.56 9.2 360.42 M 286.81 574.45 16.88 351.14 M 288.11 574.47 17.4 350.51 M 308 575.28 25.08 341.23 M 309.38 575.37 25.6 340.6 M 329.27 576.19 33.27 331.32 M 330.58 576.21 33.79 330.69 M 350.54 577.09 41.47 321.41 M 351.84 577.11 41.99 320.78 M 371.73 577.93 49.67 311.5 M 373.04 577.95 50.19 310.87 M 393 578.83 57.87 301.59 M 394.31 578.85 58.39 300.96 M 414.19 579.67 66.07 291.68 M 415.58 579.76 66.59 291.05 M 435.46 580.57 74.27 281.77 M 436.77 580.59 74.79 281.14 M 456.73 581.47 141.13 320.39 M 458.04 581.5 141.65 319.76 M 477.92 582.31 149.33 310.48 M 479.31 582.4 149.85 309.85 M 141.85 304.29 90.66 261.95 M 142.37 303.66 91.18 261.32 M 133.65 314.2 82.47 271.86 M 134.17 313.57 82.99 271.23 M 496.5 583.11 156.48 301.83 M 497.8 583.13 157.01 301.2 M 517.76 584.01 164.68 291.92 M 519.07 584.03 165.2 291.29 M 157.2 285.73 106.02 243.38 M 157.72 285.1 106.54 242.76 M 149 295.64 97.82 253.3 M 149.52 295.01 98.34 252.67 M 537.65 584.83 172.36 282.63 M 538.96 584.85 172.88 282 M 164.88 276.45 113.7 234.1 M 165.4 275.82 114.22 233.47 M 180.3 257.8 129.12 215.46 M 180.76 257.25 129.57 214.91 M 172.1 267.71 120.92 225.37 M 172.56 267.16 121.38 224.82 M 186.41 247.22 136.8 206.18 M 186.93 246.59 137.32 205.55 M 195.66 239.24 144.48 196.9 M 196.18 238.61 145 196.27 M 203.34 229.96 152.15 187.62 M 203.86 229.33 152.67 186.99 M 218.69 211.4 167.51 169.06 M 219.21 210.77 168.03 168.43 M 224.8 200.81 175.19 159.78 M 225.32 200.19 175.71 159.15 M 234.05 192.84 182.87 150.49 M 234.57 192.21 183.39 149.87 M 241.79 183.48 190.61 141.13 M 242.25 182.93 191.06 140.58 M 257.15 164.91 205.97 122.57 M 257.67 164.28 206.49 121.94 M 247.37 173.52 197.77 132.48 M 247.89 172.89 198.29 131.85 M 263.25 154.33 213.64 113.29 M 263.77 153.7 214.16 112.66 M 208.92 220.01 159.31 178.97 M 209.44 219.38 159.83 178.34 M 272.5 146.35 221.32 104.01 M 273.02 145.72 221.84 103.38 M 556.29 585.54 179.58 273.9 M 557.53 585.64 474.54 516.98 M 577.48 586.38 482.28 507.62 M 578.8 586.54 482.74 507.07 M 597.44 587.26 496.57 503.81 M 598.75 587.28 497.57 503.57 M 617.32 588.07 512.36 501.24 M 618.63 588.1 513.35 501 M 637.21 588.89 527.52 498.15 M 638.59 588.98 528.51 497.91 M 657.17 589.77 542.6 494.99 M 658.48 589.79 543.59 494.75 M 668.86 583.81 557.76 491.9 M 669.38 583.18 558.75 491.66 M 676.54 574.53 572.84 488.74 M 677.06 573.9 573.83 488.5 M 684.22 565.25 587.92 485.58 M 684.74 564.62 588.99 485.41 M 691.96 555.89 603.14 482.41 M 692.42 555.34 604.07 482.25 M 699.64 546.61 618.22 479.25 M 700.16 545.98 619.29 479.08 M 707.32 537.33 632.67 475.57 M 707.84 536.7 633.74 475.4 M 715 528.05 647.04 471.83 M 715.52 527.42 647.56 471.2 M 722.67 518.77 654.72 462.55 M 723.2 518.14 655.24 461.92 M 730.35 509.48 662.4 453.27 M 730.87 508.86 662.92 452.64 M 738.03 500.2 670.08 443.99 M 738.55 499.57 670.6 443.36 M 745.71 490.92 677.75 434.7 M 746.23 490.29 678.27 434.08 M 753.39 481.64 685.43 425.42 M 753.91 481.01 685.95 424.79 M 761.13 472.28 693.18 416.06 M 761.59 471.73 693.63 415.51 M 768.81 463 700.85 406.78 M 769.33 462.37 701.37 406.15 M 776.49 453.72 708.53 397.5 M 777.01 453.09 709.05 396.87 M 784.16 444.44 716.21 388.22 M 784.69 443.81 716.73 387.59 M 791.84 435.16 723.89 378.94 M 792.36 434.53 724.41 378.31 M 649.65 315.41 629.02 340.34 M 249.01 189.98 586.5 469.18 M 305.88 132.63 387.69 200.31 M 596.67 373.19 664.78 429.54 M 567.22 348.83 568.8 350.13 M 415.64 223.43 418.48 225.78 M 325 350.48 404.12 254.84 M 449.02 453.08 502.96 387.87 M 525.99 360.03 528.14 357.43 M 569.13 307.88 577.46 297.81 M 445.11 205.28 453.44 195.22 M 96.34 291.15 435.57 571.78 M 789.31 375.69 666.78 523.8 M 96.34 291.15 336.38 1 M 336.38 1 789.31 375.69 M 435.57 571.78 666.78 523.8 M 666.78 523.8 789.31 375.69 M 666.78 523.8 435.57 571.78 M 435.57 571.78 96.34 291.15 M 96.34 291.15 336.38 1 M 336.38 1 789.31 375.69"/>
</g>
</svg>