<?xml version="1.0"?>
<svg xmlns="http://www.w3.org/2000/svg" version="1.2" baseProfile="tiny" width="800" height="708" viewBox="0 0 800 708" stroke-linecap="round" stroke-linejoin="round">
<g id="15" fill="none" stroke="black" stroke-width="1">
<path d="M 309.68 512.17 304.31 505.31 M 304.31 505.31 311.18 499.94 M 311.18 499.94 323.19 501.63 M 316.55 506.81 317.82 494.76 M 317.82 494.76 323.19 501.63 M 323.19 501.63 316.55 506.81 M 316.55 506.81 311.18 499.94 M 311.18 499.94 317.82 494.76 M 217.12 573.39 222.49 580.26 M 222.49 580.26 215.85 585.44 M 215.85 585.44 210.48 578.57 M 210.48 578.57 217.12 573.39 M 217.12 573.39 215.85 585.44 M 222.49 580.26 210.48 578.57 M 219.71 576.71 213.08 581.89 M 210.48 578.57 215.85 585.44 M 215.85 585.44 208.98 590.81 M 208.98 590.81 203.61 583.94 M 203.61 583.94 210.48 578.57 M 210.48 578.57 208.98 590.81 M 215.85 585.44 203.61 583.94 M 213.08 581.89 206.2 587.25 M 316.55 506.81 304.31 505.31 M 309.68 512.17 311.18 499.94 M 311.18 499.94 316.55 506.81 M 316.55 506.81 309.68 512.17 M 309.68 512.17 304.31 505.31 M 304.31 505.31 311.18 499.94 M 311.18 499.94 323.19 501.63 M 316.55 506.81 317.82 494.76 M 317.82 494.76 323.19 501.63 M 323.19 501.63 316.55 506.81 M 316.55 506.81 311.18 499.94 M 311.18 499.94 317.82 494.76 M 217.12 573.39 222.49 580.26 M 222.49 580.26 215.85 585.44 M 215.85 585.44 210.48 578.57 M 210.48 578.57 217.12 573.39 M 217.12 573.39 215.85 585.44 M 222.49 580.26 210.48 578.57 M 219.71 576.71 213.08 581.89 M 210.48 578.57 215.85 585.44 M 215.85 585.44 208.98 590.81 M 208.98 590.81 203.61 583.94 M 203.61 583.94 210.48 578.57 M 210.48 578.57 208.98 590.81 M 215.85 585.44 203.61 583.94 M 213.08 581.89 206.2 587.25 M 206.2 587.25 219.71 576.71 M 210.28 592.46 202.32 582.28 M 202.32 582.28 215.82 571.74 M 215.82 571.74 223.78 581.92 M 223.78 581.92 210.28 592.46 M 306.9 508.62 320.41 498.07 M 310.98 513.83 303.02 503.65 M 303.02 503.65 316.52 493.1 M 316.52 493.1 324.48 503.28 M 324.48 503.28 310.98 513.83 M 116.81 662.78 439.52 410.78 M 112.15 655.36 434.15 403.91 M 144.33 707.26 799 196.05 M 756.39 152.29 434.15 403.91 M 762.47 158.6 439.52 410.78 M 557.39 321.41 549.43 311.23 M 549.43 311.23 562.7 300.87 M 562.7 300.87 570.66 311.05 M 570.66 311.05 557.39 321.41 M 566.59 305.84 553.32 316.2 M 658.09 242.78 650.13 232.59 M 650.13 232.59 663.64 222.05 M 663.64 222.05 671.6 232.23 M 671.6 232.23 658.09 242.78 M 654.02 237.57 667.53 227.02 M 667.53 227.02 660.66 232.39 M 663.43 235.94 664.93 223.7 M 670.3 230.57 658.06 229.07 M 658.06 229.07 663.43 235.94 M 663.43 235.94 670.3 230.57 M 670.3 230.57 664.93 223.7 M 664.93 223.7 658.06 229.07 M 654.02 237.57 660.66 232.39 M 656.8 241.12 658.06 229.07 M 663.43 235.94 651.43 234.25 M 651.43 234.25 656.8 241.12 M 656.8 241.12 663.43 235.94 M 663.43 235.94 658.06 229.07 M 658.06 229.07 651.43 234.25 M 550.73 312.88 556.1 319.75 M 556.1 319.75 562.73 314.57 M 562.73 314.57 557.36 307.7 M 557.36 307.7 550.73 312.88 M 550.73 312.88 562.73 314.57 M 556.1 319.75 557.36 307.7 M 557.36 307.7 562.73 314.57 M 562.73 314.57 569.37 309.39 M 569.37 309.39 564 302.52 M 564 302.52 557.36 307.7 M 557.36 307.7 569.37 309.39 M 562.73 314.57 564 302.52 M 660.66 232.39 667.53 227.02 M 663.43 235.94 664.93 223.7 M 670.3 230.57 658.06 229.07 M 658.06 229.07 663.43 235.94 M 663.43 235.94 670.3 230.57 M 670.3 230.57 664.93 223.7 M 664.93 223.7 658.06 229.07 M 654.02 237.57 660.66 232.39 M 656.8 241.12 658.06 229.07 M 663.43 235.94 651.43 234.25 M 651.43 234.25 656.8 241.12 M 656.8 241.12 663.43 235.94 M 663.43 235.94 658.06 229.07 M 658.06 229.07 651.43 234.25 M 550.73 312.88 556.1 319.75 M 556.1 319.75 562.73 314.57 M 562.73 314.57 557.36 307.7 M 557.36 307.7 550.73 312.88 M 550.73 312.88 562.73 314.57 M 556.1 319.75 557.36 307.7 M 557.36 307.7 562.73 314.57 M 562.73 314.57 569.37 309.39 M 569.37 309.39 564 302.52 M 564 302.52 557.36 307.7 M 557.36 307.7 569.37 309.39 M 562.73 314.57 564 302.52 M 143.68 470.18 135.94 473.94 M 141.8 466.31 137.82 477.81 M 134.3 469.88 145.57 474.05 M 145.57 474.05 141.8 466.31 M 141.8 466.31 134.3 469.88 M 134.3 469.88 137.82 477.81 M 137.82 477.81 145.57 474.05 M 151.43 466.42 143.68 470.18 M 149.73 462.79 145.57 474.05 M 141.8 466.31 153.31 470.29 M 153.31 470.29 149.73 462.79 M 149.73 462.79 141.8 466.31 M 141.8 466.31 145.57 474.05 M 145.57 474.05 153.31 470.29 M 268.67 415.29 265.1 407.79 M 265.1 407.79 257.35 411.55 M 257.35 411.55 260.93 419.05 M 260.93 419.05 268.67 415.29 M 268.67 415.29 257.35 411.55 M 265.1 407.79 260.93 419.05 M 260.93 419.05 257.35 411.55 M 257.35 411.55 249.66 414.89 M 249.66 414.89 253.42 422.63 M 253.42 422.63 260.93 419.05 M 260.93 419.05 249.66 414.89 M 257.35 411.55 253.42 422.63 M 143.68 470.18 135.94 473.94 M 141.8 466.31 137.82 477.81 M 134.3 469.88 145.57 474.05 M 145.57 474.05 141.8 466.31 M 141.8 466.31 134.3 469.88 M 134.3 469.88 137.82 477.81 M 137.82 477.81 145.57 474.05 M 151.43 466.42 143.68 470.18 M 149.73 462.79 145.57 474.05 M 141.8 466.31 153.31 470.29 M 153.31 470.29 149.73 462.79 M 149.73 462.79 141.8 466.31 M 141.8 466.31 145.57 474.05 M 145.57 474.05 153.31 470.29 M 268.67 415.29 265.1 407.79 M 265.1 407.79 257.35 411.55 M 257.35 411.55 260.93 419.05 M 260.93 419.05 268.67 415.29 M 268.67 415.29 257.35 411.55 M 265.1 407.79 260.93 419.05 M 260.93 419.05 257.35 411.55 M 257.35 411.55 249.66 414.89 M 249.66 414.89 253.42 422.63 M 253.42 422.63 260.93 419.05 M 260.93 419.05 249.66 414.89 M 257.35 411.55 253.42 422.63 M 135.94 473.94 151.43 466.42 M 148.68 460.94 154.13 472.32 M 154.13 472.32 138.88 479.65 M 138.88 479.65 133.24 468.04 M 133.24 468.04 148.68 460.94 M 251.54 418.76 266.98 411.66 M 264.27 405.76 269.49 417.32 M 269.49 417.32 254.24 424.66 M 254.24 424.66 248.6 413.04 M 248.6 413.04 264.27 405.76 M 1 475.58 357.52 305.87 M 357.52 305.87 608.75 1 M 477.28 239.43 487 247.47 M 487 247.47 498.05 234.27 M 498.05 234.27 488.14 225.99 M 488.14 225.99 477.28 239.43 M 492.98 230.22 482.35 243.48 M 558.58 140.86 568.54 148.72 M 568.54 148.72 579.35 135.7 M 579.35 135.7 569.44 127.42 M 569.44 127.42 558.58 140.86 M 574.28 131.65 563.47 144.67 M 484.34 234.3 496.28 232.98 M 489.68 227.46 491 239.4 M 491 239.4 484.34 234.3 M 484.34 234.3 489.68 227.46 M 489.68 227.46 496.28 232.98 M 496.28 232.98 491 239.4 M 491 239.4 479.05 240.72 M 484.34 234.3 485.47 246 M 485.47 246 479.05 240.72 M 479.05 240.72 484.34 234.3 M 484.34 234.3 491 239.4 M 491 239.4 485.47 246 M 566.77 147.43 560.35 142.15 M 560.35 142.15 565.69 135.31 M 565.69 135.31 572.29 140.83 M 572.29 140.83 566.77 147.43 M 566.77 147.43 565.69 135.31 M 560.35 142.15 572.29 140.83 M 563.47 144.67 568.99 138.07 M 572.29 140.83 565.69 135.31 M 565.69 135.31 570.98 128.89 M 570.98 128.89 577.58 134.41 M 577.58 134.41 572.29 140.83 M 572.29 140.83 570.98 128.89 M 565.69 135.31 577.58 134.41 M 568.99 138.07 574.28 131.65 M 484.34 234.3 496.28 232.98 M 489.68 227.46 491 239.4 M 491 239.4 484.34 234.3 M 484.34 234.3 489.68 227.46 M 489.68 227.46 496.28 232.98 M 496.28 232.98 491 239.4 M 491 239.4 479.05 240.72 M 484.34 234.3 485.47 246 M 485.47 246 479.05 240.72 M 479.05 240.72 484.34 234.3 M 484.34 234.3 491 239.4 M 491 239.4 485.47 246 M 566.77 147.43 560.35 142.15 M 560.35 142.15 565.69 135.31 M 565.69 135.31 572.29 140.83 M 572.29 140.83 566.77 147.43 M 566.77 147.43 565.69 135.31 M 560.35 142.15 572.29 140.83 M 563.47 144.67 568.99 138.07 M 572.29 140.83 565.69 135.31 M 565.69 135.31 570.98 128.89 M 570.98 128.89 577.58 134.41 M 577.58 134.41 572.29 140.83 M 572.29 140.83 570.98 128.89 M 565.69 135.31 577.58 134.41 M 568.99 138.07 574.28 131.65 M 33.37 527.72 395.84 354.89 M 28.71 520.3 390.47 348.03 M 1 475.58 144.33 707.26 M 608.75 1 799 196.05 M 645.46 38.69 390.47 348.03 M 651.54 45 395.84 354.89"/>
<g/>
</g>
</svg>