<svg xmlns="http://www.w3.org/2000/svg" width="376.83" height="104.78" viewBox="0 0 376.83 104.78"><defs><style>.cls-1{fill:#231815}.cls-2{fill:#f4ac3b}.cls-3{fill:#53b232}.cls-4{fill:#fff}</style></defs><g id="レイヤー_2" data-name="レイヤー 2"><g id="レイヤー_" data-name="レイヤー １"><g><g><path d="M171.13,7.71a5,5,0,0,1,2.75,1.22,3.22,3.22,0,0,1,1.23,2.57,3.39,3.39,0,0,1-.57,1.88A4,4,0,0,1,172.4,15l-.34.12a1,1,0,0,1-.76-.38,1,1,0,0,1-.36-.81c0-.08,0-.15,0-.19s.34-.26,1-.73a1.7,1.7,0,0,0,.89-1.25,1.12,1.12,0,0,0-.17-.58,2.23,2.23,0,0,0-1.24-1,4.22,4.22,0,0,0-1.61-.3,13.66,13.66,0,0,0-5,1.26,26.71,26.71,0,0,0,2.58,5.62c.51.81.89,1.41,1.13,1.82l0,0c0,.19-.17.4-.49.66a1.43,1.43,0,0,1-.81.38.28.28,0,0,1-.13,0,10.26,10.26,0,0,1-2.83-3.45,19.14,19.14,0,0,1-1.79-4.24,11.08,11.08,0,0,0-1.19.55,7.3,7.3,0,0,1-.9.43c-.23,0-.4-.13-.59-.43a1.69,1.69,0,0,1-.26-.79.77.77,0,0,1,.28-.64,4.16,4.16,0,0,1,1-.68c.21-.12.58-.32,1.19-.62A15.34,15.34,0,0,1,162,7.88a3.86,3.86,0,0,1,.1-1.13c.13-.29.43-.4.94-.4s.75.11.83.36c.19.83.3,1.51.39,2.11a19.78,19.78,0,0,1,4.6-1.13,9.39,9.39,0,0,1,.29-1.81c.22-.94.43-1.34.62-1.34a6.13,6.13,0,0,1,.9.15c.53.12.76.21.79.27a1,1,0,0,1,.06.41A20.75,20.75,0,0,1,171.13,7.71Z"/><path d="M184.72,8.73A5.6,5.6,0,0,1,188,10.06a3.83,3.83,0,0,1,1.4,3.09c0,2-1,4.32-3.11,7l-.06,0a1.18,1.18,0,0,1-.77-.39,3.23,3.23,0,0,1-.6-.66c.39-.91.79-1.79,1.18-2.7a7.81,7.81,0,0,0,.72-2.83c0-1.45-.94-2.31-2.87-2.58a49.64,49.64,0,0,1-3.59,7.71h-.1a2,2,0,0,1-1.47-.85,34.31,34.31,0,0,1,1.09-3.41c.06-.19.51-1.34,1.42-3.5-1.36.07-2.19.2-1.75.28-.1-.17-.12-.17-.14-.19-.22,0-.37-.15-.52-.45a1.6,1.6,0,0,1-.19-.7.54.54,0,0,1,.39-.58,10.8,10.8,0,0,1,3.13-.62l1.62-3.91a1.13,1.13,0,0,1,.7-.18c.73,0,1,.18,1,.58A14.94,14.94,0,0,1,184.72,8.73Zm5.61-1.4s.06,0,.06,0a8.26,8.26,0,0,1,1.9,2.56,12.48,12.48,0,0,1,1.21,2.91,4.24,4.24,0,0,1-1.6.86,11,11,0,0,1-1.81-2.62,7.55,7.55,0,0,1-1.25-2.79c0-.13.17-.3.61-.56A2.41,2.41,0,0,1,190.33,7.33Zm1.75-1.94c.23,0,.49.26.72.83a3.1,3.1,0,0,1,.34,1.24v.15A2.73,2.73,0,0,1,192,8a2.84,2.84,0,0,1-.62-1,2.8,2.8,0,0,1-.3-1.22c0-.1.09-.15.39-.27A2.11,2.11,0,0,1,192.08,5.39Zm2.13-.28c.23,0,.49.26.72.87a3.11,3.11,0,0,1,.32,1.22v.15a2.56,2.56,0,0,1-1.17.38,2.32,2.32,0,0,1-.62-1,2.76,2.76,0,0,1-.32-1.19c0-.11.11-.21.39-.28A2.16,2.16,0,0,1,194.21,5.11Z"/><path d="M211.83,6.84a2.3,2.3,0,0,1,.17.91,2,2,0,0,1-.23.94c-.22.17-.41.36-.6.49a16.45,16.45,0,0,0-4,4.05,3.33,3.33,0,0,0-.51,1.77,2.58,2.58,0,0,0,.63,1.77,3,3,0,0,0,1.58,1.06,1,1,0,0,1,.05.38,1.76,1.76,0,0,1-.49,1.3,4,4,0,0,1-3-1.46,4.38,4.38,0,0,1-1.26-3.18c0-2.19,1.16-4.18,3.71-6.12h-.55c-.51,0-1.22,0-2.09,0l-2.07,0a26.36,26.36,0,0,1-4.81-.22c-.21-.06-.32-.36-.32-1s.13-.86.42-1c1-.49,3-.71,6-.71A24.26,24.26,0,0,1,211.83,6.84Z"/><path d="M229.86,14.32c.38.12.6.23.86.32a.55.55,0,0,1,.4.55,1.61,1.61,0,0,1-.23.75c-.13.34-.3.48-.49.48L229.29,16a7.84,7.84,0,0,1-1.66,2.5,2.79,2.79,0,0,1-.83-.41,1.85,1.85,0,0,1-.64-.6c0,.39.34-.63.89-2.25-1.11-.32-2.13-.54-3.13-.77a10.41,10.41,0,0,1-1.52,2.26,5.65,5.65,0,0,1-2.17,1.47,2,2,0,0,1-.83.17,2.8,2.8,0,0,1-2.17-.88,2.88,2.88,0,0,1-.85-2.17c0-2.3,1.55-3.43,4.73-3.43a13.42,13.42,0,0,1,1.53.09,14.55,14.55,0,0,0,1.21-3.92c-.89.06-1.81.1-2.77.1A10.68,10.68,0,0,1,219,8.1c-.25-.11-.38-.49-.38-1.16a1,1,0,0,1,.09-.49c.14-.25.89-.46,2.3-.64a18.16,18.16,0,0,1,2.68-.21,7.35,7.35,0,0,1,2.75.38,1.34,1.34,0,0,1,.17.75,8.65,8.65,0,0,1-.62,2.88c-.36.93-.74,1.87-1.13,2.87.94.24,1.84.52,2.9.9.49-1.53.73-2.26.75-2.26s.23-.09.55-.09a2.37,2.37,0,0,1,1,.13c.13.13.19.37.19.86A8.3,8.3,0,0,1,229.86,14.32Zm-8.8-.11c-1.6,0-2.43.34-2.43,1.11a.68.68,0,0,0,.28.55.77.77,0,0,0,.56.24c.44,0,1.1-.6,2-1.9Z"/><path d="M246.42,17.19a4.31,4.31,0,0,0,1.64-.44c.69-.26,1.32-.54,1-.56a2.82,2.82,0,0,1,.47.71,2.08,2.08,0,0,1,.24.8,1,1,0,0,1,0,.2,3.68,3.68,0,0,0-.37.31,5.09,5.09,0,0,1-3.09,1.11c-2,0-3-.78-3-2.38a6.11,6.11,0,0,1,.21-1.3,5.2,5.2,0,0,0,.22-1.24,1.55,1.55,0,0,0-.45-1.17,1.75,1.75,0,0,0-1.21-.4,3.41,3.41,0,0,0-3,1.51,9.53,9.53,0,0,0-1.31,3.49c-.21.92-.32,1.37-.34,1.43s-.31.21-.87.21c-.83,0-1.17-.12-1.17-.34a12.31,12.31,0,0,1,.32-2.24,32.46,32.46,0,0,1,1.92-6.13,22.35,22.35,0,0,1,3.15-5.52c.06-.09.17-.11.34-.11a2,2,0,0,1,1,.32c.45.2.66.45.66.69,0,0,0,.06,0,.08a13.31,13.31,0,0,1-1,1.66A22.2,22.2,0,0,0,240,11.36a5.39,5.39,0,0,1,2.58-.79,3.41,3.41,0,0,1,2.43.89,3,3,0,0,1,1,2.35,6.27,6.27,0,0,1-.21,1.36,7.63,7.63,0,0,0-.2,1.32C245.61,16.94,245.91,17.19,246.42,17.19Z"/><path d="M262.79,9a15,15,0,0,1-4.05.43,29.16,29.16,0,0,1-2.57,4.28,2.66,2.66,0,0,1-1.58-.85A16.27,16.27,0,0,1,256,9.35a5.9,5.9,0,0,1-1.25-.12c-.26-.13-.37-.43-.37-.94s.09-.9.24-1A14.14,14.14,0,0,1,257.21,7a12.26,12.26,0,0,1,1.51-2.37,1.39,1.39,0,0,1,.15,0,2.34,2.34,0,0,1,.88.24c.4.19.59.36.59.55a8.35,8.35,0,0,1-.47,1.51,17.21,17.21,0,0,1,3,.26,2.13,2.13,0,0,1,.09.62A6.45,6.45,0,0,1,262.79,9Zm2.11,5.47a6.36,6.36,0,0,1,2.3,1.94.17.17,0,0,1,0,.07.92.92,0,0,1-.3.61.81.81,0,0,1-.63.34,5,5,0,0,1-1.43-.57,4.47,4.47,0,0,1-.92,2.22,2.66,2.66,0,0,1-2.06.89,3.17,3.17,0,0,1-2.31-.89,3.09,3.09,0,0,1-.95-2.28,2.81,2.81,0,0,1,1.06-2.26,3.62,3.62,0,0,1,2.37-.83,3.75,3.75,0,0,1,.78.08,2,2,0,0,1,.17-1.1c.15-.26.43-.35.9-.35s.64.11.74.37C264.77,13.38,264.84,14,264.9,14.44Zm-2.81,3a5.28,5.28,0,0,0,.59-1.32,3.15,3.15,0,0,0-.46,0c-.77,0-1.2.24-1.2.71a.79.79,0,0,0,.22.51.87.87,0,0,0,.57.19A.88.88,0,0,0,262.09,17.43ZM266,6.86a1.18,1.18,0,0,1,.42.25,11.13,11.13,0,0,1,1.92,2,8.72,8.72,0,0,1,1.26,2.36,4.1,4.1,0,0,1-1.5,1,12.55,12.55,0,0,1-2-2.13A6.79,6.79,0,0,1,264.58,8c0-.13.19-.34.58-.7A1.5,1.5,0,0,1,266,6.86Z"/><path d="M280.44,7a7.39,7.39,0,0,1,4.83,1.72,5.77,5.77,0,0,1,2.18,4.67,8.93,8.93,0,0,1-1.9,5.43.52.52,0,0,1-.28.05,1.73,1.73,0,0,1-.82-.26c-.28-.23-.43-.39-.43-.62a.41.41,0,0,1,.08-.25,8.23,8.23,0,0,0,1.22-4c0-2.17-1.19-3.49-3.63-4a2.89,2.89,0,0,1,0,.31,13.07,13.07,0,0,1-2.47,7.31,3.11,3.11,0,0,1-1.11.85,3.61,3.61,0,0,1-1.39.33,3.21,3.21,0,0,1-2.66-1.35,5.5,5.5,0,0,1-.87-3.11A6.7,6.7,0,0,1,275.37,9,7.09,7.09,0,0,1,280.44,7Zm-3.71,9.07c.64,0,1.19-.51,1.69-1.45a17.3,17.3,0,0,0,1.23-3.21c.15-.69.26-1.2.34-1.54l.06-.17A5.34,5.34,0,0,0,276.92,11a4.08,4.08,0,0,0-1.28,3.06C275.64,15.4,276,16.06,276.73,16.06Z"/><path d="M294.08,19.26c-.08-.32-.08-.66-.15-1h-.13a5,5,0,0,1-1.27.81,5.94,5.94,0,0,1-1.45.4c-.07-.21-.15-.4-.2-.61a2.1,2.1,0,0,1-.08-.73c.47-.34.94-.73,1.41-1.06a4.85,4.85,0,0,0,1.19-1.2,4.65,4.65,0,0,1-1-.08,1.17,1.17,0,0,1-.87-.26l-.08-.87.27-.39L294,14a3.66,3.66,0,0,0,.08-.92,1.09,1.09,0,0,1,.26-.81l1-.06.27.13.18,1.74a15.24,15.24,0,0,1,1.55.05c.45.08.92.21,1.39.34l.06.87-.13.45-2.45.15v.14a9.9,9.9,0,0,0,1.39,1.18,8.67,8.67,0,0,0,1.4,1v.34l-.6,1a5.77,5.77,0,0,1-1.4-.47,4.22,4.22,0,0,1-1.26-.74v1a1.68,1.68,0,0,1-.34.87h-1.13A2.65,2.65,0,0,1,294.08,19.26Zm4.71-7.91a8.72,8.72,0,0,1-.06-1.27h-.2a10.18,10.18,0,0,1-1.79,1.13,6.24,6.24,0,0,1-2.13.53,1.69,1.69,0,0,1-.13-.66,2,2,0,0,1-.08-.68c.6-.32,1.26-.73,1.94-1.05A5.67,5.67,0,0,0,298,7.93l-2.66-.18a1,1,0,0,1-.13-.47,1.39,1.39,0,0,1-.07-.53l.2-.4,3.45-.26L299,4.22l1.07-.13.27.13.26,1.87c.73,0,1.39,0,2.13.13a19.8,19.8,0,0,1,2,.32l0,.6-.18.74L301.13,8v.13A12.93,12.93,0,0,0,303,9.54a10.38,10.38,0,0,0,2,1v.26l-.39,1-.34.07a4.65,4.65,0,0,1-1.93-.6,8.46,8.46,0,0,1-1.8-1.06l-.19,2.32-1.27.08A7,7,0,0,1,298.79,11.35Zm3.94,7.91c-.08-.32-.08-.66-.13-1h-.13a5.57,5.57,0,0,1-1.27.81,6.37,6.37,0,0,1-1.47.4l-.2-.61a2.77,2.77,0,0,1-.06-.73c.47-.34.92-.73,1.39-1.06a5.11,5.11,0,0,0,1.21-1.2,4.78,4.78,0,0,1-1.07-.08,1.19,1.19,0,0,1-.87-.26l-.06-.87.27-.39,2.31-.27a3.66,3.66,0,0,0,.08-.92,1.09,1.09,0,0,1,.26-.81l1-.06.27.13.2,1.74a15,15,0,0,1,1.53.05,12.81,12.81,0,0,1,1.39.34l.08.87-.13.45-2.47.15v.14a11.19,11.19,0,0,0,1.39,1.18,9.65,9.65,0,0,0,1.4,1v.34l-.59,1a6,6,0,0,1-1.41-.47,4.49,4.49,0,0,1-1.26-.74v1a1.67,1.67,0,0,1-.32.87h-1.13A2.33,2.33,0,0,1,302.73,19.26Z"/><path d="M311.68,6.69c.11-.17.35-.24.79-.24.6,0,.92.17,1,.45,0,1.11.09,2.15.09,3.07,0,2.17.06,3.58.11,4.26a19.91,19.91,0,0,0,.64,4.18,1.76,1.76,0,0,1-.75.44,3,3,0,0,1-.9.2c-1-1.13-1.53-3.54-1.53-7.29,0-.81,0-1.7.09-2.68A6.63,6.63,0,0,1,311.68,6.69Zm7.5,8.37.49.26a5.41,5.41,0,0,0,2.3.49c.75,0,1.52,0,2.28,0a3.92,3.92,0,0,1,.3,1.79,5.37,5.37,0,0,1-2.87.66,7.08,7.08,0,0,1-1.05-.09,3.92,3.92,0,0,1-2.6-1.55,1,1,0,0,1-.27-.49v0c0-.13.19-.34.59-.64A1.8,1.8,0,0,1,319.18,15.06Zm1.35-7.9a7.79,7.79,0,0,1,1.44.13,3.92,3.92,0,0,1,2.63,1.55,1.12,1.12,0,0,1,.25.47l0,0c0,.15-.15.34-.55.64a2,2,0,0,1-.86.43,5.59,5.59,0,0,1-.49-.28,4.09,4.09,0,0,0-1.45-.41c-1.47-.14-2.61-.23-3.3-.29a3.61,3.61,0,0,1-.3-1.75A5,5,0,0,1,320.53,7.16Z"/><path d="M338.15,9a15,15,0,0,1-4,.43,29.16,29.16,0,0,1-2.57,4.28,2.66,2.66,0,0,1-1.58-.85,16.27,16.27,0,0,1,1.38-3.48,5.9,5.9,0,0,1-1.25-.12c-.26-.13-.37-.43-.37-.94s.09-.9.24-1A14.14,14.14,0,0,1,332.57,7a12.26,12.26,0,0,1,1.51-2.37,1.09,1.09,0,0,1,.15,0,2.38,2.38,0,0,1,.88.24c.4.19.59.36.59.55a8.35,8.35,0,0,1-.47,1.51,17,17,0,0,1,3,.26,1.76,1.76,0,0,1,.1.62A6.45,6.45,0,0,1,338.15,9Zm2.11,5.47a6.36,6.36,0,0,1,2.3,1.94.17.17,0,0,1,0,.07.92.92,0,0,1-.3.61.81.81,0,0,1-.63.34,4.9,4.9,0,0,1-1.43-.57,4.47,4.47,0,0,1-.92,2.22,2.66,2.66,0,0,1-2.06.89,3.17,3.17,0,0,1-2.31-.89,3.05,3.05,0,0,1-.95-2.28A2.81,2.81,0,0,1,335,14.51a3.62,3.62,0,0,1,2.37-.83,3.82,3.82,0,0,1,.78.08,2,2,0,0,1,.17-1.1c.15-.26.43-.35.9-.35s.64.11.73.37C340.13,13.38,340.2,14,340.26,14.44Zm-2.81,3a4.84,4.84,0,0,0,.58-1.32,3,3,0,0,0-.45,0c-.77,0-1.2.24-1.2.71a.79.79,0,0,0,.22.51.87.87,0,0,0,.57.19A.88.88,0,0,0,337.45,17.43Zm3.86-10.57a1.18,1.18,0,0,1,.42.25,11.13,11.13,0,0,1,1.92,2,8.72,8.72,0,0,1,1.26,2.36,4.1,4.1,0,0,1-1.5,1,12.55,12.55,0,0,1-2-2.13A6.79,6.79,0,0,1,339.94,8c0-.13.19-.34.58-.7A1.5,1.5,0,0,1,341.31,6.86Z"/><path d="M357.65,10.69a4.31,4.31,0,0,1,3.13,1.22,3.84,3.84,0,0,1,1.33,3,4.87,4.87,0,0,1-2,3.86A6.39,6.39,0,0,1,356,20.3a3.64,3.64,0,0,1-2.3-.74,2.56,2.56,0,0,1-1-2.13,2.31,2.31,0,0,1,.94-2,3.41,3.41,0,0,1,2.13-.68,3.12,3.12,0,0,1,1.77.51,2.52,2.52,0,0,1,.91,1.7,2.44,2.44,0,0,0,1.19-1.92,2.07,2.07,0,0,0-.8-1.59,2.62,2.62,0,0,0-1.64-.62l-.71,0a6.37,6.37,0,0,0-2.3.46,7.57,7.57,0,0,0-1.49.9,5,5,0,0,1-.75.45,1,1,0,0,1-.7-.45,1.4,1.4,0,0,1-.38-.85.24.24,0,0,1,.08-.17c.87-.94,1.54-1.64,2-2.13.92-.94,2.11-2.16,3.58-3.69a5,5,0,0,0-1.44-.17c-.37,0-.88,0-1.58.11a12.19,12.19,0,0,1-1.56.14c-.15,0-.27-.15-.38-.51a3.7,3.7,0,0,1-.09-.83c0-.38,0-.59.15-.66a5.29,5.29,0,0,1,2-.43c.79-.08,1.55-.12,2.23-.12,2.15,0,3.35.21,3.69.6a1,1,0,0,1,.17.61,4.19,4.19,0,0,1-1.28,2.43c-.66.73-1.36,1.45-2.21,2.37A5.81,5.81,0,0,1,357.65,10.69Zm-2.79,6.86c0,.3.28.49.79.49a1.47,1.47,0,0,0,1-.36c-.06-.62-.36-.94-.85-.94S354.86,17,354.86,17.55Z"/></g><path class="cls-1" d="M376.83,69.85c-.25.87-.48,1.75-.77,2.61a6.74,6.74,0,0,1-.64,1.18,13.42,13.42,0,0,1-4.53,4.24,9.66,9.66,0,0,1-3.82,1.28,9.13,9.13,0,0,1-4.46-.39,2.7,2.7,0,0,1-.4-.14,14.46,14.46,0,0,1-5.65-4.33,11.39,11.39,0,0,1-1.45-2.65c-.09-.25,0-.35.21-.44l5-2.29a2.67,2.67,0,0,1,.46-.2c.31-.07.59-.06.69.34a5.44,5.44,0,0,0,2.15,2.81,3.61,3.61,0,0,0,3.36.4,2.86,2.86,0,0,0,2-1.84,2.37,2.37,0,0,0-.27-2,4.06,4.06,0,0,0-2.16-2.15c-1.11-.47-2.22-1-3.3-1.51a17.82,17.82,0,0,1-4.57-2.86,5.38,5.38,0,0,1-1.66-3.11,10.44,10.44,0,0,1-.32-3.56,11.68,11.68,0,0,1,.69-2.46,9.34,9.34,0,0,1,5.27-5,7.63,7.63,0,0,1,4.36-.5,14.41,14.41,0,0,1,2.47.5A6.87,6.87,0,0,1,372.64,50c.65.88,1.28,1.78,1.91,2.68a2.21,2.21,0,0,1,.28.65c0,.08-.08.25-.17.3-1.39.77-2.79,1.52-4.19,2.29-.38.21-.74.45-1.12.66-.22.12-.34,0-.41-.21a4.35,4.35,0,0,0-2.1-2.29,2,2,0,0,0-2.6.2,1.93,1.93,0,0,0-.46,2.16,3.65,3.65,0,0,0,1.76,1.77c1.34.69,2.69,1.36,4.08,2a16.38,16.38,0,0,1,4.79,3.11,7.12,7.12,0,0,1,2.33,4.59,1.43,1.43,0,0,0,.09.27Z"/><path class="cls-1" d="M273.07,45.36a1.31,1.31,0,0,0,.28.09A4.21,4.21,0,0,1,276.8,48a5.71,5.71,0,0,1,.52,1.47,4.47,4.47,0,0,1,.08,1.16,7.92,7.92,0,0,1-.1,1.29,3.79,3.79,0,0,1-2.11,2.61,4.45,4.45,0,0,1-4.84-.22,3.52,3.52,0,0,1-1.8-2.62c-.09-.6-.36-1.17-.4-1.76a4,4,0,0,1,2.27-4l1.46-.55Z"/><path class="cls-1" d="M164.88,50.2a14.49,14.49,0,0,1,1.77-1.61c1.9-1.23,3.89-2,6.23-1.22a14,14,0,0,1,5.4,3c.34.32.66.65,1,.95.57-.51,1.16-1,1.73-1.56a9.3,9.3,0,0,1,4.75-2.15c.88-.16,1.76-.26,2.65-.35,2.4-.25,4.36.76,6.23,2.15a9.08,9.08,0,0,1,3.48,5.88,30.09,30.09,0,0,1,.55,5.67c0,2.91,0,5.81,0,8.72l-.06,7.71c0,1,0,1-1,1-.46,0-.93-.07-1.39-.07-1.38,0-2.77,0-4.15,0-.5,0-.63-.13-.64-.67-.06-2.82-.15-5.65-.17-8.47,0-2.41.07-4.82.07-7.23a15.43,15.43,0,0,0-1.09-5.53,3.19,3.19,0,0,0-2.31-2.17,5.12,5.12,0,0,0-4.31,1,3,3,0,0,0-1.1,2c-.21,1.32-.4,2.65-.62,4a47.32,47.32,0,0,0-.49,7.89c0,2,.07,4.09.07,6.13,0,.71-.08,1.41-.12,2.12a.83.83,0,0,0,.07.34c.14.3,0,.53-.29.53l-3.94-.12c-.73,0-1.47-.07-2.2,0-.38,0-.47-.1-.47-.43,0-1.19,0-2.38,0-3.56,0-2.78-.06-5.56-.09-8.34,0-1.84,0-3.67-.11-5.5a9.74,9.74,0,0,0-.95-3.71,4.16,4.16,0,0,0-5.05-2.44,4,4,0,0,0-2.8,3.13c-.31,1.25-.53,2.53-.73,3.81a12.48,12.48,0,0,0-.12,1.94c0,1.55-.1,3.1-.08,4.65,0,2,.13,3.92.18,5.89,0,1.42,0,2.84.06,4.27,0,.42-.23.57-.62.56-1.68,0-3.35-.1-5-.12-.55,0-1.1.06-1.64.11-.31,0-.5-.11-.5-.41,0-1.73,0-3.46,0-5.19,0-1.88.18-3.75.21-5.63,0-3,0-6,0-9,0-2.44,0-4.88,0-7.32a17.35,17.35,0,0,1,.16-2c.07-.58.16-.66.76-.68.42,0,.85.07,1.27.07h4.53c.81,0,.81,0,.87.79,0,.4.06.81.09,1.26"/><path class="cls-1" d="M238.13,64.7A13.36,13.36,0,0,1,233.77,75a12.88,12.88,0,0,1-5,2.75,22.18,22.18,0,0,1-9.15,1c-1.54-.15-3.06-.45-4.6-.69a9.44,9.44,0,0,1-4.59-2.4,11.21,11.21,0,0,1-3.16-4.38,30.6,30.6,0,0,1-2.05-6.6,9.18,9.18,0,0,1,.51-5.15,10.7,10.7,0,0,0,.48-2.12,10,10,0,0,1,2.15-4.17c2.78-3.71,6.68-5.5,11.1-6.16a15.13,15.13,0,0,1,12.91,4A31.16,31.16,0,0,1,235,53.69a12.93,12.93,0,0,1,2.62,5.71,22.43,22.43,0,0,1,.52,5.3m-17.21,7.56,1.61-.12a10.3,10.3,0,0,0,5.48-2,3.53,3.53,0,0,0,1.23-1.53c.29-.75.58-1.5.82-2.26a11.67,11.67,0,0,0,.18-4.78,8.45,8.45,0,0,0-6-7,10.42,10.42,0,0,0-6.92.45,4.81,4.81,0,0,0-.79.38,5.35,5.35,0,0,0-2.09,2.86c-.44,1.49-.86,3-1.16,4.53a7.44,7.44,0,0,0,1.36,6.4,6.41,6.41,0,0,0,2.56,2.29,9.79,9.79,0,0,0,3.71.75"/><path class="cls-1" d="M350.08,63.11a17.33,17.33,0,0,1-.53,3.89c-.25.86-.53,1.72-.77,2.58a10.81,10.81,0,0,1-1.57,2.94,14.54,14.54,0,0,1-5.5,4.83,16.59,16.59,0,0,1-3.09,1,9.49,9.49,0,0,1-1.63.41,17.24,17.24,0,0,1-5.27,0,26.87,26.87,0,0,1-4.65-1.19,13.24,13.24,0,0,1-6.27-4.78,8.15,8.15,0,0,1-.72-1.24,20.77,20.77,0,0,1-1.87-6.64c-.08-.93-.15-1.87-.16-2.81a13.55,13.55,0,0,1,2.78-8.2,37.23,37.23,0,0,1,2.48-3A9.15,9.15,0,0,1,326,49a6.66,6.66,0,0,1,2.64-.81,2.44,2.44,0,0,0,.57-.16,16.54,16.54,0,0,1,9.2-.32,14.26,14.26,0,0,1,8.59,6,8,8,0,0,0,.54.76,8.65,8.65,0,0,1,1.73,3.53,23.35,23.35,0,0,1,.8,5m-15.43,9.52a5.34,5.34,0,0,0,3.86-.94,9.2,9.2,0,0,0,3.21-3.57,9,9,0,0,0,.73-3.23,15.41,15.41,0,0,0-.07-4.55,7.78,7.78,0,0,0-2.72-4.56,20.56,20.56,0,0,0-3.28-1.92,3.76,3.76,0,0,0-2.27-.37l-1.17.17a10,10,0,0,0-3.63,1.07c-2.7,1.56-3.79,4.11-4.14,7a12.27,12.27,0,0,0,.22,3.86,8.15,8.15,0,0,0,3.14,5.18,7.55,7.55,0,0,0,3.11,1.41,9.09,9.09,0,0,0,3,.41"/><path class="cls-1" d="M284.56,78c0-.81-.07-1.62,0-2.42.39-4.17.31-8.37.37-12.56,0-2.09,0-4.17,0-6.26,0-2.29.11-4.57.17-6.86,0-.34.08-.67.1-1a3,3,0,0,0,0-.57,3.09,3.09,0,0,1,.61-.13h4.92c.37,0,.73,0,1.1,0s.51.11.52.45c0,.49.08,1,.11,1.43,2.14-2.36,4.94-2.81,7.92-2.74a9.43,9.43,0,0,1,3.49.56,24.07,24.07,0,0,1,2.65,1.3,4.61,4.61,0,0,1,1.27,1.1c.63.76,1.19,1.57,1.76,2.38a6.37,6.37,0,0,1,.93,3.21,148.34,148.34,0,0,1,.42,15.06c0,2.21,0,4.43,0,6.65,0,.32-.07.45-.41.47-2,.1-4,.22-6,.33-.5,0-.57,0-.58-.5,0-1.61-.09-3.22-.11-4.83,0-3,0-6-.1-9-.05-2-.17-4-.33-6a4.7,4.7,0,0,0-4.91-4c-.86.09-1.73.22-2.59.38a5.27,5.27,0,0,0-2.15,1.14.89.89,0,0,0-.27.46,24.62,24.62,0,0,0-.87,5c-.08.91-.26,1.81-.33,2.72s-.06,1.66-.08,2.5c-.06,2.3-.14,4.59-.16,6.89,0,1.41.05,2.83.06,4.24,0,.68,0,.7-.7.72-.4,0-.79,0-1.19,0h-5.61"/><path class="cls-1" d="M252.54,49.8c.87-.61,1.67-1.24,2.53-1.77a6.41,6.41,0,0,1,4.24-.83c.7.08,1.39.19,2.09.32A9.17,9.17,0,0,1,264.45,49a.5.5,0,0,1,.09.42c-.24.6-.51,1.2-.78,1.78-.64,1.35-1.28,2.7-1.93,4-.3.6-.36.6-.92.26a7.56,7.56,0,0,0-2.86-1.22,4.83,4.83,0,0,0-4.74,1.7,4.25,4.25,0,0,0-.66,1.75,24.67,24.67,0,0,0-.59,3.4c-.14,1.68-.13,3.38-.2,5.07-.17,3.81-.07,7.61,0,11.42,0,.86-.12.94-1,.87a29.31,29.31,0,0,0-5.62,0c-.32,0-.42-.18-.45-.43-.11-.9-.28-1.79-.3-2.69,0-1.72,0-3.44.05-5.16.09-3.9.06-7.8.32-11.68.19-3,0-6.09.12-9.14a3,3,0,0,0-.05-.59c-.08-.64.1-.86.74-.87h4.66c.44,0,.87.05,1.31.1s.76.28.82.84c0,.32.05.64.07.95"/><path class="cls-1" d="M276.65,78.31h-3.18l-3.09,0a4.34,4.34,0,0,0-.51,0c-.5.06-.51.06-.52-.3l-.18-5.77c0-.91-.09-1.82-.06-2.73.05-1.23.23-2.46.23-3.7,0-2.27-.08-4.54-.12-6.81q0-.32,0-.63c0-.36.24-.49.78-.49l5,0c.43,0,.85,0,1.27,0,.12,0,.32.13.33.2a11.36,11.36,0,0,1-.08,3.9,7.05,7.05,0,0,0-.12,1.78c0,3.77,0,7.55,0,11.33,0,1,.11,2.1.18,3.19"/><g><path class="cls-2" d="M116.72,45.72a3.15,3.15,0,0,1-.43-1.8,26.42,26.42,0,0,0-.31-3.33,11.85,11.85,0,0,0-.92-2.44,5.61,5.61,0,0,0-1.34-1.89c-.61.48-1.25,1-1.86,1.48-.39.33-.74.71-1.11,1a1.58,1.58,0,0,1-1.92.24,1.48,1.48,0,0,1-.64-1.76,5.07,5.07,0,0,1,.5-1,10.84,10.84,0,0,1,3-2.88,10,10,0,0,1,4-1.49c.62-.12,1-.32,1.1-1a8.78,8.78,0,0,1,.43-1.47c.06-.23.07-.48.11-.72s.08-.56.15-.83a.43.43,0,0,0-.11-.48c-.78-.86-1.52-1.76-2.35-2.58a9.37,9.37,0,0,0-1.45-1c-.14-.1-.29-.18-.43-.27a1.41,1.41,0,0,1,.24-2.51,3.1,3.1,0,0,1,3.8,1.52c.41.93,1,1.79,1.45,2.69a.59.59,0,0,0,.11.09c.29-.38.55-.77.86-1.13a5.1,5.1,0,0,1,2.72-1.62,5.23,5.23,0,0,1,1.23,0c.32-.39.73-.85,1.11-1.34a2.6,2.6,0,0,1,2.51-1.14,3.45,3.45,0,0,1,2,.71,3.89,3.89,0,0,1,.5,5.34,2.45,2.45,0,0,1-2.13.91c-.12,0-.24,0-.36,0a2.24,2.24,0,0,1-2-.66c-.21-.21-.53-.33-.75-.54a12.41,12.41,0,0,1-.84-.95,4.48,4.48,0,0,0-2.94,3.14,16.4,16.4,0,0,0,1.85.23,10.72,10.72,0,0,1,3.55,1.06,2.44,2.44,0,0,1,.71.49,1.49,1.49,0,0,1-.49,2.44,1.93,1.93,0,0,1-2-.39,5.68,5.68,0,0,0-1.1-.73c-.82-.39-1.66-.71-2.49-1.06-.11,0-.21-.1-.36-.17v.38a8,8,0,0,1-.34,2.44A3.3,3.3,0,0,1,118,35l-.31.13c.06.19.11.38.18.56a25.78,25.78,0,0,1,1.44,6c.09.9.09,1.81.11,2.71A1.81,1.81,0,0,1,119,45.6a1.48,1.48,0,0,1-1.62.49l-.28-.08-.39-.29"/><path class="cls-2" d="M39.89,13.22c-.07-1-.2-1.9-.19-2.84s.17-1.85.26-2.74c-.37-.21-.77-.42-1.15-.68a1.49,1.49,0,0,1-.51-.58A13.69,13.69,0,0,1,37.38,4a3.45,3.45,0,0,1,.77-3A2.83,2.83,0,0,1,42,.53a4.69,4.69,0,0,1,2.1,3.87,3.25,3.25,0,0,1-.8,2.31.7.7,0,0,0-.15.39,17,17,0,0,0,0,2.14c.1.93.3,1.86.46,2.78L43.9,14c0,.05,0,.09.06.19A15.31,15.31,0,0,0,45.58,13a10.14,10.14,0,0,1,5.24-2.4,2.57,2.57,0,0,1,2.68,1,1.4,1.4,0,0,1-1.12,2.3,14.1,14.1,0,0,0-3.54.53,2.17,2.17,0,0,0-1,.56,3.72,3.72,0,0,1-.91.64c-.73.39-1.48.74-2.24,1.12.1.46.24,1,.34,1.47a12.3,12.3,0,0,1,.16,3.48.37.37,0,0,0,.05.24c1,1,1.94,2,2.9,3,.65.69,1.29,1.38,1.91,2.09a1.41,1.41,0,0,1-.16,2,1.44,1.44,0,0,1-2-.09c-1.08-1.14-2.15-2.3-3.23-3.45a.61.61,0,0,1-.07-.14l-.07,0c-.14.57-.28,1.14-.41,1.72a14,14,0,0,1-1.29,3.71,6.4,6.4,0,0,1-.94,1.31A1.33,1.33,0,0,1,39.84,32a1.46,1.46,0,0,1-.11-1.43,30.43,30.43,0,0,0,1.11-3.21,39.71,39.71,0,0,0,.81-4.46,10,10,0,0,0-.53-4.63q-.34-1-.63-2a.42.42,0,0,0-.31-.31c-1.3-.43-2.61-.82-3.87-1.34A36.57,36.57,0,0,1,33,13a2.62,2.62,0,0,1-1.43-1.62,1.88,1.88,0,0,1,.65-2,2,2,0,0,1,2.19-.07c.63.4,1.25.83,1.87,1.27s1,.74,1.47,1.1l2.05,1.52.11.05"/><path class="cls-2" d="M87.34,7.83c.09-.34.17-.64.23-.94a.27.27,0,0,0-.06-.21,2.53,2.53,0,0,1,.26-3.29,3.55,3.55,0,0,1,3.84-.86,2.64,2.64,0,0,1,1.5,2.67,4.19,4.19,0,0,1-1.19,2.6,2.63,2.63,0,0,1-1.83.92l-.14,0,0,.1a3.5,3.5,0,0,0,.94.36,38.83,38.83,0,0,1,4.29,1A23.89,23.89,0,0,1,97.6,11a1.35,1.35,0,0,1,.84,1.78,1.39,1.39,0,0,1-1.84.79,2.32,2.32,0,0,1-1.1-.64.31.31,0,0,0-.19-.06c-.85-.06-1.69-.12-2.53-.15a7.48,7.48,0,0,1-2.3-.42l-.14,0c-.1.53-.2,1.05-.28,1.57a2.14,2.14,0,0,1-.56,1.27.6.6,0,0,0-.11.26c-.16.65-.32,1.3-.47,2a.51.51,0,0,0,.06.34,11.42,11.42,0,0,0,1.87,2.06,5.5,5.5,0,0,1,.73.8,1.68,1.68,0,0,1,.06,2,1.66,1.66,0,0,1-2,.66,3,3,0,0,1-1.1-.75c-.81-.92-1.56-1.89-2.32-2.85a.37.37,0,0,0-.39-.17,16.89,16.89,0,0,0-1.91.23,3.9,3.9,0,0,0-1.46.71A13.35,13.35,0,0,0,80.85,22a2.12,2.12,0,0,1-2.17.68A2,2,0,0,1,77.25,21a2.18,2.18,0,0,1,.84-2.08,10.93,10.93,0,0,1,4.24-2.28,8.17,8.17,0,0,1,1.49-.12c.45,0,.91,0,1.36-.05.14,0,.26,0,.23-.23a6.2,6.2,0,0,1,.74-3.26,15.31,15.31,0,0,0,.57-2.14.24.24,0,0,0-.13-.2,7.61,7.61,0,0,0-2.91-.87A3.66,3.66,0,0,1,80.32,7.3a2,2,0,0,1,1.37-2.7A3.09,3.09,0,0,1,83,4.68a3.85,3.85,0,0,1,2.48,1.91,1.76,1.76,0,0,0,.81.74l1.08.5"/><path class="cls-2" d="M10.13,25.71l.66.91h.07c0-.13,0-.26,0-.39a7,7,0,0,1,1.52-4.15.9.9,0,0,1,1.15-.3A.87.87,0,0,1,14,22.88c-.29,1-.6,1.91-.9,2.87a2.9,2.9,0,0,0-.14.65c-.05.83-.07,1.66-.11,2.49,0,0,0,.06,0,.09-.18.5.16.8.45,1.1a48.61,48.61,0,0,1,4.13,4.82,11.46,11.46,0,0,1,.75,1.2.35.35,0,0,0,.45.19c.9-.21,1.8-.41,2.71-.57a1.07,1.07,0,0,1,1.17.61,1,1,0,0,1-.56,1.47,10.25,10.25,0,0,1-3.08.51s0,.13,0,.22c-.15,1-.3,2-.44,3-.07.47-.12,1-.2,1.43a1.66,1.66,0,0,1-3.29-.35,9,9,0,0,1,.88-3.82c.19-.34.12-.55-.14-.85-.74-.85-1.43-1.74-2.11-2.63-1-1.38-2.06-2.78-3.1-4.16a.32.32,0,0,0-.2-.13l-5.42.13c-.41,0-.82.11-1.23.13A1.5,1.5,0,0,1,2,30.36a1.48,1.48,0,0,1,.36-1.68,1.81,1.81,0,0,1,.68-.37c1-.28,2.07-.56,3.13-.77a16.51,16.51,0,0,1,2-.18h.35l-.17-.51-.31,0A2.91,2.91,0,0,1,4.9,23.82a2,2,0,0,1,.51-1.19c.25-.29.51-.56.76-.85a2,2,0,0,1,2.39-.5,3.25,3.25,0,0,1,1.89,3.06,10,10,0,0,1-.32,1.37"/><path class="cls-3" d="M130.48,66.93a.9.9,0,0,0-.23-.2c.09.15.19.28.28.43a.46.46,0,0,0-.05-.23"/><path class="cls-3" d="M92.39,77.54,87.34,62l-5,15.52a1.54,1.54,0,0,1-.65.83H93a1.59,1.59,0,0,1-.65-.83"/><path class="cls-3" d="M79.24,77.54,74.19,62l-5,15.52a1.59,1.59,0,0,1-.65.83H79.88a1.57,1.57,0,0,1-.64-.83"/><path class="cls-3" d="M66.08,77.54,61,62,56,77.54a1.54,1.54,0,0,1-.65.83h11.4a1.59,1.59,0,0,1-.65-.83"/><path class="cls-3" d="M130,66.56l.11.09a.39.39,0,0,0,.1.08c-.31-.48-.62-1-.95-1.4.07.15.13.3.21.45a2.76,2.76,0,0,0,.53.78"/><path class="cls-3" d="M52.93,77.54,47.88,62,42.83,77.54a1.59,1.59,0,0,1-.65.83h11.4a1.54,1.54,0,0,1-.65-.83"/><path class="cls-3" d="M75.71,56.33l5.06,15.52,5-15.52a1.57,1.57,0,0,1,.41-.62H75.31a1.55,1.55,0,0,1,.4.62"/><path class="cls-3" d="M88.47,55.71a1.55,1.55,0,0,1,.4.62l5,15.52,5.25-16.14Z"/><path class="cls-3" d="M49.4,56.33l5.06,15.52,5-15.52a1.57,1.57,0,0,1,.41-.62H49a1.45,1.45,0,0,1,.4.62"/><path class="cls-3" d="M41.3,71.85l5.05-15.52a1.55,1.55,0,0,1,.4-.62H36.05Z"/><path class="cls-3" d="M62.56,56.33l5,15.52,5-15.52a1.55,1.55,0,0,1,.4-.62H62.16a1.55,1.55,0,0,1,.4.62"/><path class="cls-3" d="M135.13,77.3a23.27,23.27,0,0,0-1.71-4.85c-.57-1.11-1.18-2.2-1.76-3.31-.35-.68-.73-1.34-1.13-2-.09-.15-.19-.28-.28-.43a.7.7,0,0,1-.1-.08l-.11-.09a3,3,0,0,1-.53-.78c-.08-.15-.14-.3-.21-.45-.5-1-.93-2-1.4-3-1.91-4.11-4.37-8.3-8.15-10.88-1.73-1.18-3.33-3.69-5.22-4.57a13.21,13.21,0,0,0-4-1.33c-2.77-.59-7.82,1.14-10.6.38a12.52,12.52,0,0,1-6.08-4.22c-1.85-2.18-3.72-4.37-5.67-6.48l-.89-.81c-.26-.24-.52-.46-.78-.67l-.16-.2c-.78-.93-1.59-1.82-2.37-2.73L81.84,28.3c-.24-.28-.47-.57-.72-.84-.93-1-1.83-2.06-2.8-3a19.76,19.76,0,0,0-5.14-3.37,11.14,11.14,0,0,0-4.54-1.34h-1.1c-.4,0-.8.09-1.21.12a8.51,8.51,0,0,0-2.67.62A21.48,21.48,0,0,0,58.09,24a47.08,47.08,0,0,0-6,6.62,10.94,10.94,0,0,1-2.18,2.27,23.9,23.9,0,0,1-3.8,2.23,7.12,7.12,0,0,1-2.12.65,7.23,7.23,0,0,1-3.15-.41,16.84,16.84,0,0,0-3.58-.72H35.58l-.72,0-.83.09-.7.11a15.55,15.55,0,0,0-2.88.53,13,13,0,0,0-4,1.74c-.92.64-1.78,1.38-2.66,2.1A6.62,6.62,0,0,0,22,41.43c-.41.81-.81,1.62-1.16,2.46a16.45,16.45,0,0,1-1.11,2.27c-.15.25-.3.5-.43.77l-2.13,4.36a35.26,35.26,0,0,1-2.67,4.82,26,26,0,0,0-2.31,4,41.52,41.52,0,0,1-2,3.88,31.07,31.07,0,0,1-2.55,4,19.94,19.94,0,0,0-1.19,1.66A56.78,56.78,0,0,1,1,77,6,6,0,0,0,0,78.37H40.42a1.59,1.59,0,0,1-.65-.83l-7.1-21.83h-5.9a1.28,1.28,0,0,1,0-2.55h81.66a1.23,1.23,0,0,1,1,.59,1.24,1.24,0,0,1-1,2h-5.87L95.45,77.54a1.59,1.59,0,0,1-.65.83h40.33a2,2,0,0,0,0-1.07"/><path class="cls-4" d="M67.61,78.65a1.61,1.61,0,0,0,.88-.28H66.73a1.61,1.61,0,0,0,.88.28"/><path class="cls-4" d="M80.76,78.65a1.62,1.62,0,0,0,.89-.28H79.88a1.61,1.61,0,0,0,.88.28"/><path class="cls-4" d="M54.45,78.65a1.62,1.62,0,0,0,.89-.28H53.57a1.61,1.61,0,0,0,.88.28"/><path class="cls-4" d="M93.92,78.65a1.61,1.61,0,0,0,.88-.28H93a1.61,1.61,0,0,0,.88.28"/><path class="cls-4" d="M41.3,78.65a1.61,1.61,0,0,0,.88-.28H40.42a1.61,1.61,0,0,0,.88.28"/><path class="cls-4" d="M108.43,53.16h-.14c.39.21.78.42,1.18.59a1.25,1.25,0,0,0-1-.59"/><rect y="82.02" width="135.13" height="3.65" style="fill:#00a2d3"/></g><g><path d="M251.54,103.41a.87.87,0,0,1-.16.61,1.06,1.06,0,0,1-.58.31c-.2,0-.42-.08-.64-.06s-.43.13-.65.13-.43-.06-.64-.07-.42,0-.63,0l-.63-.07a2.08,2.08,0,0,1-.54-.11,2.15,2.15,0,0,1-.44-.28,3.19,3.19,0,0,1-.38-.36,4.13,4.13,0,0,1-.31-.42,2.73,2.73,0,0,1-.27-.47,4,4,0,0,1-.1-.52,4.52,4.52,0,0,1-.06-.53c0-.17-.15-.33-.15-.53s.17-.23.18-.35-.1-.1-.1-.19c-.21,0-.38,0-.59,0s-.41-.08-.62-.08-.41-.07-.62-.08v0a.73.73,0,0,1-.54-.25.65.65,0,0,1-.15-.56.76.76,0,0,1,.2-.53c.17-.13.33-.38.57-.37s.39.19.6.19.41,0,.62,0,.35-.17.56-.17c0-.17.16-.28.18-.47s-.09-.37-.09-.56.17-.35.19-.53-.1-.35-.09-.53c-.32-.1-.32,0-.66,0s-.36-.18-.7-.18-.45,0-.6-.1-.09-.38-.09-.6-.1-.5,0-.65a1,1,0,0,1,.65-.21c.3,0,.3,0,.59,0s.3,0,.59,0,.28,0,.58,0,.29.07.59.07h1.16c.28,0,.28.09.58.09H249c.28,0,.28-.22.57-.22h.58c.23,0,.36.28.51.42a.62.62,0,0,1,.21.5.65.65,0,0,1-.19.54c-.15.14-.3.38-.53.38s-.28-.06-.56-.06-.28-.12-.56-.12-.28.19-.58.19-.28-.16-.56-.16a1.18,1.18,0,0,0-.56.05c0,.19.07.38.06.57s-.16.35-.18.53.11.38.09.56-.16.44-.16.62c.18,0,.43-.15.62-.15s.38,0,.57,0,.39.09.56.09.39,0,.58,0H250c.19,0,.38-.21.56-.21a.9.9,0,0,1,.63.26.8.8,0,0,1,.16.62c0,.22.06.5-.08.65a1.16,1.16,0,0,1-.64.3c-.2,0-.4,0-.59,0s-.4-.14-.59-.14h-.59c-.19,0-.39.15-.59.15l-.59,0c-.19,0-.33.06-.53.06,0,.12.05.16.05.27s-.09.17-.09.26a5.34,5.34,0,0,0-.06.62,1.49,1.49,0,0,0,.22.59.89.89,0,0,0,.63.4c.17,0,.36,0,.54.06s.35-.11.53-.09h.53c.19,0,.39.21.59.19h.59a.59.59,0,0,1,.51.16c.16.13.33.25.34.47Z"/><path d="M260.5,97.34c0,.28-.06.28-.06.56s0,.28,0,.56,0,.28,0,.54a5.32,5.32,0,0,1,.06.56c0,.23,0,.51-.09.65a.85.85,0,0,1-.64.21s0,.1,0,.1c-.22,0-.39-.23-.53-.38a.79.79,0,0,1-.3-.52c0-.28.1-.28.09-.56s-.22-.26-.24-.54.09-.28.08-.56.11-.28.1-.56l0-.56a4.93,4.93,0,0,0,0-.55c0-.28-.19-.28-.19-.54a.9.9,0,0,1,.28-.61,1,1,0,0,1,1.21-.09.94.94,0,0,1,.26.62c0,.28,0,.28,0,.56a5.25,5.25,0,0,0,.09.55C260.6,97.06,260.48,97.06,260.5,97.34Zm4.55-.93c0,.21,0,.4,0,.6s.07.42.07.61-.07.41-.07.6,0,.42-.05.61-.1.41-.11.6-.06.4-.11.61-.09.38-.13.57a5.08,5.08,0,0,1-.16.59c-.08.18-.09.38-.18.56s-.22.31-.32.49-.19.32-.31.48a4.75,4.75,0,0,1-.31.5c-.14.15-.25.31-.39.45s-.31.25-.45.37a5.13,5.13,0,0,1-.44.39c-.17.12-.42.08-.59.18s-.23.16-.36.16a.8.8,0,0,1-.66-.45c-.1-.2-.28-.42-.22-.62a.94.94,0,0,1,.48-.48,4.78,4.78,0,0,0,.48-.31c.14-.11.26-.27.41-.41s.31-.23.43-.37a5,5,0,0,0,.39-.42c.12-.17.3-.3.39-.46s0-.43.07-.59.27-.34.32-.56a5.77,5.77,0,0,0,.05-.62c0-.19,0-.4,0-.62a5.88,5.88,0,0,0,0-.6c0-.21.12-.42.12-.62s0-.41,0-.62-.14-.4-.14-.62,0-.4,0-.62.09-.21.09-.31a.89.89,0,0,1,.19-.62.87.87,0,0,1,.62-.17,1,1,0,0,1,.65.14,1,1,0,0,1,.2.65c0,.12.08.21.08.31S265.05,96.2,265.05,96.41Z"/><path d="M279,97.06c-.06.19-.05.4-.12.57s-.22.33-.28.5-.12.37-.19.55-.16.35-.24.53-.15.35-.23.53-.26.3-.34.47-.19.33-.28.49-.17.37-.25.53-.12.37-.22.53-.31.27-.42.43,0,.44-.13.6-.24.3-.34.46-.35.22-.47.37a.68.68,0,0,1-.6.31.69.69,0,0,1-.42-.16.66.66,0,0,1-.16-1c.12-.16.12-.4.22-.56s.25-.29.37-.45.28-.27.38-.43.19-.34.3-.5.06-.42.16-.58.32-.26.41-.44.12-.37.21-.55.2-.32.29-.5.18-.34.25-.53.14-.35.21-.54.18-.34.24-.53.08-.37.16-.56,0-.4.09-.58a.83.83,0,0,1,.45-.45.8.8,0,0,1,.61,0,.74.74,0,0,1,.51.37.86.86,0,0,1,.05.65C279.17,96.7,279.08,96.88,279,97.06Z"/><path d="M295.33,104.33c-.16.13-.41,0-.59,0a.73.73,0,0,1-.59-.25c-.11-.15-.35-.22-.5-.38a6,6,0,0,0-.31-.53c-.13-.15-.23-.33-.38-.48s-.35-.22-.5-.37-.15-.41-.28-.56-.34-.25-.47-.38-.3-.2-.44-.34l-.33.43c-.12.16-.31.28-.43.43s-.16.38-.28.54-.33.24-.45.39-.22.34-.34.5-.18.37-.31.51-.25.33-.37.48a1,1,0,0,1-.71.32,1,1,0,0,1-.51-.28.79.79,0,0,1-.11-1.14c.12-.14.24-.31.37-.47s.22-.31.34-.47.18-.35.31-.52l.38-.44c.12-.16.34-.23.46-.4s.22-.32.34-.47.13-.4.25-.56a5.46,5.46,0,0,0,.38-.44c.12-.16.33-.25.45-.41l.34-.49c.1-.16.19-.34.31-.5s.11-.38.22-.55.29-.29.38-.45.16-.41.25-.59c-.28-.09-.3,0-.59,0s-.3-.09-.57-.07-.3.22-.58.23-.29,0-.57,0a5.43,5.43,0,0,1-.58,0h-.59l-.57,0a.89.89,0,0,1-.62-.22.87.87,0,0,1-.24-.62.77.77,0,0,1,.25-.57.75.75,0,0,1,.56-.24c.3,0,.3,0,.59,0a4.08,4.08,0,0,1,.61,0c.29,0,.29,0,.6,0s.29,0,.59,0,.29-.08.59-.08.31.09.6.09.3-.16.59-.18.3.17.61.15.28-.16.57-.18.49.25.65.48a.64.64,0,0,1,0,.69c-.07.19-.11.38-.19.57s0,.42-.13.59-.29.3-.4.47-.11.4-.22.58-.2.34-.31.52a5.34,5.34,0,0,1-.35.48,4.32,4.32,0,0,1-.33.5c.15.14.24.31.37.44s.34.23.47.37.23.33.36.48.28.26.41.41.28.28.4.43a5,5,0,0,1,.32.48c.14.15.39.21.5.34l.4.44a.88.88,0,0,1,.12.67A.89.89,0,0,1,295.33,104.33Z"/></g></g></g></g></svg>