<?xml version="1.0"?>
<svg xmlns="http://www.w3.org/2000/svg" version="1.2" baseProfile="tiny" width="800" height="1030" viewBox="0 0 800 1030" stroke-linecap="round" stroke-linejoin="round">
<g id="12" fill="none" stroke="black" stroke-width="1">
<path d="M 89.97 501.64 114.74 502.03 M 95.67 445.97 115.57 446.6 M 89.41 514.41 114.18 514.8 M 90.26 500.78 114.61 501.02 M 89.71 513.56 114.48 513.94 M 90.39 487.85 114.73 488.09 M 89.71 527.49 114.06 527.73 M 91.26 486.71 114.6 487.09 M 90.7 528.79 114.04 529.16 M 90.15 541.57 113.92 542.09 M 91.82 473.94 115.15 474.31 M 93.12 472.94 115.02 473.3 M 91.71 542.59 113.62 542.95 M 91.59 555.51 113.49 555.87 M 93.24 460.02 115.15 460.38 M 95.12 458.74 115.02 459.37 M 93.58 556.68 113.63 556.88 M 93.03 569.46 113.5 569.8 M 97.97 444.84 115.58 445.16 M 97.76 583.58 113.08 583.59 M 98.1 431.92 115.71 432.23 M 101.26 431.09 115.58 431.23 M 101.39 418.16 116.13 418.45 M 95.45 570.77 113.2 570.66 M 95.33 582.26 112.94 582.58 M 97.78 596.08 112.95 596.51 M 104.97 417.48 116 417.44 M 101.2 597.26 113.08 597.52 M 101.07 610.18 112.96 610.44 M 105.5 611.23 112.51 611.73 M 89.97 501.64 114.74 502.03 M 95.67 445.97 115.57 446.6 M 89.41 514.41 114.18 514.8 M 90.26 500.78 114.61 501.02 M 89.71 513.56 114.48 513.94 M 90.39 487.85 114.73 488.09 M 89.71 527.49 114.06 527.73 M 91.26 486.71 114.6 487.09 M 90.7 528.79 114.04 529.16 M 90.15 541.57 113.92 542.09 M 91.82 473.94 115.15 474.31 M 93.12 472.94 115.02 473.3 M 91.71 542.59 113.62 542.95 M 91.59 555.51 113.49 555.87 M 93.24 460.02 115.15 460.38 M 95.12 458.74 115.02 459.37 M 93.58 556.68 113.63 556.88 M 93.03 569.46 113.5 569.8 M 97.97 444.84 115.58 445.16 M 97.76 583.58 113.08 583.59 M 98.1 431.92 115.71 432.23 M 101.26 431.09 115.58 431.23 M 101.39 418.16 116.13 418.45 M 95.45 570.77 113.2 570.66 M 95.33 582.26 112.94 582.58 M 97.78 596.08 112.95 596.51 M 104.97 417.48 116 417.44 M 101.2 597.26 113.08 597.52 M 101.07 610.18 112.96 610.44 M 105.5 611.23 112.51 611.73 M 89.97 501.64 114.74 502.03 M 95.67 445.97 115.57 446.6 M 89.41 514.41 114.18 514.8 M 90.26 500.78 114.61 501.02 M 89.71 513.56 114.48 513.94 M 90.39 487.85 114.73 488.09 M 89.71 527.49 114.06 527.73 M 91.26 486.71 114.6 487.09 M 90.7 528.79 114.04 529.16 M 90.15 541.57 113.92 542.09 M 91.82 473.94 115.15 474.31 M 93.12 472.94 115.02 473.3 M 91.71 542.59 113.62 542.95 M 91.59 555.51 113.49 555.87 M 93.24 460.02 115.15 460.38 M 95.12 458.74 115.02 459.37 M 93.58 556.68 113.63 556.88 M 93.03 569.46 113.5 569.8 M 97.97 444.84 115.58 445.16 M 97.76 583.58 113.08 583.59 M 98.1 431.92 115.71 432.23 M 101.26 431.09 115.58 431.23 M 101.39 418.16 116.13 418.45 M 95.45 570.77 113.2 570.66 M 95.33 582.26 112.94 582.58 M 97.78 596.08 112.95 596.51 M 104.97 417.48 116 417.44 M 105.1 404.55 116.13 404.52 M 101.2 597.26 113.08 597.52 M 101.07 610.18 112.96 610.44 M 105.5 611.23 112.51 611.73 M 311.9 388.07 304.23 382.54 M 319.74 377.81 311.63 372.13 M 311.03 389.21 303.5 383.25 M 320.03 376.95 312.5 370.99 M 303.2 399.48 295.67 393.51 M 327.87 366.69 320.19 361.15 M 329.3 366.7 320.63 359.86 M 303.76 400.63 294.95 394.22 M 295.93 410.89 287.54 404.64 M 337.13 356.44 328.46 349.6 M 338.99 356.6 329.19 348.89 M 296.62 413.06 286.82 405.35 M 288.79 423.32 278.98 415.61 M 346.83 346.34 337.02 338.63 M 349.54 346.79 337.32 337.77 M 290.34 425.78 278.11 416.75 M 282.93 436.19 270.71 427.16 M 357.38 336.53 345.15 327.5 M 354.26 333.05 345.87 326.79 M 278.37 434.13 269.98 427.87 M 279.58 224.17 279.72 223.74 M 281.41 227.2 281.56 226.77 M 320.49 272.4 248.99 218.41 M 322.32 275.43 248.12 219.55 M 343.06 307.09 240.71 229.96 M 342.34 307.8 239.99 230.67 M 214.51 419.28 140.3 363.4 M 211.08 418.1 139.58 364.11 M 316.39 645.63 306.87 652.43 M 309.05 634.93 299.53 641.73 M 317.1 646.36 307.58 653.16 M 308.34 634.21 298.82 641.01 M 325.16 656.35 314.92 663.86 M 302 623.37 291.48 630.31 M 301.44 622.22 290.77 629.58 M 325.72 657.5 315.63 664.58 M 334.51 666.78 322.97 675.28 M 295.4 610.53 283.86 619.03 M 335.65 667.65 323.68 676.01 M 294.69 609.8 283.15 618.3 M 289.65 597.97 275.81 607.6 M 344.86 677.08 331.02 686.71 M 345.57 677.81 331.73 687.44 M 289.09 596.82 275.1 606.88 M 353.06 688.08 339.07 698.14 M 281.75 586.12 267.76 596.18 M 275.41 589.21 267.19 595.02 M 348 693.05 339.78 698.86 M 305.98 772.21 279.45 790.9 M 303.51 775.2 280.15 791.63 M 330.79 738.99 239.23 803.43 M 332.68 736.28 238.52 802.7 M 247.75 591.67 142.92 665.46 M 248.31 592.82 143.48 666.62 M 211.28 601.65 135.43 655.19 M 208.12 602.48 134.87 654.03 M 150.02 628.05 127.38 643.76 M 146.43 628.73 126.82 642.61 M 491.35 95.56 490.36 166.79 M 500.6 319.71 501.61 260.98 M 491.77 81.78 504.66 81.91 M 504.09 96.12 491.35 95.56 M 491.77 81.78 504.66 81.91 M 488.72 260.85 501.61 260.98 M 501.35 286.82 488.47 286.7 M 500.6 319.71 487.86 319.15 M 487.59 332.5 500.33 333.06 M 503.25 166.92 490.36 166.79 M 237.49 164 248.16 156.64 M 256.21 168.07 245.54 175.43 M 237.49 164 248.16 156.64 M 339.87 310.79 350.54 303.43 M 365.37 324.4 354.7 331.76 M 384.01 351.01 373.34 358.38 M 380.97 369.65 391.63 362.29 M 296.6 226.2 285.93 233.56 M 93.12 385.05 180.04 415.06 M 79.85 380.46 84.12 368.01 M 97.4 372.59 93.12 385.05 M 79.85 380.46 84.12 368.01 M 248.97 438.87 253.24 426.41 M 277.65 434.84 273.37 447.29 M 308.05 445.34 303.77 457.79 M 316.62 462.23 320.89 449.78 M 79.36 648.32 75.9 636.07 M 88.83 631.89 92.72 644.28 M 79.36 648.32 75.9 636.07 M 250.15 595.86 246.69 583.62 M 270.82 576.1 274.71 588.49 M 301.84 566.64 305.88 578.6 M 318.66 574.85 314.77 562.46 M 236.18 865.3 287.4 797.01 M 376.13 657.14 333.04 714.31 M 236.18 865.3 225.8 857.87 M 234.08 846.32 244.31 854.18 M 236.18 865.3 225.8 857.87 M 343.27 722.16 333.04 714.31 M 348.71 693.78 358.94 701.64 M 368.15 667.83 378.39 675.69 M 386.37 665 376.13 657.14 M 276.45 789.87 286.68 797.72 M 432.6 302.95 429.97 293.87 M 380.47 128.36 387.69 151.99 M 420.68 307 417.62 297.77 M 366.39 133.11 373.18 156.58 M 354.04 137 361.4 160.2 M 392.83 124.46 399.89 148.52 M 394.39 125.48 401.05 147.95 M 353.17 138.15 360.25 160.76 M 340.82 142.04 348.04 164.23 M 406.6 122.01 413.4 144.06 M 407.74 122.89 414.4 143.92 M 340.23 143.76 346.89 164.8 M 328.02 147.23 334.69 168.27 M 420.09 118.99 426.76 140.02 M 421.94 120.59 427.76 139.89 M 327.71 149.53 333.54 168.83 M 315.36 153.43 321.33 172.3 M 434.14 117.12 440.11 135.99 M 435.84 119.14 441.12 135.86 M 314.9 156.15 320.18 172.86 M 448.19 115.24 453.04 131.81 M 302.69 159.62 307.82 176.76 M 302.52 162.92 306.82 176.9 M 449.75 117.7 454.05 131.67 M 462.1 113.8 466.4 127.78 M 290.31 166.39 294.47 180.8 M 290.42 170.27 293.46 180.93 M 464.36 116.98 467.4 127.64 M 476.71 113.08 479.76 123.74 M 278.06 174.17 281.11 184.83 M 278.17 178.05 280.53 185.11 M 478.83 116.7 480.76 123.61 M 476.71 113.08 464.36 116.98 M 462.1 113.8 449.75 117.7 M 448.19 115.24 435.84 119.14 M 434.14 117.12 421.94 120.59 M 420.09 118.99 407.74 122.89 M 406.6 122.01 394.39 125.48 M 392.83 124.46 380.47 128.36 M 367.12 132.39 379.47 128.5 M 354.04 137 366.39 133.11 M 340.82 142.04 353.17 138.15 M 328.02 147.23 340.23 143.76 M 315.36 153.43 327.71 149.53 M 302.69 159.62 314.9 156.15 M 290.31 166.39 302.52 162.92 M 278.06 174.17 290.42 170.27 M 266.82 181.81 278.17 178.05 M 490.03 113.36 478.83 116.7 M 475.2 296.05 487.55 292.15 M 461.3 297.49 473.65 293.59 M 447.1 299.79 459.45 295.89 M 433.61 302.81 445.96 298.92 M 420.68 307 432.6 302.95 M 419.67 307.13 407.32 311.03 M 406.45 312.17 394.09 316.07 M 393.79 318.36 381.58 321.83 M 381.12 324.56 368.77 328.46 M 254.7 190.6 247.16 200 M 243.46 198.24 236.05 208.65 M 232.63 207.47 224.79 217.74 M 221.8 216.7 213.96 226.96 M 211.25 226.51 203.84 236.92 M 201.55 236.61 193.72 246.87 M 191.86 246.71 184.45 257.12 M 174.76 267.22 183.02 257.11 M 166.2 278.2 174.04 267.93 M 158.35 289.9 166.19 279.63 M 150.93 301.74 158.34 291.33 M 143.51 313.59 151.35 303.33 M 136.95 325.73 144.36 315.32 M 130.24 338.31 138.07 328.04 M 124.39 351.17 132.22 340.91 M 118.81 364.62 126.64 354.36 M 113.96 377.35 121.5 367.95 M 349.54 346.79 357.38 336.53 M 338.99 356.6 346.83 346.34 M 329.3 366.7 337.13 356.44 M 320.03 376.95 327.87 366.69 M 319.74 377.81 311.9 388.07 M 311.03 389.21 303.2 399.48 M 303.76 400.63 295.93 410.89 M 296.62 413.06 288.79 423.32 M 290.34 425.78 282.93 436.19 M 276.96 475.91 277.08 462.99 M 274.96 490.11 275.08 477.19 M 273.53 504.03 273.66 491.1 M 273.66 505.03 273.4 516.95 M 273.54 517.96 272.98 530.74 M 273.97 532.04 273.99 544.53 M 275.41 545.98 275.43 558.48 M 277.85 559.8 277.72 572.72 M 109.1 391.52 108.83 403.44 M 105.1 404.55 104.97 417.48 M 101.39 418.16 101.26 431.09 M 98.1 431.92 97.97 444.84 M 95.67 445.97 95.12 458.74 M 93.24 460.02 93.12 472.94 M 91.82 473.94 91.26 486.71 M 90.39 487.85 90.26 500.78 M 89.97 501.64 89.71 513.56 M 89.41 514.41 89.71 527.49 M 90.15 541.57 90.7 528.79 M 91.59 555.51 91.71 542.59 M 93.03 569.46 93.58 556.68 M 95.33 582.26 95.45 570.77 M 97.78 596.08 97.76 583.58 M 101.07 610.18 101.2 597.26 M 105.36 625.59 105.5 611.23 M 281.75 586.12 289.09 596.82 M 294.69 609.8 287.35 599.1 M 301.44 622.22 294.1 611.52 M 308.34 634.21 301.42 623.65 M 316.39 645.63 309.05 634.93 M 317.1 646.36 324.44 657.06 M 325.72 657.5 333.21 667.77 M 335.65 667.65 342.56 678.21 M 345.57 677.81 353.06 688.08 M 109.52 640 116.58 650.12 M 113.68 652.96 121.03 663.66 M 118.99 666.8 126.48 677.08 M 124.59 679.79 132.08 690.06 M 130.77 692.49 137.68 703.04 M 136.94 705.19 144.43 715.46 M 143.84 717.17 151.18 727.87 M 151.17 729.31 158.08 739.86 M 158.64 741.02 165.98 751.72 M 166.69 752.44 174.18 762.72 M 182.96 773.43 175.61 762.73 M 192.16 784.29 184.82 773.59 M 201.65 794.3 194.16 784.03 M 211.58 804.45 204.24 793.75 M 222.08 814.32 214.74 803.62 M 232.72 823.76 225.38 813.06 M 243.81 831.91 236.61 822.22 M 487.86 319.15 487.59 332.5 M 500.6 319.71 500.33 333.06 M 504.66 81.91 504.09 96.12 M 491.77 81.78 491.35 95.56 M 501.61 260.98 501.35 286.82 M 488.47 286.7 488.72 260.85 M 494.36 167.69 502.69 195.06 M 493.36 167.83 502.51 198.36 M 502.95 167.78 494.36 167.69 M 492.31 260.17 487.58 259.97 M 487.58 259.97 487.34 270.46 M 493.36 167.83 489.06 167.78 M 489.06 167.78 489.47 155.44 M 493.31 260.03 501.47 259.97 M 500.84 295.29 494.54 295.52 M 494.54 295.52 487.95 295.17 M 365.37 324.4 350.54 303.43 M 354.7 331.76 339.87 310.79 M 391.63 362.29 384.01 351.01 M 380.97 369.65 373.34 358.38 M 256.21 168.07 248.16 156.64 M 245.54 175.43 237.49 164 M 308.05 445.34 320.89 449.78 M 316.62 462.23 303.77 457.79 M 277.65 434.84 253.24 426.41 M 248.97 438.87 273.37 447.29 M 314.77 562.46 301.84 566.64 M 305.88 578.6 318.66 574.85 M 270.82 576.1 246.69 583.62 M 250.15 595.86 274.71 588.49 M 88.83 631.89 75.9 636.07 M 79.36 648.32 92.72 644.28 M 283.29 443.52 285.35 437.5 M 285.35 437.5 281.08 449.96 M 180.04 415.06 184.31 402.61 M 359.5 338.71 364.98 335.31 M 364.98 335.31 370.17 331.34 M 279.29 573.74 281.09 579.65 M 281.09 579.65 282.9 585.55 M 180.63 617 178.82 611.1 M 178.82 611.1 177.02 605.19 M 386.37 665 378.39 675.69 M 376.13 657.14 368.15 667.83 M 364.16 694.79 358.76 691.01 M 358.76 691.01 353.93 686.94 M 358.94 701.64 343.27 722.16 M 333.04 714.31 348.71 693.78 M 244.31 854.18 236.18 865.3 M 234.08 846.32 225.8 857.87 M 320.49 272.4 291.54 231.18 M 321.64 271.83 292.26 230.47 M 296.6 226.2 256.21 168.07 M 298.03 226.22 292.26 230.47 M 254.7 190.6 258.94 196.39 M 298.03 226.22 290.97 216.09 M 278.85 224.88 256.82 208.14 M 276.87 222.27 257.54 207.43 M 291.54 231.18 285.91 235 M 285.91 235 278.85 224.88 M 288.99 213.49 274.16 192.52 M 366.38 324.27 350.56 301.99 M 344.66 319.17 338.59 310.35 M 338.59 310.35 342.34 307.8 M 343.06 307.09 344.21 306.53 M 346.81 304.54 350.56 301.99 M 211.08 418.1 183.68 408.63 M 210.21 419.24 183.24 409.92 M 344.93 305.82 323.47 274.87 M 344.21 306.53 322.32 275.43 M 344.93 305.82 346.08 305.25 M 247.39 439.28 249.01 434.56 M 278.37 434.13 268.1 430.58 M 247.39 439.28 257.66 442.83 M 249.6 432.84 213.64 420.42 M 250.04 431.55 214.51 419.28 M 250.34 430.69 148.14 353.13 M 148.43 352.27 250.78 429.41 M 250.78 429.41 252.25 425.11 M 250.04 431.55 250.34 430.69 M 249.31 433.7 249.6 432.84 M 278.36 449.5 277.81 462.28 M 109.1 391.52 116.37 394.04 M 153.78 391.1 185.89 402.19 M 185.89 402.19 183.68 408.63 M 183.24 409.92 181.02 416.36 M 150.78 390.07 131.3 375.66 M 153.78 391.1 132.17 374.52 M 184.31 402.61 97.4 372.59 M 150.78 390.07 126.38 381.64 M 148.49 405.13 181.02 416.36 M 274.99 573.7 260.63 577.87 M 109.52 640 116.98 637.77 M 249.7 597.15 248.31 592.82 M 177.02 605.19 88.83 631.89 M 245.82 584.76 244.97 583.03 M 177.61 603.47 152.9 611.27 M 238.79 585.69 246.38 585.91 M 247.06 589.51 218.19 598.27 M 247.62 590.66 211.28 601.65 M 247.06 589.51 246.38 585.91 M 214.88 599.53 179.55 610.38 M 179.55 610.38 177.61 603.47 M 180.11 611.54 182.19 618.02 M 208.12 602.48 180.11 611.54 M 249.7 597.15 259.9 593.94 M 149.74 612.1 117.72 621.69 M 150.02 628.05 182.19 618.02 M 247.75 591.67 247.62 590.66 M 276.46 788.43 279.45 790.9 M 342.98 723.02 336.44 718.36 M 348 693.05 341.61 701.9 M 325.78 724.29 230.47 791.28 M 336.44 718.36 231.18 792 M 276.46 788.43 268.78 798.26 M 325.78 724.29 335.3 717.49 M 335.3 717.49 331.46 714.72 M 277.17 789.16 225.8 857.87 M 266.89 800.97 247.28 814.86 M 268.78 798.26 246.57 814.13 M 266.89 800.97 251.65 821.65 M 305.98 772.21 330.79 738.99 M 280.15 791.63 287.4 797.01 M 287.4 797.01 303.51 775.2 M 182.89 925.67 1 665.92 M 1 665.92 6.13 348.28 M 6.13 348.28 196.65 94.66 M 196.65 94.66 499.72 1.43 M 493.64 358.13 400.99 386.66 M 400.99 386.66 342.8 464.07 M 342.8 464.07 340.99 561.43 M 340.99 561.43 396.63 640.68 M 504.09 96.12 502.95 167.78 M 490.36 166.79 490.07 167.65 M 501.47 259.97 501.78 243.74 M 501.47 259.97 501.61 260.98 M 490.03 113.36 489.96 120.54 M 378.39 675.69 358.94 701.64 M 343.27 722.16 342.98 723.02 M 332.68 736.28 330.79 738.99 M 305.98 772.21 303.51 775.2 M 332.6 715.59 333.04 714.31 M 342.98 723.02 332.68 736.28 M 305.88 578.6 274.71 588.49 M 301.84 566.64 270.82 576.1 M 246.69 583.62 245.68 583.75 M 180.63 617 181.63 616.87 M 249.14 595.99 250.15 595.86 M 177.02 605.19 178.17 604.63 M 184.31 402.61 185.6 403.05 M 253.24 426.41 251.96 425.97 M 247.68 438.42 248.97 438.87 M 273.37 447.29 303.77 457.79 M 181.32 415.51 180.04 415.06 M 308.05 445.34 277.65 434.84 M 373.34 358.38 354.7 331.76 M 365.37 324.4 384.01 351.01 M 339.87 310.79 339.31 309.64 M 350.54 303.43 349.98 302.27 M 296.6 226.2 297.31 226.93 M 285.93 233.56 286.64 234.29 M 488.72 260.85 488.59 259.84 M 488.47 286.7 487.86 319.15 M 502.69 195.06 502.95 167.78 M 502.1 240.01 502.51 198.36 M 502.69 195.06 502.51 198.36 M 502.1 240.01 501.78 243.74 M 182.89 925.67 482.17 1029.02 M 631.75 162.3 576.13 313.13 M 576.13 313.13 546.03 301.77 M 546.77 299.63 550 291.61 M 601.64 150.94 631.75 162.3 M 601.08 149.79 561.89 305.81 M 561.89 305.81 530.6 297.89 M 530.6 297.89 530.75 297.46 M 569.8 141.87 601.08 149.79 M 535.78 134.92 533.2 295.9 M 533.2 295.9 500.84 295.29 M 500.84 295.29 501.35 286.82 M 503.85 134.47 535.78 134.92 M 688.27 195.75 602.73 331.92 M 602.73 331.92 575.54 314.85 M 657.01 184.96 661.09 178.68 M 661.09 178.68 688.27 195.75 M 660.95 177.67 589.94 321.74 M 589.94 321.74 561.3 307.52 M 628.67 169.88 631.88 163.31 M 631.88 163.31 660.95 177.67 M 568.53 139.99 548.63 299.79 M 548.63 299.79 517.02 295.6 M 535.69 144.98 536.77 136.23 M 536.77 136.23 568.53 139.99 M 451.99 791.89 319.36 882.5 M 319.36 882.5 301.29 855.6 M 301.29 855.6 303.59 854.48 M 434.21 765.57 451.99 791.89 M 434.22 764.14 311.91 867.92 M 311.91 867.92 291.1 843.44 M 291.1 843.44 291.25 843.01 M 413.41 739.66 434.22 764.14 M 389.61 714.15 294.11 843.04 M 294.11 843.04 268.52 824.11 M 268.52 824.11 364.16 694.79 M 364.16 694.79 389.61 714.15 M 478.61 852.48 329.94 913.05 M 329.94 913.05 317.63 883.34 M 459.69 825.29 466.3 822.77 M 466.3 822.77 478.61 852.48 M 467.17 821.63 324.07 898.06 M 325.22 897.49 310.61 868.91 M 445.07 796.7 451.98 793.33 M 451.98 793.33 467.17 821.63 M 413.72 737.37 304.73 855.35 M 304.73 855.35 281.46 833.86 M 384.09 721.85 390.17 715.3 M 390.17 715.3 413.72 737.37 M 799 104.78 499.72 1.43 M 499.72 1.43 499.87 1 M 598.99 158.67 601.64 150.94 M 566.95 154.33 569.8 141.87 M 427.44 769.96 434.21 765.57 M 403.88 747.9 413.41 739.66 M 488.25 672.32 396.63 640.68 M 585.26 389.77 493.64 358.13 M 257.58 451.45 257.73 451.02 M 145.06 403.94 121.72 403.57 M 348.71 693.78 333.04 714.31 M 359.3 315.58 488.28 276.07 M 348.63 322.94 267.37 431.29 M 260.62 579.3 263.1 443.75 M 342.32 702.62 264.51 591.69 M 338.84 707.18 259.19 593.22 M 255.31 580.83 257.53 441.82 M 345.38 318.46 261.81 429.37 M 356.05 311.1 488.34 270.32 M 346.13 708.26 281.85 793.65 M 490.96 120.41 269.91 188.16 M 259.67 195.68 120.52 380.58 M 116.24 393.03 112.39 624.66 M 116.28 637.05 248.88 826.94 M 490.9 126.15 273.16 192.65 M 262.91 200.16 126.08 382.5 M 121.81 394.95 117.7 623.13 M 121.59 635.52 252.36 822.37 M 489.9 126.28 489.22 151.99 M 489.22 151.99 482.43 128.51 M 481.28 129.07 489.47 155.44 M 469.08 132.54 502.1 240.01 M 467.92 133.1 501.78 243.74 M 455.72 136.57 493.31 260.03 M 454.57 137.14 492.31 260.17 M 442.36 140.61 482.45 272.13 M 441.64 141.32 481.45 272.27 M 429.28 145.22 469.09 276.16 M 428.28 145.35 468.09 276.3 M 415.93 149.25 456.17 280.35 M 414.92 149.38 455.16 280.48 M 402.57 153.28 442.81 284.38 M 401.56 153.42 441.8 284.51 M 389.21 157.32 429.45 288.41 M 386.54 152.55 379.47 128.5 M 374.33 156.02 367.12 132.39 M 374.85 161.48 414.94 293.01 M 362.5 165.38 402.74 296.48 M 361.92 165.66 401.58 297.04 M 349.57 169.56 389.38 300.51 M 348.56 169.7 388.23 301.07 M 336.21 173.6 376.02 304.54 M 335.21 173.73 375.3 305.25 M 322.85 177.63 363.09 308.72 M 321.85 177.76 361.94 309.29 M 309.49 181.66 346.81 304.54 M 308.49 181.8 346.08 305.25 M 296.14 185.69 323.47 274.87 M 294.99 186.26 321.64 271.83 M 282.78 189.73 290.97 216.09 M 282.06 190.44 288.99 213.49 M 270.91 188.03 266.82 181.81 M 262.04 201.3 276.87 222.27 M 253 203.94 247.16 200 M 252.55 205.23 243.46 198.24 M 244.72 215.49 236.05 208.65 M 244 216.2 232.63 207.47 M 236.16 226.47 222.52 215.99 M 235.87 227.32 221.8 216.7 M 228.03 237.59 211.97 225.79 M 227.31 238.3 211.25 226.51 M 219.91 248.71 202.42 235.47 M 219.04 249.85 201.55 236.61 M 211.2 260.11 192.58 246 M 210.48 260.82 191.86 246.71 M 203.07 271.24 182.89 256.1 M 202.35 271.95 182.59 256.96 M 194.52 282.21 174.76 267.22 M 193.79 282.92 174.04 267.93 M 186.39 293.33 166.2 278.2 M 185.66 294.04 165.91 279.05 M 177.83 304.31 158.35 289.9 M 176.96 305.45 157.63 290.61 M 168.83 316.57 150.21 302.45 M 169.55 315.86 150.93 301.74 M 161 326.83 143.51 313.59 M 160.27 327.54 143.22 314.45 M 152.87 337.95 136.95 325.73 M 152.15 338.67 136.08 326.87 M 144.31 348.93 130.24 338.31 M 144.02 349.79 129.8 339.59 M 136.18 360.05 124.39 351.17 M 135.31 361.19 123.94 352.46 M 127.48 371.45 118.81 364.62 M 127.18 372.31 121.5 367.95 M 121.24 379.87 113.96 377.35 M 121.51 395.81 145.06 403.94 M 115.99 403.51 108.83 403.44 M 121.43 404.43 148.49 405.13 M 210.21 419.24 121.3 417.35 M 121.3 417.35 191.74 418.62 M 191.74 418.62 121.3 417.35 M 213.64 420.42 121.29 418.79 M 121.29 418.79 195.17 419.81 M 195.17 419.81 121.29 418.79 M 249.31 433.7 121.16 431.71 M 121.16 431.71 234.56 433.41 M 234.56 433.41 121.16 431.71 M 249.01 434.56 120.86 432.57 M 120.86 432.57 237.56 434.45 M 237.56 434.45 120.86 432.57 M 120.74 445.5 257.9 447.72 M 257.9 447.72 120.74 445.5 M 120.74 445.5 257.9 447.72 M 120.87 446.5 257.46 449 M 257.46 449 120.87 446.5 M 120.87 446.5 257.46 449 M 120.74 459.43 257.33 461.93 M 257.33 461.93 120.74 459.43 M 120.74 459.43 257.33 461.93 M 120.45 460.29 257.47 462.94 M 257.47 462.94 120.45 460.29 M 120.45 460.29 257.47 462.94 M 120.32 473.21 257.34 475.86 M 257.34 475.86 120.32 473.21 M 120.32 473.21 257.34 475.86 M 120.45 474.22 257.04 476.72 M 257.04 476.72 120.45 474.22 M 120.45 474.22 257.04 476.72 M 120.33 487.14 256.92 489.64 M 256.92 489.64 120.33 487.14 M 120.33 487.14 256.92 489.64 M 119.88 488.43 257.05 490.65 M 257.05 490.65 119.88 488.43 M 119.88 488.43 257.05 490.65 M 119.76 501.36 256.92 503.58 M 256.92 503.58 119.76 501.36 M 119.76 501.36 256.92 503.58 M 119.89 502.36 256.48 504.86 M 256.48 504.86 119.89 502.36 M 119.89 502.36 256.48 504.86 M 119.63 514.28 256.37 516.35 M 256.37 516.35 119.63 514.28 M 119.63 514.28 256.37 516.35 M 119.76 515.29 256.5 517.36 M 256.5 517.36 119.76 515.29 M 119.76 515.29 256.5 517.36 M 119.21 528.07 256.37 530.28 M 256.37 530.28 119.21 528.07 M 119.21 528.07 256.37 530.28 M 119.34 529.07 256.36 531.72 M 256.36 531.72 119.34 529.07 M 119.34 529.07 256.36 531.72 M 119.21 542 255.81 544.5 M 255.81 544.5 119.21 542 M 119.21 542 255.81 544.5 M 119.35 543 255.94 545.5 M 255.94 545.5 119.35 543 M 119.35 543 255.94 545.5 M 118.79 555.78 255.81 558.43 M 255.81 558.43 118.79 555.78 M 118.79 555.78 255.81 558.43 M 118.93 556.79 255.95 559.44 M 255.95 559.44 118.93 556.79 M 118.93 556.79 255.95 559.44 M 118.8 569.71 255.39 572.21 M 255.39 572.21 118.8 569.71 M 118.8 569.71 255.39 572.21 M 118.79 571.15 255.52 573.22 M 255.52 573.22 118.79 571.15 M 118.79 571.15 255.52 573.22 M 245.82 584.76 118.67 582.64 M 118.67 582.64 238.66 584.69 M 238.66 584.69 118.67 582.64 M 238.79 585.69 118.23 583.93 M 118.23 583.93 235.35 585.95 M 235.35 585.95 118.23 583.93 M 218.19 598.27 118.25 596.42 M 118.25 596.42 198.57 598.22 M 198.57 598.22 118.25 596.42 M 214.88 599.53 118.24 597.86 M 118.24 597.86 195.41 599.05 M 195.41 599.05 118.24 597.86 M 118.11 610.78 152.9 611.27 M 152.9 611.27 118.11 610.78 M 118.11 610.78 152.9 611.27 M 117.81 611.64 149.74 612.1 M 149.74 612.1 117.81 611.64 M 117.81 611.64 149.74 612.1 M 112.25 623.65 105.36 625.59 M 122.3 636.24 146.43 628.73 M 122.35 645.87 116.58 650.12 M 123.06 646.59 113.68 652.96 M 130.4 657.29 121.03 663.66 M 131.11 658.02 118.99 666.8 M 138.45 668.72 126.48 677.08 M 139.16 669.44 124.59 679.79 M 146.5 680.15 132.08 690.06 M 146.78 680.72 130.77 692.49 M 154.12 691.42 137.68 703.04 M 154.83 692.15 136.94 705.19 M 162.17 702.85 144.43 715.46 M 162.73 704 143.84 717.17 M 170.22 714.28 151.18 727.87 M 170.78 715.43 151.17 729.31 M 178.27 725.7 158.08 739.86 M 178.83 726.86 158.64 741.02 M 186.32 737.13 165.98 751.72 M 186.88 738.28 166.69 752.44 M 194.37 748.55 174.18 762.72 M 194.93 749.71 175.61 762.73 M 202.42 759.98 182.96 773.43 M 202.55 760.99 184.82 773.59 M 210.04 771.26 192.16 784.29 M 210.6 772.41 194.16 784.03 M 218.09 782.68 201.65 794.3 M 218.65 783.84 204.24 793.75 M 226.14 794.11 211.58 804.45 M 226.7 795.26 214.74 803.62 M 234.05 805.96 222.08 814.32 M 234.75 806.69 225.38 813.06 M 242.1 817.39 232.72 823.76 M 242.8 818.11 236.61 822.22 M 248.31 825.78 243.81 831.91 M 386.37 665 386.51 664.57 M 384.8 663.98 386.07 665.86 M 383.66 663.1 385.5 666.14 M 382.25 661.65 385.2 667 M 381.11 660.78 380.96 661.21 M 380.96 661.21 384.63 667.28 M 379.54 659.76 380.67 662.07 M 380.67 662.07 384.33 668.14 M 377.98 658.74 380.09 662.35 M 380.09 662.35 383.61 668.85 M 376.84 657.86 379.8 663.21 M 379.8 663.21 383.46 669.28 M 375.99 657.57 379.22 663.49 M 379.22 663.49 382.74 669.99 M 375.26 658.28 378.93 664.35 M 378.93 664.35 382.59 670.42 M 375.12 658.71 378.35 664.63 M 378.35 664.63 381.87 671.13 M 374.39 659.42 378.06 665.49 M 378.06 665.49 381.72 671.56 M 374.25 659.85 377.33 666.2 M 377.33 666.2 381 672.27 M 373.52 660.56 377.19 666.63 M 377.19 666.63 380.42 672.55 M 373.37 660.99 376.46 667.34 M 376.46 667.34 380.13 673.41 M 372.65 661.7 376.32 667.77 M 376.32 667.77 379.4 674.12 M 372.5 662.13 375.59 668.48 M 375.59 668.48 379.26 674.55 M 371.78 662.84 375.44 668.91 M 375.44 668.91 378.53 675.26 M 371.49 663.7 374.72 669.62 M 374.72 669.62 378.39 675.69 M 370.91 663.98 374.57 670.05 M 374.57 670.05 376.82 674.67 M 370.62 664.84 373.85 670.76 M 373.85 670.76 375.26 673.65 M 370.04 665.12 373.56 671.62 M 373.56 671.62 374.27 672.34 M 369.75 665.98 372.7 671.32 M 369.17 666.26 371.56 670.45 M 368.88 667.12 370 669.43 M 368.3 667.4 368.86 668.56 M 358.08 701.34 358.79 702.07 M 356.95 700.47 358.22 702.35 M 355.53 699.02 357.92 703.21 M 354.39 698.14 357.2 703.92 M 352.83 697.12 353.39 698.28 M 353.39 698.28 357.05 704.35 M 351.69 696.25 353.24 698.71 M 353.24 698.71 356.33 705.06 M 350.13 695.23 352.52 699.42 M 352.52 699.42 356.18 705.49 M 348.99 694.36 352.37 699.85 M 352.37 699.85 355.46 706.2 M 348.41 694.64 351.65 700.56 M 351.65 700.56 355.31 706.63 M 347.84 694.92 351.35 701.42 M 351.35 701.42 354.59 707.34 M 347.54 695.78 350.78 701.7 M 350.78 701.7 354.44 707.77 M 346.97 696.06 350.48 702.56 M 350.48 702.56 353.72 708.48 M 346.67 696.92 349.91 702.84 M 349.91 702.84 353.42 709.34 M 346.1 697.2 349.61 703.7 M 349.61 703.7 352.85 709.62 M 345.8 698.06 349.04 703.98 M 349.04 703.98 352.55 710.48 M 345.08 698.77 348.74 704.84 M 348.74 704.84 351.98 710.76 M 344.5 699.05 348.17 705.12 M 348.17 705.12 351.68 711.62 M 344.21 699.91 347.87 705.98 M 347.87 705.98 351.11 711.9 M 343.63 700.19 347.15 706.69 M 347.15 706.69 350.81 712.76 M 343.34 701.05 347 707.12 M 347 707.12 350.24 713.04 M 342.76 701.33 346.28 707.83 M 346.28 707.83 349.94 713.9 M 342.47 702.19 346.13 708.26 M 346.13 708.26 349.22 714.61 M 341.74 702.9 345.41 708.97 M 345.41 708.97 349.07 715.04 M 341.6 703.33 345.26 709.4 M 345.26 709.4 348.35 715.75 M 340.87 704.04 344.54 710.11 M 344.54 710.11 348.2 716.18 M 340.73 704.47 343.81 710.82 M 343.81 710.82 347.48 716.89 M 340 705.18 343.67 711.25 M 343.67 711.25 347.33 717.32 M 339.86 705.61 342.94 711.96 M 342.94 711.96 346.61 718.03 M 339.13 706.32 342.8 712.39 M 342.8 712.39 346.31 718.89 M 338.99 706.75 342.07 713.1 M 342.07 713.1 345.74 719.17 M 338.26 707.46 341.93 713.53 M 341.93 713.53 345.44 720.03 M 337.97 708.32 341.2 714.24 M 341.2 714.24 344.87 720.31 M 337.39 708.6 341.06 714.67 M 341.06 714.67 344.14 721.02 M 337.1 709.46 340.33 715.38 M 340.33 715.38 344 721.45 M 336.52 709.74 340.04 716.24 M 340.04 716.24 343.27 722.16 M 336.23 710.6 339.46 716.52 M 339.46 716.52 342.14 721.29 M 335.65 710.88 339.17 717.38 M 339.17 717.38 341 720.42 M 335.36 711.74 338.59 717.66 M 338.59 717.66 339.43 719.4 M 334.78 712.03 338.3 718.52 M 334.49 712.88 336.73 717.5 M 333.76 713.6 335.74 716.2 M 333.62 714.02 334.18 715.18 M 244.31 854.18 244.46 853.75 M 242.75 853.16 244.02 855.04 M 241.61 852.29 243.44 855.32 M 240.04 851.26 243.15 856.18 M 239.05 849.96 239.33 850.54 M 239.33 850.54 242.57 856.46 M 237.49 848.94 238.61 851.25 M 238.61 851.25 242.28 857.32 M 236.35 848.07 238.46 851.68 M 238.46 851.68 241.7 857.6 M 234.79 847.05 237.74 852.39 M 237.74 852.39 241.41 858.46 M 233.93 846.75 237.59 852.82 M 237.59 852.82 240.68 859.17 M 233.21 847.46 236.87 853.53 M 236.87 853.53 240.53 859.6 M 233.06 847.89 236.72 853.96 M 236.72 853.96 239.81 860.31 M 232.34 848.6 236 854.67 M 236 854.67 239.66 860.74 M 232.19 849.03 235.71 855.53 M 235.71 855.53 238.94 861.45 M 231.47 849.74 235.13 855.81 M 235.13 855.81 238.79 861.88 M 231.32 850.17 234.84 856.67 M 234.84 856.67 238.07 862.59 M 230.6 850.88 234.26 856.95 M 234.26 856.95 237.78 863.45 M 230.45 851.31 233.54 857.66 M 233.54 857.66 237.2 863.73 M 229.73 852.02 233.39 858.09 M 233.39 858.09 236.91 864.59 M 229.43 852.88 232.67 858.8 M 232.67 858.8 236.33 864.87 M 228.86 853.16 232.52 859.23 M 232.52 859.23 235.75 865.15 M 228.56 854.02 231.8 859.94 M 231.8 859.94 234.19 864.13 M 227.99 854.3 231.5 860.8 M 231.5 860.8 233.05 863.26 M 227.69 855.16 230.93 861.08 M 230.93 861.08 231.49 862.24 M 227.11 855.45 230.5 860.94 M 226.82 856.3 228.93 859.92 M 226.24 856.59 227.37 858.89 M 225.95 857.44 226.23 858.02 M 501.61 260.98 503.85 134.47 M 314.62 562.89 315.19 564.04 M 313.62 563.02 316.44 567.36 M 313.19 562.87 316.43 568.79 M 316.43 568.79 317.27 570.53 M 312.62 563.16 315.85 569.08 M 315.85 569.08 318.25 573.27 M 312.04 563.44 314.85 569.21 M 314.85 569.21 318.08 575.13 M 311.04 563.57 314.27 569.49 M 314.27 569.49 317.66 574.98 M 310.46 563.85 313.7 569.77 M 313.7 569.77 317.08 575.26 M 309.89 564.13 313.12 570.05 M 313.12 570.05 316.5 575.55 M 309.31 564.42 312.12 570.19 M 312.12 570.19 315.5 575.68 M 308.31 564.55 311.69 570.04 M 311.69 570.04 314.93 575.96 M 307.73 564.83 311.11 570.32 M 311.11 570.32 314.35 576.24 M 307.16 565.11 310.54 570.6 M 310.54 570.6 313.77 576.52 M 306.73 564.96 309.96 570.89 M 309.96 570.89 312.77 576.66 M 305.72 565.1 308.96 571.02 M 308.96 571.02 312.19 576.94 M 305.15 565.38 308.38 571.3 M 308.38 571.3 311.62 577.22 M 304.57 565.66 307.81 571.58 M 307.81 571.58 311.04 577.5 M 304 565.94 307.23 571.86 M 307.23 571.86 310.19 577.21 M 303.42 566.22 306.23 572 M 306.23 572 309.61 577.49 M 302.42 566.36 305.65 572.28 M 305.65 572.28 309.04 577.77 M 302.55 567.37 305.23 572.13 M 305.23 572.13 308.46 578.05 M 303.38 570.53 304.65 572.41 M 304.65 572.41 307.46 578.19 M 304.21 573.7 306.88 578.47 M 305.04 576.87 306.31 578.75 M 270.82 576.1 271.66 577.83 M 269.81 576.23 272.49 581 M 269.24 576.51 272.47 582.44 M 272.47 582.44 273.32 584.17 M 268.66 576.8 271.9 582.72 M 271.9 582.72 274.29 586.91 M 268.09 577.08 271.47 582.57 M 271.47 582.57 274.28 588.34 M 267.08 577.21 270.47 582.7 M 270.47 582.7 273.7 588.62 M 266.51 577.49 269.89 582.98 M 269.89 582.98 273.13 588.9 M 265.93 577.77 269.31 583.27 M 269.31 583.27 272.55 589.19 M 265.5 577.63 268.74 583.55 M 268.74 583.55 271.55 589.32 M 264.93 577.91 267.74 583.68 M 267.74 583.68 270.97 589.6 M 263.92 578.04 267.16 583.96 M 267.16 583.96 270.4 589.88 M 263.35 578.32 266.58 584.24 M 266.58 584.24 269.97 589.74 M 262.77 578.61 266.01 584.53 M 266.01 584.53 268.96 589.87 M 262.2 578.89 265.01 584.66 M 265.01 584.66 268.39 590.15 M 261.19 579.02 264.43 584.94 M 264.43 584.94 267.81 590.43 M 260.62 579.3 264 584.79 M 264 584.79 267.24 590.71 M 260.04 579.58 263.43 585.07 M 263.43 585.07 266.23 590.85 M 259.47 579.87 262.42 585.21 M 262.42 585.21 265.66 591.13 M 258.61 579.57 261.85 585.49 M 261.85 585.49 265.08 591.41 M 258.04 579.85 261.27 585.77 M 261.27 585.77 264.51 591.69 M 257.46 580.13 260.7 586.05 M 260.7 586.05 263.5 591.83 M 256.88 580.41 259.69 586.19 M 259.69 586.19 263.07 591.68 M 255.88 580.55 259.12 586.47 M 259.12 586.47 262.5 591.96 M 255.31 580.83 258.54 586.75 M 258.54 586.75 261.92 592.24 M 254.73 581.11 257.96 587.03 M 257.96 587.03 261.35 592.52 M 254.15 581.39 257.11 586.74 M 257.11 586.74 260.34 592.66 M 253.15 581.53 256.53 587.02 M 256.53 587.02 259.77 592.94 M 252.57 581.81 255.96 587.3 M 255.96 587.3 259.19 593.22 M 252.15 581.66 255.38 587.58 M 255.38 587.58 258.62 593.5 M 251.57 581.94 254.81 587.86 M 254.81 587.86 257.61 593.63 M 250.57 582.08 253.8 588 M 253.8 588 257.04 593.92 M 249.99 582.36 253.23 588.28 M 253.23 588.28 256.46 594.2 M 249.42 582.64 252.65 588.56 M 252.65 588.56 256.03 594.05 M 248.84 582.92 252.08 588.84 M 252.08 588.84 255.03 594.18 M 247.84 583.05 251.07 588.97 M 251.07 588.97 254.45 594.47 M 247.26 583.33 250.64 588.83 M 250.64 588.83 253.88 594.75 M 246.69 583.62 250.07 589.11 M 250.07 589.11 253.3 595.03 M 246.95 585.63 249.49 589.39 M 249.49 589.39 252.3 595.16 M 247.93 588.37 248.49 589.52 M 248.49 589.52 251.72 595.44 M 249.18 591.68 251.15 595.72 M 250.01 594.85 250.57 596.01 M 180.63 617 92.72 644.28 M 88.68 632.32 89.53 634.05 M 87.83 632.03 90.5 636.79 M 87.25 632.31 90.49 638.23 M 90.49 638.23 91.33 639.96 M 86.68 632.59 89.91 638.51 M 89.91 638.51 92.59 643.28 M 86.1 632.87 88.91 638.64 M 88.91 638.64 92.29 644.13 M 85.1 633 88.33 638.92 M 88.33 638.92 91.72 644.42 M 84.52 633.29 87.76 639.21 M 87.76 639.21 91.14 644.7 M 83.95 633.57 87.33 639.06 M 87.33 639.06 90.56 644.98 M 83.37 633.85 86.33 639.19 M 86.33 639.19 89.56 645.11 M 82.37 633.98 85.75 639.47 M 85.75 639.47 88.98 645.39 M 81.79 634.26 85.17 639.76 M 85.17 639.76 88.41 645.68 M 81.36 634.12 84.6 640.04 M 84.6 640.04 87.83 645.96 M 80.79 634.4 84.02 640.32 M 84.02 640.32 86.83 646.09 M 79.78 634.53 83.02 640.45 M 83.02 640.45 86.25 646.37 M 79.21 634.81 82.44 640.73 M 82.44 640.73 85.83 646.22 M 78.63 635.09 81.87 641.02 M 81.87 641.02 85.25 646.51 M 78.06 635.38 81.29 641.3 M 81.29 641.3 84.25 646.64 M 77.48 635.66 80.29 641.43 M 80.29 641.43 83.67 646.92 M 76.48 635.79 79.86 641.28 M 79.86 641.28 83.1 647.2 M 75.9 636.07 79.28 641.56 M 79.28 641.56 82.52 647.48 M 76.32 637.66 78.71 641.85 M 78.71 641.85 81.52 647.62 M 77.14 640.83 77.71 641.98 M 77.71 641.98 80.94 647.9 M 77.97 643.99 80.37 648.18 M 79.23 647.31 79.79 648.46 M 320.04 449.48 320.6 450.63 M 319.18 449.18 320.3 451.49 M 317.89 448.74 320.01 452.35 M 317.04 448.44 319.71 453.21 M 316.18 448.15 319.42 454.07 M 315.33 447.85 319.12 454.93 M 314.04 447.41 318.83 455.79 M 313.18 447.11 317.97 455.49 M 317.97 455.49 318.53 456.65 M 312.33 446.82 317.11 455.2 M 317.11 455.2 318.24 457.51 M 311.47 446.52 315.83 454.75 M 315.83 454.75 317.94 458.36 M 310.19 446.08 314.97 454.46 M 314.97 454.46 317.65 459.22 M 309.33 445.78 314.12 454.16 M 314.12 454.16 317.35 460.08 M 308.48 445.49 313.26 453.87 M 313.26 453.87 317.06 460.94 M 307.75 446.2 311.98 453.42 M 311.98 453.42 316.76 461.8 M 307.46 447.06 311.12 453.13 M 311.12 453.13 315.76 461.93 M 307.16 447.92 310.26 452.83 M 310.26 452.83 314.9 461.64 M 306.87 448.78 309.41 452.53 M 309.41 452.53 314.05 461.34 M 306.57 449.63 308.12 452.09 M 308.12 452.09 312.76 460.9 M 306.28 450.49 307.27 451.8 M 307.27 451.8 311.91 460.6 M 305.98 451.35 306.41 451.5 M 306.41 451.5 311.05 460.31 M 305.69 452.21 310.19 460.01 M 305.39 453.07 308.91 459.57 M 305.1 453.93 308.05 459.27 M 304.8 454.79 307.2 458.98 M 304.51 455.65 306.34 458.68 M 304.21 456.5 305.06 458.24 M 303.92 457.36 304.2 457.94 M 276.79 434.55 277.35 435.7 M 275.51 434.1 277.06 436.56 M 274.65 433.81 276.76 437.42 M 273.79 433.51 276.47 438.28 M 272.94 433.22 276.17 439.14 M 271.65 432.77 275.88 439.99 M 270.8 432.48 275.58 440.85 M 269.94 432.18 274.73 440.56 M 274.73 440.56 275.29 441.71 M 269.08 431.88 273.44 440.11 M 273.44 440.11 274.99 442.57 M 267.8 431.44 272.59 439.82 M 272.59 439.82 274.7 443.43 M 266.94 431.15 271.73 439.52 M 271.73 439.52 274.4 444.29 M 266.09 430.85 270.87 439.23 M 270.87 439.23 274.11 445.15 M 265.23 430.55 269.59 438.78 M 269.59 438.78 273.82 446.01 M 263.95 430.11 268.73 438.49 M 268.73 438.49 273.52 446.87 M 263.09 429.81 267.88 438.19 M 267.88 438.19 272.52 447 M 262.23 429.52 267.02 437.9 M 267.02 437.9 271.66 446.7 M 261.38 429.22 265.74 437.45 M 265.74 437.45 270.38 446.26 M 260.09 428.78 264.88 437.16 M 264.88 437.16 269.52 445.96 M 259.24 428.48 264.02 436.86 M 264.02 436.86 268.66 445.67 M 258.38 428.19 263.17 436.57 M 263.17 436.57 267.81 445.37 M 257.52 427.89 261.88 436.12 M 261.88 436.12 266.52 444.93 M 256.24 427.45 261.03 435.83 M 261.03 435.83 265.67 444.63 M 255.38 427.15 260.17 435.53 M 260.17 435.53 264.81 444.34 M 254.53 426.86 259.31 435.24 M 259.31 435.24 263.95 444.04 M 253.67 426.56 258.03 434.79 M 258.03 434.79 262.67 443.6 M 252.95 427.27 257.17 434.5 M 257.17 434.5 261.81 443.3 M 252.65 428.13 256.32 434.2 M 256.32 434.2 260.96 443.01 M 252.36 428.99 255.46 433.9 M 255.46 433.9 260.1 442.71 M 252.06 429.85 254.18 433.46 M 254.18 433.46 258.82 442.27 M 251.77 430.71 253.32 433.17 M 253.32 433.17 257.96 441.97 M 251.47 431.57 252.46 432.87 M 252.46 432.87 257.1 441.68 M 251.18 432.43 251.61 432.57 M 251.61 432.57 256.25 441.38 M 250.88 433.28 254.96 440.94 M 250.59 434.14 254.11 440.64 M 250.29 435 253.25 440.35 M 250 435.86 252.39 440.05 M 249.71 436.72 251.11 439.61 M 249.41 437.58 250.25 439.31 M 249.12 438.44 249.4 439.01 M 96.54 372.3 97.1 373.45 M 95.68 372 96.81 374.31 M 94.4 371.56 96.51 375.17 M 93.54 371.26 96.22 376.03 M 92.69 370.97 95.92 376.89 M 91.83 370.67 95.63 377.75 M 90.55 370.23 95.33 378.61 M 89.69 369.93 94.33 378.74 M 94.33 378.74 94.89 379.89 M 88.83 369.64 93.47 378.44 M 93.47 378.44 94.59 380.75 M 87.98 369.34 92.62 378.15 M 92.62 378.15 94.3 381.61 M 86.69 368.9 91.33 377.7 M 91.33 377.7 94 382.47 M 85.84 368.6 90.47 377.41 M 90.47 377.41 93.71 383.33 M 84.98 368.31 89.62 377.11 M 89.62 377.11 93.42 384.19 M 83.98 368.44 88.76 376.82 M 88.76 376.82 93.12 385.05 M 83.68 369.3 87.48 376.37 M 87.48 376.37 92.26 384.75 M 83.39 370.16 86.62 376.08 M 86.62 376.08 91.41 384.46 M 83.09 371.02 85.76 375.78 M 85.76 375.78 90.55 384.16 M 82.8 371.87 84.91 375.49 M 84.91 375.49 89.27 383.72 M 82.5 372.73 83.62 375.04 M 83.62 375.04 88.41 383.42 M 82.21 373.59 82.77 374.75 M 82.77 374.75 87.55 383.12 M 81.91 374.45 86.7 382.83 M 81.62 375.31 85.41 382.39 M 81.32 376.17 84.56 382.09 M 81.03 377.03 83.7 381.79 M 80.73 377.89 82.84 381.5 M 80.44 378.75 81.56 381.05 M 80.14 379.6 80.7 380.76 M 388.67 358.38 391.21 362.14 M 384.85 352.74 390.48 362.85 M 383.44 351.29 389.91 363.14 M 382.86 351.58 389.33 363.42 M 382.14 352.29 389.18 363.85 M 381.99 352.72 388.46 364.56 M 381.42 353 387.89 364.84 M 362.12 319.92 364.8 324.68 M 380.84 353.28 387.31 365.12 M 358.31 314.28 364.22 324.96 M 380.26 353.56 386.74 365.4 M 354.5 308.64 363.5 325.68 M 386.16 365.68 385.32 363.95 M 385.32 363.95 379.54 354.27 M 350.54 303.43 362.92 325.96 M 385.44 366.39 381.36 358.74 M 381.36 358.74 378.97 354.55 M 349.97 303.71 362.77 326.39 M 378.39 354.83 384.86 366.68 M 349.39 303.99 362.2 326.67 M 377.81 355.12 384.29 366.96 M 348.67 304.7 361.48 327.38 M 377.09 355.83 384.14 367.39 M 348.09 304.99 360.9 327.66 M 376.94 356.26 383.41 368.1 M 347.52 305.27 360.32 327.94 M 376.37 356.54 382.84 368.38 M 347.37 305.7 358.2 325.77 M 375.79 356.82 382.26 368.66 M 358.2 325.77 359.75 328.22 M 346.79 305.98 354.39 320.13 M 375.22 357.1 381.69 368.94 M 354.39 320.13 359.17 328.51 M 346.07 306.69 350.58 314.49 M 374.49 357.81 381.11 369.22 M 350.58 314.49 358.45 329.22 M 345.49 306.97 346.62 309.28 M 373.92 358.09 377.43 364.59 M 346.62 309.28 357.87 329.5 M 344.92 307.25 357.73 329.93 M 373.34 358.38 373.62 358.95 M 344.34 307.53 357.15 330.21 M 343.62 308.24 356.43 330.92 M 343.04 308.53 355.85 331.2 M 342.9 308.96 355.28 331.48 M 342.32 309.24 354.27 331.62 M 341.75 309.52 350.46 325.98 M 341.02 310.23 347.08 320.49 M 340.45 310.51 343.12 315.28 M 285.93 233.56 245.54 175.43 M 254.23 165.46 255.64 168.35 M 250.28 160.25 255.06 168.63 M 247.59 156.92 254.49 168.91 M 247.44 157.35 254.34 169.34 M 246.86 157.63 253.62 170.05 M 246.29 157.91 253.04 170.33 M 245.71 158.2 252.47 170.61 M 244.99 158.91 251.89 170.89 M 244.42 159.19 251.17 171.61 M 243.84 159.47 250.74 171.46 M 250.74 171.46 250.59 171.89 M 243.26 159.75 246.78 166.25 M 246.78 166.25 250.02 172.17 M 242.54 160.46 242.97 160.61 M 242.97 160.61 249.44 172.45 M 242.39 160.89 249.29 172.88 M 241.82 161.17 248.57 173.59 M 241.24 161.45 247.99 173.87 M 240.67 161.74 247.42 174.15 M 239.94 162.45 246.84 174.44 M 239.37 162.73 246.27 174.72 M 238.79 163.01 245.54 175.43 M 238.22 163.29 242.86 172.1 M 237.49 164 239.04 166.46 M 501.46 261.4 501.61 260.98 M 500.6 261.11 501.45 262.84 M 499.6 261.24 501.43 264.28 M 499.17 261.09 501.42 265.71 M 498.17 261.23 501.4 267.15 M 497.31 260.93 501.54 268.16 M 496.74 261.21 501.52 269.59 M 495.88 260.92 501.51 271.03 M 494.88 261.05 495.3 261.2 M 495.3 261.2 501.5 272.46 M 494.45 260.9 494.86 262.49 M 494.86 262.49 501.48 273.9 M 493.44 261.04 494.85 263.92 M 494.85 263.92 501.04 275.19 M 492.59 260.74 494.83 265.36 M 494.83 265.36 501.17 276.19 M 492.01 261.02 494.97 266.37 M 494.97 266.37 501.16 277.63 M 491.01 261.16 494.95 267.8 M 494.95 267.8 501.14 279.07 M 490.15 260.86 494.94 269.24 M 494.94 269.24 501.13 280.5 M 489.58 261.14 494.93 270.68 M 494.93 270.68 501.12 281.94 M 488.72 260.85 494.91 272.11 M 494.91 272.11 501.1 283.38 M 488.71 262.28 494.9 273.55 M 494.9 273.55 501.23 284.38 M 488.69 263.72 495.03 274.55 M 495.03 274.55 501.22 285.82 M 488.68 265.16 495.02 275.99 M 495.02 275.99 500.93 286.68 M 488.81 266.16 495 277.43 M 495 277.43 499.92 286.81 M 488.8 267.6 494.99 278.86 M 494.99 278.86 499.35 287.09 M 488.36 268.89 494.97 280.3 M 494.97 280.3 498.49 286.8 M 488.34 270.32 494.53 281.59 M 494.53 281.59 497.49 286.93 M 488.33 271.76 494.52 283.02 M 494.52 283.02 497.06 286.78 M 488.31 273.2 494.65 284.03 M 494.65 284.03 496.05 286.92 M 488.45 274.2 494.64 285.47 M 494.64 285.47 495.63 286.77 M 488.43 275.64 494.62 286.9 M 488.42 277.07 493.77 286.61 M 488.4 278.51 493.19 286.89 M 488.39 279.95 492.33 286.59 M 488.38 281.38 491.33 286.73 M 488.51 282.39 490.9 286.58 M 488.5 283.83 489.9 286.71 M 488.48 285.26 488.89 286.85 M 488.04 286.55 488.47 286.7 M 500.17 319.56 500.6 319.71 M 499.74 319.41 500.59 321.14 M 498.74 319.55 500.57 322.58 M 497.88 319.25 500.56 324.02 M 497.31 319.53 500.54 325.45 M 496.45 319.24 500.68 326.46 M 495.45 319.37 500.24 327.75 M 495.02 319.22 500.22 329.18 M 494.02 319.35 500.21 330.62 M 493.01 319.49 494 320.79 M 494 320.79 500.19 332.05 M 492.59 319.34 493.99 322.23 M 493.99 322.23 499.9 332.91 M 491.58 319.47 493.97 323.66 M 493.97 323.66 499.47 332.77 M 490.72 319.18 494.11 324.67 M 494.11 324.67 498.47 332.9 M 490.15 319.46 494.09 326.11 M 494.09 326.11 497.61 332.6 M 489.29 319.16 494.08 327.54 M 494.08 327.54 497.03 332.89 M 488.72 319.45 494.07 328.98 M 494.07 328.98 496.18 332.59 M 487.86 319.15 494.05 330.41 M 494.05 330.41 495.17 332.72 M 487.85 320.59 494.04 331.85 M 494.04 331.85 494.6 333 M 487.41 321.87 493.74 332.71 M 487.39 323.31 492.74 332.84 M 487.52 324.32 492.31 332.69 M 487.51 325.75 491.31 332.83 M 487.5 327.19 490.45 332.53 M 487.48 328.63 489.88 332.81 M 487.47 330.06 489.02 332.52 M 487.45 331.5 488.01 332.65 M 504.08 82.19 504.36 82.77 M 503.23 81.89 504.35 84.2 M 502.65 82.17 504.48 85.21 M 501.79 81.88 504.47 86.64 M 501.22 82.16 504.45 88.08 M 500.36 81.86 504.44 89.52 M 499.36 82 504.43 90.95 M 498.93 81.85 504.41 92.39 M 497.93 81.98 498.21 82.56 M 498.21 82.56 504.54 93.4 M 497.07 81.69 498.34 83.57 M 498.34 83.57 504.53 94.83 M 496.49 81.97 498.33 85 M 498.33 85 504.09 96.12 M 495.64 81.67 497.88 86.29 M 497.88 86.29 503.66 95.97 M 494.63 81.81 497.87 87.73 M 497.87 87.73 502.66 96.11 M 494.06 82.09 497.86 89.16 M 497.86 89.16 501.8 95.81 M 493.2 81.79 497.84 90.6 M 497.84 90.6 501.22 96.09 M 492.2 81.93 497.98 91.61 M 497.98 91.61 500.37 95.8 M 491.77 81.78 497.96 93.04 M 497.96 93.04 499.36 95.93 M 491.76 83.22 497.95 94.48 M 497.95 94.48 498.94 95.78 M 491.74 84.65 497.93 95.92 M 491.73 86.09 496.93 96.05 M 491.71 87.52 496.5 95.9 M 491.7 88.96 495.5 96.04 M 491.69 90.4 494.64 95.74 M 491.82 91.4 494.07 96.02 M 491.38 92.69 493.21 95.73 M 491.36 94.13 492.21 95.86 M 491.35 95.56 491.78 95.71 M 497.32 143.74 656.12 188.97 M 496.01 218.69 623.39 255 M 501.09 284.81 595.77 311.74 M 277.99 210.65 497.04 143.16 M 495.58 218.55 320.92 272.54 M 489.2 284.55 364.38 323.1 M 137.57 393.67 277.99 210.65 M 321.06 272.12 208.79 417.79 M 353.43 329.88 275.51 434.1 M 133.44 624.72 137.57 393.67 M 208.36 417.64 205.11 602.88 M 270.95 445.98 268.65 578.23 M 265.89 815.04 133.29 625.15 M 204.96 603.31 311.02 754.73 M 272.12 589.04 350.78 701.7 M 265.31 815.32 403.26 854.32 M 310.72 755.59 447.39 794.14 M 97.4 372.59 84.12 368.01 M 79.85 380.46 93.12 385.05 M 263.05 448.05 273.08 448.15 M 273.08 448.15 263.05 448.05 M 263.19 449.06 276.08 449.19 M 276.08 449.19 263.19 449.06 M 263.19 449.06 278.36 449.5 M 263.05 448.05 273.08 448.15 M 273.08 448.15 263.23 444.75 M 262.63 461.84 277.81 462.28 M 262.77 462.84 277.08 462.99 M 277.08 462.99 262.77 462.84 M 262.63 461.84 277.81 462.28 M 277.81 462.28 262.63 461.84 M 262.77 462.84 277.08 462.99 M 262.34 476.63 275.08 477.19 M 275.08 477.19 262.34 476.63 M 262.34 476.63 274.66 477.04 M 262.64 475.77 276.96 475.91 M 276.96 475.91 262.64 475.77 M 262.64 475.77 274.95 476.18 M 262.22 489.55 274.96 490.11 M 274.96 490.11 262.22 489.55 M 262.22 489.55 274.96 490.11 M 262.2 490.99 273.66 491.1 M 273.66 491.1 262.2 490.99 M 262.2 490.99 273.66 491.1 M 262.08 503.91 273.53 504.03 M 273.53 504.03 262.08 503.91 M 262.08 503.91 273.53 504.03 M 261.78 504.77 273.66 505.03 M 273.66 505.03 261.78 504.77 M 261.78 504.77 273.66 505.03 M 261.95 516.84 273.4 516.95 M 273.4 516.95 261.95 516.84 M 261.95 516.84 273.4 516.95 M 261.65 517.7 273.54 517.96 M 273.54 517.96 261.65 517.7 M 261.65 517.7 273.54 517.96 M 261.53 530.62 272.98 530.74 M 272.98 530.74 261.53 530.62 M 261.53 530.62 272.98 530.74 M 261.66 531.63 273.97 532.04 M 273.97 532.04 261.66 531.63 M 261.66 531.63 273.97 532.04 M 261.24 545.41 275.41 545.98 M 275.41 545.98 261.24 545.41 M 261.24 545.41 275.41 545.98 M 261.53 544.55 273.99 544.53 M 273.99 544.53 261.53 544.55 M 261.53 544.55 273.99 544.53 M 261.11 558.34 275.43 558.48 M 275.43 558.48 261.11 558.34 M 261.11 558.34 275.43 558.48 M 261.24 559.34 277.85 559.8 M 277.85 559.8 261.24 559.34 M 261.24 559.34 277.85 559.8 M 261.12 572.27 277.72 572.72 M 277.72 572.72 261.12 572.27 M 261.12 572.27 277.72 572.72 M 260.68 573.56 274.99 573.7 M 274.99 573.7 260.68 573.56 M 260.68 573.56 274.99 573.7 M 255.17 579.82 244.97 583.03 M 229.54 273.65 215.47 263.03 M 347.76 324.08 354.26 333.05 M 341.75 323.45 232.15 240.93 M 341.03 324.16 231.86 241.79 M 333.2 334.42 224.03 252.05 M 332.47 335.14 223.3 252.76 M 325.07 345.55 286.54 316.87 M 324.2 346.69 215.17 263.89 M 316.36 356.95 207.34 274.15 M 316.07 357.81 206.47 275.29 M 308.23 368.07 198.64 285.55 M 307.51 368.78 198.34 286.41 M 299.38 379.91 189.78 297.39 M 299.68 379.05 190.51 296.68 M 291.55 390.17 181.95 307.65 M 290.68 391.31 181.66 308.51 M 282.99 401.14 173.82 318.77 M 282.55 402.43 173.1 319.48 M 274.72 412.69 165.27 329.75 M 273.99 413.41 164.82 331.04 M 266.16 423.67 156.99 341.3 M 265.86 424.53 156.27 342.01 M 262.53 428.66 252.25 425.11 M 363.61 314.19 366.38 324.27 M 364.61 314.05 368.77 328.46 M 376.97 310.15 381.12 324.56 M 377.54 309.87 381.58 321.83 M 389.9 305.97 393.79 318.36 M 390.9 305.84 394.09 316.07 M 403.25 301.94 406.45 312.17 M 404.26 301.81 407.32 311.03 M 416.61 297.91 419.67 307.13 M 416.09 292.44 375.85 161.35 M 430.97 293.74 433.61 302.81 M 428.45 288.55 388.21 157.45 M 443.33 289.84 445.96 298.92 M 444.33 289.71 447.1 299.79 M 456.68 285.81 459.45 295.89 M 457.26 285.53 461.3 297.49 M 469.61 281.63 473.65 293.59 M 470.77 281.06 475.2 296.05 M 482.97 277.59 487.55 292.15 M 484.12 277.03 487.32 287.26 M 487.32 287.26 487.28 276.2 M 265.22 592.42 275.41 589.21 M 262.72 598.28 150.97 676.89 M 263.43 599.01 151.1 677.89 M 270.77 609.71 158.44 688.59 M 271.48 610.43 159.15 689.32 M 278.82 621.13 166.49 700.02 M 279.53 621.86 167.2 700.74 M 286.87 632.56 174.54 711.45 M 287.01 633.57 175.25 712.17 M 294.5 643.84 182.59 722.87 M 295.06 644.99 183.3 723.6 M 302.55 655.26 190.64 734.3 M 303.11 656.42 191.35 735.02 M 310.6 666.69 198.69 745.72 M 311.16 667.84 199.4 746.45 M 319.21 679.27 207.02 757.73 M 318.65 678.11 206.32 757 M 326.7 689.54 214.37 768.43 M 327.26 690.69 215.08 769.15 M 334.75 700.97 222.42 779.85 M 335.31 702.12 223.13 780.58 M 338.28 706.03 331.46 714.72 M 396.73 640.76 182.89 925.67 M 488.26 672.32 482.17 1029.02 M 1 665.92 340.99 561.35 M 342.76 464.2 6.13 348.28 M 196.65 94.66 400.98 386.66 M 493.63 358.13 499.72 1.43 M 585.14 389.73 799 104.78"/>
</g>
</svg>