<?xml version="1.0"?>
<svg xmlns="http://www.w3.org/2000/svg" version="1.2" baseProfile="tiny" width="800" height="519" viewBox="0 0 800 519" stroke-linecap="round" stroke-linejoin="round">
<g id="7" fill="none" stroke="black" stroke-width="1">
<path d="M 196.73 463.08 192.53 463.26 M 122.65 65.35 121.35 69.28 M 121.35 69.28 120.68 73.4 M 283.12 1 272.24 3.4 M 67.33 59.52 16.47 279.07 M 70.95 46.95 283.12 1 M 283.12 1 598.3 91.14 M 598.3 91.14 799 239.49 M 799 239.49 722.04 353.39 M 722.04 353.39 477.77 510.38 M 477.77 510.38 194.92 515.62 M 17.19 292.19 182.31 512.01 M 140.45 101.96 144.53 102.79 M 144.53 102.79 148.79 102.97 M 148.79 102.97 152.88 102.59 M 152.88 102.59 156.98 101.52 M 156.98 101.52 160.75 99.84 M 160.75 99.84 164.33 97.6 M 164.33 97.6 167.52 94.89 M 167.52 94.89 170.17 91.69 M 170.17 91.69 172.39 88.19 M 172.39 88.19 173.85 84.3 M 173.85 84.3 174.83 80.27 M 174.83 80.27 175.34 76.11 M 175.34 76.11 175 71.88 M 175 71.88 174.09 67.83 M 174.09 67.83 172.62 63.96 M 172.62 63.96 170.57 60.28 M 170.57 60.28 167.86 57.09 M 167.86 57.09 164.69 54.29 M 164.69 54.29 161.22 51.92 M 161.22 51.92 157.58 50.19 M 157.58 50.19 153.43 49 M 153.43 49 149.25 48.5 M 149.25 48.5 145.06 48.68 M 145.06 48.68 141.04 49.42 M 141.04 49.42 137.05 50.69 M 137.05 50.69 133.36 52.74 M 133.36 52.74 130.05 55.24 M 130.05 55.24 127.13 58.19 M 127.13 58.19 124.59 61.6 M 124.59 61.6 122.65 65.35 M 120.68 73.4 120.7 77.54 M 120.7 77.54 121.24 81.66 M 121.24 81.66 122.52 85.64 M 122.52 85.64 124.36 89.44 M 124.36 89.44 126.66 92.85 M 126.66 92.85 129.57 95.93 M 129.57 95.93 132.83 98.41 M 132.83 98.41 136.55 100.5 M 136.55 100.5 140.45 101.96 M 187.76 516.5 191.84 517.32 M 191.84 517.32 196.1 517.51 M 196.1 517.51 200.19 517.13 M 200.19 517.13 204.29 516.06 M 204.29 516.06 208.06 514.38 M 208.06 514.38 211.64 512.13 M 211.64 512.13 214.83 509.43 M 214.83 509.43 217.48 506.22 M 217.48 506.22 219.7 502.72 M 219.7 502.72 221.32 498.88 M 221.32 498.88 222.35 494.7 M 222.35 494.7 222.65 490.65 M 222.65 490.65 222.31 486.42 M 222.31 486.42 221.4 482.37 M 221.4 482.37 219.93 478.5 M 219.93 478.5 217.88 474.82 M 217.88 474.82 215.17 471.63 M 215.17 471.63 212.16 468.87 M 212.16 468.87 208.7 466.51 M 208.7 466.51 204.89 464.73 M 204.89 464.73 200.9 463.59 M 200.9 463.59 196.73 463.08 M 192.53 463.26 188.36 463.96 M 188.36 463.96 184.36 465.23 M 184.36 465.23 180.67 467.27 M 180.67 467.27 177.36 469.77 M 177.36 469.77 174.44 472.73 M 174.44 472.73 171.9 476.14 M 171.9 476.14 170.17 479.77 M 170.17 479.77 168.82 483.87 M 168.82 483.87 168.15 487.98 M 168.15 487.98 168.01 492.08 M 168.01 492.08 168.71 496.24 M 168.71 496.24 169.83 500.18 M 169.83 500.18 171.67 503.98 M 171.67 503.98 173.97 507.39 M 173.97 507.39 176.89 510.46 M 176.89 510.46 180.15 512.94 M 180.15 512.94 183.86 515.04 M 183.86 515.04 187.76 516.5 M 665.81 252.21 669.89 253.03 M 669.89 253.03 674 253.17 M 674 253.17 678.24 252.84 M 678.24 252.84 682.34 251.77 M 682.34 251.77 686.11 250.09 M 686.11 250.09 689.69 247.84 M 689.69 247.84 692.73 245.09 M 692.73 245.09 695.53 241.94 M 695.53 241.94 697.59 238.39 M 700.2 230.52 700.7 226.36 M 700.7 226.36 700.36 222.13 M 700.36 222.13 699.46 218.08 M 699.46 218.08 697.98 214.21 M 697.98 214.21 695.93 210.53 M 695.93 210.53 693.22 207.34 M 693.22 207.34 690.05 204.54 M 690.05 204.54 686.59 202.17 M 686.59 202.17 682.78 200.39 M 682.78 200.39 678.79 199.25 M 678.79 199.25 674.62 198.75 M 674.62 198.75 670.42 198.93 M 670.42 198.93 666.41 199.67 M 666.41 199.67 662.42 200.94 M 662.42 200.94 658.72 202.99 M 658.72 202.99 655.41 205.48 M 655.41 205.48 652.49 208.44 M 652.49 208.44 649.95 211.85 M 649.95 211.85 648.01 215.6 M 648.01 215.6 646.71 219.53 M 646.71 219.53 646.04 223.65 M 646.04 223.65 646.06 227.79 M 646.06 227.79 646.61 231.9 M 646.61 231.9 647.88 235.89 M 647.88 235.89 649.72 239.69 M 649.72 239.69 652.02 243.1 M 652.02 243.1 654.94 246.17 M 654.94 246.17 658.2 248.66 M 658.2 248.66 661.91 250.75 M 661.91 250.75 665.81 252.21 M 17.19 292.19 16.47 279.07 M 70.95 46.95 66.55 62.23 M 50.2 441.68 20.82 402.1 M 7.11 367.51 1 314.26 M 1 314.26 35.42 235.39 M 35.42 235.39 74.12 183.07 M 74.12 183.07 134.55 236.01 M 134.55 236.01 174.36 290.98 M 190.06 372.12 177.26 434.09 M 177.26 434.09 156.8 463.2 M 156.8 463.2 107.62 476.87 M 107.62 476.87 50.2 441.68 M 20.82 402.1 7.11 367.51 M 174.36 290.98 190.06 372.12 M 700.2 230.52 699.21 234.55 M 697.59 238.39 699.21 234.55 M 195.31 490.24 148 75.7 M 148 75.7 3.19 337.28 M 3.19 337.28 195.31 490.24 M 195.31 490.24 673.36 225.95 M 673.36 225.95 148 75.7"/>
</g>
</svg>