<?xml version="1.0"?>
<svg xmlns="http://www.w3.org/2000/svg" version="1.2" baseProfile="tiny" width="800" height="370" viewBox="0 0 800 370" stroke-linecap="round" stroke-linejoin="round">
<g id="6" fill="none" stroke="black" stroke-width="1">
<path d="M 562.3 117.88 490.11 130.95 M 490.11 130.95 484.37 98.55 M 484.37 98.55 556.57 85.48 M 556.57 85.48 562.3 117.88 M 559.82 116.15 519.69 123.2 M 519.69 123.2 514.71 95.01 M 514.71 95.01 554.83 87.95 M 554.83 87.95 559.82 116.15 M 748.89 1.09 799 284.37 M 799 284.37 317.49 369 M 317.2 367.36 267.61 87.01 M 267.75 85.66 747.24 1.38 M 748.89 1.09 748.87 1 M 357.49 110.18 357.56 110.08 M 358.05 113.39 360.77 109.51 M 358.62 116.59 364.08 108.93 M 360.19 118.49 366.29 109.67 M 363.4 117.92 366.88 112.97 M 366.61 117.36 367.44 116.17 M 367.62 117.18 358.99 118.7 M 358.99 118.7 357.47 110.09 M 357.47 110.09 366.1 108.58 M 366.1 108.58 367.62 117.18 M 489.06 87.06 489.14 86.95 M 489.63 90.26 492.35 86.38 M 490.2 93.46 495.66 85.8 M 491.76 95.36 497.87 86.55 M 494.98 94.79 498.46 89.84 M 498.19 94.23 499.02 93.05 M 499.2 94.05 490.57 95.57 M 490.57 95.57 489.05 86.97 M 489.05 86.97 497.68 85.45 M 497.68 85.45 499.2 94.05 M 554.81 75.5 554.88 75.39 M 555.38 78.71 558.19 74.81 M 555.94 81.91 561.4 74.25 M 557.51 83.8 563.71 74.98 M 560.72 83.24 564.29 78.27 M 564.03 82.66 564.86 81.47 M 565.04 82.48 556.31 84.01 M 556.31 84.01 554.79 75.41 M 554.79 75.41 563.52 73.88 M 563.52 73.88 565.04 82.48 M 686.39 52.38 686.46 52.27 M 686.95 55.58 689.77 51.69 M 687.52 58.78 692.98 51.12 M 689.09 60.68 695.29 51.85 M 692.3 60.11 695.87 55.14 M 695.61 59.53 696.44 58.35 M 696.62 59.35 687.89 60.89 M 687.89 60.89 686.37 52.28 M 686.37 52.28 695.09 50.75 M 695.09 50.75 696.62 59.35 M 703.78 150.68 703.85 150.57 M 704.36 153.97 707.16 149.99 M 704.93 157.17 710.37 149.42 M 706.49 159.07 712.69 150.24 M 709.71 158.51 713.26 153.44 M 713.01 157.92 713.84 156.74 M 714.02 157.75 705.3 159.28 M 705.3 159.28 703.76 150.58 M 703.76 150.58 712.48 149.05 M 712.48 149.05 714.02 157.75 M 572.2 173.8 572.27 173.7 M 572.78 177.1 575.58 173.11 M 573.35 180.3 578.79 172.55 M 574.91 182.2 581.11 173.37 M 578.13 181.63 581.68 176.57 M 581.43 181.05 582.26 179.87 M 582.44 180.87 573.72 182.41 M 573.72 182.41 572.18 173.71 M 572.18 173.71 580.9 172.18 M 580.9 172.18 582.44 180.87 M 589.6 272.2 589.68 272.09 M 590.17 275.4 592.98 271.51 M 590.75 278.69 596.2 270.94 M 592.3 280.5 598.52 271.76 M 595.51 279.93 599.09 274.96 M 598.82 279.35 599.65 278.17 M 599.83 279.17 591.11 280.71 M 591.11 280.71 589.59 272.1 M 589.59 272.1 598.31 270.57 M 598.31 270.57 599.83 279.17 M 523.86 283.75 523.93 283.64 M 524.42 286.95 527.15 283.08 M 525.01 290.25 530.45 282.5 M 526.56 292.05 532.68 283.33 M 529.77 291.49 533.25 286.54 M 532.98 290.92 533.82 289.74 M 533.99 290.75 525.36 292.26 M 525.36 292.26 523.84 283.66 M 523.84 283.66 532.47 282.14 M 532.47 282.14 533.99 290.75 M 369.08 175.72 369.15 175.61 M 369.66 179.01 372.37 175.05 M 370.23 182.22 375.67 174.47 M 371.79 184.11 377.9 175.3 M 375.01 183.55 378.47 178.5 M 378.22 182.98 379.04 181.71 M 379.23 182.81 370.6 184.32 M 370.6 184.32 369.06 175.63 M 369.06 175.63 377.69 174.11 M 377.69 174.11 379.23 182.81 M 370.6 184.32 357.47 110.09 M 357.47 110.09 497.68 85.45 M 620.63 63.84 695.09 50.75 M 695.09 50.75 703.89 100.45 M 706 100.08 696.82 48.18 M 696.82 48.18 622.35 61.27 M 495.18 83.62 354.88 108.28 M 354.88 108.28 368.01 182.51 M 366.54 182.77 353.13 106.99 M 353.13 106.99 494.9 82.07 M 622.08 59.72 698.1 46.35 M 698.1 46.35 707.56 99.8 M 494.47 79.6 350.12 104.97 M 350.12 104.97 363.97 183.22 M 621.64 57.24 700.15 43.45 M 700.15 43.45 710.04 99.37 M 364.36 185.42 366.17 182.84 M 367.66 184.84 369.38 182.27 M 370.6 184.32 364.08 185.47 M 364.08 185.47 363.69 183.27 M 363.69 183.27 370.21 182.13 M 370.21 182.13 370.6 184.32 M 525.36 292.26 599.83 279.17 M 527.86 294.09 602.33 281 M 528.14 295.64 604.17 282.28 M 528.58 298.12 607.08 284.32 M 525.9 295.28 527.62 292.72 M 526.46 298.49 528.19 295.92 M 528.63 298.39 526.51 298.76 M 526.51 298.76 525.36 292.26 M 525.36 292.26 527.48 291.89 M 527.48 291.89 528.63 298.39 M 385.54 327.13 457.16 314.54 M 457.16 314.54 457.61 317.1 M 457.61 317.1 383.42 330.14 M 383.42 330.14 382.97 327.58 M 382.97 327.58 384.44 327.32 M 529.16 301.41 454.97 314.45 M 454.97 314.45 454.51 311.89 M 454.51 311.89 528.71 298.85 M 528.71 298.85 529.16 301.41 M 454.94 307.85 457.46 322.13 M 598.7 272.77 599.83 279.17 M 601.25 274.87 602.33 281 M 602.43 272.49 604.17 282.28 M 604.91 272.05 607.08 284.32 M 385.54 327.13 372.69 254.45 M 372.69 254.45 370.11 254.9 M 370.11 254.9 382.97 327.58 M 382.97 327.58 384.44 327.32 M 379.77 254.34 366.91 256.6 M 376.09 256.03 373.52 256.48 M 373.52 256.48 360.66 183.8 M 360.66 183.8 363.23 183.35 M 363.23 183.35 376.09 256.03 M 364.36 185.42 366.17 182.84 M 367.66 184.84 369.38 182.27 M 370.6 184.32 364.08 185.47 M 364.08 185.47 363.69 183.27 M 363.69 183.27 370.21 182.13 M 370.21 182.13 370.6 184.32 M 384.44 327.32 384.5 327.69 M 384.5 327.69 385.61 327.49 M 385.61 327.49 385.54 327.13 M 337.95 332.66 299.08 112.9 M 329.23 334.19 328.87 332.18 M 328.58 330.53 328.29 328.88 M 328 327.24 327.72 325.68 M 327.43 324.03 327.14 322.39 M 326.86 320.83 326.57 319.18 M 326.28 317.53 325.99 315.89 M 325.71 314.33 325.42 312.68 M 325.13 311.04 324.86 309.48 M 324.57 307.83 324.27 306.19 M 323.98 304.54 323.71 302.98 M 323.42 301.33 323.12 299.69 M 322.85 298.13 322.56 296.48 M 322.27 294.84 321.97 293.19 M 321.7 291.63 321.41 289.98 M 321.12 288.34 320.84 286.78 M 320.55 285.13 320.26 283.49 M 319.97 281.84 319.69 280.28 M 319.4 278.64 319.11 276.99 M 318.83 275.43 318.54 273.78 M 318.25 272.14 317.96 270.49 M 317.68 268.93 317.39 267.29 M 317.1 265.64 316.83 264.08 M 316.53 262.43 316.24 260.79 M 315.95 259.14 315.68 257.58 M 315.39 255.94 315.09 254.29 M 314.82 252.73 314.53 251.09 M 314.24 249.44 313.94 247.79 M 313.67 246.23 313.38 244.59 M 313.09 242.94 312.81 241.38 M 312.52 239.74 312.23 238.09 M 311.94 236.44 311.66 234.88 M 311.37 233.24 311.08 231.59 M 310.8 230.03 310.51 228.39 M 310.22 226.74 309.93 225.09 M 309.65 223.54 309.36 221.89 M 309.07 220.24 308.8 218.68 M 308.5 217.04 308.21 215.39 M 307.92 213.74 307.65 212.19 M 307.35 210.54 307.06 208.89 M 306.79 207.33 306.5 205.69 M 306.21 204.04 305.91 202.39 M 305.64 200.84 305.35 199.19 M 305.06 197.54 304.78 195.99 M 304.49 194.34 304.2 192.69 M 303.91 191.04 303.63 189.49 M 303.34 187.84 303.05 186.19 M 302.77 184.64 302.48 182.99 M 302.19 181.34 301.9 179.69 M 301.62 178.14 301.33 176.49 M 301.04 174.84 300.77 173.29 M 300.47 171.64 300.18 169.99 M 299.89 168.34 299.62 166.79 M 299.32 165.14 299.03 163.49 M 298.76 161.94 298.47 160.29 M 298.17 158.64 297.88 156.99 M 297.61 155.44 297.32 153.79 M 297.03 152.14 296.75 150.59 M 296.46 148.94 296.17 147.29 M 295.88 145.64 295.6 144.09 M 295.31 142.44 295.02 140.79 M 294.74 139.24 294.45 137.59 M 294.16 135.94 293.87 134.3 M 293.59 132.74 293.3 131.09 M 293.01 129.44 292.73 127.89 M 292.44 126.24 292.15 124.59 M 291.86 122.95 291.59 121.39 M 291.29 119.74 291 118.09 M 290.73 116.54 290.35 114.43 M 582.44 180.87 714.02 157.75 M 579.51 183.56 716.51 159.48 M 589.24 183.45 718.34 160.76 M 589.68 185.92 721.26 162.8 M 721.26 162.8 719.02 150.17 M 716.54 150.6 718.34 160.76 M 714.98 150.88 716.51 159.48 M 712.87 151.25 714.02 157.75 M 709.56 57.08 725.82 148.97 M 261.79 266.58 25.35 308.14 M 25.35 308.14 1 170.48 M 1 170.48 237.44 128.93 M 237.44 128.93 261.79 266.58 M 721.18 249.07 721.26 248.96 M 721.75 252.27 724.56 248.38 M 722.33 255.57 727.78 247.82 M 723.88 257.37 730.1 248.63 M 727.09 256.81 730.66 251.84 M 730.4 256.23 731.23 255.04 M 731.41 256.05 722.69 257.58 M 722.69 257.58 721.16 248.98 M 721.16 248.98 729.89 247.44 M 729.89 247.44 731.41 256.05 M 580.9 172.18 703.76 150.58 M 694.03 95.58 694.1 95.47 M 694.6 98.78 697.41 94.89 M 695.18 102.07 700.62 94.32 M 696.73 103.88 702.95 95.14 M 699.94 103.31 703.51 98.34 M 703.25 102.73 704.08 101.55 M 704.26 102.56 695.54 104.09 M 695.54 104.09 694.01 95.48 M 694.01 95.48 702.74 93.95 M 702.74 93.95 704.26 102.56 M 377.69 174.11 367.62 117.18 M 367.62 117.18 490.57 95.57 M 499.2 94.05 556.31 84.01 M 565.04 82.48 687.89 60.89 M 687.89 60.89 694.01 95.48 M 554.77 71.54 496.37 81.81 M 496 79.7 554.4 69.44 M 554.4 69.44 551.84 54.98 M 497.16 82.52 495.42 85 M 496.05 79.98 494.86 81.79 M 496.39 81.9 495.89 79.06 M 495.89 79.06 494.42 79.32 M 494.42 79.32 495.57 85.82 M 495.57 85.82 497.68 85.45 M 497.68 85.45 497.03 81.79 M 497.03 81.79 496.39 81.9 M 496 79.7 493.44 65.24 M 493.44 65.24 551.84 54.98 M 562.21 70.24 620.61 59.97 M 620.23 57.87 561.84 68.13 M 561.84 68.13 559.28 53.67 M 620.28 58.14 622.03 59.44 M 620.11 60.91 622.59 62.64 M 620.62 60.06 620.12 57.23 M 620.12 57.23 621.59 56.97 M 621.59 56.97 622.74 63.47 M 622.74 63.47 620.63 63.84 M 620.63 63.84 619.98 60.18 M 619.98 60.18 620.62 60.06 M 620.23 57.87 617.68 43.41 M 617.68 43.41 559.28 53.67 M 554.58 70.45 556.03 68.49 M 554.63 74.5 559.24 67.93 M 557.18 74.99 561.87 68.32 M 560.39 74.43 562.96 70.77 M 554.29 68.8 554.79 71.64 M 554.79 71.64 554.14 71.75 M 554.14 71.75 554.79 75.41 M 554.79 75.41 563.52 73.88 M 563.52 73.88 562.87 70.22 M 562.87 70.22 562.22 70.33 M 562.22 70.33 561.72 67.49 M 561.72 67.49 554.29 68.8 M 340.46 110.82 350.84 108.99 M 523.84 283.66 401.44 305.17 M 525.36 292.26 402.97 313.78 M 379.23 182.81 400.8 304.72 M 370.6 184.32 392.17 306.24 M 459.3 308.41 422.2 98.72 M 470.13 306.5 433.04 96.81 M 470.13 306.5 468.75 306.74 M 467.1 307.03 465.45 307.32 M 463.89 307.6 462.23 307.89 M 460.58 308.18 459.3 308.41 M 572.18 173.71 556.31 84.01 M 580.9 172.18 565.04 82.48 M 635.04 61.31 638.86 82.91 M 419.85 109.51 468.98 100.88 M 468.98 100.88 474.71 133.28 M 474.71 133.28 425.58 141.91 M 425.58 141.91 419.85 109.51 M 369.99 118.27 419.12 109.64 M 419.12 109.64 424.85 142.04 M 424.85 142.04 375.72 150.67 M 375.72 150.67 369.99 118.27 M 493.44 65.24 506.22 68.94 M 508.52 69.67 510.12 70.14 M 512.52 70.86 525.2 74.57 M 525.2 74.57 535.93 66.74 M 537.85 65.27 539.19 64.28 M 541.2 62.79 551.84 54.98 M 559.28 53.67 571.96 57.39 M 574.36 58.1 575.96 58.57 M 578.26 59.3 591.04 63 M 591.04 63 601.68 55.18 M 603.69 53.7 605.03 52.71 M 607.03 51.22 617.68 43.41 M 287.32 122.42 357.47 110.09 M 288.84 131.03 358.99 118.7 M 288.84 131.03 288.5 129.1 M 288.23 127.55 287.93 125.9 M 287.64 124.25 287.32 122.42 M 323.63 327.72 323.31 325.89 M 323.02 324.24 322.73 322.6 M 322.45 321.04 322.11 319.12 M 323.63 327.72 393.78 315.39 M 322.11 319.12 392.26 306.79 M 636.76 71.01 642.56 103.77 M 557.44 86.08 636.95 72.11 M 558.25 90.66 637.76 76.68 M 559.06 95.23 638.57 81.26 M 559.87 99.81 639.38 85.83 M 560.68 104.39 640.19 90.41 M 561.48 108.96 641 94.99 M 562.29 113.54 641.81 99.56 M 642.56 103.77 563.04 117.75 M 563.04 117.75 557.24 84.98 M 557.24 84.98 636.76 71.01 M 636.76 71.01 642.56 103.77 M 637.41 72.02 688.01 63.13 M 638.22 76.6 688.82 67.71 M 639.03 81.18 689.63 72.29 M 639.84 85.75 690.43 76.86 M 640.65 90.33 691.24 81.44 M 641.46 94.91 692.05 86.01 M 642.27 99.48 692.86 90.59 M 693.61 94.8 643.01 103.69 M 643.01 103.69 637.28 71.29 M 637.28 71.29 687.88 62.4 M 687.88 62.4 693.61 94.8 M 340.46 110.82 380.11 334.97 M 380.11 334.97 748.04 270.3 M 27.33 234.75 28.91 232.49 M 27.91 238.04 33.13 230.61 M 28.48 241.25 35.89 230.7 M 29.04 244.45 38.19 231.42 M 30.53 246.45 39.76 233.32 M 32.84 247.18 40.33 236.52 M 35.69 247.25 40.91 239.82 M 39.81 245.39 41.48 243.02 M 29.24 245.55 27.26 234.38 M 25.26 254.65 24.65 251.17 M 41.54 243.39 39.57 232.22 M 43.56 223.21 48.4 250.58 M 48.4 250.58 25.26 254.65 M 27.31 226.07 43.56 223.21 M 29.33 245.53 30.28 246.12 M 30.28 246.12 31.33 246.69 M 31.33 246.69 32.42 246.97 M 32.42 246.97 33.51 247.25 M 33.51 247.25 34.74 247.22 M 34.74 247.22 35.86 247.12 M 35.86 247.12 36.94 246.84 M 36.94 246.84 38.11 246.44 M 38.11 246.44 39.03 245.81 M 39.03 245.81 39.96 245.17 M 39.96 245.17 40.75 244.28 M 40.75 244.28 41.45 243.4 M 39.47 232.24 38.52 231.65 M 38.52 231.65 37.47 231.08 M 37.47 231.08 36.38 230.8 M 36.38 230.8 35.29 230.52 M 35.29 230.52 34.06 230.54 M 34.06 230.54 32.94 230.65 M 32.94 230.65 31.86 230.93 M 31.86 230.93 30.7 231.32 M 30.7 231.32 29.77 231.96 M 29.77 231.96 28.84 232.6 M 28.84 232.6 28.05 233.49 M 28.05 233.49 27.35 234.37 M 27.31 226.07 43.56 223.21 M 43.56 223.21 48.4 250.58 M 48.4 250.58 25.26 254.65 M 25.26 254.65 24.65 251.17 M 21.06 190.74 28.22 189.48 M 28.22 189.48 24.14 166.42 M 24.14 166.42 1 170.48 M 1 170.48 5.08 193.55 M 5.08 193.55 12.33 192.27 M 710.78 101.41 704.26 102.56 M 704.26 102.56 703.89 100.45 M 703.89 100.45 710.4 99.3 M 710.4 99.3 710.78 101.41 M 709.58 99.45 707.75 101.94 M 706.36 100.01 704.53 102.51 M 710.78 101.41 704.26 102.56 M 704.26 102.56 703.89 100.45 M 703.89 100.45 710.4 99.3 M 710.4 99.3 710.78 101.41 M 718.18 148.05 716.36 150.63 M 714.96 148.62 713.15 151.2 M 719.39 150.1 712.87 151.25 M 712.87 151.25 712.48 149.05 M 712.48 149.05 719 147.91 M 719 147.91 719.39 150.1 M 722.42 149.57 719.76 150.04 M 719.76 150.04 710.77 99.24 M 710.77 99.24 713.43 98.77 M 713.43 98.77 722.42 149.57 M 701.25 49.67 708.78 48.35 M 647.64 262.56 635.09 191.63 M 469.73 207.38 491.4 203.58 M 491.4 203.58 487.57 181.88 M 487.57 181.88 465.9 185.69 M 465.9 185.69 469.73 207.38 M 469.73 207.38 491.4 203.58 M 491.4 203.58 487.57 181.88 M 487.57 181.88 465.9 185.69 M 465.9 185.69 469.73 207.38 M 471.22 205.61 467.9 186.85 M 473.51 205.21 470.2 186.45 M 475.81 204.81 472.49 186.04 M 478.11 204.4 474.79 185.64 M 480.4 204 477.08 185.24 M 482.7 203.6 479.38 184.83 M 484.99 203.19 481.67 184.43 M 487.29 202.79 483.97 184.03 M 489.58 202.39 486.26 183.62 M 489.58 201.82 470.75 205.13 M 489.17 199.53 470.35 202.84 M 488.77 197.24 469.95 200.55 M 488.36 194.96 469.54 198.26 M 487.96 192.67 469.14 195.98 M 487.55 190.38 468.73 193.69 M 487.15 188.09 468.33 191.4 M 486.74 185.8 467.92 189.11 M 489.68 202.37 470.85 205.68 M 470.85 205.68 467.53 186.91 M 467.53 186.91 486.36 183.61 M 486.36 183.61 489.68 202.37 M 123.08 234.43 144.75 230.62 M 144.75 230.62 140.93 209.02 M 140.93 209.02 119.26 212.83 M 119.26 212.83 123.08 234.43 M 123.08 234.43 144.75 230.62 M 144.75 230.62 140.93 209.02 M 140.93 209.02 119.26 212.83 M 119.26 212.83 123.08 234.43 M 124.58 232.75 121.27 213.99 M 126.88 232.35 123.56 213.59 M 129.18 231.95 125.86 213.18 M 131.47 231.54 128.15 212.78 M 133.77 231.14 130.45 212.38 M 136.06 230.74 132.74 211.97 M 138.36 230.33 135.04 211.57 M 140.65 229.93 137.33 211.17 M 142.95 229.53 139.63 210.76 M 142.94 228.96 124.12 232.27 M 142.54 226.67 123.72 229.98 M 142.13 224.38 123.31 227.69 M 141.73 222.1 122.91 225.4 M 141.32 219.81 122.5 223.12 M 140.92 217.52 122.1 220.83 M 140.51 215.23 121.69 218.54 M 140.11 212.94 121.29 216.25 M 143.04 229.51 124.22 232.82 M 124.22 232.82 120.9 214.06 M 120.9 214.06 139.72 210.75 M 139.72 210.75 143.04 229.51 M 290.35 114.43 292.28 114.09 M 293.94 113.8 295.59 113.51 M 297.15 113.24 299.08 112.9 M 329.23 334.19 331.16 333.85 M 332.81 333.56 334.46 333.27 M 336.02 333 337.95 332.66 M 360.53 185.72 347.72 113.32 M 347.72 113.32 347.54 113.35 M 347.08 113.43 345.98 113.62 M 345.42 113.72 345.15 113.77 M 345.15 113.77 357.91 185.89 M 358.32 186.1 359.42 185.91 M 359.42 185.91 359.49 186.28 M 359.49 186.28 359.77 186.23 M 360.32 186.13 360.59 186.08 M 360.59 186.08 360.53 185.72 M 363.62 185.55 350.81 113.15 M 350.66 112.8 349.56 112.99 M 349.01 113.09 348.18 113.24 M 348.18 113.24 361.05 186 M 361.05 186 361.51 185.92 M 362.06 185.82 363.07 185.65 M 529.7 301.79 600.86 289.28 M 601.34 289.29 601.53 290.39 M 601.61 290.85 601.77 291.76 M 601.77 291.76 527.58 304.8 M 527.58 304.8 527.45 304.07 M 527.36 303.52 527.18 302.51 M 527.4 302.19 528.6 301.98 M 529.17 298.77 600.33 286.26 M 600.8 286.27 600.98 287.28 M 601.08 287.83 601.24 288.74 M 601.24 288.74 527.05 301.78 M 527.05 301.78 526.92 301.05 M 526.82 300.5 526.64 299.49 M 526.87 299.17 528.06 298.96 M 392.28 306.88 392.35 306.77 M 392.85 310.08 395.57 306.21 M 393.43 313.38 398.87 305.62 M 394.98 315.18 401.1 306.46 M 398.19 314.62 401.67 309.66 M 401.41 314.05 402.24 312.87 M 402.42 313.87 393.78 315.39 M 393.78 315.39 392.26 306.79 M 392.26 306.79 400.89 305.27 M 400.89 305.27 402.42 313.87 M 711.14 101.34 702.74 53.84 M 702.74 53.84 703.2 53.76 M 703.75 53.66 704.85 53.47 M 705.4 53.37 705.6 54.47 M 705.7 55.02 705.87 56.03 M 705.97 56.58 706.17 57.68 M 706.26 58.22 706.46 59.32 M 706.55 59.87 706.73 60.88 M 706.83 61.43 707.02 62.53 M 707.12 63.08 707.31 64.17 M 707.41 64.72 707.59 65.73 M 707.69 66.28 707.88 67.38 M 707.98 67.93 708.17 69.02 M 708.27 69.57 708.45 70.58 M 708.55 71.13 708.74 72.23 M 708.84 72.78 709.03 73.88 M 709.13 74.43 709.31 75.43 M 709.4 75.98 709.6 77.08 M 709.7 77.63 709.89 78.73 M 709.99 79.28 710.16 80.28 M 710.26 80.83 710.46 81.93 M 710.55 82.48 710.75 83.58 M 710.84 84.13 711.04 85.23 M 711.12 85.68 711.31 86.78 M 711.41 87.33 711.61 88.43 M 711.7 88.98 711.9 90.08 M 711.98 90.53 712.17 91.63 M 712.27 92.18 712.46 93.28 M 712.56 93.83 712.75 94.93 M 712.84 95.39 713.03 96.48 M 713.13 97.03 713.32 98.13 M 713.42 98.68 713.61 99.78 M 713.69 100.24 713.81 100.88 M 713.81 100.88 713.35 100.96 M 712.8 101.05 711.7 101.25 M 696.62 59.35 709.56 57.08 M 719.39 150.1 720.13 149.97 M 721.78 149.68 723.43 149.39 M 725.08 149.1 725.82 148.97 M 430.15 106.19 429.81 104.27 M 429.54 102.71 429.25 101.06 M 428.95 99.42 428.63 97.59 M 428.63 97.59 426.52 97.96 M 426.52 97.96 426.84 99.79 M 427.13 101.43 427.43 103.08 M 427.7 104.64 428.04 106.56 M 428.04 106.56 430.15 106.19 M 627.57 71.49 627.23 69.57 M 626.95 68.01 626.66 66.36 M 626.37 64.72 626.04 62.89 M 626.04 62.89 623.84 63.27 M 623.84 63.27 624.17 65.1 M 624.46 66.75 624.75 68.4 M 625.02 69.96 625.36 71.88 M 625.36 71.88 627.57 71.49 M 748.04 270.3 708.78 48.35 M 23.22 249.53 12.43 199.24 M 19.43 182.06 19.19 181.25 M 19.19 181.25 18.77 180.48 M 18.77 180.48 18.27 179.81 M 18.27 179.81 17.61 179.27 M 17.61 179.27 16.87 178.83 M 16.87 178.83 16.07 178.59 M 16.07 178.59 15.19 178.46 M 15.19 178.46 14.35 178.52 M 14.35 178.52 13.54 178.75 M 13.54 178.75 12.76 179.17 M 12.76 179.17 12.09 179.67 M 12.09 179.67 11.55 180.33 M 11.55 180.33 11.11 181.07 M 11.11 181.07 10.87 181.87 M 10.87 181.87 10.74 182.74 M 10.74 182.74 10.8 183.58 M 23.22 249.53 23.72 250.2 M 23.72 250.2 24.2 250.78 M 24.2 250.78 24.94 251.21 M 24.94 251.21 25.64 251.47 M 25.64 251.47 26.43 251.61 M 26.43 251.61 27.27 251.56 M 27.27 251.56 28.08 251.32 M 28.08 251.32 28.77 250.92 M 28.77 250.92 29.34 250.44 M 29.34 250.44 29.89 249.78 M 29.89 249.78 30.14 249.07 M 30.14 249.07 30.38 248.27 M 27.87 233.52 30.12 246.24 M 42.67 237.43 42.35 236.17 M 42.35 236.17 41.84 234.93 M 41.84 234.93 41.08 233.84 M 41.08 233.84 40.25 232.86 M 40.25 232.86 39.24 231.99 M 39.24 231.99 38.09 231.35 M 38.09 231.35 36.87 230.9 M 36.87 230.9 35.58 230.56 M 35.58 230.56 34.25 230.51 M 34.25 230.51 32.94 230.65 M 32.94 230.65 31.68 230.96 M 31.68 230.96 30.44 231.46 M 30.44 231.46 29.34 232.22 M 29.34 232.22 28.35 233.06 M 28.35 233.06 27.49 234.06 M 27.49 234.06 26.84 235.21 M 26.84 235.21 26.39 236.42 M 26.39 236.42 26.05 237.71 M 26.05 237.71 26 239.04 M 26 239.04 26.14 240.34 M 26.14 240.34 26.46 241.6 M 26.46 241.6 26.96 242.83 M 26.96 242.83 27.72 243.93 M 27.72 243.93 28.56 244.91 M 28.56 244.91 29.56 245.77 M 29.56 245.77 30.72 246.42 M 30.72 246.42 31.93 246.87 M 31.93 246.87 33.22 247.21 M 33.22 247.21 34.56 247.26 M 34.56 247.26 35.86 247.12 M 35.86 247.12 37.13 246.8 M 37.13 246.8 38.36 246.3 M 38.36 246.3 39.46 245.54 M 39.46 245.54 40.45 244.71 M 40.45 244.71 41.31 243.71 M 41.31 243.71 41.96 242.56 M 41.96 242.56 42.41 241.35 M 42.41 241.35 42.75 240.06 M 42.75 240.06 42.8 238.73 M 42.8 238.73 42.67 237.43 M 30.38 248.27 29.99 247.68 M 29.99 247.68 29.42 247.12 M 29.42 247.12 28.68 246.68 M 28.68 246.68 27.97 246.43 M 27.97 246.43 27.19 246.29 M 27.19 246.29 26.35 246.34 M 26.35 246.34 25.54 246.58 M 25.54 246.58 24.85 246.98 M 24.85 246.98 24.27 247.46 M 24.27 247.46 23.73 248.12 M 23.73 248.12 23.38 248.84 M 23.38 248.84 23.22 249.53 M 10.8 183.58 13.34 197.95 M 13.34 197.95 12.43 199.24 M 30.47 248.26 30.12 246.24 M 23.36 197.32 22.06 196.41 M 22.06 196.41 19.52 182.04 M 28.35 233.06 23.36 197.32 M 226.67 212.55 224.38 210.87 M 231.27 212.87 223.82 207.67 M 233.84 211.85 223.23 204.37 M 235.75 210.38 222.67 201.17 M 236.47 207.99 223.4 198.87 M 235.9 204.79 225.31 197.4 M 235.33 201.59 227.88 196.38 M 234.75 198.29 232.48 196.71 M 215.63 192.97 220.47 220.34 M 220.47 220.34 243.52 216.28 M 224.45 211.24 225.4 211.82 M 225.4 211.82 226.45 212.4 M 226.45 212.4 227.54 212.68 M 227.54 212.68 228.63 212.96 M 228.63 212.96 229.86 212.93 M 229.86 212.93 230.98 212.83 M 230.98 212.83 232.06 212.54 M 232.06 212.54 233.22 212.15 M 233.22 212.15 234.15 211.51 M 234.15 211.51 235.08 210.88 M 235.08 210.88 235.87 209.98 M 235.87 209.98 236.57 209.11 M 234.59 197.94 233.64 197.35 M 233.64 197.35 232.59 196.78 M 232.59 196.78 231.5 196.5 M 231.5 196.5 230.41 196.22 M 230.41 196.22 229.18 196.25 M 229.18 196.25 228.06 196.35 M 228.06 196.35 226.98 196.64 M 226.98 196.64 225.82 197.03 M 225.82 197.03 224.89 197.66 M 224.89 197.66 223.96 198.3 M 223.96 198.3 223.17 199.19 M 223.17 199.19 222.47 200.07 M 232.73 144.57 232.49 143.76 M 232.49 143.76 232.07 142.99 M 232.07 142.99 231.57 142.32 M 231.57 142.32 230.91 141.78 M 230.91 141.78 230.17 141.34 M 230.17 141.34 229.37 141.1 M 229.37 141.1 228.49 140.97 M 228.49 140.97 227.65 141.03 M 227.65 141.03 226.84 141.26 M 226.84 141.26 226.06 141.68 M 226.06 141.68 225.39 142.18 M 225.39 142.18 224.85 142.84 M 224.85 142.84 224.41 143.58 M 224.41 143.58 224.17 144.38 M 224.17 144.38 224.04 145.25 M 224.04 145.25 224.1 146.09 M 243.68 210.78 236.56 159.84 M 236.52 212.04 237.02 212.71 M 237.02 212.71 237.5 213.29 M 237.5 213.29 238.24 213.72 M 238.24 213.72 238.94 213.97 M 238.94 213.97 239.73 214.12 M 239.73 214.12 240.57 214.07 M 240.57 214.07 241.38 213.83 M 241.38 213.83 242.07 213.43 M 242.07 213.43 242.64 212.95 M 242.64 212.95 243.19 212.28 M 243.19 212.28 243.44 211.58 M 243.44 211.58 243.68 210.78 M 236.66 209.09 234.69 197.92 M 224.45 211.24 222.47 200.07 M 237.78 203.14 237.47 201.87 M 237.47 201.87 236.96 200.64 M 236.96 200.64 236.2 199.55 M 236.2 199.55 235.37 198.56 M 235.37 198.56 234.36 197.7 M 234.36 197.7 233.21 197.05 M 233.21 197.05 231.99 196.61 M 231.99 196.61 230.7 196.27 M 230.7 196.27 229.37 196.22 M 229.37 196.22 228.06 196.35 M 228.06 196.35 226.79 196.67 M 226.79 196.67 225.56 197.17 M 225.56 197.17 224.46 197.93 M 224.46 197.93 223.47 198.76 M 223.47 198.76 222.61 199.76 M 222.61 199.76 221.96 200.92 M 221.96 200.92 221.51 202.13 M 221.51 202.13 221.17 203.41 M 221.17 203.41 221.12 204.74 M 221.12 204.74 221.26 206.04 M 221.26 206.04 221.58 207.31 M 221.58 207.31 222.08 208.54 M 222.08 208.54 222.84 209.63 M 222.84 209.63 223.68 210.62 M 223.68 210.62 224.68 211.48 M 224.68 211.48 225.84 212.13 M 225.84 212.13 227.05 212.57 M 227.05 212.57 228.34 212.91 M 228.34 212.91 229.68 212.96 M 229.68 212.96 230.98 212.83 M 230.98 212.83 232.25 212.51 M 232.25 212.51 233.48 212.01 M 233.48 212.01 234.58 211.25 M 234.58 211.25 235.57 210.42 M 235.57 210.42 236.43 209.41 M 236.43 209.41 237.08 208.26 M 237.08 208.26 237.53 207.05 M 237.53 207.05 237.87 205.76 M 237.87 205.76 237.92 204.43 M 237.92 204.43 237.78 203.14 M 243.68 210.78 243.29 210.19 M 243.29 210.19 242.72 209.63 M 242.72 209.63 241.98 209.19 M 241.98 209.19 241.27 208.94 M 241.27 208.94 240.49 208.8 M 240.49 208.8 239.65 208.85 M 239.65 208.85 238.84 209.09 M 238.84 209.09 238.15 209.49 M 238.15 209.49 237.57 209.97 M 237.57 209.97 237.03 210.63 M 237.03 210.63 236.68 211.35 M 236.68 211.35 236.52 212.04 M 236.56 159.84 235.27 158.94 M 235.27 158.94 232.73 144.57 M 225.73 161.75 226.64 160.46 M 226.64 160.46 224.1 146.09 M 233.3 197.04 225.73 161.75 M 236.52 212.04 236.07 210.04 M 233.82 197.32 236.07 210.04 M 231.79 190.13 215.63 192.97 M 215.63 192.97 220.47 220.34 M 220.47 220.34 243.52 216.28 M 243.52 216.28 242.9 212.81 M 243.52 216.28 242.9 212.81 M 231.79 190.13 215.63 192.97 M 225.63 154.78 218.38 156.06 M 218.38 156.06 214.3 132.99 M 214.3 132.99 237.44 128.93 M 237.44 128.93 241.52 151.99 M 241.52 151.99 234.26 153.27 M 414.85 91.42 349.75 102.86 M 349.75 102.86 342.09 59.57 M 342.09 59.57 407.2 48.13 M 407.2 48.13 414.85 91.42 M 369.27 126.52 638.22 79.24 M 381.43 182.42 370.21 118.99 M 370.21 118.99 686.17 63.46 M 686.17 63.46 693.42 104.46 M 693.42 104.46 695.54 104.09 M 381.43 182.42 379.23 182.81 M 523.45 281.46 587.09 270.28 M 587.09 270.28 570.07 174.08 M 570.07 174.08 572.18 173.71 M 523.84 283.66 523.45 281.46 M 532.47 282.14 589.59 272.1 M 374.85 174.61 372.64 175 M 372.64 175 362.57 118.07 M 362.57 118.07 364.78 117.68 M 364.78 117.68 374.85 174.61 M 699.06 94.6 696.95 94.97 M 696.95 94.97 690.83 60.37 M 690.83 60.37 692.94 60 M 692.94 60 699.06 94.6 M 576.92 200.53 577.3 199.99 M 577.49 203.73 580.61 199.41 M 580.27 203.91 583.82 198.85 M 583.48 203.34 585.83 200 M 586.33 202.84 577.6 204.37 M 577.6 204.37 576.84 200.07 M 576.84 200.07 585.57 198.54 M 585.57 198.54 586.33 202.84 M 583.2 185.18 582.81 182.98 M 592.47 199.59 593.35 204.53 M 593.35 204.53 593.99 204.42 M 594.82 204.27 595.46 204.16 M 595.46 204.16 594.51 198.76 M 594.51 198.76 592.39 199.13 M 587.09 202.33 588.81 199.76 M 590.3 201.76 592.12 199.18 M 592.78 201.33 586.26 202.47 M 586.26 202.47 585.87 200.28 M 585.87 200.28 592.39 199.13 M 592.39 199.13 592.78 201.33 M 592.03 199.2 589.74 186.29 M 589.55 199.63 587.26 186.73 M 587.99 199.91 584.93 182.61 M 585.94 200.64 582.81 182.98 M 579.7 184.66 576.49 185.22 M 576.49 185.22 575.92 182.02 M 575.92 182.02 579.14 181.45 M 579.14 181.45 579.7 184.66 M 576.49 185.22 579.14 181.45 M 579.05 199.68 581.68 195.82 M 582.26 199.12 579.05 199.68 M 579.05 199.68 578.46 196.39 M 578.46 196.39 581.68 195.82 M 581.68 195.82 582.26 199.12 M 573.78 182.77 576.78 199.71 M 576.78 199.71 577.15 199.64 M 577.15 199.64 577.21 200.01 M 577.21 200.01 579.05 199.68 M 579.05 199.68 575.92 182.02 M 575.92 182.02 574.09 182.34 M 574.09 182.34 574.15 182.71 M 574.15 182.71 573.78 182.77 M 590.11 186.23 585.7 187 M 585.7 187 584.93 182.61 M 584.93 182.61 589.33 181.83 M 589.33 181.83 590.11 186.23 M 585.7 187 589.33 181.83 M 590.11 186.23 584.93 182.61 M 605.91 266.97 605.08 267.12 M 605.08 267.12 593.88 203.78 M 593.88 203.78 594.7 203.63 M 594.7 203.63 605.91 266.97 M 595.46 204.16 606.44 266.22 M 593.35 204.53 604.33 266.59 M 585.57 198.54 590.88 228.56 M 572.31 174.44 570.2 174.82 M 598.42 271.21 598.65 270.89 M 600.14 272.89 601.86 270.32 M 603.35 272.33 604.94 270.07 M 605.28 271.99 598.76 273.13 M 598.76 273.13 598.37 270.94 M 598.37 270.94 604.89 269.79 M 604.89 269.79 605.28 271.99 M 605.2 271.53 604.33 266.59 M 604.33 266.59 604.97 266.48 M 605.79 266.33 606.44 266.22 M 606.44 266.22 607.39 271.62 M 607.39 271.62 605.37 271.97 M 602.81 274.59 599.13 275.24 M 599.13 275.24 598.76 273.13 M 598.76 273.13 602.43 272.49 M 602.43 272.49 602.81 274.59 M 602.81 274.59 598.76 273.13 M 607.39 271.62 647.98 264.48 M 635.09 191.63 600.88 234.82 M 600.88 234.82 647.98 264.48 M 594.51 198.76 635.09 191.63"/>
</g>
</svg>