<svg xmlns="http://www.w3.org/2000/svg" viewBox="0 0 25 25" height="25" width="25"><rect fill="none" width="25" height="25"/><path fill="#f7f0f0" transform="translate(5 5)" d="M14.9,13.4L8.5,0.6c-0.4-0.8-1.5-0.8-1.9,0L0.1,13.4c-0.4,0.7,0.2,1.6,1,1.6h12.8C14.7,15,15.2,14.1,14.9,13.4z M7.5,13	C6.7,13,6,12.3,6,11.5S6.6,10,7.5,10S9,10.7,9,11.5C9,12.4,8.3,13,7.5,13z M8.5,9h-2L6,5.5C6,5.2,6.2,5,6.5,5h2C8.8,5,9,5.2,9,5.5	L8.5,9z" style="stroke-linejoin:round;stroke-miterlimit:4" stroke="#f7f0f0" stroke-width="6"/><path fill="#ed2f2f" transform="translate(5 5)" d="M14.9,13.4L8.5,0.6c-0.4-0.8-1.5-0.8-1.9,0L0.1,13.4c-0.4,0.7,0.2,1.6,1,1.6h12.8C14.7,15,15.2,14.1,14.9,13.4z M7.5,13	C6.7,13,6,12.3,6,11.5S6.6,10,7.5,10S9,10.7,9,11.5C9,12.4,8.3,13,7.5,13z M8.5,9h-2L6,5.5C6,5.2,6.2,5,6.5,5h2C8.8,5,9,5.2,9,5.5	L8.5,9z"/></svg>