<svg width="136" height="86" viewBox="0 0 136 86" fill="none" xmlns="http://www.w3.org/2000/svg"><path d="M116.72 45.72C116.4 45.1766 116.25 44.5495 116.29 43.92C116.257 42.8046 116.154 41.6923 115.98 40.59C115.764 39.7453 115.455 38.927 115.06 38.15C114.75 37.4336 114.293 36.7899 113.72 36.26C113.11 36.74 112.47 37.26 111.86 37.74C111.47 38.07 111.12 38.45 110.75 38.74C110.502 38.9872 110.179 39.1448 109.831 39.1883C109.483 39.2317 109.131 39.1585 108.83 38.98C108.537 38.8054 108.313 38.5348 108.196 38.2141C108.08 37.8934 108.077 37.5422 108.19 37.22C108.319 36.8693 108.487 36.5339 108.69 36.22C109.495 35.0754 110.513 34.0974 111.69 33.34C112.901 32.5612 114.265 32.053 115.69 31.85C116.31 31.73 116.69 31.53 116.79 30.85C116.89 30.3484 117.034 29.8565 117.22 29.38C117.28 29.15 117.29 28.9 117.33 28.66C117.37 28.42 117.41 28.1 117.48 27.83C117.513 27.7484 117.52 27.6585 117.501 27.5727C117.481 27.4869 117.435 27.4091 117.37 27.35C116.59 26.49 115.85 25.59 115.02 24.77C114.569 24.3919 114.084 24.0571 113.57 23.77C113.43 23.67 113.28 23.59 113.14 23.5C112.918 23.3611 112.739 23.1632 112.624 22.9284C112.508 22.6937 112.46 22.4314 112.485 22.1709C112.51 21.9104 112.607 21.662 112.765 21.4534C112.923 21.2448 113.136 21.0844 113.38 20.99C114.09 20.7385 114.867 20.7541 115.566 21.0338C116.266 21.3135 116.839 21.8383 117.18 22.51C117.59 23.44 118.18 24.3 118.63 25.2C118.663 25.2343 118.7 25.2645 118.74 25.29C119.03 24.91 119.29 24.52 119.6 24.16C120.312 23.3451 121.264 22.7778 122.32 22.54C122.729 22.4916 123.141 22.4916 123.55 22.54C123.87 22.15 124.28 21.69 124.66 21.2C124.929 20.7938 125.308 20.4715 125.751 20.27C126.195 20.0684 126.687 19.9956 127.17 20.06C127.895 20.0806 128.594 20.3291 129.17 20.77C129.923 21.4259 130.394 22.3461 130.487 23.3401C130.58 24.3341 130.288 25.3258 129.67 26.11C129.418 26.4256 129.091 26.6738 128.719 26.8326C128.348 26.9914 127.943 27.0558 127.54 27.02C127.42 27.02 127.3 27.02 127.18 27.02C126.818 27.0824 126.446 27.0548 126.098 26.9397C125.749 26.8246 125.434 26.6255 125.18 26.36C124.97 26.15 124.65 26.03 124.43 25.82C124.134 25.5179 123.854 25.2008 123.59 24.87C122.876 25.1047 122.232 25.5153 121.718 26.0641C121.205 26.6128 120.837 27.282 120.65 28.01C121.262 28.1217 121.879 28.1985 122.5 28.24C123.736 28.3846 124.937 28.7433 126.05 29.3C126.314 29.4199 126.554 29.5858 126.76 29.79C126.935 29.9636 127.065 30.178 127.137 30.414C127.209 30.65 127.221 30.9001 127.172 31.142C127.124 31.3839 127.016 31.6099 126.858 31.7998C126.701 31.9897 126.499 32.1375 126.27 32.23C125.933 32.358 125.568 32.3894 125.214 32.3205C124.861 32.2515 124.534 32.0851 124.27 31.84C123.933 31.5547 123.564 31.3098 123.17 31.11C122.35 30.72 121.51 30.4 120.68 30.05C120.57 30.05 120.47 29.95 120.32 29.88V30.26C120.333 31.086 120.219 31.9091 119.98 32.7C119.858 33.2138 119.615 33.6909 119.27 34.0911C118.926 34.4913 118.49 34.803 118 35L117.69 35.13C117.75 35.32 117.8 35.51 117.87 35.69C118.588 37.6251 119.072 39.6396 119.31 41.69C119.4 42.59 119.4 43.5 119.42 44.4C119.43 44.8376 119.28 45.2639 119 45.6C118.812 45.8375 118.557 46.0118 118.267 46.0994C117.977 46.187 117.668 46.1837 117.38 46.09L117.1 46.01L116.71 45.72" fill="#F4AC3B"/><path d="M39.89 13.22C39.82 12.22 39.69 11.32 39.7 10.38C39.71 9.44001 39.87 8.53001 39.96 7.64001C39.59 7.43001 39.19 7.22001 38.81 6.96001C38.592 6.81487 38.4161 6.61481 38.3 6.38001C37.9199 5.61705 37.6119 4.82026 37.38 4.00001C37.2656 3.47455 37.2757 2.92963 37.4094 2.40875C37.5431 1.88787 37.7967 1.40546 38.15 1.00001C38.6112 0.446133 39.2664 0.0891001 39.9818 0.0017595C40.6973 -0.0855811 41.4191 0.103353 42 0.530013C42.64 0.953939 43.1662 1.5285 43.5324 2.20326C43.8985 2.87802 44.0934 3.63234 44.1 4.40001C44.1441 5.24478 43.8571 6.07347 43.3 6.71001C43.2115 6.82171 43.1591 6.95777 43.15 7.10001C43.105 7.81264 43.105 8.52739 43.15 9.24001C43.25 10.17 43.45 11.1 43.61 12.02L43.9 14C43.9 14.05 43.9 14.09 43.96 14.19C44.5255 13.8293 45.0666 13.4317 45.58 13C47.0577 11.71 48.878 10.8763 50.82 10.6C51.3155 10.4824 51.8348 10.5147 52.312 10.6927C52.7891 10.8707 53.2026 11.1865 53.5 11.6C53.6742 11.8072 53.7846 12.0605 53.8177 12.3292C53.8509 12.5979 53.8055 12.8704 53.687 13.1138C53.5685 13.3572 53.3819 13.561 53.15 13.7005C52.918 13.8401 52.6505 13.9094 52.38 13.9C51.1823 13.9256 49.9927 14.1037 48.84 14.43C48.4625 14.5237 48.1171 14.7171 47.84 14.99C47.5705 15.2478 47.2637 15.4635 46.93 15.63C46.2 16.02 45.45 16.37 44.69 16.75C44.79 17.21 44.93 17.75 45.03 18.22C45.2482 19.3665 45.302 20.5383 45.19 21.7C45.1789 21.7834 45.1965 21.868 45.24 21.94C46.24 22.94 47.18 23.94 48.14 24.94C48.79 25.63 49.43 26.32 50.05 27.03C50.1719 27.1713 50.2645 27.3355 50.3225 27.5129C50.3805 27.6903 50.4027 27.8774 50.3878 28.0634C50.373 28.2495 50.3213 28.4307 50.2358 28.5966C50.1504 28.7626 50.0328 28.9099 49.89 29.03C49.6101 29.2774 49.245 29.4062 48.8718 29.3894C48.4986 29.3726 48.1466 29.2115 47.89 28.94C46.81 27.8 45.74 26.64 44.66 25.49C44.6307 25.4465 44.6072 25.3995 44.59 25.35H44.52C44.38 25.92 44.24 26.49 44.11 27.07C43.8565 28.3612 43.4222 29.6101 42.82 30.78C42.5631 31.2546 42.2473 31.6947 41.88 32.09C41.7487 32.2339 41.5874 32.3472 41.4075 32.4219C41.2276 32.4965 41.0335 32.5308 40.8389 32.5222C40.6443 32.5136 40.454 32.4624 40.2814 32.3722C40.1088 32.2819 39.9581 32.1549 39.84 32C39.7002 31.7913 39.6166 31.55 39.5973 31.2995C39.578 31.0489 39.6237 30.7977 39.73 30.57C40.1595 29.5215 40.53 28.4498 40.84 27.36C41.1947 25.89 41.4651 24.4009 41.65 22.9C41.8404 21.3365 41.6588 19.7501 41.12 18.27C40.8933 17.6033 40.6833 16.9367 40.49 16.27C40.4719 16.1948 40.4334 16.1261 40.3786 16.0714C40.3239 16.0167 40.2552 15.9781 40.18 15.96C38.88 15.53 37.57 15.14 36.31 14.62C35.1801 14.136 34.0754 13.5953 33 13C32.6601 12.8472 32.3568 12.6237 32.1102 12.3443C31.8636 12.0649 31.6794 11.7362 31.57 11.38C31.4667 11.0198 31.4734 10.637 31.5892 10.2806C31.705 9.92427 31.9247 9.61065 32.22 9.38001C32.5386 9.15652 32.9155 9.03086 33.3046 9.01843C33.6936 9.00599 34.0777 9.10733 34.41 9.31001C35.04 9.71001 35.66 10.14 36.28 10.58C36.9 11.02 37.28 11.32 37.75 11.68L39.8 13.2L39.91 13.25" fill="#F4AC3B"/><path d="M87.34 7.83003C87.43 7.49003 87.51 7.19003 87.57 6.89003C87.5752 6.85277 87.5725 6.81485 87.5622 6.77869C87.5519 6.74253 87.5341 6.70892 87.51 6.68003C87.1524 6.19129 86.982 5.5905 87.0297 4.9868C87.0774 4.38309 87.3401 3.81653 87.77 3.39003C88.2539 2.88396 88.8767 2.5323 89.5599 2.37927C90.2432 2.22625 90.9565 2.2787 91.61 2.53003C92.1066 2.76391 92.5179 3.14676 92.7867 3.6253C93.0556 4.10384 93.1686 4.65427 93.11 5.20003C93.0305 6.17942 92.6093 7.09971 91.92 7.80003C91.692 8.06798 91.4126 8.28747 91.0982 8.4455C90.7839 8.60352 90.4411 8.69687 90.09 8.72003H89.95V8.82003C90.2444 8.98469 90.561 9.10594 90.89 9.18003C92.3378 9.43191 93.7701 9.76578 95.18 10.18C96.0007 10.41 96.8085 10.6837 97.6 11C97.7755 11.0568 97.9374 11.149 98.0759 11.2708C98.2144 11.3926 98.3264 11.5415 98.4051 11.7083C98.4839 11.8751 98.5276 12.0562 98.5336 12.2405C98.5396 12.4249 98.5077 12.6085 98.44 12.78C98.374 12.9549 98.2733 13.1147 98.1441 13.2498C98.0149 13.3849 97.8598 13.4925 97.688 13.5663C97.5162 13.64 97.3313 13.6784 97.1444 13.679C96.9574 13.6797 96.7723 13.6426 96.6 13.57C96.1808 13.4634 95.7998 13.2417 95.5 12.93C95.445 12.8897 95.3782 12.8686 95.31 12.87C94.46 12.81 93.62 12.75 92.78 12.72C91.9961 12.7015 91.2199 12.5597 90.48 12.3H90.34C90.24 12.83 90.14 13.35 90.06 13.87C90.0196 14.3438 89.8226 14.7907 89.5 15.14C89.4432 15.2167 89.4055 15.3058 89.39 15.4C89.23 16.05 89.07 16.7 88.92 17.4C88.8999 17.5169 88.9211 17.6371 88.98 17.74C89.5171 18.5003 90.145 19.1921 90.85 19.8C91.1191 20.042 91.3636 20.31 91.58 20.6C91.8031 20.8829 91.9294 21.23 91.9402 21.5901C91.951 21.9502 91.8458 22.3043 91.64 22.6C91.4344 22.9244 91.1228 23.1675 90.7581 23.2878C90.3934 23.4082 89.9983 23.3983 89.64 23.26C89.2218 23.0956 88.8459 22.8393 88.54 22.51C87.73 21.59 86.98 20.62 86.22 19.66C86.1804 19.595 86.1217 19.5438 86.0519 19.5134C85.9821 19.4829 85.9046 19.4748 85.83 19.49C85.1895 19.5303 84.5518 19.6071 83.92 19.72C83.3889 19.8517 82.8915 20.0936 82.46 20.43C81.8801 20.9071 81.3416 21.4323 80.85 22C80.5902 22.3078 80.2482 22.5352 79.8639 22.6556C79.4796 22.776 79.0689 22.7845 78.68 22.68C78.3032 22.5711 77.9667 22.3537 77.7124 22.055C77.4581 21.7563 77.2973 21.3894 77.25 21C77.1884 20.6097 77.234 20.2101 77.3819 19.8437C77.5299 19.4773 77.7746 19.1581 78.09 18.92C79.3163 17.8543 80.7648 17.0755 82.33 16.64C82.822 16.5546 83.3207 16.5144 83.82 16.52C84.27 16.52 84.73 16.52 85.18 16.47C85.32 16.47 85.44 16.47 85.41 16.24C85.3535 15.1061 85.6095 13.9784 86.15 12.98C86.3914 12.2814 86.5819 11.5662 86.72 10.84C86.7177 10.7982 86.7044 10.7578 86.6816 10.7227C86.6588 10.6876 86.6272 10.6591 86.59 10.64C85.6883 10.1574 84.6986 9.86154 83.68 9.77003C82.9351 9.74933 82.2142 9.50175 81.6138 9.06037C81.0134 8.61898 80.562 8.00484 80.32 7.30003C80.211 7.03419 80.1606 6.748 80.1722 6.46094C80.1837 6.17387 80.257 5.89266 80.387 5.63645C80.517 5.38025 80.7007 5.15506 80.9255 4.97621C81.1504 4.79736 81.4111 4.66906 81.69 4.60003C82.1274 4.53258 82.5741 4.55986 83 4.68003C83.5241 4.80696 84.0157 5.04258 84.4429 5.3716C84.8701 5.70063 85.2234 6.11574 85.48 6.59003C85.6643 6.9167 85.9481 7.17596 86.29 7.33003L87.37 7.83003" fill="#F4AC3B"/><path d="M10.13 25.71L10.79 26.62H10.86C10.86 26.49 10.86 26.36 10.86 26.23C10.9052 24.7188 11.4385 23.2629 12.38 22.08C12.5025 21.8988 12.6868 21.7684 12.8985 21.7132C13.1101 21.658 13.3346 21.6817 13.53 21.78C13.7342 21.8685 13.8966 22.0318 13.9841 22.2364C14.0715 22.441 14.0772 22.6713 14 22.88C13.71 23.88 13.4 24.79 13.1 25.75C13.0286 25.9606 12.9816 26.1787 12.96 26.4C12.91 27.23 12.89 28.06 12.85 28.89C12.85 28.89 12.85 28.95 12.85 28.98C12.67 29.48 13.01 29.78 13.3 30.08C14.7802 31.595 16.1598 33.2051 17.43 34.9C17.7045 35.2842 17.955 35.6849 18.18 36.1C18.2155 36.1841 18.2823 36.251 18.3664 36.2865C18.4504 36.322 18.545 36.3232 18.63 36.29C19.53 36.08 20.43 35.88 21.34 35.72C21.5752 35.6763 21.8182 35.7126 22.0302 35.8232C22.2423 35.9338 22.4112 36.1122 22.51 36.33C22.5881 36.4599 22.6356 36.6058 22.649 36.7567C22.6624 36.9076 22.6413 37.0596 22.5874 37.2012C22.5335 37.3427 22.4481 37.4702 22.3376 37.574C22.2272 37.6777 22.0947 37.755 21.95 37.8C20.9554 38.1263 19.9167 38.2983 18.87 38.31C18.87 38.31 18.87 38.44 18.87 38.53C18.72 39.53 18.57 40.53 18.43 41.53C18.36 42 18.31 42.53 18.23 42.96C18.1518 43.369 17.9227 43.7337 17.5881 43.9817C17.2536 44.2297 16.8381 44.3429 16.424 44.2988C16.0099 44.2548 15.6275 44.0567 15.3526 43.7439C15.0777 43.431 14.9305 43.0263 14.94 42.61C14.9491 41.2875 15.2496 39.9832 15.82 38.79C16.01 38.45 15.94 38.24 15.68 37.94C14.94 37.09 14.25 36.2 13.57 35.31C12.57 33.93 11.51 32.53 10.47 31.15C10.4226 31.0825 10.3509 31.0359 10.27 31.02L4.85001 31.15C4.44001 31.15 4.03001 31.26 3.62001 31.28C3.28581 31.3317 2.94394 31.269 2.64987 31.102C2.35581 30.935 2.1268 30.6735 2.00001 30.36C1.87776 30.0773 1.84674 29.7636 1.91127 29.4624C1.9758 29.1613 2.13267 28.8878 2.36001 28.68C2.55735 28.5091 2.78932 28.3829 3.04001 28.31C4.04001 28.03 5.11001 27.75 6.17001 27.54C6.83241 27.4395 7.50031 27.3794 8.17001 27.36H8.52002L8.35002 26.85H8.04001C7.62867 26.883 7.215 26.8282 6.82647 26.6891C6.43793 26.55 6.08342 26.3299 5.78646 26.0434C5.48951 25.7568 5.25689 25.4104 5.10406 25.027C4.95123 24.6437 4.88167 24.2323 4.90001 23.82C4.93337 23.3778 5.11278 22.9592 5.41001 22.63C5.66001 22.34 5.92001 22.07 6.17001 21.78C6.45725 21.4444 6.8475 21.2134 7.27986 21.1229C7.71221 21.0325 8.16235 21.0877 8.56002 21.28C9.14127 21.5474 9.63067 21.9804 9.96688 22.5247C10.3031 23.0691 10.4712 23.7005 10.45 24.34C10.3756 24.8036 10.2687 25.2614 10.13 25.71" fill="#F4AC3B"/><path d="M130.48 66.93C130.415 66.8508 130.337 66.7831 130.25 66.73C130.34 66.88 130.44 67.01 130.53 67.16C130.534 67.0803 130.516 67.0011 130.48 66.93Z" fill="#53B232"/><path d="M92.39 77.54L87.34 62L82.34 77.52C82.2277 77.8645 81.9976 78.1584 81.69 78.35H93C92.6952 78.1553 92.466 77.8625 92.35 77.52" fill="#53B232"/><path d="M79.24 77.54L74.19 62L69.19 77.52C69.074 77.8625 68.8447 78.1553 68.54 78.35H79.88C79.5779 78.1548 79.3519 77.8618 79.24 77.52" fill="#53B232"/><path d="M66.08 77.54L61 62L56 77.54C55.8877 77.8845 55.6575 78.1784 55.35 78.37H66.75C66.4452 78.1753 66.2159 77.8825 66.1 77.54" fill="#53B232"/><path d="M130 66.56L130.11 66.65C130.139 66.682 130.173 66.709 130.21 66.73C129.9 66.25 129.59 65.73 129.26 65.33C129.33 65.48 129.39 65.63 129.47 65.78C129.601 66.0685 129.78 66.3323 130 66.56" fill="#53B232"/><path d="M52.93 77.54L47.88 62L42.83 77.54C42.714 77.8825 42.4847 78.1753 42.18 78.37H53.58C53.2724 78.1784 53.0423 77.8845 52.93 77.54" fill="#53B232"/><path d="M75.71 56.33L80.77 71.85L85.77 56.33C85.8551 56.0935 85.9957 55.8809 86.18 55.71H75.31C75.4913 55.8815 75.6285 56.0942 75.71 56.33" fill="#53B232"/><path d="M88.47 55.71C88.6513 55.8815 88.7885 56.0942 88.87 56.33L93.87 71.85L99.12 55.71H88.47Z" fill="#53B232"/><path d="M49.4 56.33L54.46 71.85L59.46 56.33C59.5451 56.0935 59.6857 55.8809 59.87 55.71H49C49.1846 55.8787 49.3224 56.0923 49.4 56.33" fill="#53B232"/><path d="M41.3 71.85L46.35 56.33C46.4315 56.0942 46.5687 55.8815 46.75 55.71H36.05L41.3 71.85Z" fill="#53B232"/><path d="M62.56 56.33L67.56 71.85L72.56 56.33C72.6415 56.0942 72.7787 55.8815 72.96 55.71H62.16C62.3413 55.8815 62.4785 56.0942 62.56 56.33" fill="#53B232"/><path d="M135.13 77.3C134.741 75.6251 134.167 73.9985 133.42 72.45C132.85 71.34 132.24 70.25 131.66 69.14C131.31 68.46 130.93 67.8 130.53 67.14C130.44 66.99 130.34 66.86 130.25 66.71C130.214 66.6864 130.181 66.6597 130.15 66.63L130.04 66.54C129.823 66.3096 129.644 66.0463 129.51 65.76C129.43 65.61 129.37 65.46 129.3 65.31C128.8 64.31 128.37 63.31 127.9 62.31C125.99 58.2 123.53 54.01 119.75 51.43C118.02 50.25 116.42 47.74 114.53 46.86C113.276 46.2054 111.926 45.7564 110.53 45.53C107.76 44.94 102.71 46.67 99.93 45.91C97.5244 45.1482 95.4051 43.6772 93.85 41.69C92 39.51 90.13 37.32 88.18 35.21L87.29 34.4C87.03 34.16 86.77 33.94 86.51 33.73L86.35 33.53C85.57 32.6 84.76 31.71 83.98 30.8L81.84 28.3C81.6 28.02 81.37 27.73 81.12 27.46C80.19 26.46 79.29 25.4 78.32 24.46C76.7929 23.0754 75.0586 21.9384 73.18 21.09C71.7801 20.3233 70.2319 19.8663 68.64 19.75H67.54C67.14 19.75 66.74 19.84 66.33 19.87C65.4123 19.931 64.5107 20.1404 63.66 20.49C61.634 21.3668 59.7553 22.5507 58.09 24C55.8847 26.0115 53.8756 28.2281 52.09 30.62C51.4765 31.4778 50.7423 32.2424 49.91 32.89C48.7147 33.7488 47.4426 34.4953 46.11 35.12C45.4416 35.4461 44.7263 35.6654 43.99 35.77C42.9226 35.8685 41.8466 35.7285 40.84 35.36C39.6763 34.9909 38.4759 34.7495 37.26 34.64H35.58H34.86L34.03 34.73L33.33 34.84C32.3555 34.9257 31.3912 35.1031 30.45 35.37C29.0282 35.7206 27.6758 36.3088 26.45 37.11C25.53 37.75 24.67 38.49 23.79 39.21C23.0391 39.8112 22.4283 40.5687 22 41.43C21.59 42.24 21.19 43.05 20.84 43.89C20.5287 44.674 20.1577 45.4329 19.73 46.16C19.58 46.41 19.43 46.66 19.3 46.93L17.17 51.29C16.4071 52.9639 15.5144 54.5754 14.5 56.11C13.6129 57.3722 12.8398 58.7108 12.19 60.11C11.5918 61.4375 10.9242 62.7326 10.19 63.99C9.44318 65.3864 8.59069 66.7236 7.64 67.99C7.21524 68.5226 6.81805 69.0767 6.45 69.65C4.83402 72.2426 3.01144 74.7006 1 77C0.603475 77.407 0.266778 77.8683 0 78.37H40.42C40.1152 78.1753 39.886 77.8825 39.77 77.54L32.67 55.71H26.77C26.4513 55.6818 26.1548 55.5352 25.9388 55.2992C25.7228 55.0632 25.603 54.7549 25.603 54.435C25.603 54.1151 25.7228 53.8068 25.9388 53.5708C26.1548 53.3348 26.4513 53.1882 26.77 53.16H108.43C108.632 53.1684 108.83 53.2267 109.004 53.3296C109.178 53.4325 109.325 53.5769 109.43 53.75C109.573 53.9347 109.661 54.1561 109.684 54.3887C109.707 54.6213 109.664 54.8557 109.559 55.0647C109.455 55.2738 109.293 55.449 109.094 55.5703C108.894 55.6915 108.664 55.7538 108.43 55.75H102.56L95.45 77.54C95.334 77.8825 95.1048 78.1753 94.8 78.37H135.13C135.227 78.02 135.227 77.6501 135.13 77.3" fill="#53B232"/><path d="M67.61 78.65C67.9244 78.6446 68.2303 78.5473 68.49 78.37H66.73C66.9897 78.5473 67.2956 78.6446 67.61 78.65Z" fill="#fff"/><path d="M80.76 78.65C81.0777 78.646 81.3872 78.5486 81.65 78.37H79.88C80.1397 78.5473 80.4456 78.6446 80.76 78.65" fill="#fff"/><path d="M54.45 78.65C54.7677 78.646 55.0772 78.5486 55.34 78.37H53.57C53.8297 78.5473 54.1356 78.6446 54.45 78.65" fill="#fff"/><path d="M93.92 78.65C94.2344 78.6446 94.5403 78.5473 94.8 78.37H93C93.2597 78.5473 93.5656 78.6446 93.88 78.65" fill="#fff"/><path d="M41.3 78.65C41.6144 78.6446 41.9203 78.5473 42.18 78.37H40.42C40.6797 78.5473 40.9856 78.6446 41.3 78.65" fill="#fff"/><path d="M108.43 53.16H108.29C108.68 53.37 109.07 53.58 109.47 53.75C109.363 53.5781 109.217 53.4346 109.043 53.3319C108.868 53.2291 108.672 53.1702 108.47 53.16" fill="#fff"/><path d="M135.13 82.02H0V85.67H135.13V82.02Z" fill="#00A2D3"/></svg>