<svg xmlns="http://www.w3.org/2000/svg" viewBox="0 0 17 17" height="17" width="17"><rect fill="none" width="17" height="17"/><path fill="rgba(255,255,255,0.75)" transform="translate(3 3)" d="M8,3V1.578L7.3601,1H3.6399	L3,1.7477V3H1.5L1,3.5v6L1.5,10h8L10,9.5v-6L9.5,3H8z M4,2h3v1H4V2z" style="stroke-linejoin:round;stroke-miterlimit:4" stroke="rgba(255,255,255,0.75)" stroke-width="2"/><path fill="#735139" transform="translate(3 3)" d="M8,3V1.578L7.3601,1H3.6399	L3,1.7477V3H1.5L1,3.5v6L1.5,10h8L10,9.5v-6L9.5,3H8z M4,2h3v1H4V2z"/></svg>