<svg width="271" height="40" viewBox="0 0 271 40" fill="none" xmlns="http://www.w3.org/2000/svg"><path d="M115.45 8.13H114.394V13.815H115.45V8.13Z" fill="#000"/><path d="M112.444 11.054V12.847C111.58 12.933 110.591 12.49 110.591 10.972C110.591 9.84498 111.256 9.091 112.224 9.091C113.017 9.091 113.365 9.291 113.5 9.427V8.40201C113.5 8.40201 113.051 8.13101 112.227 8.13101C110.994 8.13101 109.534 8.88499 109.534 10.994C109.534 13.089 110.995 13.815 112.144 13.815C112.707 13.815 113.104 13.815 113.501 13.642V11.054H112.444Z" fill="#000"/><path d="M119.327 9.091V8.13H116.321V13.814H117.378V11.206H119.327V10.246H117.378V9.091H119.327Z" fill="#000"/><path d="M167.536 9.073V8.112H164.53V13.796H165.587V11.188H167.536V10.228H165.587V9.073H167.536Z" fill="#000"/><path d="M121.96 13.814C123.009 13.814 123.859 13.141 123.859 12.083V8.13H122.802V12.083C122.802 12.515 122.44 12.854 121.959 12.854C121.479 12.854 121.116 12.514 121.116 12.083V8.13H120.06V12.083C120.062 13.142 120.912 13.814 121.96 13.814Z" fill="#000"/><path d="M134.163 8.349C134.046 8.261 133.669 8.129 133.158 8.129C131.903 8.129 130.765 8.99901 130.765 10.971C130.765 12.91 131.898 13.814 133.157 13.814C133.655 13.814 133.897 13.72 134.136 13.564V12.664C133.85 12.813 133.655 12.853 133.157 12.853C132.323 12.853 131.821 12.019 131.821 10.971C131.821 9.89001 132.323 9.09201 133.157 9.09201C133.655 9.09201 133.851 9.13801 134.163 9.26901V8.349Z" fill="#000"/><path d="M140.901 8.129C140.437 8.129 139.357 8.129 139.357 8.129V13.815H140.899C142.68 13.815 143.371 12.411 143.371 10.918C143.372 9.362 142.668 8.129 140.901 8.129ZM140.9 12.853C140.692 12.853 140.414 12.853 140.414 12.853V9.09201H140.9C141.881 9.09201 142.315 9.94498 142.315 10.972C142.314 11.963 141.881 12.853 140.9 12.853Z" fill="#000"/><path d="M150.948 8.134L149.895 9.60901L148.839 8.13199H147.775V13.813H148.831V10.104L149.897 11.521L150.948 10.12V13.813H152.005V8.134H150.948Z" fill="#000"/><path d="M147.083 9.09V8.129H144.035V13.817H147.083V12.856H145.091V11.332H147.041V10.372H145.091V9.09H147.083Z" fill="#000"/><path d="M156.749 8.11401H155.569L154.583 10.166L153.596 8.11401H152.417L154.059 11.536V13.798H155.116V11.536L156.749 8.11401Z" fill="#000"/><path d="M161.473 8.112C162.72 8.112 163.787 8.85201 163.787 10.954C163.787 12.506 163.2 13.796 161.473 13.796C159.951 13.796 159.16 12.575 159.16 10.954C159.159 9.00501 160.242 8.112 161.473 8.112ZM160.216 10.958C160.216 11.759 160.547 12.874 161.473 12.874C162.161 12.874 162.73 12.2 162.73 10.954C162.73 9.85401 162.156 9.07199 161.473 9.07199C160.596 9.07199 160.216 10.081 160.216 10.958Z" fill="#000"/><path d="M129.73 13.813H130.832L129.207 8.12799H127.955L126.33 13.813H127.432L127.907 12.151H129.254L129.73 13.813ZM128.183 11.19L128.582 9.79401L128.981 11.19H128.183Z" fill="#000"/><path d="M137.802 13.813H138.904L137.279 8.12799H136.027L134.402 13.813H135.504L135.979 12.151H137.327L137.802 13.813ZM136.254 11.19L136.653 9.79401L137.052 11.19H136.254Z" fill="#000"/><path d="M252.396 12.782V8.06H251.339V13.743H254.572V12.782H252.396Z" fill="#000"/><path d="M248.668 13.743C249.718 13.743 250.567 13.069 250.567 12.012V8.06H249.51V12.012C249.51 12.444 249.148 12.783 248.667 12.783C248.188 12.783 247.824 12.444 247.824 12.012V8.06H246.767V12.012C246.769 13.069 247.619 13.743 248.668 13.743Z" fill="#000"/><path d="M260.204 13.743C261.253 13.743 262.102 13.069 262.102 12.012V8.06H261.045V12.012C261.045 12.444 260.683 12.783 260.203 12.783C259.723 12.783 259.359 12.444 259.359 12.012V8.06H258.302V12.012C258.304 13.069 259.154 13.743 260.204 13.743Z" fill="#000"/><path d="M237.241 8.05801C236.776 8.05801 235.696 8.05801 235.696 8.05801V13.744H237.239C239.02 13.744 239.71 12.34 239.71 10.848C239.71 9.28999 239.007 8.05801 237.241 8.05801ZM237.239 12.781C237.03 12.781 236.753 12.781 236.753 12.781V9.01999H237.239C238.219 9.01999 238.653 9.873 238.653 10.901C238.653 11.892 238.22 12.781 237.239 12.781Z" fill="#000"/><path d="M270.235 9.01801V8.05701H267.188V13.745H270.235V12.784H268.243V11.261H270.193V10.3H268.243V9.01801H270.235Z" fill="#000"/><path d="M229.713 13.743H230.816L229.191 8.05701H227.939L226.314 13.743H227.416L227.892 12.081H229.24L229.713 13.743ZM228.165 11.12L228.564 9.724L228.963 11.12H228.165Z" fill="#000"/><path d="M233.966 8.06V11.3L232.303 8.06H231.246V13.743H232.303V10.508L233.966 13.743H235.022V8.06H233.966Z" fill="#000"/><path d="M265.946 11.921C265.77 11.362 265.563 11.148 265.436 11.065C265.829 10.796 266.137 10.308 266.137 9.67099C266.137 8.79399 265.469 8.06 264.739 8.06H262.864V13.744H263.921V11.26H264.238C264.539 11.26 264.743 11.561 264.827 11.86C264.864 11.994 265.438 13.745 265.438 13.745H266.754C266.451 13.175 266.165 12.621 265.946 11.921ZM263.886 9.01999H264.517C264.903 9.01999 265.046 9.46799 265.046 9.67099C265.046 9.91099 264.902 10.299 264.517 10.299H263.886V9.01999Z" fill="#000"/><path d="M257.713 8.06H254.165V9.01901H255.411V13.743H256.467V9.01901H257.713V8.06Z" fill="#000"/><path d="M246.019 8.27802C245.902 8.19002 245.526 8.05899 245.014 8.05899C243.759 8.05899 242.621 8.928 242.621 10.901C242.621 12.84 243.755 13.743 245.013 13.743C245.511 13.743 245.753 13.649 245.993 13.493V12.594C245.707 12.743 245.511 12.782 245.013 12.782C244.18 12.782 243.677 11.949 243.677 10.901C243.677 9.819 244.18 9.022 245.013 9.022C245.511 9.022 245.707 9.067 246.019 9.198V8.27802Z" fill="#000"/><path d="M214.083 8.112V11.353L212.421 8.112H211.364V13.796H212.421V10.562L214.083 13.796H215.14V8.112H214.083Z" fill="#000"/><path d="M182.747 11.974C182.572 11.415 182.364 11.201 182.238 11.119C182.63 10.849 182.939 10.361 182.939 9.724C182.939 8.847 182.271 8.11301 181.54 8.11301H179.665V13.797H180.722V11.313H181.04C181.341 11.313 181.544 11.614 181.628 11.913C181.666 12.047 182.24 13.798 182.24 13.798H183.555C183.253 13.228 182.967 12.674 182.747 11.974ZM180.687 9.073H181.318C181.705 9.073 181.848 9.51999 181.848 9.72299C181.848 9.96299 181.704 10.352 181.318 10.352H180.687V9.073Z" fill="#000"/><path d="M194.741 8.112H191.193V9.07101H192.438V13.796H193.495V9.07101H194.741V8.112Z" fill="#000"/><path d="M187.678 13.438C187.949 13.638 188.435 13.796 188.902 13.796C189.807 13.796 190.956 13.505 190.956 12.044C190.956 11.376 190.713 10.791 189.707 10.304C189.175 10.046 188.77 9.93101 188.77 9.53601C188.77 9.14901 189.064 9.01001 189.55 9.01001C189.923 9.01001 190.434 9.29901 190.489 9.36801V8.409C190.489 8.409 189.945 8.112 189.36 8.112C188.678 8.112 187.713 8.48101 187.713 9.53601C187.713 10.482 188.556 10.879 188.985 11.034C189.465 11.207 189.891 11.556 189.891 12.044C189.891 12.507 189.528 12.835 188.901 12.835C188.463 12.835 187.858 12.614 187.677 12.478V13.438H187.678Z" fill="#000"/><path d="M197.911 13.438C198.182 13.638 198.669 13.796 199.136 13.796C200.04 13.796 201.189 13.505 201.189 12.044C201.189 11.376 200.947 10.791 199.941 10.304C199.408 10.046 199.003 9.93101 199.003 9.53601C199.003 9.14901 199.297 9.01001 199.784 9.01001C200.156 9.01001 200.667 9.29901 200.723 9.36801V8.409C200.723 8.409 200.178 8.112 199.594 8.112C198.912 8.112 197.946 8.48101 197.946 9.53601C197.946 10.482 198.789 10.879 199.219 11.034C199.699 11.207 200.125 11.556 200.125 12.044C200.125 12.507 199.761 12.835 199.135 12.835C198.697 12.835 198.092 12.614 197.91 12.478V13.438H197.911Z" fill="#000"/><path d="M206.816 8.078H205.759V13.763H206.816V8.078Z" fill="#000"/><path d="M187.073 9.073V8.112H184.026V13.8H187.073V12.84H185.083V11.315H187.032V10.354H185.083V9.073H187.073Z" fill="#000"/><path d="M210.637 9.073V8.112H207.589V13.8H210.637V12.84H208.646V11.315H210.595V10.354H208.646V9.073H210.637Z" fill="#000"/><path d="M222.885 9.073V8.112H219.837V13.8H222.885V12.84H220.894V11.315H222.843V10.354H220.894V9.073H222.885Z" fill="#000"/><path d="M176.739 8.112C177.987 8.112 179.053 8.85201 179.053 10.954C179.053 12.506 178.467 13.796 176.739 13.796C175.218 13.796 174.426 12.575 174.426 10.954C174.426 9.00501 175.509 8.112 176.739 8.112ZM175.483 10.958C175.483 11.759 175.813 12.874 176.739 12.874C177.428 12.874 177.996 12.2 177.996 10.954C177.996 9.85401 177.422 9.07199 176.739 9.07199C175.862 9.07199 175.483 10.081 175.483 10.958Z" fill="#000"/><path d="M205.095 8.33099C204.978 8.24399 204.601 8.112 204.089 8.112C202.834 8.112 201.696 8.98101 201.696 10.954C201.696 12.893 202.829 13.796 204.088 13.796C204.587 13.796 204.827 13.703 205.067 13.546V12.647C204.782 12.796 204.587 12.835 204.088 12.835C203.255 12.835 202.753 12.003 202.753 10.954C202.753 9.87201 203.255 9.07501 204.088 9.07501C204.587 9.07501 204.782 9.12101 205.095 9.25201V8.33099Z" fill="#000"/><path d="M219.234 8.33099C219.117 8.24399 218.74 8.112 218.229 8.112C216.973 8.112 215.836 8.98101 215.836 10.954C215.836 12.893 216.969 13.796 218.227 13.796C218.726 13.796 218.967 13.703 219.207 13.546V12.647C218.921 12.796 218.726 12.835 218.227 12.835C217.394 12.835 216.892 12.003 216.892 10.954C216.892 9.87201 217.394 9.07501 218.227 9.07501C218.726 9.07501 218.921 9.12101 219.234 9.25201V8.33099Z" fill="#000"/><path d="M45.19 32.12C47.463 29.464 48.708 26.324 48.942 24.245L48.976 23.224H45.072V20.756H50.041V19.735L45.072 19.733V17.424H44.051V19.732L38.036 19.729V33.054H36.15V17.424H35.129V33.054H33.241V19.764H32.22V36.473H33.241V34.075H39.057V20.757H44.051V23.225H40.14L40.178 24.246C40.391 26.307 41.618 29.449 43.877 32.119C42.466 33.625 40.801 34.816 39.054 35.384V36.405C41.246 35.656 43.07 34.362 44.532 32.846C46.005 34.39 47.849 35.712 50.074 36.472V35.451C48.303 34.874 46.614 33.657 45.19 32.12ZM41.214 24.245H47.908C47.57 26.616 46.306 29.231 44.536 31.37C42.781 29.224 41.534 26.608 41.214 24.245Z" fill="#000"/><path d="M69.11 32.951H60.693V30.69H67.787V25.919H53.625V23.94H67.788V19.21H60.689V17.425H59.668V19.21H52.605V30.69H59.674V32.951H51.257V33.972H59.674V36.48H60.695V33.972H69.112V32.951H69.11ZM53.625 20.231H66.767V22.92H53.625V20.231ZM53.625 26.94H66.768V29.67H53.625V26.94Z" fill="#000"/><path d="M71.312 29.308V17.425H70.292V30.328H78.708V36.479H79.729V30.328H88.146V29.308H71.312Z" fill="#000"/><path d="M70.417 35.458V36.479C72.783 36.135 75.464 33.856 75.733 30.985H74.712C74.414 33.218 72.146 35.161 70.417 35.458Z" fill="#000"/><path d="M87.944 35.458V36.479C85.578 36.135 82.897 33.856 82.629 30.985H83.65C83.947 33.218 86.216 35.161 87.944 35.458Z" fill="#000"/><path d="M85.875 27.835H86.896V17.425H73.353V27.833L85.875 27.835ZM74.374 26.813V24.542H85.876V26.813H74.374ZM74.374 23.522V21.481H85.876V23.522H74.374ZM85.875 18.444V20.46H74.374V18.444H85.875Z" fill="#000"/><path d="M107.181 20.485V19.465H98.764V17.424H97.743V19.465H89.326V20.485H93.277V35.458H89.326V36.479H107.18V35.458H103.224V20.485H107.181ZM102.205 35.458H94.299V20.485H102.205V35.458Z" fill="#000"/><path d="M127.759 19.158H119.542V17.612H118.113V19.158H109.9V20.587H115.874C114.86 22.971 111.606 24.739 109.9 24.856V26.285C112.247 26.055 116.44 23.957 117.411 20.588H118.113V26.788H119.542V20.588H120.244C121.216 23.957 125.408 26.055 127.755 26.285V24.856C126.049 24.74 122.795 22.971 121.781 20.587H127.76V19.158H127.759Z" fill="#000"/><path d="M117.213 29.17H118.632V27.741H115.692V26.216H114.263V27.741H109.908V29.17H112.779C112.381 32.037 110.963 33.603 109.56 34.347V36.031C111.658 35.154 113.802 32.938 114.226 29.171H114.264V36.748H115.693V29.171H115.742C116.118 30.736 117.171 32.205 118.892 32.844V31.159C117.876 30.623 117.442 30.049 117.213 29.17Z" fill="#000"/><path d="M124.954 29.17H127.76V27.741H123.391V26.208H121.962V27.741H118.969V29.17H120.41C120.012 32.037 118.594 33.603 117.191 34.347V36.031C119.289 35.154 121.433 32.938 121.857 29.171H121.962V36.748H123.391V29.171H123.507C123.931 32.939 126.075 35.154 128.173 36.031V34.347C126.77 33.603 125.352 32.037 124.954 29.17Z" fill="#000"/><path d="M173.946 17.618H172.516C172.346 21.136 170.096 25.097 166.563 27.489V29.173C168.09 28.36 169.44 27.242 170.557 25.935V36.748H171.986V23.693C173.071 21.891 173.765 19.628 173.946 17.618Z" fill="#000"/><path d="M138.237 21.517H136.539C136.829 24.367 137.575 25.259 138.492 26.484V28.422C137.062 27.183 135.596 25.13 135.191 21.517H135.181V36.747H133.752V21.517H133.704C133.491 27.401 131.853 31.244 128.813 33.343V31.659C131.666 28.786 132.107 25.583 132.357 21.516H129.469V20.086H133.752V17.611H135.181V20.086H138.238V21.517H138.237Z" fill="#000"/><path d="M138.528 21.517H140.21C139.929 25.527 139.34 28.595 136.676 31.603V33.287C139.706 31.194 141.342 27.369 141.564 21.517H141.616V36.747H143.045V21.517H143.112C143.326 27.401 144.964 31.244 148.004 33.343V31.659C145.183 28.653 144.716 25.557 144.462 21.516H147.329V20.086H143.046V17.611H141.617V20.086H138.529V21.517H138.528Z" fill="#000"/><path d="M166.641 21.511V20.082H158.401V17.612H156.972V20.082H148.782V21.511H151.863C152.643 24.902 154.418 28.214 156.705 30.882C154.436 33.242 151.686 34.98 148.782 35.316V36.744C151.873 36.524 155.057 34.685 157.709 31.979C160.361 34.685 163.546 36.524 166.636 36.744V35.316C163.733 34.98 160.982 33.243 158.713 30.882C161.001 28.214 162.775 24.902 163.556 21.511H166.641ZM157.709 29.761C155.618 27.256 154.052 24.256 153.328 21.511H162.09C161.366 24.256 159.8 27.256 157.709 29.761Z" fill="#000"/><path d="M231.128 17.692H220.547V19.121H231.128V17.692Z" fill="#000"/><path d="M270.198 25.397H255.146V26.825H270.198V25.397Z" fill="#000"/><path d="M201.714 17.692H185.897V19.121H200.228C199.828 23.985 197.343 26.192 194.061 26.442V20.938H192.632V27.868C192.632 31.243 189.767 35.318 185.897 35.318V36.747C190.38 36.747 194.057 32.508 194.061 27.876C197.789 27.644 201.214 25.346 201.665 19.121H201.715V17.692H201.714Z" fill="#000"/><path d="M210.825 20.167V17.692H209.395V20.167H203.094V21.596H209.395V24.649C209.395 30.5 206.413 33.736 203.094 35.319V36.748C206.938 35.687 210.824 31.129 210.824 24.662V21.597H217.482C217.482 24.854 217.482 33.143 217.482 33.448C217.482 34.528 216.781 35.323 215.791 35.323C215.449 35.323 213.016 35.323 213.016 35.323V36.752C213.016 36.752 215.236 36.752 215.702 36.752C217.412 36.752 218.912 35.538 218.912 33.539C218.912 33.048 218.912 20.245 218.912 20.245V20.169H210.825V20.167Z" fill="#000"/><path d="M236.364 22.718H220.547V24.148H228.124V28.814C228.124 32.683 224.912 35.322 220.547 35.322V36.751C225.032 36.751 229.553 34.125 229.553 28.814V24.148H236.365V22.718H236.364Z" fill="#000"/><path d="M236.365 17.692H234.937V19.215H236.365V17.692Z" fill="#000"/><path d="M233.742 17.692H232.389V19.215H233.742V17.692Z" fill="#000"/><path d="M184.418 22.456V20.772C182.231 22.418 179.548 23.842 177.043 24.252C177.043 20.762 177.043 17.611 177.043 17.611H175.614C175.614 17.611 175.614 32.912 175.614 33.529C175.614 35.734 177.114 36.742 178.825 36.742C179.29 36.742 184.415 36.742 184.415 36.742V35.314C184.415 35.314 179.076 35.314 178.735 35.314C177.745 35.314 177.043 34.519 177.043 33.439C177.043 33.252 177.043 29.483 177.043 25.669C179.828 25.187 182.833 23.603 184.418 22.456Z" fill="#000"/><path d="M253.829 17.61H238.087V19.039H253.829V17.61Z" fill="#000"/><path d="M253.829 22.739H238.087V24.169H253.829V22.739Z" fill="#000"/><path d="M253.829 35.235C253.829 35.235 244.28 35.235 243.897 35.235C240.807 35.235 239.516 33.286 239.516 31.86C239.516 31.519 239.516 30.004 239.516 30.004H238.086C238.086 30.004 238.086 31.245 238.086 31.711C238.086 34.187 239.757 36.665 243.807 36.665C244.425 36.665 253.828 36.665 253.828 36.665V35.235H253.829Z" fill="#000"/><path d="M173.979 9.073V8.10599H170.957V13.748H172.02V9.073H173.979Z" fill="#000"/><path d="M174.136 10.325C174.115 10.745 172.991 11.847 172.152 11.227C171.983 10.294 173.706 9.95803 174.136 10.325Z" fill="#000"/><path d="M3.077 30.092C3.077 29.092 2.578 24.436 10.745 21.269C18.911 18.102 27.328 13.936 27.328 5.85199C27.328 4.99699 27.328 1.522 27.328 1.397C27.328 1.147 27.394 1.069 27.749 1.069C27.749 1.069 31.546 1.069 32.255 1.069V0.429993C32.255 0.429993 21.999 0.429993 21.745 0.429993C7.245 0.429993 2.953 12.414 2.953 19.644C2.953 23.477 2.929 30.092 2.929 30.092" fill="#00833E"/><path d="M3.006 29.519C3.006 31.644 6.011 33.019 6.011 36.019C6.011 33.019 3.006 31.644 3.006 29.519Z" fill="#00AFEC"/><path d="M3.006 29.519C3.006 31.644 6.011 33.019 6.011 36.019C6.011 33.019 3.006 31.644 3.006 29.519Z" fill="#0098CC"/><path d="M6.011 36.019C6.011 33.019 3.006 31.644 3.006 29.519C3.006 31.644 6.011 33.019 6.011 36.019Z" fill="#0098CC"/><path d="M6.011 36.019C6.011 33.019 3.006 31.644 3.006 29.519C3.006 31.644 6.011 33.019 6.011 36.019Z" fill="#0096C8"/><path d="M6.011 36.019C6.011 33.019 3.006 31.644 3.006 29.519C3.006 31.644 6.011 33.019 6.011 36.019Z" fill="#0093C4"/><path d="M6.011 36.019C6.011 33.019 3.006 31.644 3.006 29.519C3.006 31.644 6.011 33.019 6.011 36.019Z" fill="#0090C1"/><path d="M6.011 36.019C6.011 33.019 3.006 31.644 3.006 29.519C3.006 31.644 6.011 33.019 6.011 36.019Z" fill="#008DBD"/><path d="M6.011 36.019C6.011 33.019 3.006 31.644 3.006 29.519C3.006 31.644 6.011 33.019 6.011 36.019Z" fill="#008ABA"/><path d="M6.011 36.019C6.011 33.019 3.006 31.644 3.006 29.519C3.006 31.644 6.011 33.019 6.011 36.019Z" fill="#0088B6"/><path d="M6.011 36.019C6.011 33.019 3.006 31.644 3.006 29.519C3.006 31.644 6.011 33.019 6.011 36.019Z" fill="#0085B2"/><path d="M6.011 36.019C6.011 33.019 3.006 31.644 3.006 29.519C3.006 31.644 6.011 33.019 6.011 36.019Z" fill="#0082AE"/><path d="M6.011 36.019C6.011 33.019 3.006 31.644 3.006 29.519C3.006 31.644 6.011 33.019 6.011 36.019Z" fill="#007FAA"/><path d="M6.011 36.019C6.011 33.019 3.006 31.644 3.006 29.519C3.006 31.644 6.011 33.019 6.011 36.019Z" fill="#007CA6"/><path d="M6.011 36.019C6.011 33.019 3.006 31.644 3.006 29.519C3.006 31.644 6.011 33.019 6.011 36.019Z" fill="#0078A2"/><path d="M6.011 36.019C6.011 33.019 3.006 31.644 3.006 29.519C3.006 31.644 6.011 33.019 6.011 36.019Z" fill="#00769E"/><path d="M6.011 36.019C6.011 33.019 3.006 31.644 3.006 29.519C3.006 31.644 6.011 33.019 6.011 36.019Z" fill="#00739A"/><path d="M6.011 36.019C6.011 33.019 3.006 31.644 3.006 29.519C3.006 31.644 6.011 33.019 6.011 36.019Z" fill="#006F95"/><path d="M6.011 36.019C6.011 36.185 5.997 36.348 5.972 36.507C5.946 36.665 5.908 36.82 5.858 36.969C5.808 37.118 5.748 37.262 5.675 37.4C5.604 37.539 5.522 37.67 5.431 37.795C5.34 37.919 5.24 38.036 5.13 38.145C5.028 38.239 4.889 38.36 4.78 38.446C4.656 38.537 4.524 38.619 4.386 38.69C4.248 38.761 4.104 38.823 3.954 38.872C3.805 38.922 3.65 38.961 3.492 38.986C3.333 39.012 3.171 39.025 3.005 39.025C4.665 39.023 6.011 37.679 6.011 36.019Z" fill="#00AFEC"/><path d="M6.011 36.019C6.011 36.185 5.997 36.348 5.972 36.507C5.946 36.665 5.908 36.82 5.858 36.969C5.808 37.118 5.748 37.262 5.675 37.4C5.604 37.539 5.522 37.67 5.431 37.795C5.34 37.919 5.24 38.036 5.13 38.145C5.028 38.239 4.889 38.36 4.78 38.446C4.656 38.537 4.524 38.619 4.386 38.69C4.248 38.761 4.104 38.823 3.954 38.872C3.805 38.922 3.65 38.961 3.492 38.986C3.333 39.012 3.171 39.025 3.005 39.025C4.665 39.023 6.011 37.679 6.011 36.019Z" fill="#0098CC"/><path d="M5.972 36.507C5.946 36.665 5.908 36.82 5.858 36.969C5.808 37.118 5.748 37.262 5.675 37.4C5.604 37.539 5.522 37.67 5.431 37.795C5.34 37.919 5.24 38.036 5.13 38.145C5.028 38.239 4.889 38.36 4.78 38.446C4.656 38.537 4.524 38.619 4.386 38.69C4.248 38.761 4.104 38.823 3.954 38.872C3.805 38.922 3.65 38.961 3.492 38.986C3.333 39.012 3.171 39.025 3.005 39.025C4.664 39.025 6.01 37.68 6.01 36.02C6.011 36.185 5.997 36.348 5.972 36.507Z" fill="#0098CC"/><path d="M5.972 36.507C5.946 36.665 5.908 36.82 5.858 36.969C5.808 37.118 5.748 37.262 5.675 37.4C5.604 37.539 5.522 37.67 5.431 37.795C5.34 37.919 5.24 38.036 5.13 38.145C5.028 38.239 4.889 38.36 4.78 38.446C4.656 38.537 4.524 38.619 4.386 38.69C4.248 38.761 4.104 38.823 3.954 38.872C3.805 38.922 3.65 38.961 3.492 38.986C3.333 39.012 3.171 39.025 3.005 39.025C4.664 39.025 6.01 37.68 6.01 36.02C6.011 36.185 5.997 36.348 5.972 36.507Z" fill="#0096C8"/><path d="M5.972 36.507C5.946 36.665 5.908 36.82 5.858 36.969C5.808 37.118 5.748 37.262 5.675 37.4C5.604 37.539 5.522 37.67 5.431 37.795C5.34 37.919 5.24 38.036 5.13 38.145C5.028 38.239 4.889 38.36 4.78 38.446C4.656 38.537 4.524 38.619 4.386 38.69C4.248 38.761 4.104 38.823 3.954 38.872C3.805 38.922 3.65 38.961 3.492 38.986C3.333 39.012 3.171 39.025 3.005 39.025C4.664 39.025 6.01 37.68 6.01 36.02C6.011 36.185 5.997 36.348 5.972 36.507Z" fill="#0093C4"/><path d="M5.972 36.507C5.946 36.665 5.908 36.82 5.858 36.969C5.808 37.118 5.748 37.262 5.675 37.4C5.604 37.539 5.522 37.67 5.431 37.795C5.34 37.919 5.24 38.036 5.13 38.145C5.028 38.239 4.889 38.36 4.78 38.446C4.656 38.537 4.524 38.619 4.386 38.69C4.248 38.761 4.104 38.823 3.954 38.872C3.805 38.922 3.65 38.961 3.492 38.986C3.333 39.012 3.171 39.025 3.005 39.025C4.664 39.025 6.01 37.68 6.01 36.02C6.011 36.185 5.997 36.348 5.972 36.507Z" fill="#0090C1"/><path d="M5.972 36.507C5.946 36.665 5.908 36.82 5.858 36.969C5.808 37.118 5.748 37.262 5.675 37.4C5.604 37.539 5.522 37.67 5.431 37.795C5.34 37.919 5.24 38.036 5.13 38.145C5.028 38.239 4.889 38.36 4.78 38.446C4.656 38.537 4.524 38.619 4.386 38.69C4.248 38.761 4.104 38.823 3.954 38.872C3.805 38.922 3.65 38.961 3.492 38.986C3.333 39.012 3.171 39.025 3.005 39.025C4.664 39.025 6.01 37.68 6.01 36.02C6.011 36.185 5.997 36.348 5.972 36.507Z" fill="#008DBD"/><path d="M5.972 36.507C5.946 36.665 5.908 36.82 5.858 36.969C5.808 37.118 5.748 37.262 5.675 37.4C5.604 37.539 5.522 37.67 5.431 37.795C5.34 37.919 5.24 38.036 5.13 38.145C5.028 38.239 4.889 38.36 4.78 38.446C4.656 38.537 4.524 38.619 4.386 38.69C4.248 38.761 4.104 38.823 3.954 38.872C3.805 38.922 3.65 38.961 3.492 38.986C3.333 39.012 3.171 39.025 3.005 39.025C4.664 39.025 6.01 37.68 6.01 36.02C6.011 36.185 5.997 36.348 5.972 36.507Z" fill="#008ABA"/><path d="M5.972 36.507C5.946 36.665 5.908 36.82 5.858 36.969C5.808 37.118 5.748 37.262 5.675 37.4C5.604 37.539 5.522 37.67 5.431 37.795C5.34 37.919 5.24 38.036 5.13 38.145C5.028 38.239 4.889 38.36 4.78 38.446C4.656 38.537 4.524 38.619 4.386 38.69C4.248 38.761 4.104 38.823 3.954 38.872C3.805 38.922 3.65 38.961 3.492 38.986C3.333 39.012 3.171 39.025 3.005 39.025C4.664 39.025 6.01 37.68 6.01 36.02C6.011 36.185 5.997 36.348 5.972 36.507Z" fill="#0088B6"/><path d="M5.972 36.507C5.946 36.665 5.908 36.82 5.858 36.969C5.808 37.118 5.748 37.262 5.675 37.4C5.604 37.539 5.522 37.67 5.431 37.795C5.34 37.919 5.24 38.036 5.13 38.145C5.028 38.239 4.889 38.36 4.78 38.446C4.656 38.537 4.524 38.619 4.386 38.69C4.248 38.761 4.104 38.823 3.954 38.872C3.805 38.922 3.65 38.961 3.492 38.986C3.333 39.012 3.171 39.025 3.005 39.025C4.664 39.025 6.01 37.68 6.01 36.02C6.011 36.185 5.997 36.348 5.972 36.507Z" fill="#0085B2"/><path d="M5.972 36.507C5.946 36.665 5.908 36.82 5.858 36.969C5.808 37.118 5.748 37.262 5.675 37.4C5.604 37.539 5.522 37.67 5.431 37.795C5.34 37.919 5.24 38.036 5.13 38.145C5.028 38.239 4.889 38.36 4.78 38.446C4.656 38.537 4.524 38.619 4.386 38.69C4.248 38.761 4.104 38.823 3.954 38.872C3.805 38.922 3.65 38.961 3.492 38.986C3.333 39.012 3.171 39.025 3.005 39.025C4.664 39.025 6.01 37.68 6.01 36.02C6.011 36.185 5.997 36.348 5.972 36.507Z" fill="#0082AE"/><path d="M5.972 36.507C5.946 36.665 5.908 36.82 5.858 36.969C5.808 37.118 5.748 37.262 5.675 37.4C5.604 37.539 5.522 37.67 5.431 37.795C5.34 37.919 5.24 38.036 5.13 38.145C5.028 38.239 4.889 38.36 4.78 38.446C4.656 38.537 4.524 38.619 4.386 38.69C4.248 38.761 4.104 38.823 3.954 38.872C3.805 38.922 3.65 38.961 3.492 38.986C3.333 39.012 3.171 39.025 3.005 39.025C4.664 39.025 6.01 37.68 6.01 36.02C6.011 36.185 5.997 36.348 5.972 36.507Z" fill="#007FAA"/><path d="M5.972 36.507C5.946 36.665 5.908 36.82 5.858 36.969C5.808 37.118 5.748 37.262 5.675 37.4C5.604 37.539 5.522 37.67 5.431 37.795C5.34 37.919 5.24 38.036 5.13 38.145C5.028 38.239 4.889 38.36 4.78 38.446C4.656 38.537 4.524 38.619 4.386 38.69C4.248 38.761 4.104 38.823 3.954 38.872C3.805 38.922 3.65 38.961 3.492 38.986C3.333 39.012 3.171 39.025 3.005 39.025C4.664 39.025 6.01 37.68 6.01 36.02C6.011 36.185 5.997 36.348 5.972 36.507Z" fill="#007CA6"/><path d="M5.972 36.507C5.946 36.665 5.908 36.82 5.858 36.969C5.808 37.118 5.748 37.262 5.675 37.4C5.604 37.539 5.522 37.67 5.431 37.795C5.34 37.919 5.24 38.036 5.13 38.145C5.028 38.239 4.889 38.36 4.78 38.446C4.656 38.537 4.524 38.619 4.386 38.69C4.248 38.761 4.104 38.823 3.954 38.872C3.805 38.922 3.65 38.961 3.492 38.986C3.333 39.012 3.171 39.025 3.005 39.025C4.664 39.025 6.01 37.68 6.01 36.02C6.011 36.185 5.997 36.348 5.972 36.507Z" fill="#0078A2"/><path d="M5.972 36.507C5.946 36.665 5.908 36.82 5.858 36.969C5.808 37.118 5.748 37.262 5.675 37.4C5.604 37.539 5.522 37.67 5.431 37.795C5.34 37.919 5.24 38.036 5.13 38.145C5.028 38.239 4.889 38.36 4.78 38.446C4.656 38.537 4.524 38.619 4.386 38.69C4.248 38.761 4.104 38.823 3.954 38.872C3.805 38.922 3.65 38.961 3.492 38.986C3.333 39.012 3.171 39.025 3.005 39.025C4.664 39.025 6.01 37.68 6.01 36.02C6.011 36.185 5.997 36.348 5.972 36.507Z" fill="#00769E"/><path d="M5.972 36.507C5.946 36.665 5.908 36.82 5.858 36.969C5.808 37.118 5.748 37.262 5.675 37.4C5.604 37.539 5.522 37.67 5.431 37.795C5.34 37.919 5.24 38.036 5.13 38.145C5.028 38.239 4.889 38.36 4.78 38.446C4.656 38.537 4.524 38.619 4.386 38.69C4.248 38.761 4.104 38.823 3.954 38.872C3.805 38.922 3.65 38.961 3.492 38.986C3.333 39.012 3.171 39.025 3.005 39.025C4.664 39.025 6.01 37.68 6.01 36.02C6.011 36.185 5.997 36.348 5.972 36.507Z" fill="#00739A"/><path d="M5.972 36.507C5.946 36.665 5.908 36.82 5.858 36.969C5.808 37.118 5.748 37.262 5.675 37.4C5.604 37.539 5.522 37.67 5.431 37.795C5.34 37.919 5.24 38.036 5.13 38.145C5.028 38.239 4.889 38.36 4.78 38.446C4.656 38.537 4.524 38.619 4.386 38.69C4.248 38.761 4.104 38.823 3.954 38.872C3.805 38.922 3.65 38.961 3.492 38.986C3.333 39.012 3.171 39.025 3.005 39.025C4.664 39.025 6.01 37.68 6.01 36.02C6.011 36.185 5.997 36.348 5.972 36.507Z" fill="#006F95"/><path d="M3.006 39.023C2.84 39.023 2.677 39.01 2.519 38.984C2.36 38.959 2.206 38.92 2.056 38.87C1.925 38.821 1.752 38.748 1.625 38.688C1.487 38.617 1.355 38.535 1.23 38.444C1.106 38.352 0.989 38.252 0.88 38.143C0.771 38.034 0.671 37.917 0.579 37.793C0.488 37.668 0.406 37.537 0.335 37.398C0.264 37.26 0.202 37.117 0.152 36.967C0.103 36.818 0.064 36.663 0.039 36.505C0.014 36.348 0 36.185 0 36.019C0 36.019 1.312 36.019 2.953 36.019C4.612 36.019 5.981 36.019 6.011 36.019C6.011 37.679 4.665 39.023 3.006 39.023Z" fill="#00AFEC"/><path d="M0 36.019C0 33.019 3.006 31.644 3.006 29.519C3.006 31.644 6.011 33.019 6.011 36.019C5.982 36.019 4.613 36.019 2.953 36.019C1.312 36.019 0 36.019 0 36.019Z" fill="#00AFEC"/><path d="M2.995 29.741C2.935 30.345 2.659 30.802 2.437 31.169C2.773 30.643 3.005 30.109 3.005 29.519C3.004 29.586 3.002 29.675 2.995 29.741Z" fill="#0090C1"/><path d="M3.004 29.599C2.983 30.132 2.805 30.492 2.649 30.809C2.867 30.398 3.006 29.976 3.006 29.519C3.005 29.543 3.005 29.575 3.004 29.599Z" fill="#008DBD"/><path d="M2.993 29.757C2.954 30.121 2.843 30.386 2.776 30.544C2.92 30.216 3.005 29.878 3.005 29.519C3.003 29.59 3.001 29.686 2.993 29.757Z" fill="#008ABA"/><path d="M3.004 29.604C2.994 29.824 2.967 30.014 2.858 30.336C2.952 30.073 3.005 29.803 3.005 29.519C3.005 29.544 3.005 29.578 3.004 29.604Z" fill="#0088B6"/><path d="M2.989 29.794C2.971 29.936 2.93 30.101 2.918 30.148C2.975 29.945 3.006 29.736 3.006 29.519C3.003 29.602 2.999 29.712 2.989 29.794Z" fill="#0085B2"/><path d="M3.003 29.627C2.994 29.782 2.983 29.844 2.961 29.966C2.99 29.82 3.006 29.671 3.006 29.519C3.005 29.551 3.005 29.595 3.003 29.627Z" fill="#0082AE"/><path d="M2.989 29.786C3 29.698 3.006 29.609 3.006 29.518C3.002 29.599 2.998 29.706 2.989 29.786Z" fill="#007FAA"/><path d="M3.004 29.596C3.005 29.571 3.006 29.544 3.006 29.519L3.004 29.596Z" fill="#007CA6"/><path d="M2.948 30.594C2.948 30.585 2.95 30.573 2.951 30.564C2.951 30.573 2.95 30.585 2.948 30.594Z" fill="#B7E1F9"/></svg>