<?xml version="1.0"?>
<svg xmlns="http://www.w3.org/2000/svg" version="1.2" baseProfile="tiny" width="800" height="921" viewBox="0 0 800 921" stroke-linecap="round" stroke-linejoin="round">
<g id="18" fill="none" stroke="black" stroke-width="1">
<path d="M 735 445.27 799 551.89 M 725.07 454.31 781.48 548.29 M 728.46 452.28 784.86 546.25 M 711.07 448.9 774.53 554.62 M 721.91 456.21 778.32 550.19 M 731.62 450.38 788.02 544.35 M 298.2 693.85 299.64 694.21 M 468.71 736.41 470.16 736.77 M 296.39 694.93 300.73 696.02 M 466.91 737.49 471.38 738.8 M 294.36 696.16 301.81 697.82 M 465.1 738.58 472.46 740.61 M 292.56 697.24 303.03 699.86 M 463.07 739.8 473.55 742.41 M 290.75 698.33 304.12 701.66 M 461.26 740.88 474.77 744.45 M 288.72 699.55 305.34 703.7 M 459.46 741.97 475.85 746.25 M 286.92 700.64 306.42 705.5 M 457.43 743.19 476.94 748.06 M 287.05 702.4 305.34 706.77 M 457.79 744.82 476.21 749.42 M 288.14 704.2 303.54 707.86 M 458.88 746.63 474.18 750.64 M 289.22 706.01 301.73 708.94 M 460.1 748.66 472.38 751.72 M 290.44 708.04 299.7 710.16 M 461.18 750.47 470.57 752.81 M 291.53 709.85 297.89 711.25 M 462.26 752.27 468.54 754.03 M 292.61 711.66 296.09 712.33 M 463.49 754.31 466.74 755.12 M 293.83 713.69 294.06 713.56 M 464.57 756.11 464.93 756.2 M 361.3 801.01 364.19 801.73 M 359.49 802.1 365.27 803.54 M 357.69 803.18 366.49 805.57 M 355.65 804.41 367.58 807.38 M 353.85 805.49 368.66 809.19 M 352.04 806.58 369.88 811.22 M 350.37 807.89 370.6 812.94 M 351.59 809.92 368.8 814.02 M 352.68 811.73 366.77 815.24 M 353.76 813.54 364.96 816.33 M 354.98 815.57 363.16 817.42 M 356.07 817.38 361.13 818.64 M 357.15 819.18 359.32 819.72 M 358.36 802.78 301.96 708.81 M 355.2 804.68 298.8 710.71 M 345.91 821.95 92.22 399.31 M 355.39 816.25 96.55 385.02 M 305.12 706.91 361.52 800.88 M 295.41 712.74 351.82 806.71 M 114.56 385.87 363.1 799.93 M 234.35 758.38 1 369.63 M 518.07 106.89 93.01 1 M 93.01 1 1 369.63 M 92.62 27.98 85.17 32.46 M 93.07 26.17 85.4 30.79 M 124.66 8.71 116.31 13.73 M 122.86 8.26 114.51 13.28 M 162.96 18.27 154.61 23.29 M 161.28 18.04 152.94 23.06 M 437.66 113.14 29.44 358.67 M 439.24 113.72 28.99 360.48 M 431.73 85.35 423.38 90.37 M 430.06 85.12 421.71 90.14 M 393.44 75.79 385.09 80.81 M 8 371.56 3.71 374.14 M 8.68 372.69 4.39 375.27 M 316.62 56.81 308.27 61.83 M 314.82 56.36 306.69 61.25 M 278.2 47.03 269.85 52.05 M 276.52 46.8 268.18 51.82 M 239.68 37.61 231.55 42.49 M 238.1 37.02 229.75 42.04 M 201.38 28.05 193.03 33.07 M 199.58 27.6 191.45 32.48 M 391.63 75.34 383.28 80.36 M 354.92 66.37 346.79 71.25 M 353.34 65.78 344.99 70.8 M 468.58 94.54 460.23 99.56 M 470.16 95.13 462.03 100.02 M 674.43 331.05 731.37 345.07 M 731.37 345.07 745.74 288.16 M 745.74 288.16 688.66 273.92 M 688.66 273.92 674.43 331.05 M 679.84 327.8 728.12 339.65 M 728.12 339.65 740.32 291.42 M 740.32 291.42 691.91 279.34 M 691.91 279.34 679.84 327.8 M 675.35 361.24 716.53 371.52 M 716.53 371.52 733.51 302.59 M 733.51 302.59 692.69 292.4 M 692.69 292.4 675.35 361.24 M 752.06 284.36 711.07 448.9 M 761.99 283 723.35 438.14 M 765.6 283.9 726.96 439.04 M 718.83 440.85 758.38 282.1 M 729.67 443.56 769.21 284.8 M 587.69 243.34 752.06 284.36 M 758.82 272.61 603.84 233.93 M 757.92 276.22 602.94 237.55 M 601.13 229.41 759.72 268.99 M 598.43 240.26 757.02 279.84 M 602.12 223.9 779.14 268.08 M 779.14 268.08 735 445.27 M 587.69 243.34 711.07 448.9 M 480.1 330.18 583.83 502.99 M 484.11 314.86 599.36 506.87 M 514 391.27 479.29 333.44 M 479.29 333.44 421.75 368.05 M 530 417.92 525.85 411.51 M 525.85 411.51 521.01 405.5 M 521.01 405.5 515.95 399.63 M 515.95 399.63 510.35 394.39 M 510.35 394.39 504.3 389.42 M 504.3 389.42 497.84 385.31 M 497.84 385.31 491.15 381.34 M 491.15 381.34 484.29 378.09 M 484.29 378.09 477.11 375.33 M 477.11 375.33 469.61 373.08 M 469.61 373.08 461.93 371.55 M 461.93 371.55 454.3 370.6 M 454.3 370.6 446.72 370.25 M 446.72 370.25 438.95 370.61 M 438.95 370.61 431.32 371.21 M 431.32 371.21 423.65 372.75 M 423.65 372.75 416.24 374.74 M 416.24 374.74 409.02 377.55 M 409.02 377.55 401.94 380.58 M 401.94 380.58 395.26 384.29 M 395.12 384.06 445.83 468.55 M 445.83 468.55 530 417.92 M 592.74 244.6 712.2 443.61 M 104.59 403.55 214.42 586.52 M 307.47 434.02 411.2 606.82 M 292.07 430.36 407.33 622.37 M 345.43 492.65 310.72 434.83 M 310.72 434.83 368.27 400.22 M 395.26 384.29 388.85 388.45 M 388.85 388.45 382.85 393.29 M 382.85 393.29 376.98 398.36 M 376.98 398.36 371.75 403.97 M 371.75 403.97 366.78 410.02 M 366.78 410.02 362.68 416.49 M 362.68 416.49 358.71 423.18 M 358.71 423.18 355.46 430.05 M 355.46 430.05 352.71 437.24 M 352.71 437.24 350.46 444.74 M 350.46 444.74 348.93 452.43 M 348.93 452.43 347.99 460.07 M 347.99 460.07 347.63 467.66 M 347.63 467.66 348 475.43 M 348 475.43 348.59 483.07 M 348.59 483.07 350.13 490.75 M 350.13 490.75 352.12 498.16 M 352.12 498.16 354.92 505.39 M 354.92 505.39 357.95 512.49 M 357.95 512.49 361.66 519.17 M 395.12 384.06 445.83 468.55 M 445.83 468.55 361.43 519.31 M 533.36 513.05 533.59 512.92 M 456.37 566.43 456.5 566.66 M 543.99 470.38 544.21 470.25 M 470.18 564.89 470.59 565.57 M 438.44 566.76 438.67 566.63 M 350.49 492.38 350.72 492.24 M 187.41 557.88 133.47 590.32 M 187.95 558.78 134.02 591.22 M 172.9 533.71 118.96 566.15 M 173.58 534.84 119.64 567.28 M 158.53 509.77 104.59 542.21 M 159.2 510.9 105.27 543.34 M 144.15 485.82 90.22 518.26 M 144.83 486.95 90.9 519.39 M 129.78 461.88 75.85 494.32 M 130.32 462.78 76.39 495.22 M 115.27 437.71 61.34 470.15 M 115.95 438.84 62.02 471.28 M 100.9 413.76 46.97 446.2 M 101.58 414.89 47.64 447.33 M 96 384.12 32.59 422.26 M 96.55 385.02 33.14 423.16 M 508.68 104.55 500.33 109.57 M 506.87 104.1 498.52 109.12 M 16.73 395.83 16.46 395.38 M 528.22 100.79 602.12 223.9 M 536.32 132.19 592.73 226.16 M 532.94 134.23 589.35 228.2 M 529.78 136.13 586.19 230.1 M 539.48 130.29 595.89 224.26 M 524.09 137.4 587.69 243.34 M 314.95 265.34 307.22 252.47 M 307.22 252.47 320.08 244.73 M 320.08 244.73 327.81 257.61 M 327.81 257.61 314.95 265.34 M 318.28 245.82 321.17 246.54 M 316.47 246.9 322.25 248.34 M 314.67 247.99 323.47 250.38 M 312.64 249.21 324.56 252.18 M 310.83 250.29 325.64 253.99 M 309.03 251.38 326.86 256.02 M 307.36 252.69 327.59 257.74 M 308.58 254.73 325.78 258.83 M 309.66 256.53 323.75 260.05 M 310.75 258.34 321.95 261.13 M 311.97 260.37 320.14 262.22 M 313.05 262.18 318.11 263.44 M 314.14 263.99 316.3 264.53 M 306.95 252.01 315.53 246.86 M 312.68 242.11 304.1 247.27 M 312.41 241.66 303.83 246.82 M 301.93 243.66 310.51 238.5 M 320.08 244.73 307.22 252.47 M 538.87 162.02 128.39 408.91 M 552.7 185.06 142.22 431.95 M 509.72 113.45 99.24 360.34 M 307.22 252.47 106.83 372.99 M 302.88 245.24 111.07 360.61 M 305.59 249.76 113.78 365.12 M 314.95 265.34 114.56 385.87 M 102.55 375.57 94.95 362.92 M 115.14 367.38 112.29 362.64 M 103.71 367.8 106.56 372.54 M 106.83 372.99 99.24 360.34 M 104.71 369.97 105.07 370.06 M 102.9 371.05 106.29 372.09 M 100.87 372.27 105.93 373.54 M 112.29 362.64 103.71 367.8 M 103.44 367.35 101.54 364.18 M 101.54 364.18 110.12 359.03 M 110.12 359.03 112.02 362.19 M 112.02 362.19 103.44 367.35 M 99.24 360.34 94.95 362.92 M 95.18 362.79 101.68 364.41 M 96.04 364.73 102.9 366.44 M 97.12 366.54 103.99 368.25 M 98.21 368.34 104.71 369.97 M 99.43 370.38 102.9 371.05 M 100.51 372.18 100.87 372.27 M 96.98 361.7 100.6 362.6 M 98.79 360.61 99.51 360.8 M 106.56 372.54 115.14 367.38 M 101.73 374.22 104.13 374.62 M 101.7 393.61 92.22 399.31 M 92.22 399.31 89.64 395.01 M 90.46 396.37 95.15 397.54 M 90.1 394.74 96.96 396.46 M 91.9 393.66 98.4 395.28 M 98.4 395.28 98.77 395.37 M 93.93 392.44 97.32 393.47 M 97.32 393.47 100.8 394.15 M 95.74 391.35 96.1 391.44 M 96.1 391.44 101.29 392.93 M 97.54 390.26 100.07 390.89 M 101.7 393.61 96.96 396.46 M 96.96 396.46 102.11 405.04 M 102.11 405.04 106.85 402.19 M 91.68 398.4 93.12 398.76 M 106.61 373.13 107.1 373.45 M 104.58 374.35 108.19 375.25 M 102.77 375.44 109.41 377.29 M 100.74 376.66 110.49 379.09 M 98.93 377.74 111.58 380.9 M 97.13 378.83 112.8 382.93 M 95.1 380.05 113.88 384.74 M 94.51 381.63 113.88 386.28 M 95.6 383.44 111.85 387.5 M 96.82 385.47 110.05 388.58 M 97.9 387.28 108.24 389.67 M 98.99 389.09 106.21 390.89 M 100.21 391.12 104.41 391.98 M 101.29 392.93 102.6 393.06 M 101.7 393.61 93.97 380.73 M 93.97 380.73 106.83 372.99 M 106.83 372.99 114.56 385.87 M 114.56 385.87 101.7 393.61 M 99.12 389.31 89.64 395.01 M 304.1 247.27 306.95 252.01 M 303.83 246.82 301.93 243.66 M 301.93 243.66 302.88 245.24 M 475.61 157.95 323.07 249.7 M 477.51 161.11 324.97 252.86 M 473.72 154.78 321.17 246.54 M 479.41 164.27 326.86 256.02 M 327.59 257.74 525.04 138.98 M 315.53 246.86 312.68 242.11 M 310.51 238.5 312.41 241.66 M 509.04 112.32 517.31 126.1 M 517.31 126.1 509.04 112.32 M 509.04 112.32 525.06 102.69 M 509.04 112.32 528.22 100.79 M 532.43 117.01 533.88 117.37 M 530.63 118.09 534.96 119.18 M 528.82 119.18 536.18 121.21 M 526.79 120.4 537.27 123.02 M 524.99 121.49 538.35 124.82 M 523.18 122.57 539.57 126.86 M 521.15 123.8 540.66 128.66 M 521.29 125.56 539.94 130.02 M 522.37 127.37 537.9 131.24 M 523.46 129.17 536.1 132.33 M 524.68 131.21 534.07 133.55 M 525.76 133.01 532.26 134.64 M 526.98 135.05 530.46 135.72 M 528.07 136.85 528.43 136.94 M 483.69 146.33 486.35 147.18 M 481.66 147.55 487.44 148.99 M 479.85 148.63 488.66 151.02 M 478.05 149.72 489.74 152.83 M 476.02 150.94 490.83 154.64 M 474.21 152.03 492.05 156.67 M 472.77 153.2 492.77 158.39 M 473.99 155.24 490.97 159.47 M 475.07 157.04 489.16 160.56 M 476.16 158.85 487.13 161.78 M 477.38 160.88 485.33 162.87 M 478.46 162.69 483.52 163.95 M 479.55 164.5 481.49 165.17 M 525.35 132.33 490.15 153.51 M 523.46 129.17 488.25 150.35 M 480.36 165.85 472.63 152.98 M 472.63 152.98 485.27 145.38 M 485.27 145.38 493 158.25 M 493 158.25 480.36 165.85 M 528.2 137.08 520.47 124.2 M 520.47 124.2 533.34 116.47 M 533.34 116.47 541.06 129.34 M 541.06 129.34 528.2 137.08 M 527.25 135.5 492.05 156.67 M 514.11 130.49 486.35 147.18 M 566.53 208.1 156.05 454.99 M 580.36 231.14 169.88 478.03 M 480.1 330.18 307.47 434.02 M 484.11 314.86 292.07 430.36 M 292.07 430.36 307.47 434.02 M 322.17 480.51 211.37 547.15 M 308.34 457.47 197.54 524.11 M 294.51 434.43 183.71 501.07 M 371.7 403.38 372.11 402.52 M 372.11 402.52 371.79 401.48 M 371.79 401.48 371.25 400.58 M 371.25 400.58 370.39 400.17 M 370.39 400.17 369.44 400.12 M 369.44 400.12 368.4 400.44 M 480.1 330.18 484.11 314.86 M 596.57 223.86 597.88 223.99 M 594.76 224.94 599.1 226.02 M 592.96 226.03 600.18 227.83 M 590.93 227.25 601.27 229.64 M 589.12 228.33 602.49 231.67 M 587.32 229.42 603.57 233.48 M 585.28 230.64 604.79 235.51 M 585.29 232.18 604.07 236.87 M 586.51 234.21 602.04 238.09 M 587.59 236.02 600.23 239.17 M 588.67 237.83 598.2 240.4 M 589.9 239.86 596.4 241.48 M 590.98 241.67 594.59 242.57 M 592.06 243.47 592.56 243.79 M 592.34 243.92 584.61 231.05 M 584.61 231.05 597.47 223.31 M 597.47 223.31 605.2 236.19 M 605.2 236.19 592.34 243.92 M 594.19 254.18 486.55 318.93 M 608.02 277.22 500.38 341.97 M 621.85 300.26 514.21 365.01 M 421.88 368.27 421.12 369.04 M 421.12 369.04 420.71 369.9 M 420.71 369.9 420.67 370.85 M 420.67 370.85 421.21 371.75 M 421.21 371.75 421.98 372.52 M 421.98 372.52 422.93 372.57 M 288.29 725.94 234.35 758.38 M 274.46 702.9 220.52 735.34 M 273.91 702 219.98 734.44 M 259.41 677.83 205.47 710.27 M 260.08 678.96 206.15 711.4 M 245.03 653.88 191.1 686.32 M 245.71 655.01 191.78 687.45 M 230.66 629.94 176.73 662.38 M 231.2 630.84 177.27 663.28 M 216.15 605.77 162.22 638.21 M 216.83 606.9 162.9 639.34 M 201.78 581.83 147.85 614.26 M 202.46 582.96 148.52 615.39 M 496.41 552.8 445.83 468.55 M 445.83 468.55 530 417.92 M 496.41 552.8 502.82 548.64 M 502.82 548.64 508.82 543.8 M 508.82 543.8 514.68 538.74 M 514.68 538.74 519.92 533.13 M 519.92 533.13 524.88 527.07 M 524.88 527.07 528.99 520.6 M 528.99 520.6 532.95 513.91 M 532.95 513.91 536.2 507.04 M 536.2 507.04 538.95 499.85 M 538.95 499.85 541.2 492.35 M 541.2 492.35 542.73 484.67 M 542.73 484.67 543.68 477.03 M 543.68 477.03 544.03 469.43 M 544.03 469.43 543.67 461.66 M 543.67 461.66 543.08 454.02 M 543.08 454.02 541.54 446.34 M 541.54 446.34 539.54 438.93 M 539.54 438.93 536.74 431.7 M 536.74 431.7 533.71 424.61 M 533.71 424.61 530 417.92 M 546 444.58 580.58 502.18 M 580.58 502.18 523.04 536.79 M 377.43 545.96 412.01 603.57 M 412.01 603.57 469.55 568.96 M 279.02 705.39 223.29 612.54 M 283.31 702.81 227.58 609.97 M 496.41 552.8 445.83 468.55 M 445.83 468.55 361.43 519.31 M 361.66 519.17 365.82 525.59 M 365.82 525.59 370.65 531.6 M 370.65 531.6 375.71 537.47 M 375.71 537.47 381.31 542.71 M 381.31 542.71 387.37 547.68 M 387.37 547.68 393.83 551.78 M 393.83 551.78 400.51 555.76 M 400.51 555.76 407.38 559.01 M 407.38 559.01 414.56 561.76 M 414.56 561.76 422.05 564.01 M 422.05 564.01 429.73 565.55 M 429.73 565.55 437.36 566.49 M 437.36 566.49 444.95 566.85 M 444.95 566.85 452.71 566.48 M 452.71 566.48 460.34 565.89 M 460.34 565.89 468.02 564.35 M 468.02 564.35 475.42 562.35 M 475.42 562.35 482.64 559.55 M 482.64 559.55 489.73 556.51 M 489.73 556.51 496.41 552.8 M 224.91 599.89 230.06 608.47 M 225.32 611.32 220.17 602.74 M 224.87 611.59 219.72 603.01 M 216.56 604.91 221.71 613.49 M 349.84 526.59 239.03 593.24 M 336 503.55 225.2 570.2 M 222.78 595.33 216.68 585.16 M 216.68 585.16 211.94 588.01 M 211.94 588.01 218.04 598.18 M 345.66 492.52 346.43 493.29 M 346.43 493.29 347.29 493.69 M 347.29 493.69 348.23 493.74 M 348.23 493.74 349.14 493.19 M 349.14 493.19 349.9 492.43 M 349.9 492.43 349.95 491.48 M 377.5 572.68 266.7 639.32 M 363.67 549.63 252.87 616.28 M 230.06 608.47 225.32 611.32 M 221.71 613.49 224.87 611.59 M 380.59 542.53 379.73 542.12 M 379.73 542.12 378.7 542.44 M 378.7 542.44 377.79 542.98 M 377.79 542.98 377.39 543.84 M 377.39 543.84 377.34 544.79 M 377.34 544.79 377.66 545.83 M 649.52 346.35 541.87 411.09 M 635.68 323.31 528.04 388.05 M 510.85 394.7 511.7 395.11 M 511.7 395.11 512.74 394.79 M 512.74 394.79 513.64 394.25 M 513.64 394.25 514.05 393.39 M 514.05 393.39 514.1 392.44 M 514.1 392.44 513.78 391.4 M 663.35 369.39 555.7 434.13 M 677.18 392.43 569.53 457.17 M 545.78 444.71 545.01 443.94 M 545.01 443.94 544.15 443.54 M 544.15 443.54 543.2 443.49 M 543.2 443.49 542.3 444.04 M 542.3 444.04 541.53 444.8 M 541.53 444.8 541.49 445.75 M 718.67 461.55 308.19 708.44 M 732.5 484.59 322.02 731.48 M 583.83 502.99 411.2 606.82 M 599.36 506.87 407.33 622.37 M 285.79 701.31 290.94 709.9 M 286.2 712.75 281.05 704.16 M 285.75 713.02 280.6 704.44 M 277.44 706.34 282.59 714.92 M 293.83 713.69 286.24 701.04 M 286.24 701.04 299.1 693.31 M 299.1 693.31 306.7 705.96 M 306.7 705.96 293.83 713.69 M 405.16 618.76 294.36 685.4 M 391.33 595.72 280.53 662.36 M 281.05 704.16 285.79 701.31 M 280.6 704.44 277.44 706.34 M 277.44 706.34 279.02 705.39 M 469.42 568.73 470.19 567.96 M 470.19 567.96 470.59 567.1 M 470.59 567.1 470.64 566.15 M 470.64 566.15 470.09 565.25 M 470.09 565.25 469.33 564.48 M 469.33 564.48 468.38 564.44 M 411.2 606.82 407.33 622.37 M 290.94 709.9 286.2 712.75 M 282.59 714.92 285.75 713.02 M 724.25 437.59 725.33 437.86 M 725.33 437.86 726.42 438.13 M 722.22 438.81 724.75 439.45 M 724.75 439.45 727.5 439.94 M 720.41 439.9 724.39 440.89 M 724.39 440.89 728.72 441.97 M 718.38 441.12 719.47 441.39 M 728.72 443.51 729.81 443.78 M 719.47 441.39 724.03 442.34 M 724.03 442.34 728.72 443.51 M 716.58 442.21 720.55 443.2 M 726.69 444.73 730.89 445.59 M 720.55 443.2 723.8 444.01 M 723.8 444.01 726.69 444.73 M 714.77 443.29 721.64 445.01 M 724.89 445.82 732.11 447.62 M 721.64 445.01 723.44 445.46 M 723.44 445.46 724.89 445.82 M 712.74 444.52 722.86 447.04 M 733.2 449.43 723.08 446.9 M 723.08 446.9 722.86 447.04 M 723.08 446.9 723.31 446.77 M 713.83 446.32 721.05 448.13 M 731.39 450.51 723.94 448.85 M 723.94 448.85 721.05 448.13 M 714.91 448.13 719.25 449.21 M 729.36 451.74 725.16 450.88 M 725.16 450.88 719.25 449.21 M 716.13 450.16 717.44 450.3 M 727.56 452.82 726.25 452.69 M 726.25 452.69 717.44 450.3 M 717.22 451.97 725.75 453.91 M 718.3 453.78 723.72 455.13 M 719.52 455.81 721.91 456.21 M 720.33 457.17 712.74 444.52 M 712.74 444.52 725.6 436.78 M 725.6 436.78 733.2 449.43 M 733.2 449.43 720.33 457.17 M 691.01 415.47 583.37 480.21 M 704.84 438.51 597.2 503.25 M 519.6 533.63 519.2 534.49 M 519.2 534.49 519.51 535.53 M 519.51 535.53 520.06 536.43 M 520.06 536.43 520.91 536.84 M 520.91 536.84 521.86 536.88 M 521.86 536.88 522.9 536.56 M 583.83 502.99 599.36 506.87 M 716.46 320.23 718.58 318.64 M 718.58 318.64 720.29 316.38 M 720.29 316.38 721.64 314.03 M 721.64 314.03 722.36 311.14 M 722.36 311.14 722.27 308.43 M 722.27 308.43 721.82 305.62 M 721.82 305.62 720.69 303.23 M 720.69 303.23 719.11 301.11 M 719.11 301.11 716.85 299.39 M 716.85 299.39 714.5 298.04 M 714.5 298.04 711.61 297.32 M 711.61 297.32 708.9 297.41 M 708.9 297.41 706.1 297.86 M 706.1 297.86 703.71 298.99 M 703.71 298.99 701.59 300.58 M 701.59 300.58 699.87 302.84 M 699.87 302.84 698.52 305.19 M 698.52 305.19 697.8 308.08 M 697.8 308.08 697.89 310.79 M 697.89 310.79 698.35 313.59 M 698.35 313.59 699.48 315.99 M 699.48 315.99 701.06 318.11 M 701.06 318.11 703.32 319.83 M 703.32 319.83 705.67 321.18 M 705.67 321.18 708.56 321.9 M 708.56 321.9 711.26 321.81 M 711.26 321.81 714.06 321.36 M 714.06 321.36 716.46 320.23 M 759.68 268.4 774.26 272.24 M 759.45 270.08 773.9 273.68 M 759.09 271.52 773.54 275.13 M 758.73 272.97 773.18 276.58 M 758.14 274.55 772.6 278.16 M 757.78 276 772.23 279.61 M 757.56 277.67 772.01 281.28 M 757.2 279.12 771.65 282.72 M 756.84 280.56 771.29 284.17 M 774.62 270.79 760.17 267.18 M 760.17 267.18 756.57 281.65 M 756.57 281.65 771.02 285.26 M 771.02 285.26 774.62 270.79 M 760.17 267.18 760.4 267.05 M 713.34 315.03 714.78 313.85 M 714.78 313.85 715.73 312.36 M 715.73 312.36 716.31 310.78 M 716.31 310.78 716.4 308.88 M 716.4 308.88 715.91 307.03 M 715.91 307.03 715.09 305.67 M 715.09 305.67 713.69 304.36 M 713.69 304.36 711.98 303.55 M 711.98 303.55 710.3 303.33 M 710.3 303.33 708.54 303.46 M 708.54 303.46 706.83 304.19 M 706.83 304.19 705.38 305.36 M 705.38 305.36 704.44 306.86 M 704.44 306.86 703.85 308.44 M 703.85 308.44 703.76 310.34 M 703.76 310.34 704.26 312.19 M 704.26 312.19 705.07 313.54 M 705.07 313.54 706.47 314.85 M 706.47 314.85 708.19 315.67 M 708.19 315.67 709.86 315.89 M 709.86 315.89 711.62 315.75 M 711.62 315.75 713.34 315.03 M 799 551.89 707.62 919.52 M 706.9 919.34 366.24 834.32 M 771.56 569.62 685.59 914.02 M 746.33 507.63 335.85 754.52 M 677.96 628.08 477.34 748.74 M 760.16 530.67 349.68 777.56 M 466.88 759.95 464.98 756.79 M 464.98 756.79 579.61 687.84 M 579.61 687.84 581.51 691 M 581.51 691 466.88 759.95 M 378.56 825.68 685.69 640.95 M 773.58 553.04 363.1 799.93 M 464.71 756.34 456.98 743.46 M 456.98 743.46 469.61 735.86 M 469.61 735.86 477.34 748.74 M 477.34 748.74 464.71 756.34 M 357.97 820.54 350.24 807.66 M 350.24 807.66 363.1 799.93 M 363.1 799.93 370.83 812.8 M 370.83 812.8 357.97 820.54 M 364.05 801.51 457.93 745.04 M 459.82 748.21 365.95 804.67 M 461.86 751.6 367.98 808.06 M 369.88 811.22 463.76 754.76 M 348.49 826.24 345.91 821.95 M 357.97 820.54 355.39 816.25 M 346.46 822.85 351.87 824.2 M 346.82 821.4 353.68 823.12 M 348.85 820.18 354.27 821.54 M 353.18 819.73 357.52 820.81 M 352.46 818.01 357.15 819.18 M 355.39 816.25 345.91 821.95 M 350.65 819.1 353.18 819.73 M 354.49 816.79 356.07 817.38 M 357.97 820.54 366.24 834.32 M 357.97 820.54 348.49 826.24 M 347.54 824.66 350.07 825.29 M 354.27 821.54 355.71 821.9 M 374.36 818.68 372.64 825.55 M 375.85 821.16 374.14 828.03 M 377.2 823.42 376.53 826.9 M 372.86 816.19 371.15 823.06 M 371.51 813.93 369.8 820.8 M 369.48 813.62 368.31 818.32 M 367.22 814.97 366.95 816.06 M 374.27 828.26 366.54 815.38 M 366.54 815.38 370.83 812.8 M 370.83 812.8 378.56 825.68 M 378.56 825.68 374.27 828.26 M 788.7 543.94 790.15 544.3 M 786.9 545.03 791.23 546.11 M 785.09 546.11 792.32 547.92 M 783.06 547.34 793.54 549.95 M 781.25 548.42 794.62 551.76 M 779.45 549.51 795.71 553.56 M 777.42 550.73 796.93 555.6 M 777.42 552.26 796.2 556.95 M 778.64 554.3 794.17 558.17 M 779.72 556.11 792.37 559.26 M 780.94 558.14 790.34 560.48 M 782.03 559.95 788.53 561.57 M 783.11 561.75 786.73 562.65 M 784.33 563.79 784.7 563.88 M 739.96 573.26 742.62 574.12 M 737.93 574.48 743.71 575.92 M 736.12 575.57 744.79 577.73 M 734.32 576.65 746.01 579.76 M 732.29 577.87 747.1 581.57 M 730.48 578.96 748.18 583.38 M 729.04 580.14 749.04 585.32 M 730.12 581.94 747.24 586.41 M 731.34 583.98 745.43 587.49 M 732.43 585.78 743.4 588.71 M 733.51 587.59 741.59 589.8 M 734.73 589.62 739.79 590.89 M 735.82 591.43 737.76 592.11 M 784.47 564.01 776.74 551.14 M 776.74 551.14 789.6 543.4 M 789.6 543.4 797.33 556.27 M 797.33 556.27 784.47 564.01 M 736.63 592.79 728.9 579.91 M 728.9 579.91 741.54 572.31 M 741.54 572.31 749.27 585.18 M 749.27 585.18 736.63 592.79 M 677.96 628.08 670.23 615.2 M 670.23 615.2 682.87 607.6 M 682.87 607.6 690.59 620.47 M 690.59 620.47 677.96 628.08 M 682.19 608.01 683.27 608.28 M 680.38 609.09 684.49 610.31 M 678.58 610.18 685.58 612.12 M 676.55 611.4 686.66 613.92 M 674.74 612.48 687.88 615.96 M 672.94 613.57 688.97 617.76 M 670.9 614.79 690.05 619.57 M 670.91 616.33 689.69 621.02 M 671.99 618.14 687.66 622.24 M 673.21 620.17 685.85 623.32 M 674.3 621.98 684.05 624.41 M 675.38 623.78 682.02 625.63 M 676.6 625.82 680.21 626.72 M 677.69 627.62 678.41 627.8 M 729.85 581.49 683.81 609.18 M 777.69 552.72 742.49 573.89 M 731.75 584.65 685.71 612.34 M 733.78 588.04 687.75 615.73 M 735.68 591.2 689.64 618.89 M 580.3 696.65 578.4 693.49 M 578.4 693.49 680.4 632.14 M 680.4 632.14 682.3 635.3 M 682.3 635.3 580.3 696.65 M 685.77 631.37 684.06 638.24 M 687.26 633.85 685.55 640.73 M 688.62 636.11 687.72 639.73 M 684.28 628.88 682.57 635.76 M 682.92 626.63 681.21 633.5 M 680.89 626.31 679.72 631.01 M 678.41 627.8 678.36 628.75 M 685.69 640.95 677.96 628.08 M 677.96 628.08 682.24 625.5 M 682.24 625.5 689.97 638.37 M 689.97 638.37 685.69 640.95 M 779.59 555.88 744.38 577.05 M 781.62 559.27 746.42 580.44 M 783.52 562.43 748.32 583.6 M 632.18 781.04 646.63 784.65 M 631.82 782.49 646.27 786.1 M 631.24 784.07 645.69 787.68 M 630.87 785.52 645.33 789.13 M 630.51 786.97 645.1 790.8 M 630.29 788.64 644.74 792.25 M 629.93 790.09 644.38 793.69 M 629.57 791.53 644.02 795.14 M 628.98 793.11 643.43 796.72 M 646.99 783.2 632.54 779.6 M 632.54 779.6 628.71 794.2 M 628.71 794.2 643.39 797.67 M 643.39 797.67 646.99 783.2 M 644.47 799.48 646.59 797.89 M 646.59 797.89 648.31 795.63 M 648.31 795.63 649.66 793.28 M 649.66 793.28 650.38 790.39 M 650.38 790.39 650.29 787.68 M 650.29 787.68 649.84 784.88 M 649.84 784.88 648.71 782.48 M 648.71 782.48 647.13 780.36 M 647.13 780.36 644.87 778.64 M 644.87 778.64 642.52 777.29 M 642.52 777.29 639.63 776.57 M 639.63 776.57 636.92 776.66 M 636.92 776.66 634.12 777.11 M 634.12 777.11 631.73 778.24 M 631.73 778.24 629.61 779.83 M 629.61 779.83 627.89 782.09 M 627.89 782.09 626.54 784.44 M 626.54 784.44 625.82 787.33 M 625.82 787.33 625.91 790.04 M 625.91 790.04 626.36 792.84 M 626.36 792.84 627.49 795.24 M 627.49 795.24 629.08 797.36 M 629.08 797.36 631.33 799.08 M 631.33 799.08 633.68 800.43 M 633.68 800.43 636.57 801.15 M 636.57 801.15 639.28 801.06 M 639.28 801.06 642.08 800.61 M 642.08 800.61 644.47 799.48 M 696.18 887.67 710.63 891.27 M 695.82 889.11 710.27 892.72 M 695.37 890.92 709.82 894.53 M 695.01 892.37 709.46 895.97 M 694.65 893.81 709.1 897.42 M 694.29 895.26 708.74 898.87 M 693.93 896.71 708.38 900.31 M 693.57 898.15 708.15 901.98 M 693.12 899.96 707.57 903.57 M 710.99 889.83 696.54 886.22 M 696.54 886.22 692.71 900.82 M 692.71 900.82 707.52 904.52 M 707.52 904.52 710.99 889.83 M 710.99 889.83 696.54 886.22 M 696.54 886.22 692.71 900.82 M 692.71 900.82 707.52 904.52 M 707.52 904.52 710.99 889.83 M 710.99 889.83 696.54 886.22 M 696.54 886.22 692.71 900.82 M 692.71 900.82 707.52 904.52 M 707.52 904.52 710.99 889.83 M 710.99 889.83 696.54 886.22 M 696.54 886.22 692.71 900.82 M 692.71 900.82 707.52 904.52 M 707.52 904.52 710.99 889.83 M 225.36 599.62 215.88 605.32 M 215.88 605.32 213.3 601.03 M 214.12 602.38 218.81 603.55 M 213.76 600.75 220.62 602.47 M 215.56 599.67 222.42 601.38 M 217.59 598.45 220.98 599.48 M 220.98 599.48 224.46 600.16 M 219.4 597.36 219.76 597.45 M 219.76 597.45 224.82 598.71 M 221.2 596.28 223.73 596.91 M 215.34 604.41 216.78 604.78 M 222.78 595.33 213.3 601.03 M 513.03 128.68 505.43 116.03 M 517.31 126.1 509.72 113.45 M 513.38 124.16 516.77 125.2 M 510.99 125.29 516.41 126.65 M 509.72 113.45 505.43 116.03 M 505.43 116.03 512.16 117.52 M 506.52 117.84 513.38 119.55 M 507.6 119.65 514.47 121.36 M 508.69 121.45 515.55 123.17 M 509.91 123.49 513.38 124.16 M 507.46 114.81 511.08 115.71 M 512.21 127.33 514.61 127.73 M 513.03 128.68 517.31 126.1 M 516.01 133.65 513.03 128.68 M 513.03 128.68 520.47 124.2 M 520.47 124.2 523.46 129.17 M 523.46 129.17 516.01 133.65 M 519.53 127.23 522.78 128.04 M 514.83 127.6 522.78 129.58 M 516.86 126.37 519.53 127.23 M 513.16 128.91 520.75 130.8 M 514.25 130.71 518.94 131.89 M 515.33 132.52 516.91 133.11 M 518.67 125.29 521.69 126.24 M 7.32 370.44 20.88 393.02 M 20.88 393.02 110.86 31.77 M 110.86 31.77 481.87 124.36 M 504.66 110.65 97.3 9.18 M 97.3 9.18 7.32 370.44 M 97.3 9.18 110.86 31.77 M 504.66 110.65 481.87 124.36 M 477.76 123.15 18.76 399.22 M 475.95 122.69 18.08 398.09 M 400.81 103.94 38.62 321.79 M 399.14 103.72 38.98 320.34 M 362.52 94.38 48.17 283.45 M 360.71 93.93 48.62 281.65 M 324 84.96 57.72 245.12 M 322.42 84.38 58.17 243.31 M 285.71 75.4 67.49 206.65 M 283.9 74.95 67.72 204.98 M 247.28 65.62 76.9 168.1 M 245.61 65.4 77.49 166.51 M 208.76 56.2 86.45 129.77 M 207.18 55.61 86.9 127.96 M 170.47 46.64 96.23 91.3 M 168.66 46.19 96.45 89.63 M 132.04 36.86 105.64 52.74 M 130.37 36.64 106.22 51.16 M 83.43 64.87 75.98 69.35 M 83.07 66.31 75.4 70.93 M 73.88 103.2 66.44 107.68 M 73.43 105.01 65.99 109.49 M 64.34 141.53 56.66 146.14 M 63.89 143.34 56.44 147.82 M 54.7 180.22 47.25 184.7 M 54.34 181.67 46.67 186.28 M 44.7 220.36 37.25 224.84 M 45.15 218.56 37.7 223.03 M 35.6 256.89 28.16 261.37 M 35.15 258.69 27.71 263.17 M 26.06 295.22 18.38 299.83 M 25.61 297.03 17.93 301.64 M 16.42 333.91 8.97 338.39 M 16.06 335.36 8.39 339.97 M 222.78 595.33 225.36 599.62"/>
</g>
</svg>