<?xml version="1.0"?>
<svg xmlns="http://www.w3.org/2000/svg" version="1.2" baseProfile="tiny" width="800" height="880" viewBox="0 0 800 880" stroke-linecap="round" stroke-linejoin="round">
<g id="1" fill="none" stroke="black" stroke-width="1">
<path d="M 578.58 57 574.17 62.44 M 574.17 62.44 568.72 58.03 M 568.72 58.03 573.13 52.59 M 573.13 52.59 578.58 57 M 569.01 58.26 568.96 57.75 M 569.87 58.96 569.57 56.98 M 570.63 59.58 570.27 56.12 M 571.4 60.2 570.89 55.36 M 572.26 60.9 572.11 59.51 M 571.51 54.59 571.65 55.98 M 571.65 55.98 572.11 59.51 M 573.02 61.51 572.73 58.75 M 572.2 53.73 572.51 56.67 M 572.51 56.67 572.73 58.75 M 573.88 62.21 573.43 57.89 M 572.82 52.97 573.28 57.29 M 573.28 57.29 573.43 57.89 M 574.55 61.96 574.14 57.99 M 573.61 52.97 574.05 57.12 M 574.05 57.12 574.14 57.99 M 575.17 61.2 574.9 58.61 M 574.47 53.67 574.67 56.36 M 574.67 56.36 574.9 58.61 M 575.79 60.44 575.67 59.23 M 575.23 54.29 575.36 55.5 M 575.36 55.5 575.67 59.23 M 576.49 59.58 576 54.91 M 577.11 58.81 576.86 55.6 M 577.73 58.05 577.62 56.22 M 578.42 57.19 578.39 56.84 M 660.72 123.54 656.32 128.99 M 656.32 128.99 650.87 124.58 M 650.87 124.58 655.28 119.13 M 655.28 119.13 660.72 123.54 M 651.16 124.81 651.1 124.29 M 652.02 125.5 651.72 123.52 M 652.78 126.12 652.42 122.66 M 653.54 126.74 653.04 121.9 M 654.4 127.44 654.26 126.06 M 653.66 121.14 653.8 122.52 M 653.8 122.52 654.26 126.06 M 655.17 128.06 654.88 125.29 M 654.35 120.28 654.66 123.22 M 654.66 123.22 654.88 125.29 M 655.93 128.68 655.57 124.43 M 654.97 119.51 655.42 123.83 M 655.42 123.83 655.57 124.43 M 656.7 128.51 656.19 124.45 M 655.76 119.52 656.19 123.67 M 656.19 123.67 656.19 124.45 M 657.32 127.74 657.05 125.15 M 656.52 120.14 656.81 122.9 M 656.81 122.9 657.05 125.15 M 657.94 126.98 657.81 125.77 M 657.38 120.83 657.51 122.04 M 657.51 122.04 657.81 125.77 M 658.64 126.12 658.14 121.45 M 659.25 125.36 658.91 122.07 M 659.87 124.59 659.77 122.77 M 660.57 123.73 660.53 123.38 M 476.24 183.41 471.83 188.86 M 471.83 188.86 466.39 184.45 M 466.39 184.45 470.8 179 M 470.8 179 476.24 183.41 M 466.68 184.68 466.62 184.16 M 467.54 185.38 467.32 183.3 M 468.3 185.99 467.94 182.54 M 469.06 186.61 468.56 181.77 M 469.92 187.31 469.78 185.93 M 469.25 180.91 469.4 182.29 M 469.4 182.29 469.78 185.93 M 470.69 187.93 470.47 185.07 M 469.87 180.15 470.26 182.99 M 470.26 182.99 470.47 185.07 M 471.55 188.63 471.09 184.3 M 470.49 179.38 471.02 183.61 M 471.02 183.61 471.09 184.3 M 472.22 188.38 471.88 184.31 M 471.28 179.39 471.71 183.54 M 471.71 183.54 471.88 184.31 M 472.84 187.61 472.64 184.93 M 472.14 180.08 472.41 182.68 M 472.41 182.68 472.64 184.93 M 473.54 186.76 473.41 185.54 M 472.9 180.7 473.03 181.91 M 473.03 181.91 473.41 185.54 M 474.15 185.99 473.66 181.32 M 474.77 185.23 474.52 182.02 M 475.47 184.37 475.29 182.64 M 476.09 183.6 476.05 183.26 M 558.39 249.95 553.98 255.4 M 553.98 255.4 548.54 250.99 M 548.54 250.99 552.95 245.54 M 552.95 245.54 558.39 249.95 M 548.82 251.22 548.77 250.7 M 549.68 251.92 549.46 249.84 M 550.45 252.54 550.08 249.08 M 551.21 253.16 550.7 248.31 M 552.07 253.85 551.92 252.47 M 551.4 247.45 551.54 248.84 M 551.54 248.84 551.92 252.47 M 552.83 254.47 552.62 251.61 M 552.02 246.69 552.4 249.53 M 552.4 249.53 552.62 251.61 M 553.6 255.09 553.24 250.85 M 552.64 245.93 553.17 250.15 M 553.17 250.15 553.24 250.85 M 554.37 254.92 553.93 250.77 M 553.42 245.93 553.86 250.08 M 553.86 250.08 553.93 250.77 M 554.99 254.16 554.79 251.47 M 554.19 246.55 554.55 249.22 M 554.55 249.22 554.79 251.47 M 555.68 253.3 555.56 252.09 M 555.05 247.25 555.17 248.46 M 555.17 248.46 555.56 252.09 M 556.3 252.53 555.81 247.86 M 556.92 251.77 556.57 248.48 M 557.62 250.91 557.43 249.18 M 558.24 250.15 558.2 249.8 M 609.52 186.79 605.19 192.15 M 605.19 192.15 599.74 187.74 M 599.74 187.74 604.07 182.38 M 604.07 182.38 609.52 186.79 M 600.03 187.97 599.97 187.45 M 600.89 188.66 600.59 186.68 M 601.65 189.28 601.21 185.92 M 602.42 189.9 601.91 185.06 M 603.28 190.6 603.13 189.21 M 602.53 184.3 602.67 185.68 M 602.67 185.68 603.13 189.21 M 604.04 191.22 603.75 188.45 M 603.15 183.53 603.53 186.37 M 603.53 186.37 603.75 188.45 M 604.8 191.84 604.37 187.69 M 603.84 182.67 604.3 186.99 M 604.3 186.99 604.37 187.69 M 605.5 191.76 605.06 187.61 M 604.55 182.77 605.06 186.83 M 605.06 186.83 605.06 187.61 M 606.19 190.9 605.92 188.31 M 605.32 183.39 605.68 186.06 M 605.68 186.06 605.92 188.31 M 606.81 190.14 606.68 188.93 M 606.17 184.09 606.3 185.3 M 606.3 185.3 606.68 188.93 M 607.43 189.37 606.94 184.71 M 608.13 188.51 607.7 185.32 M 608.74 187.75 608.56 186.02 M 609.36 186.99 609.33 186.64 M 507.18 313.21 502.85 318.56 M 502.85 318.56 497.41 314.15 M 497.41 314.15 501.74 308.8 M 501.74 308.8 507.18 313.21 M 497.69 314.38 497.64 313.86 M 498.55 315.08 498.26 313.1 M 499.32 315.7 498.88 312.33 M 500.08 316.32 499.57 311.47 M 500.94 317.01 500.8 315.63 M 500.19 310.71 500.34 312.09 M 500.34 312.09 500.8 315.63 M 501.71 317.63 501.42 314.86 M 500.89 309.85 501.2 312.79 M 501.2 312.79 501.42 314.86 M 502.47 318.25 502.11 314 M 501.51 309.09 501.96 313.41 M 501.96 313.41 502.11 314 M 503.24 318.08 502.73 314.03 M 502.22 309.19 502.73 313.24 M 502.73 313.24 502.73 314.03 M 503.86 317.32 503.59 314.72 M 502.98 309.8 503.35 312.48 M 503.35 312.48 503.59 314.72 M 504.48 316.55 504.35 315.34 M 503.84 310.5 504.05 311.62 M 504.05 311.62 504.35 315.34 M 505.17 315.69 504.6 311.12 M 505.79 314.93 505.37 311.74 M 506.41 314.16 506.23 312.44 M 507.11 313.3 506.99 313.05 M 456.06 376.37 451.65 381.81 M 451.65 381.81 446.2 377.4 M 446.2 377.4 450.61 371.96 M 450.61 371.96 456.06 376.37 M 446.49 377.64 446.43 377.12 M 447.35 378.33 447.13 376.26 M 448.11 378.95 447.75 375.49 M 448.88 379.57 448.37 374.73 M 449.74 380.27 449.59 378.88 M 449.06 373.87 449.21 375.25 M 449.21 375.25 449.59 378.88 M 450.5 380.89 450.29 378.02 M 449.68 373.1 450.07 375.95 M 450.07 375.95 450.29 378.02 M 451.26 381.51 450.91 377.26 M 450.38 372.24 450.83 376.57 M 450.83 376.57 450.91 377.26 M 452.03 381.34 451.6 377.19 M 451.09 372.34 451.6 376.4 M 451.6 376.4 451.6 377.19 M 452.73 380.48 452.46 377.88 M 451.85 372.96 452.22 375.64 M 452.22 375.64 452.46 377.88 M 453.35 379.71 453.22 378.5 M 452.71 373.66 452.84 374.87 M 452.84 374.87 453.22 378.5 M 453.97 378.95 453.48 374.28 M 454.66 378.09 454.24 374.9 M 455.28 377.32 455.1 375.59 M 455.9 376.56 455.86 376.21 M 373.91 309.83 369.5 315.27 M 369.5 315.27 364.05 310.86 M 364.05 310.86 368.46 305.41 M 368.46 305.41 373.91 309.83 M 364.34 311.09 364.29 310.57 M 365.2 311.79 364.98 309.71 M 365.97 312.41 365.6 308.95 M 366.73 313.03 366.22 308.19 M 367.59 313.72 367.44 312.34 M 366.92 307.33 367.06 308.71 M 367.06 308.71 367.44 312.34 M 368.35 314.34 368.14 311.48 M 367.54 306.56 367.92 309.41 M 367.92 309.41 368.14 311.48 M 369.21 315.04 368.76 310.72 M 368.23 305.7 368.69 310.02 M 368.69 310.02 368.76 310.72 M 369.89 314.79 369.55 310.72 M 368.94 305.8 369.45 309.86 M 369.45 309.86 369.55 310.72 M 370.58 313.93 370.31 311.34 M 369.8 306.5 370.07 309.09 M 370.07 309.09 370.31 311.34 M 371.2 313.17 371.07 311.96 M 370.57 307.12 370.69 308.33 M 370.69 308.33 371.07 311.96 M 371.82 312.4 371.33 307.74 M 372.52 311.55 372.19 308.43 M 373.14 310.78 372.95 309.05 M 373.75 310.02 373.72 309.67 M 271.57 436.24 267.24 441.59 M 267.24 441.59 261.8 437.18 M 261.8 437.18 266.13 431.83 M 266.13 431.83 271.57 436.24 M 262.08 437.41 262.03 436.89 M 262.94 438.11 262.65 436.13 M 263.71 438.73 263.27 435.36 M 264.47 439.35 263.96 434.5 M 265.33 440.04 265.19 438.66 M 264.58 433.74 264.73 435.12 M 264.73 435.12 265.19 438.66 M 266.1 440.66 265.81 437.9 M 265.2 432.98 265.59 435.82 M 265.59 435.82 265.81 437.9 M 266.96 441.36 266.42 437.13 M 265.9 432.12 266.35 436.44 M 266.35 436.44 266.42 437.13 M 267.55 441.21 267.21 437.14 M 266.61 432.22 267.12 436.27 M 267.12 436.27 267.21 437.14 M 268.25 440.35 267.98 437.75 M 267.47 432.91 267.74 435.51 M 267.74 435.51 267.98 437.75 M 268.87 439.58 268.74 438.37 M 268.23 433.53 268.36 434.74 M 268.36 434.74 268.74 438.37 M 269.49 438.82 269 434.15 M 270.18 437.96 269.85 434.85 M 270.8 437.2 270.62 435.47 M 271.5 436.34 271.38 436.08 M 353.72 502.78 349.39 508.13 M 349.39 508.13 343.94 503.72 M 343.94 503.72 348.28 498.37 M 348.28 498.37 353.72 502.78 M 344.23 503.96 344.18 503.44 M 345.09 504.65 344.8 502.67 M 345.86 505.27 345.41 501.91 M 346.62 505.89 346.11 501.05 M 347.48 506.59 347.33 505.2 M 346.73 500.28 346.87 501.67 M 346.87 501.67 347.33 505.2 M 348.24 507.21 347.95 504.44 M 347.35 499.52 347.73 502.36 M 347.73 502.36 347.95 504.44 M 349.01 507.82 348.57 503.67 M 348.04 498.66 348.5 502.98 M 348.5 502.98 348.57 503.67 M 349.7 507.75 349.26 503.6 M 348.75 498.76 349.27 502.81 M 349.27 502.81 349.26 503.6 M 350.39 506.89 350.12 504.3 M 349.52 499.38 349.89 502.05 M 349.89 502.05 350.12 504.3 M 351.01 506.13 350.89 504.92 M 350.38 500.07 350.5 501.29 M 350.5 501.29 350.89 504.92 M 351.63 505.36 351.14 500.69 M 352.33 504.5 351.91 501.31 M 352.95 503.74 352.77 502.01 M 353.64 502.88 353.53 502.63 M 404.93 439.53 400.52 444.97 M 400.52 444.97 395.07 440.56 M 395.07 440.56 399.48 435.12 M 399.48 435.12 404.93 439.53 M 395.36 440.8 395.31 440.28 M 396.22 441.49 395.92 439.51 M 396.98 442.11 396.62 438.65 M 397.75 442.73 397.24 437.89 M 398.61 443.43 398.46 442.04 M 397.86 437.12 398 438.51 M 398 438.51 398.46 442.04 M 399.37 444.05 399.08 441.28 M 398.55 436.26 398.86 439.2 M 398.86 439.2 399.08 441.28 M 400.14 444.66 399.78 440.42 M 399.17 435.5 399.63 439.82 M 399.63 439.82 399.78 440.42 M 400.9 444.5 400.39 440.44 M 399.96 435.5 400.4 439.65 M 400.4 439.65 400.39 440.44 M 401.52 443.73 401.25 441.14 M 400.72 436.12 401.01 438.89 M 401.01 438.89 401.25 441.14 M 402.14 442.97 402.02 441.76 M 401.58 436.82 401.71 438.03 M 401.71 438.03 402.02 441.76 M 402.84 442.11 402.35 437.44 M 403.46 441.34 403.11 438.06 M 404.15 440.48 403.97 438.75 M 404.77 439.72 404.74 439.37 M 302.59 565.94 298.18 571.39 M 298.18 571.39 292.74 566.98 M 292.74 566.98 297.15 561.53 M 297.15 561.53 302.59 565.94 M 293.03 567.21 292.97 566.69 M 293.89 567.91 293.67 565.83 M 294.65 568.53 294.29 565.07 M 295.41 569.14 294.9 564.3 M 296.27 569.84 296.13 568.46 M 295.6 563.44 295.75 564.83 M 295.75 564.83 296.13 568.46 M 297.04 570.46 296.82 567.6 M 296.22 562.68 296.61 565.52 M 296.61 565.52 296.82 567.6 M 297.8 571.08 297.44 566.83 M 296.84 561.91 297.37 566.14 M 297.37 566.14 297.44 566.83 M 298.57 570.91 298.13 566.76 M 297.63 561.92 298.06 566.07 M 298.06 566.07 298.13 566.76 M 299.19 570.15 298.99 567.46 M 298.39 562.54 298.76 565.21 M 298.76 565.21 298.99 567.46 M 299.89 569.29 299.76 568.08 M 299.25 563.23 299.38 564.44 M 299.38 564.44 299.76 568.08 M 300.5 568.52 300.01 563.85 M 301.12 567.76 300.78 564.47 M 301.82 566.9 301.64 565.17 M 302.44 566.13 302.4 565.79 M 251.46 629.1 247.06 634.55 M 247.06 634.55 241.61 630.14 M 241.61 630.14 246.02 624.69 M 246.02 624.69 251.46 629.1 M 241.9 630.37 241.84 629.85 M 242.76 631.07 242.46 629.09 M 243.52 631.69 243.16 628.23 M 244.29 632.3 243.78 627.46 M 245.14 633 245 631.62 M 244.4 626.7 244.54 628.08 M 244.54 628.08 245 631.62 M 245.91 633.62 245.62 630.85 M 245.09 625.84 245.4 628.78 M 245.4 628.78 245.62 630.85 M 246.67 634.24 246.31 629.99 M 245.71 625.07 246.16 629.4 M 246.16 629.4 246.31 629.99 M 247.44 634.07 246.93 630.02 M 246.5 625.08 246.93 629.23 M 246.93 629.23 246.93 630.02 M 248.06 633.31 247.79 630.71 M 247.26 625.7 247.55 628.46 M 247.55 628.46 247.79 630.71 M 248.68 632.54 248.55 631.33 M 248.12 626.39 248.25 627.6 M 248.25 627.6 248.55 631.33 M 249.38 631.68 248.88 627.01 M 249.99 630.92 249.65 627.63 M 250.61 630.15 250.51 628.33 M 251.31 629.29 251.27 628.95 M 169.32 562.56 164.91 568 M 164.91 568 159.46 563.59 M 159.46 563.59 163.87 558.15 M 163.87 558.15 169.32 562.56 M 159.75 563.83 159.7 563.31 M 160.61 564.52 160.31 562.54 M 161.37 565.14 161.01 561.68 M 162.14 565.76 161.63 560.92 M 163 566.46 162.85 565.07 M 162.25 560.15 162.39 561.54 M 162.39 561.54 162.85 565.07 M 163.76 567.08 163.47 564.31 M 162.94 559.29 163.25 562.23 M 163.25 562.23 163.47 564.31 M 164.62 567.77 164.17 563.45 M 163.56 558.53 164.02 562.85 M 164.02 562.85 164.17 563.45 M 165.3 567.53 164.88 563.55 M 164.35 558.53 164.79 562.69 M 164.79 562.69 164.88 563.55 M 165.91 566.76 165.64 564.17 M 165.21 559.23 165.41 561.92 M 165.41 561.92 165.64 564.17 M 166.53 566 166.41 564.79 M 165.97 559.85 166.1 561.06 M 166.1 561.06 166.41 564.79 M 167.23 565.14 166.74 560.47 M 167.85 564.37 167.6 561.17 M 168.47 563.61 168.36 561.78 M 169.16 562.75 169.13 562.4 M 220.45 499.4 216.04 504.85 M 216.04 504.85 210.59 500.44 M 210.59 500.44 215 494.99 M 215 494.99 220.45 499.4 M 210.88 500.67 210.82 500.15 M 211.74 501.36 211.52 499.29 M 212.5 501.98 212.14 498.52 M 213.27 502.6 212.76 497.76 M 214.13 503.3 213.98 501.91 M 213.45 496.9 213.6 498.28 M 213.6 498.28 213.98 501.91 M 214.89 503.92 214.68 501.05 M 214.07 496.14 214.46 498.98 M 214.46 498.98 214.68 501.05 M 215.75 504.61 215.3 500.29 M 214.69 495.37 215.22 499.6 M 215.22 499.6 215.3 500.29 M 216.42 504.37 216.08 500.29 M 215.48 495.38 215.91 499.53 M 215.91 499.53 216.08 500.29 M 217.04 503.6 216.85 500.91 M 216.34 496.07 216.61 498.67 M 216.61 498.67 216.85 500.91 M 217.74 502.74 217.61 501.53 M 217.1 496.69 217.23 497.9 M 217.23 497.9 217.61 501.53 M 218.36 501.98 217.87 497.31 M 218.98 501.21 218.73 498.01 M 219.67 500.35 219.49 498.63 M 220.29 499.59 220.25 499.24 M 66.98 688.97 62.57 694.42 M 62.57 694.42 57.13 690.01 M 57.13 690.01 61.54 684.56 M 61.54 684.56 66.98 688.97 M 57.42 690.24 57.36 689.72 M 58.28 690.94 57.98 688.96 M 59.04 691.56 58.68 688.1 M 59.8 692.18 59.29 687.33 M 60.66 692.87 60.52 691.49 M 59.99 686.47 60.14 687.86 M 60.14 687.86 60.52 691.49 M 61.43 693.49 61.21 690.63 M 60.61 685.71 61 688.55 M 61 688.55 61.21 690.63 M 62.29 694.19 61.83 689.86 M 61.23 684.94 61.76 689.17 M 61.76 689.17 61.83 689.86 M 62.96 693.94 62.62 689.87 M 62.02 684.95 62.45 689.1 M 62.45 689.1 62.62 689.87 M 63.58 693.18 63.38 690.49 M 62.88 685.65 63.15 688.24 M 63.15 688.24 63.38 690.49 M 64.28 692.32 64.15 691.11 M 63.64 686.26 63.77 687.48 M 63.77 687.48 64.15 691.11 M 64.89 691.55 64.4 686.88 M 65.51 690.79 65.26 687.58 M 66.21 689.93 66.03 688.2 M 66.83 689.16 66.79 688.82 M 149.13 755.52 144.72 760.96 M 144.72 760.96 139.28 756.55 M 139.28 756.55 143.69 751.11 M 143.69 751.11 149.13 755.52 M 139.56 756.78 139.51 756.27 M 140.42 757.48 140.13 755.5 M 141.19 758.1 140.82 754.64 M 141.95 758.72 141.44 753.88 M 142.81 759.42 142.67 758.03 M 142.14 753.02 142.28 754.4 M 142.28 754.4 142.67 758.03 M 143.57 760.03 143.36 757.17 M 142.76 752.25 143.14 755.1 M 143.14 755.1 143.36 757.17 M 144.34 760.65 143.98 756.41 M 143.38 751.49 143.91 755.72 M 143.91 755.72 143.98 756.41 M 145.11 760.48 144.67 756.33 M 144.16 751.49 144.6 755.64 M 144.6 755.64 144.67 756.33 M 145.73 759.72 145.53 757.03 M 144.93 752.11 145.29 754.78 M 145.29 754.78 145.53 757.03 M 146.42 758.86 146.3 757.65 M 145.79 752.81 145.91 754.02 M 145.91 754.02 146.3 757.65 M 147.04 758.1 146.55 753.43 M 147.66 757.33 147.31 754.05 M 148.36 756.47 148.17 754.74 M 148.97 755.71 148.94 755.36 M 200.26 692.36 195.93 697.71 M 195.93 697.71 190.48 693.3 M 190.48 693.3 194.81 687.95 M 194.81 687.95 200.26 692.36 M 190.77 693.53 190.71 693.01 M 191.63 694.23 191.33 692.25 M 192.39 694.84 191.95 691.48 M 193.16 695.46 192.65 690.62 M 194.02 696.16 193.87 694.78 M 193.27 689.86 193.41 691.24 M 193.41 691.24 193.87 694.78 M 194.78 696.78 194.49 694.01 M 193.89 689.09 194.27 691.94 M 194.27 691.94 194.49 694.01 M 195.54 697.4 195.11 693.25 M 194.58 688.23 195.04 692.56 M 195.04 692.56 195.11 693.25 M 196.24 697.33 195.8 693.18 M 195.29 688.33 195.8 692.39 M 195.8 692.39 195.8 693.18 M 196.93 696.47 196.66 693.87 M 196.06 688.95 196.42 691.62 M 196.42 691.62 196.66 693.87 M 197.55 695.7 197.42 694.49 M 196.92 689.65 197.04 690.86 M 197.04 690.86 197.42 694.49 M 198.17 694.94 197.68 690.27 M 198.87 694.08 198.44 690.89 M 199.48 693.31 199.3 691.58 M 200.1 692.55 200.07 692.2 M 247.57 521.37 243.16 526.82 M 243.16 526.82 237.72 522.41 M 237.72 522.41 242.13 516.96 M 242.13 516.96 247.57 521.37 M 238.01 522.64 237.95 522.12 M 238.77 523.26 238.65 521.26 M 239.63 523.96 239.27 520.5 M 240.39 524.58 239.89 519.73 M 241.16 525.2 241.01 523.81 M 240.58 518.87 240.73 520.26 M 240.73 520.26 241.01 523.81 M 242.02 525.89 241.71 522.95 M 241.2 518.11 241.49 520.88 M 241.49 520.88 241.71 522.95 M 242.78 526.51 242.33 522.19 M 241.82 517.35 242.35 521.57 M 242.35 521.57 242.33 522.19 M 243.55 526.34 243.12 522.19 M 242.61 517.35 242.95 521.42 M 242.95 521.42 243.12 522.19 M 244.17 525.58 243.88 522.81 M 243.37 517.97 243.64 520.56 M 243.64 520.56 243.88 522.81 M 244.87 524.72 244.74 523.51 M 244.13 518.59 244.26 519.8 M 244.26 519.8 244.74 523.51 M 245.48 523.95 244.99 519.28 M 246.1 523.19 245.76 519.9 M 246.8 522.33 246.52 520.52 M 247.42 521.56 247.38 521.22 M 1 673.97 545.78 1 M 254.22 879.09 799 206.12 M 799 206.12 545.78 1 M 1 673.97 254.22 879.09 M 297.15 561.53 343.94 503.72 M 302.59 565.94 349.39 508.13 M 349.39 508.13 348.05 507.05 M 348.05 507.05 301.26 564.86 M 301.26 564.86 302.88 562.85 M 302.88 562.85 300.87 561.23 M 300.87 561.23 299.25 563.23 M 348.05 507.05 346.35 509.15 M 346.35 509.15 344.34 507.53 M 344.34 507.53 346.05 505.43 M 344.34 507.53 346.35 509.15 M 346.35 509.15 348.05 507.05 M 323.46 533.33 325.47 534.95 M 325.47 534.95 323.84 536.96 M 323.84 536.96 321.84 535.33 M 336.22 517.56 338.23 519.19 M 338.23 519.19 336.6 521.19 M 336.6 521.19 334.6 519.57 M 309 551.19 311 552.82 M 311 552.82 312.7 550.72 M 312.7 550.72 310.7 549.09 M 346.05 505.43 346.35 509.15 M 336.22 517.56 336.6 521.19 M 323.46 533.33 323.84 536.96 M 310.7 549.09 311 552.82 M 300.87 561.23 301.26 564.86 M 309 551.19 310.7 549.09 M 321.84 535.33 323.46 533.33 M 334.6 519.57 336.22 517.56 M 299.25 563.23 298.77 562.85 M 298.77 562.85 299.62 561.8 M 299.62 561.8 300.1 562.18 M 346.05 505.43 345.57 505.04 M 345.57 505.04 344.64 506.19 M 344.64 506.19 345.12 506.57 M 298.77 562.85 345.57 505.04 M 345.57 505.04 345.19 504.73 M 345.19 504.73 298.39 562.54 M 216.04 504.85 237.72 522.41 M 220.45 499.4 242.13 516.96 M 215 494.99 261.8 437.18 M 220.45 499.4 267.24 441.59 M 230.66 486.79 226.32 492.14 M 226.32 492.14 220.88 487.73 M 220.88 487.73 225.21 482.38 M 225.21 482.38 230.66 486.79 M 221.17 487.96 221.11 487.44 M 222.03 488.66 221.73 486.68 M 222.79 489.27 222.35 485.91 M 223.55 489.89 223.05 485.05 M 224.41 490.59 224.27 489.21 M 223.66 484.29 223.81 485.67 M 223.81 485.67 224.27 489.21 M 225.18 491.21 224.89 488.44 M 224.28 483.52 224.67 486.37 M 224.67 486.37 224.89 488.44 M 226.04 491.9 225.51 487.68 M 224.98 482.66 225.43 486.99 M 225.43 486.99 225.51 487.68 M 226.63 491.75 226.29 487.68 M 225.69 482.76 226.2 486.82 M 226.2 486.82 226.29 487.68 M 227.33 490.89 227.06 488.3 M 226.55 483.46 226.82 486.05 M 226.82 486.05 227.06 488.3 M 227.95 490.13 227.82 488.92 M 227.31 484.08 227.44 485.29 M 227.44 485.29 227.82 488.92 M 228.57 489.37 228.08 484.7 M 229.26 488.51 228.94 485.39 M 229.88 487.74 229.7 486.01 M 230.5 486.98 230.46 486.63 M 240.94 474.08 236.53 479.52 M 236.53 479.52 231.09 475.11 M 231.09 475.11 235.5 469.67 M 235.5 469.67 240.94 474.08 M 231.38 475.35 231.32 474.83 M 232.24 476.04 231.94 474.06 M 233 476.66 232.64 473.2 M 233.76 477.28 233.26 472.44 M 234.62 477.98 234.48 476.59 M 233.87 471.67 234.02 473.06 M 234.02 473.06 234.48 476.59 M 235.39 478.6 235.1 475.83 M 234.57 470.81 234.88 473.75 M 234.88 473.75 235.1 475.83 M 236.25 479.29 235.79 474.97 M 235.19 470.05 235.64 474.37 M 235.64 474.37 235.79 474.97 M 236.92 479.05 236.5 475.07 M 235.98 470.05 236.41 474.2 M 236.41 474.2 236.5 475.07 M 237.54 478.28 237.27 475.69 M 236.84 470.75 237.03 473.44 M 237.03 473.44 237.27 475.69 M 238.16 477.52 238.03 476.31 M 237.6 471.37 237.73 472.58 M 237.73 472.58 238.03 476.31 M 238.86 476.66 238.36 471.99 M 239.47 475.89 239.22 472.69 M 240.09 475.13 239.99 473.3 M 240.79 474.27 240.75 473.92 M 251.15 461.47 246.74 466.91 M 246.74 466.91 241.3 462.5 M 241.3 462.5 245.71 457.05 M 245.71 457.05 251.15 461.47 M 241.59 462.73 241.53 462.21 M 242.45 463.43 242.15 461.45 M 243.21 464.05 242.85 460.59 M 243.97 464.67 243.47 459.83 M 244.83 465.36 244.69 463.98 M 244.08 459.06 244.23 460.44 M 244.23 460.44 244.69 463.98 M 245.6 465.98 245.39 463.12 M 244.78 458.2 245.09 461.14 M 245.09 461.14 245.39 463.12 M 246.46 466.68 246 462.36 M 245.4 457.44 245.85 461.76 M 245.85 461.76 246 462.36 M 247.13 466.43 246.71 462.46 M 246.19 457.44 246.62 461.59 M 246.62 461.59 246.71 462.46 M 247.75 465.67 247.48 463.08 M 247.05 458.14 247.32 460.73 M 247.32 460.73 247.48 463.08 M 248.45 464.81 248.24 463.69 M 247.81 458.76 247.94 459.97 M 247.94 459.97 248.24 463.69 M 249.07 464.05 248.57 459.38 M 249.68 463.28 249.43 460.07 M 250.38 462.42 250.2 460.69 M 251 461.66 250.96 461.31 M 261.36 448.85 256.96 454.3 M 256.96 454.3 251.51 449.89 M 251.51 449.89 255.92 444.44 M 255.92 444.44 261.36 448.85 M 251.8 450.12 251.74 449.6 M 252.66 450.82 252.44 448.74 M 253.42 451.44 253.06 447.98 M 254.18 452.05 253.68 447.21 M 255.04 452.75 254.9 451.37 M 254.37 446.35 254.52 447.74 M 254.52 447.74 254.9 451.37 M 255.81 453.37 255.6 450.51 M 254.99 445.59 255.38 448.43 M 255.38 448.43 255.6 450.51 M 256.67 454.07 256.21 449.74 M 255.61 444.82 256.14 449.05 M 256.14 449.05 256.21 449.74 M 257.34 453.82 257 449.75 M 256.4 444.83 256.83 448.98 M 256.83 448.98 257 449.75 M 257.96 453.06 257.77 450.37 M 257.26 445.53 257.53 448.12 M 257.53 448.12 257.77 450.37 M 258.66 452.2 258.53 450.99 M 258.02 446.14 258.15 447.35 M 258.15 447.35 258.53 450.99 M 259.28 451.43 258.78 446.76 M 259.97 450.57 259.64 447.46 M 260.59 449.81 260.41 448.08 M 261.21 449.04 261.17 448.7 M 267.24 441.59 277.65 450.02 M 271.57 436.24 340.16 491.8 M 267.94 440.73 344.64 502.86 M 270.88 437.1 347.58 499.23 M 230.86 507.83 278.35 449.16 M 231.72 508.53 279.21 449.86 M 232.97 493.89 250.3 501.59 M 240.72 480.22 252.44 493.67 M 252.64 473.11 268.32 480.12 M 257.7 462.18 273.16 476.29 M 260.88 456.68 277.84 464.25 M 312.57 528.62 333.45 502.82 M 333.45 502.82 329.81 507.31 M 313.23 490.87 312.77 490.65 M 312.77 490.65 312.35 490.79 M 312.35 490.79 312.02 490.99 M 312.02 490.99 311.81 491.45 M 311.81 491.45 311.84 491.8 M 311.84 491.8 312.15 492.21 M 312.15 492.21 312.51 492.34 M 312.51 492.34 312.95 492.38 M 312.95 492.38 313.36 492.08 M 313.36 492.08 313.49 491.71 M 313.49 491.71 313.44 491.2 M 313.44 491.2 313.23 490.87 M 313.73 491.43 314.17 491.47 M 312.68 490.58 312.54 490.15 M 311.75 491.72 311.31 491.68 M 312.8 492.57 312.93 493 M 333.45 502.82 297.34 473.57 M 281.89 502.03 296.51 483.97 M 303.25 503.19 302.79 502.98 M 302.79 502.98 302.27 503.03 M 302.27 503.03 301.87 503.34 M 301.87 503.34 301.66 503.8 M 301.66 503.8 301.71 504.32 M 301.71 504.32 302.02 504.72 M 302.02 504.72 302.47 504.94 M 302.47 504.94 302.99 504.88 M 302.99 504.88 303.4 504.58 M 303.4 504.58 303.61 504.12 M 303.61 504.12 303.56 503.6 M 303.56 503.6 303.25 503.19 M 285.87 501.61 296.85 488.04 M 333.45 502.82 315.4 488.19 M 308.51 519.95 319.49 506.38 M 323.55 505.87 322.7 506.92 M 333.45 502.82 328.04 509.5 M 296.51 483.97 323.55 505.87 M 323.55 505.87 309.93 522.69 M 319.49 506.38 296.85 488.04 M 296.85 488.04 296.51 483.97 M 319.49 506.38 323.55 505.87 M 297.34 473.57 275.45 500.61 M 275.45 500.61 311.56 529.86 M 311.56 529.86 333.45 502.82 M 323.55 505.87 308.93 523.93 M 308.93 523.93 281.89 502.03 M 308.51 519.95 285.87 501.61 M 300.51 551.91 237.75 501.08 M 278.51 555.45 304.11 523.82 M 265.04 544.54 290.64 512.91 M 251.47 533.55 277.08 501.92 M 311.49 538.34 248.73 487.51 M 322.4 524.87 318.29 521.54 M 333.38 511.3 329.27 507.98 M 231.02 503.53 273.4 451.17 M 248.35 509.67 286.87 462.08 M 286.87 462.08 244.49 514.44 M 298.97 474.88 300.44 473.07 M 300.44 473.07 298.97 474.88 M 312.53 485.87 314 484.06 M 326 496.78 327.47 494.97 M 282.18 492.3 259.64 474.04 M 293.17 478.73 270.62 460.47 M 61.54 684.56 159.46 563.59 M 62.97 685.72 160.9 564.76 M 113.09 627.92 114.71 625.91 M 114.71 625.91 112.71 624.28 M 160.9 564.76 159.27 566.76 M 159.27 566.76 161.28 568.39 M 161.28 568.39 162.9 566.38 M 137.54 593.61 138.31 592.66 M 138.31 592.66 140.32 594.28 M 140.32 594.28 138.69 596.29 M 138.69 596.29 136.69 594.66 M 151.15 576.79 153.16 578.42 M 153.16 578.42 151.45 580.52 M 151.45 580.52 149.45 578.9 M 123.92 610.43 125.93 612.05 M 125.93 612.05 127.55 610.05 M 127.55 610.05 125.55 608.42 M 113.47 628.22 114.32 627.17 M 65.74 687.97 163.67 567 M 163.67 567 163.28 566.69 M 163.28 566.69 65.36 687.66 M 162.9 566.38 162.05 567.43 M 162.05 567.43 162.43 567.74 M 160.9 564.76 161.28 568.39 M 151.15 576.79 151.45 580.52 M 138.31 592.66 138.69 596.29 M 125.55 608.42 125.93 612.05 M 112.71 624.28 113.09 627.92 M 169.32 562.56 246.02 624.69 M 165.6 567.14 242.31 629.28 M 168.54 563.51 245.25 625.65 M 159.46 563.59 61.54 684.56 M 160.9 564.76 62.97 685.72 M 86.33 656.87 85.56 657.82 M 85.56 657.82 87.56 659.45 M 87.56 659.45 89.19 657.44 M 89.19 657.44 87.18 655.82 M 163.67 567 65.74 687.97 M 65.36 687.66 163.28 566.69 M 99.94 640.05 101.95 641.67 M 101.95 641.67 100.33 643.68 M 100.33 643.68 98.32 642.06 M 113.09 627.92 111.08 626.29 M 100.33 643.68 99.94 640.05 M 87.56 659.45 87.18 655.82 M 253.36 639.66 206.56 697.46 M 60.79 696.62 149.25 768.27 M 253.36 639.66 247.06 634.55 M 60.79 696.62 62.57 694.42 M 157.99 757.47 68.29 684.81 M 162.7 751.64 73.01 678.99 M 167.42 745.81 77.73 673.16 M 172.22 739.89 82.53 667.23 M 176.94 734.06 87.24 661.4 M 181.73 728.14 92.04 655.48 M 186.45 722.31 96.76 649.65 M 191.17 716.48 101.48 643.82 M 195.97 710.55 106.27 637.9 M 200.68 704.73 110.99 632.07 M 199.18 693.69 115.79 626.15 M 210.2 692.97 120.51 620.32 M 214.99 687.05 125.3 614.39 M 219.71 681.22 130.02 608.56 M 224.43 675.39 134.74 602.74 M 229.23 669.47 139.53 596.81 M 233.94 663.64 144.25 590.98 M 238.74 657.71 149.05 585.06 M 243.46 651.89 153.77 579.23 M 248.18 646.06 158.48 573.4 M 252.97 640.13 163.28 567.48 M 141.44 753.88 64.74 691.74 M 243.16 526.82 245.84 528.99 M 249.74 518.7 233.88 505.85 M 225.29 498.89 267.67 446.53 M 267.24 441.59 265 444.36 M 267.67 446.53 275.41 452.8 M 339.03 504.33 290.06 564.81 M 290.06 564.81 292.74 566.98 M 278.51 450.72 343.94 503.72 M 276.27 453.49 339.03 504.33 M 269.76 459.77 262.03 453.5 M 258.78 473.34 251.04 467.07 M 247.87 486.81 240.14 480.54 M 236.89 500.38 229.15 494.11 M 233.02 505.16 225.29 498.89 M 245.84 528.99 290.06 564.81 M 163.87 558.15 99.01 505.61 M 210.59 500.44 145.54 447.74 M 251.46 629.1 368.95 724.27 M 298.18 571.39 421.31 671.13 M 144.72 760.96 157.33 771.18 M 678.78 138.16 674.37 143.61 M 674.37 143.61 668.92 139.2 M 668.92 139.2 673.33 133.75 M 673.33 133.75 678.78 138.16 M 669.21 139.43 669.16 138.91 M 670.07 140.13 669.77 138.15 M 670.83 140.75 670.47 137.29 M 671.6 141.37 671.09 136.52 M 672.46 142.06 672.31 140.68 M 671.71 135.76 671.85 137.14 M 671.85 137.14 672.31 140.68 M 673.22 142.68 672.93 139.91 M 672.4 134.9 672.71 137.84 M 672.71 137.84 672.93 139.91 M 673.99 143.3 673.63 139.05 M 673.02 134.14 673.48 138.46 M 673.48 138.46 673.63 139.05 M 674.75 143.13 674.24 139.08 M 673.81 134.14 674.25 138.29 M 674.25 138.29 674.24 139.08 M 675.37 142.37 675.1 139.77 M 674.57 134.76 674.87 137.53 M 674.87 137.53 675.1 139.77 M 675.99 141.6 675.87 140.39 M 675.43 135.46 675.56 136.67 M 675.56 136.67 675.87 140.39 M 676.69 140.74 676.2 136.07 M 677.31 139.98 676.96 136.69 M 677.93 139.21 677.82 137.39 M 678.62 138.35 678.59 138.01 M 576.44 264.58 572.03 270.02 M 572.03 270.02 566.59 265.61 M 566.59 265.61 571 260.17 M 571 260.17 576.44 264.58 M 566.88 265.85 566.82 265.33 M 567.74 266.54 567.52 264.47 M 568.5 267.16 568.14 263.7 M 569.26 267.78 568.76 262.94 M 570.12 268.48 569.98 267.09 M 569.45 262.08 569.6 263.46 M 569.6 263.46 569.98 267.09 M 570.89 269.1 570.67 266.23 M 570.07 261.31 570.46 264.16 M 570.46 264.16 570.67 266.23 M 571.65 269.71 571.29 265.47 M 570.69 260.55 571.22 264.78 M 571.22 264.78 571.29 265.47 M 572.42 269.55 571.98 265.4 M 571.48 260.55 571.91 264.7 M 571.91 264.7 571.98 265.4 M 573.04 268.78 572.84 266.09 M 572.24 261.17 572.61 263.84 M 572.61 263.84 572.84 266.09 M 573.74 267.92 573.61 266.71 M 573.1 261.87 573.23 263.08 M 573.23 263.08 573.61 266.71 M 574.35 267.16 573.86 262.49 M 574.97 266.39 574.63 263.11 M 575.67 265.53 575.49 263.8 M 576.29 264.77 576.25 264.42 M 627.57 201.42 623.24 206.77 M 623.24 206.77 617.8 202.36 M 617.8 202.36 622.13 197.01 M 622.13 197.01 627.57 201.42 M 618.08 202.59 618.03 202.07 M 618.94 203.29 618.65 201.31 M 619.71 203.91 619.26 200.54 M 620.47 204.53 619.96 199.68 M 621.33 205.22 621.18 203.84 M 620.58 198.92 620.73 200.3 M 620.73 200.3 621.18 203.84 M 622.09 205.84 621.8 203.07 M 621.2 198.15 621.58 201 M 621.58 201 621.8 203.07 M 622.86 206.46 622.42 202.31 M 621.89 197.29 622.35 201.62 M 622.35 201.62 622.42 202.31 M 623.55 206.39 623.11 202.24 M 622.6 197.4 623.12 201.45 M 623.12 201.45 623.11 202.24 M 624.25 205.53 623.97 202.93 M 623.37 198.01 623.74 200.69 M 623.74 200.69 623.97 202.93 M 624.86 204.76 624.74 203.55 M 624.23 198.71 624.36 199.92 M 624.36 199.92 624.74 203.55 M 625.48 204 624.99 199.33 M 626.18 203.14 625.76 199.95 M 626.8 202.37 626.62 200.64 M 627.42 201.61 627.38 201.26 M 525.24 327.83 520.91 333.18 M 520.91 333.18 515.46 328.77 M 515.46 328.77 519.79 323.42 M 519.79 323.42 525.24 327.83 M 515.75 329.01 515.69 328.49 M 516.61 329.7 516.31 327.72 M 517.37 330.32 516.93 326.96 M 518.14 330.94 517.63 326.1 M 519 331.64 518.85 330.25 M 518.25 325.33 518.39 326.72 M 518.39 326.72 518.85 330.25 M 519.76 332.26 519.47 329.49 M 518.94 324.47 519.25 327.41 M 519.25 327.41 519.47 329.49 M 520.52 332.87 520.16 328.63 M 519.56 323.71 520.01 328.03 M 520.01 328.03 520.16 328.63 M 521.29 332.71 520.78 328.65 M 520.27 323.81 520.78 327.86 M 520.78 327.86 520.78 328.65 M 521.91 331.94 521.64 329.35 M 521.03 324.43 521.4 327.1 M 521.4 327.1 521.64 329.35 M 522.53 331.18 522.4 329.97 M 521.89 325.12 522.1 326.24 M 522.1 326.24 522.4 329.97 M 523.23 330.32 522.66 325.74 M 523.84 329.55 523.42 326.36 M 524.46 328.79 524.28 327.06 M 525.16 327.93 525.05 327.68 M 474.11 390.99 469.7 396.44 M 469.7 396.44 464.25 392.03 M 464.25 392.03 468.66 386.58 M 468.66 386.58 474.11 390.99 M 464.54 392.26 464.49 391.74 M 465.4 392.96 465.18 390.88 M 466.17 393.58 465.8 390.12 M 466.93 394.2 466.42 389.35 M 467.79 394.89 467.64 393.51 M 467.12 388.49 467.26 389.88 M 467.26 389.88 467.64 393.51 M 468.55 395.51 468.34 392.65 M 467.74 387.73 468.12 390.57 M 468.12 390.57 468.34 392.65 M 469.32 396.13 468.96 391.88 M 468.43 386.87 468.89 391.19 M 468.89 391.19 468.96 391.88 M 470.09 395.96 469.65 391.81 M 469.14 386.97 469.65 391.02 M 469.65 391.02 469.65 391.81 M 470.78 395.1 470.51 392.51 M 469.91 387.59 470.27 390.26 M 470.27 390.26 470.51 392.51 M 471.4 394.34 471.27 393.13 M 470.77 388.28 470.89 389.49 M 470.89 389.49 471.27 393.13 M 472.02 393.57 471.53 388.9 M 472.72 392.71 472.29 389.52 M 473.34 391.95 473.15 390.22 M 473.95 391.18 473.92 390.84 M 371.77 517.41 367.44 522.76 M 367.44 522.76 362 518.35 M 362 518.35 366.33 513 M 366.33 513 371.77 517.41 M 362.28 518.58 362.23 518.06 M 363.14 519.28 362.85 517.3 M 363.91 519.89 363.47 516.53 M 364.67 520.51 364.16 515.67 M 365.53 521.21 365.39 519.83 M 364.78 514.91 364.93 516.29 M 364.93 516.29 365.39 519.83 M 366.3 521.83 366.01 519.06 M 365.4 514.14 365.79 516.99 M 365.79 516.99 366.01 519.06 M 367.06 522.45 366.62 518.3 M 366.1 513.28 366.55 517.61 M 366.55 517.61 366.62 518.3 M 367.75 522.38 367.32 518.23 M 366.81 513.38 367.32 517.44 M 367.32 517.44 367.32 518.23 M 368.45 521.52 368.18 518.92 M 367.57 514 367.94 516.67 M 367.94 516.67 368.18 518.92 M 369.07 520.75 368.94 519.54 M 368.43 514.7 368.56 515.91 M 368.56 515.91 368.94 519.54 M 369.69 519.99 369.2 515.32 M 370.38 519.13 369.96 515.94 M 371 518.36 370.82 516.63 M 371.7 517.5 371.58 517.25 M 422.98 454.15 418.57 459.6 M 418.57 459.6 413.13 455.19 M 413.13 455.19 417.54 449.74 M 417.54 449.74 422.98 454.15 M 413.41 455.42 413.36 454.9 M 414.27 456.12 413.98 454.14 M 415.04 456.74 414.67 453.28 M 415.8 457.35 415.29 452.51 M 416.66 458.05 416.52 456.67 M 415.91 451.75 416.06 453.13 M 416.06 453.13 416.52 456.67 M 417.42 458.67 417.13 455.9 M 416.61 450.89 416.92 453.83 M 416.92 453.83 417.13 455.9 M 418.19 459.29 417.83 455.04 M 417.23 450.12 417.68 454.45 M 417.68 454.45 417.83 455.04 M 418.96 459.12 418.44 455.07 M 418.01 450.13 418.45 454.28 M 418.45 454.28 418.44 455.07 M 419.58 458.36 419.3 455.76 M 418.78 450.75 419.07 453.51 M 419.07 453.51 419.3 455.76 M 420.2 457.59 420.07 456.38 M 419.64 451.44 419.76 452.65 M 419.76 452.65 420.07 456.38 M 420.89 456.73 420.4 452.06 M 421.51 455.97 421.17 452.68 M 422.21 455.11 422.02 453.38 M 422.83 454.34 422.79 454 M 320.65 580.57 316.24 586.01 M 316.24 586.01 310.79 581.6 M 310.79 581.6 315.2 576.16 M 315.2 576.16 320.65 580.57 M 311.08 581.83 311.02 581.32 M 311.94 582.53 311.72 580.46 M 312.7 583.15 312.34 579.69 M 313.47 583.77 312.96 578.93 M 314.33 584.47 314.18 583.08 M 313.65 578.07 313.8 579.45 M 313.8 579.45 314.18 583.08 M 315.09 585.08 314.88 582.22 M 314.27 577.3 314.66 580.15 M 314.66 580.15 314.88 582.22 M 315.85 585.7 315.5 581.46 M 314.89 576.54 315.42 580.77 M 315.42 580.77 315.5 581.46 M 316.62 585.54 316.19 581.38 M 315.68 576.54 316.11 580.69 M 316.11 580.69 316.19 581.38 M 317.24 584.77 317.05 582.08 M 316.44 577.16 316.81 579.83 M 316.81 579.83 317.05 582.08 M 317.94 583.91 317.81 582.7 M 317.3 577.86 317.43 579.07 M 317.43 579.07 317.81 582.7 M 318.56 583.15 318.07 578.48 M 319.18 582.38 318.83 579.1 M 319.87 581.52 319.69 579.79 M 320.49 580.76 320.45 580.41 M 269.52 643.73 265.11 649.17 M 265.11 649.17 259.66 644.76 M 259.66 644.76 264.07 639.32 M 264.07 639.32 269.52 643.73 M 259.95 644.99 259.9 644.48 M 260.81 645.69 260.51 643.71 M 261.57 646.31 261.21 642.85 M 262.34 646.93 261.83 642.09 M 263.2 647.62 263.05 646.24 M 262.45 641.32 262.59 642.71 M 262.59 642.71 263.05 646.24 M 263.96 648.24 263.67 645.48 M 263.14 640.46 263.45 643.4 M 263.45 643.4 263.67 645.48 M 264.73 648.86 264.37 644.62 M 263.76 639.7 264.22 644.02 M 264.22 644.02 264.37 644.62 M 265.49 648.69 264.98 644.64 M 264.55 639.7 264.99 643.85 M 264.99 643.85 264.98 644.64 M 266.11 647.93 265.84 645.34 M 265.31 640.32 265.61 643.09 M 265.61 643.09 265.84 645.34 M 266.73 647.17 266.61 645.96 M 266.17 641.02 266.3 642.23 M 266.3 642.23 266.61 645.96 M 267.43 646.31 266.94 641.64 M 268.05 645.54 267.7 642.26 M 268.67 644.78 268.56 642.95 M 269.36 643.92 269.33 643.57 M 167.18 770.14 162.77 775.59 M 162.77 775.59 157.33 771.18 M 157.33 771.18 161.74 765.73 M 161.74 765.73 167.18 770.14 M 157.62 771.41 157.56 770.89 M 158.48 772.1 158.18 770.13 M 159.24 772.72 158.88 769.27 M 160 773.34 159.5 768.5 M 160.86 774.04 160.72 772.66 M 160.19 767.64 160.34 769.02 M 160.34 769.02 160.72 772.66 M 161.63 774.66 161.41 771.8 M 160.81 766.88 161.2 769.72 M 161.2 769.72 161.41 771.8 M 162.39 775.28 162.03 771.03 M 161.43 766.11 161.96 770.34 M 161.96 770.34 162.03 771.03 M 163.16 775.11 162.72 770.96 M 162.22 766.12 162.65 770.27 M 162.65 770.27 162.72 770.96 M 163.78 774.34 163.58 771.66 M 162.98 766.74 163.35 769.41 M 163.35 769.41 163.58 771.66 M 164.48 773.48 164.35 772.27 M 163.84 767.43 163.97 768.64 M 163.97 768.64 164.35 772.27 M 165.09 772.72 164.6 768.05 M 165.71 771.96 165.37 768.67 M 166.41 771.1 166.23 769.37 M 167.03 770.33 166.99 769.99 M 218.31 706.98 213.98 712.33 M 213.98 712.33 208.54 707.92 M 208.54 707.92 212.87 702.57 M 212.87 702.57 218.31 706.98 M 208.82 708.15 208.77 707.63 M 209.68 708.85 209.39 706.87 M 210.45 709.47 210 706.11 M 211.21 710.09 210.7 705.25 M 212.07 710.78 211.92 709.4 M 211.32 704.48 211.47 705.86 M 211.47 705.86 211.92 709.4 M 212.83 711.4 212.54 708.64 M 211.94 703.72 212.32 706.56 M 212.32 706.56 212.54 708.64 M 213.6 712.02 213.16 707.87 M 212.63 702.86 213.09 707.18 M 213.09 707.18 213.16 707.87 M 214.29 711.95 213.85 707.8 M 213.34 702.96 213.86 707.01 M 213.86 707.01 213.85 707.8 M 214.99 711.09 214.71 708.5 M 214.11 703.58 214.48 706.25 M 214.48 706.25 214.71 708.5 M 215.6 710.33 215.48 709.11 M 214.97 704.27 215.1 705.48 M 215.1 705.48 215.48 709.11 M 216.22 709.56 215.73 704.89 M 216.92 708.7 216.5 705.51 M 217.54 707.94 217.36 706.21 M 218.16 707.17 218.12 706.83 M 149.13 755.52 161.74 765.73 M 195.93 697.71 208.54 707.92 M 200.26 692.36 212.87 702.57 M 247.06 634.55 259.66 644.76 M 251.46 629.1 264.07 639.32 M 298.18 571.39 310.79 581.6 M 302.59 565.94 315.2 576.16 M 349.39 508.13 362 518.35 M 353.72 502.78 366.33 513 M 400.52 444.97 413.13 455.19 M 404.93 439.53 417.54 449.74 M 451.65 381.81 464.25 392.03 M 456.06 376.37 468.66 386.58 M 502.85 318.56 515.46 328.77 M 507.18 313.21 519.79 323.42 M 553.98 255.4 566.59 265.61 M 558.39 249.95 571 260.17 M 605.19 192.15 617.8 202.36 M 609.52 186.79 622.13 197.01 M 656.32 128.99 668.92 139.2 M 660.72 123.54 673.33 133.75 M 206.56 697.46 253.36 639.66 M 155.43 760.62 202.23 702.81 M 151.02 766.07 149.25 768.27 M 202.23 702.81 155.43 760.62 M 376.34 301.35 374.83 300.29 M 374.83 300.29 373.18 299.59 M 373.18 299.59 371.46 298.98 M 371.46 298.98 369.69 298.82 M 369.69 298.82 367.87 298.92 M 367.87 298.92 366.06 299.2 M 366.06 299.2 364.37 299.73 M 364.37 299.73 362.81 300.68 M 362.81 300.68 361.35 301.7 M 361.35 301.7 360.09 303.06 M 360.09 303.06 359.02 304.57 M 359.02 304.57 358.32 306.22 M 358.32 306.22 357.72 307.94 M 357.72 307.94 357.55 309.71 M 357.55 309.71 357.66 311.53 M 357.66 311.53 357.94 313.34 M 357.94 313.34 358.46 315.03 M 358.46 315.03 359.41 316.59 M 359.41 316.59 360.44 318.06 M 360.44 318.06 361.8 319.32 M 361.8 319.32 363.31 320.38 M 363.31 320.38 364.95 321.08 M 364.95 321.08 366.68 321.69 M 366.68 321.69 368.44 321.85 M 368.44 321.85 370.27 321.75 M 370.27 321.75 372.07 321.47 M 372.07 321.47 373.77 320.94 M 373.77 320.94 375.33 319.99 M 375.33 319.99 376.79 318.96 M 376.79 318.96 378.05 317.61 M 378.05 317.61 379.11 316.1 M 379.11 316.1 379.81 314.45 M 379.81 314.45 380.42 312.72 M 380.42 312.72 380.58 310.96 M 380.58 310.96 380.48 309.13 M 380.48 309.13 380.2 307.33 M 380.2 307.33 379.67 305.63 M 379.67 305.63 378.72 304.07 M 378.72 304.07 377.69 302.61 M 377.69 302.61 376.34 301.35 M 478.67 174.94 477.16 173.87 M 477.16 173.87 475.52 173.17 M 475.52 173.17 473.79 172.57 M 473.79 172.57 472.03 172.4 M 472.03 172.4 470.2 172.51 M 470.2 172.51 468.4 172.78 M 468.4 172.78 466.7 173.31 M 466.7 173.31 465.14 174.26 M 465.14 174.26 463.68 175.29 M 463.68 175.29 462.42 176.65 M 462.42 176.65 461.36 178.16 M 461.36 178.16 460.66 179.8 M 460.66 179.8 460.05 181.53 M 460.05 181.53 459.89 183.29 M 459.89 183.29 459.99 185.12 M 459.99 185.12 460.27 186.93 M 460.27 186.93 460.8 188.62 M 460.8 188.62 461.75 190.18 M 461.75 190.18 462.78 191.65 M 462.78 191.65 464.13 192.9 M 464.13 192.9 465.64 193.97 M 465.64 193.97 467.29 194.67 M 467.29 194.67 469.01 195.27 M 469.01 195.27 470.78 195.44 M 470.78 195.44 472.6 195.33 M 472.6 195.33 474.41 195.06 M 474.41 195.06 476.1 194.53 M 476.1 194.53 477.66 193.58 M 477.66 193.58 479.13 192.55 M 479.13 192.55 480.38 191.19 M 480.38 191.19 481.45 189.68 M 481.45 189.68 482.15 188.04 M 482.15 188.04 482.75 186.31 M 482.75 186.31 482.92 184.54 M 482.92 184.54 482.81 182.72 M 482.81 182.72 482.53 180.91 M 482.53 180.91 482.01 179.22 M 482.01 179.22 481.06 177.66 M 481.06 177.66 480.03 176.19 M 480.03 176.19 478.67 174.94 M 655.28 119.13 578.58 57 M 577.42 58.43 654.12 120.56 M 654.12 120.56 652.11 118.94 M 652.11 118.94 650.49 120.94 M 652.11 118.94 652.49 122.57 M 652.49 122.57 650.49 120.94 M 652.49 122.57 652.19 122.95 M 652.19 122.95 651.13 122.1 M 651.13 122.1 651.44 121.72 M 652.19 122.95 651.88 123.33 M 651.88 123.33 575.17 61.2 M 577.49 62.44 651.13 122.1 M 651.57 123.72 650.87 124.58 M 655.28 119.13 578.58 57 M 577.42 58.43 654.12 120.56 M 575.79 60.44 577.8 62.06 M 577.8 62.06 577.42 58.43 M 579.42 60.05 577.8 62.06 M 577.8 62.06 577.42 58.43 M 613.14 90.69 614.77 88.68 M 614.77 88.68 616.77 90.31 M 616.77 90.31 615.15 92.32 M 654.12 120.56 652.11 118.94 M 652.11 118.94 650.49 120.94 M 592.6 74.05 594.23 72.05 M 594.23 72.05 596.23 73.67 M 596.23 73.67 594.61 75.68 M 594.61 75.68 594.23 72.05 M 614.77 88.68 615.15 92.32 M 652.11 118.94 652.49 122.57 M 635.68 108.95 637.31 106.94 M 637.31 106.94 635.3 105.32 M 635.3 105.32 633.68 107.33 M 635.3 105.32 635.68 108.95 M 592.6 74.05 594.61 75.68 M 613.14 90.69 615.15 92.32 M 633.68 107.33 635.68 108.95 M 650.49 120.94 652.49 122.57 M 652.49 122.57 652.19 122.95 M 652.19 122.95 651.13 122.1 M 651.13 122.1 651.44 121.72 M 652.19 122.95 651.88 123.33 M 651.88 123.33 575.17 61.2 M 575.48 60.82 651.13 122.1 M 674.75 143.13 755.95 208.9 M 660.8 132.62 653.84 141.22 M 653.84 141.22 748.6 217.98 M 653.84 141.22 646.57 150.2 M 646.57 150.2 741.33 226.96 M 646.57 150.2 639.22 159.28 M 639.22 159.28 733.98 236.04 M 730.34 240.53 635.59 163.77 M 635.59 163.77 628.24 172.85 M 628.24 172.85 723 249.61 M 628.24 172.85 620.97 181.83 M 620.97 181.83 715.72 258.59 M 620.97 181.83 614.01 190.43 M 627.26 201.8 708.45 267.57 M 623.55 206.39 704.74 272.16 M 609.68 195.78 602.71 204.38 M 602.71 204.38 697.47 281.14 M 602.71 204.38 595.37 213.46 M 595.37 213.46 690.12 290.22 M 595.37 213.46 588.1 222.44 M 588.1 222.44 682.85 299.2 M 679.22 303.69 584.46 226.93 M 584.46 226.93 577.11 236.01 M 577.11 236.01 671.87 312.77 M 577.11 236.01 569.84 244.99 M 569.84 244.99 664.6 321.75 M 569.84 244.99 562.88 253.59 M 576.06 265.06 657.25 330.83 M 572.42 269.55 653.61 335.32 M 558.47 259.04 551.51 267.64 M 551.51 267.64 646.26 344.39 M 551.51 267.64 544.24 276.62 M 544.24 276.62 638.99 353.38 M 544.24 276.62 536.89 285.7 M 536.89 285.7 631.64 362.45 M 628.01 366.94 533.25 290.19 M 533.25 290.19 525.98 299.17 M 525.98 299.17 620.74 375.93 M 525.98 299.17 518.63 308.25 M 518.63 308.25 613.39 385 M 518.63 308.25 511.67 316.85 M 524.93 328.22 606.12 393.98 M 521.29 332.71 602.48 398.48 M 507.34 322.2 500.38 330.8 M 500.38 330.8 595.14 407.55 M 500.38 330.8 493.11 339.78 M 493.11 339.78 587.86 416.53 M 493.11 339.78 485.76 348.86 M 485.76 348.86 580.52 425.61 M 576.88 430.1 482.13 353.35 M 482.13 353.35 474.78 362.42 M 474.78 362.42 569.53 439.18 M 474.78 362.42 467.51 371.41 M 467.51 371.41 562.26 448.16 M 467.51 371.41 460.54 380.01 M 473.72 391.47 554.91 457.24 M 470.09 395.96 551.28 461.73 M 456.14 385.45 449.25 393.96 M 449.25 393.96 544.01 470.71 M 449.25 393.96 441.9 403.03 M 441.9 403.03 536.66 479.79 M 441.9 403.03 434.63 412.01 M 434.63 412.01 529.39 488.77 M 525.67 493.36 430.92 416.6 M 430.92 416.6 423.65 425.58 M 423.65 425.58 518.4 502.34 M 423.65 425.58 416.3 434.66 M 416.3 434.66 511.06 511.42 M 416.3 434.66 409.42 443.16 M 422.59 454.63 503.78 520.4 M 418.96 459.12 500.15 524.89 M 405.01 448.61 398.05 457.21 M 398.05 457.21 492.8 533.97 M 398.05 457.21 390.77 466.19 M 390.77 466.19 485.53 542.95 M 390.77 466.19 383.43 475.27 M 383.43 475.27 478.18 552.03 M 474.55 556.52 379.79 479.76 M 379.79 479.76 372.52 488.74 M 372.52 488.74 467.28 565.5 M 372.52 488.74 365.17 497.82 M 365.17 497.82 459.93 574.58 M 365.17 497.82 358.21 506.42 M 371.46 517.79 452.66 583.56 M 367.75 522.38 448.94 588.15 M 353.88 511.77 346.92 520.37 M 346.92 520.37 441.67 597.13 M 346.92 520.37 339.57 529.45 M 339.57 529.45 434.32 606.2 M 339.57 529.45 332.3 538.43 M 332.3 538.43 427.05 615.19 M 423.42 619.68 328.66 542.92 M 328.66 542.92 321.31 552 M 321.31 552 416.07 628.75 M 321.31 552 314.04 560.98 M 314.04 560.98 408.8 637.74 M 314.04 560.98 307.08 569.58 M 320.26 581.04 401.45 646.81 M 247.57 521.37 249.74 518.7 M 570.89 55.36 567.64 59.37 M 567.64 59.37 648.45 124.83 M 655.81 124.14 651.7 120.82 M 648.45 124.83 346.94 497.29 M 346.94 497.29 266.13 431.83 M 656.32 128.99 353.72 502.78 M 646.16 122.97 638.81 132.05 M 638.81 132.05 496.68 16.92 M 496.68 16.92 504.02 7.84 M 504.02 7.84 646.16 122.97 M 638.81 132.05 631.54 141.03 M 631.54 141.03 489.41 25.9 M 489.41 25.9 496.68 16.92 M 631.54 141.03 624.19 150.11 M 624.19 150.11 482.06 34.97 M 482.06 34.97 489.41 25.9 M 584.16 102.65 591.43 93.67 M 638.81 132.05 544.05 55.29 M 544.05 55.29 551.4 46.22 M 536.78 64.28 529.43 73.35 M 620.94 154.12 613.59 163.2 M 613.59 163.2 471.46 48.06 M 471.46 48.06 478.81 38.99 M 478.81 38.99 620.94 154.12 M 613.59 163.2 606.32 172.18 M 606.32 172.18 464.19 57.05 M 464.19 57.05 471.46 48.06 M 606.32 172.18 598.97 181.26 M 598.97 181.26 456.84 66.12 M 456.84 66.12 464.19 57.05 M 558.94 133.8 566.22 124.82 M 613.59 163.2 518.84 86.44 M 518.84 86.44 526.19 77.37 M 511.57 95.43 504.22 104.5 M 595.73 185.27 588.38 194.35 M 588.38 194.35 446.24 79.21 M 446.24 79.21 453.59 70.14 M 453.59 70.14 595.73 185.27 M 588.38 194.35 581.11 203.33 M 581.11 203.33 438.97 88.2 M 438.97 88.2 446.24 79.21 M 581.11 203.33 573.76 212.41 M 573.76 212.41 431.62 97.27 M 431.62 97.27 438.97 88.2 M 533.73 164.95 541 155.97 M 588.38 194.35 493.62 117.59 M 493.62 117.59 500.97 108.52 M 486.35 126.57 479 135.65 M 570.51 216.42 563.16 225.5 M 563.16 225.5 421.03 110.36 M 421.03 110.36 428.38 101.29 M 428.38 101.29 570.51 216.42 M 563.16 225.5 555.89 234.48 M 555.89 234.48 413.76 119.35 M 413.76 119.35 421.03 110.36 M 555.89 234.48 548.54 243.56 M 406.41 128.42 413.76 119.35 M 508.51 196.1 515.78 187.12 M 563.16 225.5 468.41 148.74 M 468.41 148.74 475.75 139.67 M 461.13 157.72 453.79 166.8 M 548.54 243.56 485.4 192.41 M 488.26 179.7 555.89 234.48 M 555.89 234.48 492.75 183.34 M 492.75 183.34 485.4 192.41 M 406.41 128.42 453.79 166.8 M 545.29 247.57 482.15 196.43 M 403.16 132.44 381.19 159.57 M 381.19 159.57 523.33 274.71 M 523.33 274.71 545.29 247.57 M 523.33 274.71 530.67 265.63 M 530.67 265.63 388.54 150.5 M 537.94 256.65 395.81 141.51 M 490.57 218.27 483.3 227.25 M 435.92 188.87 428.57 197.95 M 482.15 196.43 474.81 205.5 M 450.54 170.82 403.16 132.44 M 519.69 279.2 424.93 202.44 M 377.56 164.06 355.67 191.11 M 355.67 191.11 497.8 306.24 M 497.8 306.24 519.69 279.2 M 497.8 306.24 505.07 297.26 M 505.07 297.26 362.94 182.12 M 512.42 288.18 370.29 173.05 M 465.04 249.8 457.69 258.88 M 424.93 202.44 417.66 211.42 M 410.32 220.5 403.04 229.48 M 424.93 202.44 377.56 164.06 M 450.54 170.82 443.19 179.89 M 494.16 310.73 399.41 233.97 M 352.03 195.6 330.06 222.73 M 330.06 222.73 472.2 337.87 M 472.2 337.87 494.16 310.73 M 479.55 328.79 337.41 213.66 M 486.82 319.81 344.68 204.67 M 439.44 281.43 432.17 290.41 M 399.41 233.97 392.06 243.05 M 384.79 252.03 377.44 261.11 M 399.41 233.97 352.03 195.6 M 468.56 342.36 373.81 265.6 M 326.43 227.22 304.46 254.36 M 304.46 254.36 351.84 292.74 M 446.59 369.5 468.56 342.36 M 453.94 360.42 311.81 245.28 M 461.21 351.44 319.08 236.3 M 413.84 313.06 406.56 322.04 M 373.81 265.6 366.46 274.68 M 359.19 283.66 351.84 292.74 M 373.81 265.6 326.43 227.22 M 390.8 309.27 383.46 318.35 M 443.35 373.51 436 382.59 M 436 382.59 293.86 267.45 M 301.21 258.37 348.59 296.75 M 436 382.59 428.73 391.57 M 428.73 391.57 286.59 276.43 M 428.73 391.57 421.38 400.65 M 421.38 400.65 279.24 285.51 M 381.35 353.19 388.62 344.21 M 436 382.59 341.24 305.83 M 418.13 404.66 410.78 413.74 M 410.78 413.74 268.65 298.6 M 276 289.52 418.13 404.66 M 410.78 413.74 403.51 422.72 M 403.51 422.72 261.38 307.58 M 403.51 422.72 396.16 431.8 M 396.16 431.8 254.03 316.66 M 356.13 384.34 363.4 375.36 M 410.78 413.74 316.03 336.98 M 392.91 435.81 385.56 444.89 M 385.56 444.89 243.43 329.75 M 250.78 320.67 392.91 435.81 M 385.56 444.89 378.29 453.87 M 378.29 453.87 236.16 338.73 M 378.29 453.87 370.95 462.94 M 370.95 462.94 228.81 347.81 M 330.92 415.49 338.19 406.51 M 385.56 444.89 290.81 368.13 M 367.7 466.96 360.35 476.04 M 360.35 476.04 218.22 360.9 M 225.56 351.82 367.7 466.96 M 360.35 476.04 353.08 485.02 M 353.08 485.02 210.94 369.88 M 353.08 485.02 345.81 494 M 345.81 494 203.67 378.86 M 305.7 446.64 312.97 437.66 M 360.35 476.04 265.59 399.28 M 301.21 258.37 279.24 285.51 M 341.24 305.83 348.59 296.75 M 333.97 314.81 326.62 323.89 M 276 289.52 254.03 316.66 M 316.03 336.98 323.37 327.9 M 308.75 345.96 301.41 355.04 M 250.78 320.67 228.81 347.81 M 290.81 368.13 298.16 359.05 M 283.54 377.11 276.19 386.19 M 225.56 351.82 203.67 378.86 M 265.59 399.28 272.94 390.2 M 258.32 408.26 251.05 417.24 M 372.86 331.44 380.21 322.36 M 380.21 322.36 443.35 373.51 M 383.46 318.35 446.59 369.5 M 639.22 159.28 733.98 236.04 M 733.98 236.04 755.95 208.9 M 730.34 240.53 708.45 267.57 M 423.42 619.68 401.45 646.81 M 448.94 588.15 427.05 615.19 M 474.55 556.52 452.66 583.56 M 500.15 524.89 478.18 552.03 M 525.67 493.36 503.78 520.4 M 551.28 461.73 529.39 488.77 M 576.88 430.1 554.91 457.24 M 602.48 398.48 580.52 425.61 M 653.61 335.32 606.12 393.98 M 679.22 303.69 657.25 330.83 M 704.74 272.16 682.85 299.2"/>
</g>
</svg>