<?xml version="1.0"?>
<svg xmlns="http://www.w3.org/2000/svg" version="1.2" baseProfile="tiny" width="800" height="798" viewBox="0 0 800 798" stroke-linecap="round" stroke-linejoin="round">
<g id="16" fill="none" stroke="black" stroke-width="1">
<path d="M 482.97 177.54 516.95 205.05 M 516.95 205.05 482.97 177.54 M 260.22 325.41 191.63 410.11 M 211.02 594.59 213.83 596.87 M 480.33 643.89 548.92 559.19 M 399.54 547.72 398.78 547.91 M 675.27 4.8 773.91 84.67 M 444.8 305.9 529.5 374.49 M 82.28 668.84 216.12 777.22 M 95.01 660.12 221.76 762.76 M 762.06 94.31 670.63 20.27 M 670.63 20.27 502.52 37.94 M 675.27 4.8 494.77 23.77 M 502.52 37.94 426.5 131.81 M 494.77 23.77 417.37 119.35 M 17.42 428.31 16.1 427.44 M 16.1 427.44 14.48 426.94 M 14.48 426.94 12.88 426.66 M 12.88 426.66 11.11 426.85 M 11.11 426.85 9.61 427.45 M 9.61 427.45 8.13 428.28 M 8.13 428.28 7.02 429.4 M 7.02 429.4 6.15 430.72 M 6.15 430.72 5.65 432.34 M 5.65 432.34 5.37 433.93 M 5.37 433.93 5.56 435.7 M 5.56 435.7 6.16 437.21 M 6.16 437.21 6.99 438.69 M 6.99 438.69 8.11 439.8 M 8.11 439.8 9.43 440.66 M 9.43 440.66 11.05 441.17 M 11.05 441.17 12.65 441.45 M 12.65 441.45 14.42 441.26 M 14.42 441.26 15.92 440.65 M 15.92 440.65 17.4 439.83 M 17.4 439.83 18.51 438.7 M 18.51 438.7 19.38 437.38 M 19.38 437.38 19.88 435.76 M 19.88 435.76 20.16 434.17 M 20.16 434.17 19.97 432.4 M 19.97 432.4 19.37 430.9 M 19.37 430.9 18.54 429.42 M 18.54 429.42 17.42 428.31 M 93.3 658.74 91.98 657.87 M 91.98 657.87 90.36 657.37 M 90.36 657.37 88.76 657.09 M 88.76 657.09 86.99 657.28 M 86.99 657.28 85.49 657.88 M 85.49 657.88 84.01 658.71 M 84.01 658.71 82.9 659.83 M 82.9 659.83 82.03 661.15 M 82.03 661.15 81.53 662.77 M 81.53 662.77 81.25 664.36 M 81.25 664.36 81.44 666.13 M 81.44 666.13 82.04 667.64 M 82.04 667.64 82.87 669.11 M 82.87 669.11 83.99 670.23 M 83.99 670.23 85.32 671.09 M 85.32 671.09 86.93 671.6 M 86.93 671.6 88.53 671.87 M 88.53 671.87 90.3 671.69 M 90.3 671.69 91.8 671.08 M 91.8 671.08 93.28 670.26 M 93.28 670.26 94.39 669.13 M 94.39 669.13 95.26 667.81 M 95.26 667.81 95.76 666.19 M 95.76 666.19 96.04 664.6 M 96.04 664.6 95.85 662.83 M 95.85 662.83 95.25 661.33 M 95.25 661.33 94.42 659.85 M 94.42 659.85 93.3 658.74 M 223.59 764.25 222.27 763.38 M 222.27 763.38 220.65 762.88 M 220.65 762.88 219.06 762.6 M 219.06 762.6 217.29 762.78 M 217.29 762.78 215.79 763.39 M 215.79 763.39 214.31 764.22 M 214.31 764.22 213.2 765.34 M 213.2 765.34 212.33 766.66 M 212.33 766.66 211.83 768.28 M 211.83 768.28 211.55 769.87 M 211.55 769.87 211.73 771.64 M 211.73 771.64 212.34 773.14 M 212.34 773.14 213.16 774.62 M 213.16 774.62 214.29 775.74 M 214.29 775.74 215.61 776.6 M 215.61 776.6 217.23 777.1 M 217.23 777.1 218.82 777.38 M 218.82 777.38 220.59 777.2 M 220.59 777.2 222.09 776.59 M 222.09 776.59 223.57 775.77 M 223.57 775.77 224.68 774.64 M 224.68 774.64 225.55 773.32 M 225.55 773.32 226.05 771.7 M 226.05 771.7 226.33 770.11 M 226.33 770.11 226.15 768.34 M 226.15 768.34 225.54 766.84 M 225.54 766.84 224.72 765.36 M 224.72 765.36 223.59 764.25 M 77.64 271.47 76.32 270.6 M 76.32 270.6 74.7 270.1 M 74.7 270.1 73.11 269.82 M 73.11 269.82 71.34 270 M 71.34 270 69.84 270.61 M 69.84 270.61 68.36 271.43 M 68.36 271.43 67.25 272.56 M 67.25 272.56 66.38 273.88 M 66.38 273.88 65.88 275.5 M 65.88 275.5 65.6 277.09 M 65.6 277.09 65.78 278.86 M 65.78 278.86 66.39 280.36 M 66.39 280.36 67.22 281.84 M 67.22 281.84 68.34 282.95 M 68.34 282.95 69.66 283.82 M 69.66 283.82 71.28 284.32 M 71.28 284.32 72.87 284.6 M 72.87 284.6 74.64 284.42 M 74.64 284.42 76.14 283.81 M 76.14 283.81 77.62 282.98 M 77.62 282.98 78.74 281.86 M 78.74 281.86 79.6 280.54 M 79.6 280.54 80.1 278.92 M 80.1 278.92 80.38 277.33 M 80.38 277.33 80.2 275.56 M 80.2 275.56 79.59 274.06 M 79.59 274.06 78.77 272.58 M 78.77 272.58 77.64 271.47 M 480.33 643.89 479 643.02 M 479 643.02 477.39 642.52 M 477.39 642.52 475.79 642.24 M 475.79 642.24 474.02 642.43 M 474.02 642.43 472.52 643.03 M 472.52 643.03 471.04 643.86 M 471.04 643.86 469.93 644.98 M 469.93 644.98 469.06 646.3 M 469.06 646.3 468.56 647.92 M 468.56 647.92 468.28 649.52 M 468.28 649.52 468.47 651.29 M 468.47 651.29 469.07 652.79 M 469.07 652.79 469.9 654.27 M 469.9 654.27 471.02 655.38 M 471.02 655.38 472.34 656.25 M 472.34 656.25 473.96 656.75 M 473.96 656.75 475.56 657.03 M 475.56 657.03 477.33 656.84 M 477.33 656.84 478.83 656.24 M 478.83 656.24 480.31 655.41 M 480.31 655.41 481.42 654.29 M 481.42 654.29 482.29 652.97 M 482.29 652.97 482.79 651.35 M 482.79 651.35 483.07 649.75 M 483.07 649.75 482.88 647.98 M 482.88 647.98 482.27 646.48 M 482.27 646.48 481.45 645 M 481.45 645 480.33 643.89 M 306.24 662.19 304.92 661.32 M 304.92 661.32 303.3 660.82 M 303.3 660.82 301.7 660.54 M 301.7 660.54 299.93 660.73 M 299.93 660.73 298.43 661.33 M 298.43 661.33 296.95 662.16 M 296.95 662.16 295.84 663.28 M 295.84 663.28 294.97 664.6 M 294.97 664.6 294.47 666.22 M 294.47 666.22 294.19 667.81 M 294.19 667.81 294.38 669.58 M 294.38 669.58 294.98 671.09 M 294.98 671.09 295.81 672.57 M 295.81 672.57 296.93 673.68 M 296.93 673.68 298.26 674.54 M 298.26 674.54 299.87 675.05 M 299.87 675.05 301.47 675.33 M 301.47 675.33 303.24 675.14 M 303.24 675.14 304.74 674.53 M 304.74 674.53 306.22 673.71 M 306.22 673.71 307.33 672.58 M 307.33 672.58 308.2 671.26 M 308.2 671.26 308.7 669.65 M 308.7 669.65 308.98 668.05 M 308.98 668.05 308.79 666.28 M 308.79 666.28 308.19 664.78 M 308.19 664.78 307.36 663.3 M 307.36 663.3 306.24 662.19 M 209.92 584.19 208.6 583.33 M 208.6 583.33 206.98 582.83 M 206.98 582.83 205.39 582.55 M 205.39 582.55 203.62 582.73 M 203.62 582.73 202.12 583.34 M 202.12 583.34 200.64 584.16 M 200.64 584.16 199.53 585.29 M 199.53 585.29 198.66 586.61 M 198.66 586.61 198.16 588.23 M 198.16 588.23 197.88 589.82 M 197.88 589.82 198.06 591.59 M 198.06 591.59 198.67 593.09 M 198.67 593.09 199.5 594.57 M 199.5 594.57 200.62 595.68 M 200.62 595.68 201.94 596.55 M 201.94 596.55 203.56 597.05 M 203.56 597.05 205.15 597.33 M 205.15 597.33 206.92 597.15 M 206.92 597.15 208.43 596.54 M 208.43 596.54 209.9 595.71 M 209.9 595.71 211.02 594.59 M 211.02 594.59 211.88 593.27 M 211.88 593.27 212.38 591.65 M 212.38 591.65 212.66 590.06 M 212.66 590.06 212.48 588.29 M 212.48 588.29 211.87 586.79 M 211.87 586.79 211.05 585.31 M 211.05 585.31 209.92 584.19 M 191.63 410.11 190.3 409.24 M 190.3 409.24 188.69 408.74 M 188.69 408.74 187.09 408.46 M 187.09 408.46 185.32 408.65 M 185.32 408.65 183.82 409.25 M 183.82 409.25 182.34 410.08 M 182.34 410.08 181.23 411.2 M 181.23 411.2 180.36 412.52 M 180.36 412.52 179.86 414.14 M 179.86 414.14 179.58 415.74 M 179.58 415.74 179.77 417.51 M 179.77 417.51 180.37 419.01 M 180.37 419.01 181.2 420.49 M 181.2 420.49 182.32 421.6 M 182.32 421.6 183.64 422.47 M 183.64 422.47 185.26 422.97 M 185.26 422.97 186.86 423.25 M 186.86 423.25 188.63 423.06 M 188.63 423.06 190.13 422.46 M 190.13 422.46 191.61 421.63 M 191.61 421.63 192.72 420.51 M 192.72 420.51 193.59 419.18 M 193.59 419.18 194.09 417.57 M 194.09 417.57 194.37 415.97 M 194.37 415.97 194.18 414.2 M 194.18 414.2 193.58 412.7 M 193.58 412.7 192.75 411.22 M 192.75 411.22 191.63 410.11 M 269.62 313.8 268.3 312.93 M 268.3 312.93 266.68 312.43 M 266.68 312.43 265.09 312.15 M 265.09 312.15 263.32 312.33 M 263.32 312.33 261.81 312.94 M 261.81 312.94 260.34 313.77 M 260.34 313.77 259.22 314.89 M 259.22 314.89 258.36 316.21 M 258.36 316.21 257.86 317.83 M 257.86 317.83 257.58 319.42 M 257.58 319.42 257.76 321.19 M 257.76 321.19 258.37 322.69 M 258.37 322.69 259.19 324.17 M 259.19 324.17 260.32 325.29 M 260.32 325.29 261.64 326.15 M 261.64 326.15 263.26 326.65 M 263.26 326.65 264.85 326.93 M 264.85 326.93 266.62 326.75 M 266.62 326.75 268.12 326.14 M 268.12 326.14 269.6 325.32 M 269.6 325.32 270.71 324.19 M 270.71 324.19 271.58 322.87 M 271.58 322.87 272.08 321.25 M 272.08 321.25 272.36 319.66 M 272.36 319.66 272.17 317.89 M 272.17 317.89 271.57 316.39 M 271.57 316.39 270.74 314.91 M 270.74 314.91 269.62 313.8 M 443.71 295.5 442.39 294.63 M 442.39 294.63 440.77 294.13 M 440.77 294.13 439.17 293.85 M 439.17 293.85 437.4 294.04 M 437.4 294.04 435.9 294.64 M 435.9 294.64 434.42 295.47 M 434.42 295.47 433.31 296.59 M 433.31 296.59 432.44 297.91 M 432.44 297.91 431.94 299.53 M 431.94 299.53 431.66 301.13 M 431.66 301.13 431.85 302.9 M 431.85 302.9 432.45 304.4 M 432.45 304.4 433.28 305.88 M 433.28 305.88 434.4 306.99 M 434.4 306.99 435.72 307.86 M 435.72 307.86 437.34 308.36 M 437.34 308.36 438.94 308.64 M 438.94 308.64 440.71 308.45 M 440.71 308.45 442.21 307.85 M 442.21 307.85 443.69 307.02 M 443.69 307.02 444.8 305.9 M 444.8 305.9 445.67 304.57 M 445.67 304.57 446.17 302.96 M 446.17 302.96 446.45 301.36 M 446.45 301.36 446.26 299.59 M 446.26 299.59 445.66 298.09 M 445.66 298.09 444.83 296.61 M 444.83 296.61 443.71 295.5 M 540.02 373.49 538.7 372.62 M 538.7 372.62 537.08 372.12 M 537.08 372.12 535.49 371.84 M 535.49 371.84 533.72 372.03 M 533.72 372.03 532.22 372.64 M 532.22 372.64 530.74 373.46 M 530.74 373.46 529.63 374.59 M 529.63 374.59 528.76 375.91 M 528.76 375.91 528.26 377.52 M 528.26 377.52 527.98 379.12 M 527.98 379.12 528.16 380.89 M 528.16 380.89 528.77 382.39 M 528.77 382.39 529.59 383.87 M 529.59 383.87 530.72 384.98 M 530.72 384.98 532.04 385.85 M 532.04 385.85 533.66 386.35 M 533.66 386.35 535.25 386.63 M 535.25 386.63 537.02 386.44 M 537.02 386.44 538.52 385.84 M 538.52 385.84 540 385.01 M 540 385.01 541.11 383.89 M 541.11 383.89 541.98 382.57 M 541.98 382.57 542.48 380.95 M 542.48 380.95 542.76 379.35 M 542.76 379.35 542.58 377.58 M 542.58 377.58 541.97 376.08 M 541.97 376.08 541.15 374.6 M 541.15 374.6 540.02 373.49 M 558.32 547.58 557 546.71 M 557 546.71 555.38 546.21 M 555.38 546.21 553.78 545.93 M 553.78 545.93 552.02 546.12 M 552.02 546.12 550.51 546.72 M 550.51 546.72 549.03 547.55 M 549.03 547.55 547.92 548.67 M 547.92 548.67 547.06 549.99 M 547.06 549.99 546.55 551.61 M 546.55 551.61 546.27 553.2 M 546.27 553.2 546.46 554.97 M 546.46 554.97 547.07 556.48 M 547.07 556.48 547.89 557.95 M 547.89 557.95 549.02 559.07 M 549.02 559.07 550.34 559.93 M 550.34 559.93 551.95 560.43 M 551.95 560.43 553.55 560.71 M 553.55 560.71 555.32 560.53 M 555.32 560.53 556.82 559.92 M 556.82 559.92 558.3 559.1 M 558.3 559.1 559.41 557.97 M 559.41 557.97 560.28 556.65 M 560.28 556.65 560.78 555.03 M 560.78 555.03 561.06 553.44 M 561.06 553.44 560.87 551.67 M 560.87 551.67 560.27 550.17 M 560.27 550.17 559.44 548.69 M 559.44 548.69 558.32 547.58 M 714.11 355.2 712.79 354.33 M 712.79 354.33 711.17 353.83 M 711.17 353.83 709.58 353.55 M 709.58 353.55 707.81 353.73 M 707.81 353.73 706.3 354.34 M 706.3 354.34 704.82 355.16 M 704.82 355.16 703.71 356.29 M 703.71 356.29 702.85 357.61 M 702.85 357.61 702.34 359.23 M 702.34 359.23 702.06 360.82 M 702.06 360.82 702.25 362.59 M 702.25 362.59 702.86 364.09 M 702.86 364.09 703.68 365.57 M 703.68 365.57 704.81 366.68 M 704.81 366.68 706.13 367.55 M 706.13 367.55 707.75 368.05 M 707.75 368.05 709.34 368.33 M 709.34 368.33 711.11 368.15 M 711.11 368.15 712.61 367.54 M 712.61 367.54 714.09 366.72 M 714.09 366.72 715.2 365.59 M 715.2 365.59 716.07 364.27 M 716.07 364.27 716.57 362.65 M 716.57 362.65 716.85 361.06 M 716.85 361.06 716.66 359.29 M 716.66 359.29 716.06 357.79 M 716.06 357.79 715.23 356.31 M 715.23 356.31 714.11 355.2 M 792.1 258.88 790.78 258.01 M 790.78 258.01 789.16 257.51 M 789.16 257.51 787.57 257.23 M 787.57 257.23 785.8 257.42 M 785.8 257.42 784.3 258.02 M 784.3 258.02 782.82 258.85 M 782.82 258.85 781.71 259.97 M 781.71 259.97 780.84 261.3 M 780.84 261.3 780.34 262.91 M 780.34 262.91 780.06 264.51 M 780.06 264.51 780.24 266.28 M 780.24 266.28 780.85 267.78 M 780.85 267.78 781.68 269.26 M 781.68 269.26 782.8 270.37 M 782.8 270.37 784.12 271.24 M 784.12 271.24 785.74 271.74 M 785.74 271.74 787.33 272.02 M 787.33 272.02 789.1 271.83 M 789.1 271.83 790.61 271.23 M 790.61 271.23 792.08 270.4 M 792.08 270.4 793.2 269.28 M 793.2 269.28 794.06 267.96 M 794.06 267.96 794.56 266.34 M 794.56 266.34 794.84 264.74 M 794.84 264.74 794.66 262.97 M 794.66 262.97 794.05 261.47 M 794.05 261.47 793.23 259.99 M 793.23 259.99 792.1 258.88 M 773.81 84.8 772.48 83.93 M 772.48 83.93 770.87 83.43 M 770.87 83.43 769.27 83.15 M 769.27 83.15 767.5 83.33 M 767.5 83.33 766 83.94 M 766 83.94 764.52 84.77 M 764.52 84.77 763.41 85.89 M 763.41 85.89 762.54 87.21 M 762.54 87.21 762.04 88.83 M 762.04 88.83 761.76 90.42 M 761.76 90.42 761.95 92.19 M 761.95 92.19 762.55 93.7 M 762.55 93.7 763.38 95.17 M 763.38 95.17 764.5 96.29 M 764.5 96.29 765.82 97.15 M 765.82 97.15 767.44 97.65 M 767.44 97.65 769.04 97.93 M 769.04 97.93 770.81 97.75 M 770.81 97.75 772.31 97.14 M 772.31 97.14 773.79 96.32 M 773.79 96.32 774.9 95.19 M 774.9 95.19 775.77 93.87 M 775.77 93.87 776.27 92.25 M 776.27 92.25 776.55 90.66 M 776.55 90.66 776.36 88.89 M 776.36 88.89 775.76 87.39 M 775.76 87.39 774.93 85.91 M 774.93 85.91 773.81 84.8 M 677.49 6.8 676.17 5.94 M 676.17 5.94 674.55 5.44 M 674.55 5.44 672.96 5.16 M 672.96 5.16 671.19 5.34 M 671.19 5.34 669.69 5.95 M 669.69 5.95 668.21 6.77 M 668.21 6.77 667.09 7.9 M 667.09 7.9 666.23 9.22 M 666.23 9.22 665.73 10.84 M 665.73 10.84 665.45 12.43 M 665.45 12.43 665.63 14.2 M 665.63 14.2 666.24 15.7 M 666.24 15.7 667.06 17.18 M 667.06 17.18 668.19 18.29 M 668.19 18.29 669.51 19.16 M 669.51 19.16 671.13 19.66 M 671.13 19.66 672.72 19.94 M 672.72 19.94 674.49 19.75 M 674.49 19.75 675.99 19.15 M 675.99 19.15 677.47 18.32 M 677.47 18.32 678.58 17.2 M 678.58 17.2 679.45 15.88 M 679.45 15.88 679.95 14.26 M 679.95 14.26 680.23 12.67 M 680.23 12.67 680.05 10.9 M 680.05 10.9 679.44 9.39 M 679.44 9.39 678.61 7.92 M 678.61 7.92 677.49 6.8 M 503.4 25.1 502.08 24.23 M 502.08 24.23 500.46 23.73 M 500.46 23.73 498.87 23.45 M 498.87 23.45 497.1 23.64 M 497.1 23.64 495.6 24.24 M 495.6 24.24 494.12 25.07 M 494.12 25.07 493.01 26.19 M 493.01 26.19 492.14 27.51 M 492.14 27.51 491.64 29.13 M 491.64 29.13 491.36 30.73 M 491.36 30.73 491.55 32.5 M 491.55 32.5 492.15 34 M 492.15 34 492.98 35.48 M 492.98 35.48 494.1 36.59 M 494.1 36.59 495.42 37.46 M 495.42 37.46 497.04 37.96 M 497.04 37.96 498.63 38.24 M 498.63 38.24 500.4 38.05 M 500.4 38.05 501.91 37.45 M 501.91 37.45 503.38 36.62 M 503.38 36.62 504.5 35.5 M 504.5 35.5 505.36 34.18 M 505.36 34.18 505.87 32.56 M 505.87 32.56 506.14 30.96 M 506.14 30.96 505.96 29.19 M 505.96 29.19 505.35 27.69 M 505.35 27.69 504.53 26.21 M 504.53 26.21 503.4 25.1 M 425.41 121.41 424.09 120.55 M 424.09 120.55 422.47 120.05 M 422.47 120.05 420.88 119.77 M 420.88 119.77 419.11 119.95 M 419.11 119.95 417.6 120.56 M 417.6 120.56 416.13 121.38 M 416.13 121.38 415.01 122.51 M 415.01 122.51 414.15 123.83 M 414.15 123.83 413.65 125.45 M 413.65 125.45 413.37 127.04 M 413.37 127.04 413.55 128.81 M 413.55 128.81 414.16 130.31 M 414.16 130.31 414.98 131.79 M 414.98 131.79 416.11 132.9 M 416.11 132.9 417.43 133.77 M 417.43 133.77 419.05 134.27 M 419.05 134.27 420.64 134.55 M 420.64 134.55 422.41 134.37 M 422.41 134.37 423.91 133.76 M 423.91 133.76 425.39 132.93 M 425.39 132.93 426.5 131.81 M 426.5 131.81 427.37 130.49 M 427.37 130.49 427.87 128.87 M 427.87 128.87 428.15 127.28 M 428.15 127.28 427.96 125.51 M 427.96 125.51 427.36 124 M 427.36 124 426.53 122.53 M 426.53 122.53 425.41 121.41 M 210.87 106.95 209.54 106.08 M 209.54 106.08 207.93 105.58 M 207.93 105.58 206.33 105.3 M 206.33 105.3 204.56 105.49 M 204.56 105.49 203.06 106.09 M 203.06 106.09 201.58 106.92 M 201.58 106.92 200.47 108.04 M 200.47 108.04 199.6 109.36 M 199.6 109.36 199.1 110.98 M 199.1 110.98 198.82 112.58 M 198.82 112.58 199.01 114.35 M 199.01 114.35 199.61 115.85 M 199.61 115.85 200.44 117.33 M 200.44 117.33 201.56 118.44 M 201.56 118.44 202.88 119.31 M 202.88 119.31 204.5 119.81 M 204.5 119.81 206.1 120.09 M 206.1 120.09 207.87 119.9 M 207.87 119.9 209.37 119.3 M 209.37 119.3 210.85 118.47 M 210.85 118.47 211.96 117.35 M 211.96 117.35 212.83 116.03 M 212.83 116.03 213.33 114.41 M 213.33 114.41 213.61 112.81 M 213.61 112.81 213.42 111.04 M 213.42 111.04 212.82 109.54 M 212.82 109.54 211.99 108.06 M 211.99 108.06 210.87 106.95 M 82.28 668.84 5.75 436.47 M 95.01 660.12 19.8 431.86 M 209.58 120.28 78.74 281.86 M 202.82 104.89 67.12 272.46 M 420.3 134.48 209.58 120.28 M 417.37 119.35 202.82 104.89 M 78.74 281.86 134.35 326.9 M 553.67 553.32 475.67 649.64 M 450.59 779.08 449.27 778.21 M 449.27 778.21 447.65 777.71 M 447.65 777.71 446.05 777.43 M 446.05 777.43 444.28 777.62 M 444.28 777.62 442.78 778.22 M 442.78 778.22 441.3 779.05 M 441.3 779.05 440.19 780.17 M 440.19 780.17 439.32 781.49 M 439.32 781.49 438.82 783.11 M 438.82 783.11 438.54 784.71 M 438.54 784.71 438.73 786.48 M 438.73 786.48 439.33 787.98 M 439.33 787.98 440.16 789.46 M 440.16 789.46 441.28 790.57 M 441.28 790.57 442.6 791.44 M 442.6 791.44 444.22 791.94 M 444.22 791.94 445.82 792.22 M 445.82 792.22 447.59 792.03 M 447.59 792.03 449.09 791.42 M 449.09 791.42 450.57 790.6 M 450.57 790.6 451.68 789.47 M 451.68 789.47 452.55 788.15 M 452.55 788.15 453.05 786.54 M 453.05 786.54 453.33 784.94 M 453.33 784.94 453.14 783.17 M 453.14 783.17 452.54 781.67 M 452.54 781.67 451.71 780.19 M 451.71 780.19 450.59 779.08 M 221.76 762.76 446.37 777.28 M 216.12 777.22 445.38 792.26 M 265.28 337.4 357.49 481.69 M 383.69 488.33 475.36 631.78 M 368.11 463.57 368.01 463.7 M 482.97 177.54 431.03 135.47 M 431.03 135.47 482.97 177.54 M 560.97 81.22 508.9 39.06 M 508.9 39.06 594.94 108.74 M 594.94 108.74 664.62 22.69 M 516.95 205.05 594.94 108.74 M 594.94 108.74 560.97 81.22 M 447.37 290.98 516.95 205.05 M 516.95 205.05 447.37 290.98 M 543.29 369.46 613.27 283.05 M 613.27 283.05 516.95 205.05 M 516.95 205.05 594.94 108.74 M 516.95 205.05 613.27 283.05 M 613.27 283.05 691.26 186.73 M 691.26 186.73 594.94 108.74 M 594.94 108.74 664.62 22.69 M 594.94 108.74 691.26 186.73 M 691.26 186.73 760.94 100.69 M 179.55 416.52 188.62 502.79 M 188.62 502.79 184.86 503.19 M 184.86 503.19 175.91 417.02 M 175.91 417.02 179.55 416.52 M 186.85 502.98 195.79 589.15 M 302.25 675.35 302.75 678.99 M 302.75 678.99 388.8 669.95 M 302.25 675.35 388.52 666.29 M 388.52 666.29 388.8 669.95 M 392.16 665.79 388.52 666.29 M 388.71 668.06 474.98 658.99 M 358.44 483.26 366.47 495.84 M 530.41 371.37 527.05 373.51 M 531.35 372.95 532.81 371.9 M 532.81 371.9 531.86 370.32 M 531.86 370.32 530.41 371.37 M 530.41 371.37 528.83 372.32 M 528.83 372.32 529.78 373.9 M 529.78 373.9 532.81 371.9 M 356.83 480.75 350.55 484.77 M 350.55 484.77 361.79 502.37 M 361.79 502.37 368.08 498.35 M 367.42 497.42 357.49 481.69 M 199.51 115.97 74.8 269.97 M 204.28 119.83 79.57 273.83 M 198.54 115.18 73.82 269.18 M 73.82 269.18 74.8 269.97 M 76.89 265.39 77.87 266.19 M 80.06 261.48 81.04 262.27 M 83.13 257.69 84.11 258.49 M 86.2 253.9 87.17 254.7 M 89.36 249.99 90.34 250.79 M 92.43 246.2 93.41 247 M 95.6 242.29 96.58 243.09 M 98.67 238.5 99.65 239.3 M 101.83 234.59 102.81 235.38 M 104.9 230.8 105.88 231.6 M 108.07 226.89 109.05 227.68 M 111.14 223.1 112.12 223.9 M 114.31 219.19 115.28 219.98 M 117.37 215.4 118.35 216.2 M 120.54 211.49 121.52 212.28 M 123.61 207.7 124.59 208.5 M 126.78 203.79 127.75 204.58 M 129.85 200 130.82 200.8 M 133.01 196.09 133.99 196.88 M 136.08 192.3 137.06 193.1 M 139.25 188.39 140.23 189.18 M 142.42 184.48 143.39 185.27 M 145.48 180.69 146.46 181.48 M 148.65 176.78 149.63 177.57 M 151.72 172.99 152.7 173.78 M 154.89 169.08 155.86 169.87 M 157.95 165.29 158.93 166.08 M 161.12 161.38 162.1 162.17 M 164.19 157.59 165.17 158.38 M 167.36 153.68 168.34 154.47 M 170.43 149.89 171.4 150.68 M 173.59 145.98 174.57 146.77 M 176.66 142.19 177.64 142.98 M 179.83 138.28 180.81 139.07 M 182.9 134.49 183.87 135.28 M 186.06 130.58 187.04 131.37 M 189.13 126.79 190.11 127.58 M 192.3 122.88 193.28 123.67 M 195.37 119.09 196.35 119.88 M 198.54 115.18 199.51 115.97 M 212.73 116.15 413.87 129.67 M 213.08 109.96 414.22 123.48 M 414.33 122.36 213.19 108.83 M 213.19 108.83 213.08 109.96 M 218.04 110.33 218.15 109.2 M 223 110.71 223.08 109.36 M 227.96 111.08 228.04 109.73 M 232.8 111.35 233 110.1 M 237.86 111.61 237.96 110.48 M 242.82 111.98 242.8 110.75 M 247.78 112.35 247.76 111.12 M 252.61 112.63 252.72 111.5 M 257.57 113 257.78 111.75 M 262.53 113.37 262.61 112.02 M 267.49 113.75 267.57 112.4 M 272.43 113.9 272.53 112.77 M 277.39 114.27 277.49 113.14 M 282.35 114.65 282.33 113.42 M 287.31 115.02 287.29 113.79 M 292.14 115.29 292.25 114.16 M 297.1 115.67 297.31 114.41 M 302.06 116.04 302.14 114.69 M 307.02 116.41 307.1 115.06 M 311.96 116.56 312.06 115.44 M 316.92 116.94 317.02 115.81 M 321.88 117.31 321.86 116.08 M 326.84 117.68 326.82 116.46 M 331.67 117.96 331.88 116.71 M 336.63 118.33 336.84 117.08 M 341.59 118.71 341.67 117.36 M 346.65 118.96 346.63 117.73 M 351.49 119.23 351.59 118.1 M 356.45 119.6 356.55 118.48 M 361.41 119.98 361.39 118.75 M 366.37 120.35 366.45 119 M 371.2 120.63 371.41 119.37 M 376.16 121 376.37 119.75 M 381.12 121.37 381.21 120.02 M 386.18 121.62 386.16 120.4 M 391.02 121.9 391.12 120.77 M 395.98 122.27 396.08 121.14 M 400.94 122.64 400.92 121.42 M 405.9 123.02 405.98 121.67 M 410.73 123.29 410.94 122.04 M 414.22 123.48 414.33 122.36 M 11.72 441.1 83.45 658.65 M 83.45 658.65 84.63 658.19 M 83.14 653.54 81.83 653.9 M 81.52 648.79 80.34 649.25 M 80.02 644.14 78.72 644.5 M 78.41 639.39 77.22 639.85 M 80.02 644.14 78.72 644.5 M 76.91 634.74 75.7 634.98 M 75.29 629.99 74.21 630.33 M 73.8 625.34 72.59 625.58 M 72.18 620.59 71.1 620.93 M 70.68 615.94 69.48 616.18 M 69.07 611.19 67.98 611.53 M 67.57 606.54 66.37 606.78 M 66.05 601.66 64.87 602.12 M 64.56 597.01 63.38 597.47 M 62.94 592.26 61.76 592.72 M 61.44 587.61 60.26 588.07 M 59.83 582.86 58.65 583.32 M 58.33 578.21 57.15 578.67 M 56.71 573.46 55.53 573.92 M 55.22 568.81 54.04 569.27 M 53.6 564.06 52.42 564.52 M 52.11 559.41 50.92 559.87 M 50.49 554.66 49.31 555.12 M 48.99 550.01 47.81 550.47 M 47.38 545.26 46.19 545.72 M 45.88 540.6 44.8 540.94 M 44.26 535.85 43.18 536.19 M 42.77 531.2 41.69 531.54 M 41.27 526.55 40.07 526.79 M 39.66 521.8 38.57 522.14 M 38.16 517.15 36.96 517.39 M 36.54 512.4 35.46 512.74 M 35.05 507.75 33.84 507.99 M 33.53 502.88 32.35 503.34 M 32.03 498.23 30.73 498.59 M 30.42 493.48 29.23 493.94 M 28.92 488.82 27.62 489.19 M 27.3 484.07 26.12 484.53 M 25.81 479.42 24.5 479.78 M 24.19 474.67 23.01 475.13 M 21.66 470.8 20.48 471.26 M 21.08 465.27 19.9 465.73 M 22.7 470.02 21.39 470.38 M 19.58 460.62 18.28 460.98 M 17.96 455.87 16.78 456.33 M 16.47 451.22 15.29 451.68 M 14.85 446.47 13.67 446.93 M 13.36 441.82 12.27 442.16 M 11.72 441.1 13.02 440.74 M 95.06 668.06 213.99 764.36 M 93.48 670.01 212.4 766.32 M 92.44 670.79 211.86 767.49 M 208.98 763.55 208.19 764.52 M 205.19 760.48 204.4 761.45 M 208.98 763.55 208.19 764.52 M 201.28 757.31 200.49 758.29 M 197.49 754.24 196.7 755.22 M 193.58 751.07 192.79 752.05 M 189.79 748.01 189 748.98 M 185.88 744.84 185.09 745.82 M 182.09 741.77 181.3 742.75 M 178.18 738.6 177.39 739.58 M 174.39 735.53 173.6 736.51 M 170.48 732.37 169.69 733.35 M 166.69 729.3 165.9 730.28 M 170.48 732.37 169.69 733.35 M 162.78 726.13 161.99 727.11 M 158.99 723.06 158.2 724.04 M 155.08 719.9 154.29 720.87 M 151.29 716.83 150.5 717.81 M 147.38 713.66 146.59 714.64 M 143.59 710.59 142.8 711.57 M 147.38 713.66 146.59 714.64 M 139.68 707.43 138.89 708.4 M 135.89 704.36 135.1 705.34 M 131.98 701.19 131.19 702.17 M 128.19 698.12 127.4 699.1 M 124.28 694.95 123.49 695.93 M 120.49 691.89 119.7 692.86 M 116.58 688.72 115.79 689.7 M 112.79 685.65 112 686.63 M 108.88 682.48 108.09 683.46 M 105.09 679.42 104.3 680.39 M 108.88 682.48 108.09 683.46 M 101.18 676.25 100.39 677.23 M 105.09 679.42 104.3 680.39 M 97.39 673.18 96.6 674.16 M 93.48 670.01 92.69 670.99 M 224.96 774.05 438.33 787.97 M 438.33 787.97 438.43 786.84 M 433.49 787.7 433.47 786.47 M 428.53 787.32 428.51 786.1 M 423.47 787.07 423.68 785.82 M 428.53 787.32 428.51 786.1 M 428.51 786.1 428.53 787.32 M 418.51 786.7 418.72 785.45 M 413.68 786.42 413.66 785.2 M 408.72 786.05 408.7 784.82 M 403.76 785.68 403.86 784.55 M 398.82 785.53 398.9 784.18 M 393.86 785.15 393.94 783.8 M 388.9 784.78 389.01 783.65 M 383.94 784.41 384.05 783.28 M 379.1 784.13 379.09 782.9 M 374.14 783.76 374.13 782.53 M 369.09 783.51 369.29 782.26 M 364.13 783.13 364.33 781.88 M 359.29 782.86 359.27 781.63 M 354.33 782.49 354.31 781.26 M 349.37 782.11 349.48 780.98 M 344.43 781.96 344.52 780.61 M 339.47 781.59 339.56 780.24 M 334.52 781.21 334.62 780.08 M 329.56 780.84 329.66 779.71 M 324.72 780.57 324.7 779.34 M 319.76 780.19 319.74 778.96 M 314.7 779.94 314.9 778.69 M 319.76 780.19 319.74 778.96 M 309.86 779.67 309.95 778.32 M 304.9 779.29 304.89 778.07 M 299.94 778.92 300.05 777.79 M 304.9 779.29 304.89 778.07 M 304.89 778.07 304.9 779.29 M 294.98 778.55 295.09 777.42 M 290.05 778.4 290.13 777.05 M 285.09 778.02 285.17 776.67 M 280.13 777.65 280.23 776.52 M 275.29 777.37 275.28 776.15 M 270.33 777 270.32 775.77 M 265.37 776.63 265.48 775.5 M 260.32 776.38 260.52 775.13 M 255.48 776.1 255.56 774.75 M 250.52 775.73 250.5 774.5 M 245.56 775.36 245.66 774.23 M 240.6 774.98 240.7 773.85 M 235.66 774.83 235.74 773.48 M 230.7 774.46 230.91 773.21 M 225.74 774.08 225.95 772.83 M 57.28 278.86 201.2 101.15 M 74.52 292.82 211.11 124.15 M 64.31 270.18 81.55 284.14 M 57.28 278.86 74.52 292.82 M 201.2 101.15 415.74 115.61 M 211.11 124.15 425.87 138.59 M 415.74 115.61 492.94 20.27 M 425.87 138.59 504.56 41.42 M 492.94 20.27 676.32 1 M 504.56 41.42 669.36 24.1 M 676.32 1 779.73 84.73 M 669.36 24.1 758.46 96.25 M 779.73 84.73 799 268.11 M 758.46 96.25 776.39 265.79 M 715.27 371.51 799 268.11 M 426.83 291.35 410.67 137.61 M 239.36 333.41 259.16 308.97 M 259.16 308.97 442.54 289.7 M 437.96 300.35 523.39 369.54 M 442.54 289.7 545.94 373.43 M 545.94 373.43 565.22 556.8 M 565.22 556.8 484.75 656.17 M 79.05 671.08 214.6 780.85 M 214.6 780.85 460.85 796.9 M 79.05 671.08 1 433.84 M 1 433.84 57.28 278.86 M 460.85 796.9 484.75 656.17 M 542.67 378.47 560.97 552.55 M 527.83 378.8 528.06 381.01 M 537.88 386.13 554.69 546.06 M 532.97 386.2 549.87 547.01 M 526.2 381.32 544.26 553.19 M 525.68 397.7 541.68 549.89 M 524.86 379.22 543.39 555.52 M 546.15 553.11 546.39 555.32 M 530.94 373.22 445.87 304.33 M 528.55 385.66 434.07 309.15 M 547.59 389.13 715.27 371.51 M 528.13 377.43 442.33 307.94 M 529.69 388 431.67 308.62 M 516.53 378.76 435.5 313.14 M 433.55 306.3 434.4 306.99 M 529.74 384.19 531.57 385.67 M 271.86 317.03 431.67 300.12 M 271.93 321.94 432.74 305.04 M 266.93 328.62 438.93 310.65 M 264.83 329.95 441.25 311.52 M 438.84 308.76 441.05 308.53 M 264.53 327.08 266.74 326.85 M 190.06 409.04 258.95 323.98 M 193.55 412.48 263.03 326.68 M 194.88 420.84 271.49 326.24 M 194.35 423.24 273.73 325.22 M 198.96 419.29 270.82 330.56 M 270.02 325.05 271.41 323.34 M 192.03 421.36 193.41 419.65 M 435.5 313.14 435.95 312.08 M 546.15 553.11 543.15 553.31 M 546.39 555.32 543.39 555.52 M 527.86 386.51 529.74 384.19 M 529.69 388 531.57 385.67 M 527.83 378.8 524.86 379.22 M 528.06 381.01 525.09 381.44 M 441.25 311.52 441.05 308.53 M 439.04 311.76 438.84 308.76 M 433.55 306.3 431.67 308.62 M 435.26 307.68 433.38 310 M 273.73 325.22 271.41 323.34 M 272.34 326.93 270.02 325.05 M 264.83 329.95 264.53 327.08 M 267.04 329.72 266.74 326.85 M 195.73 421.53 193.41 419.65 M 194.35 423.24 192.03 421.36 M 481.69 645.2 550.58 560.13 M 477.48 642.4 546.97 556.6 M 469.15 642.94 545.76 548.34 M 466.91 643.96 546.29 545.93 M 469.82 638.62 541.68 549.89 M 546.29 545.93 548.62 547.81 M 544.91 547.65 547.23 549.53 M 547.23 549.53 548.62 547.81 M 468.3 642.25 470.62 644.13 M 466.91 643.96 469.24 645.84 M 469.24 645.84 470.62 644.13 M 541.68 549.89 542.83 550.21 M 475.69 639.12 476.11 642.1 M 476.11 642.1 475.69 639.12 M 473.47 639.36 473.9 642.33 M 473.9 642.33 476.11 642.1 M 402.64 659.1 468.78 652.15 M 390.63 646.94 469.82 638.62 M 390.74 648.05 475.69 639.12 M 390.86 649.16 473.59 640.46 M 484.75 656.17 476.44 656.94 M 476.44 656.94 302.25 675.35 M 209.71 595.96 294.78 664.85 M 212.41 591.87 298.21 661.35 M 305.26 661.4 307.83 658.22 M 307.09 662.88 309.67 659.7 M 195.71 517.03 202.64 582.95 M 189.01 506.55 197.87 590.83 M 207.54 500.91 215.96 580.99 M 198.96 419.29 197.81 418.96 M 259.1 314.79 181.11 411.1 M 239.36 333.41 244.45 332.88 M 357.49 481.69 530.41 371.37 M 541.89 385.93 540.84 384.48 M 538.76 388.05 537.81 386.47 M 358.44 483.26 531.35 372.95 M 366.47 495.84 540.84 384.48 M 458.44 639.93 367.42 497.42 M 367.42 497.42 357.49 481.69 M 211.9 581.75 211.93 581.97 M 270.82 330.56 435.5 313.14 M 368.08 498.35 525.68 397.7 M 367.42 497.42 541.89 385.93 M 356.83 480.75 516.53 378.76 M 516.53 378.76 518.45 378.89 M 525.68 397.7 526.6 395.81 M 212.31 587.75 357.12 495.15 M 229.24 594.58 371.44 503.7 M 429.56 642.85 451.36 628.93 M 396.6 646.32 443.45 616.46 M 360.87 669.19 387.06 652.35 M 327.79 672.56 435.42 603.88 M 308.89 667.17 427.39 591.31 M 302.21 653.67 419.48 578.83 M 290.11 643.87 411.45 566.26 M 277.89 633.97 403.54 553.78 M 265.67 624.07 395.51 541.21 M 253.56 614.27 387.47 528.63 M 241.34 604.38 379.47 516.28 M 210.29 584.49 355.22 491.99 M 202.56 501.33 321.5 425.42 M 187.62 493.28 313.47 412.85 M 185.88 476.69 305.44 400.27 M 184.13 460.1 297.53 387.8 M 182.41 443.73 289.5 375.22 M 180.67 427.14 186.86 423.25 M 234.89 374.92 273.46 350.29 M 399.61 478.15 487.93 616.25 M 415.64 467.86 500.5 600.73 M 431.69 457.79 513.07 585.21 M 447.62 447.61 525.64 569.69 M 463.65 437.32 538.21 554.16 M 479.57 427.15 538.47 519.36 M 495.5 416.97 534.05 477.33 M 511.43 406.8 529.61 435.08 M 347.32 465.76 501.99 366.98 M 337.15 449.83 486.47 354.41 M 316.68 417.88 455.42 329.27 M 306.51 401.95 439.9 316.7 M 296.21 385.92 405.19 316.32 M 286.04 369.99 363.06 320.86 M 275.87 354.07 320.91 325.18 M 326.85 433.81 470.94 341.84 M 303.22 327.04 388.49 460.65 M 324.35 324.93 404.42 450.48 M 345.37 322.72 420.45 440.18 M 366.38 320.51 436.37 430.01 M 387.5 318.18 452.3 419.84 M 408.63 316.07 468.33 409.54 M 429.65 313.86 484.26 399.37 M 469.11 340.35 500.31 389.3 M 377.59 513.35 527.77 417.61 M 387.89 529.37 529.98 438.62 M 418.53 577.25 536.63 501.89 M 428.7 593.18 538.84 522.9 M 438.87 609.11 541.05 543.91 M 449.07 625.26 514.56 583.38 M 408.23 561.23 534.4 480.65 M 398.06 545.3 532.19 459.64 M 432.03 557.83 440.93 552.09 M 434.71 552.52 438.07 557.87 M 396.26 487.79 436.81 551.18 M 330.94 398.26 338.91 393.18 M 338.44 397.25 378.33 459.7 M 205.75 505.13 213.49 579.79 M 206.86 505.01 214.8 581.67 M 209.01 514.85 329.41 437.9 M 210.75 531.44 337.44 450.47 M 212.37 547.93 345.47 463.05 M 214.12 564.52 353.48 475.4 M 205.4 411.35 281.49 362.87 M 264.08 312.14 438.29 293.94 M 481.42 654.29 559.41 557.97 M 443.71 295.5 540.02 373.49 M 205.27 589.94 301.59 667.93 M 200.62 595.68 296.93 673.68 M 217.02 584.68 309.67 659.7 M 308.97 660.56 216.08 585.34 M 216.08 585.34 217.02 584.68 M 214.8 581.67 215.96 580.99 M 216.86 587.38 306.45 659.93 M 217.92 586.82 213.5 589.52 M 213.5 589.52 212.31 587.75 M 214.55 579.24 209.1 582.72 M 209.1 582.72 210.29 584.49 M 665.02 6.21 670.1 5.68 M 666.51 20.37 671.59 19.84 M 577.96 15.25 592.12 13.76 M 579.45 29.41 593.61 27.92 M 505.3 28.26 536.93 24.93 M 679.41 15.44 701.77 33.55 M 423.65 120.59 441.86 98.1 M 426.58 122.97 444.79 100.48 M 448.79 89.55 467.79 66.08 M 451.72 91.92 470.72 68.46 M 477.75 59.78 495.86 37.41 M 474.82 57.4 492.93 35.04 M 505.8 31.89 537.33 28.69 M 547.99 23.77 580.07 20.4 M 548.39 27.53 580.46 24.16 M 591.13 19.24 623.2 15.86 M 591.52 23 623.6 19.62 M 634.26 14.7 665.9 11.38 M 634.66 18.46 666.29 15.14 M 677.13 18.25 699.5 36.36 M 708.17 43.39 731.64 62.39 M 710.45 40.58 733.92 59.58 M 740.32 69.42 762.69 87.53 M 742.6 66.61 764.96 84.72 M 775.23 254.73 776.39 265.79 M 399.42 291.21 423.98 288.63 M 423.98 288.63 408.45 139.86 M 231.32 620.75 231.2 620.65 M 455.71 661.8 455.58 661.7 M 67.48 282.26 66.55 273.41 M 70.84 284.37 70.42 280.39 M 69.39 270.65 69.81 274.64 M 69.81 274.64 70.42 280.39 M 73.88 284.61 73.23 277.41 M 72.32 269.79 73.19 276.97 M 73.19 276.97 73.23 277.41 M 77.01 283.5 76.66 280.18 M 75.61 270.22 75.96 273.54 M 75.96 273.54 76.66 280.18 M 79.68 280.2 78.91 272.9 M 199.49 115.75 198.88 111.01 M 202.88 119.31 202.75 116.97 M 201.68 106.8 201.81 109.13 M 201.81 109.13 202.75 116.97 M 206.1 120.09 205.42 113.67 M 204.56 105.49 205.24 111.9 M 205.24 111.9 205.42 113.67 M 209.17 119.54 208.66 114.67 M 207.68 105.38 208.19 110.25 M 208.19 110.25 208.66 114.67 M 212.06 117.22 210.87 106.95 M 705.17 366.98 705.2 366.2 M 704.11 355.8 704.08 356.58 M 704.08 356.58 705.2 366.2 M 708.43 368.2 707.87 362.9 M 707.04 353.93 707.5 359.36 M 707.5 359.36 707.87 362.9 M 711.65 367.98 710.92 362.13 M 710.02 353.5 710.65 359.47 M 710.65 359.47 710.92 362.13 M 714.51 366.45 714.35 364.9 M 713.25 354.5 713.42 356.05 M 713.42 356.05 714.35 364.9 M 782.19 269.88 781.21 260.59 M 785.52 271.76 785.08 267.56 M 784.08 258.05 784.52 262.25 M 784.52 262.25 785.08 267.56 M 788.66 271.88 787.94 265.02 M 787.13 257.28 787.85 264.14 M 787.85 264.14 787.94 265.02 M 791.57 270.79 791.36 267.79 M 790.19 257.74 790.62 260.72 M 790.62 260.72 791.36 267.79 M 794.44 267.25 793.74 260.61 M 529.59 383.87 528.64 375.81 M 532.97 386.2 532.6 382.66 M 532.6 382.66 531.95 376.47 M 536.14 386.54 535.37 379.24 M 535.37 379.24 535.25 379.14 M 539.07 385.67 538.67 381.91 M 538.67 381.91 538.14 375.81 M 541.88 382.69 541.02 374.51 M 531.95 376.47 531.45 372.83 M 535.37 379.24 534.48 371.84 M 538.14 375.81 537.65 372.18 M 547.79 558.08 547.06 549.99 M 551.17 560.41 550.9 556.74 M 549.87 547.01 550.25 550.55 M 550.25 550.55 550.9 556.74 M 554.34 560.74 553.57 553.44 M 552.78 545.92 553.67 553.32 M 553.67 553.32 553.57 553.44 M 557.36 559.75 557.09 556.09 M 555.94 546.26 556.34 550.02 M 556.34 550.02 557.09 556.09 M 560.18 556.77 559.32 548.59 M 470.9 655.28 469.83 645.11 M 474.21 656.95 473.69 652.08 M 472.72 642.79 473.23 647.66 M 473.23 647.66 473.69 652.08 M 477.33 656.84 476.65 650.43 M 475.79 642.24 476.47 648.66 M 476.47 648.66 476.65 650.43 M 480.31 655.41 480.07 653.2 M 478.88 642.92 479.24 645.24 M 479.24 645.24 480.07 653.2 M 482.89 651.23 482.4 646.58 M 295.18 671.85 294.6 665.31 M 298.62 674.84 298.42 671.84 M 297.25 661.79 297.55 664.67 M 297.55 664.67 298.42 671.84 M 301.81 675.4 301.09 668.54 M 300.25 660.58 300.97 667.44 M 300.97 667.44 301.09 668.54 M 304.86 674.63 304.4 670.21 M 303.4 660.7 303.86 665.12 M 303.86 665.12 304.4 670.21 M 307.73 672.1 306.73 662.58 M 200.01 595.19 199.03 585.9 M 203.34 597.08 202.9 592.87 M 201.9 583.36 202.34 587.56 M 202.34 587.56 202.9 592.87 M 206.38 597.31 205.76 590.34 M 204.95 582.59 205.57 589.57 M 205.57 589.57 205.76 590.34 M 209.39 596.1 209.18 593.11 M 208.01 583.05 208.34 586.15 M 208.34 586.15 209.18 593.11 M 212.16 592.68 211.44 585.83 M 181.71 421.1 180.73 411.81 M 185.04 422.99 184.6 418.79 M 183.48 409.18 183.92 413.38 M 183.92 413.38 184.6 418.79 M 188.18 423.11 187.34 416.15 M 186.53 408.41 187.37 415.37 M 187.37 415.37 187.34 416.15 M 191.09 422.02 190.76 418.92 M 189.72 408.97 190.14 411.94 M 190.14 411.94 190.76 418.92 M 193.86 418.6 193.14 411.74 M 258.56 323.46 257.88 317.04 M 262 326.45 261.7 323.57 M 260.63 313.4 261.06 316.37 M 261.06 316.37 261.7 323.57 M 265.19 327.01 264.47 320.15 M 263.64 312.19 264.36 319.05 M 264.36 319.05 264.47 320.15 M 268.24 326.24 267.78 321.82 M 266.78 312.31 267.24 316.73 M 267.24 316.73 267.78 321.82 M 271.11 323.7 270.11 314.19 M 434.28 306.89 433.21 296.71 M 437.59 308.55 437.08 303.69 M 436.1 294.4 436.61 299.26 M 436.61 299.26 437.08 303.69 M 440.71 308.45 440.03 302.04 M 439.17 293.85 439.85 300.27 M 439.85 300.27 440.03 302.04 M 443.69 307.02 443.46 304.81 M 442.39 294.63 442.62 296.84 M 442.62 296.84 443.46 304.81 M 446.27 302.83 445.78 298.19 M 5.92 437.01 5.48 432.81 M 9.43 440.66 9.2 438.45 M 8.13 428.28 8.36 430.49 M 8.36 430.49 9.2 438.45 M 12.55 441.57 11.87 435.15 M 11.11 426.85 11.79 433.26 M 11.79 433.26 11.87 435.15 M 15.72 440.9 15.21 436.03 M 14.13 426.86 14.64 431.73 M 14.64 431.73 15.21 436.03 M 18.63 438.8 17.42 428.31 M 83.26 669.63 82.31 660.56 M 86.59 671.52 85.59 662.01 M 85.59 662.01 85.15 657.8 M 89.76 671.86 89.01 664.78 M 89.01 664.78 88.2 657.04 M 92.76 670.65 92.44 667.55 M 92.44 667.55 91.39 657.6 M 95.43 667.35 94.69 660.27 M 212.51 773.69 211.86 767.49 M 215.95 776.68 215.67 774.02 M 214.6 763.85 214.91 766.72 M 214.91 766.72 215.67 774.02 M 219.04 777.36 218.45 770.6 M 217.61 762.64 218.33 769.5 M 218.33 769.5 218.45 770.6 M 222.09 776.59 221.75 772.27 M 220.75 762.76 221.22 767.18 M 221.22 767.18 221.75 772.27 M 225.08 774.15 223.96 764.54 M 441.65 790.86 441.58 790.2 M 440.49 779.8 440.56 780.47 M 440.56 780.47 441.58 790.2 M 444.81 792.21 444.35 786.78 M 443.3 777.83 443.98 783.24 M 443.98 783.24 444.35 786.78 M 447.91 791.88 447.28 785.91 M 446.37 777.28 447.02 783.48 M 447.02 783.48 447.28 785.91 M 450.87 790.23 450.7 788.68 M 449.61 778.29 449.8 780.06 M 449.8 780.06 450.7 788.68 M 473.9 642.33 475.69 639.12 M 469.24 645.84 468.3 642.25 M 212.31 587.75 217.92 586.82 M 209.1 582.72 214.8 581.67 M 194.35 423.24 193.41 419.65 M 264.83 329.95 266.74 326.85 M 272.34 326.93 271.41 323.34 M 431.67 308.62 435.26 307.68 M 438.84 308.76 441.25 311.52 M 524.86 379.22 528.06 381.01 M 529.69 388 529.74 384.19 M 538.76 388.05 540.84 384.48 M 529.78 373.9 531.86 370.32 M 546.29 545.93 547.23 549.53 M 546.15 553.11 543.39 555.52 M 194.02 420.15 193.86 418.6 M 196.96 418.27 196.03 409.42 M 199.73 414.85 198.7 406.12 M 202.5 411.43 201.47 402.7 M 205.27 408 204.24 399.28 M 208.04 404.58 207.01 395.86 M 210.71 401.28 209.78 392.43 M 213.49 397.86 212.82 390.44 M 212.82 390.44 212.56 389.01 M 216.26 394.44 216.12 393.11 M 216.12 393.11 215.33 385.59 M 219.03 391.02 218 382.29 M 221.8 387.59 220.77 378.87 M 224.57 384.17 223.54 375.45 M 227.34 380.75 226.31 372.02 M 230.02 377.45 229.09 368.6 M 232.79 374.03 231.86 365.18 M 235.56 370.6 234.53 361.88 M 238.33 367.18 237.3 358.46 M 241.1 363.76 240.07 355.03 M 243.87 360.34 242.84 351.61 M 246.54 357.04 245.61 348.19 M 249.32 353.61 248.39 344.77 M 252.09 350.19 251.06 341.47 M 254.86 346.77 253.83 338.04 M 257.63 343.35 256.6 334.62 M 260.4 339.93 259.37 331.2 M 263.07 336.63 262.14 327.78 M 265.84 333.2 265.5 329.88 M 268.62 329.78 268.59 329.56 M 195.47 420.11 194.14 420.24 M 198.24 416.68 194.26 417.1 M 201.01 413.26 194.16 413.98 M 203.79 409.84 194.94 410.77 M 206.56 406.42 197.71 407.35 M 209.23 403.12 200.48 403.92 M 212 399.69 203.25 400.5 M 214.77 396.27 206.02 397.08 M 217.54 392.85 215.87 392.91 M 215.87 392.91 208.79 393.66 M 220.32 389.43 212.57 390.24 M 212.57 390.24 211.47 390.36 M 223.09 386 214.24 386.93 M 225.76 382.7 217.01 383.51 M 228.53 379.28 219.78 380.09 M 231.3 375.86 222.55 376.67 M 234.07 372.44 225.32 373.24 M 236.84 369.01 228 369.94 M 239.62 365.59 230.77 366.52 M 242.39 362.17 233.54 363.1 M 245.06 358.87 236.31 359.68 M 247.83 355.45 239.08 356.26 M 250.6 352.03 241.85 352.83 M 253.37 348.6 244.62 349.41 M 256.15 345.18 247.3 346.11 M 258.92 341.76 250.07 342.69 M 261.59 338.46 252.84 339.27 M 264.36 335.04 255.61 335.84 M 267.13 331.61 258.38 332.42 M 264.82 328.73 261.15 329 M 275.9 327.79 273.33 325.71 M 280.2 327.22 273.48 321.78 M 284.53 326.88 277.68 321.34 M 288.95 326.41 282.11 320.87 M 293.25 325.85 286.53 320.41 M 297.58 325.51 290.73 319.96 M 302 325.04 295.16 319.5 M 306.3 324.48 299.58 319.03 M 310.63 324.14 303.78 318.59 M 315.05 323.67 308.21 318.13 M 319.35 323.11 312.63 317.66 M 323.78 322.64 316.93 317.1 M 328.1 322.3 321.26 316.76 M 332.4 321.73 325.68 316.29 M 336.83 321.27 329.98 315.73 M 341.15 320.93 334.31 315.38 M 345.58 320.46 338.73 314.92 M 349.88 319.9 343.16 314.45 M 354.2 319.56 347.36 314.01 M 358.63 319.09 351.78 313.55 M 362.93 318.53 356.21 313.08 M 367.26 318.18 360.41 312.64 M 371.68 317.72 364.84 312.18 M 375.98 317.15 369.26 311.71 M 380.31 316.81 373.46 311.27 M 384.73 316.35 377.89 310.8 M 389.03 315.78 382.31 310.34 M 393.36 315.44 386.51 309.9 M 397.78 314.97 390.94 309.43 M 402.08 314.41 395.36 308.97 M 406.51 313.95 399.66 308.4 M 410.83 313.6 403.99 308.06 M 415.13 313.04 408.41 307.6 M 419.56 312.57 412.84 307.13 M 423.88 312.23 417.04 306.69 M 428.31 311.77 421.46 306.22 M 431.63 310.41 425.89 305.76 M 432.66 307.4 430.09 305.32 M 433.4 305.98 428.75 311.72 M 429.87 305.34 424.33 312.19 M 425.45 305.81 420 312.53 M 421.12 306.15 415.58 312.99 M 416.82 306.71 411.28 313.56 M 412.39 307.18 406.95 313.9 M 407.97 307.64 402.53 314.36 M 403.77 308.08 398.22 314.93 M 399.34 308.55 393.8 315.39 M 394.92 309.01 389.48 315.74 M 390.72 309.46 385.17 316.3 M 386.29 309.92 380.75 316.77 M 381.87 310.39 376.42 317.11 M 377.67 310.83 372.12 317.67 M 373.24 311.29 367.7 318.14 M 368.82 311.76 363.37 318.48 M 364.61 312.2 359.07 319.04 M 360.19 312.66 354.65 319.51 M 355.77 313.13 350.32 319.85 M 351.44 313.47 345.9 320.32 M 347.14 314.04 341.6 320.88 M 342.71 314.5 337.27 321.22 M 338.39 314.84 332.85 321.69 M 334.09 315.41 328.55 322.25 M 329.66 315.87 324.12 322.72 M 325.24 316.34 319.8 323.06 M 321.04 316.78 315.49 323.62 M 316.61 317.24 311.07 324.09 M 312.19 317.71 306.75 324.43 M 307.99 318.15 302.44 325 M 303.56 318.62 298.02 325.46 M 299.14 319.08 293.69 325.8 M 294.93 319.52 289.39 326.37 M 290.51 319.99 284.97 326.83 M 286.09 320.45 280.64 327.17 M 281.88 320.89 276.34 327.74 M 277.46 321.36 273.4 326.37 M 273.04 321.82 271.65 323.54 M 437.98 312.32 437.94 311.87 M 441.41 315.09 441.03 311.55 M 444.83 317.86 443.8 309.13 M 448.25 320.63 447.22 311.9 M 451.55 323.3 450.64 314.67 M 454.97 326.07 454.07 317.45 M 458.39 328.84 457.49 320.22 M 461.82 331.62 460.91 322.99 M 465.24 334.39 464.21 325.66 M 468.66 337.16 467.63 328.43 M 471.96 339.83 471.05 331.2 M 475.38 342.6 474.48 333.98 M 478.81 345.37 478.48 342.28 M 478.48 342.28 477.9 336.75 M 482.23 348.14 481.41 340.4 M 481.41 340.4 481.32 339.52 M 485.65 350.92 484.62 342.19 M 489.07 353.69 488.04 344.96 M 492.37 356.36 491.47 347.73 M 495.8 359.13 494.89 350.5 M 499.22 361.9 498.31 353.28 M 502.64 364.67 501.73 356.05 M 506.06 367.44 505.03 358.72 M 509.49 370.22 508.46 361.49 M 512.91 372.99 511.88 364.26 M 516.21 375.66 515.3 367.03 M 519.61 378.21 518.72 369.8 M 522.15 372.58 522.54 376.34 M 522.54 376.34 517.67 376.85 M 523 373.27 514.25 374.08 M 519.58 370.5 510.83 371.3 M 516.16 367.73 507.41 368.53 M 512.73 364.95 504.11 365.86 M 509.31 362.18 500.68 363.09 M 505.89 359.41 497.26 360.32 M 502.47 356.64 493.84 357.55 M 499.17 353.97 490.42 354.78 M 495.74 351.2 487 352 M 492.32 348.43 483.7 349.33 M 488.9 345.65 480.27 346.56 M 485.48 342.88 476.85 343.79 M 482.06 340.11 481.83 340.13 M 481.83 340.13 473.43 341.02 M 478.76 337.44 470.01 338.25 M 475.33 334.67 466.58 335.48 M 471.91 331.9 463.28 332.8 M 468.49 329.13 459.86 330.03 M 465.07 326.35 456.44 327.26 M 461.64 323.58 453.02 324.49 M 458.34 320.91 449.59 321.72 M 454.92 318.14 446.17 318.95 M 451.5 315.37 442.87 316.27 M 448.08 312.6 439.45 313.5 M 444.65 309.82 441.11 310.2 M 545.9 546.42 543.33 544.34 M 549.71 545.46 542.87 539.92 M 549.15 541.16 542.42 535.72 M 548.8 536.84 541.96 531.29 M 548.34 532.41 541.49 526.87 M 547.77 528.11 541.05 522.67 M 547.43 523.79 540.59 518.24 M 546.97 519.36 540.12 513.82 M 546.4 515.06 539.68 509.62 M 546.06 510.73 539.22 505.19 M 545.6 506.31 538.75 500.77 M 545.13 501.89 538.41 496.44 M 544.69 497.68 537.84 492.14 M 544.22 493.26 537.38 487.72 M 543.76 488.84 537.04 483.39 M 543.32 484.63 536.47 479.09 M 542.85 480.21 536.01 474.67 M 542.39 475.78 535.54 470.24 M 541.82 471.48 535.1 466.04 M 541.48 467.16 534.64 461.62 M 541.02 462.73 534.17 457.19 M 540.45 458.43 533.73 452.99 M 540.11 454.11 533.26 448.56 M 539.64 449.68 532.8 444.14 M 539.08 445.38 532.36 439.94 M 538.74 441.06 531.89 435.51 M 538.27 436.63 531.43 431.09 M 537.71 432.33 530.99 426.89 M 537.36 428.01 530.52 422.46 M 536.9 423.58 530.06 418.04 M 536.43 419.16 529.71 413.71 M 535.99 414.95 529.15 409.41 M 535.53 410.53 528.68 404.99 M 535.06 406.11 528.22 400.56 M 534.5 401.8 527.78 396.36 M 534.16 397.48 529.63 393.82 M 533.69 393.06 532.47 392.07 M 549.76 545.91 548.37 547.62 M 549.19 541.6 545.23 546.49 M 548.85 537.28 543.31 544.12 M 548.39 532.85 542.84 539.7 M 547.92 528.43 542.38 535.28 M 547.48 524.23 542.03 530.95 M 547.01 519.8 541.47 526.65 M 546.55 515.38 541.01 522.22 M 545.98 511.08 540.54 517.8 M 545.64 506.75 540.1 513.6 M 545.18 502.33 539.63 509.17 M 544.61 498.03 539.17 504.75 M 544.27 493.7 538.73 500.55 M 543.8 489.28 538.26 496.12 M 543.24 484.98 537.8 491.7 M 542.9 480.65 537.36 487.5 M 542.43 476.23 536.89 483.07 M 541.87 471.93 536.43 478.65 M 541.53 467.6 535.98 474.45 M 541.06 463.18 535.52 470.02 M 540.5 458.87 535.05 465.6 M 540.15 454.55 534.71 461.27 M 539.69 450.13 534.15 456.97 M 539.22 445.7 533.68 452.55 M 538.78 441.5 533.34 448.22 M 538.32 437.07 532.78 443.92 M 537.85 432.65 532.31 439.5 M 537.29 428.35 531.85 435.07 M 536.95 424.02 531.4 430.87 M 536.48 419.6 530.94 426.44 M 535.92 415.3 530.47 422.02 M 535.57 410.97 530.03 417.82 M 535.11 406.55 529.57 413.39 M 534.55 402.25 529.1 408.97 M 534.2 397.92 528.66 404.77 M 533.74 393.5 528.2 400.34 M 529.31 393.96 527.73 395.92 M 472.37 639.47 472.32 639.03 M 475.47 639.15 475.09 635.61 M 478.67 640.93 477.86 632.18 M 481.44 637.51 480.64 628.76 M 484.22 634.09 483.31 625.46 M 486.99 630.67 486.08 622.04 M 489.76 627.24 488.85 618.62 M 492.53 623.82 491.74 616.3 M 491.74 616.3 491.62 615.2 M 495.2 620.52 495.16 619.07 M 495.16 619.07 494.39 611.77 M 497.97 617.1 497.17 608.35 M 500.74 613.68 499.94 604.93 M 503.52 610.26 502.61 601.63 M 506.29 606.83 505.38 598.21 M 509.06 603.41 508.15 594.78 M 511.83 599.99 510.92 591.36 M 514.5 596.69 513.69 587.94 M 517.27 593.27 516.47 584.52 M 520.05 589.84 519.14 581.22 M 522.82 586.42 521.91 577.79 M 525.59 583 524.68 574.37 M 528.36 579.58 527.45 570.95 M 531.03 576.28 530.22 567.53 M 533.8 572.85 533 564.11 M 536.57 569.43 535.67 560.8 M 539.35 566.01 538.44 557.38 M 542.12 562.59 541.21 553.96 M 544.89 559.16 544.49 555.4 M 480.16 639.1 475.73 639.57 M 482.83 635.8 474.2 636.71 M 485.6 632.38 476.97 633.28 M 488.37 628.96 479.75 629.86 M 491.14 625.53 482.52 626.44 M 493.92 622.11 485.19 623.14 M 496.69 618.69 494.92 618.87 M 494.92 618.87 487.96 619.72 M 499.36 615.39 491.49 616.1 M 491.49 616.1 490.73 616.3 M 502.13 611.97 493.5 612.87 M 504.9 608.54 496.27 609.45 M 507.67 605.12 499.05 606.03 M 510.44 601.7 501.72 602.73 M 513.22 598.28 504.49 599.31 M 515.99 594.85 507.26 595.88 M 518.66 591.55 510.03 592.46 M 521.43 588.13 512.8 589.04 M 524.2 584.71 515.58 585.62 M 526.97 581.29 518.35 582.19 M 529.74 577.87 521.02 578.89 M 532.52 574.44 523.79 575.47 M 535.19 571.14 526.56 572.05 M 537.96 567.72 529.33 568.63 M 540.73 564.3 532.1 565.21 M 543.5 560.88 534.88 561.78 M 546.27 557.45 537.55 558.48 M 543.29 554.64 540.32 555.06 M 215.46 594.35 214.86 588.6 M 218.76 597.02 217.96 588.27 M 222.19 599.79 221.38 591.04 M 225.61 602.56 224.8 593.81 M 229.03 605.33 228.22 596.58 M 232.45 608.11 231.52 599.26 M 235.88 610.88 234.95 602.03 M 239.18 613.55 238.37 604.8 M 242.6 616.32 241.79 607.57 M 246.02 619.09 245.21 610.34 M 249.44 621.86 248.63 613.11 M 252.86 624.63 251.93 615.79 M 256.29 627.41 255.36 618.56 M 259.59 630.08 258.78 621.33 M 263.01 632.85 262.2 624.1 M 266.43 635.62 265.62 626.87 M 269.85 638.39 269.05 629.64 M 273.28 641.16 272.35 632.32 M 276.7 643.93 275.77 635.09 M 280.12 646.71 279.19 637.86 M 283.42 649.38 282.61 640.63 M 286.84 652.15 286.04 643.4 M 290.27 654.92 289.46 646.17 M 293.69 657.69 292.88 648.94 M 297.11 660.46 296.18 651.62 M 300.25 660.58 299.6 654.39 M 303.4 660.7 303.03 657.16 M 306.35 660.05 306.45 659.93 M 305.95 660.54 303.74 660.77 M 303.76 657.75 294.91 658.68 M 300.34 654.98 291.49 655.91 M 296.91 652.21 288.07 653.14 M 293.49 649.44 284.77 650.47 M 290.07 646.67 281.34 647.7 M 286.65 643.9 277.92 644.92 M 283.22 641.12 274.5 642.15 M 279.92 638.45 271.08 639.38 M 276.5 635.68 267.65 636.61 M 273.08 632.91 264.35 633.94 M 269.66 630.14 260.93 631.17 M 266.24 627.37 257.51 628.4 M 262.81 624.59 254.09 625.62 M 259.51 621.92 250.66 622.85 M 256.09 619.15 247.24 620.08 M 252.67 616.38 243.94 617.41 M 249.25 613.61 240.52 614.64 M 245.82 610.84 237.1 611.87 M 242.4 608.07 233.68 609.1 M 239.1 605.39 230.25 606.32 M 235.68 602.62 226.83 603.55 M 232.26 599.85 223.53 600.88 M 228.83 597.08 220.11 598.11 M 225.41 594.31 216.69 595.34 M 221.99 591.54 213.26 592.57 M 218.69 588.86 213.82 589.38 M 213.38 589.42 212.72 589.49 M 293.27 334.57 331.43 394.41 M 354 489.99 353.28 483.14 M 357.75 495.86 356.22 481.26 M 361.38 501.63 359.66 485.26 M 364.4 500.64 363.28 491.03 M 367.34 498.77 367.13 496.78 M 460.97 639.55 477.64 628.97 M 265.94 338.34 279.55 329.53 M 282.1 329.37 372.56 470.82 M 756.58 292.25 756.46 292.15 M 657 227.79 656.87 227.7 M 766.78 278.65 766.66 278.55 M 441.02 119.89 440.89 119.79 M 606.15 95.15 606.03 95.05 M 74.52 292.82 141.99 347.45 M 91.89 291.1 140.05 330.1 M 84.17 300.64 216.71 136.98 M 141.99 347.45 316.98 131.36 M 140.05 330.1 264.86 175.97 M 226.31 125.12 301.88 130.26 M 216.61 137.1 264.76 176.09 M 794.75 263.86 776.55 89.65 M 780.15 265.39 762.06 94.31 M 793.1 259.89 775.77 93.87 M 780.94 261.17 763.38 95.17 M 785.36 257.47 768.69 97.86 M 787.91 257.31 771.13 97.6 M 215.96 580.99 330.48 439.57 M 350.55 484.77 355.22 491.99 M 355.22 491.99 215.96 580.99 M 350.55 484.77 356.83 480.75 M 356.83 480.75 330.48 439.57 M 394.46 539.75 217.86 584.14 M 217.86 584.14 357.12 495.15 M 368.08 498.35 394.46 539.75 M 357.12 495.15 361.79 502.37 M 361.79 502.37 368.08 498.35 M 288.36 330.39 291.7 335.52 M 291.49 328.27 294.85 333.62 M 333.31 400.59 336.35 398.59 M 329.86 395.36 333.11 393.34 M 291.49 328.27 288.36 330.39 M 294.85 333.62 291.7 335.52 M 333.11 393.34 336.35 398.59 M 329.86 395.36 333.31 400.59 M 333.53 393.07 336.86 398.2 M 340.02 396.3 336.66 390.95 M 336.66 390.95 333.53 393.07 M 336.86 398.2 340.02 396.3 M 380.11 466 383.24 463.89 M 376.87 460.75 379.91 458.76 M 379.91 458.76 383.24 463.89 M 376.87 460.75 380.11 466 M 394.48 481.49 397.82 486.62 M 394.69 488.74 391.33 483.39 M 391.33 483.39 394.48 481.49 M 394.69 488.74 397.82 486.62 M 438.59 557.48 441.62 555.48 M 434.71 552.52 431.58 554.64 M 431.58 554.64 434.92 559.76 M 435.35 552.23 438.39 550.23 M 434.92 559.76 438.07 557.87 M 480.9 624.93 477.75 626.83 M 477.55 619.58 474.41 621.7 M 436.49 558.82 476.09 620.63 M 474.41 621.7 477.75 626.83 M 477.55 619.58 480.9 624.93 M 435.35 552.23 438.59 557.48 M 438.39 550.23 441.62 555.48 M 399.42 291.21 383.77 142.34 M 396.99 291.46 380.85 137.95 M 356.2 140.65 372.31 293.95 M 372.31 293.95 396.99 291.46 M 369.78 294.32 353.2 136.61 M 328.65 139.19 345.23 296.9 M 345.23 296.9 369.78 294.32 M 353.2 136.61 328.65 139.19 M 380.85 137.95 356.2 140.65 M 408.45 139.86 383.77 142.34 M 16.78 440.34 88.22 657.26 M 13.21 441.5 84.63 658.19 M 226.24 769.22 438.7 783.01 M 225.73 772.86 438.65 786.82 M 300.7 660.53 386.97 651.47 M 302.25 675.35 476.44 656.94 M 388.52 666.29 386.97 651.47 M 386.97 651.47 390.95 651.05 M 401.79 649.91 403.34 664.73 M 403.34 664.73 388.52 666.29 M 402.13 654.23 468.71 647.24 M 386.97 651.47 386.55 647.49 M 386.55 647.49 390.63 646.94 M 390.63 646.94 390.95 651.05 M 401.79 649.91 386.97 651.47 M 467.48 643 475.01 642.21 M 388.74 666.26 388.38 665.97 M 393.17 665.8 388.04 661.64 M 397.47 665.24 387.57 657.22 M 401.9 664.77 387.11 652.79 M 402.92 661.75 389.84 651.16 M 402.58 657.43 394.27 650.7 M 402.11 653.01 398.69 650.23 M 386.55 647.49 390.95 651.05 M 394.27 650.7 392.19 649.02 M 403.33 654 402.11 653.01 M 398.69 650.23 396.61 648.55 M 407.66 653.65 400.81 648.11 M 412.08 653.19 405.24 647.65 M 416.51 652.72 409.66 647.18 M 420.71 652.28 413.99 646.84 M 425.13 651.82 418.29 646.27 M 429.56 651.35 422.71 645.81 M 433.76 650.91 427.04 645.47 M 438.19 650.44 431.34 644.9 M 442.61 649.98 435.77 644.44 M 446.81 649.54 440.09 644.09 M 451.24 649.07 444.39 643.53 M 455.66 648.61 448.82 643.07 M 459.86 648.17 453.14 642.72 M 464.29 647.7 457.44 642.16 M 468.71 647.24 461.87 641.69 M 468 642.61 466.29 641.23 M 468.99 645.64 467.61 647.35 M 468.72 640.97 463.18 647.82 M 464.42 641.54 458.98 648.26 M 460.1 641.88 454.55 648.72 M 455.67 642.34 450.13 649.19 M 451.37 642.91 445.93 649.63 M 447.05 643.25 441.5 650.1 M 442.62 643.72 437.08 650.56 M 438.2 644.18 432.75 650.9 M 434 644.62 428.45 651.47 M 429.57 645.09 424.03 651.93 M 425.15 645.55 419.7 652.28 M 420.94 645.99 415.4 652.84 M 416.52 646.46 410.98 653.3 M 412.1 646.92 406.55 653.77 M 407.79 647.49 402.35 654.21 M 403.47 647.83 401.69 650.03 M 399.05 648.3 397.36 650.37 M 394.74 648.86 393.16 650.82 M 188.62 502.79 203.44 501.23 M 203.44 501.23 205 516.05 M 205 516.05 190.18 517.61 M 190.18 517.61 188.62 502.79 M 200.67 516.4 207.67 582.98 M 203.44 501.23 207.42 500.81 M 207.42 500.81 207.96 504.9 M 207.96 504.9 203.76 505.34 M 203.76 505.34 203.44 501.23 M 203.44 501.23 207.96 504.9 M 210.67 581.77 207.25 579 M 213.39 579.92 206.79 574.57 M 213.17 575.69 206.32 570.15 M 212.6 571.39 205.88 565.95 M 212.26 567.06 205.42 561.52 M 211.8 562.64 204.95 557.1 M 211.23 558.34 204.39 552.8 M 210.77 553.91 204.04 548.47 M 210.42 549.59 203.58 544.05 M 209.86 545.29 203.01 539.74 M 209.39 540.86 202.67 535.42 M 209.05 536.54 202.21 531 M 208.49 532.24 201.64 526.69 M 208.02 527.81 201.3 522.37 M 207.68 523.49 204.75 521.11 M 200.84 517.94 204.75 521.11 M 207.12 519.19 206.63 518.79 M 203.45 516.22 206.63 518.79 M 206.65 514.76 204.7 513.18 M 206.31 510.44 204.23 508.75 M 205.84 506.01 204.74 505.12 M 213.38 577.68 209.42 582.57 M 209.22 582.82 208.72 583.43 M 212.91 573.26 207.37 580.1 M 212.35 568.96 206.9 575.68 M 211.88 564.53 206.34 571.38 M 211.54 560.21 206 567.05 M 210.98 555.91 205.53 562.63 M 210.51 551.48 204.97 558.33 M 210.17 547.16 204.63 554 M 209.6 542.85 204.16 549.58 M 209.14 538.43 203.6 545.27 M 208.8 534.11 203.25 540.95 M 208.23 529.8 202.79 536.53 M 207.77 525.38 202.22 532.22 M 207.42 521.05 201.88 527.9 M 206.96 516.63 201.42 523.47 M 206.4 512.33 204.71 514.41 M 203.33 516.12 200.95 519.05 M 206.05 508 204.37 510.08 M 204.2 505.29 203.91 505.66 M 190.4 517.59 190.15 517.39 M 194.82 517.12 189.69 512.97 M 199.12 516.56 189.22 508.54 M 203.45 516.22 188.78 504.34 M 204.7 513.18 191.5 502.49 M 204.23 508.75 195.92 502.02 M 203.77 504.33 200.34 501.56 M 445.85 87.17 454.53 94.2 M 447.6 102.76 438.92 95.73 M 438.92 95.73 445.85 87.17 M 447.6 102.76 454.53 94.2 M 464.86 63.71 471.88 55.03 M 473.53 70.73 480.56 62.05 M 480.56 62.05 471.88 55.03 M 464.86 63.71 473.53 70.73 M 415.98 132.8 414.89 122.41 M 419.39 134.35 418.78 129.6 M 417.8 120.31 418.31 125.18 M 418.31 125.18 418.78 129.6 M 422.41 134.37 421.61 127.85 M 420.85 119.54 421.55 126.18 M 421.55 126.18 421.61 127.85 M 425.39 132.93 425.04 130.62 M 424.07 120.33 424.32 122.76 M 424.32 122.76 425.04 130.62 M 428.07 128.63 427.58 123.98 M 492.98 35.48 492.02 27.42 M 496.35 37.81 495.98 34.27 M 494.84 24.44 495.33 28.07 M 495.33 28.07 495.98 34.27 M 499.42 38.27 498.75 30.85 M 498.75 30.85 497.86 23.45 M 498.75 30.85 498.63 30.75 M 502.45 37.28 502.05 33.52 M 501.03 23.78 501.52 27.42 M 501.52 27.42 502.05 33.52 M 505.27 34.3 504.41 26.11 M 440.27 96.82 440.01 94.38 M 443.69 99.59 443.62 98.92 M 443.62 98.92 442.69 91.08 M 447.11 102.36 446.39 95.5 M 446.39 95.5 445.46 87.66 M 449.88 99.94 449.16 92.08 M 449.16 92.08 448.79 89.55 M 452.65 96.52 452.21 92.32 M 468.16 66.38 467.53 60.41 M 471.58 69.15 471.14 64.95 M 471.14 64.95 470.3 56.98 M 474.72 69.27 473.91 61.52 M 473.91 61.52 473.35 56.22 M 477.49 65.84 476.77 58.99 M 480.17 62.54 480.2 61.76 M 547.72 20.11 548.88 31.17 M 536.54 21.17 537.82 32.33 M 590.73 15.48 592.02 26.63 M 579.67 16.64 580.84 27.7 M 633.87 10.94 635.03 22 M 622.81 12.1 623.87 23.29 M 579.67 16.64 590.73 15.48 M 537.82 32.33 548.88 31.17 M 580.84 27.7 592.02 26.63 M 623.87 23.29 635.03 22 M 622.81 12.1 633.87 10.94 M 536.54 21.17 547.72 20.11 M 540.48 32.05 537.42 29.58 M 544.68 31.61 536.98 25.37 M 548.74 30.85 536.88 21.25 M 548.39 26.52 541.18 20.68 M 547.83 22.22 545.51 20.34 M 583.93 27.37 580.51 24.6 M 588.26 27.03 580.07 20.4 M 591.83 25.87 580.46 16.67 M 591.48 21.55 584.76 16.1 M 590.92 17.24 589.09 15.76 M 627.41 22.91 623.5 19.75 M 631.83 22.45 623.16 15.42 M 634.91 20.9 624.04 12.09 M 634.45 16.47 628.34 11.52 M 634.01 12.27 632.66 11.18 M 729.27 65.32 736.29 56.65 M 744.97 63.67 737.94 72.35 M 737.94 72.35 729.27 65.32 M 736.29 56.65 744.97 63.67 M 712.83 37.64 705.8 46.32 M 705.8 46.32 697.12 39.29 M 697.12 39.29 704.15 30.62 M 704.15 30.62 712.83 37.64 M 668.55 18.59 668.48 17.93 M 667.49 7.41 667.46 8.19 M 667.46 8.19 668.48 17.93 M 671.94 19.91 671.26 14.5 M 670.42 5.53 670.88 10.96 M 670.88 10.96 671.26 14.5 M 674.93 19.71 674.31 13.74 M 673.4 5.11 674.03 11.08 M 674.03 11.08 674.31 13.74 M 677.89 18.06 677.73 16.51 M 676.64 6.11 676.8 7.66 M 676.8 7.66 677.73 16.51 M 698.95 40.78 698.61 37.46 M 702.38 43.55 701.56 35.81 M 701.56 35.81 701.38 34.04 M 705.8 46.32 704.86 38.48 M 704.86 38.48 704.15 30.62 M 708.57 42.9 708.29 41.25 M 708.29 41.25 707.57 33.39 M 711.24 39.6 710.99 36.16 M 729.63 65.62 729.56 64.96 M 733.06 68.39 732.33 61.54 M 736.36 71.07 735.54 63.32 M 735.54 63.32 735.11 58.11 M 739.53 70.4 738.96 66.09 M 738.96 66.09 738.13 58.13 M 742.3 66.97 741.55 60.9 M 763.89 95.79 763.01 86.38 M 767.22 97.68 766.78 93.47 M 765.76 83.74 766.22 88.17 M 766.22 88.17 766.78 93.47 M 770.36 97.79 769.52 90.84 M 768.81 82.97 769.55 90.05 M 769.55 90.05 769.52 90.84 M 773.37 96.58 772.94 93.61 M 772 83.53 772.32 86.63 M 772.32 86.63 772.94 93.61 M 776.02 93.06 775.32 86.43 M 776.39 265.79 787.91 281.8 M 703.71 356.29 776.66 266.21 M 715.2 365.59 785.67 278.57 M 712.54 354.13 780.05 270.77 M 715.68 356.26 782.29 274 M 707.36 353.78 777.44 267.24 M 716.9 361.5 784.89 277.53"/>
</g>
</svg>