<?xml version="1.0"?>
<svg xmlns="http://www.w3.org/2000/svg" version="1.2" baseProfile="tiny" width="800" height="1250" viewBox="0 0 800 1250" stroke-linecap="round" stroke-linejoin="round">
<g id="4" fill="none" stroke="black" stroke-width="1">
<path d="M 799 31.92 230.06 1.98 M 44.3 380.36 1 1209.96 M 304.56 127.59 305.7 105.74 M 305.7 105.74 327.46 106.89 M 327.46 106.89 326.32 128.74 M 326.32 128.74 304.56 127.59 M 469.72 136.28 470.86 114.43 M 470.86 114.43 492.62 115.58 M 492.62 115.58 491.48 137.43 M 491.48 137.43 469.72 136.28 M 677.08 396.83 678.24 374.59 M 678.24 374.59 700 375.74 M 700 375.74 698.84 397.98 M 698.84 397.98 677.08 396.83 M 287.22 459.66 288.39 437.42 M 288.39 437.42 310.15 438.57 M 310.15 438.57 308.99 460.81 M 308.99 460.81 287.22 459.66 M 417.36 1132.09 418.52 1109.85 M 418.52 1109.85 440.28 1110.99 M 440.28 1110.99 439.12 1133.23 M 439.12 1133.23 417.36 1132.09 M 690.07 147.88 691.21 126.03 M 691.21 126.03 712.97 127.17 M 712.97 127.17 711.83 149.02 M 711.83 149.02 690.07 147.88 M 711.83 149.02 700 375.74 M 691.21 126.03 327.46 106.89 M 690.07 147.88 326.32 128.74 M 326.32 128.74 318.8 272.73 M 304.56 127.59 297.04 271.58 M 251.8 1123.38 252.96 1101.13 M 252.96 1101.13 275.12 1102.3 M 275.12 1102.3 273.95 1124.54 M 273.95 1124.54 251.8 1123.38 M 326.68 106.84 327.42 107.67 M 323.96 106.7 327.28 110.4 M 321.63 106.58 327.15 112.74 M 319.3 106.46 327.03 115.08 M 316.58 106.31 326.89 117.81 M 314.25 106.19 324.56 117.69 M 324.56 117.69 326.77 120.15 M 311.53 106.05 322.23 117.57 M 322.23 117.57 326.65 122.49 M 309.19 105.92 319.51 117.42 M 319.51 117.42 326.5 125.23 M 306.86 105.8 317.17 117.3 M 317.17 117.3 326.38 127.57 M 305.64 106.91 315.95 118.41 M 315.95 118.41 325.15 128.68 M 305.51 109.25 315.8 121.14 M 315.8 121.14 322.82 128.55 M 305.37 111.98 315.68 123.48 M 315.68 123.48 320.1 128.41 M 305.25 114.32 315.56 125.82 M 315.56 125.82 317.77 128.29 M 305.13 116.67 315.44 128.16 M 304.98 119.4 312.72 128.02 M 304.86 121.74 310.39 127.9 M 304.74 124.08 308.05 127.78 M 304.6 126.81 305.33 127.63 M 492.24 115.56 492.6 115.97 M 489.9 115.43 492.48 118.31 M 487.18 115.29 492.34 121.04 M 484.85 115.17 492.22 123.38 M 482.52 115.04 492.07 126.11 M 479.8 114.9 490.5 126.42 M 490.5 126.42 491.95 128.45 M 477.47 114.78 487.78 126.28 M 487.78 126.28 491.83 130.79 M 474.75 114.64 485.45 126.15 M 485.45 126.15 491.69 133.53 M 472.42 114.51 482.73 126.01 M 482.73 126.01 491.57 135.87 M 470.82 115.21 480.4 125.89 M 480.4 125.89 490.71 137.39 M 470.7 117.55 478.06 125.77 M 478.06 125.77 488.37 137.26 M 470.58 119.89 475.34 125.62 M 475.34 125.62 486.04 137.14 M 470.43 122.63 473.01 125.5 M 473.01 125.5 483.32 137 M 470.31 124.97 470.68 125.38 M 470.68 125.38 480.99 136.88 M 470.19 127.31 478.66 136.75 M 470.05 130.04 475.94 136.61 M 469.92 132.38 473.61 136.49 M 469.78 135.11 471.28 136.37 M 712.2 127.13 712.93 127.95 M 709.86 127.01 712.81 130.29 M 707.53 126.89 712.69 132.63 M 704.81 126.74 712.55 135.37 M 702.48 126.62 712.42 137.71 M 700.15 126.5 712.3 140.05 M 697.43 126.35 712.16 142.78 M 695.1 126.23 712.04 145.12 M 692.38 126.09 711.89 147.85 M 691.17 126.81 700.36 137.46 M 711.06 148.98 701.46 138.7 M 701.46 138.7 700.36 137.46 M 691.03 129.54 698.02 137.34 M 708.33 148.84 701.34 141.04 M 701.34 141.04 698.02 137.34 M 690.9 131.88 695.69 137.22 M 706 148.72 701.22 143.38 M 701.22 143.38 695.69 137.22 M 690.78 134.22 692.97 137.08 M 703.67 148.59 701.07 146.11 M 701.07 146.11 692.97 137.08 M 690.64 136.95 691.03 136.97 M 700.95 148.45 690.64 136.95 M 690.52 139.29 698.62 148.33 M 690.4 141.63 696.29 148.21 M 690.25 144.37 693.57 148.06 M 690.13 146.71 691.24 147.94 M 698.83 375.68 699.92 377.3 M 696.5 375.55 699.8 379.64 M 693.78 375.41 699.67 381.98 M 691.45 375.29 699.53 384.71 M 689.12 375.17 689.1 375.56 M 689.1 375.56 699.41 387.05 M 686.4 375.02 688.98 377.9 M 688.98 377.9 699.27 389.79 M 684.07 374.9 688.83 380.63 M 688.83 380.63 699.14 392.13 M 681.73 374.78 688.71 382.97 M 688.71 382.97 699.02 394.47 M 679.01 374.63 688.59 385.31 M 688.59 385.31 698.88 397.2 M 678.16 376.15 686.97 386.4 M 686.97 386.4 697.67 397.92 M 678.01 378.89 684.64 386.28 M 684.64 386.28 694.95 397.78 M 677.89 381.23 681.92 386.13 M 681.92 386.13 692.62 397.65 M 677.77 383.57 679.59 386.01 M 679.59 386.01 689.9 397.51 M 677.63 386.3 687.57 397.39 M 677.5 388.64 685.24 397.26 M 677.38 390.98 682.52 397.12 M 677.24 393.71 680.18 397 M 677.12 396.05 677.85 396.88 M 308.2 438.46 310.05 440.52 M 305.87 438.34 309.92 442.86 M 303.54 438.22 309.78 445.59 M 300.82 438.08 309.66 447.93 M 298.49 437.95 299.23 438.77 M 299.23 438.77 309.52 450.66 M 295.77 437.81 299.08 441.51 M 299.08 441.51 309.39 453 M 293.44 437.69 298.96 443.85 M 298.96 443.85 309.27 455.35 M 291.11 437.56 298.84 446.19 M 298.84 446.19 309.13 458.08 M 288.39 437.42 298.7 448.92 M 298.7 448.92 309.01 460.42 M 288.26 439.76 296.36 448.8 M 296.36 448.8 307.04 460.71 M 288.14 442.1 294.03 448.67 M 294.03 448.67 304.32 460.56 M 288.02 444.45 291.7 448.55 M 291.7 448.55 301.99 460.44 M 287.88 447.18 288.98 448.41 M 288.98 448.41 299.66 460.32 M 287.75 449.52 296.94 460.18 M 287.63 451.86 294.61 460.05 M 287.49 454.59 291.89 459.91 M 287.37 456.93 289.56 459.79 M 287.22 459.66 287.61 459.68 M 274.34 1102.26 275.09 1102.69 M 272.01 1102.14 274.95 1105.42 M 269.67 1102.01 274.83 1107.76 M 266.95 1101.87 274.69 1110.49 M 264.62 1101.75 274.57 1112.84 M 262.29 1101.63 272.6 1113.12 M 272.6 1113.12 274.44 1115.18 M 259.57 1101.48 270.27 1113 M 270.27 1113 274.3 1117.91 M 257.24 1101.36 267.55 1112.86 M 267.55 1112.86 274.18 1120.25 M 254.52 1101.22 265.22 1112.74 M 265.22 1112.74 274.06 1122.59 M 252.92 1101.91 262.5 1112.59 M 262.5 1112.59 273.18 1124.5 M 252.8 1104.26 260.17 1112.47 M 260.17 1112.47 270.46 1124.36 M 252.66 1106.99 257.83 1112.35 M 257.83 1112.35 268.12 1124.24 M 252.54 1109.33 255.11 1112.2 M 255.11 1112.2 265.79 1124.11 M 252.39 1112.06 252.78 1112.08 M 252.78 1112.08 263.07 1123.97 M 252.27 1114.4 260.74 1123.85 M 252.15 1116.74 258.41 1123.72 M 252.01 1119.47 255.69 1123.58 M 251.88 1121.82 253.36 1123.46 M 440.28 1110.99 440.67 1111.01 M 437.56 1110.85 440.14 1113.72 M 435.23 1110.73 440.01 1116.06 M 432.9 1110.6 439.89 1118.41 M 430.18 1110.46 439.75 1121.14 M 427.84 1110.34 429.32 1111.98 M 429.32 1111.98 439.63 1123.48 M 425.51 1110.21 429.19 1114.32 M 429.19 1114.32 439.51 1125.82 M 422.79 1110.07 429.07 1116.66 M 429.07 1116.66 439.36 1128.55 M 420.46 1109.95 428.93 1119.39 M 428.93 1119.39 439.24 1130.89 M 418.5 1110.24 428.44 1121.32 M 428.44 1121.32 438.73 1133.21 M 418.37 1112.58 425.72 1121.18 M 425.72 1121.18 436.4 1133.09 M 418.23 1115.31 423.39 1121.06 M 423.39 1121.06 433.68 1132.95 M 418.11 1117.65 421.06 1120.94 M 421.06 1120.94 431.35 1132.82 M 417.99 1119.99 418.34 1120.79 M 418.34 1120.79 429.01 1132.7 M 417.84 1122.72 426.29 1132.56 M 417.72 1125.06 423.96 1132.44 M 417.6 1127.41 421.63 1132.31 M 417.46 1130.14 418.91 1132.17 M 735.5 1248.61 1 1209.96 M 799 31.92 211.4 1 M 1 1209.96 45.81 351.49 M 45.81 351.49 192.71 359.22 M 454.27 641.4 458.17 641.22 M 458.17 641.22 462.14 639.86 M 462.14 639.86 465.74 638.09 M 465.74 638.09 469.01 635.13 M 469.01 635.13 471.14 631.73 M 471.14 631.73 472.9 627.91 M 472.9 627.91 473.49 624.02 M 473.49 624.02 473.31 620.1 M 473.31 620.1 471.95 616.12 M 471.95 616.12 470.19 612.5 M 470.19 612.5 467.25 609.22 M 467.25 609.22 463.85 607.08 M 463.85 607.08 460.05 605.32 M 460.05 605.32 456.18 604.72 M 456.18 604.72 452.28 604.91 M 452.28 604.91 448.31 606.26 M 448.31 606.26 444.71 608.03 M 444.71 608.03 441.44 610.99 M 441.44 610.99 439.31 614.4 M 439.31 614.4 437.55 618.22 M 437.55 618.22 436.96 622.1 M 436.96 622.1 437.14 626.02 M 437.14 626.02 438.5 630.01 M 438.5 630.01 440.26 633.62 M 440.26 633.62 443.2 636.91 M 443.2 636.91 446.6 639.04 M 446.6 639.04 450.4 640.81 M 450.4 640.81 454.27 641.4 M 428.26 1139.71 432.17 1139.52 M 432.17 1139.52 436.13 1138.16 M 436.13 1138.16 439.73 1136.4 M 439.73 1136.4 443.01 1133.44 M 443.01 1133.44 445.13 1130.03 M 445.13 1130.03 446.89 1126.21 M 446.89 1126.21 447.48 1122.33 M 447.48 1122.33 447.3 1118.4 M 447.3 1118.4 445.95 1114.42 M 445.95 1114.42 444.19 1110.81 M 444.19 1110.81 441.24 1107.52 M 441.24 1107.52 437.84 1105.39 M 437.84 1105.39 434.04 1103.62 M 434.04 1103.62 430.17 1103.03 M 430.17 1103.03 426.27 1103.21 M 426.27 1103.21 422.3 1104.57 M 422.3 1104.57 418.7 1106.33 M 418.7 1106.33 415.43 1109.29 M 415.43 1109.29 413.3 1112.7 M 413.3 1112.7 411.54 1116.52 M 411.54 1116.52 410.95 1120.4 M 410.95 1120.4 411.14 1124.33 M 411.14 1124.33 412.49 1128.31 M 412.49 1128.31 414.25 1131.92 M 414.25 1131.92 417.19 1135.21 M 417.19 1135.21 420.59 1137.35 M 420.59 1137.35 424.39 1139.11 M 424.39 1139.11 428.26 1139.71 M 698.84 397.98 692.2 525.19 M 446.52 1140.67 479.23 513.98 M 288.18 441.32 295.88 293.82 M 563.38 141.21 631.51 217.18 M 631.51 217.18 690.8 283.3 M 414.93 133.4 477.16 202.8 M 685.96 435.65 696.27 447.15 M 477.16 202.8 483.05 209.37 M 685.96 435.65 639.56 383.9 M 639.56 383.9 483.05 209.37 M 323.57 188.85 334.6 201.56 M 569.57 463.17 621.47 521.47 M 334.6 201.56 469.38 351.86 M 569.57 463.17 491.11 376.09 M 491.11 376.09 469.38 351.86 M 294.43 314.09 305.11 326 M 461.6 500.93 478.91 520.23 M 305.11 326 342.65 368.28 M 461.6 500.93 421.11 455.36 M 421.11 455.36 342.65 368.28 M 267.5 441.8 297.33 475.06 M 453.84 649.6 471.13 669.29 M 297.33 475.06 429.15 622.47 M 429.15 622.47 453.84 649.6 M 194.17 517.76 280.69 614.66 M 446.06 798.66 463.35 818.35 M 280.69 614.66 289.55 624.13 M 289.55 624.13 446.06 798.66 M 187.87 668.47 281.77 773.19 M 438.28 947.72 455.59 967.02 M 281.77 773.19 367.21 868.46 M 367.21 868.46 438.28 947.72 M 180.09 817.53 219.14 860.67 M 446.36 1114.05 447.81 1116.08 M 219.14 860.67 276.2 924.71 M 438.23 1105.41 430.5 1096.78 M 430.5 1096.78 276.2 924.71 M 171.2 965.36 274.31 1080.35 M 274.31 1080.35 322.94 1134.16 M 167.47 1118.94 174.49 1126.35 M 582.03 142.19 649.77 218.15 M 649.77 218.15 691.77 264.57 M 433.58 134.38 478.14 184.07 M 686.94 416.92 697.23 428.81 M 478.14 184.07 501.32 210.33 M 686.94 416.92 658.21 384.89 M 658.21 384.89 501.32 210.33 M 324.16 170.1 353.25 202.54 M 587.83 464.14 640.12 522.45 M 353.25 202.54 470.36 333.13 M 587.83 464.14 509.76 377.07 M 509.76 377.07 470.36 333.13 M 295.39 295.75 306.07 307.66 M 462.58 482.19 491.67 514.64 M 306.07 307.66 361.31 369.26 M 462.58 482.19 439.77 456.34 M 439.77 456.34 361.31 369.26 M 286.16 442.78 288 444.84 M 462.53 639.88 472.11 650.56 M 301.6 460.42 439.33 614.01 M 194.78 498.62 290.53 605.4 M 447.02 780.32 464.33 799.62 M 290.53 605.4 299.35 615.64 M 299.35 615.64 447.02 780.32 M 188.84 649.74 282.75 754.46 M 439.26 928.99 456.55 948.68 M 282.75 754.46 385.86 869.44 M 385.86 869.44 439.26 928.99 M 181.06 798.8 237.41 861.63 M 431.48 1078.05 448.79 1097.35 M 237.41 861.63 276.44 905.16 M 276.44 905.16 431.48 1078.05 M 172.18 946.63 274.55 1060.79 M 274.55 1060.79 341.21 1135.12 M 162.93 1094.05 180.99 1113.78 M 186.13 1119.92 193.14 1127.33 M 600.69 143.17 668.43 219.13 M 668.43 219.13 692.75 245.84 M 452.23 135.36 479.1 165.73 M 687.92 398.19 698.21 410.08 M 479.1 165.73 519.97 211.32 M 687.18 397.37 687.92 398.19 M 519.97 211.32 676.48 385.85 M 676.48 385.85 677.61 386.69 M 325.12 151.76 371.52 203.5 M 606.49 465.12 658.78 523.43 M 371.52 203.5 471.34 314.4 M 606.49 465.12 528.41 378.06 M 528.41 378.06 471.34 314.4 M 311.83 294.27 379.96 370.24 M 463.56 463.46 510.32 515.62 M 379.96 370.24 458.03 457.3 M 458.03 457.3 463.56 463.46 M 288.59 426.08 299.27 437.99 M 471.98 630.6 473.08 631.83 M 299.27 437.99 299.65 438.01 M 449.51 605.55 309.58 449.49 M 195.37 479.87 291.49 587.06 M 448 761.59 465.3 780.89 M 291.49 587.06 318 616.62 M 318 616.62 448 761.59 M 189.82 631.01 283.73 735.73 M 440.21 910.65 457.52 929.95 M 283.73 735.73 404.51 870.43 M 404.51 870.43 440.21 910.65 M 182.04 780.07 256.06 862.61 M 432.43 1059.71 449.74 1079.01 M 256.06 862.61 276.66 886 M 276.66 886 432.43 1059.71 M 173.52 928.31 274.77 1041.63 M 274.77 1041.63 359.86 1136.11 M 163.9 1075.32 199.26 1114.74 M 204.39 1120.88 211.41 1128.29 M 437.83 112.69 436.69 134.54 M 436.69 134.54 414.54 133.38 M 414.54 133.38 415.68 111.53 M 415.68 111.53 437.83 112.69 M 382.64 109.79 381.5 131.64 M 381.5 131.64 359.35 130.48 M 359.35 130.48 360.49 108.62 M 360.49 108.62 382.64 109.79 M 547.81 118.48 546.67 140.33 M 546.67 140.33 524.52 139.17 M 524.52 139.17 525.66 117.31 M 525.66 117.31 547.81 118.48 M 602.99 121.38 601.85 143.24 M 601.85 143.24 579.7 142.07 M 579.7 142.07 580.84 120.22 M 580.84 120.22 602.99 121.38 M 658.18 124.29 657.04 146.14 M 657.04 146.14 634.89 144.97 M 634.89 144.97 636.03 123.12 M 636.03 123.12 658.18 124.29 M 176.86 453.86 178.02 431.61 M 178.02 431.61 200.17 432.78 M 200.17 432.78 199.01 455.02 M 199.01 455.02 176.86 453.86 M 198.22 432.68 200.07 434.73 M 195.5 432.53 199.94 437.07 M 193.17 432.41 199.8 439.8 M 190.84 432.29 199.68 442.14 M 188.12 432.15 188.86 432.97 M 188.86 432.97 199.54 444.88 M 185.79 432.02 188.71 435.7 M 188.71 435.7 199.41 447.22 M 183.46 431.9 188.59 438.04 M 188.59 438.04 199.29 449.56 M 180.74 431.76 188.47 440.38 M 188.47 440.38 199.15 452.29 M 178.41 431.63 188.33 443.11 M 188.33 443.11 199.03 454.63 M 177.89 433.96 186.38 443.01 M 186.38 443.01 196.68 454.9 M 177.77 436.3 184.05 442.89 M 184.05 442.89 194.34 454.78 M 177.65 438.64 181.33 442.74 M 181.33 442.74 191.62 454.63 M 177.51 441.37 179 442.62 M 179 442.62 189.29 454.51 M 177.38 443.71 186.96 454.39 M 177.26 446.05 184.24 454.24 M 177.12 448.78 181.91 454.12 M 177 451.12 179.58 454 M 176.86 453.86 177.24 453.88 M 165.52 1096.53 164.36 1118.78 M 164.36 1118.78 142.21 1117.61 M 143.37 1095.37 165.52 1096.53 M 163.58 1096.43 165.42 1098.48 M 160.86 1096.29 165.3 1100.83 M 158.53 1096.17 165.16 1103.56 M 156.2 1096.04 165.04 1105.9 M 153.48 1095.9 154.21 1096.72 M 154.21 1096.72 164.91 1108.24 M 151.14 1095.78 154.09 1099.06 M 154.09 1099.06 164.77 1110.97 M 148.81 1095.65 153.95 1101.79 M 153.95 1101.79 164.65 1113.31 M 146.09 1095.51 153.83 1104.13 M 153.83 1104.13 164.53 1115.65 M 143.76 1095.39 153.7 1106.48 M 153.7 1106.48 164.38 1118.39 M 143.27 1097.32 151.74 1106.76 M 151.74 1106.76 162.03 1118.65 M 143.13 1100.05 149.41 1106.64 M 149.41 1106.64 159.7 1118.53 M 143.01 1102.39 146.69 1106.5 M 146.69 1106.5 156.98 1118.39 M 142.88 1104.73 144.36 1106.38 M 144.36 1106.38 154.65 1118.26 M 142.74 1107.46 152.32 1118.14 M 142.62 1109.81 149.6 1118 M 142.48 1112.54 147.26 1117.88 M 142.35 1114.88 144.93 1117.75 M 142.23 1117.22 142.21 1117.61 M 141.84 1124.63 143.37 1095.37 M 324.59 161.91 323.43 184.15 M 323.43 184.15 301.66 183 M 301.66 183 302.83 160.76 M 302.83 160.76 324.59 161.91 M 323.81 161.86 324.53 163.08 M 321.09 161.72 324.4 165.42 M 318.76 161.6 324.26 168.15 M 316.43 161.48 324.14 170.49 M 313.71 161.33 324.02 172.83 M 311.37 161.21 321.67 173.1 M 321.67 173.1 323.88 175.56 M 308.65 161.07 319.33 172.98 M 319.33 172.98 323.75 177.9 M 306.32 160.94 316.61 172.83 M 316.61 172.83 323.61 180.64 M 303.99 160.82 314.28 172.71 M 314.28 172.71 323.49 182.98 M 302.74 162.32 313.05 173.82 M 313.05 173.82 322.26 184.09 M 302.62 164.66 312.93 176.16 M 312.93 176.16 319.93 183.96 M 302.5 167 312.79 178.89 M 312.79 178.89 317.21 183.82 M 302.36 169.73 312.67 181.23 M 312.67 181.23 314.88 183.7 M 302.23 172.08 312.55 183.57 M 302.11 174.42 309.83 183.43 M 301.97 177.15 307.49 183.31 M 301.85 179.49 305.16 183.19 M 301.71 182.22 302.44 183.04 M 321.7 217.32 320.54 239.56 M 320.54 239.56 298.77 238.41 M 298.77 238.41 299.93 216.17 M 299.93 216.17 321.7 217.32 M 320.92 217.27 321.63 218.49 M 318.2 217.13 321.51 220.83 M 315.87 217.01 321.39 223.17 M 313.53 216.89 321.25 225.9 M 310.81 216.74 321.13 228.24 M 308.48 216.62 318.79 228.12 M 318.79 228.12 320.98 230.97 M 305.76 216.48 316.46 228 M 316.46 228 320.86 233.31 M 303.43 216.35 313.74 227.85 M 313.74 227.85 320.74 235.66 M 301.1 216.23 311.41 227.73 M 311.41 227.73 320.6 238.39 M 299.87 217.34 310.16 229.23 M 310.16 229.23 319.37 239.5 M 299.73 220.07 310.04 231.57 M 310.04 231.57 317.04 239.37 M 299.61 222.41 309.92 233.91 M 309.92 233.91 314.32 239.23 M 299.49 224.76 309.78 236.64 M 309.78 236.64 311.99 239.11 M 299.34 227.49 309.65 238.99 M 299.22 229.83 306.93 238.84 M 299.08 232.56 304.6 238.72 M 298.96 234.9 302.27 238.6 M 298.83 237.24 299.55 238.45 M 657.4 124.25 658.14 125.07 M 654.68 124.1 658.01 127.41 M 652.35 123.98 657.89 129.75 M 650.02 123.86 657.75 132.48 M 647.3 123.72 657.63 134.82 M 644.96 123.59 657.51 137.17 M 642.24 123.45 657.36 139.9 M 639.91 123.33 657.24 142.24 M 637.58 123.2 657.1 144.97 M 635.99 123.9 645.56 134.58 M 655.87 146.08 646.28 135.79 M 646.28 135.79 645.56 134.58 M 635.84 126.63 642.84 134.44 M 653.54 145.96 646.15 138.13 M 646.15 138.13 642.84 134.44 M 635.72 128.98 640.51 134.31 M 650.82 145.81 646.03 140.47 M 646.03 140.47 640.51 134.31 M 635.6 131.32 638.18 134.19 M 648.49 145.69 645.89 143.21 M 645.89 143.21 638.18 134.19 M 635.46 134.05 635.84 134.07 M 646.16 145.57 645.77 145.55 M 645.77 145.55 635.46 134.05 M 635.33 136.39 643.44 145.42 M 635.21 138.73 641.1 145.3 M 635.07 141.46 638.77 145.18 M 634.95 143.8 636.05 145.04 M 602.22 121.34 602.95 122.16 M 599.88 121.22 602.83 124.51 M 597.16 121.08 602.71 126.85 M 594.83 120.95 602.57 129.58 M 592.11 120.81 602.44 131.92 M 589.78 120.69 602.32 134.26 M 587.45 120.57 602.18 136.99 M 584.73 120.42 602.06 139.33 M 582.4 120.3 601.91 142.07 M 580.8 121 590.38 131.68 M 600.69 143.17 591.48 132.91 M 591.48 132.91 590.38 131.68 M 580.66 123.73 588.04 131.55 M 598.35 143.05 591.36 135.25 M 591.36 135.25 588.04 131.55 M 580.54 126.07 585.32 131.41 M 596.02 142.93 591.24 137.59 M 591.24 137.59 585.32 131.41 M 580.41 128.41 582.99 131.29 M 593.3 142.79 591.09 140.32 M 591.09 140.32 582.99 131.29 M 580.27 131.14 580.66 131.17 M 590.97 142.66 580.66 131.17 M 580.15 133.49 588.64 142.54 M 580.03 135.83 585.92 142.4 M 579.88 138.56 583.59 142.28 M 579.76 140.9 580.87 142.13 M 547.03 118.44 547.77 119.26 M 544.7 118.32 547.65 121.6 M 541.98 118.17 547.52 123.94 M 539.65 118.05 547.38 126.67 M 537.32 117.93 547.26 129.02 M 534.6 117.79 547.14 131.36 M 532.26 117.66 546.99 134.09 M 529.93 117.54 546.87 136.43 M 527.21 117.4 546.73 139.16 M 525.62 118.1 535.19 128.77 M 545.89 140.29 536.3 130 M 536.3 130 535.19 128.77 M 525.47 120.83 532.86 128.65 M 543.17 140.15 536.17 132.35 M 536.17 132.35 532.86 128.65 M 525.35 123.17 530.53 128.53 M 540.84 140.03 536.05 134.69 M 536.05 134.69 530.53 128.53 M 525.23 125.51 527.81 128.38 M 538.51 139.9 535.91 137.42 M 535.91 137.42 527.81 128.38 M 525.09 128.24 525.48 128.26 M 535.79 139.76 525.48 128.26 M 524.96 130.58 533.46 139.64 M 524.84 132.92 530.73 139.49 M 524.7 135.65 528.4 139.37 M 524.58 138 526.07 139.25 M 437.05 112.65 437.79 113.47 M 434.33 112.51 437.67 115.81 M 432 112.39 437.54 118.16 M 429.67 112.26 437.4 120.89 M 426.95 112.12 437.28 123.23 M 424.62 112 437.16 125.57 M 422.28 111.87 437.01 128.3 M 419.56 111.73 436.89 130.64 M 417.23 111.61 436.75 133.37 M 415.64 112.31 425.21 122.98 M 435.52 134.48 425.93 124.2 M 425.93 124.2 425.21 122.98 M 415.49 115.04 422.49 122.84 M 433.19 134.36 425.8 126.54 M 425.8 126.54 422.49 122.84 M 415.37 117.38 420.16 122.72 M 430.47 134.22 425.68 128.88 M 425.68 128.88 420.16 122.72 M 415.25 119.72 417.83 122.6 M 428.14 134.09 425.54 131.61 M 425.54 131.61 417.83 122.6 M 415.11 122.45 415.5 122.47 M 425.81 133.97 425.42 133.95 M 425.42 133.95 415.11 122.45 M 414.98 124.79 423.09 133.83 M 414.86 127.14 420.75 133.71 M 414.72 129.87 418.42 133.58 M 414.6 132.21 415.7 133.44 M 381.87 109.75 382.6 110.57 M 379.54 109.63 382.48 112.91 M 376.81 109.48 382.36 115.25 M 374.48 109.36 382.22 117.98 M 372.15 109.24 382.09 120.32 M 369.43 109.09 381.97 122.67 M 367.1 108.97 381.83 125.4 M 364.38 108.83 381.71 127.74 M 362.05 108.71 381.56 130.47 M 360.45 109.4 370.03 120.08 M 380.34 131.58 371.13 121.31 M 371.13 121.31 370.03 120.08 M 360.31 112.14 367.69 119.96 M 378.01 131.46 371.01 123.65 M 371.01 123.65 367.69 119.96 M 360.19 114.48 364.97 119.82 M 375.67 131.33 370.89 126 M 370.89 126 364.97 119.82 M 360.06 116.82 362.64 119.69 M 372.95 131.19 370.74 128.73 M 370.74 128.73 362.64 119.69 M 359.92 119.55 360.31 119.57 M 370.62 131.07 360.31 119.57 M 359.8 121.89 368.29 130.95 M 359.68 124.23 365.57 130.8 M 359.54 126.96 363.24 130.68 M 359.41 129.3 360.91 130.56 M 296.47 282.51 297.04 271.58 M 297.04 271.58 318.8 272.73 M 318.8 272.73 317.64 294.97 M 317.64 294.97 295.88 293.82 M 295.88 293.82 296.47 282.51 M 318.03 272.69 318.76 273.51 M 315.31 272.54 318.62 276.24 M 312.97 272.42 318.5 278.58 M 310.64 272.3 318.36 281.31 M 307.92 272.15 318.23 283.65 M 305.59 272.03 315.9 283.53 M 315.9 283.53 318.11 285.99 M 302.87 271.89 313.57 283.41 M 313.57 283.41 317.97 288.72 M 300.54 271.76 310.85 283.26 M 310.85 283.26 317.85 291.07 M 298.21 271.64 308.52 283.14 M 308.52 283.14 317.72 293.41 M 296.98 272.75 307.29 284.25 M 307.29 284.25 316.48 294.91 M 296.86 275.09 307.15 286.98 M 307.15 286.98 314.15 294.78 M 296.71 277.82 307.03 289.32 M 307.03 289.32 311.42 294.64 M 296.59 280.17 306.9 291.66 M 306.9 291.66 309.09 294.52 M 296.45 282.9 306.76 294.4 M 296.33 285.24 304.04 294.25 M 296.21 287.58 301.71 294.13 M 296.06 290.31 299.38 294.01 M 295.94 292.65 296.66 293.86 M 176.85 506.29 177.7 489.9 M 177.7 489.9 194.41 490.78 M 194.41 490.78 193.56 507.17 M 193.56 507.17 176.85 506.29 M 173.95 561.7 174.81 545.31 M 174.81 545.31 191.52 546.19 M 191.52 546.19 190.67 562.58 M 190.67 562.58 173.95 561.7 M 171.06 617.11 171.94 600.33 M 171.94 600.33 188.65 601.21 M 188.65 601.21 187.77 617.99 M 187.77 617.99 171.06 617.11 M 168.17 672.52 169.05 655.74 M 169.05 655.74 185.76 656.62 M 185.76 656.62 184.88 673.4 M 184.88 673.4 168.17 672.52 M 165.3 727.54 166.15 711.15 M 166.15 711.15 182.86 712.03 M 182.86 712.03 182.01 728.42 M 182.01 728.42 165.3 727.54 M 162.41 782.95 163.26 766.56 M 163.26 766.56 179.97 767.44 M 179.97 767.44 179.12 783.83 M 179.12 783.83 162.41 782.95 M 159.51 838.36 160.39 821.58 M 160.39 821.58 177.1 822.46 M 177.1 822.46 176.23 839.24 M 176.23 839.24 159.51 838.36 M 156.62 893.77 157.5 876.99 M 157.5 876.99 174.21 877.87 M 174.21 877.87 173.33 894.65 M 173.33 894.65 156.62 893.77 M 153.75 948.79 154.61 932.4 M 154.61 932.4 171.32 933.28 M 171.32 933.28 170.46 949.67 M 170.46 949.67 153.75 948.79 M 150.86 1004.2 151.73 987.42 M 151.73 987.42 168.45 988.3 M 168.45 988.3 167.57 1005.08 M 167.57 1005.08 150.86 1004.2 M 147.97 1059.61 148.84 1042.83 M 148.84 1042.83 165.55 1043.71 M 165.55 1043.71 164.68 1060.49 M 164.68 1060.49 147.97 1059.61 M 196.29 454.88 162.8 1096.39 M 179.58 454 146.09 1095.51 M 251.8 1123.38 164.36 1118.78 M 252.11 1117.52 164.67 1112.92 M 252.54 1109.33 244.38 1108.9 M 244.38 1108.9 243.95 1117.09 M 165.1 1104.73 173.26 1105.16 M 173.26 1105.16 172.83 1113.35 M 288.1 442.88 199.88 438.24 M 288.39 437.42 200.17 432.78 M 287.67 451.08 279.12 450.63 M 279.55 442.43 279.1 451.02 M 199.43 446.83 207.98 447.28 M 207.98 447.28 208.43 438.69 M 694.56 375.45 706.39 148.74 M 706.39 148.74 698.23 148.31 M 698.23 148.31 697.78 156.89 M 697.78 156.89 705.94 157.32 M 694.99 367.26 686.83 366.83 M 686.83 366.83 686.4 375.02 M 141.84 1124.63 446.52 1140.67 M 479.23 513.98 692.2 525.19 M 799 31.92 735.5 1248.61 M 463.94 612.96 466.88 616.24 M 457.47 609.88 469.26 623.02 M 453.57 610.06 468.66 626.9 M 450.42 610.68 467.72 629.98 M 447.61 612.1 466.03 632.63 M 445.18 613.93 463.98 634.48 M 443.5 616.18 461.16 636.29 M 442.17 619.25 458.38 637.31 M 441.21 622.72 454.86 637.52 M 442.12 627.85 449.85 636.47 M 454.47 637.5 457.6 637.27 M 457.6 637.27 460.77 636.27 M 460.77 636.27 463.59 634.46 M 463.59 634.46 466.05 632.24 M 466.05 632.24 467.76 629.2 M 467.76 629.2 468.7 626.12 M 468.7 626.12 468.87 623 M 468.87 623 468.25 619.83 M 468.25 619.83 466.86 616.63 M 466.86 616.63 464.65 614.17 M 464.65 614.17 462.03 612.07 M 462.03 612.07 458.99 610.74 M 458.99 610.74 455.9 610.19 M 455.9 610.19 452.77 610.41 M 452.77 610.41 449.6 611.42 M 449.6 611.42 446.78 613.23 M 446.78 613.23 444.32 615.45 M 444.32 615.45 442.6 618.49 M 442.6 618.49 441.66 621.57 M 441.66 621.57 441.5 624.69 M 441.5 624.69 442.12 627.85 M 442.12 627.85 443.51 631.05 M 443.51 631.05 445.72 633.52 M 445.72 633.52 448.33 635.61 M 448.33 635.61 451.38 636.95 M 451.38 636.95 454.47 637.5 M 211.4 1 192.71 359.22"/>
</g>
</svg>