<?xml version="1.0"?>
<svg xmlns="http://www.w3.org/2000/svg" version="1.2" baseProfile="tiny" width="800" height="428" viewBox="0 0 800 428" stroke-linecap="round" stroke-linejoin="round">
<g id="5" fill="none" stroke="black" stroke-width="1">
<path d="M 183.29 115.9 170 117.06 M 170 117.06 168.82 103.68 M 168.82 103.68 182.11 102.52 M 182.11 102.52 183.29 115.9 M 169.06 106.35 171.37 103.45 M 169.32 109.31 174.34 103.2 M 169.58 112.27 175.64 105.07 M 175.64 105.07 177.31 102.94 M 169.84 115.23 175.9 108.03 M 175.9 108.03 180.28 102.68 M 170.99 116.97 176.16 110.99 M 182.21 103.65 177.19 109.76 M 177.19 109.76 176.16 110.99 M 173.96 116.71 176.41 113.8 M 182.47 106.6 180.02 109.51 M 180.02 109.51 176.41 113.8 M 176.93 116.45 182.73 109.56 M 179.9 116.2 182.99 112.52 M 182.86 115.94 183.25 115.48 M 433.79 94.06 433.78 93.92 M 578.4 78.05 573.45 78.48 M 573.45 78.48 572.57 68.48 M 572.57 68.48 577.52 68.05 M 577.52 68.05 578.4 78.05 M 183.29 115.9 170 117.06 M 170 117.06 168.82 103.68 M 168.82 103.68 182.11 102.52 M 182.11 102.52 183.29 115.9 M 169.06 106.35 171.37 103.45 M 169.32 109.31 174.34 103.2 M 169.58 112.27 175.64 105.07 M 175.64 105.07 177.31 102.94 M 169.84 115.23 175.9 108.03 M 175.9 108.03 180.28 102.68 M 170.99 116.97 176.16 110.99 M 182.21 103.65 177.19 109.76 M 177.19 109.76 176.16 110.99 M 173.96 116.71 176.41 113.8 M 182.47 106.6 180.02 109.51 M 180.02 109.51 176.41 113.8 M 176.93 116.45 182.73 109.56 M 179.9 116.2 182.99 112.52 M 182.86 115.94 183.25 115.48 M 193.12 227.88 179.83 229.04 M 179.83 229.04 177.89 206.93 M 177.89 206.93 191.18 205.77 M 191.18 205.77 193.12 227.88 M 193.12 227.88 179.83 229.04 M 179.83 229.04 178.67 215.8 M 178.67 215.8 191.96 214.64 M 191.96 214.64 193.12 227.88 M 178.89 218.34 181.2 215.44 M 179.14 221.15 184.17 215.18 M 179.4 224.11 185.46 216.91 M 185.46 216.91 187.14 214.92 M 179.66 227.07 185.72 219.87 M 185.72 219.87 190.11 214.66 M 180.81 228.81 185.98 222.83 M 192.04 215.63 187.01 221.6 M 187.01 221.6 185.98 222.83 M 183.78 228.55 186.24 225.78 M 192.29 218.44 189.84 221.35 M 189.84 221.35 186.24 225.78 M 186.75 228.3 192.55 221.4 M 189.72 228.04 192.81 224.36 M 192.68 227.78 193.07 227.32 M 170.2 119.31 172.26 116.86 M 170.54 123.26 176.22 116.52 M 171.91 125.83 180.04 116.18 M 175.87 125.49 183.35 116.6 M 179.83 125.14 183.7 120.55 M 183.78 124.8 184.04 124.49 M 171.91 125.83 170.68 124.81 M 175.87 125.49 170.33 120.86 M 179.83 125.14 170.14 117.05 M 183.78 124.8 174.1 116.7 M 183.76 121.25 177.92 116.37 M 183.41 117.31 181.87 116.02 M 170.78 125.93 170 117.06 M 684.16 72.24 684.15 72.1 M 433.79 94.06 420.36 95.23 M 420.36 95.23 419.19 81.85 M 419.19 81.85 432.62 80.68 M 432.62 80.68 433.79 94.06 M 419.42 84.53 421.88 81.62 M 419.68 87.49 424.84 81.36 M 419.94 90.44 426.01 83.24 M 426.01 83.24 427.67 81.11 M 420.2 93.4 426.27 86.2 M 426.27 86.2 430.64 80.85 M 421.49 95.13 426.53 89.16 M 432.72 81.81 427.56 87.94 M 427.56 87.94 426.53 89.16 M 424.46 94.88 426.77 91.98 M 432.98 84.77 430.53 87.68 M 430.53 87.68 426.77 91.98 M 427.29 94.63 433.24 87.72 M 430.26 94.37 433.5 90.68 M 433.23 94.11 433.76 93.64 M 433.79 94.06 420.36 95.23 M 420.36 95.23 419.19 81.85 M 419.19 81.85 432.62 80.68 M 432.62 80.68 433.79 94.06 M 419.42 84.53 421.88 81.62 M 419.68 87.49 424.84 81.36 M 419.94 90.44 426.01 83.24 M 426.01 83.24 427.67 81.11 M 420.2 93.4 426.27 86.2 M 426.27 86.2 430.64 80.85 M 421.49 95.13 426.53 89.16 M 432.72 81.81 427.56 87.94 M 427.56 87.94 426.53 89.16 M 424.46 94.88 426.77 91.98 M 432.98 84.77 430.53 87.68 M 430.53 87.68 426.77 91.98 M 427.29 94.63 433.24 87.72 M 430.26 94.37 433.5 90.68 M 433.23 94.11 433.76 93.64 M 684.16 72.24 670.73 73.41 M 670.73 73.41 669.55 60.03 M 669.55 60.03 682.98 58.86 M 682.98 58.86 684.16 72.24 M 669.79 62.7 672.24 59.79 M 670.05 65.66 675.21 59.53 M 670.31 68.62 676.51 61.41 M 676.51 61.41 678.18 59.28 M 670.57 71.58 676.77 64.37 M 676.77 64.37 681.15 59.02 M 671.86 73.31 677.03 67.32 M 683.08 59.98 677.92 66.11 M 677.92 66.11 677.03 67.32 M 674.83 73.05 677.28 70.14 M 683.34 62.94 680.89 65.85 M 680.89 65.85 677.28 70.14 M 677.8 72.79 683.6 65.9 M 680.77 72.53 683.86 68.86 M 683.73 72.27 684.12 71.82 M 684.16 72.24 670.73 73.41 M 670.73 73.41 669.55 60.03 M 669.55 60.03 682.98 58.86 M 682.98 58.86 684.16 72.24 M 669.79 62.7 672.24 59.79 M 670.05 65.66 675.21 59.53 M 670.31 68.62 676.51 61.41 M 676.51 61.41 678.18 59.28 M 670.57 71.58 676.77 64.37 M 676.77 64.37 681.15 59.02 M 671.86 73.31 677.03 67.32 M 683.08 59.98 677.92 66.11 M 677.92 66.11 677.03 67.32 M 674.83 73.05 677.28 70.14 M 683.34 62.94 680.89 65.85 M 680.89 65.85 677.28 70.14 M 677.8 72.79 683.6 65.9 M 680.77 72.53 683.86 68.86 M 683.73 72.27 684.12 71.82 M 170.78 125.93 163.99 126.52 M 187.76 127.86 184.36 128.15 M 184.36 128.15 182.11 102.52 M 182.11 102.52 185.51 102.22 M 185.51 102.22 187.76 127.86 M 182.11 102.52 419.19 81.85 M 577.52 68.05 168.82 103.68 M 477.18 86.87 472.09 87.32 M 472.09 87.32 471.21 77.32 M 471.21 77.32 476.3 76.87 M 476.3 76.87 477.18 86.87 M 472.09 87.32 476.3 76.87 M 179.83 229.04 189.64 340.74 M 191.42 228.03 199.77 323.11 M 426.43 88.03 440.3 246.08 M 433.34 242.99 435.27 240.7 M 433.6 245.95 439.15 239.36 M 433.86 248.91 443.02 238.03 M 434.12 251.87 446.37 237.32 M 434.38 254.83 446.63 240.27 M 437.72 253.97 446.89 243.23 M 441.59 252.64 447.15 246.19 M 445.46 251.3 447.41 249.15 M 434.41 255.25 433.2 241.44 M 433.2 241.44 446.34 236.89 M 446.34 236.89 447.54 250.56 M 447.54 250.56 434.41 255.25 M 678.25 157.49 516.14 214.2 M 158.03 128.32 159.19 126.94 M 159.06 130.36 162.16 126.68 M 162.03 130.1 165.12 126.43 M 165 129.84 168.09 126.17 M 167.97 129.58 170.92 125.92 M 170.93 129.33 173.89 125.66 M 173.9 129.07 176.86 125.4 M 176.73 128.82 179.83 125.14 M 179.7 128.56 182.8 124.88 M 182.67 128.3 184.22 126.46 M 184.36 128.15 158.21 130.43 M 158.21 130.43 157.91 127.05 M 157.91 127.05 184.07 124.77 M 184.07 124.77 184.36 128.15 M 178.17 210.17 171.39 210.76 M 171.39 210.76 171.1 207.52 M 171.1 207.52 177.89 206.93 M 177.89 206.93 178.17 210.17 M 170.82 210.81 167.57 211.09 M 167.57 211.09 160.47 130.24 M 160.47 130.24 163.72 129.95 M 163.72 129.95 170.82 210.81 M 59.93 64.06 783.32 1 M 799 179.61 783.32 1 M 91.79 426.91 59.93 64.06 M 91.79 426.91 799 179.61 M 672.95 59.73 669.55 60.03 M 669.55 60.03 668.97 53.41 M 668.97 53.41 672.37 53.11 M 672.37 53.11 672.95 59.73 M 686.38 58.56 672.95 59.73 M 672.95 59.73 672.66 56.49 M 672.66 56.49 686.09 55.32 M 686.09 55.32 686.38 58.56 M 683.86 68.86 682.98 58.86 M 682.98 58.86 686.38 58.56 M 686.38 58.56 687.25 68.56 M 687.25 68.56 683.86 68.86 M 683.86 68.86 684.06 71.11 M 683.86 68.86 688.81 68.43 M 688.81 68.43 689.11 71.81 M 689.11 71.81 685.85 72.09 M 685.85 72.09 685.76 70.96 M 685.76 70.96 684.06 71.11 M 691.69 158.02 696.64 157.59 M 696.64 157.59 696.34 154.21 M 696.34 154.21 693.09 154.49 M 693.09 154.49 693.19 155.62 M 693.19 155.62 691.49 155.77 M 692.15 155.14 691.58 155.19 M 691.58 155.19 684.25 71.66 M 684.25 71.66 684.82 71.61 M 684.82 71.61 692.15 155.14 M 578.4 78.05 573.45 78.48 M 573.45 78.48 572.57 68.48 M 572.57 68.48 577.52 68.05 M 577.52 68.05 578.4 78.05 M 522.7 82.91 521.82 72.91 M 521.82 72.91 526.91 72.46 M 526.91 72.46 527.79 82.46 M 527.79 82.46 522.7 82.91 M 522.7 82.91 521.82 72.91 M 521.82 72.91 526.91 72.46 M 526.91 72.46 527.79 82.46 M 527.79 82.46 522.7 82.91 M 571.72 65.29 571.43 61.91 M 571.43 61.91 578.07 61.33 M 578.07 61.33 578.13 62.03 M 578.13 62.03 577 62.13 M 577 62.13 577.24 64.81 M 577.24 64.81 571.72 65.29 M 571.38 61.35 571.03 57.4 M 571.03 57.4 577.68 56.82 M 577.68 56.82 577.82 58.51 M 577.82 58.51 576.69 58.61 M 576.69 58.61 576.74 59.18 M 576.74 59.18 577.87 59.08 M 577.87 59.08 578.02 60.77 M 578.02 60.77 571.38 61.35 M 675.71 52.25 675.36 48.31 M 675.36 48.31 668.58 48.9 M 668.58 48.9 668.72 50.59 M 668.72 50.59 669.86 50.49 M 669.86 50.49 669.91 51.05 M 669.91 51.05 668.77 51.15 M 668.77 51.15 668.92 52.84 M 668.92 52.84 675.71 52.25 M 669.91 51.05 576.74 59.18 M 576.74 59.18 576.69 58.61 M 576.69 58.61 669.86 50.49 M 669.86 50.49 669.91 51.05 M 178.5 291.75 172.42 292.28 M 172.42 292.28 158.21 130.43 M 158.21 130.43 164.29 129.9 M 164.29 129.9 178.5 291.75 M 25.4 271.03 13.67 272.05 M 13.67 272.05 1 127.82 M 1 127.82 12.73 126.79 M 12.73 126.79 25.4 271.03 M 38.12 269.92 26.39 270.95 M 26.39 270.95 13.72 126.71 M 13.72 126.71 25.46 125.68 M 25.46 125.68 38.12 269.92 M 64.84 267.59 52.18 123.36 M 52.18 123.36 63.91 122.33 M 63.91 122.33 76.57 266.57 M 76.57 266.57 64.84 267.59 M 64.84 267.59 52.18 123.36 M 52.18 123.36 63.91 122.33 M 63.91 122.33 76.57 266.57 M 76.57 266.57 64.84 267.59 M 89.3 265.46 77.71 266.47 M 77.71 266.47 65.04 122.23 M 65.04 122.23 76.63 121.22 M 76.63 121.22 89.3 265.46 M 102.16 264.34 90.43 265.36 M 90.43 265.36 77.76 121.12 M 77.76 121.12 89.5 120.1 M 89.5 120.1 102.16 264.34 M 103.29 264.24 90.63 120 M 90.63 120 102.22 118.99 M 102.22 118.99 114.89 263.23 M 114.89 263.23 103.29 264.24 M 103.29 264.24 90.63 120 M 90.63 120 102.22 118.99 M 102.22 118.99 114.89 263.23 M 114.89 263.23 103.29 264.24 M 127.75 262.11 116.02 263.13 M 116.02 263.13 103.35 118.89 M 103.35 118.89 115.08 117.87 M 115.08 117.87 127.75 262.11 M 140.47 261 128.88 262.01 M 128.88 262.01 116.22 117.77 M 116.22 117.77 127.81 116.76 M 127.81 116.76 140.47 261 M 153.34 259.88 141.6 260.9 M 141.6 260.9 128.94 116.66 M 128.94 116.66 140.67 115.64 M 140.67 115.64 153.34 259.88 M 127.75 262.11 116.02 263.13 M 116.02 263.13 103.35 118.89 M 103.35 118.89 115.08 117.87 M 115.08 117.87 127.75 262.11 M 140.47 261 128.88 262.01 M 128.88 262.01 116.22 117.77 M 116.22 117.77 127.81 116.76 M 127.81 116.76 140.47 261 M 153.34 259.88 141.6 260.9 M 141.6 260.9 128.94 116.66 M 128.94 116.66 140.67 115.64 M 140.67 115.64 153.34 259.88 M 166.06 258.77 154.47 259.78 M 154.47 259.78 141.8 115.54 M 141.8 115.54 153.4 114.53 M 153.4 114.53 166.06 258.77 M 245.48 321.25 242.08 311.76 M 242.08 311.76 246.93 310.2 M 246.93 310.2 250.17 319.57 M 250.17 319.57 245.48 321.25 M 242.08 311.76 250.17 319.57 M 293.43 304.44 290.05 295.08 M 290.05 295.08 294.88 293.39 M 294.88 293.39 298.14 302.9 M 298.14 302.9 293.43 304.44 M 290.05 295.08 298.14 302.9 M 293.43 304.44 290.05 295.08 M 290.05 295.08 294.88 293.39 M 294.88 293.39 298.14 302.9 M 298.14 302.9 293.43 304.44 M 290.05 295.08 298.14 302.9 M 343.83 279.75 343.82 279.61 M 634.95 185.11 631.55 175.61 M 631.55 175.61 636.39 173.91 M 636.39 173.91 639.65 183.42 M 639.65 183.42 634.95 185.11 M 631.55 175.61 639.65 183.42 M 586.99 201.78 583.6 192.42 M 583.6 192.42 588.44 190.72 M 588.44 190.72 591.69 200.23 M 591.69 200.23 586.99 201.78 M 583.6 192.42 591.69 200.23 M 538.87 218.32 535.63 209.1 M 535.63 209.1 540.48 207.54 M 540.48 207.54 543.73 216.91 M 543.73 216.91 539.03 218.59 M 539.03 218.59 538.87 218.32 M 538.87 218.32 535.63 209.1 M 535.63 209.1 540.48 207.54 M 540.48 207.54 543.73 216.91 M 543.73 216.91 539.03 218.59 M 539.03 218.59 538.87 218.32 M 179.83 229.04 188.44 327.08 M 189.87 228.17 198.26 323.67 M 186.27 104.43 188.33 101.98 M 190.23 104.08 192.29 101.63 M 194.19 103.74 196.25 101.29 M 198.14 103.39 200.21 100.94 M 202.1 103.05 204.03 100.61 M 205.92 102.71 207.98 100.26 M 209.88 102.37 211.94 99.92 M 213.84 102.02 215.9 99.57 M 217.79 101.68 219.86 99.23 M 221.75 101.33 223.82 98.88 M 225.71 100.99 227.63 98.55 M 229.53 100.66 231.59 98.21 M 233.49 100.31 235.55 97.86 M 237.45 99.97 239.51 97.52 M 241.4 99.62 243.47 97.17 M 245.36 99.28 247.43 96.82 M 249.32 98.93 251.24 96.49 M 253.28 98.59 255.2 96.15 M 257.1 98.25 259.16 95.8 M 262.34 96.38 263.12 95.46 M 265.01 97.56 267.08 95.11 M 268.97 97.22 271.03 94.77 M 272.93 96.87 274.85 94.43 M 276.89 96.53 278.81 94.09 M 280.7 96.19 282.77 93.74 M 284.66 95.85 286.73 93.4 M 288.62 95.5 290.68 93.05 M 292.58 95.16 294.64 92.71 M 296.54 94.81 298.46 92.38 M 300.5 94.47 302.42 92.03 M 304.31 94.14 306.38 91.69 M 308.27 93.79 310.33 91.34 M 312.23 93.45 314.29 91 M 316.19 93.1 318.25 90.65 M 320.15 92.76 322.07 90.32 M 324.1 92.41 326.03 89.97 M 327.92 92.08 329.99 89.63 M 331.88 91.73 333.94 89.28 M 335.84 91.39 337.9 88.94 M 339.8 91.04 340.31 90.43 M 343.75 90.7 345.68 88.26 M 347.71 90.35 349.64 87.92 M 351.53 90.02 353.59 87.57 M 355.49 89.68 357.55 87.22 M 359.45 89.33 361.51 86.88 M 363.4 88.99 365.47 86.53 M 367.36 88.64 369.29 86.2 M 371.32 88.3 373.24 85.86 M 375.14 87.96 377.2 85.51 M 379.1 87.62 381.16 85.17 M 383.06 87.27 385.12 84.82 M 387.01 86.93 389.08 84.48 M 390.97 86.58 392.89 84.14 M 394.93 86.24 396.85 83.8 M 398.75 85.9 400.81 83.45 M 402.71 85.56 404.77 83.11 M 406.66 85.21 408.73 82.76 M 410.62 84.87 412.69 82.42 M 414.58 84.52 416.39 82.38 M 432.95 84.48 436.29 80.36 M 433.29 88.29 440.11 80.03 M 434.91 90.56 444.07 79.68 M 438.87 90.21 448.03 79.34 M 442.83 89.87 451.99 78.99 M 446.79 89.52 455.94 78.65 M 450.74 89.18 459.9 78.3 M 454.7 88.83 463.72 77.97 M 458.52 88.5 467.68 77.62 M 462.48 88.16 471.26 77.88 M 466.44 87.81 471.6 81.68 M 470.39 87.47 471.94 85.63 M 476.6 80.25 479.55 76.59 M 476.95 84.2 483.51 76.24 M 478.31 86.78 487.33 75.91 M 482.13 86.44 491.29 75.57 M 486.09 86.1 495.25 75.22 M 490.04 85.75 499.2 74.88 M 494 85.41 503.16 74.53 M 497.96 85.06 507.12 74.19 M 501.92 84.72 510.94 73.85 M 505.74 84.38 514.9 73.51 M 509.7 84.04 518.85 73.16 M 513.65 83.69 521.91 73.89 M 517.61 83.35 522.26 77.83 M 521.57 83 522.6 81.78 M 527.25 76.26 530.73 72.13 M 527.59 80.21 534.55 71.8 M 529.35 82.33 538.5 71.45 M 533.3 81.98 542.46 71.11 M 537.26 81.64 546.42 70.76 M 541.22 81.29 550.38 70.42 M 545.18 80.95 554.34 70.07 M 549.14 80.6 558.3 69.73 M 552.95 80.27 562.11 69.39 M 556.91 79.92 566.07 69.05 M 560.87 79.58 570.03 68.7 M 564.83 79.23 572.71 70.03 M 568.79 78.89 573.06 73.97 M 572.75 78.54 573.39 77.78 M 189.52 104.14 187.06 102.09 M 193.48 103.8 191.02 101.74 M 197.3 103.47 194.98 101.4 M 201.25 103.12 198.79 101.06 M 205.21 102.78 202.75 100.72 M 209.17 102.43 206.71 100.37 M 213.13 102.09 210.67 100.03 M 217.09 101.74 214.63 99.68 M 220.9 101.41 218.59 99.34 M 224.86 101.06 222.4 99.01 M 228.82 100.72 226.36 98.66 M 232.78 100.37 230.32 98.32 M 236.74 100.03 234.28 97.97 M 240.7 99.68 238.24 97.63 M 244.51 99.35 242.2 97.28 M 248.47 99 246.01 96.95 M 252.43 98.66 249.97 96.6 M 256.39 98.31 253.93 96.26 M 259.59 97.47 257.89 95.91 M 264.31 97.62 262.32 96.09 M 268.12 97.29 265.8 95.22 M 272.08 96.95 269.62 94.89 M 276.04 96.6 273.58 94.55 M 280 96.26 277.54 94.2 M 283.96 95.91 281.5 93.85 M 287.91 95.57 285.45 93.51 M 291.73 95.23 289.41 93.16 M 295.69 94.89 293.23 92.83 M 299.65 94.54 297.19 92.49 M 303.61 94.2 301.15 92.14 M 307.56 93.85 305.1 91.8 M 311.52 93.51 309.06 91.45 M 315.34 93.18 313.02 91.11 M 319.3 92.83 316.84 90.77 M 323.26 92.49 320.8 90.43 M 327.21 92.14 324.75 90.08 M 331.17 91.8 328.71 89.74 M 335.13 91.45 332.67 89.39 M 338.95 91.12 336.63 89.05 M 346.86 90.43 344.4 88.37 M 350.82 90.08 348.36 88.03 M 354.78 89.74 352.32 87.68 M 358.74 89.39 356.28 87.34 M 362.56 89.06 360.24 86.99 M 366.51 88.71 364.2 86.65 M 370.47 88.37 368.01 86.31 M 374.43 88.02 371.97 85.97 M 378.39 87.68 375.93 85.62 M 382.35 87.33 379.89 85.28 M 386.17 87 383.85 84.93 M 390.12 86.66 387.81 84.59 M 394.08 86.31 391.62 84.25 M 398.04 85.97 395.58 83.91 M 402 85.62 399.54 83.56 M 405.96 85.28 403.5 83.22 M 409.77 84.94 407.46 82.87 M 413.73 84.6 411.41 82.53 M 416.46 83.23 415.23 82.2 M 434.06 90.63 433.45 90.12 M 438.02 90.29 433.1 86.17 M 441.98 89.94 432.76 82.23 M 445.8 89.61 435.02 80.47 M 449.75 89.26 438.84 80.14 M 453.71 88.92 442.8 79.79 M 457.67 88.57 446.76 79.45 M 461.63 88.23 450.71 79.1 M 465.59 87.88 454.67 78.76 M 469.4 87.55 458.63 78.41 M 471.98 86.05 462.45 78.08 M 477.32 86.86 477.17 86.73 M 471.63 82.11 466.41 77.74 M 481.28 86.52 476.82 82.79 M 471.3 78.3 470.36 77.39 M 485.24 86.17 476.48 78.85 M 489.2 85.83 478.28 76.7 M 493.01 85.49 482.24 76.36 M 496.97 85.15 486.06 76.02 M 500.93 84.8 490.01 75.68 M 504.89 84.46 493.97 75.33 M 508.85 84.11 497.93 74.99 M 512.81 83.77 501.89 74.64 M 516.62 83.44 505.85 74.3 M 520.58 83.09 509.67 73.96 M 522.55 81.22 513.62 73.62 M 528.5 82.4 527.73 81.76 M 522.21 77.27 517.58 73.27 M 532.46 82.06 527.38 77.81 M 521.86 73.33 521.54 72.93 M 536.41 81.71 527.04 73.87 M 540.23 81.38 529.46 72.24 M 544.19 81.03 533.27 71.91 M 548.15 80.69 537.23 71.56 M 552.11 80.34 541.19 71.22 M 556.06 80 545.15 70.87 M 560.02 79.65 549.11 70.53 M 563.84 79.32 553.07 70.18 M 567.8 78.97 556.88 69.85 M 571.76 78.63 560.84 69.5 M 573.25 76.23 564.8 69.16 M 572.91 72.28 568.76 68.81 M 472.09 87.32 433.5 90.68 M 433.5 90.68 432.62 80.68 M 432.62 80.68 471.21 77.32 M 471.21 77.32 472.09 87.32 M 522.7 82.91 477.18 86.87 M 477.18 86.87 476.3 76.87 M 476.3 76.87 521.82 72.91 M 521.82 72.91 522.7 82.91 M 573.45 78.48 527.79 82.46 M 527.79 82.46 526.91 72.46 M 526.91 72.46 572.57 68.48 M 572.57 68.48 573.45 78.48 M 201.73 325.92 340.21 277.51 M 201.94 328.31 204.91 324.79 M 202.29 332.26 210.17 323.05 M 202.63 336.2 215.27 321.19 M 207.75 334.48 220.52 319.31 M 213 332.6 225.64 317.59 M 218.12 330.88 230.75 315.72 M 223.23 329.01 236.01 313.99 M 228.47 327.14 241.12 312.12 M 233.59 325.41 243.01 314.23 M 238.84 323.54 244 317.41 M 247.87 312.81 251.48 308.52 M 243.96 321.81 245.12 320.43 M 248.86 315.99 256.6 306.8 M 249.98 319.02 261.85 304.92 M 254.33 318.21 266.96 303.06 M 259.44 316.35 272.08 301.33 M 264.7 314.61 277.33 299.46 M 269.8 312.75 282.45 297.73 M 274.91 310.88 287.69 295.86 M 280.17 309.15 290.61 296.6 M 285.28 307.28 291.74 299.76 M 295.47 295.18 297.92 292.27 M 290.54 305.55 292.86 302.79 M 296.6 298.35 303.17 290.39 M 297.58 301.38 308.29 288.67 M 300.77 301.96 313.54 286.79 M 306.01 300.08 318.66 285.07 M 311.13 298.36 323.76 283.2 M 316.38 296.48 329.02 281.47 M 321.49 294.61 334.13 279.6 M 326.61 292.89 338.35 278.95 M 331.86 291.01 339.34 282.13 M 336.98 289.29 340.46 285.15 M 540.51 207.82 540.89 207.36 M 541.63 210.84 546 205.49 M 542.61 213.88 551.12 203.77 M 543.73 216.91 556.37 201.89 M 548.85 215.18 561.49 200.17 M 553.95 213.32 566.74 198.29 M 559.21 211.58 571.86 196.57 M 564.32 209.72 576.96 194.71 M 569.58 207.98 582.21 192.83 M 574.69 206.12 584.36 194.63 M 579.81 204.39 585.48 197.65 M 589.22 193.21 592.58 189.23 M 585.06 202.52 586.6 200.68 M 590.34 196.24 597.7 187.5 M 591.32 199.27 602.8 185.64 M 595.42 198.92 608.07 183.9 M 600.53 197.05 613.17 182.04 M 605.65 195.33 618.43 180.3 M 610.9 193.45 623.54 178.44 M 616.02 191.73 628.65 176.57 M 621.12 189.86 632.1 176.98 M 626.39 188.13 633.08 180.02 M 631.49 186.26 634.2 183.04 M 205.26 335.26 202.35 332.96 M 208.3 334.29 202 329.02 M 211.34 333.17 202.42 325.72 M 214.38 332.06 205.46 324.6 M 217.42 331.08 208.51 323.63 M 220.46 329.96 211.54 322.51 M 223.64 328.84 214.58 321.39 M 226.69 327.86 217.77 320.4 M 229.72 326.74 220.81 319.29 M 232.76 325.63 223.84 318.17 M 235.81 324.65 226.89 317.2 M 238.84 323.54 229.93 316.08 M 242.02 322.41 232.96 314.96 M 245.07 321.43 236.15 313.98 M 243.81 316.86 239.19 312.86 M 251.14 319.2 249.6 317.91 M 254.19 318.22 247.73 312.83 M 257.37 317.1 248.31 309.65 M 260.4 315.98 251.34 308.54 M 263.45 315 254.53 307.55 M 266.49 313.89 257.57 306.43 M 269.52 312.77 260.6 305.32 M 272.57 311.8 263.65 304.34 M 275.75 310.67 266.69 303.22 M 278.78 309.55 269.72 302.11 M 281.83 308.58 272.91 301.12 M 284.87 307.46 275.95 300 M 287.9 306.34 278.99 298.89 M 290.95 305.37 282.03 297.91 M 293.05 303.34 285.07 296.8 M 291.18 298.25 288.11 295.68 M 300.21 302.15 296.98 299.45 M 303.25 301.03 295.1 294.22 M 306.28 299.91 297.37 292.46 M 309.33 298.94 300.42 291.48 M 312.51 297.81 303.45 290.37 M 315.55 296.69 306.49 289.25 M 318.59 295.72 309.68 288.26 M 321.63 294.6 312.71 287.15 M 324.67 293.49 315.75 286.03 M 327.71 292.51 318.8 285.06 M 330.89 291.38 321.83 283.94 M 333.93 290.27 324.87 282.82 M 336.98 289.29 328.06 281.84 M 340.01 288.17 331.09 280.72 M 340.43 284.87 334.13 279.6 M 338.55 279.64 337.18 278.63 M 545.24 216.35 542.78 214.29 M 548.43 215.36 541.05 209.19 M 551.47 214.24 542.41 206.8 M 554.51 213.13 545.59 205.67 M 557.55 212.15 548.64 204.7 M 560.59 211.04 551.67 203.58 M 563.63 209.92 554.71 202.46 M 566.82 208.93 557.76 201.49 M 569.85 207.82 560.79 200.37 M 572.89 206.7 563.97 199.24 M 575.94 205.72 567.02 198.27 M 578.97 204.61 570.05 197.15 M 582.01 203.49 573.09 196.04 M 585.2 202.5 576.14 195.06 M 586.23 199.72 579.32 193.93 M 584.36 194.63 582.35 192.82 M 594.32 199.3 590.17 195.83 M 597.35 198.18 588.44 190.72 M 600.39 197.06 591.47 189.61 M 603.58 196.08 594.52 188.63 M 606.61 194.96 597.7 187.5 M 609.65 193.84 600.73 186.39 M 612.7 192.87 603.78 185.41 M 615.73 191.75 606.82 184.3 M 618.78 190.78 609.85 183.18 M 621.96 189.65 612.9 182.2 M 625 188.53 616.08 181.08 M 628.04 187.56 619.12 179.96 M 631.08 186.44 622.16 178.98 M 634.12 185.32 625.2 177.87 M 633.62 181.25 628.24 176.75 M 631.73 176.02 631.28 175.78 M 202.63 336.2 245.48 321.25 M 245.48 321.25 242.08 311.76 M 678.27 159.33 517.12 215.68 M 679.18 169.61 639.65 183.42 M 639.65 183.42 636.39 173.91 M 631.55 175.61 634.95 185.11 M 634.95 185.11 591.69 200.23 M 591.69 200.23 588.44 190.72 M 588.44 190.72 631.55 175.61 M 583.6 192.42 586.99 201.78 M 586.99 201.78 543.73 216.91 M 543.73 216.91 540.48 207.54 M 540.48 207.54 583.6 192.42 M 338 278.27 341.4 287.77 M 341.4 287.77 298.14 302.9 M 298.14 302.9 294.88 293.39 M 294.88 293.39 338 278.27 M 290.05 295.08 293.43 304.44 M 293.43 304.44 250.17 319.57 M 250.17 319.57 246.93 310.2 M 246.93 310.2 290.05 295.08 M 636.39 173.91 673.44 161.03 M 211.54 322.51 242.08 311.76 M 165.15 100.73 571.72 65.29 M 163.3 99.19 571.58 63.6 M 168.54 100.44 165.15 100.73 M 165.15 100.73 167.39 126.23 M 163.3 99.19 165.69 126.38 M 186.63 345.4 174.78 210.46 M 185.12 347.66 173.09 210.61 M 579.53 77.95 578.4 78.05 M 578.4 78.05 577 62.13 M 577 62.13 578.13 62.03 M 578.13 62.03 579.53 77.95 M 691.69 158.02 695.08 157.72 M 695.08 157.72 695.92 167.3 M 696.64 157.59 697.59 168.44 M 686.8 170.51 695.51 167.48 M 695.92 167.3 523.71 227.45 M 687.36 172.02 690.68 170.88 M 697.59 168.44 524.7 228.93 M 576.74 188.91 592.57 187.53 M 193.86 255.78 194 255.77 M 184.07 124.77 170.78 125.93 M 170.78 125.93 170 117.06 M 170 117.06 183.29 115.9 M 183.29 115.9 184.07 124.77 M 193.16 265.63 183.12 266.51 M 183.12 266.51 182.69 261.58 M 182.69 261.58 192.73 260.7 M 192.73 260.7 193.16 265.63 M 193.16 265.63 182.69 261.58 M 535.63 209.1 541.7 214.95 M 670.73 73.41 677.96 155.81 M 462.83 61.3 463.7 71.3 M 679.01 52.53 678.13 42.53 M 678.13 42.53 462.83 61.3 M 188.49 327.64 189.12 326.73 M 188.75 330.6 192.99 325.4 M 189.01 333.56 196.87 324.07 M 189.26 336.37 200.74 322.74 M 189.52 339.33 201.64 324.93 M 191.58 340.15 201.9 327.89 M 195.44 338.67 202.16 330.85 M 199.31 337.34 202.42 333.81 M 189.64 340.74 188.44 327.08 M 188.44 327.08 201.43 322.54 M 201.43 322.54 202.63 336.2 M 202.63 336.2 189.64 340.74 M 678.01 156.37 678.8 155.6 M 678.27 159.33 682.67 154.26 M 678.53 162.29 686.54 152.93 M 678.79 165.25 690.4 151.46 M 679.05 168.21 691.31 153.65 M 681.25 168.87 691.57 156.61 M 685.12 167.54 691.83 159.57 M 688.99 166.2 692.09 162.53 M 679.18 169.61 677.96 155.81 M 677.96 155.81 691.1 151.26 M 691.1 151.26 692.31 165.06 M 692.31 165.06 679.18 169.61 M 678.27 159.33 679.18 169.61 M 242.08 311.76 201.73 325.92 M 201.73 325.92 202.63 336.2 M 197.59 316.06 187.12 312.01 M 636.96 175.57 639.01 172.97 M 637.94 178.6 644.28 171.24 M 639.06 181.63 649.38 169.37 M 641.86 182.66 654.5 167.65 M 646.97 180.8 659.75 165.77 M 652.23 179.06 664.87 164.05 M 657.33 177.2 669.98 162.18 M 662.6 175.46 675.22 160.31 M 667.7 173.6 678.41 160.88 M 672.82 171.87 678.76 164.83 M 678.07 169.99 679.09 168.63 M 646.43 181.13 637.5 173.53 M 649.46 180.01 640.54 172.56 M 652.5 178.9 643.58 171.44 M 655.55 177.92 646.62 170.32 M 658.72 176.79 649.67 169.35 M 661.76 175.67 652.84 168.22 M 664.81 174.7 655.88 167.1 M 667.84 173.58 658.93 166.13 M 670.88 172.47 661.96 165.01 M 673.93 171.49 665 163.9 M 677.1 170.36 668.05 162.92 M 679.08 168.49 671.22 161.79 M 678.73 164.54 674.26 160.68 M 678.38 160.6 677.31 159.7 M 180.87 240.87 190.03 230 M 181.22 244.82 190.38 233.94 M 181.56 248.76 190.72 237.88 M 181.91 252.7 191.07 241.83 M 182.24 256.51 191.42 245.77 M 182.59 260.45 191.75 249.58 M 183.28 268.34 184.96 266.35 M 183.63 272.28 188.78 266.02 M 183.98 276.23 192.74 265.67 M 184.31 280.03 193.48 269.3 M 184.66 283.98 193.81 273.1 M 185 287.92 194.16 277.04 M 185.35 291.86 194.51 280.99 M 185.69 295.81 194.85 284.93 M 186.04 299.75 195.2 288.88 M 186.38 303.55 195.55 292.82 M 186.72 307.5 195.88 296.62 M 187.07 311.44 196.23 300.57 M 187.76 319.33 189.81 316.74 M 188.11 323.27 193.77 316.39 M 188.58 327.07 197.61 316.34 M 193.69 325.2 197.95 320.15 M 193.28 325.38 187.88 320.74 M 196.31 324.26 187.55 316.94 M 198.12 322.12 191.51 316.59 M 197.77 318.17 195.47 316.25 M 193.9 311.41 186.51 305.1 M 197.08 310.29 186.16 301.16 M 196.73 306.34 185.82 297.22 M 196.39 302.4 185.48 293.41 M 196.05 298.59 185.14 289.47 M 195.71 294.65 184.79 285.52 M 195.36 290.71 184.45 281.58 M 195.01 286.76 184.1 277.64 M 194.67 282.82 183.75 273.69 M 194.32 278.87 183.42 269.89 M 193.99 275.07 183.69 266.46 M 193.64 271.13 187.65 266.11 M 193.3 267.18 191.6 265.77 M 190.04 260.94 182.03 254.11 M 192.6 259.3 181.69 250.17 M 192.26 255.35 181.35 246.37 M 191.92 251.55 181.01 242.42 M 191.58 247.6 180.66 238.48 M 191.23 243.66 180.31 234.53 M 190.88 239.72 179.97 230.59 M 197.59 316.06 187.55 316.94 M 187.55 316.94 187.12 312.01 M 187.12 312.01 197.15 311.13 M 197.15 311.13 197.59 316.06 M 194.47 311.36 196.92 308.45 M 189.94 311.76 186.86 309.05 M 190.51 311.71 196.57 304.51 M 189.35 261.14 192.44 257.46 M 186.08 261.28 182.38 258.06 M 185.52 261.33 192.1 253.52 M 684.16 72.24 691.1 151.26 M 670.73 73.41 677.96 155.81 M 338 278.27 346.1 286.08 M 577.52 68.05 573.45 78.48 M 526.91 72.46 522.7 82.91 M 466.75 67.06 571.08 57.97 M 571.08 57.97 571.33 60.78 M 571.33 60.78 467 69.88 M 467 69.88 466.75 67.06 M 168.14 211.04 170.4 210.84 M 170.4 210.84 177.51 291.84 M 177.51 291.84 175.25 292.03 M 175.25 292.03 168.14 211.04 M 579.53 77.95 579.68 79.64 M 579.68 79.64 670.58 71.72 M 571.03 57.4 570.86 55.43 M 675.36 48.31 675.19 46.34 M 675.19 46.34 570.86 55.43 M 670.58 71.72 668.97 53.41 M 50.99 268.8 39.25 269.82 M 39.25 269.82 26.59 125.59 M 26.59 125.59 38.32 124.56 M 38.32 124.56 50.99 268.8 M 63.71 267.69 52.12 268.7 M 52.12 268.7 39.45 124.46 M 39.45 124.46 51.04 123.45 M 51.04 123.45 63.71 267.69 M 164.8 62.72 238.6 56.29 M 238.6 56.29 241.42 88.41 M 241.42 88.41 167.62 94.84 M 167.62 94.84 164.8 62.72 M 180.51 215.64 178.51 213.97 M 183.33 215.39 178.25 211.01 M 186.3 215.13 177.99 208.05 M 189.27 214.88 179.59 206.78 M 191.93 214.36 182.56 206.52 M 191.67 211.4 185.52 206.26 M 191.41 208.44 188.49 206 M 191.96 214.64 178.67 215.8 M 178.67 215.8 177.89 206.93 M 177.89 206.93 191.18 205.77 M 191.18 205.77 191.96 214.64 M 670.43 70.03 669.44 70.11 M 669.44 70.11 668.04 54.2 M 668.04 54.2 669.03 54.11 M 669.03 54.11 670.43 70.03 M 261.69 121.41 187.76 127.86 M 187.76 127.86 185.7 104.48 M 185.7 104.48 259.64 98.03 M 259.64 98.03 261.69 121.41 M 264.52 121.17 261.69 121.41 M 261.69 121.41 259.44 95.78 M 259.44 95.78 262.27 95.53 M 262.27 95.53 264.52 121.17 M 342.41 114.38 264.52 121.17 M 264.52 121.17 262.47 97.78 M 262.47 97.78 340.36 90.99 M 340.36 90.99 342.41 114.38 M 345.24 114.13 342.41 114.38 M 342.41 114.38 340.16 88.74 M 340.16 88.74 342.99 88.49 M 342.99 88.49 345.24 114.13 M 345.24 114.13 343.19 90.75 M 343.19 90.75 416.56 84.35 M 416.56 84.35 417.88 99.42 M 417.88 99.42 345.24 114.13 M 420.71 99.18 417.88 99.42 M 417.88 99.42 416.36 82.1 M 416.36 82.1 419.19 81.85 M 419.19 81.85 420.71 99.18 M 259.64 98.03 185.7 104.48 M 185.7 104.48 185.51 102.22 M 185.51 102.22 259.44 95.78 M 259.44 95.78 259.64 98.03 M 340.36 90.99 262.47 97.78 M 262.47 97.78 262.27 95.53 M 262.27 95.53 340.16 88.74 M 340.16 88.74 340.36 90.99 M 416.56 84.35 343.19 90.75 M 343.19 90.75 342.99 88.49 M 342.99 88.49 416.36 82.1 M 416.36 82.1 416.56 84.35 M 433.48 241.42 446.62 236.87 M 446.34 236.89 446.48 238.58 M 435.8 170.39 430.85 170.82 M 430.85 170.82 430.27 164.2 M 430.27 164.2 435.21 163.77 M 435.21 163.77 435.8 170.39 M 440.26 227.77 437.44 228.02 M 437.44 228.02 432.4 170.69 M 432.4 170.69 435.23 170.44 M 435.23 170.44 440.26 227.77 M 363.87 204.62 357.23 205.2 M 357.23 205.2 356.79 200.27 M 356.79 200.27 363.44 199.69 M 363.44 199.69 363.87 204.62 M 435.8 170.39 430.85 170.82 M 430.85 170.82 430.27 164.2 M 430.27 164.2 435.21 163.77 M 435.21 163.77 435.8 170.39 M 441.41 234.34 436.46 234.77 M 436.46 234.77 435.88 228.15 M 435.88 228.15 440.83 227.72 M 440.83 227.72 441.41 234.34 M 434.53 172.21 433.4 172.3 M 433.4 172.3 433.25 170.61 M 433.25 170.61 434.38 170.52 M 434.38 170.52 434.53 172.21 M 434.53 172.21 433.4 172.3 M 433.4 172.3 433.25 170.61 M 433.25 170.61 434.38 170.52 M 434.38 170.52 434.53 172.21 M 439.42 227.84 438.28 227.94 M 438.28 227.94 438.14 226.25 M 438.14 226.25 439.27 226.15 M 439.27 226.15 439.42 227.84 M 439.42 227.84 438.28 227.94 M 438.28 227.94 438.14 226.25 M 438.14 226.25 439.27 226.15 M 439.27 226.15 439.42 227.84 M 433.48 241.42 446.62 236.87 M 446.34 236.89 446.48 238.58 M 430.32 164.77 430.83 164.15 M 430.46 166.46 432.53 164.01 M 430.61 168.15 434.22 163.86 M 430.76 169.84 435.26 164.33 M 431.41 170.77 435.41 166.03 M 433.11 170.63 435.56 167.72 M 434.81 170.48 435.71 169.41 M 435.8 170.39 430.85 170.82 M 430.85 170.82 430.27 164.2 M 430.27 164.2 435.21 163.77 M 435.21 163.77 435.8 170.39 M 440.26 227.77 437.44 228.02 M 437.44 228.02 432.4 170.69 M 432.4 170.69 435.23 170.44 M 435.23 170.44 440.26 227.77 M 433.82 203.07 357.62 209.71 M 357.62 209.71 357.31 206.19 M 357.31 206.19 433.51 199.55 M 433.51 199.55 433.82 203.07 M 363.81 203.92 363.16 204.68 M 363.66 202.23 361.47 204.83 M 363.51 200.54 359.91 204.97 M 362.73 199.75 358.22 205.12 M 361.04 199.9 357.17 204.5 M 359.48 200.04 357.02 202.81 M 357.78 200.19 356.87 201.12 M 363.87 204.62 357.23 205.2 M 357.23 205.2 356.79 200.27 M 356.79 200.27 363.44 199.69 M 363.44 199.69 363.87 204.62 M 430.32 164.77 430.83 164.15 M 430.46 166.46 432.53 164.01 M 430.61 168.15 434.22 163.86 M 430.76 169.84 435.26 164.33 M 431.41 170.77 435.41 166.03 M 433.11 170.63 435.56 167.72 M 434.81 170.48 435.71 169.41 M 435.8 170.39 430.85 170.82 M 430.85 170.82 430.27 164.2 M 430.27 164.2 435.21 163.77 M 435.21 163.77 435.8 170.39 M 434.91 199.28 433.92 199.37 M 433.92 199.37 431.41 170.77 M 431.41 170.77 432.4 170.69 M 432.4 170.69 434.91 199.28 M 437.44 228.02 436.45 228.1 M 436.45 228.1 434.27 203.31 M 434.27 203.31 435.26 203.23 M 435.26 203.23 437.44 228.02 M 436.02 229.7 437.44 228.02 M 436.17 231.39 439.13 227.87 M 436.31 233.08 440.83 227.72 M 436.45 234.63 440.97 229.27 M 438.02 234.64 441.11 230.96 M 439.71 234.49 441.26 232.65 M 441.41 234.34 441.4 234.2 M 441.41 234.34 436.46 234.77 M 436.46 234.77 435.88 228.15 M 435.88 228.15 440.83 227.72 M 440.83 227.72 441.41 234.34 M 434.53 172.21 433.4 172.3 M 433.4 172.3 433.25 170.61 M 433.25 170.61 434.38 170.52 M 434.38 170.52 434.53 172.21 M 434.53 172.21 433.4 172.3 M 433.4 172.3 433.25 170.61 M 433.25 170.61 434.38 170.52 M 434.38 170.52 434.53 172.21 M 439.42 227.84 438.28 227.94 M 438.28 227.94 438.14 226.25 M 438.14 226.25 439.27 226.15 M 439.27 226.15 439.42 227.84 M 433.72 201.94 432.17 202.08 M 432.17 202.08 432.07 200.95 M 432.07 200.95 433.62 200.81 M 433.62 200.81 433.72 201.94 M 435.26 203.23 433.85 203.35 M 433.85 203.35 433.5 199.4 M 433.5 199.4 434.91 199.28 M 434.91 199.28 435.26 203.23 M 357.22 205.06 353.82 205.36 M 353.82 205.36 353.54 202.12 M 353.54 202.12 356.93 201.82 M 356.93 201.82 357.22 205.06 M 356.93 201.82 192.09 216.19 M 192.09 216.19 192.01 215.2 M 192.01 215.2 356.84 200.84 M 356.84 200.84 356.93 201.82 M 195.77 219.13 192.38 219.43 M 192.38 219.43 192.09 216.19 M 192.09 216.19 195.49 215.9 M 195.49 215.9 195.77 219.13 M 276.92 212.06 273.67 212.34 M 273.67 212.34 273.38 209.1 M 273.38 209.1 276.63 208.82 M 276.63 208.82 276.92 212.06 M 431.39 199.73 429.69 199.88 M 429.69 199.88 429.55 198.19 M 429.55 198.19 431.24 198.04 M 431.24 198.04 431.39 199.73 M 431.85 204.94 430.15 205.09 M 430.15 205.09 430 203.4 M 430 203.4 431.7 203.25 M 431.7 203.25 431.85 204.94 M 433.79 94.06 440.46 169.99 M 440.46 169.99 436.78 170.31 M 436.78 170.31 430.12 94.38 M 430.12 94.38 433.79 94.06 M 433.79 94.06 440.46 169.99 M 440.46 169.99 436.78 170.31 M 436.78 170.31 430.12 94.38 M 430.12 94.38 433.79 94.06 M 432.67 95.86 431.54 95.96 M 431.54 95.96 431.39 94.27 M 431.39 94.27 432.52 94.17 M 432.52 94.17 432.67 95.86 M 430.46 98.33 428.91 98.46 M 428.91 98.46 428.76 96.77 M 428.76 96.77 430.32 96.64 M 430.32 96.64 430.46 98.33 M 435.7 97.87 434.14 98.01 M 434.14 98.01 433.99 96.32 M 433.99 96.32 435.55 96.18 M 435.55 96.18 435.7 97.87 M 357.23 205.2 192.39 219.57 M 192.39 219.57 191.96 214.64 M 191.96 214.64 356.79 200.27 M 356.79 200.27 357.23 205.2 M 672.48 93.41 471.6 110.92 M 471.6 110.92 470.87 102.61 M 470.87 102.61 671.75 85.1 M 431.15 106.07 421.39 106.92 M 421.39 106.92 420.66 98.61 M 420.66 98.61 428.86 97.9 M 422.12 115.24 431.87 114.38 M 530.88 122.5 473.06 127.54 M 473.06 127.54 472.33 119.23 M 472.33 119.23 673.21 101.72 M 568.79 127.57 674.67 118.34 M 530.88 122.5 574.42 118.71 M 574.42 118.71 575.15 127.02 M 575.15 127.02 559.32 128.4 M 568.79 127.57 674.67 118.34 M 669.13 160.7 574.42 168.95 M 577.41 177.07 637.21 171.85 M 571.42 160.84 677.59 151.58 M 565.44 144.61 676.13 134.96 M 676.13 134.96 565.44 144.61 M 562.45 136.5 575.88 135.33 M 575.88 135.33 576.61 143.64 M 576.61 143.64 565.44 144.61 M 673.94 110.03 530.88 122.5 M 675.4 126.65 562.45 136.5 M 562.45 136.5 675.4 126.65 M 676.86 143.27 568.43 152.73 M 568.43 152.73 676.86 143.27 M 423.58 131.86 433.33 131.01 M 413.73 250.1 305.45 259.54 M 305.45 259.54 413.73 250.1 M 192.1 235.78 283 227.85 M 363.82 204.06 377.68 202.85 M 377.68 202.85 377.81 204.4 M 461.94 245.89 305.45 259.54 M 305.45 259.54 382.07 252.86 M 382.07 252.86 382.48 257.5 M 438.86 239.39 317.14 250 M 317.14 250 493.85 234.6 M 299.31 243.18 380.6 236.09 M 380.6 236.09 381.33 244.4 M 381.33 244.4 317.14 250 M 296.32 235.07 435.99 222.89 M 293.32 226.95 379.14 219.47 M 379.14 219.47 379.87 227.78 M 379.87 227.78 296.32 235.07 M 259.8 221.5 193.07 227.32 M 305.74 217.5 426.75 206.95 M 426.75 206.95 305.74 217.5 M 428.94 231.88 299.31 243.18 M 435.99 222.89 379.87 227.78 M 379.87 227.78 379.14 219.47 M 379.14 219.47 435.26 214.58 M 435.26 214.58 293.32 226.95 M 293.32 226.95 435.26 214.58 M 434.53 206.27 378.41 211.16 M 378.41 211.16 378.12 207.92 M 422.85 123.55 371.11 128.06 M 371.11 128.06 370.38 119.75 M 370.38 119.75 422.12 115.24 M 422.12 115.24 269.16 128.57 M 269.16 128.57 268.48 120.82 M 423.58 131.86 270.62 145.19 M 270.62 145.19 269.89 136.88 M 269.89 136.88 422.85 123.55 M 371.11 128.06 165.13 146.01 M 165.13 146.01 164.4 137.7 M 164.4 137.7 370.38 119.75 M 370.38 119.75 371.11 128.06 M 372.57 144.68 166.59 162.63 M 166.59 162.63 165.86 154.32 M 165.86 154.32 371.84 136.37 M 371.84 136.37 372.57 144.68 M 424.31 140.17 372.57 144.68 M 372.57 144.68 371.84 136.37 M 371.84 136.37 423.58 131.86 M 197.23 294.09 210.66 292.92 M 195.77 277.47 204.67 276.69 M 195.04 269.16 201.68 268.58 M 194.29 260.71 198.39 260.35 M 197.95 302.4 213.65 301.04 M 204.67 276.69 195.77 277.47 M 207.66 284.81 196.5 285.78 M 198.39 260.35 194.29 260.71 M 201.68 268.58 195.04 269.16 M 213.65 301.04 197.95 302.4 M 253.06 238.84 192.83 244.09 M 482.62 210.45 439.08 214.25 M 439.08 214.25 482.62 210.45 M 485.61 218.57 439.81 222.56 M 521.12 223.84 440.54 230.87 M 496.74 150.6 439.2 155.62 M 466.65 161.6 439.93 163.93 M 439.93 163.93 466.65 161.6 M 470.65 178 436.16 181.01 M 436.16 181.01 470.65 178 M 556.77 128.62 437.74 139 M 467.66 169.89 435.43 172.69 M 426.5 165.1 436.25 164.25 M 425.77 156.79 435.52 155.94 M 435.52 155.94 425.77 156.79 M 425.04 148.48 434.79 147.63 M 424.31 140.17 434.06 139.32 M 434.06 139.32 424.31 140.17 M 422.85 123.55 432.6 122.7 M 425.04 148.48 272.08 161.81 M 272.08 161.81 271.35 153.5 M 271.35 153.5 424.31 140.17 M 425.04 148.48 272.08 161.81 M 272.08 161.81 271.35 153.5 M 271.35 153.5 424.31 140.17 M 374.03 161.3 168.05 179.25 M 168.05 179.25 167.32 170.94 M 167.32 170.94 373.3 152.99 M 373.3 152.99 374.03 161.3 M 425.77 156.79 374.03 161.3 M 374.03 161.3 373.3 152.99 M 373.3 152.99 425.04 148.48 M 375.49 177.92 169.51 195.88 M 169.51 195.88 168.78 187.56 M 168.78 187.56 374.76 169.61 M 374.76 169.61 375.49 177.92 M 276.07 207.31 275.73 203.36 M 275.73 203.36 425.29 190.33 M 276.07 207.31 275.73 203.36 M 275.73 203.36 433.07 189.65 M 671.03 76.79 470.14 94.3 M 470.14 94.3 469.55 87.54 M 677.68 152.57 670.58 71.72 M 670.58 71.72 677.96 155.81 M 220.17 318.49 198.13 258.96 M 198.13 258.96 292.4 224.48 M 292.4 224.48 314.43 284.02 M 314.43 284.02 220.17 318.49 M 232.59 314 231.08 309.73 M 231.08 309.73 294.02 286.79 M 294.02 286.79 295.52 290.92 M 295.52 290.92 232.59 314 M 212.2 258.58 210.7 254.45 M 210.7 254.45 273.63 231.37 M 273.63 231.37 275.13 235.49 M 275.13 235.49 212.2 258.58 M 220.17 318.49 198.13 258.96 M 198.13 258.96 204.48 256.7 M 204.48 256.7 226.38 316.25 M 226.38 316.25 220.17 318.49 M 295.52 290.92 273.63 231.37 M 273.63 231.37 279.84 229.12 M 279.84 229.12 301.88 288.66 M 301.88 288.66 295.52 290.92 M 301.88 288.66 279.84 229.12 M 279.84 229.12 286.18 226.72 M 286.18 226.72 308.08 286.27 M 308.08 286.27 301.88 288.66 M 262.68 298.18 243.8 247.03 M 250.02 244.78 268.9 295.93 M 268.9 295.93 250.02 244.78 M 256.36 242.38 275.25 293.68 M 287.81 289.03 268.93 237.88 M 267.41 233.61 273.63 231.37 M 273.63 231.37 295.66 290.9 M 295.66 290.9 289.31 293.16 M 281.45 291.29 262.57 240.14 M 268.93 237.88 287.81 289.03 M 250.13 302.82 231.11 251.68 M 237.45 249.28 256.34 300.58 M 275.25 293.68 256.36 242.38 M 262.57 240.14 281.45 291.29 M 256.34 300.58 237.45 249.28 M 243.8 247.03 262.68 298.18 M 243.77 305.08 224.9 253.93 M 231.11 251.68 250.13 302.82 M 218.55 256.32 237.43 307.48 M 237.43 307.48 218.55 256.32 M 224.9 253.93 243.77 305.08 M 231.22 309.72 212.34 258.57 M 212.34 258.57 231.22 309.72 M 232.73 313.99 226.38 316.25 M 226.38 316.25 204.48 256.7 M 204.48 256.7 210.7 254.45 M 486.9 221.86 464.86 162.32 M 464.86 162.32 559.11 127.71 M 559.11 127.71 581.15 187.24 M 581.15 187.24 486.9 221.86 M 562.24 194.14 540.2 134.61 M 540.2 134.61 546.56 132.35 M 546.56 132.35 568.6 191.89 M 568.6 191.89 562.24 194.14 M 568.6 191.89 546.56 132.35 M 546.56 132.35 552.9 129.95 M 552.9 129.95 574.81 189.64 M 574.81 189.64 568.6 191.89 M 529.41 201.55 510.38 150.26 M 516.74 148.01 535.62 199.16 M 535.62 199.16 516.74 148.01 M 523.09 145.75 541.97 196.9 M 554.53 192.26 535.65 141.11 M 534.13 136.84 540.35 134.59 M 540.35 134.59 562.38 194.13 M 562.38 194.13 556.04 196.53 M 548.18 194.66 529.29 143.36 M 535.65 141.11 554.53 192.26 M 541.97 196.9 523.09 145.75 M 529.29 143.36 548.18 194.66 M 510.38 150.26 529.41 201.55 M 499.31 217.23 497.81 213.1 M 497.81 213.1 560.74 190.02 M 560.74 190.02 562.24 194.14 M 562.24 194.14 499.31 217.23 M 486.9 221.86 464.86 162.32 M 464.86 162.32 471.2 159.92 M 471.2 159.92 493.1 219.47 M 493.1 219.47 486.9 221.86 M 516.71 206.06 497.83 154.91 M 504.18 152.65 523.06 203.8 M 523.06 203.8 504.18 152.65 M 510.5 208.45 491.61 157.15 M 497.83 154.91 516.71 206.06 M 485.27 159.55 504.15 210.7 M 504.15 210.7 485.27 159.55 M 491.61 157.15 510.5 208.45 M 497.95 213.09 479.06 161.79 M 479.06 161.79 497.95 213.09 M 499.45 217.22 493.1 219.47 M 493.1 219.47 471.2 159.92 M 471.2 159.92 477.41 157.68 M 477.41 157.68 478.92 161.81 M 477.41 157.68 540.2 134.61 M 540.2 134.61 541.86 138.86 M 541.86 138.86 478.92 161.81 M 197.95 302.4 211.38 301.23 M 198.68 310.71 216.64 309.15 M 216.64 309.15 198.68 310.71 M 198.68 310.71 212.11 309.54 M 199.41 319.02 219.63 317.26 M 219.63 317.26 199.41 319.02 M 194.29 260.71 198.68 260.33 M 193.56 252.4 222.97 249.84 M 222.97 249.84 193.56 252.4 M 198.68 260.33 194.29 260.71 M 311.43 275.76 397.8 268.23 M 431.26 198.18 433.8 197.96 M 170.24 204.19 376.22 186.23 M 376.22 186.23 376.95 194.54 M 376.95 194.54 191.61 210.7 M 436.89 189.32 448.62 188.29 M 436.16 181.01 445.35 180.2 M 445.35 180.2 436.16 181.01 M 448.62 188.29 436.89 189.32 M 436.16 181.01 445.77 180.17 M 445.77 180.17 436.16 181.01 M 437.62 197.63 476.63 194.23 M 436.89 189.32 446.08 188.52 M 446.08 188.52 436.89 189.32 M 476.63 194.23 437.62 197.63 M 446.5 188.48 436.89 189.32 M 436.89 189.32 473.64 186.11 M 438.35 205.94 479.63 202.34 M 437.62 197.63 446.81 196.83 M 446.81 196.83 437.62 197.63 M 479.63 202.34 438.35 205.94 M 437.62 197.63 447.23 196.79 M 447.23 196.79 437.62 197.63 M 442.09 230.73 428.94 231.88 M 439.81 222.56 481.09 218.96 M 481.09 218.96 481.73 226.28 M 439.08 214.25 482.62 210.45 M 437.71 180.87 275 195.05 M 275 195.05 274.27 186.74 M 274.27 186.74 431.61 173.03 M 437.71 180.87 275 195.05 M 275 195.05 274.27 186.74 M 274.27 186.74 431.61 173.03 M 433.87 172.83 433.86 172.69 M 435.43 172.69 467.66 169.89 M 467.66 169.89 435.43 172.69 M 431.61 173.03 375.49 177.92 M 375.49 177.92 374.76 169.61 M 374.76 169.61 426.5 165.1 M 433.87 172.83 433.86 172.69 M 359.26 286.78 185.12 347.66 M 358.28 285.3 186.63 345.4 M 339.23 276.04 201.72 324.22 M 346.24 286.07 346.1 286.08 M 346.1 286.08 344.21 280.85 M 346.24 286.07 346.1 286.08 M 346.1 286.08 344.21 280.85 M 356.32 282.49 189.64 340.74 M 490.91 235.14 491.05 235.12 M 344.21 280.85 346.1 286.08 M 346.1 286.08 341.4 287.77 M 341.4 287.77 338 278.27 M 338 278.27 340.21 277.51 M 343.83 279.75 343.82 279.61 M 541.7 214.95 543.73 216.91 M 437.59 254.12 438.72 257.29 M 438.72 257.29 439.28 258.8 M 437.59 254.12 435.52 254.87 M 435.52 254.87 435.74 255.7 M 435.74 255.7 434.78 256.21 M 434.78 256.21 435.53 258.27 M 435.53 258.27 436.11 259.93 M 446.43 250.94 444.36 251.68 M 444.36 251.68 446.05 256.36 M 446.05 256.36 449.1 255.39 M 436.11 259.93 439.28 258.8 M 438.72 257.29 445.49 254.85 M 444.36 251.68 446.43 250.94 M 446.43 250.94 446.8 251.9 M 446.8 251.9 447.76 251.53 M 447.76 251.53 449.1 255.39 M 449.1 255.39 446.05 256.36 M 447.01 251.03 447.19 251.44 M 435.12 255.19 435.3 255.6 M 435.3 255.6 435.02 255.62 M 435.3 255.6 435.12 255.19 M 447.01 251.03 447.19 251.44 M 356.67 283.17 435.02 255.62 M 435.12 255.19 356.35 282.78 M 447.19 251.44 522.09 225.18 M 521.78 224.92 447.01 251.03 M 173.34 98.32 161.61 99.34 M 161.61 99.34 161.46 97.65 M 161.46 97.65 173.19 96.63 M 173.19 96.63 173.34 98.32 M 186.77 97.14 175.04 98.17 M 175.04 98.17 174.89 96.48 M 174.89 96.48 186.62 95.45 M 186.62 95.45 186.77 97.14 M 200.06 95.99 188.32 97.01 M 188.32 97.01 188.18 95.32 M 188.18 95.32 199.91 94.3 M 199.91 94.3 200.06 95.99 M 213.49 94.82 201.75 95.84 M 201.75 95.84 201.61 94.15 M 201.61 94.15 213.34 93.13 M 213.34 93.13 213.49 94.82 M 226.78 93.66 215.04 94.68 M 215.04 94.68 214.9 92.99 M 214.9 92.99 226.63 91.97 M 226.63 91.97 226.78 93.66 M 240.07 92.5 228.47 93.51 M 228.47 93.51 228.33 91.82 M 228.33 91.82 239.92 90.81 M 239.92 90.81 240.07 92.5 M 253.5 91.33 241.76 92.35 M 241.76 92.35 241.61 90.66 M 241.61 90.66 253.35 89.64 M 253.35 89.64 253.5 91.33 M 266.78 90.17 255.19 91.18 M 255.19 91.18 255.04 89.49 M 255.04 89.49 266.64 88.48 M 266.64 88.48 266.78 90.17 M 280.21 89 268.48 90.02 M 268.48 90.02 268.33 88.33 M 268.33 88.33 280.07 87.31 M 280.07 87.31 280.21 89 M 293.5 87.84 281.91 88.85 M 281.91 88.85 281.76 87.16 M 281.76 87.16 293.35 86.15 M 293.35 86.15 293.5 87.84 M 185.31 349.78 183.61 349.92 M 183.61 349.92 182.58 338.23 M 182.58 338.23 184.28 338.09 M 184.28 338.09 185.31 349.78 M 184.14 336.54 182.45 336.68 M 182.45 336.68 181.42 324.99 M 181.42 324.99 183.12 324.84 M 183.12 324.84 184.14 336.54 M 182.97 323.15 181.27 323.3 M 181.27 323.3 180.24 311.61 M 180.24 311.61 181.94 311.46 M 181.94 311.46 182.97 323.15 M 181.81 309.91 180.11 310.06 M 180.11 310.06 179.08 298.37 M 179.08 298.37 180.78 298.22 M 180.78 298.22 181.81 309.91 M 180.63 296.53 178.93 296.68 M 178.93 296.68 177.92 285.13 M 177.92 285.13 179.62 284.98 M 179.62 284.98 180.63 296.53 M 179.47 283.29 177.77 283.44 M 177.77 283.44 176.74 271.75 M 176.74 271.75 178.44 271.6 M 178.44 271.6 179.47 283.29 M 178.29 269.91 176.6 270.06 M 176.6 270.06 175.58 258.51 M 175.58 258.51 177.28 258.36 M 177.28 258.36 178.29 269.91 M 177.13 256.67 175.43 256.82 M 175.43 256.82 174.41 245.13 M 174.41 245.13 176.1 244.98 M 176.1 244.98 177.13 256.67 M 175.96 243.29 174.26 243.44 M 174.26 243.44 173.24 231.89 M 173.24 231.89 174.94 231.74 M 174.94 231.74 175.96 243.29 M 174.79 230.05 173.1 230.2 M 173.1 230.2 172.07 218.5 M 172.07 218.5 173.77 218.36 M 173.77 218.36 174.79 230.05 M 293.5 87.84 281.91 88.85 M 281.91 88.85 281.76 87.16 M 281.76 87.16 293.35 86.15 M 293.35 86.15 293.5 87.84 M 306.93 86.67 295.2 87.69 M 295.2 87.69 295.05 86 M 295.05 86 306.78 84.98 M 306.78 84.98 306.93 86.67 M 320.22 85.51 308.63 86.52 M 308.63 86.52 308.48 84.83 M 308.48 84.83 320.07 83.82 M 320.07 83.82 320.22 85.51 M 333.65 84.34 321.92 85.36 M 321.92 85.36 321.77 83.67 M 321.77 83.67 333.5 82.65 M 333.5 82.65 333.65 84.34 M 346.94 83.18 335.35 84.19 M 335.35 84.19 335.2 82.5 M 335.2 82.5 346.79 81.49 M 346.79 81.49 346.94 83.18 M 360.37 82.01 348.64 83.03 M 348.64 83.03 348.49 81.34 M 348.49 81.34 360.22 80.32 M 360.22 80.32 360.37 82.01 M 373.66 80.85 362.07 81.86 M 362.07 81.86 361.92 80.17 M 361.92 80.17 373.51 79.16 M 373.51 79.16 373.66 80.85 M 387.09 79.68 375.36 80.71 M 375.36 80.71 375.21 79.01 M 375.21 79.01 386.94 77.99 M 386.94 77.99 387.09 79.68 M 400.38 78.52 388.64 79.55 M 388.64 79.55 388.5 77.86 M 388.5 77.86 400.23 76.83 M 400.23 76.83 400.38 78.52 M 413.81 77.35 402.07 78.38 M 402.07 78.38 401.93 76.69 M 401.93 76.69 413.66 75.66 M 413.66 75.66 413.81 77.35 M 333.65 84.34 321.92 85.36 M 321.92 85.36 321.77 83.67 M 321.77 83.67 333.5 82.65 M 333.5 82.65 333.65 84.34 M 346.94 83.18 335.35 84.19 M 335.35 84.19 335.2 82.5 M 335.2 82.5 346.79 81.49 M 346.79 81.49 346.94 83.18 M 360.37 82.01 348.64 83.03 M 348.64 83.03 348.49 81.34 M 348.49 81.34 360.22 80.32 M 360.22 80.32 360.37 82.01 M 373.66 80.85 362.07 81.86 M 362.07 81.86 361.92 80.17 M 361.92 80.17 373.51 79.16 M 373.51 79.16 373.66 80.85 M 387.09 79.68 375.36 80.71 M 375.36 80.71 375.21 79.01 M 375.21 79.01 386.94 77.99 M 386.94 77.99 387.09 79.68 M 400.38 78.52 388.64 79.55 M 388.64 79.55 388.5 77.86 M 388.5 77.86 400.23 76.83 M 400.23 76.83 400.38 78.52 M 413.81 77.35 402.07 78.38 M 402.07 78.38 401.93 76.69 M 401.93 76.69 413.66 75.66 M 413.66 75.66 413.81 77.35 M 427.1 76.19 415.36 77.22 M 415.36 77.22 415.21 75.53 M 415.21 75.53 426.95 74.5 M 426.95 74.5 427.1 76.19 M 440.53 75.02 428.79 76.05 M 428.79 76.05 428.64 74.36 M 428.64 74.36 440.38 73.33 M 440.38 73.33 440.53 75.02 M 453.82 73.87 442.08 74.89 M 442.08 74.89 441.93 73.2 M 441.93 73.2 453.67 72.18 M 453.67 72.18 453.82 73.87 M 467.25 72.69 455.51 73.72 M 455.51 73.72 455.36 72.03 M 455.36 72.03 467.1 71 M 467.1 71 467.25 72.69 M 453.82 73.87 442.08 74.89 M 442.08 74.89 441.93 73.2 M 441.93 73.2 453.67 72.18 M 453.67 72.18 453.82 73.87 M 467.25 72.69 455.51 73.72 M 455.51 73.72 455.36 72.03 M 455.36 72.03 467.1 71 M 467.1 71 467.25 72.69 M 480.53 71.54 468.8 72.56 M 468.8 72.56 468.65 70.87 M 468.65 70.87 480.39 69.85 M 480.39 69.85 480.53 71.54 M 493.82 70.38 482.23 71.39 M 482.23 71.39 482.08 69.7 M 482.08 69.7 493.67 68.69 M 493.67 68.69 493.82 70.38 M 480.53 71.54 468.8 72.56 M 468.8 72.56 468.65 70.87 M 468.65 70.87 480.39 69.85 M 480.39 69.85 480.53 71.54 M 493.82 70.38 482.23 71.39 M 482.23 71.39 482.08 69.7 M 482.08 69.7 493.67 68.69 M 493.67 68.69 493.82 70.38 M 507.25 69.21 495.52 70.23 M 495.52 70.23 495.37 68.54 M 495.37 68.54 507.1 67.52 M 507.1 67.52 507.25 69.21 M 520.54 68.05 508.95 69.06 M 508.95 69.06 508.8 67.37 M 508.8 67.37 520.39 66.36 M 520.39 66.36 520.54 68.05 M 507.25 69.21 495.52 70.23 M 495.52 70.23 495.37 68.54 M 495.37 68.54 507.1 67.52 M 507.1 67.52 507.25 69.21 M 520.54 68.05 508.95 69.06 M 508.95 69.06 508.8 67.37 M 508.8 67.37 520.39 66.36 M 520.39 66.36 520.54 68.05 M 533.97 66.88 522.24 67.9 M 522.24 67.9 522.09 66.21 M 522.09 66.21 533.82 65.19 M 533.82 65.19 533.97 66.88 M 547.26 65.72 535.67 66.73 M 535.67 66.73 535.52 65.04 M 535.52 65.04 547.11 64.03 M 547.11 64.03 547.26 65.72 M 533.97 66.88 522.24 67.9 M 522.24 67.9 522.09 66.21 M 522.09 66.21 533.82 65.19 M 533.82 65.19 533.97 66.88 M 547.26 65.72 535.67 66.73 M 535.67 66.73 535.52 65.04 M 535.52 65.04 547.11 64.03 M 547.11 64.03 547.26 65.72 M 560.69 64.55 548.96 65.57 M 548.96 65.57 548.81 63.88 M 548.81 63.88 560.54 62.86 M 560.54 62.86 560.69 64.55 M 571.58 63.6 562.39 64.4 M 562.39 64.4 562.24 62.71 M 562.24 62.71 571.43 61.91 M 571.43 61.91 571.58 63.6 M 560.69 64.55 548.96 65.57 M 548.96 65.57 548.81 63.88 M 548.81 63.88 560.54 62.86 M 560.54 62.86 560.69 64.55 M 675.91 54.51 672.51 54.8 M 672.51 54.8 672.37 53.11 M 672.37 53.11 675.76 52.82 M 675.76 52.82 675.91 54.51 M 677.46 54.37 677.31 52.68 M 677.31 52.68 689.05 51.66 M 689.05 51.66 689.19 53.35 M 689.19 53.35 677.46 54.37 M 677.46 54.37 677.31 52.68 M 677.31 52.68 689.05 51.66 M 689.05 51.66 689.19 53.35 M 689.19 53.35 677.46 54.37 M 165.49 124.12 163.8 124.27 M 163.8 124.27 162.78 112.72 M 162.78 112.72 164.48 112.57 M 164.48 112.57 165.49 124.12 M 164.33 110.88 162.63 111.03 M 162.63 111.03 161.61 99.34 M 161.61 99.34 163.3 99.19 M 163.3 99.19 164.33 110.88 M 690.22 65.04 688.53 65.19 M 688.53 65.19 687.5 53.49 M 687.5 53.49 689.19 53.35 M 689.19 53.35 690.22 65.04 M 699.42 169.84 697.73 169.98 M 697.73 169.98 696.85 159.98 M 696.85 159.98 698.55 159.84 M 698.55 159.84 699.42 169.84 M 185.68 349.18 185.12 347.66 M 185.12 347.66 196.17 343.72 M 196.17 343.72 196.74 345.37 M 196.74 345.37 185.68 349.18 M 198.4 344.8 197.84 343.29 M 197.84 343.29 208.89 339.35 M 208.89 339.35 209.45 340.86 M 209.45 340.86 198.4 344.8 M 210.98 340.44 210.41 338.79 M 210.41 338.79 221.47 334.99 M 221.47 334.99 222.03 336.5 M 222.03 336.5 210.98 340.44 M 223.69 335.93 223.13 334.41 M 223.13 334.41 234.18 330.47 M 234.18 330.47 234.75 332.12 M 234.75 332.12 223.69 335.93 M 236.27 331.57 235.7 329.91 M 235.7 329.91 246.76 326.11 M 246.76 326.11 247.32 327.62 M 247.32 327.62 236.27 331.57 M 248.98 327.05 248.42 325.54 M 248.42 325.54 259.47 321.6 M 259.47 321.6 260.04 323.25 M 260.04 323.25 248.98 327.05 M 261.56 322.69 261 321.18 M 261 321.18 272.19 317.22 M 272.19 317.22 272.62 318.89 M 272.62 318.89 261.56 322.69 M 274.28 318.32 273.71 316.66 M 273.71 316.66 284.77 312.86 M 284.77 312.86 285.33 314.37 M 285.33 314.37 274.28 318.32 M 286.85 313.82 286.29 312.3 M 286.29 312.3 297.48 308.35 M 297.48 308.35 298.05 310 M 298.05 310 286.85 313.82 M 299.57 309.44 299 307.79 M 299 307.79 310.06 303.99 M 310.06 303.99 310.62 305.5 M 310.62 305.5 299.57 309.44 M 299.57 309.44 299 307.79 M 299 307.79 310.06 303.99 M 310.06 303.99 310.62 305.5 M 310.62 305.5 299.57 309.44 M 312.14 304.94 311.72 303.41 M 311.72 303.41 322.78 299.61 M 322.78 299.61 323.34 301.12 M 323.34 301.12 312.14 304.94 M 324.86 300.57 324.3 299.05 M 324.3 299.05 335.35 295.11 M 335.35 295.11 335.92 296.76 M 335.92 296.76 324.86 300.57 M 337.58 296.19 337.01 294.54 M 337.01 294.54 348.07 290.74 M 348.07 290.74 348.63 292.25 M 348.63 292.25 337.58 296.19 M 552.63 220.96 552.06 219.3 M 552.06 219.3 563.12 215.5 M 563.12 215.5 563.68 217.01 M 563.68 217.01 552.63 220.96 M 565.21 216.59 564.64 214.94 M 564.64 214.94 575.7 211.14 M 575.7 211.14 576.26 212.65 M 576.26 212.65 565.21 216.59 M 577.92 212.08 577.36 210.57 M 577.36 210.57 588.41 206.62 M 588.41 206.62 588.98 208.28 M 588.98 208.28 577.92 212.08 M 590.5 207.72 589.93 206.07 M 589.93 206.07 600.99 202.26 M 600.99 202.26 601.55 203.78 M 601.55 203.78 590.5 207.72 M 603.21 203.2 602.65 201.69 M 602.65 201.69 613.7 197.75 M 613.7 197.75 614.27 199.4 M 614.27 199.4 603.21 203.2 M 615.79 198.84 615.23 197.33 M 615.23 197.33 626.28 193.39 M 626.28 193.39 626.84 194.9 M 626.84 194.9 615.79 198.84 M 628.51 194.47 627.94 192.82 M 627.94 192.82 639 189.01 M 639 189.01 639.56 190.53 M 639.56 190.53 628.51 194.47 M 641.08 189.97 640.52 188.46 M 640.52 188.46 651.57 184.51 M 651.57 184.51 652.14 186.17 M 652.14 186.17 641.08 189.97 M 577.92 212.08 577.36 210.57 M 577.36 210.57 588.41 206.62 M 588.41 206.62 588.98 208.28 M 588.98 208.28 577.92 212.08 M 590.5 207.72 589.93 206.07 M 589.93 206.07 600.99 202.26 M 600.99 202.26 601.55 203.78 M 601.55 203.78 590.5 207.72 M 603.21 203.2 602.65 201.69 M 602.65 201.69 613.7 197.75 M 613.7 197.75 614.27 199.4 M 614.27 199.4 603.21 203.2 M 615.79 198.84 615.23 197.33 M 615.23 197.33 626.28 193.39 M 626.28 193.39 626.84 194.9 M 626.84 194.9 615.79 198.84 M 628.51 194.47 627.94 192.82 M 627.94 192.82 639 189.01 M 639 189.01 639.56 190.53 M 639.56 190.53 628.51 194.47 M 641.08 189.97 640.52 188.46 M 640.52 188.46 651.57 184.51 M 651.57 184.51 652.14 186.17 M 652.14 186.17 641.08 189.97 M 653.8 185.59 653.23 183.94 M 653.23 183.94 664.29 180.14 M 664.29 180.14 664.85 181.65 M 664.85 181.65 653.8 185.59 M 666.37 181.09 665.81 179.58 M 665.81 179.58 677 175.62 M 677 175.62 677.43 177.29 M 677.43 177.29 666.37 181.09 M 679.09 176.72 678.53 175.21 M 678.53 175.21 689.58 171.26 M 689.58 171.26 690.15 172.92 M 690.15 172.92 679.09 176.72 M 691.67 172.36 691.24 170.69 M 691.24 170.69 696.9 168.64 M 696.9 168.64 697.47 170.29 M 697.47 170.29 691.67 172.36 M 53.1 266.91 53.23 266.76 M 292.4 224.48 198.13 258.96 M 198.13 258.96 220.17 318.49 M 220.17 318.49 314.43 284.02 M 314.43 284.02 292.4 224.48 M 559.11 127.71 464.86 162.32 M 464.86 162.32 486.9 221.86 M 486.9 221.86 581.15 187.24 M 581.15 187.24 559.11 127.71 M 439.93 163.93 466.65 161.6 M 436.25 164.25 426.5 165.1 M 426.5 165.1 436.25 164.25 M 439.2 155.62 475.25 152.48 M 475.25 152.48 475.76 158.25 M 435.52 155.94 425.77 156.79 M 439.2 155.62 475.25 152.48 M 475.25 152.48 475.76 158.25 M 438.47 147.31 526.68 139.62 M 434.79 147.63 425.04 148.48 M 425.04 148.48 434.79 147.63 M 437.74 139 473.79 135.85 M 473.79 135.85 474.52 144.16 M 474.52 144.16 438.47 147.31 M 434.06 139.32 424.31 140.17 M 437.74 139 473.79 135.85 M 473.79 135.85 474.52 144.16 M 474.52 144.16 438.47 147.31 M 437.01 130.69 530.88 122.5 M 433.33 131.01 423.58 131.86 M 432.6 122.7 422.85 123.55 M 436.28 122.38 472.33 119.23 M 472.33 119.23 473.06 127.54 M 473.06 127.54 437.01 130.69 M 435.55 114.06 572.96 102.09 M 572.96 102.09 573.69 110.4 M 573.69 110.4 436.28 122.38 M 435.65 97.31 571.5 85.46 M 571.5 85.46 572.23 93.78 M 572.23 93.78 434.82 105.75 M 378.12 207.92 378.41 211.16 M 378.41 211.16 259.8 221.5 M 377.81 204.4 377.68 202.85 M 377.68 202.85 429.56 198.33 M 350.7 272.06 339.23 276.04 M 446.48 238.58 446.47 238.44 M 305.45 259.54 382.07 252.86 M 382.07 252.86 382.77 260.89 M 430.7 256.71 308.44 267.65 M 350 113.15 421.39 106.92 M 302.3 251.29 381.33 244.4 M 382.07 252.86 305.45 259.54 M 273.54 178.43 272.81 170.12 M 578.07 160.26 577.34 151.95 M 579.53 176.88 578.8 168.57 M 277.92 228.3 277.19 219.99 M 343.21 277.53 344.5 276 M 344.2 280.71 349.75 274.13 M 345.32 283.74 352.66 274.87 M 347.33 285.55 350.43 281.87 M 351.08 281.25 355.6 275.89 M 352.58 283.67 354.39 281.53 M 349.13 284.97 344.35 280.84 M 352.17 283.85 343.25 276.4 M 355.2 282.73 353.82 281.58 M 352.28 280.29 346.29 275.28 M 354.7 278.66 349.32 274.16 M 357.12 277.03 355.74 275.87 M 342.84 276.57 346.1 286.08 M 346.1 286.08 341.4 287.77 M 341.4 287.77 338 278.27 M 338 278.27 342.84 276.57 M 360.25 288.26 525.68 230.4 M 512.39 208.85 518.75 217.95 M 518.75 217.95 524.4 217.46 M 524.4 217.46 515.27 223.79 M 515.27 223.79 520.78 223.31 M 520.78 223.31 527.15 232.54 M 347.12 266.97 353.62 276.06 M 353.62 276.06 359.13 275.58 M 359.13 275.58 350 281.91 M 350 281.91 355.52 281.43 M 355.52 281.43 361.88 290.67 M 337.58 296.19 337.01 294.54 M 337.01 294.54 348.07 290.74 M 348.07 290.74 348.63 292.25 M 348.63 292.25 337.58 296.19 M 360.25 288.26 350.15 291.69 M 350.15 291.69 349.59 290.18 M 349.59 290.18 359.26 286.78 M 518.09 217.01 520.16 214.56 M 516.12 223.71 517.15 222.49 M 521.15 217.74 525.42 212.82 M 519.94 223.38 530.53 210.96 M 522.75 224.55 535.65 209.24 M 527.98 222.54 536.77 212.26 M 533.23 220.66 537.89 215.29 M 538.48 218.78 538.87 218.32 M 519.09 223.45 517.56 222.31 M 523.98 224.02 519.83 220.55 M 527.02 222.9 522.25 218.92 M 520.87 217.76 517.95 215.32 M 530.05 221.79 520.99 214.35 M 533.1 220.81 524.03 213.23 M 536.14 219.7 527.21 212.1 M 538.87 218.32 530.26 211.13 M 537.14 213.22 533.29 210.01 M 521.78 224.92 539.03 218.59 M 527.34 229.83 526.77 228.18 M 526.77 228.18 537.83 224.37 M 537.83 224.37 538.39 225.89 M 538.39 225.89 527.34 229.83 M 539.91 225.33 539.35 223.82 M 539.35 223.82 550.4 219.87 M 550.4 219.87 550.97 221.53 M 550.97 221.53 539.91 225.33"/>
</g>
</svg>