<?xml version="1.0"?>
<svg xmlns="http://www.w3.org/2000/svg" version="1.2" baseProfile="tiny" width="800" height="532" viewBox="0 0 800 532" stroke-linecap="round" stroke-linejoin="round">
<g id="8" fill="none" stroke="black" stroke-width="1">
<path d="M 63.17 277.46 63.72 275.53 M 64.17 273.96 64.65 272.3 M 65.12 270.64 65.65 268.8 M 117.94 86.71 118.47 84.87 M 118.95 83.21 119.42 81.56 M 119.9 79.9 120.43 78.06 M 508.29 453.96 521.3 408.64 M 523.78 399.98 576.07 217.89 M 578.56 209.24 591.57 163.92 M 499.62 451.47 512.63 406.16 M 515.11 397.5 567.4 215.41 M 569.89 206.75 582.9 161.44 M 582.9 161.44 584.84 161.99 M 586.41 162.44 588.07 162.92 M 589.73 163.39 591.57 163.92 M 499.62 451.47 501.55 452.03 M 503.12 452.48 504.78 452.95 M 506.44 453.43 508.29 453.96 M 63.17 277.46 673.02 452.09 M 65.65 268.8 675.51 443.43 M 117.94 86.71 727.8 261.34 M 120.43 78.06 730.28 252.68 M 127.08 344.8 140.09 299.49 M 142.58 290.83 194.86 108.74 M 197.35 100.08 210.36 54.77 M 118.41 342.32 131.42 297 M 133.91 288.35 186.19 106.26 M 188.68 97.6 201.69 52.29 M 201.69 52.29 203.54 52.81 M 205.2 53.29 206.86 53.76 M 208.43 54.21 210.36 54.77 M 118.41 342.32 120.25 342.85 M 121.91 343.32 123.57 343.8 M 125.14 344.25 127.08 344.8 M 174.42 98.6 180.47 95.25 M 174.48 102.9 185.73 96.75 M 179.74 104.41 190.99 98.26 M 185 105.91 196.15 99.74 M 190.16 107.39 201.41 101.24 M 195.42 108.9 206.57 102.72 M 200.58 110.38 209.81 105.35 M 205.84 111.88 208.33 110.5 M 175.77 93.9 210.26 103.78 M 173.28 102.56 207.78 112.44 M 120.99 284.65 155.49 294.53 M 118.51 293.31 153 303.18 M 638.25 442.13 640.74 433.47 M 693.03 251.38 695.51 242.72 M 597.32 189.09 597.78 187.13 M 597.78 187.13 597.94 185.18 M 597.94 185.18 597.92 183.18 M 597.92 183.18 597.66 181.31 M 597.66 181.31 597.21 179.39 M 597.21 179.39 596.55 177.51 M 596.55 177.51 595.57 175.73 M 595.57 175.73 594.53 174.14 M 594.53 174.14 593.16 172.65 M 593.16 172.65 591.76 171.25 M 591.76 171.25 590.19 170.11 M 590.19 170.11 588.45 169.21 M 588.45 169.21 586.6 168.38 M 586.6 168.38 584.75 167.85 M 584.75 167.85 582.74 167.57 M 582.74 167.57 580.79 167.41 M 580.79 167.41 578.85 167.55 M 578.85 167.55 576.83 167.97 M 576.83 167.97 574.97 168.54 M 574.97 168.54 573.24 169.34 M 573.24 169.34 571.46 170.32 M 571.46 170.32 569.91 171.57 M 569.91 171.57 568.51 172.97 M 568.51 172.97 567.3 174.41 M 567.3 174.41 566.21 176.1 M 566.21 176.1 565.32 177.83 M 565.32 177.83 564.67 179.74 M 564.67 179.74 564.2 181.7 M 564.2 181.7 564.04 183.65 M 564.04 183.65 564.07 185.65 M 564.07 185.65 564.33 187.52 M 564.33 187.52 564.78 189.44 M 564.78 189.44 565.43 191.32 M 565.43 191.32 566.42 193.1 M 566.42 193.1 567.46 194.7 M 567.46 194.7 568.74 196.16 M 568.74 196.16 570.23 197.58 M 570.23 197.58 571.79 198.73 M 571.79 198.73 573.53 199.62 M 573.53 199.62 575.39 200.45 M 575.39 200.45 577.23 200.98 M 577.23 200.98 579.25 201.26 M 579.25 201.26 581.2 201.42 M 581.2 201.42 583.14 201.28 M 583.14 201.28 585.06 200.83 M 585.06 200.83 587.01 200.29 M 587.01 200.29 588.74 199.49 M 588.74 199.49 590.52 198.51 M 590.52 198.51 592.08 197.26 M 592.08 197.26 593.48 195.87 M 593.48 195.87 594.69 194.42 M 594.69 194.42 595.77 192.74 M 595.77 192.74 596.67 191 M 596.67 191 597.32 189.09 M 526.52 435.65 526.98 433.69 M 526.98 433.69 527.14 431.74 M 527.14 431.74 527.12 429.74 M 527.12 429.74 526.85 427.87 M 526.85 427.87 526.41 425.95 M 526.41 425.95 525.75 424.07 M 525.75 424.07 524.76 422.29 M 524.76 422.29 523.72 420.7 M 523.72 420.7 522.36 419.21 M 522.36 419.21 520.96 417.81 M 520.96 417.81 519.39 416.67 M 519.39 416.67 517.65 415.77 M 517.65 415.77 515.8 414.94 M 515.8 414.94 513.95 414.41 M 513.95 414.41 511.93 414.13 M 511.93 414.13 509.98 413.97 M 509.98 413.97 508.05 414.12 M 508.05 414.12 506.03 414.54 M 506.03 414.54 504.17 415.1 M 504.17 415.1 502.44 415.9 M 502.44 415.9 500.66 416.89 M 500.66 416.89 499.11 418.13 M 499.11 418.13 497.71 419.53 M 497.71 419.53 496.49 420.98 M 496.49 420.98 495.41 422.66 M 495.41 422.66 494.51 424.4 M 494.51 424.4 493.87 426.3 M 493.87 426.3 493.4 428.26 M 493.4 428.26 493.24 430.21 M 493.24 430.21 493.27 432.21 M 493.27 432.21 493.53 434.08 M 493.53 434.08 493.98 436 M 493.98 436 494.63 437.89 M 494.63 437.89 495.62 439.66 M 495.62 439.66 496.66 441.26 M 496.66 441.26 497.94 442.72 M 497.94 442.72 499.42 444.14 M 499.42 444.14 500.99 445.29 M 500.99 445.29 502.73 446.18 M 502.73 446.18 504.59 447.02 M 504.59 447.02 506.43 447.54 M 506.43 447.54 508.45 447.82 M 508.45 447.82 510.4 447.98 M 510.4 447.98 512.34 447.84 M 512.34 447.84 514.26 447.39 M 514.26 447.39 516.21 446.86 M 516.21 446.86 517.94 446.05 M 517.94 446.05 519.72 445.07 M 519.72 445.07 521.28 443.82 M 521.28 443.82 522.68 442.43 M 522.68 442.43 523.89 440.98 M 523.89 440.98 524.97 439.3 M 524.97 439.3 525.87 437.56 M 525.87 437.56 526.52 435.65 M 145.31 326.5 145.77 324.54 M 145.77 324.54 145.93 322.59 M 145.93 322.59 145.91 320.59 M 145.91 320.59 145.65 318.72 M 145.65 318.72 145.2 316.8 M 145.2 316.8 144.54 314.92 M 144.54 314.92 143.56 313.14 M 143.56 313.14 142.52 311.54 M 142.52 311.54 141.15 310.06 M 141.15 310.06 139.75 308.66 M 139.75 308.66 138.19 307.51 M 138.19 307.51 136.45 306.62 M 136.45 306.62 134.59 305.79 M 134.59 305.79 132.74 305.26 M 132.74 305.26 130.73 304.98 M 130.73 304.98 128.78 304.82 M 128.78 304.82 126.84 304.96 M 126.84 304.96 124.82 305.38 M 124.82 305.38 122.96 305.95 M 122.96 305.95 121.24 306.75 M 121.24 306.75 119.46 307.73 M 119.46 307.73 117.9 308.98 M 117.9 308.98 116.5 310.37 M 116.5 310.37 115.29 311.82 M 115.29 311.82 114.21 313.51 M 114.21 313.51 113.31 315.24 M 113.31 315.24 112.66 317.15 M 112.66 317.15 112.2 319.11 M 112.2 319.11 112.04 321.06 M 112.04 321.06 112.06 323.06 M 112.06 323.06 112.32 324.93 M 112.32 324.93 112.77 326.85 M 112.77 326.85 113.43 328.73 M 113.43 328.73 114.41 330.51 M 114.41 330.51 115.45 332.1 M 115.45 332.1 116.73 333.57 M 116.73 333.57 118.22 334.99 M 118.22 334.99 119.79 336.13 M 119.79 336.13 121.52 337.03 M 121.52 337.03 123.38 337.86 M 123.38 337.86 125.23 338.39 M 125.23 338.39 127.24 338.67 M 127.24 338.67 129.19 338.83 M 129.19 338.83 131.13 338.69 M 131.13 338.69 133.06 338.24 M 133.06 338.24 135.01 337.7 M 135.01 337.7 136.73 336.9 M 136.73 336.9 138.51 335.92 M 138.51 335.92 140.07 334.67 M 140.07 334.67 141.47 333.27 M 141.47 333.27 142.68 331.83 M 142.68 331.83 143.77 330.14 M 143.77 330.14 144.66 328.41 M 144.66 328.41 145.31 326.5 M 216.11 79.94 216.58 77.98 M 216.58 77.98 216.74 76.03 M 216.74 76.03 216.71 74.03 M 216.71 74.03 216.45 72.16 M 216.45 72.16 216 70.24 M 216 70.24 215.35 68.35 M 215.35 68.35 214.36 66.58 M 214.36 66.58 213.32 64.98 M 213.32 64.98 211.95 63.5 M 211.95 63.5 210.55 62.1 M 210.55 62.1 208.99 60.95 M 208.99 60.95 207.25 60.06 M 207.25 60.06 205.39 59.22 M 205.39 59.22 203.55 58.7 M 203.55 58.7 201.53 58.42 M 201.53 58.42 199.58 58.26 M 199.58 58.26 197.64 58.4 M 197.64 58.4 195.62 58.82 M 195.62 58.82 193.77 59.38 M 193.77 59.38 192.04 60.19 M 192.04 60.19 190.26 61.17 M 190.26 61.17 188.7 62.42 M 188.7 62.42 187.3 63.81 M 187.3 63.81 186.09 65.26 M 186.09 65.26 185.01 66.94 M 185.01 66.94 184.11 68.68 M 184.11 68.68 183.46 70.59 M 183.46 70.59 183 72.55 M 183 72.55 182.84 74.5 M 182.84 74.5 182.86 76.5 M 182.86 76.5 183.12 78.37 M 183.12 78.37 183.57 80.29 M 183.57 80.29 184.23 82.17 M 184.23 82.17 185.21 83.95 M 185.21 83.95 186.25 85.54 M 186.25 85.54 187.53 87 M 187.53 87 189.02 88.43 M 189.02 88.43 190.59 89.57 M 190.59 89.57 192.33 90.47 M 192.33 90.47 194.18 91.3 M 194.18 91.3 196.03 91.83 M 196.03 91.83 198.04 92.11 M 198.04 92.11 199.99 92.27 M 199.99 92.27 201.93 92.12 M 201.93 92.12 203.86 91.68 M 203.86 91.68 205.81 91.14 M 205.81 91.14 207.54 90.34 M 207.54 90.34 209.32 89.35 M 209.32 89.35 210.87 88.11 M 210.87 88.11 212.27 86.71 M 212.27 86.71 213.48 85.27 M 213.48 85.27 214.57 83.58 M 214.57 83.58 215.46 81.85 M 215.46 81.85 216.11 79.94 M 673.02 452.09 675.51 443.43 M 730.28 252.68 727.8 261.34 M 727.8 261.34 693.03 251.38 M 695.51 242.72 730.28 252.68 M 673.02 452.09 638.25 442.13 M 640.74 433.47 675.51 443.43 M 686.55 350.4 701.03 354.55 M 702.28 350.22 687.8 346.07 M 687.8 346.07 686.55 350.4 M 683.22 362.01 697.7 366.15 M 698.94 361.82 684.46 357.68 M 684.46 357.68 683.22 362.01 M 679.89 373.61 694.37 377.76 M 695.61 373.43 681.13 369.28 M 681.13 369.28 679.89 373.61 M 676.55 385.22 691.04 389.36 M 692.28 385.03 677.8 380.89 M 677.8 380.89 676.55 385.22 M 673.22 396.82 687.7 400.97 M 688.95 396.64 674.47 392.49 M 674.47 392.49 673.22 396.82 M 669.89 408.43 684.37 412.57 M 685.61 408.24 671.13 404.1 M 671.13 404.1 669.89 408.43 M 666.56 420.03 681.04 424.18 M 682.28 419.85 667.8 415.7 M 667.8 415.7 666.56 420.03 M 663.22 431.64 677.71 435.78 M 678.95 431.45 664.47 427.31 M 664.47 427.31 663.22 431.64 M 691.13 334.47 705.61 338.61 M 704.37 342.94 689.88 338.8 M 689.88 338.8 691.13 334.47 M 694.46 322.86 708.94 327.01 M 707.7 331.34 693.22 327.19 M 693.22 327.19 694.46 322.86 M 697.79 311.26 712.27 315.4 M 711.03 319.73 696.55 315.59 M 696.55 315.59 697.79 311.26 M 701.12 299.65 715.61 303.8 M 714.36 308.13 699.88 303.98 M 699.88 303.98 701.12 299.65 M 704.46 288.05 718.94 292.19 M 717.7 296.52 703.21 292.38 M 703.21 292.38 704.46 288.05 M 707.79 276.44 722.27 280.59 M 721.03 284.92 706.55 280.77 M 706.55 280.77 707.79 276.44 M 709.97 269.19 715.55 266.1 M 717.26 271.28 722.93 268.22 M 712.37 269.88 718.04 266.82 M 719.75 271.99 725.33 268.9 M 711.12 264.84 725.6 268.98 M 724.36 273.31 709.88 269.17 M 709.88 269.17 711.12 264.84 M 724.36 273.31 725.19 273.55 M 726.85 274.03 728.51 274.5 M 730.17 274.98 730.91 275.19 M 721.03 284.92 721.86 285.15 M 723.52 285.63 725.18 286.11 M 726.84 286.58 727.58 286.79 M 714.36 308.13 715.19 308.37 M 716.85 308.84 718.51 309.32 M 720.17 309.79 720.91 310 M 711.03 319.73 711.86 319.97 M 713.52 320.45 715.18 320.92 M 716.84 321.4 717.58 321.61 M 704.37 342.94 705.2 343.18 M 706.86 343.66 708.52 344.13 M 710.18 344.61 710.91 344.82 M 697.7 366.15 698.53 366.39 M 700.19 366.87 701.85 367.34 M 703.51 367.82 704.25 368.03 M 691.04 389.36 691.87 389.6 M 693.53 390.08 695.19 390.55 M 696.85 391.03 697.58 391.24 M 687.7 400.97 688.53 401.21 M 690.19 401.68 691.85 402.16 M 693.51 402.63 694.25 402.84 M 681.04 424.18 681.87 424.42 M 683.53 424.89 685.19 425.37 M 686.85 425.84 687.59 426.05 M 677.71 435.78 678.54 436.02 M 680.2 436.5 681.86 436.97 M 683.52 437.45 684.25 437.66 M 717.7 296.52 718.53 296.76 M 720.19 297.24 721.85 297.71 M 723.51 298.19 724.24 298.4 M 707.7 331.34 708.53 331.58 M 710.19 332.05 711.85 332.53 M 713.51 333 714.25 333.21 M 701.03 354.55 701.86 354.79 M 703.52 355.26 705.18 355.74 M 706.84 356.21 707.58 356.42 M 694.37 377.76 695.2 378 M 696.86 378.47 698.52 378.95 M 700.18 379.42 700.92 379.63 M 684.37 412.57 685.2 412.81 M 686.86 413.29 688.52 413.76 M 690.18 414.24 690.92 414.45 M 679.57 453.96 678.84 453.75 M 677.18 453.27 675.51 452.8 M 673.85 452.32 673.02 452.09 M 675.51 443.43 676.34 443.67 M 678 444.14 679.66 444.62 M 681.32 445.09 682.06 445.3 M 734.35 263.21 733.61 263 M 731.95 262.53 730.29 262.05 M 728.63 261.58 727.8 261.34 M 730.28 252.68 731.11 252.92 M 732.77 253.39 734.43 253.87 M 736.1 254.34 736.83 254.56 M 538.36 413.53 529.69 411.04 M 529.69 411.04 532.18 402.39 M 532.18 402.39 540.85 404.87 M 540.85 404.87 538.36 413.53 M 155.49 294.53 153 303.18 M 118.51 293.31 120.99 284.65 M 210.26 103.78 207.78 112.44 M 173.28 102.56 175.77 93.9 M 714.34 278.32 716.43 271.04 M 717.67 266.71 719.87 259.07 M 721.62 280.4 723.71 273.13 M 724.96 268.8 727.15 261.15 M 725.6 268.98 726.43 269.22 M 728.09 269.7 729.75 270.17 M 731.41 270.65 732.15 270.86 M 722.27 280.59 723.1 280.83 M 724.76 281.3 726.42 281.78 M 728.08 282.25 728.82 282.46 M 718.94 292.19 719.77 292.43 M 721.43 292.91 723.09 293.38 M 724.75 293.86 725.49 294.07 M 715.61 303.8 716.44 304.04 M 718.1 304.51 719.76 304.99 M 721.42 305.46 722.15 305.67 M 712.27 315.4 713.1 315.64 M 714.76 316.12 716.42 316.59 M 718.08 317.07 718.82 317.28 M 708.94 327.01 709.77 327.25 M 711.43 327.72 713.09 328.2 M 714.75 328.67 715.49 328.88 M 705.61 338.61 706.44 338.85 M 708.1 339.33 709.76 339.8 M 711.42 340.28 712.16 340.49 M 702.28 350.22 703.11 350.46 M 704.77 350.93 706.43 351.41 M 708.09 351.88 708.82 352.09 M 698.94 361.82 699.77 362.06 M 701.43 362.54 703.09 363.01 M 704.75 363.49 705.49 363.7 M 695.61 373.43 696.44 373.67 M 698.1 374.14 699.76 374.62 M 701.42 375.09 702.16 375.3 M 692.28 385.03 693.11 385.27 M 694.77 385.75 696.43 386.22 M 698.09 386.7 698.83 386.91 M 688.95 396.64 689.78 396.88 M 691.44 397.35 693.1 397.83 M 694.76 398.3 695.49 398.51 M 685.61 408.24 686.44 408.48 M 688.1 408.96 689.76 409.43 M 691.42 409.91 692.16 410.12 M 682.28 419.85 683.11 420.09 M 684.77 420.56 686.43 421.04 M 688.09 421.51 688.83 421.72 M 678.95 431.45 679.78 431.69 M 681.44 432.17 683.1 432.64 M 684.76 433.12 685.5 433.33 M 725.6 268.98 677.71 435.78 M 711.01 289.92 713.1 282.65 M 718.29 292.01 720.38 284.73 M 707.67 301.53 709.76 294.25 M 714.96 303.61 717.05 296.34 M 704.34 313.13 706.43 305.86 M 711.63 315.22 713.72 307.94 M 701.01 324.74 703.1 317.46 M 708.3 326.82 710.38 319.55 M 697.68 336.34 699.77 329.07 M 704.96 338.43 707.05 331.15 M 694.34 347.95 696.43 340.67 M 701.63 350.03 703.72 342.76 M 691.01 359.55 693.1 352.28 M 698.3 361.64 700.39 354.36 M 687.68 371.16 689.77 363.88 M 694.97 373.24 697.05 365.97 M 684.35 382.76 686.44 375.49 M 691.63 384.85 693.72 377.57 M 681.01 394.37 683.1 387.09 M 688.3 396.45 690.39 389.18 M 677.68 405.97 679.77 398.7 M 684.97 408.06 687.06 400.78 M 674.35 417.58 676.44 410.3 M 681.64 419.66 683.72 412.39 M 671.02 429.18 673.11 421.91 M 678.3 431.27 680.39 423.99 M 667.58 441.16 669.77 433.51 M 674.86 443.24 677.06 435.6 M 95.34 1 1 329.53 M 1 329.53 704.66 531.02 M 704.66 531.02 799 202.48 M 799 202.48 95.34 1 M 702.12 526.3 5.75 326.91 M 5.75 326.91 98 5.65 M 98 5.65 794.37 205.05 M 794.37 205.05 702.12 526.3 M 700.52 523.55 8.48 325.39 M 8.48 325.39 99.48 8.47 M 99.48 8.47 791.52 206.62 M 791.52 206.62 700.52 523.55 M 730.91 275.19 731.31 273.81 M 731.75 272.24 732.15 270.86 M 734.35 263.21 734.88 261.37 M 735.35 259.71 735.83 258.06 M 736.3 256.4 736.83 254.56 M 727.58 286.79 727.97 285.41 M 728.42 283.85 728.82 282.46 M 724.24 298.4 724.64 297.02 M 725.09 295.45 725.49 294.07 M 720.91 310 721.31 308.62 M 721.76 307.06 722.15 305.67 M 717.58 321.61 717.98 320.23 M 718.43 318.66 718.82 317.28 M 714.25 333.21 714.64 331.83 M 715.09 330.27 715.49 328.88 M 710.91 344.82 711.31 343.44 M 711.76 341.87 712.16 340.49 M 707.58 356.42 707.98 355.04 M 708.43 353.48 708.82 352.09 M 704.25 368.03 704.65 366.65 M 705.1 365.08 705.49 363.7 M 700.92 379.63 701.31 378.25 M 701.76 376.69 702.16 375.3 M 697.58 391.24 697.98 389.86 M 698.43 388.29 698.83 386.91 M 694.25 402.84 694.65 401.46 M 695.12 399.8 695.49 398.51 M 690.92 414.45 691.32 413.07 M 691.79 411.41 692.16 410.12 M 687.59 426.05 687.98 424.67 M 688.46 423.01 688.83 421.72 M 684.25 437.66 684.65 436.28 M 685.13 434.62 685.5 433.33 M 679.57 453.96 680.13 452.03 M 680.58 450.46 681.05 448.8 M 681.53 447.14 682.06 445.3 M 700.52 523.55 702.12 526.3 M 791.52 206.62 794.37 205.05 M 99.48 8.47 98 5.65 M 8.48 325.39 5.75 326.91 M 597.76 266.47 583.09 262.27 M 573.32 259.47 162.04 141.7 M 581.31 323.75 566.64 319.56 M 556.87 316.76 145.59 198.99 M 581.31 323.75 597.76 266.47 M 580.91 323.74 597.39 266.36 M 508.63 302.94 525.08 245.66 M 508.26 302.84 524.71 245.55 M 442.96 284.14 459.41 226.85 M 442.59 284.03 459.04 226.75 M 370.09 263.28 386.54 205.99 M 369.72 263.17 386.17 205.88 M 298.06 242.65 314.51 185.36 M 297.69 242.54 314.14 185.25 M 229.89 223.13 246.34 165.84 M 229.52 223.03 245.98 165.74 M 145.96 199.1 162.41 141.81 M 145.59 198.99 162.04 141.7 M 582.29 318.95 567.99 314.86 M 558.22 312.06 509.98 298.25 M 509.61 298.14 147.31 194.4 M 596.01 271.15 581.72 267.06 M 571.94 264.26 523.7 250.44 M 523.33 250.34 161.04 146.6 M 572.68 261.68 542.52 253.04 M 542.52 253.04 543.16 250.83 M 543.16 250.83 573.32 259.47 M 583.09 262.27 597.76 266.47 M 597.76 266.47 597.12 268.68 M 597.12 268.68 582.46 264.48 M 557.47 314.64 527.31 306 M 527.31 306 526.71 308.12 M 526.71 308.12 556.87 316.76 M 566.64 319.56 570.24 320.59 M 570.24 320.59 570.85 318.47 M 570.85 318.47 567.25 317.44 M 561.94 318.21 556.87 316.76 M 556.87 316.76 573.32 259.47 M 573.32 259.47 578.39 260.92 M 578.39 260.92 561.94 318.21 M 582.55 264.5 566.64 319.56 M 559.36 317.47 550.5 348.32 M 550.5 348.32 557.78 350.41 M 557.78 350.41 589.02 241.64 M 589.02 241.64 603.68 245.84 M 603.68 245.84 609.93 224.1 M 609.93 224.1 587.97 217.81 M 587.97 217.81 575.81 260.18 M 132.77 308.65 127.59 308.27 M 127.59 308.27 122.31 309.95 M 122.31 309.95 118.44 313.02 M 118.44 313.02 115.8 318.05 M 115.8 318.05 115.32 323.19 M 115.32 323.19 116.93 328.34 M 116.93 328.34 120.36 332.41 M 120.36 332.41 125.2 334.99 M 125.2 334.99 130.26 335.45 M 130.26 335.45 135.66 333.7 M 135.66 333.7 139.44 330.6 M 139.44 330.6 142.17 325.6 M 142.17 325.6 142.54 320.52 M 142.54 320.52 140.97 315.19 M 140.97 315.19 137.62 311.24 M 137.62 311.24 132.77 308.65 M 513.97 417.81 508.89 417.45 M 508.89 417.45 503.52 419.1 M 503.52 419.1 499.74 422.2 M 499.74 422.2 497 427.2 M 497 427.2 496.52 432.35 M 496.52 432.35 498.14 437.49 M 498.14 437.49 501.56 441.56 M 501.56 441.56 506.41 444.15 M 506.41 444.15 511.47 444.6 M 511.47 444.6 516.96 442.88 M 516.96 442.88 520.74 439.78 M 520.74 439.78 523.38 434.75 M 523.38 434.75 523.83 429.7 M 523.83 429.7 522.18 424.34 M 522.18 424.34 518.82 420.39 M 518.82 420.39 513.97 417.81 M 584.78 171.25 579.69 170.89 M 579.69 170.89 574.35 172.45 M 574.35 172.45 570.54 175.64 M 570.54 175.64 567.8 180.64 M 567.8 180.64 567.32 185.79 M 567.32 185.79 568.94 190.93 M 568.94 190.93 572.36 195 M 572.36 195 577.21 197.59 M 577.21 197.59 582.27 198.04 M 582.27 198.04 587.76 196.32 M 587.76 196.32 591.54 193.22 M 591.54 193.22 594.18 188.19 M 594.18 188.19 594.64 183.14 M 594.64 183.14 592.98 177.78 M 592.98 177.78 589.62 173.83 M 589.62 173.83 584.78 171.25 M 187.72 69.32 201.13 61.89 M 186.33 74.5 206.15 63.53 M 186.75 78.61 209.54 65.99 M 188.09 82.28 211.94 69.08 M 190.62 85.3 213.05 72.88 M 194.36 87.56 213.11 77.18 M 200.09 88.81 211.01 82.76 M 203.57 62.09 198.39 61.71 M 198.39 61.71 193.14 63.29 M 193.14 63.29 189.24 66.46 M 189.24 66.46 186.6 71.49 M 186.6 71.49 186.12 76.63 M 186.12 76.63 187.73 81.78 M 187.73 81.78 191.16 85.85 M 191.16 85.85 196 88.43 M 196 88.43 201.07 88.89 M 201.07 88.89 206.46 87.14 M 206.46 87.14 210.24 84.04 M 210.24 84.04 212.98 79.04 M 212.98 79.04 213.34 73.96 M 213.34 73.96 211.77 68.63 M 211.77 68.63 208.42 64.68 M 208.42 64.68 203.57 62.09 M 302.24 345.92 293.48 343.41 M 293.48 343.41 295.96 334.75 M 295.96 334.75 304.73 337.26 M 304.73 337.26 302.24 345.92 M 155.04 296.09 153.48 301.53 M 153.48 301.53 157.82 302.77 M 157.82 302.77 159.38 297.33 M 159.38 297.33 155.04 296.09 M 153.48 301.53 293.95 341.75 M 153 303.18 293.48 343.41 M 223.11 315.58 221.55 321.02 M 221.55 321.02 225.88 322.26 M 225.88 322.26 227.44 316.82 M 227.44 316.82 223.11 315.58 M 291.18 335.07 289.62 340.51 M 293.95 341.75 295.51 336.31 M 295.51 336.31 291.18 335.07 M 190.74 312.2 188.62 311.59 M 188.62 311.59 189.23 309.47 M 189.23 309.47 191.35 310.08 M 191.35 310.08 190.74 312.2 M 258.81 331.69 256.69 331.08 M 256.69 331.08 257.3 328.96 M 257.3 328.96 259.42 329.57 M 259.42 329.57 258.81 331.69 M 222.16 318.9 158.42 300.65 M 290.23 338.39 226.49 320.14 M 222.48 317.79 158.74 299.54 M 290.54 337.28 226.81 319.03 M 189.55 308.36 190.18 306.15 M 190.18 306.15 192.3 306.76 M 192.3 306.76 191.67 308.97 M 159.38 297.33 190.18 306.15 M 192.3 306.76 223.11 315.58 M 155.49 294.53 295.96 334.75 M 227.44 316.82 291.18 335.07 M 116.92 315.88 130.33 308.45 M 115.53 321.06 135.35 310.09 M 115.95 325.17 138.73 312.55 M 117.29 328.84 141.14 315.64 M 119.82 331.86 142.25 319.44 M 123.56 334.12 142.31 323.74 M 129.29 335.37 140.21 329.32 M 498.22 425.06 511.63 417.63 M 496.74 430.21 516.56 419.24 M 497.25 434.35 519.94 421.71 M 498.59 438.02 522.35 424.79 M 501.02 441.01 523.45 428.59 M 504.86 443.3 523.52 432.9 M 510.5 444.52 521.41 438.48 M 569.02 178.5 582.43 171.07 M 567.54 183.65 587.36 172.68 M 568.05 187.79 590.74 175.15 M 569.39 191.46 593.15 178.23 M 571.82 194.45 594.25 182.03 M 575.66 196.74 594.32 186.34 M 581.3 197.96 592.22 191.92 M 119.65 289.35 125.7 286 M 119.71 293.65 130.96 287.5 M 124.96 295.16 136.21 289.01 M 130.22 296.66 141.38 290.49 M 135.39 298.14 146.64 291.99 M 140.64 299.65 151.8 293.47 M 145.81 301.12 155.07 296 M 151.07 302.63 153.56 301.25 M 639.57 438.22 645.63 434.87 M 639.64 442.52 650.88 436.38 M 644.89 444.03 656.05 437.85 M 650.06 445.51 661.31 439.36 M 655.32 447.01 666.47 440.84 M 660.48 448.49 671.73 442.34 M 665.74 450 675 444.87 M 671 451.5 673.49 450.12 M 694.35 247.47 700.4 244.12 M 694.41 251.78 705.66 245.63 M 699.67 253.28 710.82 247.11 M 704.83 254.76 716.08 248.61 M 710.09 256.27 721.25 250.09 M 715.25 257.75 726.5 251.6 M 720.51 259.25 729.74 254.22 M 725.77 260.76 728.26 259.38 M 532.12 402.57 532.36 402.44 M 530.14 409.48 539.37 404.45 M 535.13 412.6 539.31 410.21 M 531.46 404.87 534.76 403.13 M 530.43 411.25 540.64 405.61 M 537.44 413.26 538.65 412.51 M 722.8 262.4 722.14 262.61 M 722.14 262.61 721.96 263.25 M 721.96 263.25 722.41 263.78 M 722.41 263.78 723.16 263.6 M 723.16 263.6 723.34 262.95 M 723.34 262.95 722.8 262.4 M 705.85 321.44 705.19 321.65 M 705.19 321.65 705 322.29 M 705 322.29 705.45 322.82 M 705.45 322.82 706.2 322.64 M 706.2 322.64 706.39 321.99 M 706.39 321.99 705.85 321.44 M 689.19 379.46 688.55 379.58 M 688.55 379.58 688.34 380.32 M 688.34 380.32 688.79 380.85 M 688.79 380.85 689.54 380.66 M 689.54 380.66 689.75 379.92 M 689.75 379.92 689.19 379.46 M 672.26 438.41 671.6 438.62 M 671.6 438.62 671.39 439.36 M 671.39 439.36 671.84 439.88 M 671.84 439.88 672.59 439.7 M 672.59 439.7 672.8 438.96 M 672.8 438.96 672.26 438.41 M 296.1 334.99 296.43 334.88 M 294.11 341.89 303.34 336.86 M 299.1 345.02 303.38 342.65 M 295.43 337.29 298.73 335.54 M 294.49 343.7 304.7 338.05 M 301.41 345.68 302.72 344.96 M 706.64 280.8 712.22 277.71 M 713.93 282.88 719.6 279.82 M 709.04 281.48 714.71 278.42 M 716.42 283.6 721.99 280.51 M 703.31 292.4 708.88 289.31 M 710.59 294.49 716.26 291.43 M 705.7 293.09 711.37 290.03 M 713.08 295.2 718.66 292.11 M 699.97 304.01 705.55 300.92 M 707.26 306.09 712.93 303.03 M 702.37 304.69 708.04 301.63 M 709.75 306.81 715.33 303.72 M 696.64 315.61 702.22 312.52 M 703.93 317.7 709.6 314.64 M 699.04 316.3 704.71 313.24 M 706.42 318.41 712 315.32 M 693.31 327.22 698.89 324.13 M 700.6 329.3 706.27 326.24 M 695.71 327.9 701.38 324.84 M 703.09 330.02 708.66 326.93 M 689.98 338.82 695.55 335.73 M 697.26 340.91 702.93 337.85 M 692.37 339.51 698.05 336.45 M 699.75 341.62 705.33 338.53 M 686.64 350.43 692.22 347.34 M 693.93 352.51 699.6 349.45 M 689.04 351.11 694.71 348.05 M 696.42 353.23 702 350.14 M 683.31 362.03 688.89 358.94 M 690.6 364.12 696.27 361.06 M 685.71 362.72 691.38 359.66 M 693.09 364.83 698.67 361.74 M 679.98 373.64 685.56 370.55 M 687.27 375.72 692.94 372.66 M 682.38 374.32 688.05 371.26 M 689.76 376.44 695.33 373.35 M 676.65 385.24 682.22 382.16 M 683.93 387.33 689.6 384.27 M 679.04 385.93 684.72 382.87 M 686.42 388.04 692 384.95 M 673.31 396.85 678.89 393.76 M 680.6 398.93 686.27 395.87 M 675.71 397.53 681.38 394.47 M 683.09 399.65 688.67 396.56 M 669.98 408.45 675.56 405.37 M 677.27 410.54 682.94 407.48 M 672.38 409.14 678.05 406.08 M 679.76 411.25 685.34 408.16 M 666.65 420.06 672.23 416.97 M 673.94 422.14 679.61 419.08 M 669.05 420.74 674.72 417.68 M 676.43 422.86 682 419.77 M 663.32 431.66 668.9 428.58 M 670.6 433.75 676.27 430.69 M 665.72 432.35 671.39 429.29 M 673.09 434.46 678.67 431.37"/>
</g>
</svg>