<?xml version="1.0"?>
<svg xmlns="http://www.w3.org/2000/svg" version="1.2" baseProfile="tiny" width="800" height="673" viewBox="0 0 800 673" stroke-linecap="round" stroke-linejoin="round">
<g id="木立のこみち" fill="none" stroke="black" stroke-width="1">
<path d="M 686.11 664.18 685.97 664.06"/>
<path d="M 687.8 663.01 685.24 663.22"/>
<path d="M 689.23 661.86 684.62 662.24"/>
<path d="M 690.92 660.68 690.8 660.82"/>
<path d="M 690.8 660.82 684 661.26"/>
<path d="M 692.24 659.67 689.67 659.88"/>
<path d="M 684.03 660.36 683.26 660.42"/>
<path d="M 689.67 659.88 684.15 660.22"/>
<path d="M 691.61 658.69 688.54 658.95"/>
<path d="M 682.64 659.44 685.72 659.18"/>
<path d="M 685.72 659.18 688.54 658.95"/>
<path d="M 690.99 657.71 687.41 658.01"/>
<path d="M 687.29 658.15 682.02 658.46"/>
<path d="M 687.41 658.01 687.29 658.15"/>
<path d="M 690.26 656.86 688.98 656.97"/>
<path d="M 682.43 657.39 686.41 657.19"/>
<path d="M 686.41 657.19 688.84 656.86"/>
<path d="M 689.64 655.88 685.28 656.25"/>
<path d="M 685.28 656.25 684 656.36"/>
<path d="M 688.76 654.93 685.69 655.18"/>
<path d="M 688.14 653.95 687.26 654.15"/>
<path d="M 732.95 631.21 731.67 631.32"/>
<path d="M 734.64 630.04 731.05 630.34"/>
<path d="M 736.21 629 730.31 629.5"/>
<path d="M 737.9 627.83 729.69 628.52"/>
<path d="M 737.93 626.92 730.87 627.39"/>
<path d="M 730.87 627.39 729.07 627.54"/>
<path d="M 737.31 625.94 732.55 626.21"/>
<path d="M 732.55 626.21 728.34 626.7"/>
<path d="M 736.55 624.85 734.13 625.18"/>
<path d="M 734.13 625.18 727.72 625.72"/>
<path d="M 735.81 624 729.4 624.54"/>
<path d="M 735.19 623.02 730.84 623.39"/>
<path d="M 734.57 622.04 732.52 622.21"/>
<path d="M 778.24 599.54 776.05 599.59"/>
<path d="M 779.79 598.24 775.31 598.75"/>
<path d="M 781.47 597.07 781.36 597.21"/>
<path d="M 775.21 597.73 779.05 597.4"/>
<path d="M 779.05 597.4 781.36 597.21"/>
<path d="M 783.05 596.03 780.23 596.27"/>
<path d="M 774.59 596.74 774.07 596.79"/>
<path d="M 780.23 596.27 778.43 596.42"/>
<path d="M 778.43 596.42 776.12 596.62"/>
<path d="M 782.17 595.08 779.23 595.45"/>
<path d="M 776.16 595.71 773.2 595.83"/>
<path d="M 779.23 595.45 777.81 595.44"/>
<path d="M 777.81 595.44 777.18 595.62"/>
<path d="M 781.55 594.1 778.87 594.45"/>
<path d="M 777.08 594.6 772.58 594.85"/>
<path d="M 778.1 594.51 777.84 594.54"/>
<path d="M 777.7 594.42 777.08 594.6"/>
<path d="M 780.81 593.25 780.42 593.16"/>
<path d="M 776.46 593.62 772.87 593.92"/>
<path d="M 779.28 593.38 776.97 593.58"/>
<path d="M 776.97 593.58 776.46 593.62"/>
<path d="M 780.19 592.27 775.83 592.64"/>
<path d="M 775.83 592.64 774.55 592.75"/>
<path d="M 775.83 592.64 775.72 592.78"/>
<path d="M 779.57 591.29 776.24 591.57"/>
<path d="M 778.84 590.45 777.81 590.54"/>
<path d="M 778.24 599.54 776.05 599.59"/>
<path d="M 779.79 598.24 775.31 598.75"/>
<path d="M 781.47 597.07 781.36 597.21"/>
<path d="M 774.69 597.77 775.21 597.73"/>
<path d="M 775.21 597.73 781.36 597.21"/>
<path d="M 783.05 596.03 780.23 596.27"/>
<path d="M 774.59 596.74 776.12 596.62"/>
<path d="M 776.12 596.62 780.23 596.27"/>
<path d="M 782.17 595.08 779.23 595.45"/>
<path d="M 776.16 595.71 777.04 595.51"/>
<path d="M 777.04 595.51 779.23 595.45"/>
<path d="M 781.55 594.1 778.1 594.51"/>
<path d="M 777.7 594.42 777.84 594.54"/>
<path d="M 777.84 594.54 778.1 594.51"/>
<path d="M 780.81 593.25 779.39 593.24"/>
<path d="M 661.12 672.47 799 575.6"/>
<path d="M 799 575.6 104.72 1"/>
<path d="M 104.72 1 1 126.37"/>
<path d="M 1 126.37 661.12 672.47"/>
<path d="M 662.21 671.74 2.79 126.22"/>
<path d="M 798.03 576.19 104.9 2.79"/>
<path d="M 104.9 2.79 2.79 126.22"/>
<path d="M 11.28 115.96 673.39 663.7"/>
<path d="M 676.08 665.93 675.97 666.07"/>
<path d="M 273.02 141.86 258.1 159.89"/>
<path d="M 253.86 165.03 189.95 242.27"/>
<path d="M 185.82 247.27 170.79 265.43"/>
<path d="M 448.92 287.38 434 305.41"/>
<path d="M 429.76 310.54 365.85 387.79"/>
<path d="M 361.72 392.78 346.69 410.95"/>
<path d="M 624.82 432.9 541.75 533.31"/>
<path d="M 537.62 538.3 522.59 556.47"/>
<path d="M 798.03 576.19 662.21 671.74"/>
<path d="M 2.79 126.22 19.77 105.7"/>
<path d="M 28.26 95.43 696.04 647.86"/>
<path d="M 698.73 650.09 698.61 650.23"/>
<path d="M 45.36 74.77 718.8 631.88"/>
<path d="M 721.35 633.99 721.49 634.11"/>
<path d="M 62.34 54.24 741.44 616.05"/>
<path d="M 743.99 618.15 743.88 618.29"/>
<path d="M 79.32 33.72 764.09 600.21"/>
<path d="M 766.64 602.32 766.52 602.45"/>
<path d="M 96.41 13.05 786.71 584.11"/>
<path d="M 789.4 586.34 789.28 586.48"/>
<path d="M 91.41 21.99 778.16 590.12"/>
<path d="M 23.26 104.37 687.49 653.87"/>
<path d="M 19.13 109.36 681.94 657.69"/>
<path d="M 772.64 594.2 87.16 27.12"/>
<path d="M 19.13 109.36 23.26 104.37"/>
<path d="M 87.16 27.12 91.41 21.99"/>
<path d="M 743.68 535.2 730.71 550.87"/>
<path d="M 726.47 556 662.56 633.25"/>
<path d="M 658.43 638.24 645.47 653.91"/>
<path d="M 738.58 530.98 725.61 546.65"/>
<path d="M 721.37 551.78 657.46 629.03"/>
<path d="M 653.33 634.02 640.37 649.7"/>
<path d="M 640.37 649.7 645.47 653.91"/>
<path d="M 743.68 535.2 738.58 530.98"/>
<path d="M 108.72 44.03 107.84 44.23"/>
<path d="M 109.53 43.06 106.71 43.29"/>
<path d="M 110.44 41.95 105.71 42.47"/>
<path d="M 111.36 40.84 104.58 41.53"/>
<path d="M 112.28 39.73 103.45 40.6"/>
<path d="M 111.8 38.86 103.85 39.53"/>
<path d="M 110.67 37.93 104.77 38.42"/>
<path d="M 109.53 36.99 105.69 37.31"/>
<path d="M 108.4 36.05 106.49 36.34"/>
<path d="M 107.41 35.23 112.51 39.45"/>
<path d="M 112.51 39.45 108.26 44.58"/>
<path d="M 108.26 44.58 103.16 40.36"/>
<path d="M 103.16 40.36 107.41 35.23"/>
<path d="M 108.26 44.58 107.41 35.23"/>
<path d="M 103.16 40.36 112.51 39.45"/>
<path d="M 221.17 137.05 220.29 137.26"/>
<path d="M 221.98 136.08 219.16 136.32"/>
<path d="M 222.9 134.97 218.02 135.38"/>
<path d="M 223.81 133.86 216.89 134.45"/>
<path d="M 224.73 132.75 215.9 133.63"/>
<path d="M 224.11 131.77 216.31 132.56"/>
<path d="M 222.98 130.84 217.22 131.45"/>
<path d="M 221.99 130.02 218.14 130.34"/>
<path d="M 220.85 129.08 218.94 129.37"/>
<path d="M 219.86 128.26 224.96 132.48"/>
<path d="M 224.96 132.48 220.72 137.61"/>
<path d="M 220.72 137.61 215.62 133.39"/>
<path d="M 215.62 133.39 219.86 128.26"/>
<path d="M 333.48 229.97 332.6 230.17"/>
<path d="M 334.29 228.99 331.47 229.23"/>
<path d="M 335.21 227.89 330.48 228.41"/>
<path d="M 336.12 226.78 329.34 227.47"/>
<path d="M 337.04 225.67 328.21 226.54"/>
<path d="M 336.56 224.8 328.62 225.47"/>
<path d="M 335.43 223.87 329.53 224.36"/>
<path d="M 334.3 222.93 330.45 223.25"/>
<path d="M 333.16 221.99 331.25 222.28"/>
<path d="M 332.17 221.17 337.27 225.39"/>
<path d="M 337.27 225.39 333.03 230.52"/>
<path d="M 333.03 230.52 327.93 226.3"/>
<path d="M 327.93 226.3 332.17 221.17"/>
<path d="M 445.94 322.99 445.05 323.2"/>
<path d="M 446.74 322.02 443.92 322.26"/>
<path d="M 447.66 320.91 442.79 321.32"/>
<path d="M 448.58 319.8 441.65 320.39"/>
<path d="M 449.49 318.69 440.66 319.57"/>
<path d="M 448.87 317.71 441.07 318.5"/>
<path d="M 447.74 316.78 441.99 317.39"/>
<path d="M 446.75 315.96 442.9 316.28"/>
<path d="M 445.62 315.02 443.71 315.31"/>
<path d="M 444.62 314.2 449.72 318.42"/>
<path d="M 449.72 318.42 445.48 323.55"/>
<path d="M 445.48 323.55 440.38 319.33"/>
<path d="M 440.38 319.33 444.62 314.2"/>
<path d="M 558.25 415.91 557.36 416.11"/>
<path d="M 559.05 414.93 556.37 415.29"/>
<path d="M 559.97 413.82 555.24 414.35"/>
<path d="M 560.89 412.72 554.11 413.41"/>
<path d="M 561.8 411.61 552.97 412.48"/>
<path d="M 561.33 410.74 553.38 411.41"/>
<path d="M 560.19 409.81 554.3 410.3"/>
<path d="M 559.06 408.87 555.21 409.19"/>
<path d="M 558.07 408.05 556.02 408.22"/>
<path d="M 556.93 407.11 562.03 411.33"/>
<path d="M 562.03 411.33 557.79 416.46"/>
<path d="M 557.79 416.46 552.69 412.24"/>
<path d="M 552.69 412.24 556.93 407.11"/>
<path d="M 96.8 172.92 96.03 172.98"/>
<path d="M 97.72 171.81 94.9 172.05"/>
<path d="M 98.63 170.7 93.76 171.11"/>
<path d="M 99.44 169.73 92.77 170.29"/>
<path d="M 100.36 168.62 91.64 169.35"/>
<path d="M 99.73 167.64 92.04 168.29"/>
<path d="M 98.74 166.82 92.85 167.31"/>
<path d="M 97.61 165.88 93.76 166.2"/>
<path d="M 96.48 164.94 94.68 165.1"/>
<path d="M 95.49 164.12 100.58 168.34"/>
<path d="M 100.58 168.34 96.45 173.34"/>
<path d="M 96.45 173.34 91.36 169.12"/>
<path d="M 91.36 169.12 95.49 164.12"/>
<path d="M 209.25 265.95 208.34 265.89"/>
<path d="M 210.17 264.84 207.35 265.07"/>
<path d="M 211.09 263.73 206.22 264.14"/>
<path d="M 211.89 262.76 205.08 263.2"/>
<path d="M 212.81 261.65 203.95 262.26"/>
<path d="M 212.19 260.67 204.35 261.2"/>
<path d="M 211.05 259.73 205.16 260.23"/>
<path d="M 209.92 258.79 206.08 259.12"/>
<path d="M 208.93 257.97 206.99 258.01"/>
<path d="M 207.8 257.04 213.04 261.37"/>
<path d="M 213.04 261.37 208.91 266.36"/>
<path d="M 208.91 266.36 203.67 262.03"/>
<path d="M 203.67 262.03 207.8 257.04"/>
<path d="M 321.56 358.86 320.79 358.92"/>
<path d="M 322.48 357.75 319.66 357.99"/>
<path d="M 323.4 356.64 318.53 357.05"/>
<path d="M 324.2 355.67 317.53 356.23"/>
<path d="M 325.12 354.56 316.4 355.29"/>
<path d="M 324.5 353.58 316.81 354.22"/>
<path d="M 323.51 352.76 317.61 353.25"/>
<path d="M 322.37 351.82 318.53 352.14"/>
<path d="M 321.24 350.88 319.45 351.03"/>
<path d="M 320.25 350.06 325.35 354.28"/>
<path d="M 325.35 354.28 321.22 359.27"/>
<path d="M 321.22 359.27 316.12 355.06"/>
<path d="M 316.12 355.06 320.25 350.06"/>
<path d="M 434.01 451.89 433.1 451.83"/>
<path d="M 434.93 450.78 432.11 451.01"/>
<path d="M 435.85 449.67 430.98 450.08"/>
<path d="M 436.65 448.7 429.84 449.14"/>
<path d="M 437.57 447.59 428.85 448.32"/>
<path d="M 436.95 446.61 429.12 447.14"/>
<path d="M 435.82 445.67 429.92 446.17"/>
<path d="M 434.82 444.85 430.84 445.06"/>
<path d="M 433.69 443.91 431.76 443.95"/>
<path d="M 432.56 442.98 437.8 447.31"/>
<path d="M 437.8 447.31 433.67 452.3"/>
<path d="M 433.67 452.3 428.43 447.97"/>
<path d="M 428.43 447.97 432.56 442.98"/>
<path d="M 692.38 659.78 686.11 664.18"/>
<path d="M 686.11 664.18 681.6 658.11"/>
<path d="M 681.6 658.11 687.97 653.57"/>
<path d="M 687.97 653.57 692.38 659.78"/>
<path d="M 782.93 596.17 776.67 600.57"/>
<path d="M 776.67 600.57 772.27 594.36"/>
<path d="M 772.27 594.36 778.53 589.96"/>
<path d="M 778.53 589.96 782.93 596.17"/>
<path d="M 738.38 627.53 732.12 631.93"/>
<path d="M 732.12 631.93 727.72 625.72"/>
<path d="M 727.72 625.72 733.98 621.32"/>
<path d="M 733.98 621.32 738.38 627.53"/>
<path d="M 729.55 628.4 727.58 625.6"/>
<path d="M 689.81 656.26 691.78 659.06"/>
<path d="M 775.93 599.73 737.76 626.55"/>
<path d="M 737.76 626.55 775.93 599.73"/>
<path d="M 731.39 631.09 691.76 658.8"/>
<path d="M 772.27 594.36 733.98 621.32"/>
<path d="M 727.72 625.72 687.97 653.57"/>
<path d="M 650.03 629.66 556.7 552.45"/>
<path d="M 556.7 552.45 559.22 549.39"/>
<path d="M 559.22 549.39 652.55 626.61"/>
<path d="M 650.03 629.66 668.72 645.12"/>
<path d="M 652.55 626.61 671.25 642.07"/>
<path d="M 678.55 653.72 678.18 653.88"/>
<path d="M 679.47 652.61 677.05 652.94"/>
<path d="M 680.27 651.64 679.76 651.68"/>
<path d="M 679.76 651.68 675.91 652"/>
<path d="M 681.19 650.53 678.62 650.74"/>
<path d="M 678.62 650.74 674.92 651.18"/>
<path d="M 681.34 649.48 677.63 649.92"/>
<path d="M 677.63 649.92 673.79 650.25"/>
<path d="M 680.35 648.66 676.5 648.99"/>
<path d="M 676.5 648.99 674.71 649.14"/>
<path d="M 679.21 647.73 675.62 648.03"/>
<path d="M 678.08 646.79 676.43 647.06"/>
<path d="M 681.76 649.83 657.97 630.15"/>
<path d="M 657.97 630.15 657.51 630.71"/>
<path d="M 654.99 633.76 654.53 634.31"/>
<path d="M 654.53 634.31 678.32 654"/>
<path d="M 678.32 654 681.76 649.83"/>
<path d="M 556.7 552.45 463.79 475.59"/>
<path d="M 463.79 475.59 466.31 472.53"/>
<path d="M 466.31 472.53 559.22 549.39"/>
<path d="M 463.79 475.59 445.38 460.35"/>
<path d="M 445.38 460.35 447.9 457.3"/>
<path d="M 447.9 457.3 466.31 472.53"/>
<path d="M 458.97 471.6 458.51 472.16"/>
<path d="M 458.51 472.16 434.72 452.47"/>
<path d="M 439.48 455.94 438.97 455.99"/>
<path d="M 440.4 454.84 437.98 455.17"/>
<path d="M 441.32 453.73 440.55 453.79"/>
<path d="M 440.55 453.79 436.85 454.23"/>
<path d="M 442.24 452.62 439.56 452.97"/>
<path d="M 439.56 452.97 435.71 453.29"/>
<path d="M 442.27 451.71 438.42 452.03"/>
<path d="M 438.42 452.03 434.84 452.33"/>
<path d="M 441.14 450.77 437.29 451.1"/>
<path d="M 437.29 451.1 435.75 451.22"/>
<path d="M 440 449.84 436.56 450.25"/>
<path d="M 438.87 448.9 437.47 449.14"/>
<path d="M 428.18 446.83 428.06 446.97"/>
<path d="M 429.1 445.72 426.93 446.03"/>
<path d="M 429.9 444.75 429.64 444.77"/>
<path d="M 429.64 444.77 425.8 445.09"/>
<path d="M 430.82 443.64 428.51 443.83"/>
<path d="M 428.51 443.83 424.81 444.27"/>
<path d="M 431.22 442.57 427.52 443.01"/>
<path d="M 427.52 443.01 423.67 443.33"/>
<path d="M 430.09 441.63 426.39 442.07"/>
<path d="M 426.39 442.07 424.34 442.25"/>
<path d="M 429.1 440.81 425.25 441.14"/>
<path d="M 427.97 439.88 426.06 440.17"/>
<path d="M 326.36 361.42 324.96 361.67"/>
<path d="M 327.27 360.31 323.83 360.73"/>
<path d="M 328.08 359.34 326.54 359.47"/>
<path d="M 326.54 359.47 322.69 359.8"/>
<path d="M 329 358.23 325.41 358.54"/>
<path d="M 325.41 358.54 321.56 358.86"/>
<path d="M 328.12 357.28 324.27 357.6"/>
<path d="M 324.27 357.6 322.48 357.75"/>
<path d="M 326.99 356.34 323.4 356.64"/>
<path d="M 325.99 355.52 324.2 355.67"/>
<path d="M 316.81 354.22 316.18 354.41"/>
<path d="M 317.61 353.25 315.05 353.47"/>
<path d="M 318.53 352.14 317.76 352.21"/>
<path d="M 317.76 352.21 313.91 352.53"/>
<path d="M 319.45 351.03 316.63 351.27"/>
<path d="M 316.63 351.27 312.92 351.71"/>
<path d="M 319.34 350.01 315.49 350.33"/>
<path d="M 315.49 350.33 312.93 350.55"/>
<path d="M 318.2 349.07 314.5 349.51"/>
<path d="M 314.5 349.51 313.85 349.44"/>
<path d="M 317.21 348.25 314.65 348.47"/>
<path d="M 316.08 347.32 315.57 347.36"/>
<path d="M 434.72 452.47 438.16 448.31"/>
<path d="M 438.16 448.31 461.96 468"/>
<path d="M 461.96 468 461.5 468.55"/>
<path d="M 442.7 452.06 439.25 456.22"/>
<path d="M 431.51 442.81 428.06 446.97"/>
<path d="M 426.97 439.06 423.53 443.22"/>
<path d="M 375.7 402.71 378.22 399.66"/>
<path d="M 329.11 358.1 325.67 362.26"/>
<path d="M 325 354.7 321.56 358.86"/>
<path d="M 407.71 423.12 431.51 442.81"/>
<path d="M 404.27 427.28 428.06 446.97"/>
<path d="M 416.49 436.45 375.7 402.71"/>
<path d="M 378.22 399.66 419.01 433.4"/>
<path d="M 404.27 427.28 404.73 426.73"/>
<path d="M 407.71 423.12 407.25 423.68"/>
<path d="M 416.49 436.45 419.01 433.4"/>
<path d="M 375.7 402.71 333.07 367.44"/>
<path d="M 378.22 399.66 335.59 364.39"/>
<path d="M 347.77 374.47 348.23 373.91"/>
<path d="M 321.56 358.86 344.79 378.07"/>
<path d="M 348.23 373.91 325 354.7"/>
<path d="M 344.79 378.07 345.25 377.52"/>
<path d="M 319.9 350.48 316.46 354.64"/>
<path d="M 315.8 347.08 312.36 351.24"/>
<path d="M 316.46 354.64 293.24 335.43"/>
<path d="M 293.24 335.43 293.69 334.87"/>
<path d="M 296.22 331.82 296.68 331.27"/>
<path d="M 296.68 331.27 319.9 350.48"/>
<path d="M 265.77 306.63 308.4 341.9"/>
<path d="M 308.4 341.9 305.87 344.95"/>
<path d="M 305.87 344.95 263.24 309.68"/>
<path d="M 263.24 309.68 265.77 306.63"/>
<path d="M 263.24 309.68 223.02 276.41"/>
<path d="M 223.02 276.41 225.55 273.36"/>
<path d="M 225.55 273.36 265.77 306.63"/>
<path d="M 236.02 288.09 236.48 287.54"/>
<path d="M 239 284.49 239.46 283.93"/>
<path d="M 210.96 266.19 209.68 266.3"/>
<path d="M 211.76 265.22 209.71 265.39"/>
<path d="M 212.68 264.11 211.4 264.22"/>
<path d="M 211.4 264.22 210.63 264.28"/>
<path d="M 213.6 263 211.55 263.17"/>
<path d="M 212.98 262.02 212.46 262.06"/>
<path d="M 204.81 260.64 203.16 260.91"/>
<path d="M 205.73 259.53 204.08 259.8"/>
<path d="M 206.53 258.56 205 258.69"/>
<path d="M 207.45 257.45 205.8 257.72"/>
<path d="M 239.46 283.93 212.69 261.79"/>
<path d="M 212.69 261.79 209.25 265.95"/>
<path d="M 209.25 265.95 236.02 288.09"/>
<path d="M 210.38 266.88 213.83 262.72"/>
<path d="M 206.6 256.75 207.45 257.45"/>
<path d="M 207.45 257.45 204.01 261.61"/>
<path d="M 204.01 261.61 203.16 260.91"/>
<path d="M 203.16 260.91 206.6 256.75"/>
<path d="M 203.16 260.91 177.24 239.47"/>
<path d="M 177.24 239.47 177.7 238.91"/>
<path d="M 180.23 235.86 180.68 235.31"/>
<path d="M 180.68 235.31 206.6 256.75"/>
<path d="M 153.46 213.72 193.68 246.99"/>
<path d="M 193.68 246.99 191.16 250.04"/>
<path d="M 191.16 250.04 150.93 216.77"/>
<path d="M 150.93 216.77 153.46 213.72"/>
<path d="M 113.24 180.44 153.46 213.72"/>
<path d="M 153.46 213.72 150.93 216.77"/>
<path d="M 150.93 216.77 110.71 183.49"/>
<path d="M 110.71 183.49 113.24 180.44"/>
<path d="M 123.85 195.3 124.31 194.74"/>
<path d="M 126.83 191.69 127.29 191.14"/>
<path d="M 127.29 191.14 100.24 168.76"/>
<path d="M 100.24 168.76 96.8 172.92"/>
<path d="M 96.8 172.92 123.85 195.3"/>
<path d="M 91.7 168.7 95.14 164.54"/>
<path d="M 95.14 164.54 68.23 142.28"/>
<path d="M 68.23 142.28 67.77 142.83"/>
<path d="M 65.25 145.89 64.79 146.44"/>
<path d="M 64.79 146.44 91.7 168.7"/>
<path d="M 78.7 157.02 38.48 123.74"/>
<path d="M 38.48 123.74 41.01 120.69"/>
<path d="M 41.01 120.69 81.23 153.96"/>
<path d="M 81.23 153.96 78.7 157.02"/>
<path d="M 78.7 157.02 81.23 153.96"/>
<path d="M 333.07 367.44 335.59 364.39"/>
<path d="M 458.97 471.6 458.51 472.16"/>
<path d="M 458.51 472.16 434.72 452.47"/>
<path d="M 650.03 629.66 652.55 626.61"/>
<path d="M 668.72 645.12 671.25 642.07"/>
<path d="M 654.53 634.31 678.32 654"/>
<path d="M 677.23 646.09 673.79 650.25"/>
<path d="M 687.45 488.69 674.49 504.36"/>
<path d="M 670.24 509.49 606.34 586.74"/>
<path d="M 602.21 591.73 589.24 607.4"/>
<path d="M 682.35 484.47 669.39 500.14"/>
<path d="M 665.14 505.27 601.24 582.52"/>
<path d="M 597.11 587.51 584.14 603.18"/>
<path d="M 584.14 603.18 589.24 607.4"/>
<path d="M 687.45 488.69 682.35 484.47"/>
<path d="M 631.22 442.17 618.26 457.84"/>
<path d="M 614.01 462.97 550.11 540.22"/>
<path d="M 545.98 545.21 533.01 560.89"/>
<path d="M 626.13 437.95 613.16 453.62"/>
<path d="M 608.92 458.76 545.01 536"/>
<path d="M 540.88 541 527.92 556.67"/>
<path d="M 527.92 556.67 533.01 560.89"/>
<path d="M 631.22 442.17 626.13 437.95"/>
<path d="M 575 395.66 562.03 411.33"/>
<path d="M 557.79 416.46 493.88 493.71"/>
<path d="M 489.75 498.7 476.79 514.37"/>
<path d="M 569.9 391.44 556.93 407.11"/>
<path d="M 552.69 412.24 488.78 489.49"/>
<path d="M 484.65 494.48 471.69 510.15"/>
<path d="M 471.69 510.15 476.79 514.37"/>
<path d="M 575 395.66 569.9 391.44"/>
<path d="M 518.91 349.26 505.95 364.93"/>
<path d="M 501.7 370.06 437.8 447.31"/>
<path d="M 433.67 452.3 420.7 467.97"/>
<path d="M 513.67 344.93 500.71 360.6"/>
<path d="M 496.46 365.73 432.56 442.98"/>
<path d="M 428.43 447.97 415.46 463.64"/>
<path d="M 415.46 463.64 420.7 467.97"/>
<path d="M 518.91 349.26 513.67 344.93"/>
<path d="M 462.69 302.75 449.72 318.42"/>
<path d="M 445.48 323.55 381.57 400.8"/>
<path d="M 377.44 405.79 364.48 421.46"/>
<path d="M 457.59 298.53 444.62 314.2"/>
<path d="M 440.38 319.33 376.47 396.58"/>
<path d="M 372.34 401.57 359.38 417.24"/>
<path d="M 359.38 417.24 364.48 421.46"/>
<path d="M 462.69 302.75 457.59 298.53"/>
<path d="M 406.46 256.23 393.5 271.9"/>
<path d="M 389.25 277.03 325.35 354.28"/>
<path d="M 321.22 359.27 308.25 374.95"/>
<path d="M 401.36 252.01 388.4 267.69"/>
<path d="M 384.15 272.82 320.25 350.06"/>
<path d="M 316.12 355.06 303.15 370.73"/>
<path d="M 303.15 370.73 308.25 374.95"/>
<path d="M 406.46 256.23 401.36 252.01"/>
<path d="M 350.24 209.72 337.27 225.39"/>
<path d="M 333.03 230.52 269.12 307.77"/>
<path d="M 264.99 312.76 252.03 328.43"/>
<path d="M 345.14 205.5 332.17 221.17"/>
<path d="M 327.93 226.3 264.02 303.55"/>
<path d="M 259.89 308.54 246.93 324.21"/>
<path d="M 246.93 324.21 252.03 328.43"/>
<path d="M 350.24 209.72 345.14 205.5"/>
<path d="M 294.15 163.32 281.19 178.99"/>
<path d="M 276.94 184.12 213.04 261.37"/>
<path d="M 208.91 266.36 195.94 282.03"/>
<path d="M 288.91 158.99 275.95 174.66"/>
<path d="M 271.7 179.79 207.8 257.04"/>
<path d="M 203.67 262.03 190.7 277.7"/>
<path d="M 190.7 277.7 195.94 282.03"/>
<path d="M 294.15 163.32 288.91 158.99"/>
<path d="M 237.92 116.81 224.96 132.48"/>
<path d="M 220.72 137.61 156.81 214.86"/>
<path d="M 152.68 219.85 139.72 235.52"/>
<path d="M 232.83 112.59 219.86 128.26"/>
<path d="M 215.62 133.39 151.71 210.64"/>
<path d="M 147.58 215.63 134.62 231.3"/>
<path d="M 134.62 231.3 139.72 235.52"/>
<path d="M 237.92 116.81 232.83 112.59"/>
<path d="M 181.7 70.29 168.73 85.96"/>
<path d="M 164.49 91.09 100.58 168.34"/>
<path d="M 96.45 173.34 83.49 189.01"/>
<path d="M 176.6 66.07 163.64 81.75"/>
<path d="M 159.39 86.88 95.49 164.12"/>
<path d="M 91.36 169.12 78.39 184.79"/>
<path d="M 78.39 184.79 83.49 189.01"/>
<path d="M 181.7 70.29 176.6 66.07"/>
<path d="M 125.47 23.78 112.51 39.45"/>
<path d="M 108.26 44.58 44.36 121.83"/>
<path d="M 40.23 126.82 27.26 142.49"/>
<path d="M 120.37 19.56 107.41 35.23"/>
<path d="M 103.16 40.36 39.26 117.61"/>
<path d="M 35.13 122.6 22.17 138.27"/>
<path d="M 22.17 138.27 27.26 142.49"/>
<path d="M 125.47 23.78 120.37 19.56"/>
<path d="M 668.72 645.12 631.48 614.31"/>
<path d="M 634 611.26 671.25 642.07"/>
<path d="M 482.48 491.05 445.38 460.35"/>
<path d="M 447.9 457.3 485.01 488"/>
<path d="M 773.78 592.81 772.25 592.94"/>
<path d="M 774.7 591.7 771.11 592"/>
<path d="M 775.51 590.73 769.98 591.07"/>
<path d="M 776.42 589.62 768.99 590.25"/>
<path d="M 775.29 588.68 768.88 589.22"/>
<path d="M 774.16 587.75 769.8 588.11"/>
<path d="M 773.17 586.93 770.72 587"/>
<path d="M 772.03 585.99 771.52 586.03"/>
<path d="M 776.42 589.62 773.1 593.64"/>
<path d="M 564.43 419.39 562.64 419.54"/>
<path d="M 565.24 418.42 561.65 418.72"/>
<path d="M 566.15 417.31 560.51 417.78"/>
<path d="M 566.81 416.22 559.38 416.84"/>
<path d="M 565.82 415.4 559.67 415.91"/>
<path d="M 564.69 414.46 560.59 414.81"/>
<path d="M 563.56 413.52 561.51 413.7"/>
<path d="M 562.42 412.59 562.31 412.72"/>
<path d="M 553.01 410.41 551.73 410.52"/>
<path d="M 553.93 409.3 550.6 409.58"/>
<path d="M 554.74 408.33 549.47 408.64"/>
<path d="M 555.65 407.22 548.47 407.82"/>
<path d="M 554.78 406.26 548.11 406.82"/>
<path d="M 553.64 405.32 549.03 405.71"/>
<path d="M 552.65 404.5 549.95 404.6"/>
<path d="M 551.52 403.56 550.86 403.49"/>
<path d="M 562.42 412.59 559.1 416.61"/>
<path d="M 566.96 416.34 563.63 420.36"/>
<path d="M 551.09 403.21 547.77 407.24"/>
<path d="M 451.66 327.03 450.75 326.98"/>
<path d="M 452.58 325.92 449.62 326.04"/>
<path d="M 453.5 324.81 448.63 325.22"/>
<path d="M 454.3 323.84 447.49 324.28"/>
<path d="M 453.94 322.84 446.87 323.3"/>
<path d="M 452.8 321.9 447.68 322.33"/>
<path d="M 451.67 320.96 448.6 321.22"/>
<path d="M 450.54 320.03 449.51 320.11"/>
<path d="M 440.22 317.8 439.85 317.96"/>
<path d="M 441.02 316.82 438.71 317.02"/>
<path d="M 441.94 315.72 437.58 316.08"/>
<path d="M 442.86 314.61 436.59 315.26"/>
<path d="M 442.89 313.7 435.46 314.32"/>
<path d="M 441.76 312.76 436.37 313.21"/>
<path d="M 440.77 311.94 437.18 312.24"/>
<path d="M 439.63 311 438.1 311.13"/>
<path d="M 454.65 323.42 451.32 327.45"/>
<path d="M 449.97 319.56 446.64 323.58"/>
<path d="M 443.32 314.05 439.99 318.07"/>
<path d="M 438.78 310.3 435.46 314.32"/>
<path d="M 669.01 501.46 747.47 566.37"/>
<path d="M 747.47 566.37 744.83 569.56"/>
<path d="M 744.83 569.56 666.37 504.65"/>
<path d="M 666.37 504.65 669.01 501.46"/>
<path d="M 720.47 549.41 763.24 584.79"/>
<path d="M 763.24 584.79 765.88 581.6"/>
<path d="M 765.88 581.6 723.11 546.22"/>
<path d="M 747.66 571.9 747.32 572.32"/>
<path d="M 747.32 572.32 773.1 593.64"/>
<path d="M 776.42 589.62 750.65 568.3"/>
<path d="M 750.65 568.3 750.3 568.71"/>
<path d="M 771.75 585.76 768.42 589.78"/>
<path d="M 666.37 504.65 587.91 439.74"/>
<path d="M 587.91 439.74 590.55 436.55"/>
<path d="M 590.55 436.55 669.01 501.46"/>
<path d="M 612.27 459.89 569.5 424.51"/>
<path d="M 569.5 424.51 572.14 421.32"/>
<path d="M 572.14 421.32 614.91 456.7"/>
<path d="M 585.22 437.52 584.87 437.93"/>
<path d="M 584.87 437.93 559.1 416.61"/>
<path d="M 562.42 412.59 588.2 433.91"/>
<path d="M 588.2 433.91 587.86 434.33"/>
<path d="M 552.44 411.1 555.77 407.08"/>
<path d="M 555.77 407.08 529.99 385.76"/>
<path d="M 529.99 385.76 529.65 386.17"/>
<path d="M 527.01 389.36 526.66 389.78"/>
<path d="M 526.66 389.78 552.44 411.1"/>
<path d="M 502.6 363.79 545.23 399.06"/>
<path d="M 545.23 399.06 542.59 402.25"/>
<path d="M 542.59 402.25 499.96 366.98"/>
<path d="M 499.96 366.98 502.6 363.79"/>
<path d="M 499.96 366.98 457.19 331.6"/>
<path d="M 457.19 331.6 459.83 328.41"/>
<path d="M 459.83 328.41 502.6 363.79"/>
<path d="M 472.77 344.49 472.42 344.9"/>
<path d="M 472.42 344.9 446.64 323.58"/>
<path d="M 475.4 341.3 475.75 340.88"/>
<path d="M 475.75 340.88 449.97 319.56"/>
<path d="M 439.99 318.07 414.21 296.75"/>
<path d="M 414.21 296.75 414.56 296.33"/>
<path d="M 417.2 293.14 417.54 292.73"/>
<path d="M 417.54 292.73 443.32 314.05"/>
<path d="M 390.14 270.76 432.92 306.15"/>
<path d="M 432.92 306.15 430.28 309.34"/>
<path d="M 430.28 309.34 387.51 273.95"/>
<path d="M 387.51 273.95 390.14 270.76"/>
<path d="M 387.51 273.95 347.28 240.68"/>
<path d="M 347.28 240.68 349.92 237.49"/>
<path d="M 349.92 237.49 390.14 270.76"/>
<path d="M 360.74 251.81 360.39 252.23"/>
<path d="M 360.39 252.23 333.48 229.97"/>
<path d="M 336.89 231.62 335.61 231.72"/>
<path d="M 337.81 230.51 334.48 230.79"/>
<path d="M 338.73 229.4 333.6 229.83"/>
<path d="M 339.53 228.43 334.4 228.86"/>
<path d="M 338.65 227.47 335.32 227.75"/>
<path d="M 337.66 226.65 336.24 226.64"/>
<path d="M 328.73 225.33 327.96 225.4"/>
<path d="M 329.65 224.22 326.83 224.46"/>
<path d="M 330.57 223.11 325.7 223.52"/>
<path d="M 331.37 222.14 326.61 222.41"/>
<path d="M 331.01 221.14 327.42 221.44"/>
<path d="M 329.87 220.2 328.33 220.33"/>
<path d="M 333.48 229.97 336.81 225.94"/>
<path d="M 336.81 225.94 363.72 248.2"/>
<path d="M 363.72 248.2 363.38 248.62"/>
<path d="M 336.32 232.31 339.64 228.29"/>
<path d="M 328.39 225.75 331.71 221.73"/>
<path d="M 331.71 221.73 304.95 199.58"/>
<path d="M 304.95 199.58 304.6 200"/>
<path d="M 301.96 203.19 301.62 203.6"/>
<path d="M 301.62 203.6 328.39 225.75"/>
<path d="M 325.7 223.52 329.02 219.5"/>
<path d="M 277.69 177.74 317.91 211.01"/>
<path d="M 317.91 211.01 315.28 214.2"/>
<path d="M 315.28 214.2 275.05 180.93"/>
<path d="M 275.05 180.93 277.69 177.74"/>
<path d="M 275.05 180.93 234.83 147.65"/>
<path d="M 234.83 147.65 237.47 144.46"/>
<path d="M 237.47 144.46 277.69 177.74"/>
<path d="M 248.29 158.78 247.94 159.2"/>
<path d="M 247.94 159.2 248.29 158.78"/>
<path d="M 250.92 155.59 251.27 155.18"/>
<path d="M 251.27 155.18 224.5 133.03"/>
<path d="M 224.5 133.03 221.17 137.05"/>
<path d="M 221.17 137.05 247.94 159.2"/>
<path d="M 216.08 132.84 219.4 128.81"/>
<path d="M 219.4 128.81 192.49 106.55"/>
<path d="M 192.49 106.55 192.15 106.97"/>
<path d="M 189.51 110.16 189.17 110.58"/>
<path d="M 189.17 110.58 216.08 132.84"/>
<path d="M 165.38 84.83 205.6 118.1"/>
<path d="M 205.6 118.1 202.97 121.29"/>
<path d="M 202.97 121.29 162.74 88.01"/>
<path d="M 162.74 88.01 165.38 84.83"/>
<path d="M 162.74 88.01 122.52 54.74"/>
<path d="M 122.52 54.74 125.16 51.55"/>
<path d="M 125.16 51.55 165.38 84.83"/>
<path d="M 135.98 65.87 135.63 66.29"/>
<path d="M 135.63 66.29 108.72 44.03"/>
<path d="M 108.72 44.03 112.05 40"/>
<path d="M 112.05 40 138.96 62.27"/>
<path d="M 138.96 62.27 138.61 62.68"/>
</g>
</svg>