<?xml version="1.0"?>
<svg xmlns="http://www.w3.org/2000/svg" version="1.2" baseProfile="tiny" width="800" height="947" viewBox="0 0 800 947" stroke-linecap="round" stroke-linejoin="round">
<g id="gifu">
<path d="M 595.77 1 600.74 2.05 602.73 6.51 601.44 11.8 600.9 16.33 601.83 20.74 606.63 23.57 614.05 21.84 620.5 17.72 626.29 12.6 633.71 10.11 643.21 12.21 661.07 22.22 676.27 28.21 713.22 34.51 741.66 47.73 764.49 55.56 789.5 77.26 795.38 89.19 799 100.49 798 111.23 791.67 132.29 788.38 140.01 783.53 146.91 768.48 164.49 763.05 176.07 762.41 184.97 762.78 191.25 764.19 200.92 762.14 208.58 753.46 228.15 749.35 243.05 752.46 255.89 760.06 266.94 768.57 275.78 774.27 287.16 774.27 296.48 771.46 305.62 760.42 327.3 737.95 362.21 717.32 388.23 710.87 399.88 704.62 407.89 696.57 411.72 684.32 410.05 674.46 409.9 663.75 414.23 653.92 422.92 631.99 454.58 623.15 471.06 624.75 479.51 629.01 483.88 642.94 485.59 649.82 488.45 654.92 493.96 658.9 499.88 665.5 504.18 681.79 509.12 688.24 513.78 693.67 520.15 709.96 557.33 714.97 566.22 728.27 582.44 732.61 591.14 733.25 599.84 732.16 623.11 742.78 659.55 744.77 663.63 746.28 665.82 749.53 668.28 761.6 675.04 776.08 691.2 781.63 709.49 781.63 721.15 779.27 733.31 780.9 742.06 788.05 763.62 787.3 770.4 783.35 773.42 770.83 772.27 766.3 774.55 763.95 779.98 770.47 798.58 772.1 810.52 768.72 821.35 763.5 829.85 754.27 852.05 726.37 864.5 720.67 869.49 706.79 879.23 680.82 890.9 672.02 891.43 663.15 887.56 650.36 875.78 642.04 871.59 630.27 867.49 605.63 853.9 597.67 852.9 588.53 855.01 551.01 872.86 539.79 873.47 532.91 872.18 527.48 869.65 508.9 854.68 501.39 850.61 494.33 847.92 485.07 846.81 480.55 845.26 475.84 841.64 468.88 827.89 464.08 822.65 458.56 818.47 455.57 815.59 453.28 812.24 449.78 802.95 446.59 796.77 442.15 791.93 430.12 785.2 414.07 772.88 407.01 770.66 399.23 772.27 395.07 773.62 381.83 780.28 346.21 787.88 334.47 792.98 321.23 800.78 316.22 801.87 311.82 801.65 304.04 796.96 300.6 793.59 294.99 796.88 290.35 803.2 274.33 837.09 247.76 876.34 245.71 891.16 243.9 946 211.56 932.3 192.08 920.61 176.6 906.58 171.27 899.31 165.29 886.06 159.2 881.3 151.51 879.53 83.58 900.46 70.37 879.82 69.92 854.94 80.78 817.55 83.22 799.69 85.73 789.99 88.74 764.04 82.77 721.52 72.09 686.92 65.85 672.75 60.57 663.41 53.69 661.7 48.14 664.72 41.12 664.06 33.15 657.79 24.74 641.8 21.63 630.38 19.64 615.84 1 583.2 20 547.54 28.42 512.35 33.61 504.88 40.03 499.79 47.54 496.41 55.26 495.31 63.59 496.63 83.76 503.95 92.84 505.48 101.8 504.92 109.22 505.29 116.61 506.83 128.71 515.43 133.41 516.03 136.4 509.51 139.84 503.84 147.35 499.72 208.03 487.15 221.09 487.14 241.06 491.04 251.86 490.59 265.28 486.02 275.05 484.35 293.09 483.73 299.42 478.72 307.66 462.84 315.17 454.69 319.54 446.29 319 435.98 313.36 422.29 305.49 409.62 297.89 401.48 290.83 397.05 275.69 392.88 269.08 389.31 263.92 383.91 260.12 377.47 258.55 368.86 258.92 360.05 261.03 347.83 263.56 318.15 268.63 300.15 272.43 291.18 273.58 284.92 271.58 274.17 285.82 251.52 291.07 221.54 295.9 211.49 324.7 169.2 327.57 158.24 325.42 149.7 312.91 136.67 308.56 130.89 302.14 117.14 316.16 120.25 321.17 119.31 326.24 115.34 329.04 109.06 331.03 100.49 334.47 90.65 339.63 84.13 347.23 80.35 365.27 83.94 375.49 84.24 388.92 87.58 396.97 92.1 402.31 97.66 404.57 103.3 404.48 109.13 401.13 122.9 403.12 128.66 409.97 130.66 421.13 123.39 433.62 108.8 437.54 105.41 444.32 101.59 450.14 97.23 455.09 89.26 457.26 82.09 458.74 74.55 461.64 70.05 466.07 65.95 473.49 61.25 481.94 54.14 511.89 20.6 519.58 15.17 528.57 12.17 537.16 15.68 544.04 17.38 551.31 17.92 588.71 2.61 595.77 1 Z"/>
</g>
</svg>