<svg xmlns="http://www.w3.org/2000/svg" viewBox="0 0 17 17" height="17" width="17"><rect fill="none" width="17" height="17"/><path fill="rgba(255,255,255,0.75)" transform="translate(3 3)" d="M6,5L4,4,2,5,1,7v3l1.5,0V8h3v2L7,10V7ZM5,7H3V5.5H5V7Z" style="stroke-linejoin:round;stroke-miterlimit:4" stroke="rgba(255,255,255,0.75)" stroke-width="2"/><path fill="rgba(255,255,255,0.75)" transform="translate(3 3)" d="M10,2A1,1,0,0,0,8,2v8h2V2Z" style="stroke-linejoin:round;stroke-miterlimit:4" stroke="rgba(255,255,255,0.75)" stroke-width="2"/><path fill="#735139" transform="translate(3 3)" d="M6,5L4,4,2,5,1,7v3l1.5,0V8h3v2L7,10V7ZM5,7H3V5.5H5V7Z"/><path fill="#735139" transform="translate(3 3)" d="M10,2A1,1,0,0,0,8,2v8h2V2Z"/></svg>