<svg xmlns="http://www.w3.org/2000/svg" viewBox="0 0 21 21" height="21" width="21"><rect fill="none" width="21" height="21"/><path fill="rgba(255,255,255,0.75)" transform="translate(3 3)" d="M11,13v-1h2v-1H9.5v-1H13V9h-2V8h2V7h-2V6h2V5H9.5V4H13V3h-2V2h2V1H8v13h5v-1H11z M6,11H2V1h4V11z M6,12l-2,2l-2-2H6z" style="stroke-linejoin:round;stroke-miterlimit:4" stroke="rgba(255,255,255,0.75)" stroke-width="2"/><path fill="#8c7700" transform="translate(3 3)" d="M11,13v-1h2v-1H9.5v-1H13V9h-2V8h2V7h-2V6h2V5H9.5V4H13V3h-2V2h2V1H8v13h5v-1H11z M6,11H2V1h4V11z M6,12l-2,2l-2-2H6z"/></svg>