<svg width="130" height="155" viewBox="0 0 130 155" fill="none" xmlns="http://www.w3.org/2000/svg"><path d="M13.2 118.648C13.2 114.648 11.205 96.021 43.872 83.353C76.539 70.687 110.205 54.02 110.205 21.687C110.205 18.262 110.205 4.366 110.205 3.866C110.205 2.866 110.471 2.553 111.887 2.553C111.887 2.553 127.075 2.553 129.914 2.553V0C129.914 0 88.887 0 87.871 0C29.871 0 12.705 47.938 12.705 76.854C12.705 92.188 12.606 118.649 12.606 118.649" fill="#00833E"/><path d="M22.616 149.454C22.676 149.372 22.728 149.285 22.786 149.202C22.687 149.345 22.579 149.48 22.474 149.618C22.519 149.562 22.573 149.513 22.616 149.454Z" fill="#00A6E1"/><path d="M19.489 152.411C19.276 152.551 19.057 152.682 18.835 152.807C19.058 152.682 19.276 152.551 19.489 152.411Z" fill="#00A6E1"/><path d="M16.714 153.762C17.311 153.564 17.887 153.32 18.439 153.033C18.48 153.012 18.517 152.987 18.557 152.966C17.932 153.299 17.274 153.578 16.589 153.798C16.631 153.784 16.673 153.775 16.714 153.762Z" fill="#00A6E1"/><path d="M23.387 148.243C23.253 148.48 23.113 148.714 22.963 148.941C23.112 148.714 23.253 148.48 23.387 148.243Z" fill="#00A6E1"/><path d="M23.594 147.879C23.88 147.328 24.124 146.752 24.323 146.154C24.34 146.104 24.351 146.051 24.367 146.002C24.144 146.702 23.859 147.374 23.518 148.012C23.542 147.967 23.57 147.925 23.594 147.879Z" fill="#00A6E1"/><path d="M20.014 152.057C20.1 151.988 20.195 151.911 20.289 151.832C20.118 151.966 19.946 152.099 19.768 152.223C19.849 152.166 19.935 152.115 20.014 152.057Z" fill="#00A6E1"/><path d="M16.255 153.895C16.014 153.965 15.77 154.029 15.523 154.083C15.77 154.028 16.014 153.965 16.255 153.895Z" fill="#00A6E1"/><path d="M14.042 154.318C13.67 154.352 13.296 154.375 12.916 154.375C13.295 154.375 13.67 154.353 14.042 154.318Z" fill="#00A6E1"/><path d="M14.865 154.218C14.962 154.202 15.055 154.178 15.151 154.159C14.898 154.207 14.641 154.245 14.382 154.276C14.543 154.257 14.706 154.244 14.865 154.218Z" fill="#00A6E1"/><path d="M1.124 144.705L1.126 144.712L1.125 144.704L1.124 144.705Z" fill="#00A6E1"/><path d="M24.713 144.624C24.734 144.518 24.761 144.413 24.778 144.306C24.807 144.126 24.823 143.943 24.844 143.76C24.854 143.676 24.867 143.592 24.875 143.507C24.911 143.127 24.935 142.743 24.935 142.354C24.935 131.104 14.37 125.567 13.049 117.915C13.022 117.757 13.006 117.596 12.987 117.436C12.951 117.086 12.922 116.733 12.914 116.355C12.905 116.782 12.872 117.191 12.819 117.591C12.819 117.596 12.818 117.6 12.817 117.605C12.812 117.645 12.804 117.682 12.798 117.721C12.801 117.7 12.805 117.681 12.808 117.66C12.804 117.691 12.799 117.723 12.794 117.755C12.792 117.773 12.786 117.789 12.784 117.807C12.789 117.778 12.793 117.749 12.798 117.721C12.792 117.763 12.783 117.804 12.776 117.846C12.761 117.941 12.737 118.033 12.719 118.127C12.675 118.352 12.631 118.577 12.571 118.8C12.543 118.906 12.512 119.013 12.48 119.118C12.47 119.152 12.459 119.186 12.449 119.221C12.362 119.501 12.263 119.779 12.154 120.054C12.136 120.1 12.12 120.145 12.102 120.19C12.061 120.288 12.02 120.386 11.978 120.48C11.993 120.447 12.011 120.415 12.025 120.381C11.982 120.483 11.937 120.585 11.89 120.687C11.883 120.702 11.876 120.717 11.869 120.732C11.855 120.761 11.842 120.79 11.828 120.818C11.837 120.799 11.846 120.782 11.854 120.763C11.843 120.787 11.831 120.812 11.819 120.836C11.822 120.829 11.825 120.823 11.828 120.817C11.775 120.929 11.722 121.042 11.665 121.154C11.656 121.173 11.647 121.19 11.638 121.208C11.627 121.229 11.616 121.248 11.605 121.27C11.73 121.015 11.855 120.754 11.977 120.48C11.853 120.763 11.719 121.045 11.575 121.325C11.496 121.475 11.417 121.627 11.337 121.77C11.25 121.926 11.16 122.083 11.065 122.243C10.974 122.397 10.886 122.547 10.797 122.694C9.987 123.981 8.934 125.402 7.603 127.129C6.457 128.616 5.278 130.154 4.233 131.811C4.238 131.803 4.243 131.794 4.248 131.787C4.243 131.796 4.236 131.808 4.23 131.816C4.014 132.16 3.804 132.508 3.601 132.862C3.562 132.93 3.524 133 3.486 133.068C3.348 133.314 3.213 133.561 3.083 133.812C3.098 133.782 3.112 133.75 3.127 133.719C3.086 133.797 3.049 133.877 3.009 133.956C2.965 134.043 2.92 134.13 2.876 134.218C2.819 134.333 2.762 134.448 2.707 134.565C2.65 134.684 2.597 134.806 2.542 134.926C2.492 135.038 2.438 135.148 2.39 135.261C2.392 135.255 2.394 135.248 2.396 135.243C2.394 135.249 2.392 135.256 2.389 135.262C2.377 135.288 2.366 135.316 2.354 135.342C2.349 135.355 2.344 135.368 2.338 135.381C2.32 135.422 2.305 135.465 2.288 135.506C2.233 135.637 2.182 135.77 2.13 135.902C2.055 136.093 1.983 136.286 1.914 136.48C1.911 136.489 1.908 136.498 1.904 136.505C1.892 136.541 1.876 136.574 1.863 136.61C1.865 136.605 1.866 136.599 1.868 136.594C1.866 136.6 1.865 136.607 1.863 136.613C1.859 136.626 1.854 136.638 1.85 136.651C1.832 136.703 1.817 136.756 1.8 136.808C1.783 136.859 1.767 136.911 1.75 136.961C1.694 137.136 1.642 137.312 1.59 137.488C1.555 137.61 1.518 137.731 1.485 137.854C1.484 137.86 1.482 137.865 1.48 137.871C1.487 137.843 1.492 137.813 1.5 137.786C1.494 137.811 1.485 137.847 1.479 137.874C1.472 137.9 1.463 137.926 1.456 137.952C1.449 137.978 1.444 138.006 1.437 138.032C1.4 138.175 1.369 138.321 1.335 138.467C1.318 138.538 1.301 138.609 1.285 138.681C1.272 138.739 1.257 138.795 1.244 138.855C1.235 138.899 1.229 138.945 1.22 138.99C1.218 139.002 1.215 139.012 1.213 139.024C1.217 139.004 1.218 138.985 1.222 138.965C1.219 138.986 1.216 139.005 1.213 139.027C1.197 139.106 1.183 139.185 1.169 139.265C1.163 139.295 1.155 139.324 1.15 139.354C1.138 139.424 1.133 139.499 1.121 139.57C1.118 139.591 1.114 139.614 1.11 139.636C1.092 139.751 1.068 139.863 1.052 139.979C1.048 140.01 1.046 140.043 1.042 140.075C1.037 140.116 1.029 140.155 1.024 140.195C1.016 140.264 1.008 140.328 1.002 140.389C1 140.41 0.997001 140.432 0.995001 140.453C0.992001 140.487 0.989 140.517 0.986 140.55C0.981 140.602 0.977 140.654 0.972 140.705C0.969 140.744 0.961001 140.78 0.957001 140.819C0.953001 140.864 0.955 140.911 0.951 140.955C0.946 141.019 0.935999 141.08 0.931999 141.144C0.930999 141.161 0.931 141.178 0.93 141.195C0.919 141.357 0.916999 141.523 0.910999 141.687L0.913 141.454C0.898 141.751 0.889999 142.051 0.889999 142.354C0.889999 142.474 0.901001 142.59 0.905001 142.709C0.903001 142.688 0.895999 142.671 0.893999 142.65C0.896999 142.804 0.912 142.957 0.921 143.11C0.927 143.208 0.93 143.307 0.938 143.404C0.944 143.477 0.952999 143.55 0.959999 143.622C0.958999 143.613 0.955 143.606 0.954 143.598C0.979 143.836 1.01 144.073 1.048 144.306C1.073 144.46 1.111 144.612 1.142 144.764C1.137 144.745 1.127 144.731 1.122 144.712C1.132 144.763 1.151 144.81 1.162 144.86C1.251 145.281 1.356 145.696 1.488 146.099C1.486 146.094 1.483 146.09 1.481 146.085C1.488 146.106 1.497 146.134 1.504 146.153C1.703 146.751 1.947 147.327 2.233 147.878C2.519 148.43 2.846 148.956 3.211 149.453C3.576 149.95 3.978 150.419 4.413 150.853C4.848 151.287 5.316 151.69 5.813 152.055C6.311 152.418 6.837 152.746 7.388 153.032C7.896 153.271 8.587 153.563 9.113 153.761C9.71 153.96 10.328 154.114 10.963 154.217C11.597 154.321 12.249 154.374 12.912 154.374C13.292 154.374 13.667 154.352 14.038 154.317C14.152 154.306 14.265 154.289 14.378 154.275C14.637 154.244 14.894 154.206 15.147 154.158C15.272 154.135 15.396 154.109 15.52 154.082C15.52 154.082 15.52 154.082 15.519 154.082C15.767 154.027 16.012 153.963 16.253 153.894H16.252C16.364 153.862 16.477 153.832 16.586 153.797H16.585C17.271 153.577 17.929 153.298 18.555 152.965H18.554C18.648 152.915 18.74 152.86 18.832 152.807C18.831 152.808 18.83 152.809 18.828 152.809C19.052 152.682 19.273 152.549 19.488 152.409C19.487 152.41 19.487 152.41 19.486 152.411C19.58 152.349 19.673 152.287 19.765 152.223C19.764 152.224 19.763 152.224 19.763 152.225C19.943 152.099 20.117 151.966 20.289 151.831C20.288 151.831 20.288 151.832 20.287 151.832C20.562 151.618 20.825 151.392 21.08 151.155C21.198 151.051 21.31 150.95 21.412 150.855V150.854C21.418 150.848 21.423 150.84 21.429 150.834C21.345 150.918 21.252 150.994 21.165 151.077C21.15 151.09 21.138 151.101 21.123 151.115C21.225 151.018 21.333 150.929 21.432 150.83C21.431 150.831 21.43 150.832 21.429 150.834C21.806 150.455 22.148 150.044 22.472 149.617C22.472 149.618 22.472 149.618 22.471 149.619C22.576 149.479 22.685 149.343 22.784 149.199C22.784 149.2 22.784 149.2 22.783 149.201C22.843 149.114 22.902 149.028 22.959 148.94L22.958 148.941C23.108 148.712 23.25 148.478 23.385 148.239C23.384 148.24 23.384 148.241 23.383 148.242C23.426 148.165 23.472 148.09 23.514 148.011C23.514 148.012 23.514 148.012 23.513 148.013C23.854 147.374 24.14 146.701 24.363 146.001C24.371 145.976 24.382 145.952 24.39 145.928C24.408 145.871 24.418 145.811 24.435 145.754C24.515 145.482 24.586 145.206 24.647 144.927C24.673 144.827 24.693 144.726 24.713 144.624ZM12.152 120.085C12.134 120.131 12.115 120.177 12.097 120.222C12.115 120.177 12.134 120.131 12.152 120.085ZM12.558 118.87C12.558 118.871 12.558 118.872 12.558 118.873C12.558 118.874 12.557 118.875 12.557 118.876C12.557 118.874 12.557 118.872 12.558 118.87ZM11.499 121.486C11.489 121.506 11.48 121.524 11.47 121.544C11.452 121.577 11.43 121.611 11.412 121.645C11.44 121.592 11.471 121.539 11.499 121.486ZM10.857 122.604C10.851 122.613 10.846 122.623 10.84 122.632L10.839 122.633C10.837 122.637 10.834 122.641 10.832 122.645C10.841 122.631 10.849 122.617 10.857 122.604Z" fill="#00A6E1"/></svg>