<?xml version="1.0"?>
<svg xmlns="http://www.w3.org/2000/svg" version="1.2" baseProfile="tiny" width="800" height="623" viewBox="0 0 800 623" stroke-linecap="round" stroke-linejoin="round">
<g id="林業機械棟" fill="none" stroke="black" stroke-width="1">
<path d="M 663.78 555.56 765.33 223.73 M 667.12 561.64 771.51 220.56 M 298.9 76.21 771.51 220.56 M 458.02 129.87 765.33 223.73 M 302.11 82.25 453.39 128.45 M 356.46 461.7 376.03 467.68 M 486.89 506.59 488.3 501.97 M 374.62 472.31 376.03 467.68 M 644.34 549.63 663.78 555.56 M 488.3 501.97 531.94 515.3 M 530.52 519.92 531.94 515.3 M 642.92 554.25 644.34 549.63 M 642.92 554.25 667.12 561.64 M 486.89 506.59 530.52 519.92 M 301.19 444.82 351.83 460.29 M 200.56 414.09 251.34 429.6 M 249.92 434.22 251.34 429.6 M 299.77 449.45 301.19 444.82 M 299.77 449.45 374.62 472.31 M 194.52 417.3 249.92 434.22 M 194.52 417.3 230.29 300.39 M 263.16 192.99 298.9 76.21 M 263.16 192.99 267.79 194.4 M 230.29 300.39 234.92 301.8 M 200.56 414.09 234.92 301.8 M 267.79 194.4 302.11 82.25 M 351.83 460.29 369.02 404.15 M 369.02 404.15 373.65 405.56 M 356.46 461.7 373.65 405.56 M 378.07 374.56 453.39 128.45 M 378.07 374.56 382.7 375.97 M 382.7 375.97 458.02 129.87 M 141.45 33.18 146.21 34.64 M 146.21 34.64 147.63 30.01 M 142.86 28.56 147.63 30.01 M 141.45 33.18 142.86 28.56 M 38.48 369.64 43.24 371.09 M 43.24 371.09 44.65 366.47 M 39.89 365.02 44.65 366.47 M 38.48 369.64 39.89 365.02 M 55.62 313.63 60.38 315.08 M 60.38 315.08 61.84 310.33 M 57.08 308.87 61.84 310.33 M 55.62 313.63 57.08 308.87 M 124.27 89.32 129.03 90.78 M 129.03 90.78 130.48 86.02 M 125.72 84.57 130.48 86.02 M 124.27 89.32 125.72 84.57 M 107.13 145.33 111.89 146.79 M 111.89 146.79 113.3 142.16 M 108.54 140.71 113.3 142.16 M 107.13 145.33 108.54 140.71 M 72.8 257.49 77.56 258.94 M 77.56 258.94 79.02 254.19 M 74.26 252.73 79.02 254.19 M 72.8 257.49 74.26 252.73 M 39.89 365.02 72.8 257.49 M 108.54 140.71 141.45 33.18 M 147.63 30.01 298.9 76.21 M 74.26 252.73 107.13 145.33 M 44.65 366.47 94.7 202.93 M 126.65 84.85 142.42 33.33 M 129.43 85.7 145.19 34.18 M 40.82 365.3 56.59 313.78 M 43.6 366.15 59.36 314.63 M 41.56 380.84 42.75 381.2 M 98.77 193.92 99.96 194.28 M 94.7 202.93 95.89 203.29 M 43.24 371.09 44.43 371.46 M 42.75 381.2 99.96 194.28 M 41.56 380.84 98.77 193.92 M 73.65 380.38 125.12 212.22 M 45.62 371.82 78.28 381.8 M 97.08 203.66 129.75 213.63 M 177.33 473.44 183.07 454.68 M 655.68 599.03 667.12 561.64 M 66.84 419.18 129.75 213.63 M 27.04 407.03 38.48 369.64 M 175.09 472.75 176.14 473.08 M 175.09 472.75 180.34 455.58 M 180.34 455.58 181.4 455.9 M 176.14 473.08 181.4 455.9 M 249.56 435.41 299.41 450.63 M 224.57 427.78 226.81 428.46 M 228.4 428.95 233.03 430.36 M 234.62 430.85 239.38 432.3 M 240.96 432.78 245.59 434.2 M 247.18 434.68 249.56 435.41 M 249.56 435.41 249.69 435.45 M 299.41 450.63 301.66 451.32 M 303.25 451.81 307.87 453.22 M 309.46 453.7 314.09 455.12 M 315.68 455.6 320.3 457.02 M 321.89 457.5 324.27 458.23 M 324.27 458.23 324.4 458.27 M 261.58 192.51 263.82 193.19 M 263.46 194.38 263.82 193.19 M 261.21 193.7 263.46 194.38 M 261.21 193.7 261.58 192.51 M 228.71 299.9 230.96 300.59 M 230.96 300.59 231.28 299.53 M 229.03 298.85 231.28 299.53 M 228.71 299.9 229.03 298.85 M 230.09 299.17 262.27 194.02 M 380.59 375.32 382.7 375.97 M 380.26 376.38 380.59 375.32 M 380.26 376.38 382.38 377.03 M 382.38 377.03 382.7 375.97 M 371.53 404.92 373.65 405.56 M 371.53 404.92 371.85 403.86 M 371.85 403.86 373.97 404.5 M 373.65 405.56 373.97 404.5 M 372.91 404.18 381.32 376.7 M 400.42 412.58 401.42 408.01 M 401.42 408.01 401.66 403.46 M 401.66 403.46 401.19 399 M 401.19 399 400.04 394.72 M 400.04 394.72 398.26 390.67 M 398.26 390.67 395.89 386.95 M 395.89 386.95 392.97 383.61 M 392.97 383.61 389.54 380.75 M 389.54 380.75 385.64 378.42 M 385.64 378.42 381.32 376.7 M 372.91 404.18 400.42 412.58 M 374.58 467.24 376.03 467.68 M 374.58 467.24 375.27 464.99 M 375.27 464.99 376.72 465.44 M 376.03 467.68 376.72 465.44 M 488.3 501.97 489.76 502.41 M 489.76 502.41 490.44 500.17 M 488.99 499.72 490.44 500.17 M 488.3 501.97 488.99 499.72 M 376.36 466.62 488.62 500.91 M 530.62 514.89 531.94 515.3 M 530.62 514.89 531.3 512.65 M 531.3 512.65 532.63 513.05 M 531.94 515.3 532.63 513.05 M 644.34 549.63 645.79 550.07 M 645.79 550.07 646.48 547.83 M 645.02 547.38 646.48 547.83 M 644.34 549.63 645.02 547.38 M 532.26 514.24 644.66 548.57 M 77.95 422.57 88.13 425.68 M 161.12 447.98 170.64 450.89 M 94.7 202.93 146.25 34.5 M 229.03 298.85 261.25 193.56 M 231.28 299.53 263.5 194.25 M 234.92 301.8 267.83 194.27 M 369.02 404.15 378.11 374.43 M 146.78 32.79 298.18 79.03 M 177.33 473.44 337.87 522.47 M 337.87 522.47 355.05 466.33 M 180.2 464.06 340.74 513.09 M 343.61 503.71 655.68 599.03 M 27.04 407.03 343.61 503.71 M 366.95 185.54 367.15 184.88 M 367.55 183.56 371.23 171.54 M 371.23 171.54 371.36 171.58 M 371.23 171.54 427.3 188.67 M 427.3 188.67 427.43 188.71 M 423.01 202.67 427.3 188.67 M 427.3 188.67 427.43 188.71 M 366.95 185.54 423.01 202.67 M 423.01 202.67 423.15 202.71 M 341.95 177.91 346.24 163.91 M 346.24 163.91 346.37 163.95 M 285.76 160.75 290.04 146.74 M 290.04 146.74 290.17 146.78 M 290.04 146.74 346.24 163.91 M 346.24 163.91 346.37 163.95 M 285.76 160.75 341.95 177.91 M 341.95 177.91 342.09 177.95 M 355.02 224.51 359.31 210.51 M 359.31 210.51 359.44 210.55 M 359.31 210.51 415.37 227.63 M 415.37 227.63 415.51 227.68 M 411.09 241.64 415.37 227.63 M 415.37 227.63 415.51 227.68 M 355.02 224.51 411.09 241.64 M 411.09 241.64 411.22 241.68 M 330.03 216.88 334.31 202.88 M 334.31 202.88 334.45 202.92 M 273.83 199.72 278.11 185.71 M 278.11 185.71 278.25 185.75 M 278.11 185.71 334.31 202.88 M 334.31 202.88 334.45 202.92 M 273.83 199.72 330.03 216.88 M 330.03 216.88 330.16 216.92 M 343.09 263.48 347.38 249.48 M 347.38 249.48 347.51 249.52 M 347.38 249.48 403.45 266.6 M 403.45 266.6 403.58 266.64 M 399.16 280.61 403.45 266.6 M 403.45 266.6 403.58 266.64 M 343.09 263.48 399.16 280.61 M 399.16 280.61 399.29 280.65 M 318.1 255.85 322.39 241.85 M 322.39 241.85 322.52 241.89 M 261.9 238.69 266.19 224.68 M 266.19 224.68 266.32 224.72 M 266.19 224.68 322.39 241.85 M 322.39 241.85 322.52 241.89 M 261.9 238.69 318.1 255.85 M 318.1 255.85 318.23 255.89 M 331.17 302.45 335.45 288.45 M 335.45 288.45 335.59 288.49 M 335.45 288.45 391.52 305.57 M 391.52 305.57 391.65 305.61 M 387.24 319.58 391.52 305.57 M 391.52 305.57 391.65 305.61 M 331.17 302.45 387.24 319.58 M 387.24 319.58 387.37 319.62 M 306.18 294.82 310.46 280.82 M 310.46 280.82 310.59 280.86 M 249.98 277.65 254.26 263.65 M 254.26 263.65 254.39 263.69 M 254.26 263.65 310.46 280.82 M 310.46 280.82 310.59 280.86 M 249.98 277.65 306.18 294.82 M 306.18 294.82 306.31 294.86 M 319.28 341.29 323.57 327.29 M 323.57 327.29 323.7 327.33 M 323.57 327.29 379.64 344.41 M 379.64 344.41 379.77 344.45 M 375.35 358.41 379.64 344.41 M 379.64 344.41 379.77 344.45 M 319.28 341.29 375.35 358.41 M 375.35 358.41 375.48 358.45 M 294.29 333.66 298.58 319.65 M 298.58 319.65 298.71 319.69 M 238.09 316.49 242.38 302.49 M 242.38 302.49 242.51 302.53 M 242.38 302.49 298.58 319.65 M 298.58 319.65 298.71 319.69 M 238.09 316.49 294.29 333.66 M 294.29 333.66 294.42 333.7 M 297.56 177.93 301.36 165.51 M 301.36 165.51 301.49 165.55 M 285.13 174.13 297.56 177.93 M 297.56 177.93 297.69 177.97 M 285.13 174.13 288.93 161.72 M 288.93 161.72 289.06 161.76 M 316.34 183.66 320.14 171.25 M 320.14 171.25 320.27 171.29 M 303.91 179.87 316.34 183.66 M 316.34 183.66 316.47 183.7 M 303.91 179.87 307.71 167.45 M 307.71 167.45 307.84 167.49 M 335.11 189.4 338.91 176.98 M 338.91 176.98 339.05 177.02 M 322.55 185.56 335.11 189.4 M 335.11 189.4 335.25 189.44 M 322.55 185.56 326.35 173.15 M 326.35 173.15 326.48 173.19 M 378.75 202.73 382.55 190.31 M 382.55 190.31 382.68 190.35 M 366.32 198.93 378.75 202.73 M 378.75 202.73 378.88 202.77 M 366.32 198.93 370.12 186.51 M 370.12 186.51 370.25 186.55 M 397.53 208.46 401.33 196.04 M 401.33 196.04 401.46 196.08 M 384.97 204.63 397.53 208.46 M 397.53 208.46 397.66 208.5 M 384.97 204.63 388.77 192.21 M 388.77 192.21 388.9 192.25 M 416.04 214.12 419.84 201.7 M 419.84 201.7 419.97 201.74 M 403.61 210.32 416.04 214.12 M 416.04 214.12 416.17 214.16 M 403.61 210.32 407.41 197.9 M 407.41 197.9 407.54 197.94 M 285.63 216.9 289.43 204.48 M 289.43 204.48 289.56 204.52 M 273.2 213.1 285.63 216.9 M 285.63 216.9 285.76 216.94 M 273.2 213.1 277 200.69 M 277 200.69 277.13 200.73 M 304.41 222.63 308.21 210.22 M 308.21 210.22 308.34 210.26 M 291.98 218.84 304.41 222.63 M 304.41 222.63 304.54 222.67 M 291.98 218.84 295.78 206.42 M 295.78 206.42 295.91 206.46 M 323.19 228.37 326.99 215.95 M 326.99 215.95 327.12 215.99 M 310.62 224.53 323.19 228.37 M 323.19 228.37 323.32 228.41 M 310.62 224.53 314.42 212.11 M 314.42 212.11 314.56 212.16 M 366.82 241.7 370.62 229.28 M 370.62 229.28 370.76 229.32 M 354.39 237.9 366.82 241.7 M 366.82 241.7 366.96 241.74 M 354.39 237.9 358.19 225.48 M 358.19 225.48 358.33 225.52 M 385.6 247.43 389.4 235.01 M 389.4 235.01 389.53 235.05 M 373.04 243.59 385.6 247.43 M 385.6 247.43 385.73 247.47 M 373.04 243.59 376.84 231.18 M 376.84 231.18 376.97 231.22 M 404.11 253.09 407.91 240.67 M 407.91 240.67 408.05 240.71 M 391.68 249.29 404.11 253.09 M 404.11 253.09 404.25 253.13 M 391.68 249.29 395.48 236.87 M 395.48 236.87 395.62 236.91 M 273.71 255.87 277.51 243.45 M 277.51 243.45 277.64 243.49 M 261.28 252.07 273.71 255.87 M 273.71 255.87 273.84 255.91 M 261.28 252.07 265.08 239.65 M 265.08 239.65 265.21 239.7 M 292.48 261.6 296.28 249.19 M 296.28 249.19 296.42 249.23 M 280.05 257.81 292.48 261.6 M 292.48 261.6 292.62 261.64 M 280.05 257.81 283.85 245.39 M 283.85 245.39 283.99 245.43 M 311.26 267.34 315.06 254.92 M 315.06 254.92 315.19 254.96 M 298.7 263.5 311.26 267.34 M 311.26 267.34 311.39 267.38 M 298.7 263.5 302.5 251.08 M 302.5 251.08 302.63 251.12 M 354.9 280.67 358.7 268.25 M 358.7 268.25 358.83 268.29 M 342.47 276.87 354.9 280.67 M 354.9 280.67 355.03 280.71 M 342.47 276.87 346.27 264.45 M 346.27 264.45 346.4 264.49 M 373.68 286.4 377.48 273.98 M 377.48 273.98 377.61 274.02 M 361.11 282.56 373.68 286.4 M 373.68 286.4 373.81 286.44 M 361.11 282.56 364.91 270.15 M 364.91 270.15 365.05 270.19 M 392.19 292.06 395.99 279.64 M 395.99 279.64 396.12 279.68 M 379.76 288.26 392.19 292.06 M 392.19 292.06 392.32 292.1 M 379.76 288.26 383.56 275.84 M 383.56 275.84 383.69 275.88 M 261.82 294.71 265.58 282.42 M 265.58 282.42 265.71 282.46 M 249.39 290.91 261.82 294.71 M 261.82 294.71 261.95 294.75 M 249.39 290.91 253.15 278.62 M 253.15 278.62 253.28 278.66 M 280.6 300.44 284.36 288.16 M 284.36 288.16 284.49 288.2 M 268.17 296.64 280.6 300.44 M 280.6 300.44 280.73 300.48 M 268.17 296.64 271.93 284.36 M 271.93 284.36 272.06 284.4 M 299.37 306.18 303.13 293.89 M 303.13 293.89 303.27 293.93 M 286.81 302.34 299.37 306.18 M 299.37 306.18 299.51 306.22 M 286.81 302.34 290.57 290.05 M 290.57 290.05 290.7 290.09 M 343.01 319.5 346.77 307.22 M 346.77 307.22 346.9 307.26 M 330.58 315.71 343.01 319.5 M 343.01 319.5 343.14 319.54 M 330.58 315.71 334.34 303.42 M 334.34 303.42 334.47 303.46 M 361.79 325.24 365.55 312.95 M 365.55 312.95 365.68 312.99 M 349.23 321.4 361.79 325.24 M 361.79 325.24 361.92 325.28 M 349.23 321.4 352.99 309.12 M 352.99 309.12 353.12 309.16 M 380.3 330.89 384.06 318.61 M 384.06 318.61 384.19 318.65 M 367.87 327.1 380.3 330.89 M 380.3 330.89 380.43 330.93 M 367.87 327.1 371.63 314.81 M 371.63 314.81 371.76 314.85 M 249.89 333.68 253.69 321.26 M 253.69 321.26 253.83 321.3 M 237.46 329.88 249.89 333.68 M 249.89 333.68 250.03 333.72 M 237.46 329.88 241.26 317.46 M 241.26 317.46 241.4 317.5 M 268.67 339.41 272.47 326.99 M 272.47 326.99 272.6 327.03 M 256.24 335.61 268.67 339.41 M 268.67 339.41 268.8 339.45 M 256.24 335.61 260.04 323.2 M 260.04 323.2 260.17 323.24 M 287.45 345.15 291.25 332.73 M 291.25 332.73 291.38 332.77 M 274.89 341.31 275.55 341.51 M 277.13 342 278.72 342.48 M 280.31 342.96 281.89 343.45 M 283.48 343.93 285.07 344.42 M 286.66 344.9 287.45 345.15 M 287.45 345.15 287.58 345.19 M 274.89 341.31 278.69 328.89 M 278.69 328.89 278.82 328.93 M 331.09 358.47 334.89 346.06 M 334.89 346.06 335.02 346.1 M 318.66 354.68 319.32 354.88 M 320.9 355.36 322.49 355.85 M 324.08 356.33 325.53 356.78 M 327.12 357.26 328.71 357.75 M 330.29 358.23 331.09 358.47 M 331.09 358.47 331.22 358.51 M 318.66 354.68 322.46 342.26 M 322.46 342.26 322.59 342.3 M 349.86 364.21 353.66 351.79 M 353.66 351.79 353.8 351.83 M 337.3 360.37 349.86 364.21 M 349.86 364.21 350 364.25 M 337.3 360.37 341.1 347.95 M 341.1 347.95 341.23 347.99 M 368.38 369.86 372.18 357.45 M 372.18 357.45 372.31 357.49 M 355.95 366.07 368.38 369.86 M 368.38 369.86 368.51 369.9 M 355.95 366.07 359.75 353.65 M 359.75 353.65 359.88 353.69 M 564.86 469.16 565.52 469.36 M 566.84 469.77 642.87 492.99 M 642.87 492.99 643.01 493.03 M 642.87 492.99 719.16 243.72 M 719.16 243.72 719.29 243.76 M 641.14 219.89 719.16 243.72 M 719.16 243.72 719.29 243.76 M 564.86 469.16 641.14 219.89 M 641.14 219.89 641.28 219.93 M 641.14 219.89 603.86 481.08 M 603.86 481.08 604 481.12 M 603.86 481.08 719.16 243.72 M 719.16 243.72 719.29 243.76 M 427.27 372.54 499.08 394.47 M 499.08 394.47 499.21 394.51 M 499.08 394.47 560.08 195.13 M 560.08 195.13 560.22 195.17 M 488.28 173.2 560.08 195.13 M 560.08 195.13 560.22 195.17 M 427.27 372.54 488.28 173.2 M 488.28 173.2 488.41 173.24 M 488.28 173.2 463.11 383.48 M 463.11 383.48 463.24 383.53 M 463.11 383.48 560.08 195.13 M 560.08 195.13 560.22 195.17 M 392.63 505.11 453.46 523.69 M 453.46 523.69 453.59 523.73 M 453.46 523.69 483.98 423.95 M 483.98 423.95 484.11 423.99 M 423.15 405.37 483.98 423.95 M 483.98 423.95 484.11 423.99 M 392.63 505.11 423.15 405.37 M 423.15 405.37 423.29 405.41 M 423.15 405.37 423.05 514.4 M 423.05 514.4 423.18 514.44 M 423.05 514.4 483.98 423.95 M 483.98 423.95 484.11 423.99 M 321.68 88.23 433.95 122.52 M 431.92 128.69 433.86 122.35 M 319.78 94.44 432.05 128.73 M 319.78 94.44 321.73 88.1 M 384.79 419.22 399.59 370.87 M 385.57 366.59 399.59 370.87 M 370.77 414.94 384.79 419.22 M 97.75 203.86 149.86 33.58 M 100.92 204.83 153.03 34.55 M 103.96 205.76 156.07 35.48 M 107.13 206.73 159.25 36.45 M 110.31 207.7 162.42 37.42 M 113.35 208.63 165.46 38.35 M 116.52 209.59 168.64 39.32 M 119.56 210.52 171.68 40.25 M 122.74 211.49 174.85 41.22 M 125.91 212.46 178.02 42.18 M 128.95 213.39 181.07 43.11 M 262.83 188.41 296.51 78.37 M 340.57 502.78 352.05 465.27 M 337.39 501.81 348.87 464.3 M 334.22 500.84 345.7 463.33 M 331.18 499.92 342.66 462.4 M 328 498.95 339.49 461.43 M 324.96 498.02 336.44 460.5 M 321.79 497.05 333.27 459.53 M 318.61 496.08 330.1 458.56 M 315.57 495.15 327.05 457.63 M 312.53 494.22 324.01 456.7 M 309.49 493.29 320.97 455.78 M 306.32 492.32 317.8 454.81 M 303.14 491.35 314.62 453.84 M 300.1 490.42 311.58 452.91 M 296.93 489.46 308.41 451.94 M 293.89 488.53 305.37 451.01 M 290.71 487.56 302.19 450.04 M 237.69 471.36 249.17 433.85 M 234.51 470.39 246 432.88 M 231.47 469.46 242.95 431.95 M 228.3 468.49 239.78 430.98 M 225.26 467.57 236.74 430.05 M 222.08 466.6 233.57 429.08 M 218.91 465.63 230.39 428.11 M 215.87 464.7 227.35 427.18 M 212.7 463.73 224.18 426.21 M 209.65 462.8 221.14 425.28 M 206.48 461.83 217.96 424.31 M 203.31 460.86 214.79 423.34 M 200.27 459.93 211.75 422.42 M 197.09 458.96 208.57 421.45 M 194.05 458.03 205.53 420.52 M 190.88 457.07 202.36 419.55 M 187.7 456.1 199.18 418.58 M 184.66 455.17 196.14 417.65 M 1 416.98 1.61 415 M 2.01 413.68 128.31 1 M 671.69 621.83 672.3 619.85 M 672.7 618.53 799 205.84 M 1 416.98 671.69 621.83 M 128.31 1 799 205.84 M 259.22 189.33 293.46 77.44 M 130.75 218.85 184.24 44.08 M 134.32 218.06 187.28 45.01 M 138.06 217.18 190.45 45.98 M 141.8 216.3 193.63 46.95 M 145.37 215.52 196.67 47.88 M 149.11 214.63 199.84 48.85 M 152.67 213.85 202.88 49.78 M 156.41 212.97 206.06 50.75 M 160.02 212.05 209.1 51.68 M 163.72 211.3 212.27 52.65 M 167.46 210.42 215.45 53.61 M 171.07 209.5 218.49 54.54 M 174.76 208.75 221.66 55.51 M 178.37 207.83 224.7 56.44 M 182.07 207.08 227.88 57.41 M 185.81 206.2 231.05 58.38 M 189.42 205.28 234.09 59.31 M 193.12 204.53 237.26 60.28 M 196.72 203.61 240.31 61.21 M 200.46 202.73 243.48 62.18 M 204.16 201.98 246.65 63.15 M 207.77 201.06 249.69 64.07 M 211.47 200.31 252.87 65.04 M 215.08 199.39 255.91 65.97 M 218.82 198.51 259.08 66.94 M 222.52 197.77 262.26 67.91 M 226.12 196.85 265.3 68.84 M 229.86 195.97 268.47 69.81 M 233.43 195.18 271.51 70.74 M 237.17 194.3 274.69 71.71 M 240.87 193.55 277.86 72.68 M 244.48 192.63 280.9 73.61 M 248.22 191.75 284.08 74.58 M 251.78 190.96 287.12 75.5 M 255.52 190.08 290.29 76.47 M 181.49 454.2 211.93 354.73 M 69.22 419.91 79.85 385.17 M 91.04 426.57 105.51 379.28 M 178.45 453.27 208.36 355.51 M 175.27 452.3 204.62 356.39 M 172.1 451.33 200.88 357.27 M 169.06 450.4 197.32 358.06 M 165.88 449.43 193.58 358.94 M 162.84 448.5 189.97 359.86 M 159.67 447.53 186.27 360.61 M 156.5 446.56 182.53 361.49 M 153.45 445.64 178.96 362.28 M 150.28 444.67 175.22 363.16 M 147.24 443.74 171.62 364.08 M 144.07 442.77 167.92 364.83 M 140.89 441.8 164.18 365.71 M 137.85 440.87 160.57 366.63 M 134.68 439.9 156.87 367.38 M 131.64 438.97 153.26 368.3 M 128.46 438 149.57 369.05 M 125.29 437.03 145.83 369.93 M 122.25 436.1 142.22 370.85 M 119.07 435.13 138.52 371.59 M 116.03 434.21 134.91 372.52 M 112.86 433.24 131.17 373.4 M 109.68 432.27 127.47 374.14 M 106.64 431.34 123.87 375.06 M 103.47 430.37 120.17 375.81 M 100.43 429.44 116.56 376.73 M 97.25 428.47 112.82 377.61 M 94.08 427.5 109.12 378.36 M 87.87 425.6 101.77 380.16 M 84.82 424.67 98.21 380.95 M 81.65 423.71 94.47 381.83 M 78.61 422.78 90.9 382.62 M 75.44 421.81 87.16 383.5 M 72.26 420.84 83.42 384.38 M 203.73 415.06 222.98 352.18 M 350.25 459.81 395.33 312.51 M 347.07 458.84 391.63 313.26 M 344.03 457.91 388.02 314.18 M 340.86 456.94 384.28 315.06 M 337.82 456.01 380.71 315.85 M 334.64 455.04 376.97 316.73 M 331.47 454.07 373.27 317.48 M 328.43 453.14 369.67 318.4 M 325.39 452.21 366.1 319.19 M 322.35 451.28 362.53 319.98 M 319.17 450.32 358.79 320.86 M 316 449.35 355.05 321.74 M 312.96 448.42 351.49 322.53 M 309.78 447.45 347.75 323.41 M 306.74 446.52 344.18 324.19 M 303.57 445.55 340.44 325.07 M 250.54 429.35 278.03 339.53 M 247.37 428.38 274.34 340.27 M 244.33 427.46 270.73 341.19 M 241.15 426.49 266.99 342.07 M 238.11 425.56 263.42 342.86 M 234.94 424.59 259.68 343.74 M 231.77 423.62 255.98 344.49 M 228.72 422.69 252.38 345.41 M 225.55 421.72 248.64 346.29 M 222.51 420.79 245.07 347.08 M 219.34 419.82 241.33 347.96 M 216.16 418.85 237.63 348.71 M 213.12 417.92 234.02 349.63 M 209.95 416.96 230.28 350.51 M 206.91 416.03 226.72 351.3 M 287.54 486.59 336.7 325.95 M 284.5 485.66 333.13 326.74 M 281.32 484.69 329.39 327.62 M 278.28 483.76 325.79 328.54 M 275.11 482.79 322.09 329.29 M 271.94 481.82 318.35 330.17 M 268.89 480.89 314.78 330.96 M 265.72 479.92 311.04 331.84 M 262.68 479 307.43 332.76 M 259.51 478.03 303.73 333.51 M 256.33 477.06 299.99 334.39 M 253.29 476.13 296.39 335.31 M 250.12 475.16 292.69 336.06 M 247.08 474.23 289.08 336.98 M 243.9 473.26 285.38 337.73 M 240.73 472.29 281.64 338.61 M 273.88 185.86 305.33 83.09 M 446.26 146.07 451.84 127.84 M 442.57 146.82 448.67 126.87 M 438.96 147.74 445.63 125.94 M 435.22 148.62 442.46 124.97 M 431.65 149.4 439.41 124.04 M 427.91 150.28 436.24 123.07 M 292.23 181.65 320.93 87.85 M 288.49 182.53 317.76 86.89 M 284.92 183.31 314.72 85.96 M 281.18 184.19 311.54 84.99 M 277.62 184.98 308.5 84.06 M 295.97 180.77 322.21 95.03 M 424.21 151.03 431.17 128.31 M 420.61 151.95 428.13 127.38 M 417 152.87 425.08 126.45 M 413.43 153.66 422.04 125.52 M 409.69 154.54 418.87 124.56 M 405.95 155.42 415.7 123.59 M 402.39 156.21 412.65 122.66 M 398.65 157.09 409.48 121.69 M 395.08 157.88 406.44 120.76 M 391.34 158.76 403.27 119.79 M 328.93 173.21 350.24 103.59 M 325.23 173.96 347.07 102.63 M 321.63 174.88 344.02 101.7 M 317.89 175.76 340.85 100.73 M 314.32 176.55 337.81 99.8 M 310.58 177.43 334.64 98.83 M 306.88 178.18 331.46 97.86 M 303.27 179.1 328.42 96.93 M 299.53 179.98 325.25 95.96 M 387.6 159.64 400.09 118.82 M 384.03 160.43 397.05 117.89 M 380.29 161.31 393.88 116.92 M 372.99 162.98 387.66 115.02 M 365.68 164.65 381.45 113.13 M 376.69 162.23 390.84 115.99 M 369.25 163.86 384.49 114.05 M 361.94 165.53 378.27 112.16 M 358.33 166.45 375.23 111.23 M 354.63 167.19 372.06 110.26 M 350.89 168.07 368.88 109.29 M 347.29 168.99 365.84 108.36 M 343.59 169.74 362.67 107.39 M 339.98 170.66 359.63 106.46 M 336.28 171.41 356.45 105.49 M 332.54 172.29 353.28 104.52"/>
</g>
</svg>