<?xml version="1.0"?>
<svg xmlns="http://www.w3.org/2000/svg" version="1.2" baseProfile="tiny" width="800" height="502" viewBox="0 0 800 502" stroke-linecap="round" stroke-linejoin="round">
<g id="森の工房、森の情報センター2F" fill="none" stroke="black" stroke-width="1">
<path d="M 321.35 359.57 47.17 281.38 M 319.06 358.26 49.8 281.47 M 50.11 281.56 318.76 358.17 M 318.76 358.17 334.19 311.57 M 156.31 236.66 150.75 255.94 M 329.83 320.92 318.01 357.3 M 329.21 320.75 317.39 357.12 M 317.39 357.12 318.01 357.3 M 51.83 281.39 51.21 281.21 M 51.21 281.21 60.57 244.13 M 61.18 244.31 51.83 281.39 M 46 213.81 56.33 166.42 M 56.33 166.42 63.85 119.54 M 63.85 119.54 63.7 99.3 M 63.7 99.3 99.41 48.21 M 99.23 48.82 124.34 1 M 124.34 1 405.3 81.12 M 405.3 81.12 401.11 134.91 M 404.35 196.44 401.29 134.3 M 374.83 257.25 393.43 213.53 M 393.43 213.53 404.35 196.44 M 46 213.81 22.43 309.43 M 22.43 309.43 327.38 396.4 M 327.38 396.4 358.34 302.89 M 358.34 302.89 374.83 257.25 M 251.07 329.59 259.01 302.05 M 259.01 302.05 298.7 313.37 M 298.7 313.37 290.76 340.91 M 290.76 340.91 251.07 329.59 M 338.68 307.55 321.35 359.57 M 320.21 354.28 320.39 353.67 M 320.39 353.67 323.16 354.46 M 323.16 354.46 322.98 355.07 M 322.98 355.07 320.21 354.28 M 326.82 342.92 324.45 341.91 M 324.45 341.91 324.27 342.52 M 324.27 342.52 326.64 343.53 M 326.64 343.53 326.82 342.92 M 330.88 331.16 328.19 330.06 M 328.19 330.06 328.02 330.67 M 328.02 330.67 330.7 331.77 M 330.7 331.77 330.88 331.16 M 334.62 319.31 332.16 318.61 M 332.16 318.61 332.07 318.91 M 332.07 318.91 334.45 319.92 M 334.45 319.92 334.62 319.31 M 338.68 307.55 335.91 306.76 M 335.91 306.76 335.82 307.06 M 335.82 307.06 338.2 308.07 M 338.2 308.07 338.68 307.55 M 357.86 253.73 338.59 307.85 M 355.22 253.64 334.19 311.57 M 343.63 285.77 343.8 285.16 M 343.8 285.16 346.27 285.86 M 346.27 285.86 346.09 286.48 M 346.09 286.48 343.63 285.77 M 339.53 296.53 339.7 295.92 M 339.7 295.92 342.47 296.71 M 342.47 296.71 342.3 297.32 M 342.3 297.32 339.53 296.53 M 350.37 275.11 347.6 274.32 M 347.6 274.32 347.42 274.93 M 347.42 274.93 349.88 275.63 M 349.88 275.63 350.37 275.11 M 351.21 264.09 351.39 263.48 M 351.39 263.48 354.16 264.27 M 354.16 264.27 353.98 264.88 M 353.98 264.88 351.21 264.09 M 347.18 250.35 357.6 254.65 M 357.6 254.65 354.92 253.55 M 354.92 253.55 355.4 253.03 M 355.4 253.03 357.77 254.04 M 357.77 254.04 357.6 254.65 M 357.6 254.65 378.62 206 M 347.18 250.35 368.2 201.7 M 362.66 242.85 360.38 241.53 M 360.38 241.53 360.47 241.23 M 360.47 241.23 362.84 242.23 M 362.84 242.23 362.66 242.85 M 367.82 230.74 365.45 229.73 M 365.45 229.73 365.62 229.12 M 365.62 229.12 368 230.13 M 368 230.13 367.82 230.74 M 373.46 218.1 370.78 217.01 M 370.78 217.01 370.6 217.62 M 370.6 217.62 372.98 218.63 M 372.98 218.63 373.46 218.1 M 378.44 206.61 375.76 205.51 M 375.76 205.51 375.94 204.9 M 375.94 204.9 378.62 206 M 378.62 206 378.44 206.61 M 368.2 201.7 378.62 206 M 396.85 177.41 377.96 207.13 M 394.83 175.18 375.67 205.82 M 381.84 195.98 384.12 197.3 M 384.12 197.3 384.61 196.77 M 384.61 196.77 382.32 195.46 M 382.32 195.46 381.84 195.98 M 388 186.15 390.29 187.46 M 390.29 187.46 390.77 186.94 M 390.77 186.94 388.49 185.63 M 388.49 185.63 388 186.15 M 388.83 150.95 424.52 161.13 M 420.52 166.94 394.83 175.18 M 425.84 168.12 396.85 177.41 M 396.94 177.11 395.23 174.96 M 395.23 174.96 394.83 175.18 M 394.83 175.18 396.45 177.63 M 396.45 177.63 396.94 177.11 M 359.1 152.41 362.28 141.39 M 362.28 141.39 389.36 149.11 M 389.36 149.11 386.18 160.13 M 386.18 160.13 359.1 152.41 M 420.12 167.16 418.81 162.48 M 418.19 162.3 418.99 159.55 M 418.99 159.55 419.6 159.72 M 419.6 159.72 418.81 162.48 M 418.81 162.48 418.19 162.3 M 419.81 167.07 420.73 169.65 M 420.73 169.65 421.44 169.52 M 421.44 169.52 420.52 166.94 M 420.52 166.94 419.81 167.07 M 128.18 76.62 361.75 143.22 M 101.1 68.89 65.41 58.71 M 60.57 63.96 80.2 87.11 M 65.71 65.76 82.79 86.19 M 80.29 86.8 82.88 85.89 M 82.88 85.89 83.1 86.28 M 83.1 86.28 80.42 87.5 M 80.42 87.5 80.29 86.8 M 66.24 66.24 64.08 67.94 M 64.08 67.94 63.55 67.46 M 63.55 67.46 65.71 65.76 M 65.71 65.76 66.24 66.24 M 69.54 62.87 70.33 60.12 M 70.33 60.12 70.95 60.29 M 70.95 60.29 70.15 63.05 M 70.15 63.05 69.54 62.87 M 65.93 66.15 69.54 62.87 M 98.46 78.08 101.63 67.06 M 101.63 67.06 128.71 74.78 M 128.71 74.78 125.54 85.8 M 125.54 85.8 98.46 78.08 M 80.2 87.11 80.08 122.18 M 82.79 86.19 83.02 122.36 M 91.55 122.81 80.43 120.96 M 83.03 110.77 80.4 110.68 M 80.4 110.68 80.27 109.98 M 80.27 109.98 82.9 110.07 M 82.9 110.07 83.03 110.77 M 80.25 121.57 83.11 122.06 M 83.11 122.06 83.29 121.44 M 83.29 121.44 80.43 120.96 M 80.43 120.96 80.25 121.57 M 83.05 99.18 80.41 99.09 M 80.41 99.09 80.28 98.39 M 80.28 98.39 82.91 98.48 M 82.91 98.48 83.05 99.18 M 83.46 175.15 91.55 122.81 M 80.43 120.96 72.33 173.3 M 74.32 160.62 76.96 160.71 M 76.96 160.71 77.05 160.4 M 77.05 160.4 74.5 160.01 M 74.5 160.01 74.32 160.62 M 72.33 173.3 75.19 173.78 M 75.19 173.78 75.06 173.08 M 75.06 173.08 72.51 172.69 M 72.51 172.69 72.33 173.3 M 83.46 175.15 72.33 173.3 M 78.35 133.95 81.21 134.43 M 81.21 134.43 81.03 135.04 M 81.03 135.04 78.48 134.65 M 78.48 134.65 78.35 133.95 M 76.4 147.63 78.95 148.03 M 78.95 148.03 79.13 147.42 M 79.13 147.42 76.27 146.93 M 76.27 146.93 76.4 147.63 M 65.13 206.35 65.31 205.74 M 65.31 205.74 67.77 206.44 M 67.77 206.44 67.6 207.06 M 67.6 207.06 65.13 206.35 M 67.39 195.07 67.56 194.46 M 67.56 194.46 70.33 195.25 M 70.33 195.25 70.16 195.86 M 70.16 195.86 67.39 195.07 M 69.95 183.88 70.13 183.27 M 70.13 183.27 72.89 184.06 M 72.89 184.06 72.72 184.67 M 72.72 184.67 69.95 183.88 M 74.88 173.7 62.78 229.53 M 72.6 172.38 60.1 228.43 M 57.36 240.24 59.82 240.94 M 59.82 240.94 59.74 241.25 M 59.74 241.25 57.19 240.85 M 57.19 240.85 57.36 240.24 M 60.19 228.13 62.96 228.92 M 62.96 228.92 62.87 229.22 M 62.87 229.22 60.01 228.74 M 60.01 228.74 60.19 228.13 M 60.19 228.13 47.17 281.38 M 48.18 276.7 48.36 276.09 M 48.36 276.09 51.13 276.88 M 51.13 276.88 50.95 277.49 M 50.95 277.49 48.18 276.7 M 51.4 264.37 53.95 264.77 M 53.95 264.77 53.78 265.38 M 53.78 265.38 51.23 264.99 M 51.23 264.99 51.4 264.37 M 54.23 252.26 57.09 252.75 M 57.09 252.75 56.91 253.36 M 56.91 253.36 54.05 252.87 M 54.05 252.87 54.23 252.26 M 62.87 229.22 49.63 282.08 M 45.49 284.88 320.91 363.42 M 335.82 307.06 233.04 277.75 M 62.65 280.83 62.91 279.91 M 62.91 279.91 63.22 280 M 63.22 280 62.95 280.92 M 62.95 280.92 62.65 280.83 M 63.26 281 63.53 280.09 M 63.53 280.09 63.83 280.17 M 63.83 280.17 63.57 281.09 M 63.57 281.09 63.26 281 M 63.88 281.18 64.14 280.26 M 64.14 280.26 64.76 280.44 M 64.76 280.44 64.49 281.35 M 64.49 281.35 63.88 281.18 M 64.8 281.44 65.06 280.52 M 65.06 280.52 65.37 280.61 M 65.37 280.61 65.11 281.53 M 65.11 281.53 64.8 281.44 M 65.42 281.62 65.68 280.7 M 65.68 280.7 65.99 280.79 M 65.99 280.79 65.72 281.71 M 65.72 281.71 65.42 281.62 M 66.03 281.79 66.3 280.88 M 66.3 280.88 66.6 280.96 M 66.6 280.96 66.34 281.88 M 66.34 281.88 66.03 281.79 M 66.65 281.97 66.91 281.05 M 66.91 281.05 67.22 281.14 M 67.22 281.14 66.95 282.06 M 66.95 282.06 66.65 281.97 M 67.26 282.14 67.53 281.23 M 67.53 281.23 67.83 281.31 M 67.83 281.31 67.57 282.23 M 67.57 282.23 67.26 282.14 M 67.88 282.32 68.14 281.4 M 68.14 281.4 68.45 281.49 M 68.45 281.49 68.18 282.41 M 68.18 282.41 67.88 282.32 M 68.67 279.57 68.94 278.65 M 68.94 278.65 69.24 278.74 M 69.24 278.74 68.98 279.65 M 68.98 279.65 68.67 279.57 M 68.06 279.39 68.32 278.47 M 68.32 278.47 68.63 278.56 M 68.63 278.56 68.36 279.48 M 68.36 279.48 68.06 279.39 M 67.44 279.21 67.71 278.3 M 67.71 278.3 68.01 278.38 M 68.01 278.38 67.75 279.3 M 67.75 279.3 67.44 279.21 M 66.82 279.04 67.09 278.12 M 67.09 278.12 67.4 278.21 M 67.4 278.21 67.13 279.13 M 67.13 279.13 66.82 279.04 M 66.21 278.86 66.47 277.95 M 66.47 277.95 66.78 278.03 M 66.78 278.03 66.52 278.95 M 66.52 278.95 66.21 278.86 M 65.59 278.69 65.86 277.77 M 65.86 277.77 66.17 277.86 M 66.17 277.86 65.9 278.78 M 65.9 278.78 65.59 278.69 M 64.67 278.43 64.94 277.51 M 64.94 277.51 65.55 277.68 M 65.55 277.68 65.29 278.6 M 65.29 278.6 64.67 278.43 M 64.06 278.25 64.32 277.33 M 64.32 277.33 64.63 277.42 M 64.63 277.42 64.36 278.34 M 64.36 278.34 64.06 278.25 M 63.44 278.07 63.7 277.16 M 63.7 277.16 64.01 277.24 M 64.01 277.24 63.75 278.16 M 63.75 278.16 63.44 278.07 M 68.49 282.5 68.76 281.58 M 68.76 281.58 69.37 281.75 M 69.37 281.75 69.11 282.67 M 69.11 282.67 68.49 282.5 M 69.29 279.74 69.55 278.82 M 69.55 278.82 70.17 279 M 70.17 279 69.9 279.92 M 69.9 279.92 69.29 279.74 M 132.06 297.64 132.33 296.73 M 132.33 296.73 132.94 296.9 M 132.94 296.9 132.68 297.82 M 132.68 297.82 132.06 297.64 M 131.45 297.47 131.71 296.55 M 131.71 296.55 132.02 296.64 M 132.02 296.64 131.75 297.56 M 131.75 297.56 131.45 297.47 M 130.83 297.29 131.1 296.37 M 131.1 296.37 131.4 296.46 M 131.4 296.46 131.14 297.38 M 131.14 297.38 130.83 297.29 M 130.22 297.12 130.48 296.2 M 130.48 296.2 130.79 296.29 M 130.79 296.29 130.52 297.2 M 130.52 297.2 130.22 297.12 M 129.42 299.87 129.69 298.95 M 129.69 298.95 129.99 299.04 M 129.99 299.04 129.73 299.96 M 129.73 299.96 129.42 299.87 M 130.04 300.05 130.3 299.13 M 130.3 299.13 130.61 299.22 M 130.61 299.22 130.35 300.13 M 130.35 300.13 130.04 300.05 M 130.65 300.22 130.92 299.3 M 130.92 299.3 131.23 299.39 M 131.23 299.39 130.96 300.31 M 130.96 300.31 130.65 300.22 M 131.27 300.4 131.53 299.48 M 131.53 299.48 132.15 299.66 M 132.15 299.66 131.88 300.57 M 131.88 300.57 131.27 300.4 M 136.06 298.78 136.33 297.87 M 136.33 297.87 136.64 297.95 M 136.64 297.95 136.37 298.87 M 136.37 298.87 136.06 298.78 M 135.45 298.61 135.71 297.69 M 135.71 297.69 136.02 297.78 M 136.02 297.78 135.76 298.7 M 135.76 298.7 135.45 298.61 M 134.83 298.43 135.1 297.52 M 135.1 297.52 135.4 297.6 M 135.4 297.6 135.14 298.52 M 135.14 298.52 134.83 298.43 M 134.22 298.26 134.48 297.34 M 134.48 297.34 134.79 297.43 M 134.79 297.43 134.52 298.35 M 134.52 298.35 134.22 298.26 M 133.6 298.08 133.87 297.16 M 133.87 297.16 134.17 297.25 M 134.17 297.25 133.91 298.17 M 133.91 298.17 133.6 298.08 M 132.99 297.91 133.25 296.99 M 133.25 296.99 133.56 297.08 M 133.56 297.08 133.29 297.99 M 133.29 297.99 132.99 297.91 M 132.19 300.66 132.46 299.74 M 132.46 299.74 132.76 299.83 M 132.76 299.83 132.5 300.75 M 132.5 300.75 132.19 300.66 M 132.81 300.84 133.07 299.92 M 133.07 299.92 133.38 300.01 M 133.38 300.01 133.11 300.92 M 133.11 300.92 132.81 300.84 M 133.42 301.01 133.69 300.09 M 133.69 300.09 134 300.18 M 134 300.18 133.73 301.1 M 133.73 301.1 133.42 301.01 M 134.04 301.19 134.3 300.27 M 134.3 300.27 134.61 300.36 M 134.61 300.36 134.35 301.28 M 134.35 301.28 134.04 301.19 M 134.65 301.36 134.92 300.45 M 134.92 300.45 135.23 300.53 M 135.23 300.53 134.96 301.45 M 134.96 301.45 134.65 301.36 M 135.27 301.54 135.53 300.62 M 135.53 300.62 135.84 300.71 M 135.84 300.71 135.58 301.63 M 135.58 301.63 135.27 301.54 M 148.5 305.31 148.77 304.39 M 148.77 304.39 149.07 304.48 M 149.07 304.48 148.81 305.4 M 148.81 305.4 148.5 305.31 M 149.12 305.49 149.38 304.57 M 149.38 304.57 149.69 304.66 M 149.69 304.66 149.42 305.58 M 149.42 305.58 149.12 305.49 M 149.73 305.66 150 304.75 M 150 304.75 150.61 304.92 M 150.61 304.92 150.35 305.84 M 150.35 305.84 149.73 305.66 M 150.66 305.93 150.92 305.01 M 150.92 305.01 151.23 305.1 M 151.23 305.1 150.96 306.01 M 150.96 306.01 150.66 305.93 M 151.27 306.1 151.54 305.18 M 151.54 305.18 151.84 305.27 M 151.84 305.27 151.58 306.19 M 151.58 306.19 151.27 306.1 M 151.89 306.28 152.15 305.36 M 152.15 305.36 152.46 305.45 M 152.46 305.45 152.19 306.37 M 152.19 306.37 151.89 306.28 M 152.68 303.52 152.94 302.61 M 152.94 302.61 153.25 302.69 M 153.25 302.69 152.99 303.61 M 152.99 303.61 152.68 303.52 M 152.06 303.35 152.33 302.43 M 152.33 302.43 152.64 302.52 M 152.64 302.52 152.37 303.44 M 152.37 303.44 152.06 303.35 M 151.45 303.17 151.71 302.25 M 151.71 302.25 152.02 302.34 M 152.02 302.34 151.76 303.26 M 151.76 303.26 151.45 303.17 M 150.53 302.91 150.79 301.99 M 150.79 301.99 151.41 302.17 M 151.41 302.17 151.14 303.08 M 151.14 303.08 150.53 302.91 M 149.91 302.73 150.18 301.82 M 150.18 301.82 150.48 301.9 M 150.48 301.9 150.22 302.82 M 150.22 302.82 149.91 302.73 M 149.3 302.56 149.56 301.64 M 149.56 301.64 149.87 301.73 M 149.87 301.73 149.6 302.65 M 149.6 302.65 149.3 302.56 M 152.5 306.45 152.77 305.54 M 152.77 305.54 153.07 305.62 M 153.07 305.62 152.81 306.54 M 152.81 306.54 152.5 306.45 M 153.12 306.63 153.38 305.71 M 153.38 305.71 153.69 305.8 M 153.69 305.8 153.42 306.72 M 153.42 306.72 153.12 306.63 M 153.73 306.8 154 305.89 M 154 305.89 154.3 305.97 M 154.3 305.97 154.04 306.89 M 154.04 306.89 153.73 306.8 M 154.35 306.98 154.61 306.06 M 154.61 306.06 155.23 306.24 M 155.23 306.24 154.96 307.16 M 154.96 307.16 154.35 306.98 M 155.14 304.23 155.41 303.31 M 155.41 303.31 156.02 303.48 M 156.02 303.48 155.76 304.4 M 155.76 304.4 155.14 304.23 M 154.53 304.05 154.79 303.13 M 154.79 303.13 155.1 303.22 M 155.1 303.22 154.83 304.14 M 154.83 304.14 154.53 304.05 M 153.91 303.87 154.18 302.96 M 154.18 302.96 154.48 303.04 M 154.48 303.04 154.22 303.96 M 154.22 303.96 153.91 303.87 M 153.3 303.7 153.56 302.78 M 153.56 302.78 153.87 302.87 M 153.87 302.87 153.6 303.79 M 153.6 303.79 153.3 303.7 M 216.33 323 216.51 322.39 M 216.51 322.39 218.97 323.09 M 218.97 323.09 218.8 323.7 M 218.8 323.7 216.33 323 M 222.66 326.46 222.05 326.29 M 222.05 326.29 222.31 325.37 M 222.31 325.37 222.93 325.54 M 222.93 325.54 222.66 326.46 M 222.66 326.46 223.28 326.64 M 222.66 326.46 222.93 325.54 M 222.93 325.54 223.54 325.72 M 223.54 325.72 223.28 326.64 M 223.59 326.72 223.85 325.81 M 223.85 325.81 224.16 325.89 M 224.16 325.89 223.89 326.81 M 223.89 326.81 223.59 326.72 M 224.2 326.9 224.47 325.98 M 224.47 325.98 224.77 326.07 M 224.77 326.07 224.51 326.99 M 224.51 326.99 224.2 326.9 M 225 324.15 225.26 323.23 M 225.26 323.23 225.57 323.32 M 225.57 323.32 225.3 324.23 M 225.3 324.23 225 324.15 M 224.38 323.97 224.64 323.05 M 224.64 323.05 224.95 323.14 M 224.95 323.14 224.69 324.06 M 224.69 324.06 224.38 323.97 M 223.46 323.71 223.72 322.79 M 223.72 322.79 224.34 322.96 M 224.34 322.96 224.07 323.88 M 224.07 323.88 223.46 323.71 M 222.84 323.53 223.11 322.61 M 223.11 322.61 223.72 322.79 M 223.72 322.79 223.46 323.71 M 223.46 323.71 222.84 323.53 M 216.38 321.69 216.64 320.77 M 216.64 320.77 216.95 320.86 M 216.95 320.86 216.69 321.78 M 216.69 321.78 216.38 321.69 M 216.99 321.86 217.26 320.95 M 217.26 320.95 217.57 321.03 M 217.57 321.03 217.3 321.95 M 217.3 321.95 216.99 321.86 M 217.61 322.04 217.88 321.12 M 217.88 321.12 218.18 321.21 M 218.18 321.21 217.92 322.13 M 217.92 322.13 217.61 322.04 M 218.23 322.22 218.49 321.3 M 218.49 321.3 218.8 321.38 M 218.8 321.38 218.53 322.3 M 218.53 322.3 218.23 322.22 M 218.84 322.39 219.11 321.47 M 219.11 321.47 219.41 321.56 M 219.41 321.56 219.15 322.48 M 219.15 322.48 218.84 322.39 M 219.46 322.57 219.72 321.65 M 219.72 321.65 220.03 321.74 M 220.03 321.74 219.76 322.65 M 219.76 322.65 219.46 322.57 M 220.07 322.74 220.34 321.82 M 220.34 321.82 220.95 322 M 220.95 322 220.69 322.92 M 220.69 322.92 220.07 322.74 M 221 323.01 221.26 322.09 M 221.26 322.09 221.57 322.17 M 221.57 322.17 221.3 323.09 M 221.3 323.09 221 323.01 M 221.61 323.18 221.88 322.26 M 221.88 322.26 222.18 322.35 M 222.18 322.35 221.92 323.27 M 221.92 323.27 221.61 323.18 M 222.23 323.36 222.49 322.44 M 222.49 322.44 222.8 322.53 M 222.8 322.53 222.53 323.44 M 222.53 323.44 222.23 323.36 M 221.43 326.11 221.7 325.19 M 221.7 325.19 222 325.28 M 222 325.28 221.74 326.2 M 221.74 326.2 221.43 326.11 M 220.82 325.94 221.08 325.02 M 221.08 325.02 221.39 325.1 M 221.39 325.1 221.12 326.02 M 221.12 326.02 220.82 325.94 M 220.2 325.76 220.47 324.84 M 220.47 324.84 220.77 324.93 M 220.77 324.93 220.51 325.85 M 220.51 325.85 220.2 325.76 M 219.28 325.5 219.54 324.58 M 219.54 324.58 220.16 324.75 M 220.16 324.75 219.89 325.67 M 219.89 325.67 219.28 325.5 M 218.66 325.32 218.93 324.4 M 218.93 324.4 219.23 324.49 M 219.23 324.49 218.97 325.41 M 218.97 325.41 218.66 325.32 M 218.05 325.15 218.31 324.23 M 218.31 324.23 218.62 324.31 M 218.62 324.31 218.35 325.23 M 218.35 325.23 218.05 325.15 M 217.43 324.97 217.7 324.05 M 217.7 324.05 218 324.14 M 218 324.14 217.74 325.06 M 217.74 325.06 217.43 324.97 M 216.82 324.79 217.08 323.88 M 217.08 323.88 217.39 323.96 M 217.39 323.96 217.12 324.88 M 217.12 324.88 216.82 324.79 M 216.2 324.62 216.47 323.7 M 216.47 323.7 216.77 323.79 M 216.77 323.79 216.51 324.71 M 216.51 324.71 216.2 324.62 M 215.59 324.44 215.85 323.52 M 215.85 323.52 216.16 323.61 M 216.16 323.61 215.89 324.53 M 215.89 324.53 215.59 324.44 M 240.07 328.45 240.34 327.53 M 240.34 327.53 240.95 327.7 M 240.95 327.7 240.69 328.62 M 240.69 328.62 240.07 328.45 M 239.28 331.2 239.54 330.28 M 239.54 330.28 240.16 330.46 M 240.16 330.46 239.9 331.38 M 239.9 331.38 239.28 331.2 M 236.38 327.39 236.65 326.47 M 236.65 326.47 236.95 326.56 M 236.95 326.56 236.69 327.48 M 236.69 327.48 236.38 327.39 M 237 327.57 237.26 326.65 M 237.26 326.65 237.57 326.74 M 237.57 326.74 237.3 327.66 M 237.3 327.66 237 327.57 M 237.61 327.74 237.88 326.83 M 237.88 326.83 238.18 326.91 M 238.18 326.91 237.92 327.83 M 237.92 327.83 237.61 327.74 M 238.23 327.92 238.49 327 M 238.49 327 238.8 327.09 M 238.8 327.09 238.54 328.01 M 238.54 328.01 238.23 327.92 M 238.84 328.1 239.11 327.18 M 239.11 327.18 239.42 327.26 M 239.42 327.26 239.15 328.18 M 239.15 328.18 238.84 328.1 M 239.46 328.27 239.72 327.35 M 239.72 327.35 240.03 327.44 M 240.03 327.44 239.77 328.36 M 239.77 328.36 239.46 328.27 M 238.66 331.02 238.93 330.11 M 238.93 330.11 239.24 330.19 M 239.24 330.19 238.97 331.11 M 238.97 331.11 238.66 331.02 M 238.05 330.85 238.31 329.93 M 238.31 329.93 238.62 330.02 M 238.62 330.02 238.36 330.94 M 238.36 330.94 238.05 330.85 M 237.43 330.67 237.7 329.76 M 237.7 329.76 238.01 329.84 M 238.01 329.84 237.74 330.76 M 237.74 330.76 237.43 330.67 M 236.82 330.5 237.08 329.58 M 237.08 329.58 237.39 329.67 M 237.39 329.67 237.13 330.59 M 237.13 330.59 236.82 330.5 M 236.2 330.32 236.47 329.4 M 236.47 329.4 236.78 329.49 M 236.78 329.49 236.51 330.41 M 236.51 330.41 236.2 330.32 M 235.59 330.15 235.85 329.23 M 235.85 329.23 236.16 329.32 M 236.16 329.32 235.9 330.24 M 235.9 330.24 235.59 330.15 M 241 328.71 241.26 327.79 M 241.26 327.79 241.57 327.88 M 241.57 327.88 241.31 328.8 M 241.31 328.8 241 328.71 M 241.61 328.88 241.88 327.97 M 241.88 327.97 242.19 328.05 M 242.19 328.05 241.92 328.97 M 241.92 328.97 241.61 328.88 M 242.23 329.06 242.49 328.14 M 242.49 328.14 242.8 328.23 M 242.8 328.23 242.54 329.15 M 242.54 329.15 242.23 329.06 M 241.43 331.81 241.7 330.9 M 241.7 330.9 242.01 330.98 M 242.01 330.98 241.74 331.9 M 241.74 331.9 241.43 331.81 M 240.82 331.64 241.08 330.72 M 241.08 330.72 241.39 330.81 M 241.39 330.81 241.13 331.73 M 241.13 331.73 240.82 331.64 M 240.2 331.46 240.47 330.55 M 240.47 330.55 240.78 330.63 M 240.78 330.63 240.51 331.55 M 240.51 331.55 240.2 331.46 M 302.36 349.19 302.63 348.27 M 302.63 348.27 302.94 348.36 M 302.94 348.36 302.67 349.28 M 302.67 349.28 302.36 349.19 M 302.98 349.37 303.24 348.45 M 303.24 348.45 303.55 348.54 M 303.55 348.54 303.29 349.45 M 303.29 349.45 302.98 349.37 M 303.59 349.54 303.86 348.62 M 303.86 348.62 304.17 348.71 M 304.17 348.71 303.9 349.63 M 303.9 349.63 303.59 349.54 M 304.21 349.72 304.47 348.8 M 304.47 348.8 305.09 348.97 M 305.09 348.97 304.83 349.89 M 304.83 349.89 304.21 349.72 M 305.13 349.98 305.4 349.06 M 305.4 349.06 305.71 349.15 M 305.71 349.15 305.44 350.07 M 305.44 350.07 305.13 349.98 M 305.75 350.16 306.01 349.24 M 306.01 349.24 306.32 349.33 M 306.32 349.33 306.06 350.24 M 306.06 350.24 305.75 350.16 M 306.36 350.33 306.63 349.41 M 306.63 349.41 306.94 349.5 M 306.94 349.5 306.67 350.42 M 306.67 350.42 306.36 350.33 M 306.98 350.51 307.24 349.59 M 307.24 349.59 307.55 349.68 M 307.55 349.68 307.29 350.59 M 307.29 350.59 306.98 350.51 M 307.6 350.68 307.86 349.76 M 307.86 349.76 308.17 349.85 M 308.17 349.85 307.9 350.77 M 307.9 350.77 307.6 350.68 M 308.21 350.86 308.48 349.94 M 308.48 349.94 308.78 350.03 M 308.78 350.03 308.52 350.95 M 308.52 350.95 308.21 350.86 M 310.98 351.65 311.24 350.73 M 311.24 350.73 311.55 350.82 M 311.55 350.82 311.29 351.74 M 311.29 351.74 310.98 351.65 M 310.36 351.47 310.63 350.55 M 310.63 350.55 310.94 350.64 M 310.94 350.64 310.67 351.56 M 310.67 351.56 310.36 351.47 M 309.75 351.3 310.01 350.38 M 310.01 350.38 310.32 350.47 M 310.32 350.47 310.06 351.38 M 310.06 351.38 309.75 351.3 M 309.13 351.12 309.4 350.2 M 309.4 350.2 309.71 350.29 M 309.71 350.29 309.44 351.21 M 309.44 351.21 309.13 351.12 M 309 348.1 309.27 347.19 M 309.27 347.19 309.58 347.27 M 309.58 347.27 309.31 348.19 M 309.31 348.19 309 348.1 M 308.39 347.93 308.65 347.01 M 308.65 347.01 308.96 347.1 M 308.96 347.1 308.7 348.02 M 308.7 348.02 308.39 347.93 M 307.77 347.75 308.04 346.83 M 308.04 346.83 308.35 346.92 M 308.35 346.92 308.08 347.84 M 308.08 347.84 307.77 347.75 M 307.16 347.58 307.42 346.66 M 307.42 346.66 307.73 346.75 M 307.73 346.75 307.47 347.66 M 307.47 347.66 307.16 347.58 M 306.54 347.4 306.81 346.48 M 306.81 346.48 307.12 346.57 M 307.12 346.57 306.85 347.49 M 306.85 347.49 306.54 347.4 M 305.93 347.23 306.19 346.31 M 306.19 346.31 306.5 346.4 M 306.5 346.4 306.24 347.31 M 306.24 347.31 305.93 347.23 M 305 346.96 305.27 346.04 M 305.27 346.04 305.88 346.22 M 305.88 346.22 305.62 347.14 M 305.62 347.14 305 346.96 M 304.39 346.79 304.65 345.87 M 304.65 345.87 304.96 345.96 M 304.96 345.96 304.7 346.87 M 304.7 346.87 304.39 346.79 M 303.77 346.61 304.04 345.69 M 304.04 345.69 304.35 345.78 M 304.35 345.78 304.08 346.7 M 304.08 346.7 303.77 346.61 M 303.16 346.44 303.42 345.52 M 303.42 345.52 303.73 345.61 M 303.73 345.61 303.47 346.52 M 303.47 346.52 303.16 346.44 M 309.93 348.37 310.19 347.45 M 310.19 347.45 310.5 347.54 M 310.5 347.54 310.24 348.45 M 310.24 348.45 309.93 348.37 M 310.54 348.54 310.81 347.62 M 310.81 347.62 311.12 347.71 M 311.12 347.71 310.85 348.63 M 310.85 348.63 310.54 348.54 M 311.16 348.72 311.42 347.8 M 311.42 347.8 311.73 347.89 M 311.73 347.89 311.47 348.81 M 311.47 348.81 311.16 348.72 M 311.77 348.89 312.04 347.98 M 312.04 347.98 312.35 348.06 M 312.35 348.06 312.08 348.98 M 312.08 348.98 311.77 348.89 M 359.39 310.8 341.74 372.01 M 18.74 213.66 1 275.17 M 139 215.83 263.94 251.46 M 263.94 251.46 259.7 266.15 M 259.7 266.15 238.16 260 M 254.5 284.2 250.8 283.15 M 238.16 260 232.6 279.28 M 147.23 254.28 140.15 252.26 M 139 215.83 134.77 230.52 M 134.77 230.52 156.31 236.66 M 138.46 231.57 133.16 249.93 M 145.54 233.59 140.15 252.26 M 141.84 232.54 136.55 250.9 M 149.23 234.64 144.55 250.86 M 149.14 234.95 143.85 253.31 M 152.61 235.61 147.14 254.58 M 129.56 248.57 133.25 249.63 M 133.16 249.93 140.24 251.95 M 180.52 295.9 189.45 298.44 M 177.44 299.65 190.06 303.25 M 168.89 275.03 162.98 295.53 M 187.4 272.03 180.52 295.9 M 187.06 266.3 177.44 299.65 M 174.44 262.7 164.82 296.06 M 165.71 293 178.32 296.59 M 166.59 289.94 179.21 293.53 M 167.38 287.18 180 290.78 M 162.98 295.53 164.82 296.06 M 168.27 284.12 180.88 287.72 M 169.15 281.06 181.76 284.66 M 169.94 278.31 182.56 281.9 M 170.82 275.25 183.44 278.84 M 171.71 272.19 184.32 275.78 M 172.5 269.43 185.12 273.03 M 173.38 266.37 186 269.97 M 174.27 263.31 186.88 266.91 M 129.65 248.27 62.87 229.22 M 150.84 255.63 147.14 254.58 M 187.06 266.3 232.6 279.28 M 134.77 230.52 129.56 248.57 M 174.44 262.7 150.75 255.94 M 16.66 267.05 17.06 266.83 M 17.06 266.83 17.45 266.62 M 17.45 266.62 17.23 266.22 M 17.23 266.22 17.02 265.83 M 17.02 265.83 16.62 266.05 M 16.62 266.05 16.22 266.26 M 16.22 266.26 16.44 266.66 M 16.44 266.66 16.66 267.05 M 57.41 236.61 26.64 227.83 M 60.28 225.5 18.74 213.66 M 48.18 276.7 15.25 267.31 M 44.7 287.63 1 275.17 M 26.64 227.83 15.25 267.31 M 60.1 226.12 19.18 214.44 M 19.18 214.44 1.79 274.74 M 1.79 274.74 44.87 287.02 M 60.28 225.5 44.7 287.63 M 46.95 276.35 43.95 286.76 M 42.33 275.04 39.33 285.44 M 37.41 273.63 34.41 284.04 M 32.8 272.32 29.79 282.72 M 27.87 270.91 24.87 281.32 M 23.26 269.6 20.26 280 M 18.33 268.19 15.33 278.6 M 56.63 225.46 53.72 235.56 M 51.71 224.05 48.79 234.15 M 47.09 222.74 44.18 232.84 M 42.17 221.33 39.25 231.43 M 37.55 220.02 34.64 230.12 M 32.63 218.61 29.71 228.71 M 26.64 227.83 19.18 214.44 M 15.25 267.31 1.79 274.74 M 13.27 268.4 10.72 277.28 M 6.94 271.9 5.79 275.88 M 28.01 217.3 25.54 225.87 M 23.09 215.89 22.03 219.56 M 21.61 245.28 11.15 242.29 M 23.02 240.38 12.56 237.4 M 24.34 235.79 13.88 232.81 M 25.76 230.89 15.29 227.91 M 25.54 225.87 16.62 223.32 M 22.03 219.56 18.03 218.42 M 20.28 249.87 9.82 246.89 M 18.87 254.77 8.41 251.78 M 17.55 259.36 7.09 256.37 M 16.14 264.25 5.67 261.27 M 13.27 268.4 4.35 265.86 M 6.94 271.9 2.94 270.76 M 23.76 245.89 53 254.23 M 25.17 241 54.41 249.33 M 26.5 236.41 55.42 244.65 M 27.91 231.51 56.84 239.76 M 28.79 228.45 17.41 267.93 M 19.7 259.97 49.55 268.48 M 21.03 255.38 50.57 263.8 M 22.44 250.48 51.98 258.91 M 18.29 264.87 48.45 273.47 M 341.74 372.01 320.2 365.87 M 323.6 355.25 334.06 358.23 M 334.06 358.23 345.44 318.75 M 359.39 310.8 340 305.28 M 345.44 318.75 336.52 316.2 M 340.09 304.97 320.02 366.48 M 345.44 318.75 359.39 310.8 M 334.06 358.23 341.74 372.01 M 339.8 338.34 350.57 341.41 M 341.12 333.75 351.89 336.82 M 342.53 328.85 353.3 331.92 M 343.85 324.26 354.62 327.33 M 345.27 319.36 356.04 322.43 M 350.59 315.91 357.36 317.84 M 356.62 312.33 358.77 312.95 M 344.52 318.49 347.7 307.47 M 350.59 315.91 352.62 308.87 M 356.62 312.33 357.24 310.19 M 339.9 317.17 343.08 306.15 M 337.06 347.82 347.83 350.9 M 338.38 343.23 349.15 346.3 M 335.65 352.72 346.42 355.79 M 334.24 357.62 345.01 360.69 M 336.91 363.35 343.68 365.28 M 342.27 370.18 340.12 369.56 M 340.12 369.56 339.59 371.4 M 328.52 356.65 325.43 367.36 M 336.91 363.35 334.97 370.08 M 333.14 357.97 330.05 368.68 M 340.41 336.19 330.87 333.47 M 341.82 331.3 332.29 328.58 M 343.15 326.71 333.92 324.07 M 344.56 321.81 335.33 319.18 M 336.35 350.27 326.2 347.38 M 337.68 345.68 327.83 342.87 M 339.09 340.78 329.24 337.98 M 334.94 355.17 324.48 352.19 M 340.09 304.97 360.09 310.67 M 360.09 310.67 342.18 372.8 M 342.18 372.8 320.02 366.48 M 171.27 266.76 62.34 235.7 M 173.65 265.45 63.17 233.95 M 195.97 282.75 190.06 303.25 M 196.33 274.57 189.45 298.44 M 195.97 282.75 330.45 321.1 M 330.45 321.1 333.67 311.09 M 333.67 311.09 186.26 269.05 M 168.89 275.03 60.26 244.05 M 60.26 244.05 62.34 235.7 M 315.25 304.51 316.7 305.25 M 316.7 305.25 317.84 305.91 M 317.84 305.91 319.16 305.96 M 319.16 305.96 320.79 306.09 M 315.25 304.51 315.95 302.06 M 315.95 302.06 321.49 303.64 M 321.49 303.64 320.79 306.09 M 304.48 301.44 305.18 298.99 M 305.18 298.99 310.41 300.48 M 310.41 300.48 309.71 302.93 M 304.17 301.35 305.62 302.09 M 305.62 302.09 306.76 302.75 M 306.76 302.75 308.08 302.8 M 308.08 302.8 309.71 302.93 M 293.4 298.28 294.1 295.83 M 294.1 295.83 299.64 297.41 M 299.64 297.41 298.94 299.86 M 293.4 298.28 294.85 299.02 M 294.85 299.02 295.99 299.68 M 295.99 299.68 297.31 299.72 M 297.31 299.72 298.94 299.86 M 282.63 295.21 283.33 292.76 M 283.33 292.76 288.87 294.34 M 288.87 294.34 288.17 296.79 M 282.63 295.21 284.08 295.95 M 284.08 295.95 285.22 296.61 M 285.22 296.61 286.54 296.65 M 286.54 296.65 288.17 296.79 M 76.14 236.32 76.85 233.87 M 76.85 233.87 82.39 235.45 M 82.39 235.45 81.68 237.9 M 87.22 239.48 87.93 237.03 M 87.93 237.03 93.16 238.52 M 93.16 238.52 92.45 240.97 M 97.99 242.55 98.7 240.1 M 98.7 240.1 104.24 241.68 M 104.24 241.68 103.53 244.13 M 108.76 245.62 109.47 243.18 M 109.47 243.18 115.01 244.76 M 115.01 244.76 114.3 247.2 M 97.99 242.55 99.44 243.3 M 99.44 243.3 100.59 243.95 M 100.59 243.95 101.9 244 M 101.9 244 103.53 244.13 M 76.14 236.32 77.59 237.07 M 77.59 237.07 78.74 237.72 M 78.74 237.72 80.06 237.77 M 80.06 237.77 81.68 237.9 M 86.91 239.39 88.36 240.14 M 88.36 240.14 89.51 240.8 M 89.51 240.8 90.83 240.84 M 90.83 240.84 92.45 240.97 M 108.76 245.62 110.21 246.37 M 110.21 246.37 111.36 247.03 M 111.36 247.03 112.68 247.07 M 112.68 247.07 114.3 247.2 M 490.5 189.88 493.68 178.86 M 493.68 178.86 520.76 186.58 M 520.76 186.58 517.58 197.6 M 517.58 197.6 490.5 189.88 M 522.68 200.71 519.57 142.19 M 710.25 168.09 516.39 112.8 M 504.83 240.66 464.15 334.39 M 458.69 393.77 458.95 392.85 M 458.95 392.85 459.26 392.94 M 459.26 392.94 459 393.86 M 459 393.86 458.69 393.77 M 459.48 391.02 459.75 390.1 M 459.75 390.1 460.05 390.19 M 460.05 390.19 459.79 391.1 M 459.79 391.1 459.48 391.02 M 624.02 445.23 441.85 393.27 M 441.85 393.27 624.02 445.23 M 580.33 380.77 453.85 344.7 M 441.84 397.91 618.78 448.37 M 626.61 446.63 439.21 393.18 M 414.47 421.24 632.65 483.46 M 579.8 382.6 453.33 346.53 M 537.33 233.04 510.39 174.02 M 546.07 202.74 497.68 218.09 M 524.47 209.5 479.77 280.22 M 484.52 189.83 518.03 141.75 M 454.86 209.52 508.85 173.58 M 524.91 117.88 436.94 423.01 M 526.45 118.32 438.48 423.45 M 455.74 211.1 491.45 160.01 M 478.37 233.12 462.62 333.95 M 448.38 278.22 438.04 325.62 M 485 286.35 450.04 383.35 M 470.84 282.31 448.5 382.92 M 466.93 285.5 454.83 341.33 M 464.64 284.18 452.14 340.24 M 454.91 345.66 443.34 392.71 M 455.35 346.45 443.96 392.88 M 452.23 339.93 439.21 393.18 M 454.91 341.03 439.33 403.15 M 449.9 337.61 431.64 400.96 M 444.36 336.03 426.1 399.38 M 438.83 334.45 420.56 397.8 M 434.3 330.51 415.33 396.31 M 460.24 330.62 437.64 420.56 M 468.24 332.9 439.18 421 M 438.04 325.62 414.47 421.24 M 433.42 328.94 413.74 397.18 M 443.96 392.88 443.34 392.71 M 443.45 376.18 446 376.57 M 446 376.57 445.82 377.18 M 445.82 377.18 443.27 376.79 M 443.27 376.79 443.45 376.18 M 443.96 392.88 443.34 392.71 M 440.4 387.89 442.86 388.6 M 442.86 388.6 442.99 389.3 M 442.99 389.3 440.22 388.51 M 440.22 388.51 440.4 387.89 M 442.07 393.67 442.37 393.76 M 454.69 392.63 454.95 391.71 M 454.95 391.71 455.26 391.8 M 455.26 391.8 455 392.72 M 455 392.72 454.69 392.63 M 455.3 392.81 455.57 391.89 M 455.57 391.89 455.88 391.97 M 455.88 391.97 455.61 392.89 M 455.61 392.89 455.3 392.81 M 455.92 392.98 456.18 392.06 M 456.18 392.06 456.49 392.15 M 456.49 392.15 456.23 393.07 M 456.23 393.07 455.92 392.98 M 456.53 393.16 456.8 392.24 M 456.8 392.24 457.41 392.41 M 457.41 392.41 457.15 393.33 M 457.15 393.33 456.53 393.16 M 457.46 393.42 457.72 392.5 M 457.72 392.5 458.03 392.59 M 458.03 392.59 457.77 393.51 M 457.77 393.51 457.46 393.42 M 458.07 393.6 458.34 392.68 M 458.34 392.68 458.65 392.76 M 458.65 392.76 458.38 393.68 M 458.38 393.68 458.07 393.6 M 458.87 390.84 459.13 389.92 M 459.13 389.92 459.44 390.01 M 459.44 390.01 459.17 390.93 M 459.17 390.93 458.87 390.84 M 458.25 390.67 458.52 389.75 M 458.52 389.75 458.82 389.83 M 458.82 389.83 458.56 390.75 M 458.56 390.75 458.25 390.67 M 457.33 390.4 457.59 389.48 M 457.59 389.48 458.21 389.66 M 458.21 389.66 457.94 390.58 M 457.94 390.58 457.33 390.4 M 456.71 390.23 456.98 389.31 M 456.98 389.31 457.29 389.4 M 457.29 389.4 457.02 390.31 M 457.02 390.31 456.71 390.23 M 456.1 390.05 456.36 389.13 M 456.36 389.13 456.67 389.22 M 456.67 389.22 456.41 390.14 M 456.41 390.14 456.1 390.05 M 455.48 389.88 455.75 388.96 M 455.75 388.96 456.05 389.05 M 456.05 389.05 455.79 389.96 M 455.79 389.96 455.48 389.88 M 439.52 393.27 436.87 402.45 M 442.9 394.24 440.21 404.73 M 415.33 396.31 439.33 403.15 M 413.74 397.18 440.21 404.73 M 459.43 306.88 459.61 306.26 M 459.61 306.26 462.38 307.05 M 462.38 307.05 462.2 307.67 M 462.2 307.67 459.43 306.88 M 457.18 318.16 457.35 317.54 M 457.35 317.54 459.82 318.25 M 459.82 318.25 459.64 318.86 M 459.64 318.86 457.18 318.16 M 433.42 328.94 453.42 334.64 M 452.23 339.93 455 340.72 M 455 340.72 454.91 341.03 M 454.91 341.03 452.06 340.54 M 452.06 340.54 452.23 339.93 M 449.41 352.04 451.87 352.74 M 451.87 352.74 451.78 353.05 M 451.78 353.05 449.23 352.65 M 449.23 352.65 449.41 352.04 M 446.27 364.06 449.13 364.55 M 449.13 364.55 448.95 365.16 M 448.95 365.16 446.1 364.68 M 446.1 364.68 446.27 364.06 M 435 332.7 435.4 332.48 M 435.4 332.48 435.79 332.26 M 435.79 332.26 435.57 331.87 M 435.57 331.87 435.35 331.47 M 435.35 331.47 434.96 331.69 M 434.96 331.69 434.56 331.91 M 434.56 331.91 434.78 332.3 M 434.78 332.3 435 332.7 M 433.59 332.96 452.67 338.4 M 434.3 330.51 453.07 335.86 M 475.5 286.95 483.6 234.61 M 455.59 231.26 448.38 278.22 M 472.47 232.76 464.38 285.1 M 478.31 196.34 478.23 279.78 M 468.45 259.43 471 259.83 M 471 259.83 471.17 259.22 M 471.17 259.22 468.32 258.73 M 468.32 258.73 468.45 259.43 M 466.37 272.42 469.01 272.51 M 469.01 272.51 469.09 272.2 M 469.09 272.2 466.54 271.81 M 466.54 271.81 466.37 272.42 M 464.38 285.1 467.23 285.58 M 467.23 285.58 467.1 284.89 M 467.1 284.89 464.55 284.49 M 464.55 284.49 464.38 285.1 M 475.5 286.95 464.38 285.1 M 462.17 295.07 464.63 295.77 M 464.63 295.77 464.76 296.47 M 464.76 296.47 461.99 295.68 M 461.99 295.68 462.17 295.07 M 470.4 245.75 473.25 246.23 M 473.25 246.23 473.08 246.84 M 473.08 246.84 470.22 246.36 M 470.22 246.36 470.4 245.75 M 457.97 177.95 461.58 174.67 M 452.61 175.76 472.24 198.91 M 457.75 177.56 474.84 198 M 493.15 180.7 457.45 170.52 M 457.97 177.95 456.12 179.74 M 456.12 179.74 455.6 179.26 M 455.6 179.26 457.75 177.56 M 457.75 177.56 457.97 177.95 M 461.58 174.67 462.37 171.92 M 462.37 171.92 462.99 172.1 M 462.99 172.1 462.2 174.85 M 462.2 174.85 461.58 174.67 M 472.33 198.61 474.93 197.69 M 474.93 197.69 475.15 198.08 M 475.15 198.08 472.46 199.31 M 472.46 199.31 472.33 198.61 M 475.09 210.99 472.14 210.81 M 472.14 210.81 472.32 210.2 M 472.32 210.2 474.96 210.29 M 474.96 210.29 475.09 210.99 M 475.08 222.57 472.44 222.48 M 472.44 222.48 472.31 221.78 M 472.31 221.78 474.95 221.87 M 474.95 221.87 475.08 222.57 M 455.74 211.1 455.59 231.26 M 483.6 234.61 472.47 232.76 M 472.3 233.37 475.16 233.86 M 475.16 233.86 475.02 233.16 M 475.02 233.16 472.47 232.76 M 472.47 232.76 472.3 233.37 M 463.6 179.22 496.15 217.65 M 472.24 198.91 472.12 233.99 M 474.84 198 475.07 234.16 M 491.45 160.01 516.39 112.8 M 521.12 171.45 524.69 124.44 M 501.43 165.83 523.15 124 M 664.37 239.46 667.54 228.44 M 667.54 228.44 694.31 236.08 M 694.31 236.08 691.14 247.09 M 691.14 247.09 664.37 239.46 M 696.54 250.29 693.43 191.78 M 658.08 239.32 691.89 191.34 M 571.3 214.58 605.12 166.59 M 609.46 225.46 606.65 167.03 M 711.2 282.62 684.26 223.6 M 628.42 259.02 682.72 223.16 M 698.78 167.47 610.8 472.59 M 700.32 167.9 612.34 473.03 M 541.64 234.27 595.94 198.42 M 613.54 143.16 525.56 448.28 M 612 142.72 524.02 447.84 M 624.11 257.79 597.48 198.86 M 709.31 283.41 706.24 221.26 M 627.58 443.26 772.52 484.59 M 627.05 445.1 771.99 486.43 M 641.74 399.94 785.14 440.83 M 679.79 344.21 663.3 389.85 M 652.23 282.7 636.48 383.53 M 678.7 290.25 638.02 383.97 M 644.4 331.8 622.36 432.5 M 658.86 335.93 623.9 432.94 M 663.12 340.79 643.55 394.82 M 660.18 340.61 640.69 394.34 M 565.14 257.86 549.7 358.78 M 571.78 311.09 537.12 408.19 M 557.62 307.06 535.58 407.75 M 591.61 265.41 551.24 359.22 M 566.77 348.09 620.63 363.44 M 555.02 357.65 526.27 445.83 M 547.02 355.37 524.73 445.39 M 459.3 393.95 459.57 393.03 M 459.57 393.03 459.88 393.12 M 459.88 393.12 459.61 394.03 M 459.61 394.03 459.3 393.95 M 459.92 394.12 460.18 393.2 M 460.18 393.2 460.49 393.29 M 460.49 393.29 460.23 394.21 M 460.23 394.21 459.92 394.12 M 460.53 394.3 460.8 393.38 M 460.8 393.38 461.11 393.47 M 461.11 393.47 460.84 394.38 M 460.84 394.38 460.53 394.3 M 461.33 391.54 461.59 390.62 M 461.59 390.62 461.9 390.71 M 461.9 390.71 461.64 391.63 M 461.64 391.63 461.33 391.54 M 460.71 391.37 460.98 390.45 M 460.98 390.45 461.29 390.54 M 461.29 390.54 461.02 391.46 M 461.02 391.46 460.71 391.37 M 460.1 391.19 460.36 390.27 M 460.36 390.27 460.67 390.36 M 460.67 390.36 460.41 391.28 M 460.41 391.28 460.1 391.19 M 543.93 418.08 544.19 417.16 M 544.19 417.16 544.5 417.25 M 544.5 417.25 544.24 418.17 M 544.24 418.17 543.93 418.08 M 544.54 418.25 544.81 417.34 M 544.81 417.34 545.12 417.42 M 545.12 417.42 544.85 418.34 M 544.85 418.34 544.54 418.25 M 545.16 418.43 545.42 417.51 M 545.42 417.51 545.73 417.6 M 545.73 417.6 545.47 418.52 M 545.47 418.52 545.16 418.43 M 545.77 418.61 546.04 417.69 M 546.04 417.69 546.35 417.78 M 546.35 417.78 546.08 418.69 M 546.08 418.69 545.77 418.61 M 546.39 418.78 546.65 417.86 M 546.65 417.86 546.96 417.95 M 546.96 417.95 546.7 418.87 M 546.7 418.87 546.39 418.78 M 547.18 416.03 547.45 415.11 M 547.45 415.11 547.76 415.2 M 547.76 415.2 547.49 416.11 M 547.49 416.11 547.18 416.03 M 546.57 415.85 546.83 414.93 M 546.83 414.93 547.14 415.02 M 547.14 415.02 546.88 415.94 M 546.88 415.94 546.57 415.85 M 545.95 415.68 546.22 414.76 M 546.22 414.76 546.53 414.85 M 546.53 414.85 546.26 415.76 M 546.26 415.76 545.95 415.68 M 545.34 415.5 545.6 414.58 M 545.6 414.58 545.91 414.67 M 545.91 414.67 545.65 415.59 M 545.65 415.59 545.34 415.5 M 544.72 415.32 544.99 414.41 M 544.99 414.41 545.29 414.49 M 545.29 414.49 545.03 415.41 M 545.03 415.41 544.72 415.32 M 524.1 409.45 524.37 408.53 M 524.37 408.53 524.68 408.61 M 524.68 408.61 524.41 409.53 M 524.41 409.53 524.1 409.45 M 523.49 409.27 523.75 408.35 M 523.75 408.35 524.06 408.44 M 524.06 408.44 523.8 409.36 M 523.8 409.36 523.49 409.27 M 522.87 409.09 523.14 408.18 M 523.14 408.18 523.45 408.26 M 523.45 408.26 523.18 409.18 M 523.18 409.18 522.87 409.09 M 522.26 408.92 522.52 408 M 522.52 408 522.83 408.09 M 522.83 408.09 522.57 409.01 M 522.57 409.01 522.26 408.92 M 521.46 411.67 521.73 410.75 M 521.73 410.75 522.04 410.84 M 522.04 410.84 521.77 411.76 M 521.77 411.76 521.46 411.67 M 522.08 411.85 522.34 410.93 M 522.34 410.93 522.65 411.02 M 522.65 411.02 522.39 411.94 M 522.39 411.94 522.08 411.85 M 522.7 412.02 522.96 411.11 M 522.96 411.11 523.27 411.19 M 523.27 411.19 523 412.11 M 523 412.11 522.7 412.02 M 523.31 412.2 523.58 411.28 M 523.58 411.28 523.88 411.37 M 523.88 411.37 523.62 412.29 M 523.62 412.29 523.31 412.2 M 528.11 410.59 528.37 409.67 M 528.37 409.67 528.68 409.76 M 528.68 409.76 528.41 410.67 M 528.41 410.67 528.11 410.59 M 527.49 410.41 527.75 409.49 M 527.75 409.49 528.06 409.58 M 528.06 409.58 527.8 410.5 M 527.8 410.5 527.49 410.41 M 526.87 410.23 527.14 409.32 M 527.14 409.32 527.45 409.4 M 527.45 409.4 527.18 410.32 M 527.18 410.32 526.87 410.23 M 526.26 410.06 526.52 409.14 M 526.52 409.14 526.83 409.23 M 526.83 409.23 526.57 410.15 M 526.57 410.15 526.26 410.06 M 525.64 409.88 525.91 408.97 M 525.91 408.97 526.22 409.05 M 526.22 409.05 525.95 409.97 M 525.95 409.97 525.64 409.88 M 524.72 409.62 524.99 408.7 M 524.99 408.7 525.6 408.88 M 525.6 408.88 525.34 409.8 M 525.34 409.8 524.72 409.62 M 523.93 412.37 524.19 411.46 M 524.19 411.46 524.81 411.63 M 524.81 411.63 524.54 412.55 M 524.54 412.55 523.93 412.37 M 524.85 412.64 525.11 411.72 M 525.11 411.72 525.42 411.81 M 525.42 411.81 525.16 412.73 M 525.16 412.73 524.85 412.64 M 525.46 412.81 525.73 411.9 M 525.73 411.9 526.04 411.98 M 526.04 411.98 525.77 412.9 M 525.77 412.9 525.46 412.81 M 526.08 412.99 526.34 412.07 M 526.34 412.07 526.65 412.16 M 526.65 412.16 526.39 413.08 M 526.39 413.08 526.08 412.99 M 526.7 413.16 526.96 412.25 M 526.96 412.25 527.27 412.33 M 527.27 412.33 527 413.25 M 527 413.25 526.7 413.16 M 527.31 413.34 527.58 412.42 M 527.58 412.42 527.88 412.51 M 527.88 412.51 527.62 413.43 M 527.62 413.43 527.31 413.34 M 540.54 417.11 540.81 416.2 M 540.81 416.2 541.12 416.28 M 541.12 416.28 540.85 417.2 M 540.85 417.2 540.54 417.11 M 541.16 417.29 541.42 416.37 M 541.42 416.37 541.73 416.46 M 541.73 416.46 541.47 417.38 M 541.47 417.38 541.16 417.29 M 541.77 417.46 542.04 416.55 M 542.04 416.55 542.35 416.63 M 542.35 416.63 542.08 417.55 M 542.08 417.55 541.77 417.46 M 542.39 417.64 542.65 416.72 M 542.65 416.72 543.27 416.9 M 543.27 416.9 543.01 417.82 M 543.01 417.82 542.39 417.64 M 543.31 417.9 543.58 416.99 M 543.58 416.99 543.89 417.07 M 543.89 417.07 543.62 417.99 M 543.62 417.99 543.31 417.9 M 544.11 415.15 544.37 414.23 M 544.37 414.23 544.68 414.32 M 544.68 414.32 544.41 415.24 M 544.41 415.24 544.11 415.15 M 543.18 414.89 543.45 413.97 M 543.45 413.97 544.06 414.14 M 544.06 414.14 543.8 415.06 M 543.8 415.06 543.18 414.89 M 542.57 414.71 542.83 413.79 M 542.83 413.79 543.14 413.88 M 543.14 413.88 542.88 414.8 M 542.88 414.8 542.57 414.71 M 541.95 414.53 542.22 413.62 M 542.22 413.62 542.53 413.7 M 542.53 413.7 542.26 414.62 M 542.26 414.62 541.95 414.53 M 541.34 414.36 541.6 413.44 M 541.6 413.44 541.91 413.53 M 541.91 413.53 541.65 414.45 M 541.65 414.45 541.34 414.36 M 510 356.73 578.79 380.33 M 567.41 377.08 509.82 357.35 M 509.82 357.35 510 356.73 M 580.33 380.77 579.8 382.6 M 575.01 384.22 575.71 381.77 M 575.71 381.77 579.1 382.73 M 579.1 382.73 578.39 385.18 M 578.39 385.18 575.01 384.22 M 555.02 357.65 551.54 368.58 M 547.02 355.37 544.15 366.48 M 641.18 393.81 623.93 445.53 M 637.17 399.62 622.75 443.87 M 637.78 399.8 623.05 443.96 M 643.64 394.51 626.61 446.63 M 647.55 391.33 644.82 400.81 M 653.09 392.91 650.36 402.39 M 658.32 394.4 655.59 403.88 M 663.86 395.98 661.13 405.46 M 633.8 380.12 611.51 470.14 M 642.11 382.49 613.05 470.58 M 663.3 389.85 632.65 483.46 M 617.2 453.88 778.44 499.86 M 616.84 455.1 779.32 501.44 M 622.75 443.87 623.05 443.96 M 623.93 445.53 624.24 445.62 M 625.48 441.33 625.65 440.72 M 625.65 440.72 628.11 441.42 M 628.11 441.42 627.94 442.04 M 627.94 442.04 625.48 441.33 M 632.08 429.97 629.4 428.87 M 629.4 428.87 629.22 429.49 M 629.22 429.49 631.91 430.58 M 631.91 430.58 632.08 429.97 M 608.38 434.8 608.55 434.19 M 608.55 434.19 611.01 434.89 M 611.01 434.89 610.84 435.5 M 610.84 435.5 608.38 434.8 M 614.09 438.09 614.35 437.17 M 614.35 437.17 614.66 437.26 M 614.66 437.26 614.4 438.18 M 614.4 438.18 614.09 438.09 M 614.71 438.26 614.97 437.34 M 614.97 437.34 615.59 437.52 M 615.59 437.52 615.32 438.44 M 615.32 438.44 614.71 438.26 M 615.63 438.53 615.89 437.61 M 615.89 437.61 616.2 437.7 M 616.2 437.7 615.94 438.61 M 615.94 438.61 615.63 438.53 M 616.24 438.7 616.51 437.78 M 616.51 437.78 616.82 437.87 M 616.82 437.87 616.55 438.79 M 616.55 438.79 616.24 438.7 M 617.04 435.95 617.3 435.03 M 617.3 435.03 617.61 435.12 M 617.61 435.12 617.35 436.04 M 617.35 436.04 617.04 435.95 M 616.42 435.77 616.69 434.85 M 616.69 434.85 616.99 434.94 M 616.99 434.94 616.73 435.86 M 616.73 435.86 616.42 435.77 M 615.5 435.51 615.76 434.59 M 615.76 434.59 616.38 434.77 M 616.38 434.77 616.11 435.68 M 616.11 435.68 615.5 435.51 M 614.88 435.33 615.15 434.41 M 615.15 434.41 615.46 434.5 M 615.46 434.5 615.19 435.42 M 615.19 435.42 614.88 435.33 M 608.11 433.4 608.38 432.48 M 608.38 432.48 608.99 432.66 M 608.99 432.66 608.73 433.58 M 608.73 433.58 608.11 433.4 M 609.04 433.67 609.3 432.75 M 609.3 432.75 609.61 432.84 M 609.61 432.84 609.34 433.75 M 609.34 433.75 609.04 433.67 M 609.65 433.84 609.92 432.92 M 609.92 432.92 610.23 433.01 M 610.23 433.01 609.96 433.93 M 609.96 433.93 609.65 433.84 M 610.27 434.02 610.53 433.1 M 610.53 433.1 610.84 433.19 M 610.84 433.19 610.58 434.1 M 610.58 434.1 610.27 434.02 M 610.88 434.19 611.15 433.27 M 611.15 433.27 611.46 433.36 M 611.46 433.36 611.19 434.28 M 611.19 434.28 610.88 434.19 M 611.5 434.37 611.76 433.45 M 611.76 433.45 612.07 433.54 M 612.07 433.54 611.81 434.46 M 611.81 434.46 611.5 434.37 M 612.11 434.54 612.38 433.63 M 612.38 433.63 612.69 433.71 M 612.69 433.71 612.42 434.63 M 612.42 434.63 612.11 434.54 M 612.73 434.72 612.99 433.8 M 612.99 433.8 613.61 433.98 M 613.61 433.98 613.35 434.89 M 613.35 434.89 612.73 434.72 M 613.65 434.98 613.92 434.06 M 613.92 434.06 614.23 434.15 M 614.23 434.15 613.96 435.07 M 613.96 435.07 613.65 434.98 M 614.27 435.16 614.53 434.24 M 614.53 434.24 614.84 434.33 M 614.84 434.33 614.58 435.25 M 614.58 435.25 614.27 435.16 M 613.47 437.91 613.74 436.99 M 613.74 436.99 614.05 437.08 M 614.05 437.08 613.78 438 M 613.78 438 613.47 437.91 M 612.86 437.74 613.12 436.82 M 613.12 436.82 613.43 436.91 M 613.43 436.91 613.17 437.82 M 613.17 437.82 612.86 437.74 M 611.94 437.47 612.2 436.56 M 612.2 436.56 612.82 436.73 M 612.82 436.73 612.55 437.65 M 612.55 437.65 611.94 437.47 M 611.32 437.3 611.58 436.38 M 611.58 436.38 611.89 436.47 M 611.89 436.47 611.63 437.39 M 611.63 437.39 611.32 437.3 M 610.7 437.12 610.97 436.2 M 610.97 436.2 611.28 436.29 M 611.28 436.29 611.01 437.21 M 611.01 437.21 610.7 437.12 M 610.09 436.95 610.35 436.03 M 610.35 436.03 610.66 436.12 M 610.66 436.12 610.4 437.03 M 610.4 437.03 610.09 436.95 M 609.47 436.77 609.74 435.85 M 609.74 435.85 610.05 435.94 M 610.05 435.94 609.78 436.86 M 609.78 436.86 609.47 436.77 M 608.86 436.6 609.12 435.68 M 609.12 435.68 609.43 435.77 M 609.43 435.77 609.17 436.68 M 609.17 436.68 608.86 436.6 M 608.24 436.42 608.51 435.5 M 608.51 435.5 608.82 435.59 M 608.82 435.59 608.55 436.51 M 608.55 436.51 608.24 436.42 M 607.32 436.16 607.58 435.24 M 607.58 435.24 608.2 435.41 M 608.2 435.41 607.94 436.33 M 607.94 436.33 607.32 436.16 M 617.2 453.88 619.84 444.7 M 625.69 446.36 623.04 455.55 M 618.12 454.14 620.77 444.96 M 644.79 383.58 644.97 382.97 M 644.97 382.97 647.43 383.67 M 647.43 383.67 647.25 384.28 M 647.25 384.28 644.79 383.58 M 648.58 372.74 648.76 372.13 M 648.76 372.13 651.53 372.92 M 651.53 372.92 651.35 373.53 M 651.35 373.53 648.58 372.74 M 639.89 406.36 637.12 405.57 M 637.12 405.57 637.03 405.88 M 637.03 405.88 639.71 406.97 M 639.71 406.97 639.89 406.36 M 643.64 394.51 641.18 393.81 M 641.18 393.81 640.78 394.03 M 640.78 394.03 643.46 395.13 M 643.46 395.13 643.64 394.51 M 635.83 418.12 633.46 417.11 M 633.46 417.11 633.28 417.73 M 633.28 417.73 635.65 418.73 M 635.65 418.73 635.83 418.12 M 604.73 389.71 603.8 389.45 M 603.8 389.45 604.86 385.77 M 604.86 385.77 605.78 386.04 M 605.78 386.04 605.26 387.87 M 605.26 387.87 639.72 397.7 M 639.72 397.7 612.95 390.07 M 641.09 394.12 614.01 386.4 M 639.19 399.54 604.73 389.71 M 605.04 385.16 607.07 378.12 M 607.07 378.12 607.99 378.39 M 607.99 378.39 605.96 385.43 M 605.96 385.43 605.04 385.16 M 620.63 363.44 612.95 390.07 M 655.32 362.08 652.86 361.37 M 652.86 361.37 652.38 361.9 M 652.38 361.9 655.14 362.69 M 655.14 362.69 655.32 362.08 M 645.45 389.4 799 433.19 M 520.23 188.42 667.01 230.28 M 632.85 227.49 584.77 242.93 M 565.09 221.09 565.32 304.61 M 611.25 234.25 566.86 305.05 M 550.38 203.97 583.23 242.49 M 652.44 337.41 673.46 288.75 M 683.57 292.96 662.55 341.62 M 698.69 300.59 679.79 344.21 M 698.03 259 653.64 329.8 M 652.18 245.92 652.1 329.36 M 652.44 337.41 662.55 341.62 M 678.42 305.07 676.04 304.06 M 676.04 304.06 675.56 304.59 M 675.56 304.59 678.24 305.68 M 678.24 305.68 678.42 305.07 M 667.93 329.9 665.34 328.5 M 665.34 328.5 665.42 328.19 M 665.42 328.19 668.1 329.29 M 668.1 329.29 667.93 329.9 M 673.08 317.79 670.4 316.7 M 670.4 316.7 670.89 316.17 M 670.89 316.17 673.26 317.18 M 673.26 317.18 673.08 317.79 M 662.55 341.62 660.18 340.61 M 660.18 340.61 660.36 340 M 660.36 340 663.04 341.09 M 663.04 341.09 662.55 341.62 M 656.47 351.14 656.65 350.53 M 656.65 350.53 659.11 351.23 M 659.11 351.23 658.94 351.85 M 658.94 351.85 656.47 351.14 M 673.46 288.75 683.57 292.96 M 719.93 252.33 671.55 267.67 M 637.16 228.72 670.01 267.23 M 723.46 249.36 724.25 246.6 M 724.25 246.6 724.86 246.78 M 724.86 246.78 724.07 249.53 M 724.07 249.53 723.46 249.36 M 725.08 254.12 726 256.7 M 726 256.7 726.39 256.49 M 726.39 256.49 725.78 253.99 M 725.78 253.99 725.08 254.12 M 725.39 254.21 723.76 249.44 M 701.89 264.07 700.49 262.02 M 700.49 262.02 699.79 262.15 M 699.79 262.15 701.41 264.6 M 701.41 264.6 701.89 264.07 M 693.78 237.91 729.48 248.09 M 725.78 253.99 700.09 262.23 M 731.1 255.18 701.81 264.38 M 683.4 293.57 681.02 292.57 M 681.02 292.57 681.2 291.95 M 681.2 291.95 683.57 292.96 M 683.57 292.96 683.4 293.57 M 693.27 273.2 695.55 274.52 M 695.55 274.52 695.73 273.91 M 695.73 273.91 693.44 272.59 M 693.44 272.59 693.27 273.2 M 687.1 283.04 689.39 284.35 M 689.39 284.35 689.56 283.74 M 689.56 283.74 687.28 282.43 M 687.28 282.43 687.1 283.04 M 709.31 283.41 698.69 300.59 M 701.81 264.38 683.22 294.19 M 700.09 262.23 680.94 292.87 M 771.99 486.43 785.14 440.83 M 710.01 468.09 710.41 467.87 M 710.41 467.87 710.49 467.57 M 710.49 467.57 709.88 467.39 M 709.88 467.39 709.79 467.7 M 709.79 467.7 710.01 468.09 M 588.21 190.58 610.23 148.84 M 607.9 196.2 611.77 149.28 M 706.07 221.87 710.25 168.09 M 694.99 221.03 698.55 174.02 M 674.99 215.33 697.01 173.59 M 187.4 272.03 196.33 274.57 M 62.57 217.55 62.75 216.94 M 62.75 216.94 65.52 217.73 M 65.52 217.73 65.34 218.34 M 65.34 218.34 62.57 217.55 M 524.93 331.51 516.99 359.06 M 528.62 332.57 520.59 360.42 M 521.23 330.46 513.29 358.01 M 547.82 345.66 541.47 367.7 M 540.75 343.64 534.57 365.07 M 544.44 344.7 538.17 366.43 M 551.52 346.72 545.16 368.75 M 548.77 370.11 557.24 340.73 M 557.24 340.73 516.93 329.23 M 516.93 329.23 509.07 356.47 M 526.06 341.44 540.22 345.48 M 540.75 343.64 541.19 342.11 M 539.69 347.32 525.53 343.28 M 540.75 343.64 555.21 347.77 M 535.99 346.26 530.88 364.01 M 532.61 345.3 527.58 362.74 M 528.92 344.24 523.98 361.38 M 541.19 342.11 555.65 346.24 M 510 356.73 454.91 341.03 M 582.06 362.05 553.44 353.89 M 582.59 360.21 553.97 352.05 M 556.83 354.85 552.15 371.07 M 560.52 355.91 555.76 372.43 M 564.21 356.96 559.36 373.79 M 567.6 357.93 562.75 374.76 M 571.29 358.98 566.35 376.12 M 574.68 359.94 569.74 377.08 M 578.37 361 573.34 378.44 M 582.59 360.21 576.94 379.8 M 611.1 389.54 618.34 364.45 M 618.34 364.45 566.33 349.62 M 566.33 349.62 566.77 348.09 M 568.13 356.09 569.72 350.58 M 566.28 355.56 567.87 350.05 M 353.12 152.36 386.94 104.37 M 391.28 163.24 388.17 104.72 M 323.46 172.05 377.76 136.2 M 395.05 80.85 307.08 385.97 M 393.82 80.5 305.85 385.62 M 405.94 195.57 378.99 136.55 M 346.97 195.65 331.52 296.56 M 353.6 248.87 318.64 345.88 M 339.44 244.84 317.41 345.53 M 373.43 203.19 332.76 296.92 M 336.85 295.43 307.78 383.53 M 328.85 293.15 306.55 383.17 M 336.85 295.43 333.36 306.36 M 328.85 293.15 325.98 304.26 M 414.67 165.27 366.29 180.62 M 346.91 158.87 347.14 242.39 M 393.07 172.03 348.37 242.75 M 332.2 141.75 365.06 180.27 M 370.03 128.36 392.06 86.62 M 389.72 133.98 393.29 86.97 M 266.34 127.61 299.85 79.53 M 304.5 138.49 301.39 79.97 M 236.38 147.22 290.68 111.36 M 308.27 56.1 220.3 361.23 M 306.73 55.66 218.76 360.79 M 319.16 170.82 292.21 111.8 M 260.19 170.9 244.44 271.73 M 266.82 224.13 231.86 321.13 M 252.67 220.09 230.32 320.7 M 286.65 178.44 245.98 272.17 M 250.07 270.69 221.01 358.78 M 242.07 268.4 219.47 358.34 M 250.07 270.69 246.28 281.53 M 242.07 268.4 239.2 279.51 M 327.89 140.52 279.51 155.87 M 260.14 134.12 260.06 217.56 M 305.99 147.19 261.59 218 M 245.11 116.92 277.97 155.43 M 282.94 103.53 304.97 61.78 M 302.95 109.23 306.51 62.22 M 179.26 102.77 213.07 54.79 M 217.41 113.66 214.61 55.23 M 149.6 122.47 203.9 86.62 M 221.49 31.36 133.52 336.48 M 219.96 30.92 131.98 336.04 M 232.07 145.99 205.44 87.05 M 173.1 146.06 157.66 246.98 M 179.74 199.29 145.08 296.39 M 165.58 195.25 143.54 295.95 M 199.57 153.61 159.2 247.42 M 162.98 245.85 134.23 334.03 M 154.98 243.57 132.69 333.59 M 162.98 245.85 159.5 256.78 M 154.98 243.57 152.11 254.67 M 240.81 115.69 192.73 131.12 M 173.05 109.28 173.28 192.81 M 219.21 122.45 174.82 193.25 M 158.34 92.17 191.19 130.69 M 196.16 78.78 218.19 37.04 M 215.86 84.4 219.73 37.48 M 92.48 78.03 126.29 30.04 M 130.64 88.91 127.52 30.39 M 62.82 97.72 117.12 61.87 M 134.41 6.52 46.43 311.64 M 133.18 6.17 45.2 311.29 M 145.29 121.24 118.35 62.22 M 86.32 121.32 70.88 222.23 M 92.96 174.54 57.99 271.55 M 78.8 170.51 56.76 271.2 M 112.79 128.86 72.11 222.59 M 76.2 221.1 47.14 309.2 M 68.2 218.82 45.91 308.84 M 76.2 221.1 72.72 232.03 M 68.2 218.82 65.33 229.93 M 154.03 90.94 105.64 106.29 M 86.27 84.54 86.5 168.07 M 132.43 97.7 87.73 168.42 M 71.56 67.42 104.41 105.94 M 109.39 54.03 131.41 12.29 M 129.08 59.65 132.64 12.64 M 717.44 421.52 704.82 465.29 M 709.13 419.15 696.51 462.92 M 706.67 418.45 694.05 462.22 M 647.98 451.06 644.89 461.78 M 642.44 449.48 639.35 460.2 M 637.21 447.99 634.12 458.7 M 631.67 446.41 628.58 457.12 M 645.09 390.62 797.42 434.06 M 779.32 501.44 799 433.19 M 778.44 499.86 797.42 434.06 M 669.4 397.56 666.67 407.04 M 653.52 452.64 650.43 463.36 M 674.63 399.05 671.9 408.54 M 658.75 454.14 655.66 464.85 M 680.17 400.63 677.44 410.12 M 664.29 455.72 661.2 466.43 M 685.71 402.21 682.98 411.69 M 669.83 457.3 666.74 468.01 M 690.94 403.7 688.21 413.19 M 675.06 458.79 671.97 469.5 M 696.48 405.28 693.75 414.77 M 680.6 460.37 677.51 471.08 M 702.02 406.86 699.29 416.35 M 686.14 461.95 683.05 472.66 M 707.25 408.35 704.52 417.84 M 691.37 463.44 688.28 474.15 M 712.79 409.93 710.06 419.42 M 696.91 465.02 693.82 475.73 M 718.02 411.42 715.29 420.91 M 702.14 466.51 699.05 477.22 M 723.56 413 720.83 422.49 M 707.68 468.09 704.59 478.8 M 729.1 414.58 726.37 424.07 M 713.22 469.67 710.13 480.38 M 734.33 416.07 731.6 425.56 M 718.45 471.16 715.36 481.87 M 739.87 417.65 737.14 427.14 M 723.99 472.74 720.9 483.45 M 745.41 419.23 742.68 428.72 M 729.53 474.32 726.44 485.03 M 750.64 420.72 747.91 430.21 M 734.76 475.81 731.67 486.52 M 756.18 422.3 753.45 431.79 M 740.3 477.39 737.21 488.1 M 761.72 423.88 758.98 433.37 M 745.84 478.97 742.75 489.68 M 766.95 425.38 764.22 434.86 M 751.07 480.46 747.98 491.17 M 772.49 426.95 769.76 436.44 M 756.61 482.04 753.52 492.75 M 778.03 428.53 775.29 438.02 M 762.15 483.62 759.06 494.33 M 771.99 486.43 778.44 499.86 M 785.14 440.83 797.42 434.06 M 783.26 430.03 780.53 439.51 M 767.38 485.11 764.29 495.83 M 788.8 431.61 786.33 440.17 M 772.56 487.92 769.83 497.4 M 794.34 433.19 793.46 436.25 M 776.43 495.31 775.37 498.98 M 772.56 487.92 781.18 490.37 M 776.43 495.31 779.5 496.19 M 773.41 481.53 782.95 484.25 M 775.17 475.41 784.71 478.13 M 776.85 469.6 786.39 472.32 M 778.61 463.48 788.15 466.2 M 780.38 457.36 789.92 460.08 M 782.14 451.24 791.68 453.96 M 783.82 445.42 793.36 448.14 M 786.33 440.17 794.95 442.63 M 793.46 436.25 796.53 437.12 M 719.9 422.23 707.29 465.99 M 629.48 437.84 695.64 456.71 M 631.07 432.33 697.23 451.2 M 632.88 427.22 698.73 446 M 634.77 421.79 700.32 440.49 M 636.36 416.29 701.91 434.98 M 638.17 411.17 703.41 429.78 M 640.06 405.75 704.99 424.27"/>
</g>
</svg>